<svg width="101" height="50" viewBox="0 0 101 50" fill="none" xmlns="http://www.w3.org/2000/svg">
<rect x="0.75" y="6.75" width="99.5" height="42.5" rx="21.25" fill="#F2F2F2"/>
<rect x="0.75" y="6.75" width="99.5" height="42.5" rx="21.25" stroke="black" stroke-width="1.5"/>
<path d="M25.9836 38L25.9836 20.136L26.5716 20.276C26.3476 20.78 25.9183 21.284 25.2836 21.788C24.6489 22.292 23.9116 22.7307 23.0716 23.104C22.2503 23.4773 21.4009 23.7293 20.5236 23.86L20.5236 21.704C21.4009 21.5547 22.2409 21.2933 23.0436 20.92C23.8463 20.5467 24.5556 20.0987 25.1716 19.576C25.8063 19.0347 26.2729 18.456 26.5716 17.84L28.2236 17.84L28.2236 38L25.9836 38ZM38.8218 38.28C37.6458 38.28 36.5911 38.056 35.6578 37.608C34.7245 37.1413 33.9685 36.46 33.3898 35.564C32.8111 34.6493 32.4378 33.5107 32.2698 32.148L34.7338 32.148C34.9205 33.604 35.3778 34.6587 36.1058 35.312C36.8338 35.9467 37.7578 36.264 38.8778 36.264C39.6991 36.264 40.4085 36.096 41.0058 35.76C41.6031 35.424 42.0978 34.9107 42.4898 34.22C42.8818 33.5293 43.1711 32.652 43.3578 31.588C43.5445 30.5053 43.6378 29.2267 43.6378 27.752L43.6378 25.932L44.2818 26.016C44.1138 26.8747 43.7405 27.64 43.1618 28.312C42.5831 28.9653 41.8645 29.4787 41.0058 29.852C40.1471 30.2067 39.2231 30.384 38.2338 30.384C37.0018 30.384 35.9191 30.1133 34.9858 29.572C34.0525 29.012 33.3151 28.2467 32.7738 27.276C32.2511 26.3053 31.9898 25.204 31.9898 23.972C31.9898 22.6653 32.2791 21.536 32.8578 20.584C33.4365 19.632 34.2391 18.8947 35.2658 18.372C36.3111 17.8307 37.5058 17.56 38.8498 17.56C41.2391 17.56 43.0498 18.428 44.2818 20.164C45.5325 21.9 46.1578 24.448 46.1578 27.808C46.1578 30.048 45.8685 31.952 45.2898 33.52C44.7298 35.0693 43.8991 36.2547 42.7978 37.076C41.7151 37.8787 40.3898 38.28 38.8218 38.28ZM38.8218 28.424C40.1098 28.424 41.1738 28.06 42.0138 27.332C42.8725 26.604 43.3018 25.5587 43.3018 24.196C43.3018 23.2813 43.0965 22.4787 42.6858 21.788C42.2938 21.0973 41.7525 20.556 41.0618 20.164C40.3711 19.772 39.5871 19.576 38.7098 19.576C37.4591 19.576 36.4418 19.9773 35.6578 20.78C34.8925 21.564 34.5098 22.6467 34.5098 24.028C34.5098 25.3533 34.8831 26.4173 35.6298 27.22C36.3951 28.0227 37.4591 28.424 38.8218 28.424ZM56.2124 38.28C55.0364 38.28 53.9818 38.056 53.0484 37.608C52.1151 37.1413 51.3591 36.46 50.7804 35.564C50.2018 34.6493 49.8284 33.5107 49.6604 32.148L52.1244 32.148C52.3111 33.604 52.7684 34.6587 53.4964 35.312C54.2244 35.9467 55.1484 36.264 56.2684 36.264C57.0898 36.264 57.7991 36.096 58.3964 35.76C58.9938 35.424 59.4884 34.9107 59.8804 34.22C60.2724 33.5293 60.5618 32.652 60.7484 31.588C60.9351 30.5053 61.0284 29.2267 61.0284 27.752L61.0284 25.932L61.6724 26.016C61.5044 26.8747 61.1311 27.64 60.5524 28.312C59.9738 28.9653 59.2551 29.4787 58.3964 29.852C57.5378 30.2067 56.6138 30.384 55.6244 30.384C54.3924 30.384 53.3098 30.1133 52.3764 29.572C51.4431 29.012 50.7058 28.2467 50.1644 27.276C49.6418 26.3053 49.3804 25.204 49.3804 23.972C49.3804 22.6653 49.6698 21.536 50.2484 20.584C50.8271 19.632 51.6298 18.8947 52.6564 18.372C53.7018 17.8307 54.8964 17.56 56.2404 17.56C58.6298 17.56 60.4404 18.428 61.6724 20.164C62.9231 21.9 63.5484 24.448 63.5484 27.808C63.5484 30.048 63.2591 31.952 62.6804 33.52C62.1204 35.0693 61.2898 36.2547 60.1884 37.076C59.1058 37.8787 57.7804 38.28 56.2124 38.28ZM56.2124 28.424C57.5004 28.424 58.5644 28.06 59.4044 27.332C60.2631 26.604 60.6924 25.5587 60.6924 24.196C60.6924 23.2813 60.4871 22.4787 60.0764 21.788C59.6844 21.0973 59.1431 20.556 58.4524 20.164C57.7618 19.772 56.9778 19.576 56.1004 19.576C54.8498 19.576 53.8324 19.9773 53.0484 20.78C52.2831 21.564 51.9004 22.6467 51.9004 24.028C51.9004 25.3533 52.2738 26.4173 53.0204 27.22C53.7858 28.0227 54.8498 28.424 56.2124 28.424ZM73.4143 38.28C71.4169 38.28 69.8209 37.748 68.6263 36.684C67.4316 35.6013 66.7036 34.2013 66.4423 32.484L68.9063 32.484C69.1489 33.6973 69.6623 34.6307 70.4463 35.284C71.2489 35.9373 72.2196 36.264 73.3583 36.264C74.5529 36.264 75.5609 35.8907 76.3823 35.144C77.2223 34.3973 77.6423 33.212 77.6423 31.588C77.6423 29.964 77.2223 28.7507 76.3823 27.948C75.5609 27.1267 74.5156 26.716 73.2463 26.716C72.3316 26.716 71.5383 26.9027 70.8663 27.276C70.1943 27.6493 69.7463 28.088 69.5223 28.592L67.4503 28.592L68.3743 17.84L79.0143 17.84L79.0143 19.856L69.7463 19.856L70.5303 19.016L69.8863 27.136L69.3543 26.94C69.6903 26.38 70.2316 25.8947 70.9783 25.484C71.7249 25.0733 72.6396 24.868 73.7223 24.868C74.9729 24.868 76.0743 25.1387 77.0263 25.68C77.9969 26.2213 78.7529 26.996 79.2943 28.004C79.8543 28.9933 80.1343 30.188 80.1343 31.588C80.1343 32.988 79.8543 34.192 79.2943 35.2C78.7529 36.1893 77.9783 36.9547 76.9703 37.496C75.9809 38.0187 74.7956 38.28 73.4143 38.28Z" fill="black"/>
</svg>
