<svg width="101" height="50" viewBox="0 0 101 50" fill="none" xmlns="http://www.w3.org/2000/svg">
<rect x="0.75" y="6.75" width="99.5" height="42.5" rx="21.25" fill="#F2F2F2"/>
<rect x="0.75" y="6.75" width="99.5" height="42.5" rx="21.25" stroke="black" stroke-width="1.5"/>
<path d="M16.9071 38L16.9071 36.04C18.9231 34.3787 20.6031 32.9227 21.9471 31.672C23.3098 30.4213 24.3924 29.3107 25.1951 28.34C26.0164 27.3693 26.5951 26.4827 26.9311 25.68C27.2858 24.8587 27.4631 24.056 27.4631 23.272C27.4631 22.1147 27.1178 21.2093 26.4271 20.556C25.7364 19.9027 24.7844 19.576 23.5711 19.576C22.3204 19.576 21.3124 19.9307 20.5471 20.64C19.7818 21.3493 19.3151 22.3667 19.1471 23.692L16.7391 23.692C16.9258 21.8627 17.6258 20.388 18.8391 19.268C20.0711 18.1293 21.7044 17.56 23.7391 17.56C25.6244 17.56 27.1271 18.064 28.2471 19.072C29.3671 20.08 29.9271 21.4613 29.9271 23.216C29.9271 24.168 29.7404 25.12 29.3671 26.072C29.0124 27.024 28.4151 28.0227 27.5751 29.068C26.7538 30.1133 25.6618 31.2707 24.2991 32.54C22.9551 33.7907 21.2844 35.2093 19.2871 36.796L18.7551 35.984L30.2631 35.984L30.2631 38L16.9071 38ZM40.7517 38.28C39.1651 38.28 37.7744 37.8413 36.5797 36.964C35.4037 36.068 34.4797 34.836 33.8077 33.268C33.1544 31.6813 32.8277 29.8707 32.8277 27.836C32.8277 25.8013 33.1544 24.0187 33.8077 22.488C34.4611 20.9387 35.3851 19.7347 36.5797 18.876C37.7744 17.9987 39.1651 17.56 40.7517 17.56C42.3384 17.56 43.7197 17.9987 44.8957 18.876C46.0904 19.7347 47.0144 20.9387 47.6677 22.488C48.3397 24.0187 48.6757 25.8013 48.6757 27.836C48.6757 29.8893 48.3397 31.7 47.6677 33.268C47.0144 34.836 46.0904 36.068 44.8957 36.964C43.7197 37.8413 42.3384 38.28 40.7517 38.28ZM40.7517 36.264C41.8904 36.264 42.8611 35.928 43.6637 35.256C44.4664 34.5653 45.0824 33.5947 45.5117 32.344C45.9411 31.0747 46.1557 29.5627 46.1557 27.808C46.1557 26.072 45.9411 24.588 45.5117 23.356C45.1011 22.124 44.4944 21.1907 43.6917 20.556C42.8891 19.9027 41.9091 19.576 40.7517 19.576C39.5944 19.576 38.6144 19.9027 37.8117 20.556C37.0091 21.2093 36.3931 22.152 35.9637 23.384C35.5531 24.5973 35.3477 26.072 35.3477 27.808C35.3477 29.5627 35.5624 31.0747 35.9917 32.344C36.4211 33.6133 37.0371 34.584 37.8397 35.256C38.6424 35.928 39.6131 36.264 40.7517 36.264ZM59.8103 38.28C58.2237 38.28 56.833 37.8413 55.6383 36.964C54.4623 36.068 53.5383 34.836 52.8663 33.268C52.213 31.6813 51.8863 29.8707 51.8863 27.836C51.8863 25.8013 52.213 24.0187 52.8663 22.488C53.5197 20.9387 54.4437 19.7347 55.6383 18.876C56.833 17.9987 58.2237 17.56 59.8103 17.56C61.397 17.56 62.7783 17.9987 63.9543 18.876C65.149 19.7347 66.073 20.9387 66.7263 22.488C67.3983 24.0187 67.7343 25.8013 67.7343 27.836C67.7343 29.8893 67.3983 31.7 66.7263 33.268C66.073 34.836 65.149 36.068 63.9543 36.964C62.7783 37.8413 61.397 38.28 59.8103 38.28ZM59.8103 36.264C60.949 36.264 61.9197 35.928 62.7223 35.256C63.525 34.5653 64.141 33.5947 64.5703 32.344C64.9997 31.0747 65.2143 29.5627 65.2143 27.808C65.2143 26.072 64.9997 24.588 64.5703 23.356C64.1597 22.124 63.553 21.1907 62.7503 20.556C61.9477 19.9027 60.9677 19.576 59.8103 19.576C58.653 19.576 57.673 19.9027 56.8703 20.556C56.0677 21.2093 55.4517 22.152 55.0223 23.384C54.6117 24.5973 54.4063 26.072 54.4063 27.808C54.4063 29.5627 54.621 31.0747 55.0503 32.344C55.4797 33.6133 56.0957 34.584 56.8983 35.256C57.701 35.928 58.6717 36.264 59.8103 36.264ZM77.3108 38.28C75.3134 38.28 73.7174 37.748 72.5228 36.684C71.3281 35.6013 70.6001 34.2013 70.3388 32.484L72.8028 32.484C73.0454 33.6973 73.5588 34.6307 74.3428 35.284C75.1454 35.9373 76.1161 36.264 77.2548 36.264C78.4494 36.264 79.4574 35.8907 80.2788 35.144C81.1188 34.3973 81.5388 33.212 81.5388 31.588C81.5388 29.964 81.1188 28.7507 80.2788 27.948C79.4574 27.1267 78.4121 26.716 77.1428 26.716C76.2281 26.716 75.4348 26.9027 74.7628 27.276C74.0908 27.6493 73.6428 28.088 73.4188 28.592L71.3468 28.592L72.2708 17.84L82.9108 17.84L82.9108 19.856L73.6428 19.856L74.4268 19.016L73.7828 27.136L73.2508 26.94C73.5868 26.38 74.1281 25.8947 74.8748 25.484C75.6214 25.0733 76.5361 24.868 77.6188 24.868C78.8694 24.868 79.9708 25.1387 80.9228 25.68C81.8934 26.2213 82.6494 26.996 83.1908 28.004C83.7508 28.9933 84.0308 30.188 84.0308 31.588C84.0308 32.988 83.7508 34.192 83.1908 35.2C82.6494 36.1893 81.8748 36.9547 80.8668 37.496C79.8774 38.0187 78.6921 38.28 77.3108 38.28Z" fill="black"/>
</svg>
