<svg width="101" height="50" viewBox="0 0 101 50" fill="none" xmlns="http://www.w3.org/2000/svg">
<rect x="0.75" y="6.75" width="99.5" height="42.5" rx="21.25" fill="#F2F2F2"/>
<rect x="0.75" y="6.75" width="99.5" height="42.5" rx="21.25" stroke="black" stroke-width="1.5"/>
<path d="M21.2684 38L21.2684 36.04C23.2844 34.3787 24.9644 32.9227 26.3084 31.672C27.6711 30.4213 28.7538 29.3107 29.5564 28.34C30.3778 27.3693 30.9564 26.4827 31.2924 25.68C31.6471 24.8587 31.8244 24.056 31.8244 23.272C31.8244 22.1147 31.4791 21.2093 30.7884 20.556C30.0978 19.9027 29.1458 19.576 27.9324 19.576C26.6818 19.576 25.6738 19.9307 24.9084 20.64C24.1431 21.3493 23.6764 22.3667 23.5084 23.692L21.1004 23.692C21.2871 21.8627 21.9871 20.388 23.2004 19.268C24.4324 18.1293 26.0658 17.56 28.1004 17.56C29.9858 17.56 31.4884 18.064 32.6084 19.072C33.7284 20.08 34.2884 21.4613 34.2884 23.216C34.2884 24.168 34.1018 25.12 33.7284 26.072C33.3738 27.024 32.7764 28.0227 31.9364 29.068C31.1151 30.1133 30.0231 31.2707 28.6604 32.54C27.3164 33.7907 25.6458 35.2093 23.6484 36.796L23.1164 35.984L34.6244 35.984L34.6244 38L21.2684 38ZM45.1131 38.28C43.5264 38.28 42.1357 37.8413 40.9411 36.964C39.7651 36.068 38.8411 34.836 38.1691 33.268C37.5157 31.6813 37.1891 29.8707 37.1891 27.836C37.1891 25.8013 37.5157 24.0187 38.1691 22.488C38.8224 20.9387 39.7464 19.7347 40.9411 18.876C42.1357 17.9987 43.5264 17.56 45.1131 17.56C46.6997 17.56 48.0811 17.9987 49.2571 18.876C50.4517 19.7347 51.3757 20.9387 52.0291 22.488C52.7011 24.0187 53.0371 25.8013 53.0371 27.836C53.0371 29.8893 52.7011 31.7 52.0291 33.268C51.3757 34.836 50.4517 36.068 49.2571 36.964C48.0811 37.8413 46.6997 38.28 45.1131 38.28ZM45.1131 36.264C46.2517 36.264 47.2224 35.928 48.0251 35.256C48.8277 34.5653 49.4437 33.5947 49.8731 32.344C50.3024 31.0747 50.5171 29.5627 50.5171 27.808C50.5171 26.072 50.3024 24.588 49.8731 23.356C49.4624 22.124 48.8557 21.1907 48.0531 20.556C47.2504 19.9027 46.2704 19.576 45.1131 19.576C43.9557 19.576 42.9757 19.9027 42.1731 20.556C41.3704 21.2093 40.7544 22.152 40.3251 23.384C39.9144 24.5973 39.7091 26.072 39.7091 27.808C39.7091 29.5627 39.9237 31.0747 40.3531 32.344C40.7824 33.6133 41.3984 34.584 42.2011 35.256C43.0037 35.928 43.9744 36.264 45.1131 36.264ZM60.4367 38L60.4367 20.136L61.0247 20.276C60.8007 20.78 60.3714 21.284 59.7367 21.788C59.1021 22.292 58.3647 22.7307 57.5247 23.104C56.7034 23.4773 55.8541 23.7293 54.9767 23.86L54.9767 21.704C55.8541 21.5547 56.6941 21.2933 57.4967 20.92C58.2994 20.5467 59.0087 20.0987 59.6247 19.576C60.2594 19.0347 60.7261 18.456 61.0247 17.84L62.6767 17.84L62.6767 38L60.4367 38ZM72.9494 38.28C70.9521 38.28 69.3561 37.748 68.1614 36.684C66.9668 35.6013 66.2388 34.2013 65.9774 32.484L68.4414 32.484C68.6841 33.6973 69.1974 34.6307 69.9814 35.284C70.7841 35.9373 71.7548 36.264 72.8934 36.264C74.0881 36.264 75.0961 35.8907 75.9174 35.144C76.7574 34.3973 77.1774 33.212 77.1774 31.588C77.1774 29.964 76.7574 28.7507 75.9174 27.948C75.0961 27.1267 74.0508 26.716 72.7814 26.716C71.8668 26.716 71.0734 26.9027 70.4014 27.276C69.7294 27.6493 69.2814 28.088 69.0574 28.592L66.9854 28.592L67.9094 17.84L78.5494 17.84L78.5494 19.856L69.2814 19.856L70.0654 19.016L69.4214 27.136L68.8894 26.94C69.2254 26.38 69.7668 25.8947 70.5134 25.484C71.2601 25.0733 72.1748 24.868 73.2574 24.868C74.5081 24.868 75.6094 25.1387 76.5614 25.68C77.5321 26.2213 78.2881 26.996 78.8294 28.004C79.3894 28.9933 79.6694 30.188 79.6694 31.588C79.6694 32.988 79.3894 34.192 78.8294 35.2C78.2881 36.1893 77.5134 36.9547 76.5054 37.496C75.5161 38.0187 74.3308 38.28 72.9494 38.28Z" fill="black"/>
</svg>
