<svg width="101" height="50" viewBox="0 0 101 50" fill="none" xmlns="http://www.w3.org/2000/svg">
<rect x="0.75" y="6.75" width="99.5" height="42.5" rx="21.25" fill="#F2F2F2"/>
<rect x="0.75" y="6.75" width="99.5" height="42.5" rx="21.25" stroke="black" stroke-width="1.5"/>
<path d="M18.8895 38L18.8895 36.04C20.9055 34.3787 22.5855 32.9227 23.9295 31.672C25.2922 30.4213 26.3749 29.3107 27.1775 28.34C27.9989 27.3693 28.5775 26.4827 28.9135 25.68C29.2682 24.8587 29.4455 24.056 29.4455 23.272C29.4455 22.1147 29.1002 21.2093 28.4095 20.556C27.7189 19.9027 26.7669 19.576 25.5535 19.576C24.3029 19.576 23.2949 19.9307 22.5295 20.64C21.7642 21.3493 21.2975 22.3667 21.1295 23.692L18.7215 23.692C18.9082 21.8627 19.6082 20.388 20.8215 19.268C22.0535 18.1293 23.6869 17.56 25.7215 17.56C27.6069 17.56 29.1095 18.064 30.2295 19.072C31.3495 20.08 31.9095 21.4613 31.9095 23.216C31.9095 24.168 31.7229 25.12 31.3495 26.072C30.9949 27.024 30.3975 28.0227 29.5575 29.068C28.7362 30.1133 27.6442 31.2707 26.2815 32.54C24.9375 33.7907 23.2669 35.2093 21.2695 36.796L20.7375 35.984L32.2455 35.984L32.2455 38L18.8895 38ZM42.7342 38.28C41.1475 38.28 39.7568 37.8413 38.5622 36.964C37.3862 36.068 36.4622 34.836 35.7902 33.268C35.1368 31.6813 34.8102 29.8707 34.8102 27.836C34.8102 25.8013 35.1368 24.0187 35.7902 22.488C36.4435 20.9387 37.3675 19.7347 38.5622 18.876C39.7568 17.9987 41.1475 17.56 42.7342 17.56C44.3208 17.56 45.7022 17.9987 46.8782 18.876C48.0728 19.7347 48.9968 20.9387 49.6502 22.488C50.3222 24.0187 50.6582 25.8013 50.6582 27.836C50.6582 29.8893 50.3222 31.7 49.6502 33.268C48.9968 34.836 48.0728 36.068 46.8782 36.964C45.7022 37.8413 44.3208 38.28 42.7342 38.28ZM42.7342 36.264C43.8728 36.264 44.8435 35.928 45.6462 35.256C46.4488 34.5653 47.0648 33.5947 47.4942 32.344C47.9235 31.0747 48.1382 29.5627 48.1382 27.808C48.1382 26.072 47.9235 24.588 47.4942 23.356C47.0835 22.124 46.4768 21.1907 45.6742 20.556C44.8715 19.9027 43.8915 19.576 42.7342 19.576C41.5768 19.576 40.5968 19.9027 39.7942 20.556C38.9915 21.2093 38.3755 22.152 37.9462 23.384C37.5355 24.5973 37.3302 26.072 37.3302 27.808C37.3302 29.5627 37.5448 31.0747 37.9742 32.344C38.4035 33.6133 39.0195 34.584 39.8222 35.256C40.6248 35.928 41.5955 36.264 42.7342 36.264ZM53.0145 38L53.0145 36.04C55.0305 34.3787 56.7105 32.9227 58.0545 31.672C59.4172 30.4213 60.4999 29.3107 61.3025 28.34C62.1239 27.3693 62.7025 26.4827 63.0385 25.68C63.3932 24.8587 63.5705 24.056 63.5705 23.272C63.5705 22.1147 63.2252 21.2093 62.5345 20.556C61.8439 19.9027 60.8919 19.576 59.6785 19.576C58.4279 19.576 57.4199 19.9307 56.6545 20.64C55.8892 21.3493 55.4225 22.3667 55.2545 23.692L52.8465 23.692C53.0332 21.8627 53.7332 20.388 54.9465 19.268C56.1785 18.1293 57.8119 17.56 59.8465 17.56C61.7319 17.56 63.2345 18.064 64.3545 19.072C65.4745 20.08 66.0345 21.4613 66.0345 23.216C66.0345 24.168 65.8479 25.12 65.4745 26.072C65.1199 27.024 64.5225 28.0227 63.6825 29.068C62.8612 30.1133 61.7692 31.2707 60.4065 32.54C59.0625 33.7907 57.3919 35.2093 55.3945 36.796L54.8625 35.984L66.3705 35.984L66.3705 38L53.0145 38ZM75.3283 38.28C73.331 38.28 71.735 37.748 70.5403 36.684C69.3457 35.6013 68.6177 34.2013 68.3563 32.484L70.8203 32.484C71.063 33.6973 71.5763 34.6307 72.3603 35.284C73.163 35.9373 74.1337 36.264 75.2723 36.264C76.467 36.264 77.475 35.8907 78.2963 35.144C79.1363 34.3973 79.5563 33.212 79.5563 31.588C79.5563 29.964 79.1363 28.7507 78.2963 27.948C77.475 27.1267 76.4297 26.716 75.1603 26.716C74.2457 26.716 73.4523 26.9027 72.7803 27.276C72.1083 27.6493 71.6603 28.088 71.4363 28.592L69.3643 28.592L70.2883 17.84L80.9283 17.84L80.9283 19.856L71.6603 19.856L72.4443 19.016L71.8003 27.136L71.2683 26.94C71.6043 26.38 72.1457 25.8947 72.8923 25.484C73.639 25.0733 74.5537 24.868 75.6363 24.868C76.887 24.868 77.9883 25.1387 78.9403 25.68C79.911 26.2213 80.667 26.996 81.2083 28.004C81.7683 28.9933 82.0483 30.188 82.0483 31.588C82.0483 32.988 81.7683 34.192 81.2083 35.2C80.667 36.1893 79.8923 36.9547 78.8843 37.496C77.895 38.0187 76.7097 38.28 75.3283 38.28Z" fill="black"/>
</svg>
