<svg width="166" height="44" viewBox="0 0 166 44" fill="none" xmlns="http://www.w3.org/2000/svg">
<rect x="0.75" y="0.75" width="164.5" height="42.5" rx="21.25" fill="#F2F2F2"/>
<rect x="0.75" y="0.75" width="164.5" height="42.5" rx="21.25" stroke="black" stroke-width="1.5"/>
<path d="M21.5809 32.252C19.9942 32.252 18.8369 31.8973 18.1089 31.188C17.3996 30.46 17.0449 29.4147 17.0449 28.052L17.0449 14.388L19.2849 13.548L19.2849 28.024C19.2849 28.8267 19.4902 29.4147 19.9009 29.788C20.3116 30.1613 20.9836 30.348 21.9169 30.348C22.2902 30.348 22.6076 30.3293 22.8689 30.292C23.1489 30.236 23.3729 30.1707 23.5409 30.096L23.5409 32C23.3542 32.0747 23.0836 32.1307 22.7289 32.168C22.3929 32.224 22.0102 32.252 21.5809 32.252ZM14.1049 19.624L14.1049 17.72L23.5409 17.72L23.5409 19.624L14.1049 19.624ZM26.4236 32L26.4236 11.84L28.6636 11.84L28.6636 32L26.4236 32ZM36.6436 32L36.6436 22.648C36.6436 21.5653 36.3729 20.7533 35.8316 20.212C35.2903 19.6707 34.4876 19.4 33.4236 19.4C32.4903 19.4 31.6596 19.6053 30.9316 20.016C30.2223 20.4267 29.6623 20.996 29.2516 21.724C28.8596 22.452 28.6636 23.3013 28.6636 24.272L28.2996 20.884C28.7849 19.82 29.5223 18.98 30.5116 18.364C31.5196 17.748 32.6583 17.44 33.9276 17.44C35.4209 17.44 36.6156 17.8693 37.5116 18.728C38.4263 19.568 38.8836 20.6787 38.8836 22.06L38.8836 32L36.6436 32ZM43.1853 32L43.1853 17.72L45.4253 17.72L45.4253 32L43.1853 32ZM43.0173 14.472L43.0173 11.84L45.5933 11.84L45.5933 14.472L43.0173 14.472ZM54.7559 32.28C53.0012 32.28 51.6012 31.8787 50.5559 31.076C49.5105 30.2547 48.9132 29.0973 48.7639 27.604L50.9199 27.604C51.0505 28.5187 51.4519 29.2187 52.1239 29.704C52.7959 30.1893 53.6919 30.432 54.8119 30.432C55.8012 30.432 56.5759 30.2453 57.1359 29.872C57.6959 29.4987 57.9759 28.9667 57.9759 28.276C57.9759 27.7907 57.8172 27.3707 57.4999 27.016C57.1825 26.6427 56.5479 26.3347 55.5959 26.092L53.2999 25.504C51.9932 25.168 51.0132 24.6547 50.3599 23.964C49.7065 23.2547 49.3799 22.4147 49.3799 21.444C49.3799 20.212 49.8372 19.2413 50.7519 18.532C51.6665 17.804 52.9079 17.44 54.4759 17.44C56.0252 17.44 57.2852 17.8133 58.2559 18.56C59.2265 19.3067 59.7772 20.3427 59.9079 21.668L57.7519 21.668C57.6212 20.9027 57.2665 20.3147 56.6879 19.904C56.1092 19.4933 55.3439 19.288 54.3919 19.288C53.4772 19.288 52.7679 19.4653 52.2639 19.82C51.7599 20.156 51.5079 20.6413 51.5079 21.276C51.5079 21.7613 51.6852 22.1813 52.0399 22.536C52.4132 22.8907 53.0292 23.1893 53.8879 23.432L56.1279 24.048C57.4532 24.4027 58.4519 24.944 59.1239 25.672C59.7959 26.4 60.1319 27.2773 60.1319 28.304C60.1319 29.5547 59.6559 30.5347 58.7039 31.244C57.7519 31.9347 56.4359 32.28 54.7559 32.28ZM68.7517 32L68.7517 17.72L70.8517 17.72L70.8517 21.08L70.9917 21.08L70.9917 32L68.7517 32ZM78.3837 32L78.3837 22.536C78.3837 21.4533 78.1411 20.66 77.6557 20.156C77.1704 19.652 76.4704 19.4 75.5557 19.4C74.6971 19.4 73.9224 19.6053 73.2317 20.016C72.5411 20.4267 71.9904 20.996 71.5797 21.724C71.1877 22.452 70.9917 23.3013 70.9917 24.272L70.6277 20.884C71.1131 19.82 71.8411 18.98 72.8117 18.364C73.7824 17.748 74.8371 17.44 75.9757 17.44C77.3571 17.44 78.4771 17.8507 79.3357 18.672C80.1944 19.4747 80.6237 20.5667 80.6237 21.948L80.6237 32L78.3837 32ZM88.0157 32L88.0157 22.536C88.0157 21.4533 87.7731 20.66 87.2877 20.156C86.8024 19.652 86.1024 19.4 85.1877 19.4C84.3291 19.4 83.5544 19.6053 82.8637 20.016C82.1731 20.4267 81.6224 20.996 81.2117 21.724C80.8197 22.452 80.6237 23.3013 80.6237 24.272L80.0637 20.884C80.5491 19.82 81.2957 18.98 82.3037 18.364C83.3117 17.748 84.3944 17.44 85.5517 17.44C86.9331 17.44 88.0624 17.8507 88.9397 18.672C89.8171 19.4747 90.2557 20.5667 90.2557 21.948L90.2557 32L88.0157 32ZM100.5 32.28C99.1002 32.28 97.8682 31.9533 96.8042 31.3C95.7402 30.6467 94.9096 29.76 94.3122 28.64C93.7336 27.5013 93.4442 26.2227 93.4442 24.804C93.4442 23.3667 93.7429 22.0973 94.3402 20.996C94.9376 19.8947 95.7589 19.0267 96.8042 18.392C97.8682 17.7573 99.1002 17.44 100.5 17.44C101.919 17.44 103.151 17.7573 104.196 18.392C105.26 19.0267 106.082 19.8947 106.66 20.996C107.258 22.0973 107.556 23.3667 107.556 24.804C107.556 26.2227 107.258 27.5013 106.66 28.64C106.082 29.76 105.26 30.6467 104.196 31.3C103.151 31.9533 101.919 32.28 100.5 32.28ZM100.5 30.376C101.471 30.376 102.311 30.1427 103.02 29.676C103.73 29.1907 104.28 28.528 104.672 27.688C105.064 26.848 105.26 25.8773 105.26 24.776C105.26 23.1333 104.822 21.8173 103.944 20.828C103.086 19.8387 101.938 19.344 100.5 19.344C99.0816 19.344 97.9336 19.8387 97.0562 20.828C96.1789 21.8173 95.7402 23.1333 95.7402 24.776C95.7402 25.8773 95.9362 26.848 96.3282 27.688C96.7202 28.528 97.2709 29.1907 97.9802 29.676C98.7082 30.1427 99.5482 30.376 100.5 30.376ZM110.916 32L110.916 17.72L113.016 17.72L113.016 21.08L113.156 21.08L113.156 32L110.916 32ZM121.136 32L121.136 22.648C121.136 21.5653 120.865 20.7533 120.324 20.212C119.782 19.6707 118.98 19.4 117.916 19.4C116.982 19.4 116.152 19.6053 115.424 20.016C114.714 20.4267 114.154 20.996 113.744 21.724C113.352 22.452 113.156 23.3013 113.156 24.272L112.792 20.884C113.277 19.82 114.014 18.98 115.004 18.364C116.012 17.748 117.15 17.44 118.42 17.44C119.913 17.44 121.108 17.8693 122.004 18.728C122.918 19.568 123.376 20.6787 123.376 22.06L123.376 32L121.136 32ZM133.007 32.252C131.42 32.252 130.263 31.8973 129.535 31.188C128.825 30.46 128.471 29.4147 128.471 28.052L128.471 14.388L130.711 13.548L130.711 28.024C130.711 28.8267 130.916 29.4147 131.327 29.788C131.737 30.1613 132.409 30.348 133.343 30.348C133.716 30.348 134.033 30.3293 134.295 30.292C134.575 30.236 134.799 30.1707 134.967 30.096L134.967 32C134.78 32.0747 134.509 32.1307 134.155 32.168C133.819 32.224 133.436 32.252 133.007 32.252ZM125.531 19.624L125.531 17.72L134.967 17.72L134.967 19.624L125.531 19.624ZM137.849 32L137.849 11.84L140.089 11.84L140.089 32L137.849 32ZM148.069 32L148.069 22.648C148.069 21.5653 147.799 20.7533 147.257 20.212C146.716 19.6707 145.913 19.4 144.849 19.4C143.916 19.4 143.085 19.6053 142.357 20.016C141.648 20.4267 141.088 20.996 140.677 21.724C140.285 22.452 140.089 23.3013 140.089 24.272L139.725 20.884C140.211 19.82 140.948 18.98 141.937 18.364C142.945 17.748 144.084 17.44 145.353 17.44C146.847 17.44 148.041 17.8693 148.937 18.728C149.852 19.568 150.309 20.6787 150.309 22.06L150.309 32L148.069 32Z" fill="black"/>
</svg>
