<svg width="118" height="44" viewBox="0 0 118 44" fill="none" xmlns="http://www.w3.org/2000/svg">
<rect x="0.75" y="0.75" width="116.5" height="42.5" rx="21.25" fill="#F2F2F2"/>
<rect x="0.75" y="0.75" width="116.5" height="42.5" rx="21.25" stroke="black" stroke-width="1.5"/>
<path d="M30.452 32.252C28.8653 32.252 27.708 31.8973 26.98 31.188C26.2707 30.46 25.916 29.4147 25.916 28.052L25.916 14.388L28.156 13.548L28.156 28.024C28.156 28.8267 28.3613 29.4147 28.772 29.788C29.1827 30.1613 29.8547 30.348 30.788 30.348C31.1613 30.348 31.4787 30.3293 31.74 30.292C32.02 30.236 32.244 30.1707 32.412 30.096L32.412 32C32.2253 32.0747 31.9547 32.1307 31.6 32.168C31.264 32.224 30.8813 32.252 30.452 32.252ZM22.976 19.624L22.976 17.72L32.412 17.72L32.412 19.624L22.976 19.624ZM40.9026 32.28C39.5026 32.28 38.2706 31.9533 37.2066 31.3C36.1426 30.6467 35.3119 29.76 34.7146 28.64C34.1359 27.5013 33.8466 26.2227 33.8466 24.804C33.8466 23.3667 34.1452 22.0973 34.7426 20.996C35.3399 19.8947 36.1612 19.0267 37.2066 18.392C38.2706 17.7573 39.5026 17.44 40.9026 17.44C42.3212 17.44 43.5532 17.7573 44.5986 18.392C45.6626 19.0267 46.4839 19.8947 47.0626 20.996C47.6599 22.0973 47.9586 23.3667 47.9586 24.804C47.9586 26.2227 47.6599 27.5013 47.0626 28.64C46.4839 29.76 45.6626 30.6467 44.5986 31.3C43.5532 31.9533 42.3212 32.28 40.9026 32.28ZM40.9026 30.376C41.8732 30.376 42.7132 30.1427 43.4226 29.676C44.1319 29.1907 44.6826 28.528 45.0746 27.688C45.4666 26.848 45.6626 25.8773 45.6626 24.776C45.6626 23.1333 45.2239 21.8173 44.3466 20.828C43.4879 19.8387 42.3399 19.344 40.9026 19.344C39.4839 19.344 38.3359 19.8387 37.4586 20.828C36.5812 21.8173 36.1426 23.1333 36.1426 24.776C36.1426 25.8773 36.3386 26.848 36.7306 27.688C37.1226 28.528 37.6732 29.1907 38.3826 29.676C39.1106 30.1427 39.9506 30.376 40.9026 30.376ZM61.7061 32L61.7061 28.668L61.9861 28.752C61.6315 29.8347 60.9781 30.6933 60.0261 31.328C59.0928 31.9627 57.9728 32.28 56.6661 32.28C55.3781 32.28 54.2488 31.972 53.2781 31.356C52.3261 30.74 51.5795 29.8813 51.0381 28.78C50.5155 27.6787 50.2541 26.3907 50.2541 24.916C50.2541 23.4227 50.5248 22.116 51.0661 20.996C51.6075 19.876 52.3635 19.008 53.3341 18.392C54.3048 17.776 55.4435 17.468 56.7501 17.468C58.0941 17.468 59.2235 17.7947 60.1381 18.448C61.0528 19.1013 61.6781 20.0253 62.0141 21.22L61.5661 21.276L61.5661 11.84L63.8061 11.84L63.8061 32L61.7061 32ZM57.0861 30.32C58.5235 30.32 59.6435 29.8347 60.4461 28.864C61.2675 27.8747 61.6781 26.5307 61.6781 24.832C61.6781 23.1707 61.2675 21.8547 60.4461 20.884C59.6248 19.9133 58.5048 19.428 57.0861 19.428C55.6675 19.428 54.5568 19.9133 53.7541 20.884C52.9515 21.8547 52.5501 23.1987 52.5501 24.916C52.5501 26.596 52.9515 27.9213 53.7541 28.892C54.5568 29.844 55.6675 30.32 57.0861 30.32ZM77.0626 32C76.9879 31.6827 76.9319 31.3187 76.8946 30.908C76.8759 30.4973 76.8666 29.9747 76.8666 29.34L76.7266 29.34L76.7266 22.508C76.7266 21.4253 76.4746 20.632 75.9706 20.128C75.4853 19.6053 74.6919 19.344 73.5906 19.344C72.5079 19.344 71.6399 19.568 70.9866 20.016C70.3519 20.4453 69.9973 21.0613 69.9226 21.864L67.7666 21.864C67.8599 20.4827 68.4386 19.4 69.5026 18.616C70.5666 17.832 71.9573 17.44 73.6746 17.44C75.4479 17.44 76.7639 17.86 77.6226 18.7C78.4813 19.54 78.9106 20.8 78.9106 22.48L78.9106 29.34C78.9106 29.7507 78.9386 30.18 78.9946 30.628C79.0506 31.0573 79.1253 31.5147 79.2186 32L77.0626 32ZM72.1626 32.28C70.6879 32.28 69.5119 31.9253 68.6346 31.216C67.7759 30.488 67.3466 29.4987 67.3466 28.248C67.3466 26.9973 67.7759 26.0267 68.6346 25.336C69.4933 24.6453 70.7439 24.16 72.3866 23.88L77.3706 23.04L77.3706 24.888L72.7226 25.616C71.6773 25.784 70.8839 26.064 70.3426 26.456C69.8013 26.848 69.5306 27.4173 69.5306 28.164C69.5306 28.892 69.7733 29.4427 70.2586 29.816C70.7626 30.1893 71.4999 30.376 72.4706 30.376C73.7213 30.376 74.7386 30.096 75.5226 29.536C76.3253 28.9573 76.7266 28.2107 76.7266 27.296L77.0906 29.284C76.7919 30.236 76.2039 30.9733 75.3266 31.496C74.4679 32.0187 73.4133 32.28 72.1626 32.28ZM83.8314 37.74L87.0234 30.32L87.5274 29.536L92.2034 17.72L94.4994 17.72L86.2114 37.74L83.8314 37.74ZM87.2754 32.14L80.8634 17.72L83.3274 17.72L88.8434 30.628L87.2754 32.14Z" fill="black"/>
</svg>
