<svg width="160" height="44" viewBox="0 0 160 44" fill="none" xmlns="http://www.w3.org/2000/svg">
<rect x="0.75" y="0.75" width="158.5" height="42.5" rx="21.25" fill="#F2F2F2"/>
<rect x="0.75" y="0.75" width="158.5" height="42.5" rx="21.25" stroke="black" stroke-width="1.5"/>
<path d="M27.618 32.252C26.0313 32.252 24.874 31.8973 24.146 31.188C23.4367 30.46 23.082 29.4147 23.082 28.052L23.082 14.388L25.322 13.548L25.322 28.024C25.322 28.8267 25.5273 29.4147 25.938 29.788C26.3487 30.1613 27.0207 30.348 27.954 30.348C28.3273 30.348 28.6447 30.3293 28.906 30.292C29.186 30.236 29.41 30.1707 29.578 30.096L29.578 32C29.3913 32.0747 29.1207 32.1307 28.766 32.168C28.43 32.224 28.0473 32.252 27.618 32.252ZM20.142 19.624L20.142 17.72L29.578 17.72L29.578 19.624L20.142 19.624ZM32.4607 32L32.4607 11.84L34.7007 11.84L34.7007 32L32.4607 32ZM42.6807 32L42.6807 22.648C42.6807 21.5653 42.41 20.7533 41.8687 20.212C41.3274 19.6707 40.5247 19.4 39.4607 19.4C38.5274 19.4 37.6967 19.6053 36.9687 20.016C36.2594 20.4267 35.6994 20.996 35.2887 21.724C34.8967 22.452 34.7007 23.3013 34.7007 24.272L34.3367 20.884C34.822 19.82 35.5594 18.98 36.5487 18.364C37.5567 17.748 38.6954 17.44 39.9647 17.44C41.458 17.44 42.6527 17.8693 43.5487 18.728C44.4634 19.568 44.9207 20.6787 44.9207 22.06L44.9207 32L42.6807 32ZM49.2224 32L49.2224 17.72L51.4624 17.72L51.4624 32L49.2224 32ZM49.0544 14.472L49.0544 11.84L51.6304 11.84L51.6304 14.472L49.0544 14.472ZM60.793 32.28C59.0383 32.28 57.6383 31.8787 56.593 31.076C55.5477 30.2547 54.9503 29.0973 54.801 27.604L56.957 27.604C57.0877 28.5187 57.489 29.2187 58.161 29.704C58.833 30.1893 59.729 30.432 60.849 30.432C61.8383 30.432 62.613 30.2453 63.173 29.872C63.733 29.4987 64.013 28.9667 64.013 28.276C64.013 27.7907 63.8543 27.3707 63.537 27.016C63.2197 26.6427 62.585 26.3347 61.633 26.092L59.337 25.504C58.0303 25.168 57.0503 24.6547 56.397 23.964C55.7437 23.2547 55.417 22.4147 55.417 21.444C55.417 20.212 55.8743 19.2413 56.789 18.532C57.7037 17.804 58.945 17.44 60.513 17.44C62.0623 17.44 63.3223 17.8133 64.293 18.56C65.2637 19.3067 65.8143 20.3427 65.945 21.668L63.789 21.668C63.6583 20.9027 63.3037 20.3147 62.725 19.904C62.1463 19.4933 61.381 19.288 60.429 19.288C59.5143 19.288 58.805 19.4653 58.301 19.82C57.797 20.156 57.545 20.6413 57.545 21.276C57.545 21.7613 57.7223 22.1813 58.077 22.536C58.4503 22.8907 59.0663 23.1893 59.925 23.432L62.165 24.048C63.4903 24.4027 64.489 24.944 65.161 25.672C65.833 26.4 66.169 27.2773 66.169 28.304C66.169 29.5547 65.693 30.5347 64.741 31.244C63.789 31.9347 62.473 32.28 60.793 32.28ZM77.7008 32L73.3328 17.72L75.6008 17.72L78.9608 29.956L78.4008 29.956L82.4328 17.72L84.2528 17.72L88.3128 29.956L87.7528 29.956L91.0848 17.72L93.2408 17.72L88.8728 32L87.0528 32L83.0208 20.044L83.6088 20.044L79.5208 32L77.7008 32ZM101.832 32.28C100.47 32.28 99.2656 31.9627 98.2202 31.328C97.1749 30.6747 96.3536 29.788 95.7562 28.668C95.1589 27.548 94.8602 26.26 94.8602 24.804C94.8602 23.348 95.1496 22.0693 95.7282 20.968C96.3256 19.848 97.1562 18.98 98.2202 18.364C99.2842 17.748 100.507 17.44 101.888 17.44C103.214 17.44 104.362 17.7293 105.332 18.308C106.322 18.8867 107.078 19.6987 107.6 20.744C108.142 21.7893 108.412 23.0213 108.412 24.44C108.412 24.6267 108.403 24.804 108.384 24.972C108.384 25.14 108.366 25.3267 108.328 25.532L96.5402 25.532L96.5402 23.656L106.956 23.656L106.228 24.692C106.228 22.9747 105.846 21.6587 105.08 20.744C104.334 19.8107 103.27 19.344 101.888 19.344C100.47 19.344 99.3216 19.8387 98.4442 20.828C97.5856 21.7987 97.1562 23.1147 97.1562 24.776C97.1562 26.4747 97.5856 27.8373 98.4442 28.864C99.3216 29.872 100.488 30.376 101.944 30.376C102.859 30.376 103.662 30.18 104.352 29.788C105.043 29.3773 105.547 28.7987 105.864 28.052L107.992 28.052C107.526 29.3587 106.742 30.3947 105.64 31.16C104.558 31.9067 103.288 32.28 101.832 32.28ZM117.637 32.28C116.274 32.28 115.07 31.9627 114.025 31.328C112.98 30.6747 112.158 29.788 111.561 28.668C110.964 27.548 110.665 26.26 110.665 24.804C110.665 23.348 110.954 22.0693 111.533 20.968C112.13 19.848 112.961 18.98 114.025 18.364C115.089 17.748 116.312 17.44 117.693 17.44C119.018 17.44 120.166 17.7293 121.137 18.308C122.126 18.8867 122.882 19.6987 123.405 20.744C123.946 21.7893 124.217 23.0213 124.217 24.44C124.217 24.6267 124.208 24.804 124.189 24.972C124.189 25.14 124.17 25.3267 124.133 25.532L112.345 25.532L112.345 23.656L122.761 23.656L122.033 24.692C122.033 22.9747 121.65 21.6587 120.885 20.744C120.138 19.8107 119.074 19.344 117.693 19.344C116.274 19.344 115.126 19.8387 114.249 20.828C113.39 21.7987 112.961 23.1147 112.961 24.776C112.961 26.4747 113.39 27.8373 114.249 28.864C115.126 29.872 116.293 30.376 117.749 30.376C118.664 30.376 119.466 30.18 120.157 29.788C120.848 29.3773 121.352 28.7987 121.669 28.052L123.797 28.052C123.33 29.3587 122.546 30.3947 121.445 31.16C120.362 31.9067 119.093 32.28 117.637 32.28ZM127.59 32L127.59 11.28L129.83 11.28L129.83 32L127.59 32ZM136.914 32L129.326 24.58L136.634 17.72L139.714 17.72L131.51 25.224L131.65 23.908L139.994 32L136.914 32Z" fill="black"/>
</svg>
