<svg width="134" height="44" viewBox="0 0 134 44" fill="none" xmlns="http://www.w3.org/2000/svg">
<rect x="0.75" y="0.75" width="132.5" height="42.5" rx="21.25" fill="#F2F2F2"/>
<rect x="0.75" y="0.75" width="132.5" height="42.5" rx="21.25" stroke="black" stroke-width="1.5"/>
<path d="M20.784 32.252C19.1974 32.252 18.04 31.8973 17.312 31.188C16.6027 30.46 16.248 29.4147 16.248 28.052L16.248 14.388L18.488 13.548L18.488 28.024C18.488 28.8267 18.6934 29.4147 19.104 29.788C19.5147 30.1613 20.1867 30.348 21.12 30.348C21.4934 30.348 21.8107 30.3293 22.072 30.292C22.352 30.236 22.576 30.1707 22.744 30.096L22.744 32C22.5574 32.0747 22.2867 32.1307 21.932 32.168C21.596 32.224 21.2134 32.252 20.784 32.252ZM13.308 19.624L13.308 17.72L22.744 17.72L22.744 19.624L13.308 19.624ZM25.6267 32L25.6267 11.84L27.8667 11.84L27.8667 32L25.6267 32ZM35.8467 32L35.8467 22.648C35.8467 21.5653 35.5761 20.7533 35.0347 20.212C34.4934 19.6707 33.6907 19.4 32.6267 19.4C31.6934 19.4 30.8627 19.6053 30.1347 20.016C29.4254 20.4267 28.8654 20.996 28.4547 21.724C28.0627 22.452 27.8667 23.3013 27.8667 24.272L27.5027 20.884C27.9881 19.82 28.7254 18.98 29.7147 18.364C30.7227 17.748 31.8614 17.44 33.1307 17.44C34.6241 17.44 35.8187 17.8693 36.7147 18.728C37.6294 19.568 38.0867 20.6787 38.0867 22.06L38.0867 32L35.8467 32ZM42.3884 32L42.3884 17.72L44.6284 17.72L44.6284 32L42.3884 32ZM42.2204 14.472L42.2204 11.84L44.7964 11.84L44.7964 14.472L42.2204 14.472ZM53.959 32.28C52.2043 32.28 50.8043 31.8787 49.759 31.076C48.7137 30.2547 48.1163 29.0973 47.967 27.604L50.123 27.604C50.2537 28.5187 50.655 29.2187 51.327 29.704C51.999 30.1893 52.895 30.432 54.015 30.432C55.0043 30.432 55.779 30.2453 56.339 29.872C56.899 29.4987 57.179 28.9667 57.179 28.276C57.179 27.7907 57.0203 27.3707 56.703 27.016C56.3857 26.6427 55.751 26.3347 54.799 26.092L52.503 25.504C51.1963 25.168 50.2163 24.6547 49.563 23.964C48.9097 23.2547 48.583 22.4147 48.583 21.444C48.583 20.212 49.0403 19.2413 49.955 18.532C50.8697 17.804 52.111 17.44 53.679 17.44C55.2283 17.44 56.4883 17.8133 57.459 18.56C58.4297 19.3067 58.9803 20.3427 59.111 21.668L56.955 21.668C56.8243 20.9027 56.4697 20.3147 55.891 19.904C55.3123 19.4933 54.547 19.288 53.595 19.288C52.6803 19.288 51.971 19.4653 51.467 19.82C50.963 20.156 50.711 20.6413 50.711 21.276C50.711 21.7613 50.8883 22.1813 51.243 22.536C51.6163 22.8907 52.2323 23.1893 53.091 23.432L55.331 24.048C56.6563 24.4027 57.655 24.944 58.327 25.672C58.999 26.4 59.335 27.2773 59.335 28.304C59.335 29.5547 58.859 30.5347 57.907 31.244C56.955 31.9347 55.639 32.28 53.959 32.28ZM69.1868 37.74L72.3788 30.32L72.8828 29.536L77.5588 17.72L79.8548 17.72L71.5668 37.74L69.1868 37.74ZM72.6308 32.14L66.2188 17.72L68.6828 17.72L74.1988 30.628L72.6308 32.14ZM88.1076 32.28C86.745 32.28 85.541 31.9627 84.4956 31.328C83.4503 30.6747 82.629 29.788 82.0316 28.668C81.4343 27.548 81.1356 26.26 81.1356 24.804C81.1356 23.348 81.425 22.0693 82.0036 20.968C82.601 19.848 83.4316 18.98 84.4956 18.364C85.5596 17.748 86.7823 17.44 88.1636 17.44C89.489 17.44 90.637 17.7293 91.6076 18.308C92.597 18.8867 93.353 19.6987 93.8756 20.744C94.417 21.7893 94.6876 23.0213 94.6876 24.44C94.6876 24.6267 94.6783 24.804 94.6596 24.972C94.6596 25.14 94.641 25.3267 94.6036 25.532L82.8156 25.532L82.8156 23.656L93.2316 23.656L92.5036 24.692C92.5036 22.9747 92.121 21.6587 91.3556 20.744C90.609 19.8107 89.545 19.344 88.1636 19.344C86.745 19.344 85.597 19.8387 84.7196 20.828C83.861 21.7987 83.4316 23.1147 83.4316 24.776C83.4316 26.4747 83.861 27.8373 84.7196 28.864C85.597 29.872 86.7636 30.376 88.2196 30.376C89.1343 30.376 89.937 30.18 90.6276 29.788C91.3183 29.3773 91.8223 28.7987 92.1396 28.052L94.2676 28.052C93.801 29.3587 93.017 30.3947 91.9156 31.16C90.833 31.9067 89.5636 32.28 88.1076 32.28ZM106.742 32C106.668 31.6827 106.612 31.3187 106.574 30.908C106.556 30.4973 106.546 29.9747 106.546 29.34L106.406 29.34L106.406 22.508C106.406 21.4253 106.154 20.632 105.65 20.128C105.165 19.6053 104.372 19.344 103.27 19.344C102.188 19.344 101.32 19.568 100.666 20.016C100.032 20.4453 99.6769 21.0613 99.6023 21.864L97.4463 21.864C97.5396 20.4827 98.1183 19.4 99.1823 18.616C100.246 17.832 101.637 17.44 103.354 17.44C105.128 17.44 106.444 17.86 107.302 18.7C108.161 19.54 108.59 20.8 108.59 22.48L108.59 29.34C108.59 29.7507 108.618 30.18 108.674 30.628C108.73 31.0573 108.805 31.5147 108.898 32L106.742 32ZM101.842 32.28C100.368 32.28 99.1916 31.9253 98.3143 31.216C97.4556 30.488 97.0263 29.4987 97.0263 28.248C97.0263 26.9973 97.4556 26.0267 98.3143 25.336C99.1729 24.6453 100.424 24.16 102.066 23.88L107.05 23.04L107.05 24.888L102.402 25.616C101.357 25.784 100.564 26.064 100.022 26.456C99.4809 26.848 99.2103 27.4173 99.2103 28.164C99.2103 28.892 99.4529 29.4427 99.9383 29.816C100.442 30.1893 101.18 30.376 102.15 30.376C103.401 30.376 104.418 30.096 105.202 29.536C106.005 28.9573 106.406 28.2107 106.406 27.296L106.77 29.284C106.472 30.236 105.884 30.9733 105.006 31.496C104.148 32.0187 103.093 32.28 101.842 32.28ZM112.908 32L112.908 17.72L115.008 17.72L115.008 21.36L115.148 21.36L115.148 32L112.908 32ZM115.148 24.552L114.784 21.164C115.12 19.9507 115.717 19.0267 116.576 18.392C117.435 17.7573 118.424 17.44 119.544 17.44C120.011 17.44 120.328 17.4773 120.496 17.552L120.496 19.708C120.403 19.6707 120.272 19.652 120.104 19.652C119.936 19.6333 119.731 19.624 119.488 19.624C118.069 19.624 116.987 20.0533 116.24 20.912C115.512 21.752 115.148 22.9653 115.148 24.552Z" fill="black"/>
</svg>
