<svg width="233" height="110" viewBox="0 0 233 110" fill="none" xmlns="http://www.w3.org/2000/svg">
<path d="M113.374 1.70261C114.181 1.32376 115.115 1.32376 115.923 1.70261L152.814 19.0132L153.239 18.1079L152.814 19.0132C153.196 19.1924 153.599 19.3226 154.014 19.4006L197.713 27.6194C199.523 27.9596 200.601 29.834 199.987 31.5693L192.279 53.3307C191.897 54.4107 191.897 55.5893 192.279 56.6693L199.987 78.4307C200.601 80.166 199.523 82.0404 197.713 82.3806L154.014 90.5994C153.599 90.6774 153.196 90.8076 152.814 90.9868L115.923 108.297C115.115 108.676 114.181 108.676 113.374 108.297L76.4831 90.9868C76.1011 90.8076 75.698 90.6774 75.2833 90.5994L31.5834 82.3806C29.7743 82.0404 28.6955 80.166 29.3101 78.4307L37.0174 56.6693C37.3999 55.5893 37.3999 54.4107 37.0174 53.3307L29.3101 31.5693C28.6955 29.834 29.7743 27.9596 31.5834 27.6194L75.2833 19.4006C75.698 19.3226 76.1011 19.1924 76.4831 19.0132L113.374 1.70261Z" fill="url(#paint0_linear_82_88)" stroke="black" stroke-width="2"/>
<path d="M57.9595 69.3947C55.9862 69.3947 54.2529 68.7813 52.7595 67.5547C51.2929 66.328 50.1462 64.608 49.3195 62.3947C48.5195 60.1547 48.1195 57.5147 48.1195 54.4747C48.1195 51.5413 48.5595 48.9813 49.4395 46.7947C50.3462 44.5813 51.5462 42.8747 53.0395 41.6747C54.5595 40.448 56.2395 39.8347 58.0795 39.8347C59.1729 39.8347 60.1329 39.9413 60.9595 40.1547C61.7862 40.3413 62.5195 40.5947 63.1595 40.9147C63.4795 41.1013 63.6395 41.3813 63.6395 41.7547L63.7595 47.8347C63.7595 48.288 63.5995 48.5147 63.2795 48.5147C62.9862 48.5147 62.7995 48.3413 62.7195 47.9947L62.3195 46.5147C61.7595 44.4347 61.1062 42.9947 60.3595 42.1947C59.6395 41.3947 58.7729 40.9947 57.7595 40.9947C55.8929 40.9947 54.3329 42.1547 53.0795 44.4747C51.8529 46.768 51.2395 50.1013 51.2395 54.4747C51.2395 57.4613 51.5462 59.9813 52.1595 62.0347C52.7995 64.088 53.6129 65.6347 54.5995 66.6747C55.6129 67.7147 56.6795 68.2347 57.7995 68.2347C58.9995 68.2347 59.9595 67.8613 60.6795 67.1147C61.4262 66.368 62.0529 64.928 62.5595 62.7947L63.0395 60.8347C63.1195 60.4347 63.3329 60.2613 63.6795 60.3147C63.9729 60.368 64.1195 60.5947 64.1195 60.9947L63.9595 67.4747C63.9595 67.848 63.7862 68.128 63.4395 68.3147C62.7995 68.6347 62.0395 68.888 61.1595 69.0747C60.3062 69.288 59.2395 69.3947 57.9595 69.3947ZM76.0695 69.3947C74.7895 69.3947 73.5895 69.0213 72.4695 68.2747C71.3495 67.5013 70.3629 66.448 69.5095 65.1147C68.6829 63.7813 68.0295 62.2213 67.5495 60.4347C67.0962 58.6213 66.8695 56.6747 66.8695 54.5947C66.8695 52.5147 67.0962 50.5813 67.5495 48.7947C68.0295 47.008 68.6829 45.448 69.5095 44.1147C70.3629 42.7547 71.3495 41.7013 72.4695 40.9547C73.5895 40.208 74.7895 39.8347 76.0695 39.8347C77.3495 39.8347 78.5362 40.208 79.6295 40.9547C80.7495 41.7013 81.7362 42.7547 82.5895 44.1147C83.4429 45.448 84.0962 47.008 84.5495 48.7947C85.0295 50.5813 85.2695 52.5147 85.2695 54.5947C85.2695 56.6747 85.0295 58.6213 84.5495 60.4347C84.0962 62.2213 83.4429 63.7813 82.5895 65.1147C81.7362 66.448 80.7495 67.5013 79.6295 68.2747C78.5362 69.0213 77.3495 69.3947 76.0695 69.3947ZM76.0695 68.3147C77.9629 68.3147 79.4429 67.1813 80.5095 64.9147C81.5762 62.648 82.1095 59.208 82.1095 54.5947C82.1095 49.9813 81.5762 46.5547 80.5095 44.3147C79.4429 42.048 77.9629 40.9147 76.0695 40.9147C74.2029 40.9147 72.7229 42.048 71.6295 44.3147C70.5629 46.5547 70.0295 49.9813 70.0295 54.5947C70.0295 59.208 70.5629 62.648 71.6295 64.9147C72.7229 67.1813 74.2029 68.3147 76.0695 68.3147ZM97.5586 69.3947C96.1186 69.3947 94.8386 69.0613 93.7186 68.3947C92.6253 67.7013 91.7719 66.7547 91.1586 65.5547C90.5453 64.328 90.2386 62.928 90.2386 61.3547V42.8747C90.2386 42.3147 90.1453 41.9413 89.9586 41.7547C89.7986 41.568 89.4386 41.4213 88.8786 41.3147L87.9586 41.1547C87.6119 41.0747 87.4386 40.9147 87.4386 40.6747C87.4386 40.3813 87.6386 40.2347 88.0386 40.2347H95.3586C95.7586 40.2347 95.9586 40.3947 95.9586 40.7147C95.9586 40.9547 95.8119 41.1013 95.5186 41.1547L94.4386 41.3147C93.9053 41.3947 93.5453 41.5413 93.3586 41.7547C93.1719 41.968 93.0786 42.3547 93.0786 42.9147V61.3947C93.0786 63.4213 93.5319 64.9947 94.4386 66.1147C95.3453 67.2347 96.6119 67.7947 98.2386 67.7947C99.8919 67.7947 101.172 67.2347 102.079 66.1147C102.985 64.9947 103.439 63.4213 103.439 61.3947V43.7147C103.439 42.2747 102.985 41.4747 102.079 41.3147L100.999 41.1547C100.705 41.1013 100.559 40.9547 100.559 40.7147C100.559 40.3947 100.759 40.2347 101.159 40.2347H106.919C107.319 40.2347 107.519 40.3813 107.519 40.6747C107.519 40.9147 107.345 41.0747 106.999 41.1547L106.079 41.3147C105.172 41.4747 104.719 42.2613 104.719 43.6747V61.3547C104.719 63.7813 104.065 65.728 102.759 67.1947C101.452 68.6613 99.7186 69.3947 97.5586 69.3947ZM125.164 69.3947C124.737 69.3947 124.377 69.0747 124.084 68.4347L113.244 44.9147C113.164 44.728 113.057 44.648 112.924 44.6747C112.817 44.7013 112.764 44.8213 112.764 45.0347V65.5947C112.764 66.3413 112.884 66.9147 113.124 67.3147C113.391 67.688 113.857 67.928 114.524 68.0347L115.044 68.1147C115.391 68.1413 115.564 68.3013 115.564 68.5947C115.564 68.888 115.364 69.0347 114.964 69.0347H109.244C108.844 69.0347 108.644 68.888 108.644 68.5947C108.644 68.3013 108.817 68.1413 109.164 68.1147L109.684 68.0347C110.377 67.928 110.857 67.688 111.124 67.3147C111.391 66.9147 111.524 66.3413 111.524 65.5947V42.8747C111.524 42.3147 111.431 41.9413 111.244 41.7547C111.084 41.568 110.697 41.4213 110.084 41.3147L109.164 41.1547C108.817 41.0747 108.644 40.9147 108.644 40.6747C108.644 40.3813 108.844 40.2347 109.244 40.2347H113.524C114.191 40.2347 114.657 40.528 114.924 41.1147L124.364 61.8747C124.444 62.0347 124.537 62.1013 124.644 62.0747C124.777 62.048 124.844 61.9547 124.844 61.7947V43.6747C124.844 42.8213 124.697 42.2347 124.404 41.9147C124.111 41.568 123.737 41.3547 123.284 41.2747L122.564 41.1547C122.217 41.0747 122.044 40.9147 122.044 40.6747C122.044 40.3813 122.244 40.2347 122.644 40.2347H128.364C128.764 40.2347 128.964 40.3813 128.964 40.6747C128.964 40.968 128.791 41.128 128.444 41.1547L127.924 41.2347C127.231 41.3413 126.751 41.568 126.484 41.9147C126.217 42.2347 126.084 42.8213 126.084 43.6747V68.1147C126.084 68.5947 125.991 68.928 125.804 69.1147C125.644 69.3013 125.431 69.3947 125.164 69.3947ZM134.325 69.0347C133.925 69.0347 133.725 68.888 133.725 68.5947C133.725 68.3013 133.899 68.1413 134.245 68.1147L136.045 67.8347C136.579 67.7547 136.939 67.6213 137.125 67.4347C137.312 67.2213 137.405 66.8347 137.405 66.2747V42.2747C137.405 41.9013 137.325 41.6347 137.165 41.4747C137.005 41.3147 136.672 41.2347 136.165 41.2347C135.179 41.2347 134.205 41.6613 133.245 42.5147C132.285 43.368 131.659 44.7413 131.365 46.6347L131.165 47.9547C131.112 48.3013 130.925 48.4747 130.605 48.4747C130.205 48.4747 130.032 48.248 130.085 47.7947L130.445 40.5547C130.499 39.9413 130.739 39.6347 131.165 39.6347C131.352 39.6347 131.525 39.688 131.685 39.7947C131.845 39.8747 132.112 39.968 132.485 40.0747C132.885 40.1813 133.512 40.2347 134.365 40.2347H143.285C144.139 40.2347 144.752 40.1813 145.125 40.0747C145.525 39.968 145.805 39.8747 145.965 39.7947C146.152 39.688 146.325 39.6347 146.485 39.6347C146.912 39.6347 147.152 39.9413 147.205 40.5547L147.565 47.7947C147.619 48.248 147.445 48.4747 147.045 48.4747C146.725 48.4747 146.539 48.3013 146.485 47.9547L146.285 46.6347C146.019 44.7413 145.405 43.368 144.445 42.5147C143.485 41.6613 142.499 41.2347 141.485 41.2347C140.979 41.2347 140.645 41.3147 140.485 41.4747C140.325 41.6347 140.245 41.9013 140.245 42.2747V66.2747C140.245 66.8347 140.339 67.2213 140.525 67.4347C140.739 67.6213 141.099 67.7547 141.605 67.8347L143.405 68.1147C143.752 68.1413 143.925 68.3013 143.925 68.5947C143.925 68.888 143.725 69.0347 143.325 69.0347H134.325ZM166.043 69.3947C163.723 69.3947 162.243 67.8747 161.603 64.8347L160.683 60.3947C160.39 58.9547 160.056 57.8613 159.683 57.1147C159.336 56.368 158.843 55.8613 158.203 55.5947C157.59 55.328 156.736 55.1947 155.643 55.1947C155.27 55.1947 154.976 55.3013 154.763 55.5147C154.55 55.7013 154.443 55.9413 154.443 56.2347V66.2347C154.443 66.7947 154.55 67.1813 154.763 67.3947C154.976 67.5813 155.456 67.7413 156.203 67.8747L157.683 68.1147C157.976 68.168 158.123 68.3147 158.123 68.5547C158.123 68.8747 157.923 69.0347 157.523 69.0347H149.403C149.003 69.0347 148.803 68.888 148.803 68.5947C148.803 68.3547 148.976 68.1947 149.323 68.1147L150.243 67.9547C150.803 67.848 151.163 67.7013 151.323 67.5147C151.51 67.328 151.603 66.9547 151.603 66.3947V42.8747C151.603 42.3147 151.51 41.9413 151.323 41.7547C151.163 41.568 150.803 41.4213 150.243 41.3147L149.323 41.1547C148.976 41.0747 148.803 40.9147 148.803 40.6747C148.803 40.3813 149.003 40.2347 149.403 40.2347H157.523C159.096 40.2347 160.496 40.5413 161.723 41.1547C162.95 41.768 163.91 42.6213 164.603 43.7147C165.296 44.7813 165.643 46.0213 165.643 47.4347C165.643 49.1147 165.136 50.6347 164.123 51.9947C163.11 53.328 161.83 54.2747 160.283 54.8347C160.096 54.888 159.99 54.9813 159.963 55.1147C159.963 55.2213 160.056 55.3147 160.243 55.3947C161.096 55.7947 161.763 56.3547 162.243 57.0747C162.75 57.7947 163.136 58.7547 163.403 59.9547L164.283 64.0347C164.576 65.4213 164.923 66.408 165.323 66.9947C165.723 67.5813 166.23 67.8747 166.843 67.8747C167.056 67.8747 167.243 67.848 167.403 67.7947C167.59 67.7147 167.816 67.5813 168.083 67.3947C168.296 67.2613 168.496 67.2347 168.683 67.3147C168.87 67.368 168.963 67.5013 168.963 67.7147C168.963 68.168 168.67 68.568 168.083 68.9147C167.496 69.2347 166.816 69.3947 166.043 69.3947ZM157.123 54.1947C158.936 54.1947 160.31 53.5947 161.243 52.3947C162.176 51.168 162.643 49.5413 162.643 47.5147C162.643 45.5413 162.096 44.008 161.003 42.9147C159.936 41.7947 158.456 41.2347 156.563 41.2347C155.15 41.2347 154.443 41.768 154.443 42.8347V51.9947C154.443 53.4613 155.336 54.1947 157.123 54.1947ZM172.498 69.0347C172.098 69.0347 171.898 68.888 171.898 68.5947C171.898 68.3013 172.071 68.1413 172.418 68.1147L174.218 67.8347C174.751 67.7547 175.111 67.6213 175.298 67.4347C175.485 67.2213 175.578 66.8347 175.578 66.2747V56.8347C175.578 56.248 175.445 55.6747 175.178 55.1147L169.298 42.7947C169.111 42.3413 168.898 41.9947 168.658 41.7547C168.418 41.5147 168.071 41.3413 167.618 41.2347L167.258 41.1547C166.885 41.0747 166.698 40.9013 166.698 40.6347C166.698 40.368 166.898 40.2347 167.298 40.2347H174.138C174.511 40.2347 174.698 40.3813 174.698 40.6747C174.698 40.968 174.471 41.128 174.018 41.1547L173.258 41.2347C172.805 41.2613 172.485 41.408 172.298 41.6747C172.111 41.9413 172.151 42.3547 172.418 42.9147L177.338 53.3947C177.445 53.5813 177.578 53.6747 177.738 53.6747C177.898 53.6747 178.031 53.5813 178.138 53.3947L182.858 43.7547C183.205 43.0613 183.285 42.5013 183.098 42.0747C182.938 41.6213 182.551 41.3547 181.938 41.2747L181.058 41.1547C180.605 41.0747 180.378 40.9147 180.378 40.6747C180.378 40.3813 180.565 40.2347 180.938 40.2347H186.618C187.018 40.2347 187.218 40.368 187.218 40.6347C187.218 40.9013 187.031 41.0747 186.658 41.1547L186.258 41.2347C185.885 41.3147 185.551 41.5413 185.258 41.9147C184.991 42.288 184.631 42.9147 184.178 43.7947L178.938 54.3147C178.751 54.688 178.618 55.048 178.538 55.3947C178.458 55.7147 178.418 56.088 178.418 56.5147V66.2747C178.418 66.8347 178.511 67.2213 178.698 67.4347C178.911 67.6213 179.271 67.7547 179.778 67.8347L181.578 68.1147C181.925 68.1413 182.098 68.3013 182.098 68.5947C182.098 68.888 181.898 69.0347 181.498 69.0347H172.498Z" fill="black"/>
<defs>
<linearGradient id="paint0_linear_82_88" x1="162.84" y1="-6.54684" x2="62.2011" y2="113.021" gradientUnits="userSpaceOnUse">
<stop offset="0.0361371" stop-color="#FFE6C6"/>
<stop offset="0.916137" stop-color="#D58F5F"/>
</linearGradient>
</defs>
</svg>
