<svg width="211" height="110" viewBox="0 0 211 110" fill="none" xmlns="http://www.w3.org/2000/svg">
<path d="M105.342 1.14758C105.817 1.06092 106.304 1.06092 106.778 1.14758L162.206 11.2693C162.835 11.3841 163.427 11.6483 163.932 12.0397L196.518 37.294C197.496 38.0514 198.065 39.2201 198.062 40.4585L197.969 69.5415C197.965 70.7799 197.388 71.9485 196.406 72.706L163.659 97.9603C163.152 98.3516 162.558 98.6158 161.928 98.7307L106.436 108.852C105.961 108.939 105.474 108.939 105 108.852L49.5719 98.7307C48.9428 98.6158 48.351 98.3516 47.846 97.9603L15.2599 72.706L14.6457 73.4971L15.2599 72.706C14.2825 71.9485 13.7125 70.7799 13.7165 69.5415L13.8088 40.4585C13.8127 39.2201 14.3901 38.0514 15.3723 37.294L48.1187 12.0397C48.6262 11.6483 49.2197 11.3841 49.8495 11.2693L105.342 1.14758Z" fill="url(#paint0_linear_78_3516)" stroke="black" stroke-width="2"/>
<path d="M27.445 67.1001C27.095 67.1001 26.92 66.9718 26.92 66.7151C26.92 66.5051 27.0717 66.3651 27.375 66.2951L28.18 66.1551C28.67 66.0618 28.985 65.9334 29.125 65.7701C29.2883 65.6068 29.37 65.2801 29.37 64.7901V44.2101C29.37 43.7201 29.2883 43.3934 29.125 43.2301C28.985 43.0668 28.67 42.9384 28.18 42.8451L27.375 42.7051C27.0717 42.6351 26.92 42.4951 26.92 42.2851C26.92 42.0284 27.095 41.9001 27.445 41.9001H39.205C39.7417 41.9001 40.0333 42.1684 40.08 42.7051L40.36 48.5151C40.4067 48.9118 40.255 49.1101 39.905 49.1101C39.625 49.1101 39.4617 48.9584 39.415 48.6551L39.205 47.3601C38.9483 45.7734 38.4233 44.6184 37.63 43.8951C36.8367 43.1484 35.74 42.7751 34.34 42.7751C33.4067 42.7751 32.7533 42.9151 32.38 43.1951C32.03 43.4518 31.855 43.9184 31.855 44.5951V53.0301C31.855 53.3568 32.0183 53.5201 32.345 53.5201H34.095C35.1217 53.5201 35.7517 52.9718 35.985 51.8751L36.335 50.1251C36.4283 49.7751 36.6267 49.6234 36.93 49.6701C37.1867 49.7168 37.315 49.9151 37.315 50.2651V58.1401C37.315 58.4901 37.1867 58.6884 36.93 58.7351C36.6267 58.7818 36.4283 58.6301 36.335 58.2801L35.985 56.5651C35.8217 55.7484 35.5883 55.2118 35.285 54.9551C35.005 54.6984 34.5967 54.5701 34.06 54.5701H32.345C32.0183 54.5701 31.855 54.7334 31.855 55.0601V63.8451C31.855 64.6851 32.065 65.2918 32.485 65.6651C32.9283 66.0384 33.7217 66.2251 34.865 66.2251C36.0317 66.2251 37.0233 65.9334 37.84 65.3501C38.68 64.7434 39.2633 63.6234 39.59 61.9901L40.01 59.9251C40.08 59.6218 40.255 59.4701 40.535 59.4701C40.8617 59.4701 41.0017 59.6684 40.955 60.0651L40.605 66.2951C40.5583 66.8318 40.2667 67.1001 39.73 67.1001H27.445ZM43.3044 67.1001C42.9544 67.1001 42.7794 66.9718 42.7794 66.7151C42.7794 66.5051 42.931 66.3651 43.2344 66.2951L44.0394 66.1551C44.5294 66.0618 44.8444 65.9334 44.9844 65.7701C45.1477 65.6068 45.2294 65.2801 45.2294 64.7901V44.2101C45.2294 43.7201 45.1477 43.3934 44.9844 43.2301C44.8444 43.0668 44.5294 42.9384 44.0394 42.8451L43.2344 42.7051C42.931 42.6351 42.7794 42.4951 42.7794 42.2851C42.7794 42.0284 42.9544 41.9001 43.3044 41.9001H49.7094C50.0594 41.9001 50.2344 42.0401 50.2344 42.3201C50.2344 42.5301 50.106 42.6584 49.8494 42.7051L48.9044 42.8451C48.4144 42.9151 48.0877 43.0434 47.9244 43.2301C47.7844 43.4168 47.7144 43.7551 47.7144 44.2451V63.8451C47.7144 64.6851 47.9477 65.2918 48.4144 65.6651C48.9044 66.0384 49.511 66.2251 50.2344 66.2251C50.771 66.2251 51.3194 66.1201 51.8794 65.9101C52.4627 65.6768 52.9877 65.2568 53.4544 64.6501C53.921 64.0201 54.271 63.1101 54.5044 61.9201L54.9594 59.5751C55.0294 59.2718 55.2044 59.1201 55.4844 59.1201C55.811 59.1201 55.951 59.3184 55.9044 59.7151L55.4844 66.2951C55.4377 66.8318 55.146 67.1001 54.6094 67.1001H43.3044ZM57.7624 67.1001C57.4124 67.1001 57.2374 66.9718 57.2374 66.7151C57.2374 66.5051 57.3891 66.3651 57.6924 66.2951L58.4974 66.1551C58.9874 66.0618 59.3024 65.9334 59.4424 65.7701C59.6057 65.6068 59.6874 65.2801 59.6874 64.7901V44.2101C59.6874 43.7201 59.6057 43.3934 59.4424 43.2301C59.3024 43.0668 58.9874 42.9384 58.4974 42.8451L57.6924 42.7051C57.3891 42.6351 57.2374 42.4951 57.2374 42.2851C57.2374 42.0284 57.4124 41.9001 57.7624 41.9001H69.5224C70.0591 41.9001 70.3507 42.1684 70.3974 42.7051L70.6774 48.5151C70.7241 48.9118 70.5724 49.1101 70.2224 49.1101C69.9424 49.1101 69.7791 48.9584 69.7324 48.6551L69.5224 47.3601C69.2657 45.7734 68.7407 44.6184 67.9474 43.8951C67.1541 43.1484 66.0574 42.7751 64.6574 42.7751C63.7241 42.7751 63.0707 42.9151 62.6974 43.1951C62.3474 43.4518 62.1724 43.9184 62.1724 44.5951V53.0301C62.1724 53.3568 62.3357 53.5201 62.6624 53.5201H64.4124C65.4391 53.5201 66.0691 52.9718 66.3024 51.8751L66.6524 50.1251C66.7457 49.7751 66.9441 49.6234 67.2474 49.6701C67.5041 49.7168 67.6324 49.9151 67.6324 50.2651V58.1401C67.6324 58.4901 67.5041 58.6884 67.2474 58.7351C66.9441 58.7818 66.7457 58.6301 66.6524 58.2801L66.3024 56.5651C66.1391 55.7484 65.9057 55.2118 65.6024 54.9551C65.3224 54.6984 64.9141 54.5701 64.3774 54.5701H62.6624C62.3357 54.5701 62.1724 54.7334 62.1724 55.0601V63.8451C62.1724 64.6851 62.3824 65.2918 62.8024 65.6651C63.2457 66.0384 64.0391 66.2251 65.1824 66.2251C66.3491 66.2251 67.3407 65.9334 68.1574 65.3501C68.9974 64.7434 69.5807 63.6234 69.9074 61.9901L70.3274 59.9251C70.3974 59.6218 70.5724 59.4701 70.8524 59.4701C71.1791 59.4701 71.3191 59.6684 71.2724 60.0651L70.9224 66.2951C70.8757 66.8318 70.5841 67.1001 70.0474 67.1001H57.7624ZM82.4418 67.4151C80.7151 67.4151 79.1984 66.8784 77.8918 65.8051C76.6084 64.7318 75.6051 63.2268 74.8818 61.2901C74.1818 59.3301 73.8318 57.0201 73.8318 54.3601C73.8318 51.7934 74.2168 49.5534 74.9868 47.6401C75.7801 45.7034 76.8301 44.2101 78.1368 43.1601C79.4668 42.0868 80.9368 41.5501 82.5468 41.5501C83.5034 41.5501 84.3434 41.6434 85.0668 41.8301C85.7901 41.9934 86.4318 42.2151 86.9918 42.4951C87.2718 42.6584 87.4118 42.9034 87.4118 43.2301L87.5168 48.5501C87.5168 48.9468 87.3768 49.1451 87.0968 49.1451C86.8401 49.1451 86.6768 48.9934 86.6068 48.6901L86.2568 47.3951C85.7668 45.5751 85.1951 44.3151 84.5418 43.6151C83.9118 42.9151 83.1534 42.5651 82.2668 42.5651C80.6334 42.5651 79.2684 43.5801 78.1718 45.6101C77.0984 47.6168 76.5618 50.5334 76.5618 54.3601C76.5618 56.9734 76.8301 59.1784 77.3668 60.9751C77.9268 62.7718 78.6384 64.1251 79.5018 65.0351C80.3884 65.9451 81.3218 66.4001 82.3018 66.4001C83.3518 66.4001 84.1918 66.0734 84.8218 65.4201C85.4751 64.7668 86.0234 63.5068 86.4668 61.6401L86.8868 59.9251C86.9568 59.5751 87.1434 59.4234 87.4468 59.4701C87.7034 59.5168 87.8318 59.7151 87.8318 60.0651L87.6918 65.7351C87.6918 66.0618 87.5401 66.3068 87.2368 66.4701C86.6768 66.7501 86.0118 66.9718 85.2418 67.1351C84.4951 67.3218 83.5618 67.4151 82.4418 67.4151ZM93.3782 67.1001C93.0282 67.1001 92.8532 66.9718 92.8532 66.7151C92.8532 66.4584 93.0048 66.3184 93.3082 66.2951L94.8832 66.0501C95.3498 65.9801 95.6648 65.8634 95.8282 65.7001C95.9915 65.5134 96.0732 65.1751 96.0732 64.6851V43.6851C96.0732 43.3584 96.0032 43.1251 95.8632 42.9851C95.7232 42.8451 95.4315 42.7751 94.9882 42.7751C94.1248 42.7751 93.2732 43.1484 92.4332 43.8951C91.5932 44.6418 91.0448 45.8434 90.7882 47.5001L90.6132 48.6551C90.5665 48.9584 90.4032 49.1101 90.1232 49.1101C89.7732 49.1101 89.6215 48.9118 89.6682 48.5151L89.9832 42.1801C90.0298 41.6434 90.2398 41.3751 90.6132 41.3751C90.7765 41.3751 90.9282 41.4218 91.0682 41.5151C91.2082 41.5851 91.4415 41.6668 91.7682 41.7601C92.1182 41.8534 92.6665 41.9001 93.4132 41.9001H101.218C101.965 41.9001 102.502 41.8534 102.828 41.7601C103.178 41.6668 103.423 41.5851 103.563 41.5151C103.727 41.4218 103.878 41.3751 104.018 41.3751C104.392 41.3751 104.602 41.6434 104.648 42.1801L104.963 48.5151C105.01 48.9118 104.858 49.1101 104.508 49.1101C104.228 49.1101 104.065 48.9584 104.018 48.6551L103.843 47.5001C103.61 45.8434 103.073 44.6418 102.233 43.8951C101.393 43.1484 100.53 42.7751 99.6432 42.7751C99.1998 42.7751 98.9082 42.8451 98.7682 42.9851C98.6282 43.1251 98.5582 43.3584 98.5582 43.6851V64.6851C98.5582 65.1751 98.6398 65.5134 98.8032 65.7001C98.9898 65.8634 99.3048 65.9801 99.7482 66.0501L101.323 66.2951C101.627 66.3184 101.778 66.4584 101.778 66.7151C101.778 66.9718 101.603 67.1001 101.253 67.1001H93.3782ZM121.131 67.4151C119.101 67.4151 117.806 66.0851 117.246 63.4251L116.441 59.5401C116.184 58.2801 115.893 57.3234 115.566 56.6701C115.263 56.0168 114.831 55.5734 114.271 55.3401C113.734 55.1068 112.988 54.9901 112.031 54.9901C111.704 54.9901 111.448 55.0834 111.261 55.2701C111.074 55.4334 110.981 55.6434 110.981 55.9001V64.6501C110.981 65.1401 111.074 65.4784 111.261 65.6651C111.448 65.8284 111.868 65.9684 112.521 66.0851L113.816 66.2951C114.073 66.3418 114.201 66.4701 114.201 66.6801C114.201 66.9601 114.026 67.1001 113.676 67.1001H106.571C106.221 67.1001 106.046 66.9718 106.046 66.7151C106.046 66.5051 106.198 66.3651 106.501 66.2951L107.306 66.1551C107.796 66.0618 108.111 65.9334 108.251 65.7701C108.414 65.6068 108.496 65.2801 108.496 64.7901V44.2101C108.496 43.7201 108.414 43.3934 108.251 43.2301C108.111 43.0668 107.796 42.9384 107.306 42.8451L106.501 42.7051C106.198 42.6351 106.046 42.4951 106.046 42.2851C106.046 42.0284 106.221 41.9001 106.571 41.9001H113.676C115.053 41.9001 116.278 42.1684 117.351 42.7051C118.424 43.2418 119.264 43.9884 119.871 44.9451C120.478 45.8784 120.781 46.9634 120.781 48.2001C120.781 49.6701 120.338 51.0001 119.451 52.1901C118.564 53.3568 117.444 54.1851 116.091 54.6751C115.928 54.7218 115.834 54.8034 115.811 54.9201C115.811 55.0134 115.893 55.0951 116.056 55.1651C116.803 55.5151 117.386 56.0051 117.806 56.6351C118.249 57.2651 118.588 58.1051 118.821 59.1551L119.591 62.7251C119.848 63.9384 120.151 64.8018 120.501 65.3151C120.851 65.8284 121.294 66.0851 121.831 66.0851C122.018 66.0851 122.181 66.0618 122.321 66.0151C122.484 65.9451 122.683 65.8284 122.916 65.6651C123.103 65.5484 123.278 65.5251 123.441 65.5951C123.604 65.6418 123.686 65.7584 123.686 65.9451C123.686 66.3418 123.429 66.6918 122.916 66.9951C122.403 67.2751 121.808 67.4151 121.131 67.4151ZM113.326 54.1151C114.913 54.1151 116.114 53.5901 116.931 52.5401C117.748 51.4668 118.156 50.0434 118.156 48.2701C118.156 46.5434 117.678 45.2018 116.721 44.2451C115.788 43.2651 114.493 42.7751 112.836 42.7751C111.599 42.7751 110.981 43.2418 110.981 44.1751V52.1901C110.981 53.4734 111.763 54.1151 113.326 54.1151ZM131.921 67.4151C130.801 67.4151 129.751 67.0884 128.771 66.4351C127.791 65.7584 126.927 64.8368 126.181 63.6701C125.457 62.5034 124.886 61.1384 124.466 59.5751C124.069 57.9884 123.871 56.2851 123.871 54.4651C123.871 52.6451 124.069 50.9534 124.466 49.3901C124.886 47.8268 125.457 46.4618 126.181 45.2951C126.927 44.1051 127.791 43.1834 128.771 42.5301C129.751 41.8768 130.801 41.5501 131.921 41.5501C133.041 41.5501 134.079 41.8768 135.036 42.5301C136.016 43.1834 136.879 44.1051 137.626 45.2951C138.372 46.4618 138.944 47.8268 139.341 49.3901C139.761 50.9534 139.971 52.6451 139.971 54.4651C139.971 56.2851 139.761 57.9884 139.341 59.5751C138.944 61.1384 138.372 62.5034 137.626 63.6701C136.879 64.8368 136.016 65.7584 135.036 66.4351C134.079 67.0884 133.041 67.4151 131.921 67.4151ZM131.921 66.4701C133.577 66.4701 134.872 65.4784 135.806 63.4951C136.739 61.5118 137.206 58.5018 137.206 54.4651C137.206 50.4284 136.739 47.4301 135.806 45.4701C134.872 43.4868 133.577 42.4951 131.921 42.4951C130.287 42.4951 128.992 43.4868 128.036 45.4701C127.102 47.4301 126.636 50.4284 126.636 54.4651C126.636 58.5018 127.102 61.5118 128.036 63.4951C128.992 65.4784 130.287 66.4701 131.921 66.4701ZM156.114 67.4151C155.74 67.4151 155.425 67.1351 155.169 66.5751L145.684 45.9951C145.614 45.8318 145.52 45.7618 145.404 45.7851C145.31 45.8084 145.264 45.9134 145.264 46.1001V64.0901C145.264 64.7434 145.369 65.2451 145.579 65.5951C145.812 65.9218 146.22 66.1318 146.804 66.2251L147.259 66.2951C147.562 66.3184 147.714 66.4584 147.714 66.7151C147.714 66.9718 147.539 67.1001 147.189 67.1001H142.184C141.834 67.1001 141.659 66.9718 141.659 66.7151C141.659 66.4584 141.81 66.3184 142.114 66.2951L142.569 66.2251C143.175 66.1318 143.595 65.9218 143.829 65.5951C144.062 65.2451 144.179 64.7434 144.179 64.0901V44.2101C144.179 43.7201 144.097 43.3934 143.934 43.2301C143.794 43.0668 143.455 42.9384 142.919 42.8451L142.114 42.7051C141.81 42.6351 141.659 42.4951 141.659 42.2851C141.659 42.0284 141.834 41.9001 142.184 41.9001H145.929C146.512 41.9001 146.92 42.1568 147.154 42.6701L155.414 60.8351C155.484 60.9751 155.565 61.0334 155.659 61.0101C155.775 60.9868 155.834 60.9051 155.834 60.7651V44.9101C155.834 44.1634 155.705 43.6501 155.449 43.3701C155.192 43.0668 154.865 42.8801 154.469 42.8101L153.839 42.7051C153.535 42.6351 153.384 42.4951 153.384 42.2851C153.384 42.0284 153.559 41.9001 153.909 41.9001H158.914C159.264 41.9001 159.439 42.0284 159.439 42.2851C159.439 42.5418 159.287 42.6818 158.984 42.7051L158.529 42.7751C157.922 42.8684 157.502 43.0668 157.269 43.3701C157.035 43.6501 156.919 44.1634 156.919 44.9101V66.2951C156.919 66.7151 156.837 67.0068 156.674 67.1701C156.534 67.3334 156.347 67.4151 156.114 67.4151ZM161.19 67.1001C160.84 67.1001 160.665 66.9718 160.665 66.7151C160.665 66.5051 160.817 66.3651 161.12 66.2951L161.925 66.1551C162.415 66.0618 162.73 65.9334 162.87 65.7701C163.033 65.6068 163.115 65.2801 163.115 64.7901V44.2101C163.115 43.7201 163.033 43.3934 162.87 43.2301C162.73 43.0668 162.415 42.9384 161.925 42.8451L161.12 42.7051C160.817 42.6351 160.665 42.4951 160.665 42.2851C160.665 42.0284 160.84 41.9001 161.19 41.9001H167.525C167.875 41.9001 168.05 42.0284 168.05 42.2851C168.05 42.4951 167.898 42.6351 167.595 42.7051L166.79 42.8451C166.3 42.9384 165.973 43.0668 165.81 43.2301C165.67 43.3934 165.6 43.7201 165.6 44.2101V64.7901C165.6 65.2801 165.67 65.6068 165.81 65.7701C165.973 65.9334 166.3 66.0618 166.79 66.1551L167.595 66.2951C167.898 66.3651 168.05 66.5051 168.05 66.7151C168.05 66.9718 167.875 67.1001 167.525 67.1001H161.19ZM178.726 67.4151C176.999 67.4151 175.483 66.8784 174.176 65.8051C172.893 64.7318 171.889 63.2268 171.166 61.2901C170.466 59.3301 170.116 57.0201 170.116 54.3601C170.116 51.7934 170.501 49.5534 171.271 47.6401C172.064 45.7034 173.114 44.2101 174.421 43.1601C175.751 42.0868 177.221 41.5501 178.831 41.5501C179.788 41.5501 180.628 41.6434 181.351 41.8301C182.074 41.9934 182.716 42.2151 183.276 42.4951C183.556 42.6584 183.696 42.9034 183.696 43.2301L183.801 48.5501C183.801 48.9468 183.661 49.1451 183.381 49.1451C183.124 49.1451 182.961 48.9934 182.891 48.6901L182.541 47.3951C182.051 45.5751 181.479 44.3151 180.826 43.6151C180.196 42.9151 179.438 42.5651 178.551 42.5651C176.918 42.5651 175.553 43.5801 174.456 45.6101C173.383 47.6168 172.846 50.5334 172.846 54.3601C172.846 56.9734 173.114 59.1784 173.651 60.9751C174.211 62.7718 174.923 64.1251 175.786 65.0351C176.673 65.9451 177.606 66.4001 178.586 66.4001C179.636 66.4001 180.476 66.0734 181.106 65.4201C181.759 64.7668 182.308 63.5068 182.751 61.6401L183.171 59.9251C183.241 59.5751 183.428 59.4234 183.731 59.4701C183.988 59.5168 184.116 59.7151 184.116 60.0651L183.976 65.7351C183.976 66.0618 183.824 66.3068 183.521 66.4701C182.961 66.7501 182.296 66.9718 181.526 67.1351C180.779 67.3218 179.846 67.4151 178.726 67.4151Z" fill="black"/>
<defs>
<linearGradient id="paint0_linear_78_3516" x1="230.103" y1="8.28479e-07" x2="28.2215" y2="102.885" gradientUnits="userSpaceOnUse">
<stop offset="0.332359" stop-color="#B2F2FF"/>
<stop offset="1" stop-color="#86FF8F"/>
</linearGradient>
</defs>
</svg>
