<svg width="197" height="98" viewBox="0 0 197 98" fill="none" xmlns="http://www.w3.org/2000/svg">
<mask id="path-1-inside-1_131_1705" fill="white">
<path fill-rule="evenodd" clip-rule="evenodd" d="M98.7379 97.2332L102.973 97.2332L191.322 97.2333C195.121 97.2333 197.532 93.1638 195.708 89.8318L148.357 3.36508C147.48 1.76285 145.798 0.766642 143.972 0.766642L102.973 0.766644L94.2445 0.766644L53.2456 0.766646C51.4189 0.766646 49.7376 1.76285 48.8602 3.36508L1.50955 89.8318C-0.31514 93.1638 2.09607 97.2334 5.89505 97.2333L98.7379 97.2332Z"/>
</mask>
<path fill-rule="evenodd" clip-rule="evenodd" d="M98.7379 97.2332L102.973 97.2332L191.322 97.2333C195.121 97.2333 197.532 93.1638 195.708 89.8318L148.357 3.36508C147.48 1.76285 145.798 0.766642 143.972 0.766642L102.973 0.766644L94.2445 0.766644L53.2456 0.766646C51.4189 0.766646 49.7376 1.76285 48.8602 3.36508L1.50955 89.8318C-0.31514 93.1638 2.09607 97.2334 5.89505 97.2333L98.7379 97.2332Z" fill="url(#paint0_linear_131_1705)"/>
<path d="M102.973 97.2332L102.973 95.2332L102.973 97.2332ZM98.7379 97.2332L98.7379 99.2332L98.7379 97.2332ZM94.2445 0.766644L94.2445 -1.23336L94.2445 0.766644ZM53.2456 0.766646L53.2456 2.76665L53.2456 0.766646ZM48.8602 3.36508L50.6144 4.32571L48.8602 3.36508ZM148.357 3.36508L146.603 4.3257L148.357 3.36508ZM1.50955 89.8318L-0.244645 88.8712L1.50955 89.8318ZM102.973 99.2332L98.7379 99.2332L98.7379 95.2332L102.973 95.2332L102.973 99.2332ZM191.322 99.2333L102.973 99.2332L102.973 95.2332L191.322 95.2333L191.322 99.2333ZM150.111 2.40445L197.462 88.8711L193.953 90.7924L146.603 4.3257L150.111 2.40445ZM102.973 -1.23336L143.972 -1.23336L143.972 2.76664L102.973 2.76664L102.973 -1.23336ZM102.973 2.76664L94.2445 2.76664L94.2445 -1.23336L102.973 -1.23336L102.973 2.76664ZM94.2445 2.76664L53.2456 2.76665L53.2456 -1.23335L94.2445 -1.23336L94.2445 2.76664ZM50.6144 4.32571L3.26375 90.7924L-0.244645 88.8712L47.106 2.40446L50.6144 4.32571ZM5.89505 95.2333L98.7379 95.2332L98.7379 99.2332L5.89505 99.2333L5.89505 95.2333ZM53.2456 2.76665C52.1496 2.76665 51.1408 3.36437 50.6144 4.32571L47.106 2.40446C48.3343 0.161338 50.6882 -1.23335 53.2456 -1.23335L53.2456 2.76665ZM146.603 4.3257C146.076 3.36437 145.068 2.76664 143.972 2.76664L143.972 -1.23336C146.529 -1.23336 148.883 0.161333 150.111 2.40445L146.603 4.3257ZM3.26375 90.7924C2.16893 92.7916 3.61566 95.2333 5.89505 95.2333L5.89505 99.2333C0.576492 99.2334 -2.79921 93.5361 -0.244645 88.8712L3.26375 90.7924ZM191.322 95.2333C193.602 95.2333 195.048 92.7916 193.953 90.7924L197.462 88.8711C200.016 93.536 196.641 99.2333 191.322 99.2333L191.322 95.2333Z" fill="black" mask="url(#path-1-inside-1_131_1705)"/>
<defs>
<linearGradient id="paint0_linear_131_1705" x1="207.961" y1="26.0833" x2="174.632" y2="130.896" gradientUnits="userSpaceOnUse">
<stop offset="0.13158" stop-color="#FFECDB"/>
<stop offset="0.916137" stop-color="#9BDABE"/>
</linearGradient>
</defs>
</svg>
