<svg width="180" height="110" viewBox="0 0 180 110" fill="none" xmlns="http://www.w3.org/2000/svg">
<path d="M134.015 28.6249L134.023 28.6297L134.031 28.6343L169.457 49.8526C173.346 52.1822 173.346 57.8178 169.457 60.1473L134.031 81.3657L134.023 81.3703L134.015 81.375L93.1713 106.842C91.2283 108.054 88.7651 108.054 86.8221 106.842L45.9781 81.375L45.9705 81.3703L45.9628 81.3657L10.5368 60.1473C6.64748 57.8178 6.64748 52.1822 10.5368 49.8526L45.9628 28.6343L45.9705 28.6297L45.9781 28.6249L86.8221 3.15786C88.7651 1.94636 91.2283 1.94636 93.1713 3.15786L134.015 28.6249Z" fill="url(#paint0_linear_79_122)" stroke="black" stroke-width="2"/>
<path d="M44.7688 70.3769C44.3188 70.3769 44.0938 70.2119 44.0938 69.8819C44.0938 69.6119 44.2888 69.4319 44.6788 69.3419L45.7138 69.1619C46.3438 69.0419 46.7488 68.8769 46.9288 68.6669C47.1388 68.4569 47.2438 68.0369 47.2438 67.4069V40.9469C47.2438 40.3169 47.1388 39.8969 46.9288 39.6869C46.7488 39.4769 46.3438 39.3119 45.7138 39.1919L44.6788 39.0119C44.2888 38.9219 44.0938 38.7419 44.0938 38.4719C44.0938 38.1419 44.3188 37.9769 44.7688 37.9769H53.0038C53.4538 37.9769 53.6788 38.1569 53.6788 38.5169C53.6788 38.7869 53.5138 38.9519 53.1838 39.0119L51.9688 39.1919C51.3388 39.2819 50.9188 39.4469 50.7088 39.6869C50.5288 39.9269 50.4388 40.3619 50.4388 40.9919V66.1919C50.4388 67.2719 50.7388 68.0519 51.3388 68.5319C51.9688 69.0119 52.7488 69.2519 53.6788 69.2519C54.3688 69.2519 55.0738 69.1169 55.7938 68.8469C56.5438 68.5469 57.2188 68.0069 57.8188 67.2269C58.4188 66.4169 58.8688 65.2469 59.1688 63.7169L59.7538 60.7019C59.8438 60.3119 60.0688 60.1169 60.4288 60.1169C60.8488 60.1169 61.0288 60.3719 60.9688 60.8819L60.4288 69.3419C60.3688 70.0319 59.9938 70.3769 59.3038 70.3769H44.7688ZM61.6927 70.3769C61.2427 70.3769 61.0177 70.2269 61.0177 69.9269C61.0177 69.6269 61.2277 69.4319 61.6477 69.3419L62.3227 69.2069C62.9227 69.0869 63.3727 68.8019 63.6727 68.3519C63.9727 67.8719 64.2277 67.2119 64.4377 66.3719L71.4127 38.2469C71.4727 37.9469 71.5627 37.7519 71.6827 37.6619C71.8327 37.5719 71.9677 37.5269 72.0877 37.5269C72.2377 37.5269 72.3727 37.5719 72.4927 37.6619C72.6427 37.7519 72.7477 37.9469 72.8077 38.2469L79.9177 66.7769C80.1277 67.6169 80.3677 68.2019 80.6377 68.5319C80.9077 68.8619 81.3277 69.0869 81.8977 69.2069L82.5727 69.3419C82.9927 69.4319 83.2027 69.6269 83.2027 69.9269C83.2027 70.2269 82.9777 70.3769 82.5277 70.3769H74.8327C74.4127 70.3769 74.2027 70.2119 74.2027 69.8819C74.2027 69.5519 74.4577 69.3719 74.9677 69.3419L75.8227 69.2519C76.3327 69.1919 76.6477 69.0269 76.7677 68.7569C76.9177 68.4869 76.9177 68.0219 76.7677 67.3619L75.0577 60.3869C74.8777 59.6069 74.3827 59.2169 73.5727 59.2169H68.8477C68.0677 59.2169 67.5727 59.6069 67.3627 60.3869L65.8327 66.4169C65.3827 68.1269 65.8327 69.0719 67.1827 69.2519L67.8577 69.3419C68.3677 69.4319 68.6227 69.6119 68.6227 69.8819C68.6227 70.2119 68.4127 70.3769 67.9927 70.3769H61.6927ZM68.7127 57.8669H73.6627C74.1427 57.8669 74.3377 57.6119 74.2477 57.1019L71.3677 45.0419H71.1427L68.1277 57.1019C68.0377 57.6119 68.2327 57.8669 68.7127 57.8669ZM85.8145 70.3769C85.3645 70.3769 85.1395 70.2119 85.1395 69.8819C85.1395 69.5519 85.3345 69.3719 85.7245 69.3419L87.7495 69.0269C88.3495 68.9369 88.7545 68.7869 88.9645 68.5769C89.1745 68.3369 89.2795 67.9019 89.2795 67.2719V40.2719C89.2795 39.8519 89.1895 39.5519 89.0095 39.3719C88.8295 39.1919 88.4545 39.1019 87.8845 39.1019C86.7745 39.1019 85.6795 39.5819 84.5995 40.5419C83.5195 41.5019 82.8145 43.0469 82.4845 45.1769L82.2595 46.6619C82.1995 47.0519 81.9895 47.2469 81.6295 47.2469C81.1795 47.2469 80.9845 46.9919 81.0445 46.4819L81.4495 38.3369C81.5095 37.6469 81.7795 37.3019 82.2595 37.3019C82.4695 37.3019 82.6645 37.3619 82.8445 37.4819C83.0245 37.5719 83.3245 37.6769 83.7445 37.7969C84.1945 37.9169 84.8995 37.9769 85.8595 37.9769H95.8945C96.8545 37.9769 97.5445 37.9169 97.9645 37.7969C98.4145 37.6769 98.7295 37.5719 98.9095 37.4819C99.1195 37.3619 99.3145 37.3019 99.4945 37.3019C99.9745 37.3019 100.244 37.6469 100.304 38.3369L100.709 46.4819C100.769 46.9919 100.574 47.2469 100.124 47.2469C99.7645 47.2469 99.5545 47.0519 99.4945 46.6619L99.2695 45.1769C98.9695 43.0469 98.2795 41.5019 97.1995 40.5419C96.1195 39.5819 95.0095 39.1019 93.8695 39.1019C93.2995 39.1019 92.9245 39.1919 92.7445 39.3719C92.5645 39.5519 92.4745 39.8519 92.4745 40.2719V67.2719C92.4745 67.9019 92.5795 68.3369 92.7895 68.5769C93.0295 68.7869 93.4345 68.9369 94.0045 69.0269L96.0295 69.3419C96.4195 69.3719 96.6145 69.5519 96.6145 69.8819C96.6145 70.2119 96.3895 70.3769 95.9395 70.3769H85.8145ZM102.777 70.3769C102.327 70.3769 102.102 70.2119 102.102 69.8819C102.102 69.6119 102.297 69.4319 102.687 69.3419L103.722 69.1619C104.352 69.0419 104.757 68.8769 104.937 68.6669C105.147 68.4569 105.252 68.0369 105.252 67.4069V40.9469C105.252 40.3169 105.147 39.8969 104.937 39.6869C104.757 39.4769 104.352 39.3119 103.722 39.1919L102.687 39.0119C102.297 38.9219 102.102 38.7419 102.102 38.4719C102.102 38.1419 102.327 37.9769 102.777 37.9769H110.922C111.372 37.9769 111.597 38.1419 111.597 38.4719C111.597 38.7419 111.402 38.9219 111.012 39.0119L109.977 39.1919C109.347 39.3119 108.927 39.4769 108.717 39.6869C108.537 39.8969 108.447 40.3169 108.447 40.9469V67.4069C108.447 68.0369 108.537 68.4569 108.717 68.6669C108.927 68.8769 109.347 69.0419 109.977 69.1619L111.012 69.3419C111.402 69.4319 111.597 69.6119 111.597 69.8819C111.597 70.2119 111.372 70.3769 110.922 70.3769H102.777ZM131.758 70.7819C131.278 70.7819 130.873 70.4219 130.543 69.7019L118.348 43.2419C118.258 43.0319 118.138 42.9419 117.988 42.9719C117.868 43.0019 117.808 43.1369 117.808 43.3769V66.5069C117.808 67.3469 117.943 67.9919 118.213 68.4419C118.513 68.8619 119.038 69.1319 119.788 69.2519L120.373 69.3419C120.763 69.3719 120.958 69.5519 120.958 69.8819C120.958 70.2119 120.733 70.3769 120.283 70.3769H113.848C113.398 70.3769 113.173 70.2119 113.173 69.8819C113.173 69.5519 113.368 69.3719 113.758 69.3419L114.343 69.2519C115.123 69.1319 115.663 68.8619 115.963 68.4419C116.263 67.9919 116.413 67.3469 116.413 66.5069V40.9469C116.413 40.3169 116.308 39.8969 116.098 39.6869C115.918 39.4769 115.483 39.3119 114.793 39.1919L113.758 39.0119C113.368 38.9219 113.173 38.7419 113.173 38.4719C113.173 38.1419 113.398 37.9769 113.848 37.9769H118.663C119.413 37.9769 119.938 38.3069 120.238 38.9669L130.858 62.3219C130.948 62.5019 131.053 62.5769 131.173 62.5469C131.323 62.5169 131.398 62.4119 131.398 62.2319V41.8469C131.398 40.8869 131.233 40.2269 130.903 39.8669C130.573 39.4769 130.153 39.2369 129.643 39.1469L128.833 39.0119C128.443 38.9219 128.248 38.7419 128.248 38.4719C128.248 38.1419 128.473 37.9769 128.923 37.9769H135.358C135.808 37.9769 136.033 38.1419 136.033 38.4719C136.033 38.8019 135.838 38.9819 135.448 39.0119L134.863 39.1019C134.083 39.2219 133.543 39.4769 133.243 39.8669C132.943 40.2269 132.793 40.8869 132.793 41.8469V69.3419C132.793 69.8819 132.688 70.2569 132.478 70.4669C132.298 70.6769 132.058 70.7819 131.758 70.7819Z" fill="black"/>
<defs>
<linearGradient id="paint0_linear_79_122" x1="136.767" y1="6.20095" x2="71.5891" y2="100.829" gradientUnits="userSpaceOnUse">
<stop stop-color="#FAAFBE"/>
<stop offset="1" stop-color="#FF6C55"/>
</linearGradient>
</defs>
</svg>
