<svg width="171" height="110" viewBox="0 0 171 110" fill="none" xmlns="http://www.w3.org/2000/svg">
<path d="M102.453 15.0601L127 8.60228L130.561 25.2631L130.715 25.9843L131.45 26.05L157.156 28.3505L147.632 43.507L147.047 44.438L148.029 44.9323L168.035 55L148.029 65.0677L147.047 65.562L147.632 66.493L157.156 81.6495L131.45 83.95L130.715 84.0157L130.561 84.7369L127 101.398L102.453 94.9399L101.955 94.8088L101.559 95.1382L85.259 108.699L68.9589 95.1382L68.563 94.8088L68.0649 94.9399L43.5179 101.398L39.9568 84.7369L39.8026 84.0157L39.068 83.95L13.3623 81.6495L22.8859 66.493L23.4709 65.562L22.4887 65.0677L2.48354 55L22.4887 44.9323L23.4709 44.438L22.8859 43.507L13.3623 28.3505L39.068 26.05L39.8026 25.9843L39.9568 25.2631L43.5179 8.60228L68.0649 15.0601L68.563 15.1912L68.9589 14.8618L85.259 1.30082L101.559 14.8618L101.955 15.1912L102.453 15.0601Z" fill="url(#paint0_linear_78_3591)" stroke="black" stroke-width="2"/>
<path d="M53.925 70.0347C53.475 70.0347 53.25 69.8697 53.25 69.5397C53.25 69.2697 53.445 69.0897 53.835 68.9997L54.87 68.8197C55.5 68.6997 55.905 68.5347 56.085 68.3247C56.295 68.1147 56.4 67.6947 56.4 67.0647V40.6047C56.4 39.9747 56.295 39.5547 56.085 39.3447C55.905 39.1347 55.5 38.9697 54.87 38.8497L53.835 38.6697C53.445 38.5797 53.25 38.3997 53.25 38.1297C53.25 37.7997 53.475 37.6347 53.925 37.6347H63.33C65.1 37.6347 66.66 38.0247 68.01 38.8047C69.36 39.5547 70.41 40.6047 71.16 41.9547C71.91 43.3047 72.285 44.8647 72.285 46.6347C72.285 48.3447 71.91 49.8597 71.16 51.1797C70.41 52.4997 69.375 53.5347 68.055 54.2847C66.735 55.0047 65.205 55.3647 63.465 55.3647H60.225C59.805 55.3647 59.595 55.5747 59.595 55.9947V66.8847C59.595 67.5147 59.715 67.9497 59.955 68.1897C60.195 68.3997 60.735 68.5797 61.575 68.7297L63.24 68.9997C63.57 69.0597 63.735 69.2247 63.735 69.4947C63.735 69.8547 63.51 70.0347 63.06 70.0347H53.925ZM59.595 51.7647C59.595 53.4147 60.6 54.2397 62.61 54.2397C64.56 54.2397 66.09 53.5497 67.2 52.1697C68.34 50.7897 68.91 48.8997 68.91 46.4997C68.91 44.0397 68.34 42.1347 67.2 40.7847C66.06 39.4347 64.44 38.7597 62.34 38.7597C60.51 38.7597 59.595 39.3597 59.595 40.5597V51.7647ZM85.5069 70.4397C84.0669 70.4397 82.7169 70.0197 81.4569 69.1797C80.1969 68.3097 79.0869 67.1247 78.1269 65.6247C77.1969 64.1247 76.4619 62.3697 75.9219 60.3597C75.4119 58.3197 75.1569 56.1297 75.1569 53.7897C75.1569 51.4497 75.4119 49.2747 75.9219 47.2647C76.4619 45.2547 77.1969 43.4997 78.1269 41.9997C79.0869 40.4697 80.1969 39.2847 81.4569 38.4447C82.7169 37.6047 84.0669 37.1847 85.5069 37.1847C86.9469 37.1847 88.2819 37.6047 89.512 38.4447C90.7719 39.2847 91.8819 40.4697 92.842 41.9997C93.802 43.4997 94.537 45.2547 95.0469 47.2647C95.5869 49.2747 95.8569 51.4497 95.8569 53.7897C95.8569 56.1297 95.5869 58.3197 95.0469 60.3597C94.537 62.3697 93.802 64.1247 92.842 65.6247C91.8819 67.1247 90.7719 68.3097 89.512 69.1797C88.2819 70.0197 86.9469 70.4397 85.5069 70.4397ZM85.5069 69.2247C87.6369 69.2247 89.3019 67.9497 90.5019 65.3997C91.702 62.8497 92.302 58.9797 92.302 53.7897C92.302 48.5997 91.702 44.7447 90.5019 42.2247C89.3019 39.6747 87.6369 38.3997 85.5069 38.3997C83.4069 38.3997 81.7419 39.6747 80.5119 42.2247C79.3119 44.7447 78.7119 48.5997 78.7119 53.7897C78.7119 58.9797 79.3119 62.8497 80.5119 65.3997C81.7419 67.9497 83.4069 69.2247 85.5069 69.2247ZM98.7493 70.0347C98.2993 70.0347 98.0743 69.8697 98.0743 69.5397C98.0743 69.2697 98.2693 69.0897 98.6593 68.9997L99.6943 68.8197C100.324 68.6997 100.729 68.5347 100.909 68.3247C101.119 68.1147 101.224 67.6947 101.224 67.0647V40.6047C101.224 39.9747 101.119 39.5547 100.909 39.3447C100.729 39.1347 100.324 38.9697 99.6943 38.8497L98.6593 38.6697C98.2693 38.5797 98.0743 38.3997 98.0743 38.1297C98.0743 37.7997 98.2993 37.6347 98.7493 37.6347H108.154C109.924 37.6347 111.484 38.0247 112.834 38.8047C114.184 39.5547 115.234 40.6047 115.984 41.9547C116.734 43.3047 117.109 44.8647 117.109 46.6347C117.109 48.3447 116.734 49.8597 115.984 51.1797C115.234 52.4997 114.199 53.5347 112.879 54.2847C111.559 55.0047 110.029 55.3647 108.289 55.3647H105.049C104.629 55.3647 104.419 55.5747 104.419 55.9947V66.8847C104.419 67.5147 104.539 67.9497 104.779 68.1897C105.019 68.3997 105.559 68.5797 106.399 68.7297L108.064 68.9997C108.394 69.0597 108.559 69.2247 108.559 69.4947C108.559 69.8547 108.334 70.0347 107.884 70.0347H98.7493ZM104.419 51.7647C104.419 53.4147 105.424 54.2397 107.434 54.2397C109.384 54.2397 110.914 53.5497 112.024 52.1697C113.164 50.7897 113.734 48.8997 113.734 46.4997C113.734 44.0397 113.164 42.1347 112.024 40.7847C110.884 39.4347 109.264 38.7597 107.164 38.7597C105.334 38.7597 104.419 39.3597 104.419 40.5597V51.7647Z" fill="black"/>
<defs>
<linearGradient id="paint0_linear_78_3591" x1="31.5286" y1="110" x2="143.027" y2="23.4339" gradientUnits="userSpaceOnUse">
<stop offset="0.0748646" stop-color="#FFD600"/>
<stop offset="0.808728" stop-color="#FFF59A"/>
</linearGradient>
</defs>
</svg>
