<svg width="206" height="124" viewBox="0 0 206 124" fill="none" xmlns="http://www.w3.org/2000/svg">
<mask id="path-1-inside-1_133_1904" fill="white">
<path fill-rule="evenodd" clip-rule="evenodd" d="M191.359 31.5009C196.588 36.8261 189.676 43.565 177.551 50.4256C193.73 52.6933 205.33 56.4888 205.33 62.8414C205.33 69.4268 192.864 73.2643 175.753 75.5004C188.578 82.1629 196.277 88.6123 191.62 93.4356C186.267 98.9798 169.638 97.144 150.335 92.5426C159.473 104.947 164.128 115.34 155.084 116.727C145.912 118.133 132.017 108.841 118.229 96.8795C116.293 111.264 112.191 123.188 103.507 123.188C94.8223 123.188 90.7212 111.264 88.7845 96.8799C74.9973 108.841 61.1022 118.133 51.9304 116.727C43.4318 115.424 47.0294 106.168 55.076 94.7648C36.5144 98.9377 20.5327 100.188 14.6349 94.1822C9.40538 88.8569 16.3179 82.1179 28.4435 75.2572C12.2643 72.9896 0.663452 69.1941 0.663452 62.8414C0.663453 56.256 13.1299 52.4186 30.2398 50.1825C17.4155 43.5201 9.71616 37.0707 14.3734 32.2474C19.9837 26.4372 37.9772 28.7322 58.4557 33.8215C48.1817 20.3972 42.3167 8.74692 51.9303 7.27294C61.1022 5.8667 74.9974 15.159 88.7847 27.1202C90.7213 12.7359 94.8224 0.811767 103.507 0.811768C112.192 0.811768 116.293 12.7359 118.229 27.1203C132.017 15.159 145.912 5.86677 155.084 7.27301C164.009 8.64147 159.593 18.7814 150.693 30.9689C169.35 26.7556 185.437 25.4708 191.359 31.5009Z"/>
</mask>
<path fill-rule="evenodd" clip-rule="evenodd" d="M191.359 31.5009C196.588 36.8261 189.676 43.565 177.551 50.4256C193.73 52.6933 205.33 56.4888 205.33 62.8414C205.33 69.4268 192.864 73.2643 175.753 75.5004C188.578 82.1629 196.277 88.6123 191.62 93.4356C186.267 98.9798 169.638 97.144 150.335 92.5426C159.473 104.947 164.128 115.34 155.084 116.727C145.912 118.133 132.017 108.841 118.229 96.8795C116.293 111.264 112.191 123.188 103.507 123.188C94.8223 123.188 90.7212 111.264 88.7845 96.8799C74.9973 108.841 61.1022 118.133 51.9304 116.727C43.4318 115.424 47.0294 106.168 55.076 94.7648C36.5144 98.9377 20.5327 100.188 14.6349 94.1822C9.40538 88.8569 16.3179 82.1179 28.4435 75.2572C12.2643 72.9896 0.663452 69.1941 0.663452 62.8414C0.663453 56.256 13.1299 52.4186 30.2398 50.1825C17.4155 43.5201 9.71616 37.0707 14.3734 32.2474C19.9837 26.4372 37.9772 28.7322 58.4557 33.8215C48.1817 20.3972 42.3167 8.74692 51.9303 7.27294C61.1022 5.8667 74.9974 15.159 88.7847 27.1202C90.7213 12.7359 94.8224 0.811767 103.507 0.811768C112.192 0.811768 116.293 12.7359 118.229 27.1203C132.017 15.159 145.912 5.86677 155.084 7.27301C164.009 8.64147 159.593 18.7814 150.693 30.9689C169.35 26.7556 185.437 25.4708 191.359 31.5009Z" fill="url(#paint0_linear_133_1904)"/>
<path d="M177.551 50.4256L176.566 48.6849L171.435 51.588L177.273 52.4062L177.551 50.4256ZM191.359 31.5009L192.786 30.0995V30.0995L191.359 31.5009ZM175.753 75.5004L175.494 73.5172L169.185 74.3418L174.831 77.2752L175.753 75.5004ZM191.62 93.4356L193.059 94.8248L191.62 93.4356ZM150.335 92.5426L150.798 90.5971L145.484 89.3304L148.725 93.7289L150.335 92.5426ZM155.084 116.727L154.781 114.75L155.084 116.727ZM118.229 96.8795L119.54 95.3688L116.741 92.941L116.247 96.6127L118.229 96.8795ZM88.7845 96.8799L90.7666 96.613L90.2723 92.9414L87.4739 95.3692L88.7845 96.8799ZM51.9304 116.727L51.6273 118.704H51.6273L51.9304 116.727ZM55.076 94.7648L56.7101 95.9179L59.7044 91.6744L54.6373 92.8135L55.076 94.7648ZM14.6349 94.1822L16.0619 92.7809V92.7808L14.6349 94.1822ZM28.4435 75.2572L29.4283 76.9979L34.5592 74.0949L28.7211 73.2766L28.4435 75.2572ZM0.663452 62.8414H2.66345H0.663452ZM30.2398 50.1825L30.499 52.1656L36.8081 51.3411L31.1618 48.4077L30.2398 50.1825ZM14.3734 32.2474L15.8122 33.6367L15.8122 33.6367L14.3734 32.2474ZM58.4557 33.8215L57.9733 35.7625L63.5134 37.1393L60.0439 32.606L58.4557 33.8215ZM51.9303 7.27294L51.6272 5.29604L51.9303 7.27294ZM88.7847 27.1202L87.4741 28.631L90.2725 31.0587L90.7668 27.3871L88.7847 27.1202ZM103.507 0.811768V2.81177V0.811768ZM118.229 27.1203L116.247 27.3871L116.742 31.0588L119.54 28.631L118.229 27.1203ZM155.084 7.27301L155.387 5.29612L155.084 7.27301ZM150.693 30.9689L149.078 29.7894L145.935 34.0938L151.134 32.9197L150.693 30.9689ZM178.535 52.1663C184.633 48.7163 189.677 45.1636 192.519 41.6439C193.948 39.8732 194.967 37.9335 195.108 35.8766C195.255 33.727 194.425 31.7685 192.786 30.0995L189.932 32.9022C190.908 33.8958 191.174 34.7767 191.117 35.6027C191.054 36.5215 190.567 37.6938 189.407 39.1311C187.068 42.0273 182.593 45.2744 176.566 48.6849L178.535 52.1663ZM207.33 62.8414C207.33 60.5719 206.272 58.6522 204.649 57.0964C203.056 55.5695 200.845 54.3129 198.269 53.2522C193.11 51.1285 185.965 49.5855 177.828 48.445L177.273 52.4062C185.315 53.5334 192.06 55.022 196.746 56.9511C199.092 57.9168 200.793 58.9419 201.881 59.9842C202.938 60.9975 203.33 61.9346 203.33 62.8414H207.33ZM176.013 77.4835C184.613 76.3596 192.201 74.8167 197.689 72.6637C200.428 71.5889 202.776 70.312 204.469 68.7552C206.192 67.1707 207.33 65.1971 207.33 62.8414H203.33C203.33 63.7784 202.91 64.754 201.761 65.811C200.582 66.8958 198.744 67.9528 196.228 68.9401C191.204 70.9112 184.004 72.4051 175.494 73.5172L176.013 77.4835ZM193.059 94.8248C194.625 93.2024 195.277 91.2512 194.873 89.1569C194.499 87.2163 193.267 85.4097 191.68 83.7678C188.495 80.4719 183.116 77.0715 176.675 73.7256L174.831 77.2752C181.215 80.5917 186.098 83.7473 188.804 86.5476C190.163 87.9538 190.785 89.0803 190.945 89.9138C191.076 90.5935 190.943 91.2572 190.181 92.0464L193.059 94.8248ZM149.871 94.4881C159.567 96.7993 168.691 98.4417 176.115 98.7915C179.825 98.9663 183.191 98.8227 186.027 98.2414C188.843 97.6641 191.329 96.6161 193.059 94.8248L190.181 92.0464C189.234 93.0272 187.634 93.8288 185.224 94.3228C182.833 94.8128 179.831 94.9622 176.303 94.7959C169.248 94.4635 160.406 92.8873 150.798 90.5971L149.871 94.4881ZM148.725 93.7289C153.287 99.9219 156.529 105.361 157.598 109.291C158.133 111.261 158.021 112.489 157.659 113.201C157.355 113.8 156.65 114.463 154.781 114.75L155.387 118.704C158.04 118.297 160.144 117.141 161.225 115.013C162.248 113 162.097 110.594 161.457 108.241C160.175 103.528 156.521 97.5674 151.945 91.3564L148.725 93.7289ZM154.781 114.75C150.906 115.344 145.654 113.682 139.383 110.082C133.2 106.532 126.391 101.313 119.54 95.3688L116.919 98.3903C123.855 104.408 130.887 109.816 137.391 113.55C143.808 117.235 150.089 119.516 155.387 118.704L154.781 114.75ZM103.507 125.188C108.977 125.188 112.703 121.369 115.193 116.311C117.691 111.238 119.234 104.404 120.211 97.1464L116.247 96.6127C115.288 103.74 113.812 110.06 111.604 114.545C109.388 119.046 106.721 121.188 103.507 121.188V125.188ZM86.8024 97.1468C87.7795 104.404 89.3232 111.238 91.8209 116.312C94.3108 121.369 98.0366 125.188 103.507 125.188V121.188C100.293 121.188 97.6255 119.046 95.4095 114.545C93.2014 110.06 91.7262 103.74 90.7666 96.613L86.8024 97.1468ZM51.6273 118.704C56.9247 119.516 63.206 117.235 69.6225 113.551C76.1273 109.816 83.1591 104.408 90.0951 98.3906L87.4739 95.3692C80.6227 101.313 73.8134 106.532 67.6308 110.082C61.36 113.682 56.1079 115.344 52.2335 114.75L51.6273 118.704ZM53.4418 93.6117C49.4105 99.3249 46.2799 104.778 45.3438 109.111C44.8722 111.295 44.8851 113.523 45.9867 115.373C47.1262 117.286 49.1418 118.323 51.6273 118.704L52.2335 114.75C50.4696 114.48 49.7479 113.871 49.4233 113.326C49.0606 112.717 48.8824 111.675 49.2536 109.956C50.0034 106.485 52.6949 101.608 56.7101 95.9179L53.4418 93.6117ZM13.2079 95.5835C16.7802 99.2213 23.0171 100.375 30.1302 100.29C37.3873 100.204 46.1798 98.8147 55.5147 96.7161L54.6373 92.8135C45.4106 94.8878 36.9315 96.2096 30.0829 96.2906C23.0902 96.3734 18.3873 95.1489 16.0619 92.7809L13.2079 95.5835ZM27.4586 73.5166C21.361 76.9666 16.3168 80.5193 13.4749 84.0391C12.0453 85.8098 11.027 87.7495 10.8858 89.8064C10.7383 91.956 11.5689 93.9145 13.2079 95.5835L16.0619 92.7808C15.0861 91.7872 14.8197 90.9063 14.8764 90.0803C14.9395 89.1615 15.4266 87.9892 16.5871 86.5519C18.9255 83.6557 23.4004 80.4085 29.4283 76.9979L27.4586 73.5166ZM-1.33655 62.8414C-1.33655 65.1109 -0.278417 67.0306 1.34503 68.5865C2.93819 70.1133 5.14828 71.3699 7.72495 72.4306C12.884 74.5544 20.0288 76.0974 28.1659 77.2379L28.7211 73.2766C20.679 72.1494 13.9337 70.6609 9.24759 68.7318C6.90166 67.7661 5.20034 66.741 4.11273 65.6986C3.05543 64.6853 2.66345 63.7483 2.66345 62.8414H-1.33655ZM29.9806 48.1994C21.3807 49.3233 13.7919 50.8662 8.30488 53.0192C5.56574 54.0939 3.21754 55.3708 1.52479 56.9276C-0.198005 58.5121 -1.33655 60.4857 -1.33655 62.8414H2.66345C2.66345 61.9044 3.08321 60.9289 4.23256 59.8718C5.41195 58.7871 7.24973 57.7301 9.76593 56.7428C14.7896 54.7717 21.989 53.2778 30.499 52.1656L29.9806 48.1994ZM12.9346 30.8582C11.368 32.4807 10.7169 34.4318 11.1205 36.5261C11.4944 38.4667 12.7261 40.2732 14.3129 41.9151C17.4981 45.211 22.8774 48.6114 29.3177 51.9573L31.1618 48.4077C24.7779 45.0912 19.8954 41.9356 17.1892 39.1354C15.8302 37.7292 15.2088 36.6027 15.0482 35.7693C14.9172 35.0896 15.0502 34.4258 15.8122 33.6367L12.9346 30.8582ZM58.938 31.8806C48.6575 29.3256 38.9025 27.4459 30.9634 26.951C26.9956 26.7037 23.4 26.7964 20.381 27.3605C17.3874 27.9199 14.7456 28.9827 12.9346 30.8582L15.8122 33.6367C16.8064 32.607 18.5175 31.7779 21.1156 31.2925C23.6883 30.8118 26.9228 30.7069 30.7146 30.9433C38.2944 31.4157 47.7754 33.2281 57.9733 35.7625L58.938 31.8806ZM60.0439 32.606C54.9125 25.9011 51.0712 19.8686 49.6376 15.4488C48.9131 13.2154 48.9329 11.7776 49.29 10.9376C49.5726 10.2726 50.2588 9.5526 52.2334 9.24984L51.6272 5.29604C48.7951 5.73028 46.6092 7.01926 45.6088 9.3728C44.6827 11.5513 45.0083 14.1414 45.8327 16.6829C47.4967 21.8128 51.7249 28.3176 56.8674 35.0371L60.0439 32.606ZM52.2334 9.24984C56.1079 8.65581 61.36 10.3176 67.6309 13.9182C73.8135 17.4682 80.6228 22.6871 87.4741 28.631L90.0953 25.6095C83.1593 19.5921 76.1274 14.1843 69.6226 10.4494C63.2061 6.76507 56.9247 4.48383 51.6272 5.29604L52.2334 9.24984ZM103.507 -1.18823C98.0368 -1.18823 94.3109 2.63123 91.8211 7.68847C89.3234 12.7616 87.7797 19.596 86.8026 26.8534L90.7668 27.3871C91.7264 20.2602 93.2016 13.9403 95.4097 9.4553C97.6257 4.95438 100.293 2.81177 103.507 2.81177V-1.18823ZM120.211 26.8534C119.234 19.596 117.691 12.7616 115.193 7.68849C112.703 2.63124 108.977 -1.18823 103.507 -1.18823V2.81177C106.721 2.81177 109.388 4.95439 111.604 9.45531C113.813 13.9403 115.288 20.2602 116.247 27.3871L120.211 26.8534ZM155.387 5.29612C150.089 4.4839 143.808 6.76514 137.391 10.4494C130.887 14.1843 123.855 19.5922 116.919 25.6096L119.54 28.631C126.391 22.6871 133.201 17.4682 139.383 13.9183C145.654 10.3177 150.906 8.65588 154.781 9.24991L155.387 5.29612ZM152.308 32.1483C156.765 26.0452 160.303 20.1969 161.508 15.5676C162.111 13.253 162.226 10.8856 161.184 8.90723C160.089 6.82635 158.003 5.69725 155.387 5.29612L154.781 9.24991C156.627 9.533 157.336 10.1846 157.645 10.7707C158.007 11.4592 158.136 12.6451 157.637 14.56C156.64 18.3896 153.521 23.7051 149.078 29.7894L152.308 32.1483ZM192.786 30.0995C189.2 26.4477 182.928 25.2989 175.775 25.3938C168.477 25.4906 159.635 26.8992 150.252 29.018L151.134 32.9197C160.408 30.8252 168.938 29.4848 175.828 29.3934C182.864 29.3001 187.596 30.524 189.932 32.9022L192.786 30.0995Z" fill="black" mask="url(#path-1-inside-1_133_1904)"/>
<defs>
<linearGradient id="paint0_linear_133_1904" x1="156.176" y1="7.71041" x2="59.3164" y2="138.915" gradientUnits="userSpaceOnUse">
<stop stop-color="#FCEE84"/>
<stop offset="1" stop-color="#66CE7E"/>
</linearGradient>
</defs>
</svg>
