<svg width="171" height="110" viewBox="0 0 171 110" fill="none" xmlns="http://www.w3.org/2000/svg">
<path d="M83.5196 2.92857C85.0875 2.37059 86.8049 2.39087 88.3631 2.98576L153.377 27.8067C156.119 28.8535 157.924 31.4963 157.899 34.4281L157.537 77.2773C157.512 80.2091 155.663 82.8088 152.904 83.7907L87.483 107.071C85.915 107.629 84.1976 107.609 82.6394 107.014L17.6255 82.1933C14.8835 81.1465 13.0785 78.5037 13.1033 75.5718L13.4657 32.7227C13.4905 29.7909 15.3397 27.1912 18.0989 26.2093L83.5196 2.92857Z" fill="url(#paint0_linear_78_3519)" stroke="black" stroke-width="2"/>
<path d="M60.6414 70.7252C58.0314 70.7252 56.3664 69.0152 55.6464 65.5952L54.6114 60.6002C54.2814 58.9802 53.9064 57.7502 53.4864 56.9102C53.0964 56.0702 52.5414 55.5002 51.8214 55.2002C51.1314 54.9002 50.1714 54.7502 48.9414 54.7502C48.5214 54.7502 48.1914 54.8702 47.9514 55.1102C47.7114 55.3202 47.5914 55.5902 47.5914 55.9202V67.1702C47.5914 67.8002 47.7114 68.2352 47.9514 68.4752C48.1914 68.6852 48.7314 68.8652 49.5714 69.0152L51.2364 69.2852C51.5664 69.3452 51.7314 69.5102 51.7314 69.7802C51.7314 70.1402 51.5064 70.3202 51.0564 70.3202H41.9214C41.4714 70.3202 41.2464 70.1552 41.2464 69.8252C41.2464 69.5552 41.4414 69.3752 41.8314 69.2852L42.8664 69.1052C43.4964 68.9852 43.9014 68.8202 44.0814 68.6102C44.2914 68.4002 44.3964 67.9802 44.3964 67.3502V40.8902C44.3964 40.2602 44.2914 39.8402 44.0814 39.6302C43.9014 39.4202 43.4964 39.2552 42.8664 39.1352L41.8314 38.9552C41.4414 38.8652 41.2464 38.6852 41.2464 38.4152C41.2464 38.0852 41.4714 37.9202 41.9214 37.9202H51.0564C52.8264 37.9202 54.4014 38.2652 55.7814 38.9552C57.1614 39.6452 58.2414 40.6052 59.0214 41.8352C59.8014 43.0352 60.1914 44.4302 60.1914 46.0202C60.1914 47.9102 59.6214 49.6202 58.4814 51.1502C57.3414 52.6502 55.9014 53.7152 54.1614 54.3452C53.9514 54.4052 53.8314 54.5102 53.8014 54.6602C53.8014 54.7802 53.9064 54.8852 54.1164 54.9752C55.0764 55.4252 55.8264 56.0552 56.3664 56.8652C56.9364 57.6752 57.3714 58.7552 57.6714 60.1052L58.6614 64.6952C58.9914 66.2552 59.3814 67.3652 59.8314 68.0252C60.2814 68.6852 60.8514 69.0152 61.5414 69.0152C61.7814 69.0152 61.9914 68.9852 62.1714 68.9252C62.3814 68.8352 62.6364 68.6852 62.9364 68.4752C63.1764 68.3252 63.4014 68.2952 63.6114 68.3852C63.8214 68.4452 63.9264 68.5952 63.9264 68.8352C63.9264 69.3452 63.5964 69.7952 62.9364 70.1852C62.2764 70.5452 61.5114 70.7252 60.6414 70.7252ZM50.6064 53.6252C52.6464 53.6252 54.1914 52.9502 55.2414 51.6002C56.2914 50.2202 56.8164 48.3902 56.8164 46.1102C56.8164 43.8902 56.2014 42.1652 54.9714 40.9352C53.7714 39.6752 52.1064 39.0452 49.9764 39.0452C48.3864 39.0452 47.5914 39.6452 47.5914 40.8452V51.1502C47.5914 52.8002 48.5964 53.6252 50.6064 53.6252ZM74.514 70.7252C73.074 70.7252 71.724 70.3052 70.464 69.4652C69.204 68.5952 68.094 67.4102 67.134 65.9102C66.204 64.4102 65.469 62.6552 64.929 60.6452C64.419 58.6052 64.164 56.4152 64.164 54.0752C64.164 51.7352 64.419 49.5602 64.929 47.5502C65.469 45.5402 66.204 43.7852 67.134 42.2852C68.094 40.7552 69.204 39.5702 70.464 38.7302C71.724 37.8902 73.074 37.4702 74.514 37.4702C75.954 37.4702 77.289 37.8902 78.519 38.7302C79.779 39.5702 80.889 40.7552 81.849 42.2852C82.809 43.7852 83.544 45.5402 84.054 47.5502C84.594 49.5602 84.864 51.7352 84.864 54.0752C84.864 56.4152 84.594 58.6052 84.054 60.6452C83.544 62.6552 82.809 64.4102 81.849 65.9102C80.889 67.4102 79.779 68.5952 78.519 69.4652C77.289 70.3052 75.954 70.7252 74.514 70.7252ZM74.514 69.5102C76.644 69.5102 78.309 68.2352 79.509 65.6852C80.709 63.1352 81.309 59.2652 81.309 54.0752C81.309 48.8852 80.709 45.0302 79.509 42.5102C78.309 39.9602 76.644 38.6852 74.514 38.6852C72.414 38.6852 70.749 39.9602 69.519 42.5102C68.319 45.0302 67.719 48.8852 67.719 54.0752C67.719 59.2652 68.319 63.1352 69.519 65.6852C70.749 68.2352 72.414 69.5102 74.514 69.5102ZM99.5358 70.7252C97.3158 70.7252 95.3658 70.0352 93.6858 68.6552C92.0358 67.2752 90.7458 65.3402 89.8158 62.8502C88.9158 60.3302 88.4658 57.3602 88.4658 53.9402C88.4658 50.6402 88.9608 47.7602 89.9508 45.3002C90.9708 42.8102 92.3208 40.8902 94.0008 39.5402C95.7108 38.1602 97.6008 37.4702 99.6708 37.4702C100.901 37.4702 101.981 37.5902 102.911 37.8302C103.841 38.0402 104.666 38.3252 105.386 38.6852C105.746 38.8952 105.926 39.2102 105.926 39.6302L106.061 46.4702C106.061 46.9802 105.881 47.2352 105.521 47.2352C105.191 47.2352 104.981 47.0402 104.891 46.6502L104.441 44.9852C103.811 42.6452 103.076 41.0252 102.236 40.1252C101.426 39.2252 100.451 38.7752 99.3108 38.7752C97.2108 38.7752 95.4558 40.0802 94.0458 42.6902C92.6658 45.2702 91.9758 49.0202 91.9758 53.9402C91.9758 57.3002 92.3208 60.1352 93.0108 62.4452C93.7308 64.7552 94.6458 66.4952 95.7558 67.6652C96.8958 68.8352 98.0958 69.4202 99.3558 69.4202C100.706 69.4202 101.786 69.0002 102.596 68.1602C103.436 67.3202 104.141 65.7002 104.711 63.3002L105.251 61.0952C105.341 60.6452 105.581 60.4502 105.971 60.5102C106.301 60.5702 106.466 60.8252 106.466 61.2752L106.286 68.5652C106.286 68.9852 106.091 69.3002 105.701 69.5102C104.981 69.8702 104.126 70.1552 103.136 70.3652C102.176 70.6052 100.976 70.7252 99.5358 70.7252ZM109.817 70.3202C109.367 70.3202 109.142 70.1552 109.142 69.8252C109.142 69.5552 109.337 69.3752 109.727 69.2852L110.762 69.1052C111.392 68.9852 111.797 68.8202 111.977 68.6102C112.187 68.4002 112.292 67.9802 112.292 67.3502V40.8902C112.292 40.2602 112.187 39.8402 111.977 39.6302C111.797 39.4202 111.392 39.2552 110.762 39.1352L109.727 38.9552C109.337 38.8652 109.142 38.6852 109.142 38.4152C109.142 38.0852 109.367 37.9202 109.817 37.9202H118.052C118.502 37.9202 118.727 38.1002 118.727 38.4602C118.727 38.7302 118.562 38.8952 118.232 38.9552L117.017 39.1352C116.387 39.2252 115.967 39.3902 115.757 39.6302C115.577 39.8702 115.487 40.3052 115.487 40.9352V53.0852C115.487 53.3852 115.577 53.5652 115.757 53.6252C115.937 53.6852 116.102 53.5802 116.252 53.3102L123.632 41.7452C124.622 40.2152 124.532 39.3452 123.362 39.1352L122.327 38.9552C121.937 38.8652 121.742 38.6702 121.742 38.3702C121.742 38.0702 121.952 37.9202 122.372 37.9202H130.022C130.442 37.9202 130.652 38.0852 130.652 38.4152C130.652 38.7452 130.457 38.9252 130.067 38.9552L129.212 39.0452C128.282 39.1352 127.517 39.4052 126.917 39.8552C126.317 40.3052 125.642 41.1152 124.892 42.2852L119.807 50.2502C119.507 50.7602 119.492 51.2552 119.762 51.7352L128.222 67.6652C128.462 68.1452 128.702 68.4902 128.942 68.7002C129.212 68.9102 129.527 69.0452 129.887 69.1052L130.967 69.2852C131.327 69.3152 131.507 69.4952 131.507 69.8252C131.507 70.1552 131.297 70.3202 130.877 70.3202H122.867C122.447 70.3202 122.237 70.1552 122.237 69.8252C122.237 69.5252 122.432 69.3452 122.822 69.2852L123.587 69.1952C124.757 69.0452 124.997 68.3102 124.307 66.9902L117.827 54.6602C117.707 54.4202 117.572 54.3002 117.422 54.3002C117.272 54.2702 117.122 54.3752 116.972 54.6152L116.027 56.1002C115.817 56.4002 115.667 56.6852 115.577 56.9552C115.517 57.2252 115.487 57.5702 115.487 57.9902V67.3052C115.487 67.9352 115.577 68.3702 115.757 68.6102C115.967 68.8502 116.387 69.0152 117.017 69.1052L118.232 69.2852C118.562 69.3452 118.727 69.5102 118.727 69.7802C118.727 70.1402 118.502 70.3202 118.052 70.3202H109.817Z" fill="black"/>
<defs>
<linearGradient id="paint0_linear_78_3519" x1="141.162" y1="19.2218" x2="27.5716" y2="78.7415" gradientUnits="userSpaceOnUse">
<stop stop-color="#FEDB9A"/>
<stop offset="1" stop-color="#FF6B57"/>
</linearGradient>
</defs>
</svg>
