<svg width="200" height="150" viewBox="0 0 200 150" fill="none" xmlns="http://www.w3.org/2000/svg">
<path d="M100 22.8942C149.153 22.8942 189 62.7409 189 111.894V122.093C189 124.861 186.756 127.106 183.988 127.106H16.0117C13.2438 127.106 11 124.861 11 122.093V111.894C11 62.7409 50.8467 22.8942 100 22.8942Z" fill="url(#paint0_linear_313_125)"/>
<path d="M100 22.8942C149.153 22.8942 189 62.7409 189 111.894V122.093C189 124.861 186.756 127.106 183.988 127.106H16.0117C13.2438 127.106 11 124.861 11 122.093V111.894C11 62.7409 50.8467 22.8942 100 22.8942Z" stroke="black" stroke-width="2"/>
<path d="M30.8443 114.511C28.6243 114.511 26.6743 113.821 24.9943 112.441C23.3443 111.061 22.0543 109.126 21.1243 106.636C20.2243 104.116 19.7743 101.146 19.7743 97.7258C19.7743 94.4258 20.2693 91.5458 21.2593 89.0858C22.2793 86.5958 23.6293 84.6758 25.3093 83.3258C27.0193 81.9458 28.9093 81.2558 30.9793 81.2558C32.2093 81.2558 33.2893 81.3758 34.2193 81.6158C35.1493 81.8258 35.9743 82.1108 36.6943 82.4708C37.0543 82.6808 37.2343 82.9958 37.2343 83.4158L37.3693 90.2558C37.3693 90.7658 37.1893 91.0208 36.8293 91.0208C36.4993 91.0208 36.2893 90.8258 36.1993 90.4358L35.7493 88.7708C35.1193 86.4308 34.3843 84.8108 33.5443 83.9108C32.7343 83.0108 31.7593 82.5608 30.6193 82.5608C28.5193 82.5608 26.7643 83.8658 25.3543 86.4758C23.9743 89.0558 23.2843 92.8058 23.2843 97.7258C23.2843 101.086 23.6293 103.921 24.3193 106.231C25.0393 108.541 25.9543 110.281 27.0643 111.451C28.2043 112.621 29.4043 113.206 30.6643 113.206C32.0143 113.206 33.0943 112.786 33.9043 111.946C34.7443 111.106 35.4493 109.486 36.0193 107.086L36.5593 104.881C36.6493 104.431 36.8893 104.236 37.2793 104.296C37.6093 104.356 37.7743 104.611 37.7743 105.061L37.5943 112.351C37.5943 112.771 37.3993 113.086 37.0093 113.296C36.2893 113.656 35.4343 113.941 34.4443 114.151C33.4843 114.391 32.2843 114.511 30.8443 114.511ZM40.6754 114.106C40.2254 114.106 40.0004 113.941 40.0004 113.611C40.0004 113.341 40.1954 113.161 40.5854 113.071L41.6204 112.891C42.2504 112.771 42.6554 112.606 42.8354 112.396C43.0454 112.186 43.1504 111.766 43.1504 111.136V84.6758C43.1504 84.0458 43.0454 83.6258 42.8354 83.4158C42.6554 83.2058 42.2504 83.0408 41.6204 82.9208L40.5854 82.7408C40.1954 82.6508 40.0004 82.4708 40.0004 82.2008C40.0004 81.8708 40.2254 81.7058 40.6754 81.7058H48.9104C49.3604 81.7058 49.5854 81.8858 49.5854 82.2458C49.5854 82.5158 49.4204 82.6808 49.0904 82.7408L47.8754 82.9208C47.2454 83.0108 46.8254 83.1758 46.6154 83.4158C46.4354 83.6558 46.3454 84.0908 46.3454 84.7208V109.921C46.3454 111.001 46.6454 111.781 47.2454 112.261C47.8754 112.741 48.6554 112.981 49.5854 112.981C50.2754 112.981 50.9804 112.846 51.7004 112.576C52.4504 112.276 53.1254 111.736 53.7254 110.956C54.3254 110.146 54.7754 108.976 55.0754 107.446L55.6604 104.431C55.7504 104.041 55.9754 103.846 56.3354 103.846C56.7554 103.846 56.9354 104.101 56.8754 104.611L56.3354 113.071C56.2754 113.761 55.9004 114.106 55.2104 114.106H40.6754ZM57.1493 114.106C56.6993 114.106 56.4743 113.956 56.4743 113.656C56.4743 113.356 56.6843 113.161 57.1043 113.071L57.7793 112.936C58.3793 112.816 58.8293 112.531 59.1293 112.081C59.4293 111.601 59.6843 110.941 59.8943 110.101L66.8693 81.9758C66.9293 81.6758 67.0193 81.4808 67.1393 81.3908C67.2893 81.3008 67.4243 81.2558 67.5443 81.2558C67.6943 81.2558 67.8293 81.3008 67.9493 81.3908C68.0993 81.4808 68.2043 81.6758 68.2643 81.9758L75.3743 110.506C75.5843 111.346 75.8243 111.931 76.0943 112.261C76.3643 112.591 76.7843 112.816 77.3543 112.936L78.0293 113.071C78.4493 113.161 78.6593 113.356 78.6593 113.656C78.6593 113.956 78.4343 114.106 77.9843 114.106H70.2893C69.8693 114.106 69.6593 113.941 69.6593 113.611C69.6593 113.281 69.9143 113.101 70.4243 113.071L71.2793 112.981C71.7893 112.921 72.1043 112.756 72.2243 112.486C72.3743 112.216 72.3743 111.751 72.2243 111.091L70.5143 104.116C70.3343 103.336 69.8393 102.946 69.0293 102.946H64.3043C63.5243 102.946 63.0293 103.336 62.8193 104.116L61.2893 110.146C60.8393 111.856 61.2893 112.801 62.6393 112.981L63.3143 113.071C63.8243 113.161 64.0793 113.341 64.0793 113.611C64.0793 113.941 63.8693 114.106 63.4493 114.106H57.1493ZM64.1693 101.596H69.1193C69.5993 101.596 69.7943 101.341 69.7043 100.831L66.8243 88.7708H66.5993L63.5843 100.831C63.4943 101.341 63.6893 101.596 64.1693 101.596ZM85.1533 114.511C84.5533 114.511 83.8783 114.451 83.1283 114.331C82.4083 114.211 81.7183 114.061 81.0583 113.881C80.4283 113.701 79.9333 113.506 79.5733 113.296C79.3633 113.176 79.1983 113.056 79.0783 112.936C78.9883 112.786 78.9433 112.546 78.9433 112.216L78.7183 105.151C78.7183 104.551 78.9133 104.251 79.3033 104.251C79.6333 104.251 79.8583 104.521 79.9783 105.061L80.3833 106.771C81.4033 111.061 83.3083 113.206 86.0983 113.206C87.5983 113.206 88.7833 112.711 89.6533 111.721C90.5533 110.701 91.0033 109.276 91.0033 107.446C91.0033 105.676 90.5383 104.026 89.6083 102.496C88.7083 100.966 87.2533 99.4508 85.2433 97.9508C83.0233 96.3608 81.4033 94.8308 80.3833 93.3608C79.3633 91.8608 78.8533 90.2708 78.8533 88.5908C78.8533 86.3708 79.6183 84.6008 81.1483 83.2808C82.7083 81.9308 84.6883 81.2558 87.0883 81.2558C87.9883 81.2558 88.8583 81.3608 89.6983 81.5708C90.5383 81.7808 91.2283 82.0808 91.7683 82.4708C91.9483 82.5908 92.0833 82.7258 92.1733 82.8758C92.2933 83.0258 92.3533 83.2208 92.3533 83.4608L92.4883 90.2558C92.4883 90.7658 92.2933 91.0208 91.9033 91.0208C91.6333 91.0208 91.4383 90.8108 91.3183 90.3908L91.0033 89.2658C90.3433 86.9558 89.6533 85.2758 88.9333 84.2258C88.2433 83.1458 87.2383 82.6058 85.9183 82.6058C84.6283 82.6058 83.5933 83.0258 82.8133 83.8658C82.0633 84.7058 81.6883 85.8908 81.6883 87.4208C81.6883 88.7108 82.1083 89.9408 82.9483 91.1108C83.7883 92.2808 85.2583 93.7058 87.3583 95.3858C89.6083 97.2158 91.2433 98.9858 92.2633 100.696C93.3133 102.376 93.8383 104.176 93.8383 106.096C93.8383 107.776 93.4633 109.246 92.7133 110.506C91.9633 111.766 90.9283 112.756 89.6083 113.476C88.3183 114.166 86.8333 114.511 85.1533 114.511ZM103.029 114.511C102.429 114.511 101.754 114.451 101.004 114.331C100.284 114.211 99.5935 114.061 98.9335 113.881C98.3035 113.701 97.8085 113.506 97.4485 113.296C97.2385 113.176 97.0735 113.056 96.9535 112.936C96.8635 112.786 96.8185 112.546 96.8185 112.216L96.5935 105.151C96.5935 104.551 96.7885 104.251 97.1785 104.251C97.5085 104.251 97.7335 104.521 97.8535 105.061L98.2585 106.771C99.2785 111.061 101.184 113.206 103.974 113.206C105.474 113.206 106.659 112.711 107.529 111.721C108.429 110.701 108.879 109.276 108.879 107.446C108.879 105.676 108.414 104.026 107.484 102.496C106.584 100.966 105.129 99.4508 103.119 97.9508C100.899 96.3608 99.2785 94.8308 98.2585 93.3608C97.2385 91.8608 96.7285 90.2708 96.7285 88.5908C96.7285 86.3708 97.4935 84.6008 99.0235 83.2808C100.584 81.9308 102.564 81.2558 104.964 81.2558C105.864 81.2558 106.734 81.3608 107.574 81.5708C108.414 81.7808 109.104 82.0808 109.644 82.4708C109.824 82.5908 109.959 82.7258 110.049 82.8758C110.169 83.0258 110.229 83.2208 110.229 83.4608L110.364 90.2558C110.364 90.7658 110.169 91.0208 109.779 91.0208C109.509 91.0208 109.314 90.8108 109.194 90.3908L108.879 89.2658C108.219 86.9558 107.529 85.2758 106.809 84.2258C106.119 83.1458 105.114 82.6058 103.794 82.6058C102.504 82.6058 101.469 83.0258 100.689 83.8658C99.9385 84.7058 99.5635 85.8908 99.5635 87.4208C99.5635 88.7108 99.9835 89.9408 100.824 91.1108C101.664 92.2808 103.134 93.7058 105.234 95.3858C107.484 97.2158 109.119 98.9858 110.139 100.696C111.189 102.376 111.714 104.176 111.714 106.096C111.714 107.776 111.339 109.246 110.589 110.506C109.839 111.766 108.804 112.756 107.484 113.476C106.194 114.166 104.709 114.511 103.029 114.511ZM113.89 114.106C113.44 114.106 113.215 113.941 113.215 113.611C113.215 113.341 113.41 113.161 113.8 113.071L114.835 112.891C115.465 112.771 115.87 112.606 116.05 112.396C116.26 112.186 116.365 111.766 116.365 111.136V84.6758C116.365 84.0458 116.26 83.6258 116.05 83.4158C115.87 83.2058 115.465 83.0408 114.835 82.9208L113.8 82.7408C113.41 82.6508 113.215 82.4708 113.215 82.2008C113.215 81.8708 113.44 81.7058 113.89 81.7058H122.035C122.485 81.7058 122.71 81.8708 122.71 82.2008C122.71 82.4708 122.515 82.6508 122.125 82.7408L121.09 82.9208C120.46 83.0408 120.04 83.2058 119.83 83.4158C119.65 83.6258 119.56 84.0458 119.56 84.6758V111.136C119.56 111.766 119.65 112.186 119.83 112.396C120.04 112.606 120.46 112.771 121.09 112.891L122.125 113.071C122.515 113.161 122.71 113.341 122.71 113.611C122.71 113.941 122.485 114.106 122.035 114.106H113.89ZM135.986 114.511C133.766 114.511 131.816 113.821 130.136 112.441C128.486 111.061 127.196 109.126 126.266 106.636C125.366 104.116 124.916 101.146 124.916 97.7258C124.916 94.4258 125.411 91.5458 126.401 89.0858C127.421 86.5958 128.771 84.6758 130.451 83.3258C132.161 81.9458 134.051 81.2558 136.121 81.2558C137.351 81.2558 138.431 81.3758 139.361 81.6158C140.291 81.8258 141.116 82.1108 141.836 82.4708C142.196 82.6808 142.376 82.9958 142.376 83.4158L142.511 90.2558C142.511 90.7658 142.331 91.0208 141.971 91.0208C141.641 91.0208 141.431 90.8258 141.341 90.4358L140.891 88.7708C140.261 86.4308 139.526 84.8108 138.686 83.9108C137.876 83.0108 136.901 82.5608 135.761 82.5608C133.661 82.5608 131.906 83.8658 130.496 86.4758C129.116 89.0558 128.426 92.8058 128.426 97.7258C128.426 101.086 128.771 103.921 129.461 106.231C130.181 108.541 131.096 110.281 132.206 111.451C133.346 112.621 134.546 113.206 135.806 113.206C137.156 113.206 138.236 112.786 139.046 111.946C139.886 111.106 140.591 109.486 141.161 107.086L141.701 104.881C141.791 104.431 142.031 104.236 142.421 104.296C142.751 104.356 142.916 104.611 142.916 105.061L142.736 112.351C142.736 112.771 142.541 113.086 142.151 113.296C141.431 113.656 140.576 113.941 139.586 114.151C138.626 114.391 137.426 114.511 135.986 114.511ZM143.625 114.106C143.175 114.106 142.95 113.956 142.95 113.656C142.95 113.356 143.16 113.161 143.58 113.071L144.255 112.936C144.855 112.816 145.305 112.531 145.605 112.081C145.905 111.601 146.16 110.941 146.37 110.101L153.345 81.9758C153.405 81.6758 153.495 81.4808 153.615 81.3908C153.765 81.3008 153.9 81.2558 154.02 81.2558C154.17 81.2558 154.305 81.3008 154.425 81.3908C154.575 81.4808 154.68 81.6758 154.74 81.9758L161.85 110.506C162.06 111.346 162.3 111.931 162.57 112.261C162.84 112.591 163.26 112.816 163.83 112.936L164.505 113.071C164.925 113.161 165.135 113.356 165.135 113.656C165.135 113.956 164.91 114.106 164.46 114.106H156.765C156.345 114.106 156.135 113.941 156.135 113.611C156.135 113.281 156.39 113.101 156.9 113.071L157.755 112.981C158.265 112.921 158.58 112.756 158.7 112.486C158.85 112.216 158.85 111.751 158.7 111.091L156.99 104.116C156.81 103.336 156.315 102.946 155.505 102.946H150.78C150 102.946 149.505 103.336 149.295 104.116L147.765 110.146C147.315 111.856 147.765 112.801 149.115 112.981L149.79 113.071C150.3 113.161 150.555 113.341 150.555 113.611C150.555 113.941 150.345 114.106 149.925 114.106H143.625ZM150.645 101.596H155.595C156.075 101.596 156.27 101.341 156.18 100.831L153.3 88.7708H153.075L150.06 100.831C149.97 101.341 150.165 101.596 150.645 101.596ZM164.967 114.106C164.517 114.106 164.292 113.941 164.292 113.611C164.292 113.341 164.487 113.161 164.877 113.071L165.912 112.891C166.542 112.771 166.947 112.606 167.127 112.396C167.337 112.186 167.442 111.766 167.442 111.136V84.6758C167.442 84.0458 167.337 83.6258 167.127 83.4158C166.947 83.2058 166.542 83.0408 165.912 82.9208L164.877 82.7408C164.487 82.6508 164.292 82.4708 164.292 82.2008C164.292 81.8708 164.517 81.7058 164.967 81.7058H173.202C173.652 81.7058 173.877 81.8858 173.877 82.2458C173.877 82.5158 173.712 82.6808 173.382 82.7408L172.167 82.9208C171.537 83.0108 171.117 83.1758 170.907 83.4158C170.727 83.6558 170.637 84.0908 170.637 84.7208V109.921C170.637 111.001 170.937 111.781 171.537 112.261C172.167 112.741 172.947 112.981 173.877 112.981C174.567 112.981 175.272 112.846 175.992 112.576C176.742 112.276 177.417 111.736 178.017 110.956C178.617 110.146 179.067 108.976 179.367 107.446L179.952 104.431C180.042 104.041 180.267 103.846 180.627 103.846C181.047 103.846 181.227 104.101 181.167 104.611L180.627 113.071C180.567 113.761 180.192 114.106 179.502 114.106H164.967Z" fill="black"/>
<defs>
<linearGradient id="paint0_linear_313_125" x1="125.314" y1="21.8942" x2="12.3403" y2="124.413" gradientUnits="userSpaceOnUse">
<stop stop-color="#FFE8F4"/>
<stop offset="1" stop-color="#FF88CA"/>
</linearGradient>
</defs>
</svg>
