<svg width="200" height="150" viewBox="0 0 200 150" fill="none" xmlns="http://www.w3.org/2000/svg">
<path d="M98.3164 21.5967C99.0249 21.2925 99.8216 21.2729 100.541 21.5391L100.684 21.5967L141.335 39.0469C141.619 39.1687 141.913 39.2636 142.214 39.3311L142.517 39.3896L194.446 47.7041C196.275 47.9969 197.391 49.8525 196.827 51.5879L196.768 51.7559L188.413 73.1836C187.986 74.2786 187.959 75.4866 188.333 76.5957L188.413 76.8164L196.768 98.2441C197.441 99.9702 196.403 101.871 194.621 102.263L194.446 102.296L142.517 110.61C142.212 110.659 141.912 110.736 141.622 110.84L141.335 110.953L100.684 128.403C99.9751 128.707 99.1784 128.727 98.459 128.461L98.3164 128.403L57.665 110.953C57.3813 110.831 57.087 110.736 56.7861 110.669L56.4834 110.61L4.55371 102.296C2.72457 102.003 1.60941 100.148 2.17285 98.4121L2.23242 98.2441L10.5869 76.8164C11.0138 75.7214 11.0405 74.5134 10.667 73.4043L10.5869 73.1836L2.23242 51.7559C1.55946 50.0298 2.59665 48.1292 4.37891 47.7373L4.55371 47.7041L56.4834 39.3896C56.7882 39.3408 57.0877 39.2641 57.3779 39.1602L57.665 39.0469L98.3164 21.5967Z" fill="url(#paint0_linear_311_109)" stroke="black" stroke-width="2"/>
<path d="M42.6595 89.36C40.6862 89.36 38.9529 88.7467 37.4595 87.52C35.9929 86.2933 34.8462 84.5733 34.0195 82.36C33.2195 80.12 32.8195 77.48 32.8195 74.44C32.8195 71.5067 33.2595 68.9467 34.1395 66.76C35.0462 64.5467 36.2462 62.84 37.7395 61.64C39.2595 60.4133 40.9395 59.8 42.7795 59.8C43.8729 59.8 44.8329 59.9067 45.6595 60.12C46.4862 60.3067 47.2195 60.56 47.8595 60.88C48.1795 61.0667 48.3395 61.3467 48.3395 61.72L48.4595 67.8C48.4595 68.2533 48.2995 68.48 47.9795 68.48C47.6862 68.48 47.4995 68.3067 47.4195 67.96L47.0195 66.48C46.4595 64.4 45.8062 62.96 45.0595 62.16C44.3395 61.36 43.4729 60.96 42.4595 60.96C40.5929 60.96 39.0329 62.12 37.7795 64.44C36.5529 66.7333 35.9395 70.0667 35.9395 74.44C35.9395 77.4267 36.2462 79.9467 36.8595 82C37.4995 84.0533 38.3129 85.6 39.2995 86.64C40.3129 87.68 41.3795 88.2 42.4995 88.2C43.6995 88.2 44.6595 87.8267 45.3795 87.08C46.1262 86.3333 46.7529 84.8933 47.2595 82.76L47.7395 80.8C47.8195 80.4 48.0329 80.2267 48.3795 80.28C48.6729 80.3333 48.8195 80.56 48.8195 80.96L48.6595 87.44C48.6595 87.8133 48.4862 88.0933 48.1395 88.28C47.4995 88.6 46.7395 88.8533 45.8595 89.04C45.0062 89.2533 43.9395 89.36 42.6595 89.36ZM60.3695 89.36C59.0895 89.36 57.8895 88.9867 56.7695 88.24C55.6495 87.4667 54.6629 86.4133 53.8095 85.08C52.9829 83.7467 52.3295 82.1867 51.8495 80.4C51.3962 78.5867 51.1695 76.64 51.1695 74.56C51.1695 72.48 51.3962 70.5467 51.8495 68.76C52.3295 66.9733 52.9829 65.4133 53.8095 64.08C54.6629 62.72 55.6495 61.6667 56.7695 60.92C57.8895 60.1733 59.0895 59.8 60.3695 59.8C61.6495 59.8 62.8362 60.1733 63.9295 60.92C65.0495 61.6667 66.0362 62.72 66.8895 64.08C67.7429 65.4133 68.3962 66.9733 68.8495 68.76C69.3295 70.5467 69.5695 72.48 69.5695 74.56C69.5695 76.64 69.3295 78.5867 68.8495 80.4C68.3962 82.1867 67.7429 83.7467 66.8895 85.08C66.0362 86.4133 65.0495 87.4667 63.9295 88.24C62.8362 88.9867 61.6495 89.36 60.3695 89.36ZM60.3695 88.28C62.2629 88.28 63.7429 87.1467 64.8095 84.88C65.8762 82.6133 66.4095 79.1733 66.4095 74.56C66.4095 69.9467 65.8762 66.52 64.8095 64.28C63.7429 62.0133 62.2629 60.88 60.3695 60.88C58.5029 60.88 57.0229 62.0133 55.9295 64.28C54.8629 66.52 54.3295 69.9467 54.3295 74.56C54.3295 79.1733 54.8629 82.6133 55.9295 84.88C57.0229 87.1467 58.5029 88.28 60.3695 88.28ZM81.4586 89.36C80.0186 89.36 78.7386 89.0267 77.6186 88.36C76.5253 87.6667 75.6719 86.72 75.0586 85.52C74.4453 84.2933 74.1386 82.8933 74.1386 81.32V62.84C74.1386 62.28 74.0453 61.9067 73.8586 61.72C73.6986 61.5333 73.3386 61.3867 72.7786 61.28L71.8586 61.12C71.5119 61.04 71.3386 60.88 71.3386 60.64C71.3386 60.3467 71.5386 60.2 71.9386 60.2H79.2586C79.6586 60.2 79.8586 60.36 79.8586 60.68C79.8586 60.92 79.7119 61.0667 79.4186 61.12L78.3386 61.28C77.8053 61.36 77.4453 61.5067 77.2586 61.72C77.0719 61.9333 76.9786 62.32 76.9786 62.88V81.36C76.9786 83.3867 77.4319 84.96 78.3386 86.08C79.2453 87.2 80.5119 87.76 82.1386 87.76C83.7919 87.76 85.0719 87.2 85.9786 86.08C86.8853 84.96 87.3386 83.3867 87.3386 81.36V63.68C87.3386 62.24 86.8853 61.44 85.9786 61.28L84.8986 61.12C84.6053 61.0667 84.4586 60.92 84.4586 60.68C84.4586 60.36 84.6586 60.2 85.0586 60.2H90.8186C91.2186 60.2 91.4186 60.3467 91.4186 60.64C91.4186 60.88 91.2453 61.04 90.8986 61.12L89.9786 61.28C89.0719 61.44 88.6186 62.2267 88.6186 63.64V81.32C88.6186 83.7467 87.9653 85.6933 86.6586 87.16C85.3519 88.6267 83.6186 89.36 81.4586 89.36ZM108.664 89.36C108.237 89.36 107.877 89.04 107.584 88.4L96.7439 64.88C96.6639 64.6933 96.5572 64.6133 96.4239 64.64C96.3172 64.6667 96.2639 64.7867 96.2639 65V85.56C96.2639 86.3067 96.3839 86.88 96.6239 87.28C96.8906 87.6533 97.3572 87.8933 98.0239 88L98.5439 88.08C98.8906 88.1067 99.0639 88.2667 99.0639 88.56C99.0639 88.8533 98.8639 89 98.4639 89H92.7439C92.3439 89 92.1439 88.8533 92.1439 88.56C92.1439 88.2667 92.3172 88.1067 92.6639 88.08L93.1839 88C93.8772 87.8933 94.3572 87.6533 94.6239 87.28C94.8906 86.88 95.0239 86.3067 95.0239 85.56V62.84C95.0239 62.28 94.9306 61.9067 94.7439 61.72C94.5839 61.5333 94.1972 61.3867 93.5839 61.28L92.6639 61.12C92.3172 61.04 92.1439 60.88 92.1439 60.64C92.1439 60.3467 92.3439 60.2 92.7439 60.2H97.0239C97.6906 60.2 98.1572 60.4933 98.4239 61.08L107.864 81.84C107.944 82 108.037 82.0667 108.144 82.04C108.277 82.0133 108.344 81.92 108.344 81.76V63.64C108.344 62.7867 108.197 62.2 107.904 61.88C107.611 61.5333 107.237 61.32 106.784 61.24L106.064 61.12C105.717 61.04 105.544 60.88 105.544 60.64C105.544 60.3467 105.744 60.2 106.144 60.2H111.864C112.264 60.2 112.464 60.3467 112.464 60.64C112.464 60.9333 112.291 61.0933 111.944 61.12L111.424 61.2C110.731 61.3067 110.251 61.5333 109.984 61.88C109.717 62.2 109.584 62.7867 109.584 63.64V88.08C109.584 88.56 109.491 88.8933 109.304 89.08C109.144 89.2667 108.931 89.36 108.664 89.36ZM117.425 89C117.025 89 116.825 88.8533 116.825 88.56C116.825 88.2667 116.999 88.1067 117.345 88.08L119.145 87.8C119.679 87.72 120.039 87.5867 120.225 87.4C120.412 87.1867 120.505 86.8 120.505 86.24V62.24C120.505 61.8667 120.425 61.6 120.265 61.44C120.105 61.28 119.772 61.2 119.265 61.2C118.279 61.2 117.305 61.6267 116.345 62.48C115.385 63.3333 114.759 64.7067 114.465 66.6L114.265 67.92C114.212 68.2667 114.025 68.44 113.705 68.44C113.305 68.44 113.132 68.2133 113.185 67.76L113.545 60.52C113.599 59.9067 113.839 59.6 114.265 59.6C114.452 59.6 114.625 59.6533 114.785 59.76C114.945 59.84 115.212 59.9333 115.585 60.04C115.985 60.1467 116.612 60.2 117.465 60.2H126.385C127.239 60.2 127.852 60.1467 128.225 60.04C128.625 59.9333 128.905 59.84 129.065 59.76C129.252 59.6533 129.425 59.6 129.585 59.6C130.012 59.6 130.252 59.9067 130.305 60.52L130.665 67.76C130.719 68.2133 130.545 68.44 130.145 68.44C129.825 68.44 129.639 68.2667 129.585 67.92L129.385 66.6C129.119 64.7067 128.505 63.3333 127.545 62.48C126.585 61.6267 125.599 61.2 124.585 61.2C124.079 61.2 123.745 61.28 123.585 61.44C123.425 61.6 123.345 61.8667 123.345 62.24V86.24C123.345 86.8 123.439 87.1867 123.625 87.4C123.839 87.5867 124.199 87.72 124.705 87.8L126.505 88.08C126.852 88.1067 127.025 88.2667 127.025 88.56C127.025 88.8533 126.825 89 126.425 89H117.425ZM148.743 89.36C146.423 89.36 144.943 87.84 144.303 84.8L143.383 80.36C143.09 78.92 142.756 77.8267 142.383 77.08C142.036 76.3333 141.543 75.8267 140.903 75.56C140.29 75.2933 139.436 75.16 138.343 75.16C137.97 75.16 137.676 75.2667 137.463 75.48C137.25 75.6667 137.143 75.9067 137.143 76.2V86.2C137.143 86.76 137.25 87.1467 137.463 87.36C137.676 87.5467 138.156 87.7067 138.903 87.84L140.383 88.08C140.676 88.1333 140.823 88.28 140.823 88.52C140.823 88.84 140.623 89 140.223 89H132.103C131.703 89 131.503 88.8533 131.503 88.56C131.503 88.32 131.676 88.16 132.023 88.08L132.943 87.92C133.503 87.8133 133.863 87.6667 134.023 87.48C134.21 87.2933 134.303 86.92 134.303 86.36V62.84C134.303 62.28 134.21 61.9067 134.023 61.72C133.863 61.5333 133.503 61.3867 132.943 61.28L132.023 61.12C131.676 61.04 131.503 60.88 131.503 60.64C131.503 60.3467 131.703 60.2 132.103 60.2H140.223C141.796 60.2 143.196 60.5067 144.423 61.12C145.65 61.7333 146.61 62.5867 147.303 63.68C147.996 64.7467 148.343 65.9867 148.343 67.4C148.343 69.08 147.836 70.6 146.823 71.96C145.81 73.2933 144.53 74.24 142.983 74.8C142.796 74.8533 142.69 74.9467 142.663 75.08C142.663 75.1867 142.756 75.28 142.943 75.36C143.796 75.76 144.463 76.32 144.943 77.04C145.45 77.76 145.836 78.72 146.103 79.92L146.983 84C147.276 85.3867 147.623 86.3733 148.023 86.96C148.423 87.5467 148.93 87.84 149.543 87.84C149.756 87.84 149.943 87.8133 150.103 87.76C150.29 87.68 150.516 87.5467 150.783 87.36C150.996 87.2267 151.196 87.2 151.383 87.28C151.57 87.3333 151.663 87.4667 151.663 87.68C151.663 88.1333 151.37 88.5333 150.783 88.88C150.196 89.2 149.516 89.36 148.743 89.36ZM139.823 74.16C141.636 74.16 143.01 73.56 143.943 72.36C144.876 71.1333 145.343 69.5067 145.343 67.48C145.343 65.5067 144.796 63.9733 143.703 62.88C142.636 61.76 141.156 61.2 139.263 61.2C137.85 61.2 137.143 61.7333 137.143 62.8V71.96C137.143 73.4267 138.036 74.16 139.823 74.16ZM154.798 89C154.398 89 154.198 88.8533 154.198 88.56C154.198 88.2667 154.371 88.1067 154.718 88.08L156.518 87.8C157.051 87.72 157.411 87.5867 157.598 87.4C157.785 87.1867 157.878 86.8 157.878 86.24V76.8C157.878 76.2133 157.745 75.64 157.478 75.08L151.598 62.76C151.411 62.3067 151.198 61.96 150.958 61.72C150.718 61.48 150.371 61.3067 149.918 61.2L149.558 61.12C149.185 61.04 148.998 60.8667 148.998 60.6C148.998 60.3333 149.198 60.2 149.598 60.2H156.438C156.811 60.2 156.998 60.3467 156.998 60.64C156.998 60.9333 156.771 61.0933 156.318 61.12L155.558 61.2C155.105 61.2267 154.785 61.3733 154.598 61.64C154.411 61.9067 154.451 62.32 154.718 62.88L159.638 73.36C159.745 73.5467 159.878 73.64 160.038 73.64C160.198 73.64 160.331 73.5467 160.438 73.36L165.158 63.72C165.505 63.0267 165.585 62.4667 165.398 62.04C165.238 61.5867 164.851 61.32 164.238 61.24L163.358 61.12C162.905 61.04 162.678 60.88 162.678 60.64C162.678 60.3467 162.865 60.2 163.238 60.2H168.918C169.318 60.2 169.518 60.3333 169.518 60.6C169.518 60.8667 169.331 61.04 168.958 61.12L168.558 61.2C168.185 61.28 167.851 61.5067 167.558 61.88C167.291 62.2533 166.931 62.88 166.478 63.76L161.238 74.28C161.051 74.6533 160.918 75.0133 160.838 75.36C160.758 75.68 160.718 76.0533 160.718 76.48V86.24C160.718 86.8 160.811 87.1867 160.998 87.4C161.211 87.5867 161.571 87.72 162.078 87.8L163.878 88.08C164.225 88.1067 164.398 88.2667 164.398 88.56C164.398 88.8533 164.198 89 163.798 89H154.798Z" fill="black"/>
<defs>
<linearGradient id="paint0_linear_311_109" x1="147.012" y1="13.4532" x2="46.1394" y2="131.61" gradientUnits="userSpaceOnUse">
<stop offset="0.0361371" stop-color="#FFE6C6"/>
<stop offset="0.916137" stop-color="#D58F5F"/>
</linearGradient>
</defs>
</svg>
