<svg width="200" height="150" viewBox="0 0 200 150" fill="none" xmlns="http://www.w3.org/2000/svg">
<path d="M99.4668 21.1416C99.8742 21.0688 100.29 21.0597 100.699 21.1143L100.875 21.1416L157.56 31.2773C158.103 31.3744 158.619 31.5828 159.076 31.8886L159.268 32.0253L192.576 57.3006C193.572 58.0567 194.155 59.2373 194.152 60.49L194.059 89.5094C194.056 90.6839 193.536 91.7951 192.646 92.5524L192.463 92.6989L158.995 117.974C158.554 118.307 158.049 118.546 157.514 118.674L157.282 118.722L100.533 128.859C100.126 128.932 99.7097 128.94 99.3006 128.885L99.1249 128.859L42.4403 118.722C41.8969 118.625 41.3805 118.417 40.9237 118.111L40.7317 117.974L7.42426 92.6989C6.42785 91.9427 5.84447 90.7621 5.84845 89.5094L5.94056 60.49C5.94431 59.3155 6.46347 58.2044 7.35354 57.4471L7.53663 57.3006L41.0046 32.0253C41.4459 31.6921 41.9507 31.4548 42.4863 31.3261L42.7179 31.2773L99.4668 21.1416Z" fill="url(#paint0_linear_311_120)" stroke="black" stroke-width="2"/>
<path d="M22.59 87C22.24 87 22.065 86.8717 22.065 86.615C22.065 86.405 22.2167 86.265 22.52 86.195L23.325 86.055C23.815 85.9617 24.13 85.8333 24.27 85.67C24.4333 85.5067 24.515 85.18 24.515 84.69V64.11C24.515 63.62 24.4333 63.2933 24.27 63.13C24.13 62.9667 23.815 62.8383 23.325 62.745L22.52 62.605C22.2167 62.535 22.065 62.395 22.065 62.185C22.065 61.9283 22.24 61.8 22.59 61.8H34.35C34.8867 61.8 35.1783 62.0683 35.225 62.605L35.505 68.415C35.5517 68.8117 35.4 69.01 35.05 69.01C34.77 69.01 34.6067 68.8583 34.56 68.555L34.35 67.26C34.0933 65.6733 33.5683 64.5183 32.775 63.795C31.9817 63.0483 30.885 62.675 29.485 62.675C28.5517 62.675 27.8983 62.815 27.525 63.095C27.175 63.3517 27 63.8183 27 64.495V72.93C27 73.2567 27.1633 73.42 27.49 73.42H29.24C30.2667 73.42 30.8967 72.8717 31.13 71.775L31.48 70.025C31.5733 69.675 31.7717 69.5233 32.075 69.57C32.3317 69.6167 32.46 69.815 32.46 70.165V78.04C32.46 78.39 32.3317 78.5883 32.075 78.635C31.7717 78.6817 31.5733 78.53 31.48 78.18L31.13 76.465C30.9667 75.6483 30.7333 75.1117 30.43 74.855C30.15 74.5983 29.7417 74.47 29.205 74.47H27.49C27.1633 74.47 27 74.6333 27 74.96V83.745C27 84.585 27.21 85.1917 27.63 85.565C28.0733 85.9383 28.8667 86.125 30.01 86.125C31.1767 86.125 32.1683 85.8333 32.985 85.25C33.825 84.6433 34.4083 83.5233 34.735 81.89L35.155 79.825C35.225 79.5217 35.4 79.37 35.68 79.37C36.0067 79.37 36.1467 79.5683 36.1 79.965L35.75 86.195C35.7033 86.7317 35.4117 87 34.875 87H22.59ZM38.0994 87C37.7494 87 37.5744 86.8717 37.5744 86.615C37.5744 86.405 37.7261 86.265 38.0294 86.195L38.8344 86.055C39.3244 85.9617 39.6394 85.8333 39.7794 85.67C39.9427 85.5067 40.0244 85.18 40.0244 84.69V64.11C40.0244 63.62 39.9427 63.2933 39.7794 63.13C39.6394 62.9667 39.3244 62.8383 38.8344 62.745L38.0294 62.605C37.7261 62.535 37.5744 62.395 37.5744 62.185C37.5744 61.9283 37.7494 61.8 38.0994 61.8H44.5044C44.8544 61.8 45.0294 61.94 45.0294 62.22C45.0294 62.43 44.9011 62.5583 44.6444 62.605L43.6994 62.745C43.2094 62.815 42.8827 62.9433 42.7194 63.13C42.5794 63.3167 42.5094 63.655 42.5094 64.145V83.745C42.5094 84.585 42.7427 85.1917 43.2094 85.565C43.6994 85.9383 44.3061 86.125 45.0294 86.125C45.5661 86.125 46.1144 86.02 46.6744 85.81C47.2577 85.5767 47.7827 85.1567 48.2494 84.55C48.7161 83.92 49.0661 83.01 49.2994 81.82L49.7544 79.475C49.8244 79.1717 49.9994 79.02 50.2794 79.02C50.6061 79.02 50.7461 79.2183 50.6994 79.615L50.2794 86.195C50.2327 86.7317 49.9411 87 49.4044 87H38.0994ZM52.2074 87C51.8574 87 51.6824 86.8717 51.6824 86.615C51.6824 86.405 51.8341 86.265 52.1374 86.195L52.9424 86.055C53.4324 85.9617 53.7474 85.8333 53.8874 85.67C54.0507 85.5067 54.1324 85.18 54.1324 84.69V64.11C54.1324 63.62 54.0507 63.2933 53.8874 63.13C53.7474 62.9667 53.4324 62.8383 52.9424 62.745L52.1374 62.605C51.8341 62.535 51.6824 62.395 51.6824 62.185C51.6824 61.9283 51.8574 61.8 52.2074 61.8H63.9674C64.5041 61.8 64.7957 62.0683 64.8424 62.605L65.1224 68.415C65.1691 68.8117 65.0174 69.01 64.6674 69.01C64.3874 69.01 64.2241 68.8583 64.1774 68.555L63.9674 67.26C63.7107 65.6733 63.1857 64.5183 62.3924 63.795C61.5991 63.0483 60.5024 62.675 59.1024 62.675C58.1691 62.675 57.5157 62.815 57.1424 63.095C56.7924 63.3517 56.6174 63.8183 56.6174 64.495V72.93C56.6174 73.2567 56.7807 73.42 57.1074 73.42H58.8574C59.8841 73.42 60.5141 72.8717 60.7474 71.775L61.0974 70.025C61.1907 69.675 61.3891 69.5233 61.6924 69.57C61.9491 69.6167 62.0774 69.815 62.0774 70.165V78.04C62.0774 78.39 61.9491 78.5883 61.6924 78.635C61.3891 78.6817 61.1907 78.53 61.0974 78.18L60.7474 76.465C60.5841 75.6483 60.3507 75.1117 60.0474 74.855C59.7674 74.5983 59.3591 74.47 58.8224 74.47H57.1074C56.7807 74.47 56.6174 74.6333 56.6174 74.96V83.745C56.6174 84.585 56.8274 85.1917 57.2474 85.565C57.6907 85.9383 58.4841 86.125 59.6274 86.125C60.7941 86.125 61.7857 85.8333 62.6024 85.25C63.4424 84.6433 64.0257 83.5233 64.3524 81.89L64.7724 79.825C64.8424 79.5217 65.0174 79.37 65.2974 79.37C65.6241 79.37 65.7641 79.5683 65.7174 79.965L65.3674 86.195C65.3207 86.7317 65.0291 87 64.4924 87H52.2074ZM76.5368 87.315C74.8101 87.315 73.2934 86.7783 71.9868 85.705C70.7034 84.6317 69.7001 83.1267 68.9768 81.19C68.2768 79.23 67.9268 76.92 67.9268 74.26C67.9268 71.6933 68.3118 69.4533 69.0818 67.54C69.8751 65.6033 70.9251 64.11 72.2318 63.06C73.5618 61.9867 75.0318 61.45 76.6418 61.45C77.5984 61.45 78.4384 61.5433 79.1618 61.73C79.8851 61.8933 80.5268 62.115 81.0868 62.395C81.3668 62.5583 81.5068 62.8033 81.5068 63.13L81.6118 68.45C81.6118 68.8467 81.4718 69.045 81.1918 69.045C80.9351 69.045 80.7718 68.8933 80.7018 68.59L80.3518 67.295C79.8618 65.475 79.2901 64.215 78.6368 63.515C78.0068 62.815 77.2484 62.465 76.3618 62.465C74.7284 62.465 73.3634 63.48 72.2668 65.51C71.1934 67.5167 70.6568 70.4333 70.6568 74.26C70.6568 76.8733 70.9251 79.0783 71.4618 80.875C72.0218 82.6717 72.7334 84.025 73.5968 84.935C74.4834 85.845 75.4168 86.3 76.3968 86.3C77.4468 86.3 78.2868 85.9733 78.9168 85.32C79.5701 84.6667 80.1184 83.4067 80.5618 81.54L80.9818 79.825C81.0518 79.475 81.2384 79.3233 81.5418 79.37C81.7984 79.4167 81.9268 79.615 81.9268 79.965L81.7868 85.635C81.7868 85.9617 81.6351 86.2067 81.3318 86.37C80.7718 86.65 80.1068 86.8717 79.3368 87.035C78.5901 87.2217 77.6568 87.315 76.5368 87.315ZM87.1232 87C86.7732 87 86.5982 86.8717 86.5982 86.615C86.5982 86.3583 86.7498 86.2183 87.0532 86.195L88.6282 85.95C89.0948 85.88 89.4098 85.7633 89.5732 85.6C89.7365 85.4133 89.8182 85.075 89.8182 84.585V63.585C89.8182 63.2583 89.7482 63.025 89.6082 62.885C89.4682 62.745 89.1765 62.675 88.7332 62.675C87.8698 62.675 87.0182 63.0483 86.1782 63.795C85.3382 64.5417 84.7898 65.7433 84.5332 67.4L84.3582 68.555C84.3115 68.8583 84.1482 69.01 83.8682 69.01C83.5182 69.01 83.3665 68.8117 83.4132 68.415L83.7282 62.08C83.7748 61.5433 83.9848 61.275 84.3582 61.275C84.5215 61.275 84.6732 61.3217 84.8132 61.415C84.9532 61.485 85.1865 61.5667 85.5132 61.66C85.8632 61.7533 86.4115 61.8 87.1582 61.8H94.9632C95.7098 61.8 96.2465 61.7533 96.5732 61.66C96.9232 61.5667 97.1682 61.485 97.3082 61.415C97.4715 61.3217 97.6232 61.275 97.7632 61.275C98.1365 61.275 98.3465 61.5433 98.3932 62.08L98.7082 68.415C98.7548 68.8117 98.6032 69.01 98.2532 69.01C97.9732 69.01 97.8098 68.8583 97.7632 68.555L97.5882 67.4C97.3548 65.7433 96.8182 64.5417 95.9782 63.795C95.1382 63.0483 94.2748 62.675 93.3882 62.675C92.9448 62.675 92.6532 62.745 92.5132 62.885C92.3732 63.025 92.3032 63.2583 92.3032 63.585V84.585C92.3032 85.075 92.3848 85.4133 92.5482 85.6C92.7348 85.7633 93.0498 85.88 93.4932 85.95L95.0682 86.195C95.3715 86.2183 95.5232 86.3583 95.5232 86.615C95.5232 86.8717 95.3482 87 94.9982 87H87.1232ZM114.526 87.315C112.496 87.315 111.201 85.985 110.641 83.325L109.836 79.44C109.579 78.18 109.288 77.2233 108.961 76.57C108.658 75.9167 108.226 75.4733 107.666 75.24C107.129 75.0067 106.383 74.89 105.426 74.89C105.099 74.89 104.843 74.9833 104.656 75.17C104.469 75.3333 104.376 75.5433 104.376 75.8V84.55C104.376 85.04 104.469 85.3783 104.656 85.565C104.843 85.7283 105.263 85.8683 105.916 85.985L107.211 86.195C107.468 86.2417 107.596 86.37 107.596 86.58C107.596 86.86 107.421 87 107.071 87H99.966C99.616 87 99.441 86.8717 99.441 86.615C99.441 86.405 99.5927 86.265 99.896 86.195L100.701 86.055C101.191 85.9617 101.506 85.8333 101.646 85.67C101.809 85.5067 101.891 85.18 101.891 84.69V64.11C101.891 63.62 101.809 63.2933 101.646 63.13C101.506 62.9667 101.191 62.8383 100.701 62.745L99.896 62.605C99.5927 62.535 99.441 62.395 99.441 62.185C99.441 61.9283 99.616 61.8 99.966 61.8H107.071C108.448 61.8 109.673 62.0683 110.746 62.605C111.819 63.1417 112.659 63.8883 113.266 64.845C113.873 65.7783 114.176 66.8633 114.176 68.1C114.176 69.57 113.733 70.9 112.846 72.09C111.959 73.2567 110.839 74.085 109.486 74.575C109.323 74.6217 109.229 74.7033 109.206 74.82C109.206 74.9133 109.288 74.995 109.451 75.065C110.198 75.415 110.781 75.905 111.201 76.535C111.644 77.165 111.983 78.005 112.216 79.055L112.986 82.625C113.243 83.8383 113.546 84.7017 113.896 85.215C114.246 85.7283 114.689 85.985 115.226 85.985C115.413 85.985 115.576 85.9617 115.716 85.915C115.879 85.845 116.078 85.7283 116.311 85.565C116.498 85.4483 116.673 85.425 116.836 85.495C116.999 85.5417 117.081 85.6583 117.081 85.845C117.081 86.2417 116.824 86.5917 116.311 86.895C115.798 87.175 115.203 87.315 114.526 87.315ZM106.721 74.015C108.308 74.015 109.509 73.49 110.326 72.44C111.143 71.3667 111.551 69.9433 111.551 68.17C111.551 66.4433 111.073 65.1017 110.116 64.145C109.183 63.165 107.888 62.675 106.231 62.675C104.994 62.675 104.376 63.1417 104.376 64.075V72.09C104.376 73.3733 105.158 74.015 106.721 74.015ZM124.966 87.315C123.846 87.315 122.796 86.9883 121.816 86.335C120.836 85.6583 119.972 84.7367 119.226 83.57C118.502 82.4033 117.931 81.0383 117.511 79.475C117.114 77.8883 116.916 76.185 116.916 74.365C116.916 72.545 117.114 70.8533 117.511 69.29C117.931 67.7267 118.502 66.3617 119.226 65.195C119.972 64.005 120.836 63.0833 121.816 62.43C122.796 61.7767 123.846 61.45 124.966 61.45C126.086 61.45 127.124 61.7767 128.081 62.43C129.061 63.0833 129.924 64.005 130.671 65.195C131.417 66.3617 131.989 67.7267 132.386 69.29C132.806 70.8533 133.016 72.545 133.016 74.365C133.016 76.185 132.806 77.8883 132.386 79.475C131.989 81.0383 131.417 82.4033 130.671 83.57C129.924 84.7367 129.061 85.6583 128.081 86.335C127.124 86.9883 126.086 87.315 124.966 87.315ZM124.966 86.37C126.622 86.37 127.917 85.3783 128.851 83.395C129.784 81.4117 130.251 78.4017 130.251 74.365C130.251 70.3283 129.784 67.33 128.851 65.37C127.917 63.3867 126.622 62.395 124.966 62.395C123.332 62.395 122.037 63.3867 121.081 65.37C120.147 67.33 119.681 70.3283 119.681 74.365C119.681 78.4017 120.147 81.4117 121.081 83.395C122.037 85.3783 123.332 86.37 124.966 86.37ZM148.809 87.315C148.435 87.315 148.12 87.035 147.864 86.475L138.379 65.895C138.309 65.7317 138.215 65.6617 138.099 65.685C138.005 65.7083 137.959 65.8133 137.959 66V83.99C137.959 84.6433 138.064 85.145 138.274 85.495C138.507 85.8217 138.915 86.0317 139.499 86.125L139.954 86.195C140.257 86.2183 140.409 86.3583 140.409 86.615C140.409 86.8717 140.234 87 139.884 87H134.879C134.529 87 134.354 86.8717 134.354 86.615C134.354 86.3583 134.505 86.2183 134.809 86.195L135.264 86.125C135.87 86.0317 136.29 85.8217 136.524 85.495C136.757 85.145 136.874 84.6433 136.874 83.99V64.11C136.874 63.62 136.792 63.2933 136.629 63.13C136.489 62.9667 136.15 62.8383 135.614 62.745L134.809 62.605C134.505 62.535 134.354 62.395 134.354 62.185C134.354 61.9283 134.529 61.8 134.879 61.8H138.624C139.207 61.8 139.615 62.0567 139.849 62.57L148.109 80.735C148.179 80.875 148.26 80.9333 148.354 80.91C148.47 80.8867 148.529 80.805 148.529 80.665V64.81C148.529 64.0633 148.4 63.55 148.144 63.27C147.887 62.9667 147.56 62.78 147.164 62.71L146.534 62.605C146.23 62.535 146.079 62.395 146.079 62.185C146.079 61.9283 146.254 61.8 146.604 61.8H151.609C151.959 61.8 152.134 61.9283 152.134 62.185C152.134 62.4417 151.982 62.5817 151.679 62.605L151.224 62.675C150.617 62.7683 150.197 62.9667 149.964 63.27C149.73 63.55 149.614 64.0633 149.614 64.81V86.195C149.614 86.615 149.532 86.9067 149.369 87.07C149.229 87.2333 149.042 87.315 148.809 87.315ZM153.535 87C153.185 87 153.01 86.8717 153.01 86.615C153.01 86.405 153.162 86.265 153.465 86.195L154.27 86.055C154.76 85.9617 155.075 85.8333 155.215 85.67C155.378 85.5067 155.46 85.18 155.46 84.69V64.11C155.46 63.62 155.378 63.2933 155.215 63.13C155.075 62.9667 154.76 62.8383 154.27 62.745L153.465 62.605C153.162 62.535 153.01 62.395 153.01 62.185C153.01 61.9283 153.185 61.8 153.535 61.8H159.87C160.22 61.8 160.395 61.9283 160.395 62.185C160.395 62.395 160.243 62.535 159.94 62.605L159.135 62.745C158.645 62.8383 158.318 62.9667 158.155 63.13C158.015 63.2933 157.945 63.62 157.945 64.11V84.69C157.945 85.18 158.015 85.5067 158.155 85.67C158.318 85.8333 158.645 85.9617 159.135 86.055L159.94 86.195C160.243 86.265 160.395 86.405 160.395 86.615C160.395 86.8717 160.22 87 159.87 87H153.535ZM170.721 87.315C168.994 87.315 167.478 86.7783 166.171 85.705C164.888 84.6317 163.884 83.1267 163.161 81.19C162.461 79.23 162.111 76.92 162.111 74.26C162.111 71.6933 162.496 69.4533 163.266 67.54C164.059 65.6033 165.109 64.11 166.416 63.06C167.746 61.9867 169.216 61.45 170.826 61.45C171.783 61.45 172.623 61.5433 173.346 61.73C174.069 61.8933 174.711 62.115 175.271 62.395C175.551 62.5583 175.691 62.8033 175.691 63.13L175.796 68.45C175.796 68.8467 175.656 69.045 175.376 69.045C175.119 69.045 174.956 68.8933 174.886 68.59L174.536 67.295C174.046 65.475 173.474 64.215 172.821 63.515C172.191 62.815 171.433 62.465 170.546 62.465C168.913 62.465 167.548 63.48 166.451 65.51C165.378 67.5167 164.841 70.4333 164.841 74.26C164.841 76.8733 165.109 79.0783 165.646 80.875C166.206 82.6717 166.918 84.025 167.781 84.935C168.668 85.845 169.601 86.3 170.581 86.3C171.631 86.3 172.471 85.9733 173.101 85.32C173.754 84.6667 174.303 83.4067 174.746 81.54L175.166 79.825C175.236 79.475 175.423 79.3233 175.726 79.37C175.983 79.4167 176.111 79.615 176.111 79.965L175.971 85.635C175.971 85.9617 175.819 86.2067 175.516 86.37C174.956 86.65 174.291 86.8717 173.521 87.035C172.774 87.2217 171.841 87.315 170.721 87.315Z" fill="black"/>
<defs>
<linearGradient id="paint0_linear_311_120" x1="226.85" y1="20" x2="22.4994" y2="126.371" gradientUnits="userSpaceOnUse">
<stop offset="0.332359" stop-color="#B2F2FF"/>
<stop offset="1" stop-color="#86FF8F"/>
</linearGradient>
</defs>
</svg>
