<svg width="200" height="150" viewBox="0 0 200 150" fill="none" xmlns="http://www.w3.org/2000/svg">
<mask id="path-1-inside-1_313_126" fill="white">
<path fill-rule="evenodd" clip-rule="evenodd" d="M95.6359 123.233L99.807 123.233L183.462 123.233C187.079 123.233 189.5 119.511 188.032 116.205L149.645 29.7378C148.842 27.9312 147.051 26.7666 145.075 26.7666L104.364 26.7666L95.6359 26.7666L54.9254 26.7666C52.9487 26.7666 51.1575 27.9312 50.3555 29.7378L11.9682 116.205C10.5004 119.511 12.9207 123.233 16.5381 123.233L95.6359 123.233Z"/>
</mask>
<path fill-rule="evenodd" clip-rule="evenodd" d="M95.6359 123.233L99.807 123.233L183.462 123.233C187.079 123.233 189.5 119.511 188.032 116.205L149.645 29.7378C148.842 27.9312 147.051 26.7666 145.075 26.7666L104.364 26.7666L95.6359 26.7666L54.9254 26.7666C52.9487 26.7666 51.1575 27.9312 50.3555 29.7378L11.9682 116.205C10.5004 119.511 12.9207 123.233 16.5381 123.233L95.6359 123.233Z" fill="url(#paint0_linear_313_126)"/>
<path d="M99.807 123.233L99.807 125.233L99.807 123.233ZM95.6359 123.233L95.6359 121.233L95.6359 121.233L95.6359 123.233ZM50.3555 29.7378L52.1834 30.5494L50.3555 29.7378ZM99.807 125.233L95.6359 125.233L95.6359 121.233L99.807 121.233L99.807 125.233ZM183.462 125.233L99.807 125.233L99.807 121.233L183.462 121.233L183.462 125.233ZM151.473 28.9263L189.86 115.393L186.204 117.016L147.817 30.5493L151.473 28.9263ZM104.364 24.7666L145.075 24.7666L145.075 28.7666L104.364 28.7666L104.364 24.7666ZM104.364 28.7666L95.6359 28.7666L95.6359 24.7666L104.364 24.7666L104.364 28.7666ZM95.6359 28.7666L54.9254 28.7666L54.9254 24.7666L95.6359 24.7666L95.6359 28.7666ZM52.1834 30.5494L13.7962 117.016L10.1403 115.393L48.5275 28.9263L52.1834 30.5494ZM16.5381 121.233L95.6359 121.233L95.6359 125.233L16.5381 125.233L16.5381 121.233ZM54.9254 28.7666C53.7394 28.7666 52.6647 29.4654 52.1834 30.5494L48.5275 28.9263C49.6504 26.397 52.158 24.7666 54.9254 24.7666L54.9254 28.7666ZM147.817 30.5493C147.335 29.4654 146.261 28.7666 145.075 28.7666L145.075 24.7666C147.842 24.7666 150.35 26.397 151.473 28.9263L147.817 30.5493ZM13.7962 117.016C12.9155 119 14.3677 121.233 16.5381 121.233L16.5381 125.233C11.4737 125.233 8.08534 120.022 10.1403 115.393L13.7962 117.016ZM183.462 121.233C185.632 121.233 187.085 119 186.204 117.016L189.86 115.393C191.915 120.022 188.526 125.233 183.462 125.233L183.462 121.233Z" fill="black" mask="url(#path-1-inside-1_313_126)"/>
<path d="M60.7645 96.1018C60.3145 96.1018 60.0895 95.9368 60.0895 95.6068C60.0895 95.3368 60.2845 95.1568 60.6745 95.0668L61.7095 94.8868C62.3395 94.7668 62.7445 94.6018 62.9245 94.3918C63.1345 94.1818 63.2395 93.7618 63.2395 93.1318V66.6718C63.2395 66.0418 63.1345 65.6218 62.9245 65.4118C62.7445 65.2018 62.3395 65.0368 61.7095 64.9168L60.6745 64.7368C60.2845 64.6468 60.0895 64.4668 60.0895 64.1968C60.0895 63.8668 60.3145 63.7018 60.7645 63.7018H75.2545C75.9445 63.7018 76.3195 64.0468 76.3795 64.7368L76.7395 72.2068C76.7995 72.7168 76.6045 72.9718 76.1545 72.9718C75.7945 72.9718 75.5845 72.7768 75.5245 72.3868L75.2995 70.9018C75.0595 69.3418 74.6395 68.1268 74.0395 67.2568C73.4395 66.3868 72.7645 65.7718 72.0145 65.4118C71.2645 65.0218 70.5445 64.8268 69.8545 64.8268C68.5345 64.8268 67.6345 65.0368 67.1545 65.4568C66.6745 65.8768 66.4345 66.5218 66.4345 67.3918V78.0118C66.4345 78.4318 66.6445 78.6418 67.0645 78.6418H68.6395C69.9595 78.6418 70.7695 77.9368 71.0695 76.5268L71.5645 74.2768C71.6545 73.8868 71.8795 73.6918 72.2395 73.6918C72.5995 73.6918 72.7795 73.9468 72.7795 74.4568V84.5818C72.7795 85.0918 72.5995 85.3468 72.2395 85.3468C71.8795 85.3468 71.6545 85.1518 71.5645 84.7618L71.0695 82.5568C70.8595 81.5068 70.5595 80.8168 70.1695 80.4868C69.8095 80.1568 69.2845 79.9918 68.5945 79.9918H67.0645C66.6445 79.9918 66.4345 80.2018 66.4345 80.6218V92.9068C66.4345 93.5368 66.5245 93.9868 66.7045 94.2568C66.9145 94.4968 67.3345 94.6618 67.9645 94.7518L70.0795 95.0668C70.4095 95.1268 70.5745 95.2918 70.5745 95.5618C70.5745 95.9218 70.3495 96.1018 69.8995 96.1018H60.7645ZM89.04 96.5068C87.6 96.5068 86.25 96.0868 84.99 95.2468C83.73 94.3768 82.62 93.1918 81.66 91.6918C80.73 90.1918 79.995 88.4368 79.455 86.4268C78.945 84.3868 78.69 82.1968 78.69 79.8568C78.69 77.5168 78.945 75.3418 79.455 73.3318C79.995 71.3218 80.73 69.5668 81.66 68.0668C82.62 66.5368 83.73 65.3518 84.99 64.5118C86.25 63.6718 87.6 63.2518 89.04 63.2518C90.48 63.2518 91.815 63.6718 93.045 64.5118C94.305 65.3518 95.415 66.5368 96.375 68.0668C97.335 69.5668 98.07 71.3218 98.58 73.3318C99.12 75.3418 99.39 77.5168 99.39 79.8568C99.39 82.1968 99.12 84.3868 98.58 86.4268C98.07 88.4368 97.335 90.1918 96.375 91.6918C95.415 93.1918 94.305 94.3768 93.045 95.2468C91.815 96.0868 90.48 96.5068 89.04 96.5068ZM89.04 95.2918C91.17 95.2918 92.835 94.0168 94.035 91.4668C95.235 88.9168 95.835 85.0468 95.835 79.8568C95.835 74.6668 95.235 70.8118 94.035 68.2918C92.835 65.7418 91.17 64.4668 89.04 64.4668C86.94 64.4668 85.275 65.7418 84.045 68.2918C82.845 70.8118 82.245 74.6668 82.245 79.8568C82.245 85.0468 82.845 88.9168 84.045 91.4668C85.275 94.0168 86.94 95.2918 89.04 95.2918ZM101.832 96.1018C101.382 96.1018 101.157 95.9368 101.157 95.6068C101.157 95.3368 101.352 95.1568 101.742 95.0668L102.777 94.8868C103.407 94.7668 103.812 94.6018 103.992 94.3918C104.202 94.1818 104.307 93.7618 104.307 93.1318V66.6718C104.307 66.0418 104.202 65.6218 103.992 65.4118C103.812 65.2018 103.407 65.0368 102.777 64.9168L101.742 64.7368C101.352 64.6468 101.157 64.4668 101.157 64.1968C101.157 63.8668 101.382 63.7018 101.832 63.7018H110.067C110.517 63.7018 110.742 63.8818 110.742 64.2418C110.742 64.5118 110.577 64.6768 110.247 64.7368L109.032 64.9168C108.402 65.0068 107.982 65.1718 107.772 65.4118C107.592 65.6518 107.502 66.0868 107.502 66.7168V91.9168C107.502 92.9968 107.802 93.7768 108.402 94.2568C109.032 94.7368 109.812 94.9768 110.742 94.9768C111.432 94.9768 112.137 94.8418 112.857 94.5718C113.607 94.2718 114.282 93.7318 114.882 92.9518C115.482 92.1418 115.932 90.9718 116.232 89.4418L116.817 86.4268C116.907 86.0368 117.132 85.8418 117.492 85.8418C117.912 85.8418 118.092 86.0968 118.032 86.6068L117.492 95.0668C117.432 95.7568 117.057 96.1018 116.367 96.1018H101.832ZM119.971 96.1018C119.521 96.1018 119.296 95.9368 119.296 95.6068C119.296 95.3368 119.491 95.1568 119.881 95.0668L120.916 94.8868C121.546 94.7668 121.951 94.6018 122.131 94.3918C122.341 94.1818 122.446 93.7618 122.446 93.1318V66.6718C122.446 66.0418 122.341 65.6218 122.131 65.4118C121.951 65.2018 121.546 65.0368 120.916 64.9168L119.881 64.7368C119.491 64.6468 119.296 64.4668 119.296 64.1968C119.296 63.8668 119.521 63.7018 119.971 63.7018H128.206C128.656 63.7018 128.881 63.8818 128.881 64.2418C128.881 64.5118 128.716 64.6768 128.386 64.7368L127.171 64.9168C126.541 65.0068 126.121 65.1718 125.911 65.4118C125.731 65.6518 125.641 66.0868 125.641 66.7168V78.8668C125.641 79.1668 125.731 79.3468 125.911 79.4068C126.091 79.4668 126.256 79.3618 126.406 79.0918L133.786 67.5268C134.776 65.9968 134.686 65.1268 133.516 64.9168L132.481 64.7368C132.091 64.6468 131.896 64.4518 131.896 64.1518C131.896 63.8518 132.106 63.7018 132.526 63.7018H140.176C140.596 63.7018 140.806 63.8668 140.806 64.1968C140.806 64.5268 140.611 64.7068 140.221 64.7368L139.366 64.8268C138.436 64.9168 137.671 65.1868 137.071 65.6368C136.471 66.0868 135.796 66.8968 135.046 68.0668L129.961 76.0318C129.661 76.5418 129.646 77.0368 129.916 77.5168L138.376 93.4468C138.616 93.9268 138.856 94.2718 139.096 94.4818C139.366 94.6918 139.681 94.8268 140.041 94.8868L141.121 95.0668C141.481 95.0968 141.661 95.2768 141.661 95.6068C141.661 95.9368 141.451 96.1018 141.031 96.1018H133.021C132.601 96.1018 132.391 95.9368 132.391 95.6068C132.391 95.3068 132.586 95.1268 132.976 95.0668L133.741 94.9768C134.911 94.8268 135.151 94.0918 134.461 92.7718L127.981 80.4418C127.861 80.2018 127.726 80.0818 127.576 80.0818C127.426 80.0518 127.276 80.1568 127.126 80.3968L126.181 81.8818C125.971 82.1818 125.821 82.4668 125.731 82.7368C125.671 83.0068 125.641 83.3518 125.641 83.7718V93.0868C125.641 93.7168 125.731 94.1518 125.911 94.3918C126.121 94.6318 126.541 94.7968 127.171 94.8868L128.386 95.0668C128.716 95.1268 128.881 95.2918 128.881 95.5618C128.881 95.9218 128.656 96.1018 128.206 96.1018H119.971Z" fill="black"/>
<defs>
<linearGradient id="paint0_linear_313_126" x1="198.998" y1="52.0833" x2="162.913" y2="154.819" gradientUnits="userSpaceOnUse">
<stop offset="0.13158" stop-color="#FFECDB"/>
<stop offset="0.916137" stop-color="#9BDABE"/>
</linearGradient>
</defs>
</svg>
