<svg width="200" height="150" viewBox="0 0 200 150" fill="none" xmlns="http://www.w3.org/2000/svg">
<path d="M99.2705 130.5C88.4998 130.5 80.7825 129.683 75.3506 128.193C69.92 126.704 66.8953 124.579 65.3213 122.054L64.9307 121.427L64.2168 121.616C55.5109 123.927 45.478 122.611 31.4844 114.854L30.1182 114.084C22.4981 109.713 18.2606 106.074 16.4775 102.983C15.6044 101.47 15.343 100.128 15.5176 98.9014C15.694 97.6623 16.3315 96.4239 17.46 95.1572L18.6074 93.8701L16.9199 93.5137C12.2336 92.5248 8.66787 90.7338 6.26172 87.8476C3.8583 84.9647 2.50002 80.8546 2.5 75C2.50001 69.1454 3.85829 65.0353 6.26172 62.1523C8.66788 59.2661 12.2336 57.4751 16.9199 56.4863L18.6074 56.1299L17.46 54.8428C16.3314 53.576 15.6948 52.3368 15.5186 51.0976C15.3441 49.8707 15.6046 48.5297 16.4775 47.0166C18.1492 44.1194 21.9779 40.7391 28.7285 36.7265L30.1182 35.916C44.8295 27.4775 55.2302 25.9982 64.2168 28.3838L64.9307 28.5732L65.3213 27.9463C66.8953 25.4212 69.92 23.2955 75.3506 21.8066C80.7825 20.3174 88.4998 19.5 99.2705 19.5C110.041 19.5 117.758 20.3175 123.189 21.8066C128.62 23.2955 131.645 25.4212 133.219 27.9463L133.609 28.5732L134.324 28.3838C143.03 26.0726 153.063 27.3888 167.057 35.1455L168.423 35.916C175.929 40.2215 180.155 43.8182 181.984 46.8818C182.882 48.3851 183.177 49.7184 183.044 50.9336C182.91 52.1565 182.33 53.375 181.274 54.6201L180.146 55.9512L181.864 56.252C186.945 57.1424 190.815 58.8787 193.425 61.7891C196.025 64.6896 197.5 68.8981 197.5 75C197.5 81.1019 196.025 85.3104 193.425 88.2109C190.815 91.1213 186.945 92.8576 181.864 93.748L180.146 94.0488L181.274 95.3799C182.33 96.625 182.91 97.8435 183.044 99.0664C183.177 100.282 182.882 101.615 181.984 103.118C180.27 105.99 176.448 109.331 169.792 113.285L168.423 114.084C153.711 122.523 143.311 124.002 134.324 121.616L133.609 121.427L133.219 122.054C131.645 124.579 128.62 126.704 123.189 128.193C117.758 129.683 110.041 130.5 99.2705 130.5Z" fill="url(#paint0_linear_311_115)" stroke="black" stroke-width="2"/>
<path d="M51.4923 90.6931C49.0623 90.6931 47.0073 90.0031 45.3273 88.6231C43.6473 87.2431 42.3723 85.3081 41.5023 82.8181C40.6323 80.2981 40.1973 77.3281 40.1973 73.9081C40.1973 70.6081 40.7073 67.7281 41.7273 65.2681C42.7473 62.7781 44.1423 60.8581 45.9123 59.5081C47.7123 58.1281 49.7673 57.4381 52.0773 57.4381C53.2473 57.4381 54.3123 57.5581 55.2723 57.7981C56.2323 58.0081 57.0723 58.2931 57.7923 58.6531C58.1823 58.8631 58.3773 59.1781 58.3773 59.5981L58.5123 66.4381C58.5123 66.9481 58.3323 67.2031 57.9723 67.2031C57.6423 67.2031 57.4323 67.0081 57.3423 66.6181L56.9823 65.2681C56.3223 62.7781 55.5723 61.0681 54.7323 60.1381C53.8923 59.2081 52.7373 58.7431 51.2673 58.7431C49.0773 58.7431 47.2623 60.0481 45.8223 62.6581C44.4123 65.2381 43.7073 68.9881 43.7073 73.9081C43.7073 78.9781 44.4273 82.8481 45.8673 85.5181C47.3373 88.1581 49.2123 89.4781 51.4923 89.4781C52.7223 89.4781 53.6523 89.2081 54.2823 88.6681C54.9123 88.1281 55.2273 87.1231 55.2273 85.6531L55.2273 75.7981C55.2273 75.1681 55.1223 74.7331 54.9123 74.4931C54.7323 74.2531 54.3273 74.1031 53.6973 74.0431L51.9423 73.8631C51.5523 73.8331 51.3573 73.6531 51.3573 73.3231C51.3573 72.9931 51.5823 72.8281 52.0323 72.8281L60.2673 72.8281C60.7173 72.8281 60.9423 73.0081 60.9423 73.3681C60.9423 73.6381 60.7773 73.8031 60.4473 73.8631L59.7723 73.9531C59.1123 74.0431 58.7223 74.2231 58.6023 74.4931C58.4823 74.7631 58.4223 75.2131 58.4223 75.8431L58.4223 88.0381C58.4223 88.3681 58.3323 88.6381 58.1523 88.8481C57.9723 89.0281 57.6573 89.2381 57.2073 89.4781C56.4873 89.8381 55.6623 90.1231 54.7323 90.3331C53.8023 90.5731 52.7223 90.6931 51.4923 90.6931ZM73.5641 90.6931C72.1241 90.6931 70.7741 90.2731 69.5141 89.4331C68.2541 88.5631 67.1441 87.3781 66.1841 85.8781C65.2541 84.3781 64.5191 82.6231 63.9791 80.6131C63.4691 78.5731 63.2141 76.3831 63.2141 74.0431C63.2141 71.7031 63.4691 69.5281 63.9791 67.5181C64.5191 65.5081 65.2541 63.7531 66.1841 62.2531C67.1441 60.7231 68.2541 59.5381 69.5141 58.6981C70.7741 57.8581 72.1241 57.4381 73.5641 57.4381C75.0041 57.4381 76.3391 57.8581 77.5691 58.6981C78.8291 59.5381 79.9391 60.7231 80.8991 62.2531C81.8591 63.7531 82.5941 65.5081 83.1041 67.5181C83.6441 69.5281 83.9141 71.7031 83.9141 74.0431C83.9141 76.3831 83.6441 78.5731 83.1041 80.6131C82.5941 82.6231 81.8591 84.3781 80.8991 85.8781C79.9391 87.3781 78.8291 88.5631 77.5691 89.4331C76.3391 90.2731 75.0041 90.6931 73.5641 90.6931ZM73.5641 89.4781C75.6941 89.4781 77.3591 88.2031 78.5591 85.6531C79.7591 83.1031 80.3591 79.2331 80.3591 74.0431C80.3591 68.8531 79.7591 64.9981 78.5591 62.4781C77.3591 59.9281 75.6941 58.6531 73.5641 58.6531C71.4641 58.6531 69.7991 59.9281 68.5691 62.4781C67.3691 64.9981 66.7691 68.8531 66.7691 74.0431C66.7691 79.2331 67.3691 83.1031 68.5691 85.6531C69.7991 88.2031 71.4641 89.4781 73.5641 89.4781ZM93.5458 90.6931C92.9458 90.6931 92.2708 90.6331 91.5208 90.5131C90.8008 90.3931 90.1108 90.2431 89.4508 90.0631C88.8208 89.8831 88.3258 89.6881 87.9658 89.4781C87.7558 89.3581 87.5908 89.2381 87.4708 89.1181C87.3808 88.9681 87.3358 88.7281 87.3358 88.3981L87.1108 81.3331C87.1108 80.7331 87.3058 80.4331 87.6958 80.4331C88.0258 80.4331 88.2508 80.7031 88.3708 81.2431L88.7758 82.9531C89.7958 87.2431 91.7008 89.3881 94.4908 89.3881C95.9908 89.3881 97.1758 88.8931 98.0458 87.9031C98.9458 86.8831 99.3958 85.4581 99.3958 83.6281C99.3958 81.8581 98.9308 80.2081 98.0008 78.6781C97.1008 77.1481 95.6458 75.6331 93.6358 74.1331C91.4158 72.5431 89.7958 71.0131 88.7758 69.5431C87.7558 68.0431 87.2458 66.4531 87.2458 64.7731C87.2458 62.5531 88.0108 60.7831 89.5408 59.4631C91.1008 58.1131 93.0808 57.4381 95.4808 57.4381C96.3808 57.4381 97.2508 57.5431 98.0908 57.7531C98.9308 57.9631 99.6208 58.2631 100.161 58.6531C100.341 58.7731 100.476 58.9081 100.566 59.0581C100.686 59.2081 100.746 59.4031 100.746 59.6431L100.881 66.4381C100.881 66.9481 100.686 67.2031 100.296 67.2031C100.026 67.2031 99.8308 66.9931 99.7108 66.5731L99.3958 65.4481C98.7358 63.1381 98.0458 61.4581 97.3258 60.4081C96.6358 59.3281 95.6308 58.7881 94.3108 58.7881C93.0208 58.7881 91.9858 59.2081 91.2058 60.0481C90.4558 60.8881 90.0808 62.0731 90.0808 63.6031C90.0808 64.8931 90.5008 66.1231 91.3408 67.2931C92.1808 68.4631 93.6508 69.8881 95.7508 71.5681C98.0008 73.3981 99.6358 75.1681 100.656 76.8781C101.706 78.5581 102.231 80.3581 102.231 82.2781C102.231 83.9581 101.856 85.4281 101.106 86.6881C100.356 87.9481 99.3208 88.9381 98.0008 89.6581C96.7108 90.3481 95.2258 90.6931 93.5458 90.6931ZM104.407 90.2881C103.957 90.2881 103.732 90.1231 103.732 89.7931C103.732 89.5231 103.927 89.3431 104.317 89.2531L105.352 89.0731C105.982 88.9531 106.387 88.7881 106.567 88.5781C106.777 88.3681 106.882 87.9481 106.882 87.3181L106.882 60.8581C106.882 60.2281 106.777 59.8081 106.567 59.5981C106.387 59.3881 105.982 59.2231 105.352 59.1031L104.317 58.9231C103.927 58.8331 103.732 58.6531 103.732 58.3831C103.732 58.0531 103.957 57.8881 104.407 57.8881L113.812 57.8881C115.582 57.8881 117.142 58.2781 118.492 59.0581C119.842 59.8081 120.892 60.8581 121.642 62.2081C122.392 63.5581 122.767 65.1181 122.767 66.8881C122.767 68.5981 122.392 70.1131 121.642 71.4331C120.892 72.7531 119.857 73.7881 118.537 74.5381C117.217 75.2581 115.687 75.6181 113.947 75.6181L110.707 75.6181C110.287 75.6181 110.077 75.8281 110.077 76.2481L110.077 87.1381C110.077 87.7681 110.197 88.2031 110.437 88.4431C110.677 88.6531 111.217 88.8331 112.057 88.9831L113.722 89.2531C114.052 89.3131 114.217 89.4781 114.217 89.7481C114.217 90.1081 113.992 90.2881 113.542 90.2881L104.407 90.2881ZM110.077 72.0181C110.077 73.6681 111.082 74.4931 113.092 74.4931C115.042 74.4931 116.572 73.8031 117.682 72.4231C118.822 71.0431 119.392 69.1531 119.392 66.7531C119.392 64.2931 118.822 62.3881 117.682 61.0381C116.542 59.6881 114.922 59.0131 112.822 59.0131C110.992 59.0131 110.077 59.6131 110.077 60.8131L110.077 72.0181ZM124.919 90.2881C124.469 90.2881 124.244 90.1231 124.244 89.7931C124.244 89.5231 124.439 89.3431 124.829 89.2531L125.864 89.0731C126.494 88.9531 126.899 88.7881 127.079 88.5781C127.289 88.3681 127.394 87.9481 127.394 87.3181L127.394 60.8581C127.394 60.2281 127.289 59.8081 127.079 59.5981C126.899 59.3881 126.494 59.2231 125.864 59.1031L124.829 58.9231C124.439 58.8331 124.244 58.6531 124.244 58.3831C124.244 58.0531 124.469 57.8881 124.919 57.8881L140.039 57.8881C140.729 57.8881 141.104 58.2331 141.164 58.9231L141.524 66.3931C141.584 66.9031 141.389 67.1581 140.939 67.1581C140.579 67.1581 140.369 66.9631 140.309 66.5731L140.039 64.9081C139.709 62.8681 139.034 61.3831 138.014 60.4531C136.994 59.4931 135.584 59.0131 133.784 59.0131C132.584 59.0131 131.744 59.1931 131.264 59.5531C130.814 59.8831 130.589 60.4831 130.589 61.3531L130.589 72.1981C130.589 72.6181 130.799 72.8281 131.219 72.8281L133.469 72.8281C134.789 72.8281 135.599 72.1231 135.899 70.7131L136.349 68.4631C136.469 68.0131 136.724 67.8181 137.114 67.8781C137.444 67.9381 137.609 68.1931 137.609 68.6431L137.609 78.7681C137.609 79.2181 137.444 79.4731 137.114 79.5331C136.724 79.5931 136.469 79.3981 136.349 78.9481L135.899 76.7431C135.689 75.6931 135.389 75.0031 134.999 74.6731C134.639 74.3431 134.114 74.1781 133.424 74.1781L131.219 74.1781C130.799 74.1781 130.589 74.3881 130.589 74.8081L130.589 86.1031C130.589 87.1831 130.859 87.9631 131.399 88.4431C131.969 88.9231 132.989 89.1631 134.459 89.1631C135.959 89.1631 137.234 88.7881 138.284 88.0381C139.364 87.2581 140.114 85.8181 140.534 83.7181L141.074 81.0631C141.164 80.6731 141.389 80.4781 141.749 80.4781C142.169 80.4781 142.349 80.7331 142.289 81.2431L141.839 89.2531C141.779 89.9431 141.404 90.2881 140.714 90.2881L124.919 90.2881ZM144.86 90.2881C144.41 90.2881 144.185 90.1231 144.185 89.7931C144.185 89.5231 144.38 89.3431 144.77 89.2531L145.805 89.0731C146.435 88.9531 146.84 88.7881 147.02 88.5781C147.23 88.3681 147.335 87.9481 147.335 87.3181L147.335 60.8581C147.335 60.2281 147.23 59.8081 147.02 59.5981C146.84 59.3881 146.435 59.2231 145.805 59.1031L144.77 58.9231C144.38 58.8331 144.185 58.6531 144.185 58.3831C144.185 58.0531 144.41 57.8881 144.86 57.8881L153.095 57.8881C153.545 57.8881 153.77 58.0681 153.77 58.4281C153.77 58.6981 153.605 58.8631 153.275 58.9231L152.06 59.1031C151.43 59.1931 151.01 59.3581 150.8 59.5981C150.62 59.8381 150.53 60.2731 150.53 60.9031L150.53 86.1031C150.53 87.1831 150.83 87.9631 151.43 88.4431C152.06 88.9231 152.84 89.1631 153.77 89.1631C154.46 89.1631 155.165 89.0281 155.885 88.7581C156.635 88.4581 157.31 87.9181 157.91 87.1381C158.51 86.3281 158.96 85.1581 159.26 83.6281L159.845 80.6131C159.935 80.2231 160.16 80.0281 160.52 80.0281C160.94 80.0281 161.12 80.2831 161.06 80.7931L160.52 89.2531C160.46 89.9431 160.085 90.2881 159.395 90.2881L144.86 90.2881Z" fill="black"/>
<defs>
<linearGradient id="paint0_linear_311_115" x1="53.2006" y1="138.225" x2="157.419" y2="21.1724" gradientUnits="userSpaceOnUse">
<stop stop-color="#99ECF2"/>
<stop offset="1" stop-color="#FCFFD0"/>
</linearGradient>
</defs>
</svg>
