<svg width="200" height="150" viewBox="0 0 200 150" fill="none" xmlns="http://www.w3.org/2000/svg">
<path d="M98.5156 21.6699C99.4091 21.3129 100.399 21.291 101.305 21.6035L101.484 21.6699L189.318 56.7686C191.525 57.6503 192.466 60.2367 191.389 62.3174L191.278 62.5176L159.369 116.53C158.65 117.748 157.34 118.496 155.925 118.496H44.0752C42.7487 118.496 41.5144 117.839 40.7725 116.753L40.6309 116.53L8.72168 62.5176C7.51318 60.4719 8.34799 57.849 10.4717 56.8594L10.6816 56.7686L98.5156 21.6699Z" fill="url(#paint0_linear_311_122)" stroke="black" stroke-width="2"/>
<path d="M31.5336 89.1667C31.0836 89.1667 30.8586 89.0017 30.8586 88.6717C30.8586 88.4017 31.0536 88.2217 31.4436 88.1317L32.4786 87.9517C33.1086 87.8317 33.5136 87.6667 33.6936 87.4567C33.9036 87.2467 34.0086 86.8267 34.0086 86.1967V59.7367C34.0086 59.1067 33.9036 58.6867 33.6936 58.4767C33.5136 58.2667 33.1086 58.1017 32.4786 57.9817L31.4436 57.8017C31.0536 57.7117 30.8586 57.5317 30.8586 57.2617C30.8586 56.9317 31.0836 56.7667 31.5336 56.7667H39.7686C40.2186 56.7667 40.4436 56.9467 40.4436 57.3067C40.4436 57.5767 40.2786 57.7417 39.9486 57.8017L38.7336 57.9817C38.1036 58.0717 37.6836 58.2367 37.4736 58.4767C37.2936 58.7167 37.2036 59.1517 37.2036 59.7817V71.0767C37.2036 71.4967 37.4136 71.7067 37.8336 71.7067H46.7436C47.1636 71.7067 47.3736 71.4967 47.3736 71.0767V59.7817C47.3736 59.1517 47.2686 58.7167 47.0586 58.4767C46.8786 58.2367 46.4736 58.0717 45.8436 57.9817L44.6286 57.8017C44.2986 57.7417 44.1336 57.5767 44.1336 57.3067C44.1336 56.9467 44.3586 56.7667 44.8086 56.7667H53.0436C53.4936 56.7667 53.7186 56.9317 53.7186 57.2617C53.7186 57.5317 53.5236 57.7117 53.1336 57.8017L52.0986 57.9817C51.4686 58.1017 51.0486 58.2667 50.8386 58.4767C50.6586 58.6867 50.5686 59.1067 50.5686 59.7367V86.1967C50.5686 86.8267 50.6586 87.2467 50.8386 87.4567C51.0486 87.6667 51.4686 87.8317 52.0986 87.9517L53.1336 88.1317C53.5236 88.2217 53.7186 88.4017 53.7186 88.6717C53.7186 89.0017 53.4936 89.1667 53.0436 89.1667H44.8086C44.3586 89.1667 44.1336 88.9867 44.1336 88.6267C44.1336 88.3567 44.2986 88.1917 44.6286 88.1317L45.8436 87.9517C46.4736 87.8617 46.8786 87.6967 47.0586 87.4567C47.2686 87.2167 47.3736 86.7817 47.3736 86.1517V73.6867C47.3736 73.2667 47.1636 73.0567 46.7436 73.0567H37.8336C37.4136 73.0567 37.2036 73.2667 37.2036 73.6867V86.1517C37.2036 86.7817 37.2936 87.2167 37.4736 87.4567C37.6836 87.6967 38.1036 87.8617 38.7336 87.9517L39.9486 88.1317C40.2786 88.1917 40.4436 88.3567 40.4436 88.6267C40.4436 88.9867 40.2186 89.1667 39.7686 89.1667H31.5336ZM56.099 89.1667C55.649 89.1667 55.424 89.0017 55.424 88.6717C55.424 88.4017 55.619 88.2217 56.009 88.1317L57.044 87.9517C57.674 87.8317 58.079 87.6667 58.259 87.4567C58.469 87.2467 58.574 86.8267 58.574 86.1967V59.7367C58.574 59.1067 58.469 58.6867 58.259 58.4767C58.079 58.2667 57.674 58.1017 57.044 57.9817L56.009 57.8017C55.619 57.7117 55.424 57.5317 55.424 57.2617C55.424 56.9317 55.649 56.7667 56.099 56.7667H64.244C64.694 56.7667 64.919 56.9317 64.919 57.2617C64.919 57.5317 64.724 57.7117 64.334 57.8017L63.299 57.9817C62.669 58.1017 62.249 58.2667 62.039 58.4767C61.859 58.6867 61.769 59.1067 61.769 59.7367V86.1967C61.769 86.8267 61.859 87.2467 62.039 87.4567C62.249 87.6667 62.669 87.8317 63.299 87.9517L64.334 88.1317C64.724 88.2217 64.919 88.4017 64.919 88.6717C64.919 89.0017 64.694 89.1667 64.244 89.1667H56.099ZM67.3051 89.1667C66.8551 89.1667 66.6301 89.0017 66.6301 88.6717C66.6301 88.4017 66.8251 88.2217 67.2151 88.1317L68.2501 87.9517C68.8801 87.8317 69.2851 87.6667 69.4651 87.4567C69.6751 87.2467 69.7801 86.8267 69.7801 86.1967V59.7367C69.7801 59.1067 69.6751 58.6867 69.4651 58.4767C69.2851 58.2667 68.8801 58.1017 68.2501 57.9817L67.2151 57.8017C66.8251 57.7117 66.6301 57.5317 66.6301 57.2617C66.6301 56.9317 66.8551 56.7667 67.3051 56.7667H76.7101C78.4801 56.7667 80.0401 57.1567 81.3901 57.9367C82.7401 58.6867 83.7901 59.7367 84.5401 61.0867C85.2901 62.4367 85.6651 63.9967 85.6651 65.7667C85.6651 67.4767 85.2901 68.9917 84.5401 70.3117C83.7901 71.6317 82.7551 72.6667 81.4351 73.4167C80.1151 74.1367 78.5851 74.4967 76.8451 74.4967H73.6051C73.1851 74.4967 72.9751 74.7067 72.9751 75.1267V86.0167C72.9751 86.6467 73.0951 87.0817 73.3351 87.3217C73.5751 87.5317 74.1151 87.7117 74.9551 87.8617L76.6201 88.1317C76.9501 88.1917 77.1151 88.3567 77.1151 88.6267C77.1151 88.9867 76.8901 89.1667 76.4401 89.1667H67.3051ZM72.9751 70.8967C72.9751 72.5467 73.9801 73.3717 75.9901 73.3717C77.9401 73.3717 79.4701 72.6817 80.5801 71.3017C81.7201 69.9217 82.2901 68.0317 82.2901 65.6317C82.2901 63.1717 81.7201 61.2667 80.5801 59.9167C79.4401 58.5667 77.8201 57.8917 75.7201 57.8917C73.8901 57.8917 72.9751 58.4917 72.9751 59.6917V70.8967ZM85.2784 77.5117C84.9784 77.5117 84.8284 77.3617 84.8284 77.0617V76.4317C84.8284 76.1317 84.9784 75.9817 85.2784 75.9817H96.3484C96.6484 75.9817 96.7984 76.1317 96.7984 76.4317V77.0617C96.7984 77.3617 96.6484 77.5117 96.3484 77.5117H85.2784ZM97.9543 89.1667C97.5043 89.1667 97.2793 89.0017 97.2793 88.6717C97.2793 88.4017 97.4743 88.2217 97.8643 88.1317L98.8993 87.9517C99.5293 87.8317 99.9343 87.6667 100.114 87.4567C100.324 87.2467 100.429 86.8267 100.429 86.1967V59.7367C100.429 59.1067 100.324 58.6867 100.114 58.4767C99.9343 58.2667 99.5293 58.1017 98.8993 57.9817L97.8643 57.8017C97.4743 57.7117 97.2793 57.5317 97.2793 57.2617C97.2793 56.9317 97.5043 56.7667 97.9543 56.7667H106.189C106.639 56.7667 106.864 56.9467 106.864 57.3067C106.864 57.5767 106.699 57.7417 106.369 57.8017L105.154 57.9817C104.524 58.0717 104.104 58.2367 103.894 58.4767C103.714 58.7167 103.624 59.1517 103.624 59.7817V71.0767C103.624 71.4967 103.834 71.7067 104.254 71.7067H113.164C113.584 71.7067 113.794 71.4967 113.794 71.0767V59.7817C113.794 59.1517 113.689 58.7167 113.479 58.4767C113.299 58.2367 112.894 58.0717 112.264 57.9817L111.049 57.8017C110.719 57.7417 110.554 57.5767 110.554 57.3067C110.554 56.9467 110.779 56.7667 111.229 56.7667H119.464C119.914 56.7667 120.139 56.9317 120.139 57.2617C120.139 57.5317 119.944 57.7117 119.554 57.8017L118.519 57.9817C117.889 58.1017 117.469 58.2667 117.259 58.4767C117.079 58.6867 116.989 59.1067 116.989 59.7367V86.1967C116.989 86.8267 117.079 87.2467 117.259 87.4567C117.469 87.6667 117.889 87.8317 118.519 87.9517L119.554 88.1317C119.944 88.2217 120.139 88.4017 120.139 88.6717C120.139 89.0017 119.914 89.1667 119.464 89.1667H111.229C110.779 89.1667 110.554 88.9867 110.554 88.6267C110.554 88.3567 110.719 88.1917 111.049 88.1317L112.264 87.9517C112.894 87.8617 113.299 87.6967 113.479 87.4567C113.689 87.2167 113.794 86.7817 113.794 86.1517V73.6867C113.794 73.2667 113.584 73.0567 113.164 73.0567H104.254C103.834 73.0567 103.624 73.2667 103.624 73.6867V86.1517C103.624 86.7817 103.714 87.2167 103.894 87.4567C104.104 87.6967 104.524 87.8617 105.154 87.9517L106.369 88.1317C106.699 88.1917 106.864 88.3567 106.864 88.6267C106.864 88.9867 106.639 89.1667 106.189 89.1667H97.9543ZM130.89 89.5717C129.45 89.5717 128.1 89.1517 126.84 88.3117C125.58 87.4417 124.47 86.2567 123.51 84.7567C122.58 83.2567 121.845 81.5017 121.305 79.4917C120.795 77.4517 120.54 75.2617 120.54 72.9217C120.54 70.5817 120.795 68.4067 121.305 66.3967C121.845 64.3867 122.58 62.6317 123.51 61.1317C124.47 59.6017 125.58 58.4167 126.84 57.5767C128.1 56.7367 129.45 56.3167 130.89 56.3167C132.33 56.3167 133.665 56.7367 134.895 57.5767C136.155 58.4167 137.265 59.6017 138.225 61.1317C139.185 62.6317 139.92 64.3867 140.43 66.3967C140.97 68.4067 141.24 70.5817 141.24 72.9217C141.24 75.2617 140.97 77.4517 140.43 79.4917C139.92 81.5017 139.185 83.2567 138.225 84.7567C137.265 86.2567 136.155 87.4417 134.895 88.3117C133.665 89.1517 132.33 89.5717 130.89 89.5717ZM130.89 88.3567C133.02 88.3567 134.685 87.0817 135.885 84.5317C137.085 81.9817 137.685 78.1117 137.685 72.9217C137.685 67.7317 137.085 63.8767 135.885 61.3567C134.685 58.8067 133.02 57.5317 130.89 57.5317C128.79 57.5317 127.125 58.8067 125.895 61.3567C124.695 63.8767 124.095 67.7317 124.095 72.9217C124.095 78.1117 124.695 81.9817 125.895 84.5317C127.125 87.0817 128.79 88.3567 130.89 88.3567ZM142.782 89.1667C142.332 89.1667 142.107 89.0017 142.107 88.6717C142.107 88.4017 142.302 88.2217 142.692 88.1317L143.727 87.9517C144.357 87.8317 144.762 87.6667 144.942 87.4567C145.152 87.2467 145.257 86.8267 145.257 86.1967V59.7367C145.257 59.1067 145.152 58.6867 144.942 58.4767C144.762 58.2667 144.357 58.1017 143.727 57.9817L142.692 57.8017C142.302 57.7117 142.107 57.5317 142.107 57.2617C142.107 56.9317 142.332 56.7667 142.782 56.7667H152.187C153.957 56.7667 155.517 57.1567 156.867 57.9367C158.217 58.6867 159.267 59.7367 160.017 61.0867C160.767 62.4367 161.142 63.9967 161.142 65.7667C161.142 67.4767 160.767 68.9917 160.017 70.3117C159.267 71.6317 158.232 72.6667 156.912 73.4167C155.592 74.1367 154.062 74.4967 152.322 74.4967H149.082C148.662 74.4967 148.452 74.7067 148.452 75.1267V86.0167C148.452 86.6467 148.572 87.0817 148.812 87.3217C149.052 87.5317 149.592 87.7117 150.432 87.8617L152.097 88.1317C152.427 88.1917 152.592 88.3567 152.592 88.6267C152.592 88.9867 152.367 89.1667 151.917 89.1667H142.782ZM148.452 70.8967C148.452 72.5467 149.457 73.3717 151.467 73.3717C153.417 73.3717 154.947 72.6817 156.057 71.3017C157.197 69.9217 157.767 68.0317 157.767 65.6317C157.767 63.1717 157.197 61.2667 156.057 59.9167C154.917 58.5667 153.297 57.8917 151.197 57.8917C149.367 57.8917 148.452 58.4917 148.452 59.6917V70.8967Z" fill="black"/>
<defs>
<linearGradient id="paint0_linear_311_122" x1="35.3955" y1="130" x2="138.548" y2="25.686" gradientUnits="userSpaceOnUse">
<stop offset="0.0840252" stop-color="#FFAA6E"/>
<stop offset="1" stop-color="#FFE070"/>
</linearGradient>
</defs>
</svg>
