<svg width="200" height="150" viewBox="0 0 200 150" fill="none" xmlns="http://www.w3.org/2000/svg">
<path d="M105.255 23.2118C110.464 33.0572 122.4 37.1388 132.517 32.6249L132.997 32.4032L147.977 25.2714L147.138 27.7753C142.762 40.8296 151.844 54.4459 165.453 55.535L166.106 55.577L177.106 56.1268L175.517 57.1278C162.563 65.2799 162.361 83.9946 174.911 92.4764L175.517 92.8729L177.106 93.8719L166.106 94.4227C152.355 95.1106 142.989 108.533 146.94 121.602L147.138 122.224L147.977 124.727L132.997 117.597C122.94 112.809 110.928 116.662 105.508 126.324L105.255 126.789L99.9994 136.723L94.7445 126.789C89.536 116.943 77.5997 112.861 67.4828 117.375L67.0023 117.597L52.0219 124.727L52.8617 122.224C57.2374 109.17 48.1558 95.5547 34.5463 94.4657L33.8949 94.4227L22.8929 93.8719L24.4828 92.8729C37.4373 84.7211 37.6398 66.0053 25.0902 57.5233L24.4828 57.1278L22.8929 56.1268L33.8949 55.577C47.6459 54.889 57.0108 41.4663 53.0599 28.3973L52.8617 27.7753L52.0219 25.2714L67.0023 32.4032C77.0594 37.1909 89.0717 33.3378 94.4916 23.6757L94.7445 23.2118L99.9994 13.2772L105.255 23.2118Z" fill="url(#paint0_linear_311_113)" stroke="black" stroke-width="2.23353"/>
<path d="M69.5183 97.6751C68.5883 97.6751 67.8383 97.4201 67.2683 96.9101C66.6683 96.4301 66.3683 95.7851 66.3683 94.9751C66.3683 94.3751 66.5483 93.8801 66.9083 93.4901C67.2383 93.1001 67.6733 92.9051 68.2133 92.9051C68.7233 92.9051 69.0833 93.0551 69.2933 93.3551C69.5033 93.6551 69.6683 94.0001 69.7883 94.3901C69.9383 94.7801 70.1033 95.1251 70.2833 95.4251C70.4633 95.7251 70.7483 95.8751 71.1383 95.8751C71.7083 95.8751 72.1433 95.5451 72.4433 94.8851C72.7433 94.2251 72.8933 93.2951 72.8933 92.0951V58.5701C72.8933 57.9401 72.7883 57.5201 72.5783 57.3101C72.3983 57.1001 71.9933 56.9351 71.3633 56.8151L70.3283 56.6351C69.9383 56.5451 69.7433 56.3651 69.7433 56.0951C69.7433 55.7651 69.9683 55.6001 70.4183 55.6001H78.5633C79.0133 55.6001 79.2383 55.7651 79.2383 56.0951C79.2383 56.3651 79.0433 56.5451 78.6533 56.6351L77.6183 56.8151C76.9883 56.9351 76.5683 57.1001 76.3583 57.3101C76.1783 57.5201 76.0883 57.9401 76.0883 58.5701V86.0201C76.0883 89.6201 75.5033 92.4551 74.3333 94.5251C73.1633 96.6251 71.5583 97.6751 69.5183 97.6751ZM78.7183 88.0001C78.2683 88.0001 78.0433 87.8501 78.0433 87.5501C78.0433 87.2501 78.2533 87.0551 78.6733 86.9651L79.3483 86.8301C79.9483 86.7101 80.3983 86.4251 80.6983 85.9751C80.9983 85.4951 81.2533 84.8351 81.4633 83.9951L88.4383 55.8701C88.4983 55.5701 88.5883 55.3751 88.7083 55.2851C88.8583 55.1951 88.9933 55.1501 89.1133 55.1501C89.2633 55.1501 89.3983 55.1951 89.5183 55.2851C89.6683 55.3751 89.7733 55.5701 89.8333 55.8701L96.9433 84.4001C97.1533 85.2401 97.3933 85.8251 97.6633 86.1551C97.9333 86.4851 98.3533 86.7101 98.9233 86.8301L99.5983 86.9651C100.018 87.0551 100.228 87.2501 100.228 87.5501C100.228 87.8501 100.003 88.0001 99.5533 88.0001H91.8583C91.4383 88.0001 91.2283 87.8351 91.2283 87.5051C91.2283 87.1751 91.4833 86.9951 91.9933 86.9651L92.8483 86.8751C93.3583 86.8151 93.6733 86.6501 93.7933 86.3801C93.9433 86.1101 93.9433 85.6451 93.7933 84.9851L92.0833 78.0101C91.9033 77.2301 91.4083 76.8401 90.5983 76.8401H85.8733C85.0933 76.8401 84.5983 77.2301 84.3883 78.0101L82.8583 84.0401C82.4083 85.7501 82.8583 86.6951 84.2083 86.8751L84.8833 86.9651C85.3933 87.0551 85.6483 87.2351 85.6483 87.5051C85.6483 87.8351 85.4383 88.0001 85.0183 88.0001H78.7183ZM85.7383 75.4901H90.6883C91.1683 75.4901 91.3633 75.2351 91.2733 74.7251L88.3933 62.6651H88.1683L85.1533 74.7251C85.0633 75.2351 85.2583 75.4901 85.7383 75.4901ZM100.77 88.0001C100.35 88.0001 100.05 87.8801 99.8697 87.6401C99.7197 87.4001 99.7347 87.0851 99.9147 86.6951L112.92 57.6701C113.1 57.1901 112.935 56.9501 112.425 56.9501H107.925C106.815 56.9501 105.795 57.3101 104.865 58.0301C103.965 58.7201 103.215 60.0551 102.615 62.0351L101.94 64.2851C101.85 64.6751 101.64 64.8701 101.31 64.8701C100.86 64.8701 100.665 64.6151 100.725 64.1051L101.535 55.7351C101.595 55.0451 101.85 54.7001 102.3 54.7001C102.51 54.7001 102.705 54.7751 102.885 54.9251C103.065 55.0751 103.365 55.2251 103.785 55.3751C104.235 55.5251 104.94 55.6001 105.9 55.6001H115.845C116.265 55.6001 116.55 55.7201 116.7 55.9601C116.88 56.1701 116.88 56.4851 116.7 56.9051L103.695 85.9301C103.515 86.4101 103.68 86.6501 104.19 86.6501H109.185C110.025 86.6501 110.85 86.5301 111.66 86.2901C112.47 86.0501 113.19 85.5551 113.82 84.8051C114.45 84.0251 114.915 82.8701 115.215 81.3401L115.8 78.3251C115.89 77.9351 116.115 77.7401 116.475 77.7401C116.895 77.7401 117.075 77.9951 117.015 78.5051L116.475 86.9651C116.415 87.6551 116.04 88.0001 115.35 88.0001H100.77ZM119.524 88.0001C119.104 88.0001 118.804 87.8801 118.624 87.6401C118.474 87.4001 118.489 87.0851 118.669 86.6951L131.674 57.6701C131.854 57.1901 131.689 56.9501 131.179 56.9501H126.679C125.569 56.9501 124.549 57.3101 123.619 58.0301C122.719 58.7201 121.969 60.0551 121.369 62.0351L120.694 64.2851C120.604 64.6751 120.394 64.8701 120.064 64.8701C119.614 64.8701 119.419 64.6151 119.479 64.1051L120.289 55.7351C120.349 55.0451 120.604 54.7001 121.054 54.7001C121.264 54.7001 121.459 54.7751 121.639 54.9251C121.819 55.0751 122.119 55.2251 122.539 55.3751C122.989 55.5251 123.694 55.6001 124.654 55.6001H134.599C135.019 55.6001 135.304 55.7201 135.454 55.9601C135.634 56.1701 135.634 56.4851 135.454 56.9051L122.449 85.9301C122.269 86.4101 122.434 86.6501 122.944 86.6501H127.939C128.779 86.6501 129.604 86.5301 130.414 86.2901C131.224 86.0501 131.944 85.5551 132.574 84.8051C133.204 84.0251 133.669 82.8701 133.969 81.3401L134.554 78.3251C134.644 77.9351 134.869 77.7401 135.229 77.7401C135.649 77.7401 135.829 77.9951 135.769 78.5051L135.229 86.9651C135.169 87.6551 134.794 88.0001 134.104 88.0001H119.524Z" fill="black"/>
<defs>
<linearGradient id="paint0_linear_311_113" x1="122.697" y1="10.8895" x2="30.0292" y2="99.2551" gradientUnits="userSpaceOnUse">
<stop stop-color="#E9F1FF"/>
<stop offset="1" stop-color="#8EACFF"/>
</linearGradient>
</defs>
</svg>
