<svg width="200" height="150" viewBox="0 0 200 150" fill="none" xmlns="http://www.w3.org/2000/svg">
<path d="M97.0635 22.7939C98.7732 21.8345 100.836 21.7748 102.59 22.6143L102.937 22.7949L149.008 48.6484L149.023 48.6562L188.095 69.7188C192.233 71.9495 192.298 77.8281 188.289 80.1729L188.095 80.2812L149.023 101.344L149.008 101.352L102.937 127.205C101.227 128.165 99.164 128.225 97.4102 127.386L97.0635 127.205L50.9922 101.352L50.9766 101.344L11.9053 80.2812C7.76709 78.0505 7.7021 72.1719 11.7109 69.8271L11.9053 69.7188L50.9766 48.6562L50.9922 48.6484L97.0635 22.7949V22.7939Z" fill="url(#paint0_linear_313_124)" stroke="black" stroke-width="2"/>
<path d="M55.6721 90.3769C55.2221 90.3769 54.9971 90.2119 54.9971 89.8819C54.9971 89.6119 55.1921 89.4319 55.5821 89.3419L56.6171 89.1619C57.2471 89.0419 57.6521 88.8769 57.8321 88.6669C58.0421 88.4569 58.1471 88.0369 58.1471 87.4069V60.9469C58.1471 60.3169 58.0421 59.8969 57.8321 59.6869C57.6521 59.4769 57.2471 59.3119 56.6171 59.1919L55.5821 59.0119C55.1921 58.9219 54.9971 58.7419 54.9971 58.4719C54.9971 58.1419 55.2221 57.9769 55.6721 57.9769H63.9071C64.3571 57.9769 64.5821 58.1569 64.5821 58.5169C64.5821 58.7869 64.4171 58.9519 64.0871 59.0119L62.8721 59.1919C62.2421 59.2819 61.8221 59.4469 61.6121 59.6869C61.4321 59.9269 61.3421 60.3619 61.3421 60.9919V86.1919C61.3421 87.2719 61.6421 88.0519 62.2421 88.5319C62.8721 89.0119 63.6521 89.2519 64.5821 89.2519C65.2721 89.2519 65.9771 89.1169 66.6971 88.8469C67.4471 88.5469 68.1221 88.0069 68.7221 87.2269C69.3221 86.4169 69.7721 85.2469 70.0721 83.7169L70.6571 80.7019C70.7471 80.3119 70.9721 80.1169 71.3321 80.1169C71.7521 80.1169 71.9321 80.3719 71.8721 80.8819L71.3321 89.3419C71.2721 90.0319 70.8971 90.3769 70.2071 90.3769H55.6721ZM72.146 90.3769C71.696 90.3769 71.471 90.2269 71.471 89.9269C71.471 89.6269 71.681 89.4319 72.101 89.3419L72.776 89.2069C73.376 89.0869 73.826 88.8019 74.126 88.3519C74.426 87.8719 74.681 87.2119 74.891 86.3719L81.866 58.2469C81.926 57.9469 82.016 57.7519 82.136 57.6619C82.286 57.5719 82.421 57.5269 82.541 57.5269C82.691 57.5269 82.826 57.5719 82.946 57.6619C83.096 57.7519 83.201 57.9469 83.261 58.2469L90.371 86.7769C90.581 87.6169 90.821 88.2019 91.091 88.5319C91.361 88.8619 91.781 89.0869 92.351 89.2069L93.026 89.3419C93.446 89.4319 93.656 89.6269 93.656 89.9269C93.656 90.2269 93.431 90.3769 92.981 90.3769H85.286C84.866 90.3769 84.656 90.2119 84.656 89.8819C84.656 89.5519 84.911 89.3719 85.421 89.3419L86.276 89.2519C86.786 89.1919 87.101 89.0269 87.221 88.7569C87.371 88.4869 87.371 88.0219 87.221 87.3619L85.511 80.3869C85.331 79.6069 84.836 79.2169 84.026 79.2169H79.301C78.521 79.2169 78.026 79.6069 77.816 80.3869L76.286 86.4169C75.836 88.1269 76.286 89.0719 77.636 89.2519L78.311 89.3419C78.821 89.4319 79.076 89.6119 79.076 89.8819C79.076 90.2119 78.866 90.3769 78.446 90.3769H72.146ZM79.166 77.8669H84.116C84.596 77.8669 84.791 77.6119 84.701 77.1019L81.821 65.0419H81.596L78.581 77.1019C78.491 77.6119 78.686 77.8669 79.166 77.8669ZM95.8178 90.3769C95.3678 90.3769 95.1428 90.2119 95.1428 89.8819C95.1428 89.5519 95.3378 89.3719 95.7278 89.3419L97.7528 89.0269C98.3528 88.9369 98.7578 88.7869 98.9678 88.5769C99.1778 88.3369 99.2828 87.9019 99.2828 87.2719V60.2719C99.2828 59.8519 99.1928 59.5519 99.0128 59.3719C98.8328 59.1919 98.4578 59.1019 97.8878 59.1019C96.7778 59.1019 95.6828 59.5819 94.6028 60.5419C93.5228 61.5019 92.8178 63.0469 92.4878 65.1769L92.2628 66.6619C92.2028 67.0519 91.9928 67.2469 91.6328 67.2469C91.1828 67.2469 90.9878 66.9919 91.0478 66.4819L91.4528 58.3369C91.5128 57.6469 91.7828 57.3019 92.2628 57.3019C92.4728 57.3019 92.6678 57.3619 92.8478 57.4819C93.0278 57.5719 93.3278 57.6769 93.7478 57.7969C94.1978 57.9169 94.9028 57.9769 95.8628 57.9769H105.898C106.858 57.9769 107.548 57.9169 107.968 57.7969C108.418 57.6769 108.733 57.5719 108.913 57.4819C109.123 57.3619 109.318 57.3019 109.498 57.3019C109.978 57.3019 110.248 57.6469 110.308 58.3369L110.713 66.4819C110.773 66.9919 110.578 67.2469 110.128 67.2469C109.768 67.2469 109.558 67.0519 109.498 66.6619L109.273 65.1769C108.973 63.0469 108.283 61.5019 107.203 60.5419C106.123 59.5819 105.013 59.1019 103.873 59.1019C103.303 59.1019 102.928 59.1919 102.748 59.3719C102.568 59.5519 102.478 59.8519 102.478 60.2719V87.2719C102.478 87.9019 102.583 88.3369 102.793 88.5769C103.033 88.7869 103.438 88.9369 104.008 89.0269L106.033 89.3419C106.423 89.3719 106.618 89.5519 106.618 89.8819C106.618 90.2119 106.393 90.3769 105.943 90.3769H95.8178ZM112.33 90.3769C111.88 90.3769 111.655 90.2119 111.655 89.8819C111.655 89.6119 111.85 89.4319 112.24 89.3419L113.275 89.1619C113.905 89.0419 114.31 88.8769 114.49 88.6669C114.7 88.4569 114.805 88.0369 114.805 87.4069V60.9469C114.805 60.3169 114.7 59.8969 114.49 59.6869C114.31 59.4769 113.905 59.3119 113.275 59.1919L112.24 59.0119C111.85 58.9219 111.655 58.7419 111.655 58.4719C111.655 58.1419 111.88 57.9769 112.33 57.9769H120.475C120.925 57.9769 121.15 58.1419 121.15 58.4719C121.15 58.7419 120.955 58.9219 120.565 59.0119L119.53 59.1919C118.9 59.3119 118.48 59.4769 118.27 59.6869C118.09 59.8969 118 60.3169 118 60.9469V87.4069C118 88.0369 118.09 88.4569 118.27 88.6669C118.48 88.8769 118.9 89.0419 119.53 89.1619L120.565 89.3419C120.955 89.4319 121.15 89.6119 121.15 89.8819C121.15 90.2119 120.925 90.3769 120.475 90.3769H112.33ZM140.861 90.7819C140.381 90.7819 139.976 90.4219 139.646 89.7019L127.451 63.2419C127.361 63.0319 127.241 62.9419 127.091 62.9719C126.971 63.0019 126.911 63.1369 126.911 63.3769V86.5069C126.911 87.3469 127.046 87.9919 127.316 88.4419C127.616 88.8619 128.141 89.1319 128.891 89.2519L129.476 89.3419C129.866 89.3719 130.061 89.5519 130.061 89.8819C130.061 90.2119 129.836 90.3769 129.386 90.3769H122.951C122.501 90.3769 122.276 90.2119 122.276 89.8819C122.276 89.5519 122.471 89.3719 122.861 89.3419L123.446 89.2519C124.226 89.1319 124.766 88.8619 125.066 88.4419C125.366 87.9919 125.516 87.3469 125.516 86.5069V60.9469C125.516 60.3169 125.411 59.8969 125.201 59.6869C125.021 59.4769 124.586 59.3119 123.896 59.1919L122.861 59.0119C122.471 58.9219 122.276 58.7419 122.276 58.4719C122.276 58.1419 122.501 57.9769 122.951 57.9769H127.766C128.516 57.9769 129.041 58.3069 129.341 58.9669L139.961 82.3219C140.051 82.5019 140.156 82.5769 140.276 82.5469C140.426 82.5169 140.501 82.4119 140.501 82.2319V61.8469C140.501 60.8869 140.336 60.2269 140.006 59.8669C139.676 59.4769 139.256 59.2369 138.746 59.1469L137.936 59.0119C137.546 58.9219 137.351 58.7419 137.351 58.4719C137.351 58.1419 137.576 57.9769 138.026 57.9769H144.461C144.911 57.9769 145.136 58.1419 145.136 58.4719C145.136 58.8019 144.941 58.9819 144.551 59.0119L143.966 59.1019C143.186 59.2219 142.646 59.4769 142.346 59.8669C142.046 60.2269 141.896 60.8869 141.896 61.8469V89.3419C141.896 89.8819 141.791 90.2569 141.581 90.4669C141.401 90.6769 141.161 90.7819 140.861 90.7819Z" fill="black"/>
<defs>
<linearGradient id="paint0_linear_313_124" x1="151.966" y1="26.201" x2="48.0772" y2="148.422" gradientUnits="userSpaceOnUse">
<stop stop-color="#FAAFBE"/>
<stop offset="1" stop-color="#F3654F"/>
</linearGradient>
</defs>
</svg>
