<svg width="200" height="150" viewBox="0 0 200 150" fill="none" xmlns="http://www.w3.org/2000/svg">
<mask id="path-1-inside-1_311_119" fill="white">
<path fill-rule="evenodd" clip-rule="evenodd" d="M186.347 45.0932C191.457 50.315 184.703 56.923 172.854 63.6504C188.664 65.874 200 69.5958 200 75.825C200 82.2826 187.818 86.0455 171.098 88.2382C183.63 94.7714 191.154 101.096 186.602 105.825C181.371 111.262 165.122 109.462 146.258 104.95C155.188 117.113 159.737 127.304 150.899 128.664C141.936 130.043 128.358 120.931 114.885 109.202C112.993 123.307 108.985 135 100.498 135C92.0119 135 88.0043 123.307 86.1118 109.203C72.6389 120.931 59.0607 130.043 50.098 128.664C41.7932 127.387 45.3088 118.311 53.1719 107.129C35.0335 111.22 19.4161 112.446 13.6528 106.557C8.54255 101.335 15.2975 94.7273 27.1466 87.9998C11.3363 85.7762 -5.96046e-07 82.0544 0 75.8251C6.10948e-07 69.3676 12.1822 65.6047 28.902 63.412C16.3701 56.8789 8.84635 50.5548 13.3974 45.8252C18.8797 40.1278 36.4629 42.3782 56.4743 47.3687C46.4346 34.2051 40.7034 22.7811 50.0978 21.3357C59.0606 19.9568 72.6389 29.0687 86.1119 40.7977C88.0044 26.6927 92.012 15 100.499 15C108.985 15 112.993 26.6927 114.885 40.7977C128.358 29.0687 141.936 19.9568 150.899 21.3358C159.621 22.6777 155.306 32.6206 146.609 44.5714C164.84 40.44 180.561 39.1802 186.347 45.0932Z"/>
</mask>
<path fill-rule="evenodd" clip-rule="evenodd" d="M186.347 45.0932C191.457 50.315 184.703 56.923 172.854 63.6504C188.664 65.874 200 69.5958 200 75.825C200 82.2826 187.818 86.0455 171.098 88.2382C183.63 94.7714 191.154 101.096 186.602 105.825C181.371 111.262 165.122 109.462 146.258 104.95C155.188 117.113 159.737 127.304 150.899 128.664C141.936 130.043 128.358 120.931 114.885 109.202C112.993 123.307 108.985 135 100.498 135C92.0119 135 88.0043 123.307 86.1118 109.203C72.6389 120.931 59.0607 130.043 50.098 128.664C41.7932 127.387 45.3088 118.311 53.1719 107.129C35.0335 111.22 19.4161 112.446 13.6528 106.557C8.54255 101.335 15.2975 94.7273 27.1466 87.9998C11.3363 85.7762 -5.96046e-07 82.0544 0 75.8251C6.10948e-07 69.3676 12.1822 65.6047 28.902 63.412C16.3701 56.8789 8.84635 50.5548 13.3974 45.8252C18.8797 40.1278 36.4629 42.3782 56.4743 47.3687C46.4346 34.2051 40.7034 22.7811 50.0978 21.3357C59.0606 19.9568 72.6389 29.0687 86.1119 40.7977C88.0044 26.6927 92.012 15 100.499 15C108.985 15 112.993 26.6927 114.885 40.7977C128.358 29.0687 141.936 19.9568 150.899 21.3358C159.621 22.6777 155.306 32.6206 146.609 44.5714C164.84 40.44 180.561 39.1802 186.347 45.0932Z" fill="url(#paint0_linear_311_119)"/>
<path d="M172.854 63.6504L171.866 61.9112L166.756 64.8125L172.575 65.6309L172.854 63.6504ZM186.347 45.0932L184.918 46.492L186.347 45.0932ZM171.098 88.2382L170.837 86.2552L164.549 87.0799L170.173 90.0117L171.098 88.2382ZM186.602 105.825L185.161 104.438L186.602 105.825ZM146.258 104.95L146.724 103.004L141.418 101.735L144.646 106.133L146.258 104.95ZM150.899 128.664L151.203 130.641L150.899 128.664ZM114.885 109.202L116.198 107.694L113.397 105.255L112.903 108.936L114.885 109.202ZM86.1118 109.203L88.0941 108.937L87.6001 105.255L84.7986 107.694L86.1118 109.203ZM50.098 128.664L50.4021 126.688L50.098 128.664ZM53.1719 107.129L54.8079 108.279L57.7913 104.036L52.7317 105.178L53.1719 107.129ZM13.6528 106.557L12.2234 107.956L13.6528 106.557ZM27.1466 87.9998L28.1341 89.7391L33.2442 86.8377L27.4251 86.0193L27.1466 87.9998ZM0 75.8251H2H0ZM28.902 63.412L29.1621 65.395L35.4504 64.5703L29.8265 61.6385L28.902 63.412ZM13.3974 45.8252L14.8386 47.212H14.8386L13.3974 45.8252ZM56.4743 47.3687L55.9904 49.3093L61.5217 50.6887L58.0646 46.1558L56.4743 47.3687ZM50.0978 21.3357L49.7937 19.359L50.0978 21.3357ZM86.1119 40.7977L84.7987 42.3061L87.6002 44.745L88.0942 41.0636L86.1119 40.7977ZM100.499 15V17V15ZM114.885 40.7977L112.903 41.0636L113.397 44.745L116.198 42.3061L114.885 40.7977ZM150.899 21.3358L151.203 19.359L150.899 21.3358ZM146.609 44.5714L144.992 43.3946L141.86 47.6983L147.051 46.522L146.609 44.5714ZM173.841 65.3896C179.801 62.006 184.736 58.5189 187.518 55.061C188.918 53.321 189.918 51.4122 190.056 49.3861C190.201 47.268 189.385 45.3381 187.777 43.6943L184.918 46.492C185.864 47.4591 186.12 48.3134 186.066 49.1132C186.005 50.0049 185.533 51.1477 184.402 52.5534C182.122 55.3868 177.756 58.5675 171.866 61.9112L173.841 65.3896ZM202 75.825C202 73.5889 200.961 71.6977 199.368 70.1659C197.806 68.6634 195.64 67.4285 193.119 66.3871C188.072 64.3022 181.085 62.7884 173.132 61.6699L172.575 65.6309C180.433 66.736 187.019 68.195 191.592 70.0841C193.881 71.0298 195.538 72.0323 196.595 73.049C197.622 74.0366 198 74.9465 198 75.825H202ZM171.358 90.2213C179.763 89.119 187.184 87.6054 192.551 85.4919C195.231 84.4369 197.532 83.1822 199.192 81.6503C200.882 80.0906 202 78.1462 202 75.825H198C198 76.7327 197.596 77.6803 196.479 78.7108C195.332 79.7692 193.542 80.8031 191.086 81.77C186.183 83.7006 179.152 85.1648 170.837 86.2552L171.358 90.2213ZM188.044 107.212C189.583 105.612 190.223 103.688 189.826 101.623C189.459 99.7113 188.25 97.9335 186.697 96.3206C183.579 93.0834 178.317 89.7462 172.022 86.4648L170.173 90.0117C176.411 93.2634 181.176 96.3549 183.816 99.0954C185.141 100.471 185.743 101.57 185.898 102.378C186.024 103.034 185.898 103.673 185.161 104.438L188.044 107.212ZM145.793 106.895C155.269 109.161 164.189 110.773 171.448 111.116C175.077 111.287 178.37 111.147 181.147 110.575C183.905 110.008 186.345 108.977 188.044 107.212L185.161 104.438C184.244 105.391 182.691 106.174 180.342 106.657C178.011 107.137 175.083 107.283 171.637 107.12C164.748 106.795 156.111 105.25 146.724 103.004L145.793 106.895ZM144.646 106.133C149.104 112.205 152.268 117.534 153.311 121.381C153.834 123.31 153.722 124.504 153.374 125.192C153.084 125.764 152.41 126.408 150.595 126.687L151.203 130.641C153.807 130.24 155.879 129.1 156.943 126.999C157.948 125.013 157.798 122.645 157.172 120.335C155.917 115.706 152.342 109.857 147.871 103.766L144.646 106.133ZM150.595 126.687C146.828 127.267 141.708 125.646 135.582 122.116C129.544 118.637 122.892 113.522 116.198 107.694L113.572 110.711C120.351 116.612 127.225 121.917 133.585 125.582C139.856 129.195 146.008 131.44 151.203 130.641L150.595 126.687ZM100.498 137C105.873 137 109.526 133.233 111.96 128.271C114.403 123.292 115.912 116.586 116.867 109.468L112.903 108.936C111.965 115.924 110.524 122.117 108.369 126.51C106.205 130.92 103.61 133 100.498 133V137ZM84.1296 109.469C85.0845 116.586 86.5936 123.292 89.0368 128.272C91.4714 133.234 95.1235 137 100.498 137V133C97.3868 133 94.7919 130.92 92.6279 126.51C90.4726 122.117 89.0316 115.924 88.0941 108.937L84.1296 109.469ZM49.7938 130.641C54.9892 131.44 61.1406 129.195 67.412 125.582C73.7722 121.917 80.6463 116.612 87.425 110.711L84.7986 107.694C78.1045 113.522 71.4529 118.637 65.4151 122.116C59.2886 125.646 54.1695 127.267 50.4021 126.688L49.7938 130.641ZM51.5358 105.978C47.5961 111.581 44.533 116.933 43.6167 121.19C43.1551 123.334 43.1662 125.529 44.2491 127.354C45.3707 129.243 47.3547 130.266 49.7938 130.641L50.4021 126.688C48.6889 126.424 47.998 125.833 47.6888 125.312C47.3409 124.726 47.1651 123.713 47.5272 122.031C48.2583 118.635 50.8845 113.858 54.8079 108.279L51.5358 105.978ZM12.2234 107.956C15.7285 111.538 21.842 112.668 28.7954 112.586C35.8924 112.501 44.4886 111.138 53.612 109.08L52.7317 105.178C43.7167 107.211 35.435 108.507 28.748 108.586C21.9173 108.667 17.3405 107.466 15.0822 105.158L12.2234 107.956ZM26.1591 86.2606C20.1994 89.6443 15.2641 93.1314 12.4817 96.5894C11.0817 98.3293 10.0823 100.238 9.94372 102.264C9.79885 104.382 10.6148 106.312 12.2234 107.956L15.0822 105.158C14.1358 104.191 13.8797 103.337 13.9344 102.537C13.9954 101.645 14.4671 100.503 15.5982 99.0969C17.878 96.2635 22.2447 93.0828 28.1341 89.7391L26.1591 86.2606ZM-2 75.8251C-2 78.0613 -0.960739 79.9525 0.631995 81.4843C2.19436 82.9868 4.35992 84.2218 6.88087 85.2631C11.9282 87.3481 18.9152 88.8618 26.868 89.9803L27.4251 86.0193C19.5677 84.9142 12.9814 83.4553 8.40802 81.5661C6.11862 80.6204 4.46195 79.618 3.40468 78.6012C2.37778 77.6136 2 76.7036 2 75.8251H-2ZM28.6419 61.429C20.2368 62.5313 12.8161 64.0449 7.44837 66.1583C4.76872 67.2134 2.46813 68.4681 0.808302 69.9999C-0.881721 71.5596 -2 73.504 -2 75.8251H2C2 74.9175 2.4045 73.9699 3.52113 72.9394C4.66796 71.881 6.45791 70.8472 8.91379 69.8802C13.8171 67.9496 20.8474 66.4854 29.1621 65.395L28.6419 61.429ZM11.9563 44.4385C10.417 46.0381 9.77717 47.9625 10.1736 50.0269C10.5408 51.9391 11.7497 53.7169 13.3031 55.3297C16.4208 58.5669 21.683 61.9041 27.9775 65.1855L29.8265 61.6385C23.5891 58.3868 18.8235 55.2954 16.1841 52.5549C14.8589 51.1789 14.257 50.0806 14.1018 49.2726C13.9759 48.6169 14.1023 47.9771 14.8386 47.212L11.9563 44.4385ZM56.9582 45.4281C46.9111 42.9226 37.375 41.0784 29.6123 40.5929C25.7327 40.3503 22.2143 40.441 19.2584 40.9953C16.3275 41.5448 13.7348 42.5901 11.9563 44.4385L14.8386 47.212C15.8011 46.2116 17.4623 45.4017 19.9955 44.9268C22.5036 44.4565 25.6597 44.3535 29.3626 44.5851C36.7649 45.0481 46.0261 46.8244 55.9904 49.3093L56.9582 45.4281ZM58.0646 46.1558C53.0504 39.5815 49.3002 33.6705 47.9013 29.3427C47.1943 27.1553 47.2164 25.7546 47.5606 24.9421C47.8302 24.3057 48.4849 23.6074 50.4019 23.3125L49.7937 19.359C47.0135 19.7867 44.8617 21.0584 43.8774 23.3819C42.9678 25.5292 43.2888 28.0783 44.0952 30.573C45.7232 35.6095 49.8585 41.9923 54.884 48.5816L58.0646 46.1558ZM50.4019 23.3125C54.1693 22.7328 59.2885 24.3542 65.4151 27.8841C71.453 31.363 78.1045 36.4785 84.7987 42.3061L87.4251 39.2892C80.6463 33.3879 73.7722 28.0829 67.412 24.4183C61.1405 20.8048 54.9891 18.5597 49.7937 19.359L50.4019 23.3125ZM100.499 13C95.1236 13 91.4715 16.7665 89.0369 21.7285C86.5937 26.7083 85.0846 33.4143 84.1297 40.5317L88.0942 41.0636C89.0317 34.0761 90.4727 27.8832 92.628 23.4904C94.792 19.0798 97.3869 17 100.499 17V13ZM116.867 40.5317C115.913 33.4143 114.403 26.7083 111.96 21.7285C109.526 16.7665 105.874 13 100.499 13V17C103.61 17 106.205 19.0798 108.369 23.4904C110.524 27.8832 111.965 34.0761 112.903 41.0636L116.867 40.5317ZM151.203 19.359C146.008 18.5597 139.857 20.8048 133.585 24.4183C127.225 28.0829 120.351 33.3879 113.572 39.2892L116.198 42.3061C122.893 36.4785 129.544 31.363 135.582 27.8842C141.709 24.3542 146.828 22.7329 150.595 23.3125L151.203 19.359ZM148.226 45.7483C152.581 39.7632 156.043 34.0237 157.222 29.4774C157.811 27.2046 157.926 24.8737 156.902 22.9227C155.824 20.8678 153.771 19.7541 151.203 19.359L150.595 23.3125C152.388 23.5884 153.066 24.2208 153.36 24.7811C153.709 25.4452 153.836 26.5986 153.35 28.4731C152.378 32.2215 149.333 37.4289 144.992 43.3946L148.226 45.7483ZM187.777 43.6943C184.258 40.0988 178.11 38.9728 171.118 39.0658C163.981 39.1608 155.337 40.543 146.167 42.6209L147.051 46.522C156.113 44.4685 164.444 43.155 171.172 43.0655C178.044 42.974 182.65 44.1746 184.918 46.492L187.777 43.6943Z" fill="black" mask="url(#path-1-inside-1_311_119)"/>
<path d="M59.0962 89.9251C56.7762 89.9251 55.2962 88.4051 54.6562 85.3651L53.7362 80.9251C53.4428 79.4851 53.1095 78.3917 52.7362 77.6451C52.3895 76.8984 51.8962 76.3917 51.2562 76.1251C50.6428 75.8584 49.7895 75.7251 48.6962 75.7251C48.3228 75.7251 48.0295 75.8317 47.8162 76.0451C47.6028 76.2317 47.4962 76.4717 47.4962 76.7651V86.7651C47.4962 87.3251 47.6028 87.7117 47.8162 87.9251C48.0295 88.1117 48.5095 88.2717 49.2562 88.4051L50.7362 88.6451C51.0295 88.6984 51.1762 88.8451 51.1762 89.0851C51.1762 89.4051 50.9762 89.5651 50.5762 89.5651H42.4562C42.0562 89.5651 41.8562 89.4184 41.8562 89.1251C41.8562 88.8851 42.0295 88.7251 42.3762 88.6451L43.2962 88.4851C43.8562 88.3784 44.2162 88.2317 44.3762 88.0451C44.5628 87.8584 44.6562 87.4851 44.6562 86.9251V63.4051C44.6562 62.8451 44.5628 62.4717 44.3762 62.2851C44.2162 62.0984 43.8562 61.9517 43.2962 61.8451L42.3762 61.6851C42.0295 61.6051 41.8562 61.4451 41.8562 61.2051C41.8562 60.9117 42.0562 60.7651 42.4562 60.7651H50.5762C52.1495 60.7651 53.5495 61.0717 54.7762 61.6851C56.0028 62.2984 56.9628 63.1517 57.6562 64.2451C58.3495 65.3117 58.6962 66.5517 58.6962 67.9651C58.6962 69.6451 58.1895 71.1651 57.1762 72.5251C56.1628 73.8584 54.8828 74.8051 53.3362 75.3651C53.1495 75.4184 53.0428 75.5117 53.0162 75.6451C53.0162 75.7517 53.1095 75.8451 53.2962 75.9251C54.1495 76.3251 54.8162 76.8851 55.2962 77.6051C55.8028 78.3251 56.1895 79.2851 56.4562 80.4851L57.3362 84.5651C57.6295 85.9517 57.9762 86.9384 58.3762 87.5251C58.7762 88.1117 59.2828 88.4051 59.8962 88.4051C60.1095 88.4051 60.2962 88.3784 60.4562 88.3251C60.6428 88.2451 60.8695 88.1117 61.1362 87.9251C61.3495 87.7917 61.5495 87.7651 61.7362 87.8451C61.9228 87.8984 62.0162 88.0317 62.0162 88.2451C62.0162 88.6984 61.7228 89.0984 61.1362 89.4451C60.5495 89.7651 59.8695 89.9251 59.0962 89.9251ZM50.1762 74.7251C51.9895 74.7251 53.3628 74.1251 54.2962 72.9251C55.2295 71.6984 55.6962 70.0717 55.6962 68.0451C55.6962 66.0717 55.1495 64.5384 54.0562 63.4451C52.9895 62.3251 51.5095 61.7651 49.6162 61.7651C48.2028 61.7651 47.4962 62.2984 47.4962 63.3651V72.5251C47.4962 73.9917 48.3895 74.7251 50.1762 74.7251ZM62.0952 89.5651C61.6952 89.5651 61.4952 89.4184 61.4952 89.1251C61.4952 88.8851 61.6685 88.7251 62.0152 88.6451L62.9352 88.4851C63.4952 88.3784 63.8552 88.2317 64.0152 88.0451C64.2019 87.8584 64.2952 87.4851 64.2952 86.9251V63.4051C64.2952 62.8451 64.2019 62.4717 64.0152 62.2851C63.8552 62.0984 63.4952 61.9517 62.9352 61.8451L62.0152 61.6851C61.6685 61.6051 61.4952 61.4451 61.4952 61.2051C61.4952 60.9117 61.6952 60.7651 62.0952 60.7651H75.5352C76.1485 60.7651 76.4819 61.0717 76.5352 61.6851L76.8552 68.3251C76.9086 68.7784 76.7352 69.0051 76.3352 69.0051C76.0152 69.0051 75.8286 68.8317 75.7752 68.4851L75.5352 67.0051C75.2419 65.1917 74.6419 63.8717 73.7352 63.0451C72.8285 62.1917 71.5752 61.7651 69.9752 61.7651C68.9085 61.7651 68.1619 61.9251 67.7352 62.2451C67.3352 62.5384 67.1352 63.0717 67.1352 63.8451V73.4851C67.1352 73.8584 67.3219 74.0451 67.6952 74.0451H69.6952C70.8685 74.0451 71.5886 73.4184 71.8552 72.1651L72.2552 70.1651C72.3619 69.7651 72.5886 69.5917 72.9352 69.6451C73.2285 69.6984 73.3752 69.9251 73.3752 70.3251V79.3251C73.3752 79.7251 73.2285 79.9517 72.9352 80.0051C72.5886 80.0584 72.3619 79.8851 72.2552 79.4851L71.8552 77.5251C71.6686 76.5917 71.4019 75.9784 71.0552 75.6851C70.7352 75.3917 70.2685 75.2451 69.6552 75.2451H67.6952C67.3219 75.2451 67.1352 75.4317 67.1352 75.8051V85.8451C67.1352 86.8051 67.3752 87.4984 67.8552 87.9251C68.3619 88.3517 69.2685 88.5651 70.5752 88.5651C71.9085 88.5651 73.0419 88.2317 73.9752 87.5651C74.9352 86.8717 75.6019 85.5917 75.9752 83.7251L76.4552 81.3651C76.5352 81.0184 76.7352 80.8451 77.0552 80.8451C77.4286 80.8451 77.5886 81.0717 77.5352 81.5251L77.1352 88.6451C77.0819 89.2584 76.7486 89.5651 76.1352 89.5651H62.0952ZM90.1002 89.9251C87.9402 89.9251 86.1136 89.3117 84.6202 88.0851C83.1269 86.8584 81.9936 85.1384 81.2202 82.9251C80.4469 80.6851 80.0602 78.0451 80.0602 75.0051C80.0602 72.0717 80.5135 69.5117 81.4202 67.3251C82.3269 65.1117 83.5669 63.4051 85.1402 62.2051C86.7402 60.9784 88.5669 60.3651 90.6202 60.3651C91.6602 60.3651 92.6069 60.4717 93.4602 60.6851C94.3136 60.8717 95.0602 61.1251 95.7002 61.4451C96.0469 61.6317 96.2202 61.9117 96.2202 62.2851L96.3402 68.3651C96.3402 68.8184 96.1802 69.0451 95.8602 69.0451C95.5669 69.0451 95.3802 68.8717 95.3002 68.5251L94.9802 67.3251C94.3936 65.1117 93.7269 63.5917 92.9802 62.7651C92.2336 61.9384 91.2069 61.5251 89.9002 61.5251C87.9536 61.5251 86.3402 62.6851 85.0602 65.0051C83.8069 67.2984 83.1802 70.6317 83.1802 75.0051C83.1802 79.5117 83.8202 82.9517 85.1002 85.3251C86.4069 87.6717 88.0736 88.8451 90.1002 88.8451C91.1936 88.8451 92.0202 88.6051 92.5802 88.1251C93.1402 87.6451 93.4202 86.7517 93.4202 85.4451V76.6851C93.4202 76.1251 93.3269 75.7384 93.1402 75.5251C92.9802 75.3117 92.6202 75.1784 92.0602 75.1251L90.5002 74.9651C90.1536 74.9384 89.9802 74.7784 89.9802 74.4851C89.9802 74.1917 90.1802 74.0451 90.5802 74.0451H97.9002C98.3002 74.0451 98.5002 74.2051 98.5002 74.5251C98.5002 74.7651 98.3536 74.9117 98.0602 74.9651L97.4602 75.0451C96.8736 75.1251 96.5269 75.2851 96.4202 75.5251C96.3136 75.7651 96.2602 76.1651 96.2602 76.7251V87.5651C96.2602 87.8584 96.1802 88.0984 96.0202 88.2851C95.8602 88.4451 95.5802 88.6317 95.1802 88.8451C94.5402 89.1651 93.8069 89.4184 92.9802 89.6051C92.1536 89.8184 91.1936 89.9251 90.1002 89.9251ZM110.56 89.9251C108.4 89.9251 106.573 89.3117 105.08 88.0851C103.586 86.8584 102.453 85.1384 101.68 82.9251C100.906 80.6851 100.52 78.0451 100.52 75.0051C100.52 72.0717 100.973 69.5117 101.88 67.3251C102.786 65.1117 104.026 63.4051 105.6 62.2051C107.2 60.9784 109.026 60.3651 111.08 60.3651C112.12 60.3651 113.066 60.4717 113.92 60.6851C114.773 60.8717 115.52 61.1251 116.16 61.4451C116.506 61.6317 116.68 61.9117 116.68 62.2851L116.8 68.3651C116.8 68.8184 116.64 69.0451 116.32 69.0451C116.026 69.0451 115.84 68.8717 115.76 68.5251L115.44 67.3251C114.853 65.1117 114.186 63.5917 113.44 62.7651C112.693 61.9384 111.666 61.5251 110.36 61.5251C108.413 61.5251 106.8 62.6851 105.52 65.0051C104.266 67.2984 103.64 70.6317 103.64 75.0051C103.64 79.5117 104.28 82.9517 105.56 85.3251C106.866 87.6717 108.533 88.8451 110.56 88.8451C111.653 88.8451 112.48 88.6051 113.04 88.1251C113.6 87.6451 113.88 86.7517 113.88 85.4451V76.6851C113.88 76.1251 113.786 75.7384 113.6 75.5251C113.44 75.3117 113.08 75.1784 112.52 75.1251L110.96 74.9651C110.613 74.9384 110.44 74.7784 110.44 74.4851C110.44 74.1917 110.64 74.0451 111.04 74.0451H118.36C118.76 74.0451 118.96 74.2051 118.96 74.5251C118.96 74.7651 118.813 74.9117 118.52 74.9651L117.92 75.0451C117.333 75.1251 116.986 75.2851 116.88 75.5251C116.773 75.7651 116.72 76.1651 116.72 76.7251V87.5651C116.72 87.8584 116.64 88.0984 116.48 88.2851C116.32 88.4451 116.04 88.6317 115.64 88.8451C115 89.1651 114.266 89.4184 113.44 89.6051C112.613 89.8184 111.653 89.9251 110.56 89.9251ZM119.259 89.5651C118.859 89.5651 118.659 89.4317 118.659 89.1651C118.659 88.8984 118.846 88.7251 119.219 88.6451L119.819 88.5251C120.352 88.4184 120.752 88.1651 121.019 87.7651C121.286 87.3384 121.512 86.7517 121.699 86.0051L127.899 61.0051C127.952 60.7384 128.032 60.5651 128.139 60.4851C128.272 60.4051 128.392 60.3651 128.499 60.3651C128.632 60.3651 128.752 60.4051 128.859 60.4851C128.992 60.5651 129.086 60.7384 129.139 61.0051L135.459 86.3651C135.646 87.1117 135.859 87.6317 136.099 87.9251C136.339 88.2184 136.712 88.4184 137.219 88.5251L137.819 88.6451C138.192 88.7251 138.379 88.8984 138.379 89.1651C138.379 89.4317 138.179 89.5651 137.779 89.5651H130.939C130.566 89.5651 130.379 89.4184 130.379 89.1251C130.379 88.8317 130.606 88.6717 131.059 88.6451L131.819 88.5651C132.272 88.5117 132.552 88.3651 132.659 88.1251C132.792 87.8851 132.792 87.4717 132.659 86.8851L131.139 80.6851C130.979 79.9917 130.539 79.6451 129.819 79.6451H125.619C124.926 79.6451 124.486 79.9917 124.299 80.6851L122.939 86.0451C122.539 87.5651 122.939 88.4051 124.139 88.5651L124.739 88.6451C125.192 88.7251 125.419 88.8851 125.419 89.1251C125.419 89.4184 125.232 89.5651 124.859 89.5651H119.259ZM125.499 78.4451H129.899C130.326 78.4451 130.499 78.2184 130.419 77.7651L127.859 67.0451H127.659L124.979 77.7651C124.899 78.2184 125.072 78.4451 125.499 78.4451ZM138.23 89.5651C137.83 89.5651 137.63 89.4184 137.63 89.1251C137.63 88.8851 137.803 88.7251 138.15 88.6451L139.07 88.4851C139.63 88.3784 139.99 88.2317 140.15 88.0451C140.336 87.8584 140.43 87.4851 140.43 86.9251V63.4051C140.43 62.8451 140.336 62.4717 140.15 62.2851C139.99 62.0984 139.63 61.9517 139.07 61.8451L138.15 61.6851C137.803 61.6051 137.63 61.4451 137.63 61.2051C137.63 60.9117 137.83 60.7651 138.23 60.7651H151.67C152.283 60.7651 152.616 61.0717 152.67 61.6851L152.99 68.3251C153.043 68.7784 152.87 69.0051 152.47 69.0051C152.15 69.0051 151.963 68.8317 151.91 68.4851L151.67 67.0051C151.376 65.1917 150.776 63.8717 149.87 63.0451C148.963 62.1917 147.71 61.7651 146.11 61.7651C145.043 61.7651 144.296 61.9251 143.87 62.2451C143.47 62.5384 143.27 63.0717 143.27 63.8451V73.4851C143.27 73.8584 143.456 74.0451 143.83 74.0451H145.83C147.003 74.0451 147.723 73.4184 147.99 72.1651L148.39 70.1651C148.496 69.7651 148.723 69.5917 149.07 69.6451C149.363 69.6984 149.51 69.9251 149.51 70.3251V79.3251C149.51 79.7251 149.363 79.9517 149.07 80.0051C148.723 80.0584 148.496 79.8851 148.39 79.4851L147.99 77.5251C147.803 76.5917 147.536 75.9784 147.19 75.6851C146.87 75.3917 146.403 75.2451 145.79 75.2451H143.83C143.456 75.2451 143.27 75.4317 143.27 75.8051V85.8451C143.27 86.8051 143.51 87.4984 143.99 87.9251C144.496 88.3517 145.403 88.5651 146.71 88.5651C148.043 88.5651 149.176 88.2317 150.11 87.5651C151.07 86.8717 151.736 85.5917 152.11 83.7251L152.59 81.3651C152.67 81.0184 152.87 80.8451 153.19 80.8451C153.563 80.8451 153.723 81.0717 153.67 81.5251L153.27 88.6451C153.216 89.2584 152.883 89.5651 152.27 89.5651H138.23Z" fill="black"/>
<defs>
<linearGradient id="paint0_linear_311_119" x1="151.966" y1="21.7647" x2="56.8917" y2="150.107" gradientUnits="userSpaceOnUse">
<stop stop-color="#FCEE84"/>
<stop offset="1" stop-color="#92E8A5"/>
</linearGradient>
</defs>
</svg>
