<svg width="200" height="150" viewBox="0 0 200 150" fill="none" xmlns="http://www.w3.org/2000/svg">
<path d="M98.018 22.9286C99.488 22.4054 101.09 22.3903 102.568 22.8807L102.862 22.9858L167.876 47.8067C170.618 48.8537 172.423 51.4963 172.398 54.428L172.036 97.277C172.012 100.117 170.275 102.645 167.658 103.693L167.403 103.791L101.982 127.072C100.512 127.595 98.9103 127.609 97.4319 127.119L97.1378 127.015L32.1241 102.194C29.382 101.147 27.577 98.5034 27.6018 95.5716L27.9641 52.7225C27.9882 49.8823 29.7247 47.3539 32.3418 46.306L32.5975 46.2094L98.018 22.9286Z" fill="url(#paint0_linear_311_110)" stroke="black" stroke-width="2"/>
<path d="M76.1526 90.7252C73.5426 90.7252 71.8776 89.0152 71.1576 85.5952L70.1226 80.6002C69.7926 78.9802 69.4176 77.7502 68.9976 76.9102C68.6076 76.0702 68.0526 75.5002 67.3326 75.2002C66.6426 74.9002 65.6826 74.7502 64.4526 74.7502C64.0326 74.7502 63.7026 74.8702 63.4626 75.1102C63.2226 75.3202 63.1026 75.5902 63.1026 75.9202V87.1702C63.1026 87.8002 63.2226 88.2352 63.4626 88.4752C63.7026 88.6852 64.2426 88.8652 65.0826 89.0152L66.7476 89.2852C67.0776 89.3452 67.2426 89.5102 67.2426 89.7802C67.2426 90.1402 67.0176 90.3202 66.5676 90.3202H57.4326C56.9826 90.3202 56.7576 90.1552 56.7576 89.8252C56.7576 89.5552 56.9526 89.3752 57.3426 89.2852L58.3776 89.1052C59.0076 88.9852 59.4126 88.8202 59.5926 88.6102C59.8026 88.4002 59.9076 87.9802 59.9076 87.3502V60.8902C59.9076 60.2602 59.8026 59.8402 59.5926 59.6302C59.4126 59.4202 59.0076 59.2552 58.3776 59.1352L57.3426 58.9552C56.9526 58.8652 56.7576 58.6852 56.7576 58.4152C56.7576 58.0852 56.9826 57.9202 57.4326 57.9202H66.5676C68.3376 57.9202 69.9126 58.2652 71.2926 58.9552C72.6726 59.6452 73.7526 60.6052 74.5327 61.8352C75.3127 63.0352 75.7027 64.4302 75.7027 66.0202C75.7027 67.9102 75.1326 69.6202 73.9926 71.1502C72.8526 72.6502 71.4126 73.7152 69.6727 74.3452C69.4627 74.4052 69.3426 74.5102 69.3126 74.6602C69.3126 74.7802 69.4176 74.8852 69.6276 74.9752C70.5876 75.4252 71.3376 76.0552 71.8776 76.8652C72.4476 77.6752 72.8826 78.7552 73.1826 80.1052L74.1726 84.6952C74.5026 86.2552 74.8926 87.3652 75.3426 88.0252C75.7926 88.6852 76.3627 89.0152 77.0527 89.0152C77.2926 89.0152 77.5026 88.9852 77.6827 88.9252C77.8927 88.8352 78.1477 88.6852 78.4477 88.4752C78.6876 88.3252 78.9126 88.2952 79.1227 88.3852C79.3326 88.4452 79.4376 88.5952 79.4376 88.8352C79.4376 89.3452 79.1076 89.7952 78.4477 90.1852C77.7877 90.5452 77.0227 90.7252 76.1526 90.7252ZM66.1176 73.6252C68.1576 73.6252 69.7026 72.9502 70.7526 71.6002C71.8026 70.2202 72.3276 68.3902 72.3276 66.1102C72.3276 63.8902 71.7126 62.1652 70.4826 60.9352C69.2826 59.6752 67.6176 59.0452 65.4876 59.0452C63.8976 59.0452 63.1026 59.6452 63.1026 60.8452V71.1502C63.1026 72.8002 64.1076 73.6252 66.1176 73.6252ZM89.3503 90.7252C87.9103 90.7252 86.5603 90.3052 85.3003 89.4652C84.0403 88.5952 82.9303 87.4102 81.9703 85.9102C81.0403 84.4102 80.3053 82.6552 79.7653 80.6452C79.2553 78.6052 79.0003 76.4152 79.0003 74.0752C79.0003 71.7352 79.2553 69.5602 79.7653 67.5502C80.3053 65.5402 81.0403 63.7852 81.9703 62.2852C82.9303 60.7552 84.0403 59.5702 85.3003 58.7302C86.5603 57.8902 87.9103 57.4702 89.3503 57.4702C90.7903 57.4702 92.1253 57.8902 93.3553 58.7302C94.6153 59.5702 95.7253 60.7552 96.6853 62.2852C97.6453 63.7852 98.3803 65.5402 98.8903 67.5502C99.4303 69.5602 99.7003 71.7352 99.7003 74.0752C99.7003 76.4152 99.4303 78.6052 98.8903 80.6452C98.3803 82.6552 97.6453 84.4102 96.6853 85.9102C95.7253 87.4102 94.6153 88.5952 93.3553 89.4652C92.1253 90.3052 90.7903 90.7252 89.3503 90.7252ZM89.3503 89.5102C91.4803 89.5102 93.1453 88.2352 94.3453 85.6852C95.5453 83.1352 96.1453 79.2652 96.1453 74.0752C96.1453 68.8852 95.5453 65.0302 94.3453 62.5102C93.1453 59.9602 91.4803 58.6852 89.3503 58.6852C87.2503 58.6852 85.5853 59.9602 84.3553 62.5102C83.1553 65.0302 82.5553 68.8852 82.5553 74.0752C82.5553 79.2652 83.1553 83.1352 84.3553 85.6852C85.5853 88.2352 87.2503 89.5102 89.3503 89.5102ZM113.697 90.7252C111.477 90.7252 109.527 90.0352 107.847 88.6552C106.197 87.2752 104.907 85.3402 103.977 82.8502C103.077 80.3302 102.627 77.3602 102.627 73.9402C102.627 70.6402 103.122 67.7602 104.112 65.3002C105.132 62.8102 106.482 60.8902 108.162 59.5402C109.872 58.1602 111.762 57.4702 113.832 57.4702C115.062 57.4702 116.142 57.5902 117.072 57.8302C118.002 58.0402 118.827 58.3252 119.547 58.6852C119.907 58.8952 120.087 59.2102 120.087 59.6302L120.222 66.4702C120.222 66.9802 120.042 67.2352 119.682 67.2352C119.352 67.2352 119.142 67.0402 119.052 66.6502L118.602 64.9852C117.972 62.6452 117.237 61.0252 116.397 60.1252C115.587 59.2252 114.612 58.7752 113.472 58.7752C111.372 58.7752 109.617 60.0802 108.207 62.6902C106.827 65.2702 106.137 69.0202 106.137 73.9402C106.137 77.3002 106.482 80.1352 107.172 82.4452C107.892 84.7552 108.807 86.4952 109.917 87.6652C111.057 88.8352 112.257 89.4202 113.517 89.4202C114.867 89.4202 115.947 89.0002 116.757 88.1602C117.597 87.3202 118.302 85.7002 118.872 83.3002L119.412 81.0952C119.502 80.6452 119.742 80.4502 120.132 80.5102C120.462 80.5702 120.627 80.8252 120.627 81.2752L120.447 88.5652C120.447 88.9852 120.252 89.3002 119.862 89.5102C119.142 89.8702 118.287 90.1552 117.297 90.3652C116.337 90.6052 115.137 90.7252 113.697 90.7252ZM123.303 90.3202C122.853 90.3202 122.628 90.1552 122.628 89.8252C122.628 89.5552 122.823 89.3752 123.213 89.2852L124.248 89.1052C124.878 88.9852 125.283 88.8202 125.463 88.6102C125.673 88.4002 125.778 87.9802 125.778 87.3502V60.8902C125.778 60.2602 125.673 59.8402 125.463 59.6302C125.283 59.4202 124.878 59.2552 124.248 59.1352L123.213 58.9552C122.823 58.8652 122.628 58.6852 122.628 58.4152C122.628 58.0852 122.853 57.9202 123.303 57.9202H131.538C131.988 57.9202 132.213 58.1002 132.213 58.4602C132.213 58.7302 132.048 58.8952 131.718 58.9552L130.503 59.1352C129.873 59.2252 129.453 59.3902 129.243 59.6302C129.063 59.8702 128.973 60.3052 128.973 60.9352V73.0852C128.973 73.3852 129.063 73.5652 129.243 73.6252C129.423 73.6852 129.588 73.5802 129.738 73.3102L137.118 61.7452C138.108 60.2152 138.018 59.3452 136.848 59.1352L135.813 58.9552C135.423 58.8652 135.228 58.6702 135.228 58.3702C135.228 58.0702 135.438 57.9202 135.858 57.9202H143.508C143.928 57.9202 144.138 58.0852 144.138 58.4152C144.138 58.7452 143.943 58.9252 143.553 58.9552L142.698 59.0452C141.768 59.1352 141.003 59.4052 140.403 59.8552C139.803 60.3052 139.128 61.1152 138.378 62.2852L133.293 70.2502C132.993 70.7602 132.978 71.2552 133.248 71.7352L141.708 87.6652C141.948 88.1452 142.188 88.4902 142.428 88.7002C142.698 88.9102 143.013 89.0452 143.373 89.1052L144.453 89.2852C144.813 89.3152 144.993 89.4952 144.993 89.8252C144.993 90.1552 144.783 90.3202 144.363 90.3202H136.353C135.933 90.3202 135.723 90.1552 135.723 89.8252C135.723 89.5252 135.918 89.3452 136.308 89.2852L137.073 89.1952C138.243 89.0452 138.483 88.3102 137.793 86.9902L131.313 74.6602C131.193 74.4202 131.058 74.3002 130.908 74.3002C130.758 74.2702 130.608 74.3752 130.458 74.6152L129.513 76.1002C129.303 76.4002 129.153 76.6852 129.063 76.9552C129.003 77.2252 128.973 77.5702 128.973 77.9902V87.3052C128.973 87.9352 129.063 88.3702 129.243 88.6102C129.453 88.8502 129.873 89.0152 130.503 89.1052L131.718 89.2852C132.048 89.3452 132.213 89.5102 132.213 89.7802C132.213 90.1402 131.988 90.3202 131.538 90.3202H123.303Z" fill="black"/>
<defs>
<linearGradient id="paint0_linear_311_110" x1="155.661" y1="39.2218" x2="42.0704" y2="98.7415" gradientUnits="userSpaceOnUse">
<stop stop-color="#FEDB9A"/>
<stop offset="1" stop-color="#FF6B57"/>
</linearGradient>
</defs>
</svg>
