<svg width="200" height="150" viewBox="0 0 200 150" fill="none" xmlns="http://www.w3.org/2000/svg">
<path d="M191.369 26.625C194.836 26.8328 197.312 30.1061 196.568 33.499L196.483 33.8389L193.889 43.0166C191.196 52.539 191.034 62.5939 193.411 72.1885L193.649 73.1152C196.881 85.2782 195.816 98.1709 190.655 109.622L190.143 110.726L186.9 117.513C185.187 121.101 181.564 123.385 177.588 123.385L7.98632 123.385C4.96789 123.385 2.8344 120.484 3.66308 117.638L3.75293 117.362L6.99707 108.345C10.5318 98.52 10.7785 87.822 7.71484 77.8594L7.40722 76.8975C3.51149 65.1134 4.54892 52.2632 10.2656 41.2656L10.541 40.7441L15.416 31.6523C17.079 28.5509 20.3129 26.6154 23.832 26.6152L191.019 26.6152L191.369 26.625Z" fill="url(#paint0_linear_311_117)" stroke="black" stroke-width="2.23"/>
<path d="M21.9351 86.815C21.4685 86.815 20.9435 86.7683 20.3601 86.675C19.8001 86.5817 19.2635 86.465 18.7501 86.325C18.2601 86.185 17.8751 86.0333 17.5951 85.87C17.4318 85.7767 17.3035 85.6833 17.2101 85.59C17.1401 85.4733 17.1051 85.2867 17.1051 85.03L16.9301 79.535C16.9301 79.0683 17.0818 78.835 17.3851 78.835C17.6418 78.835 17.8168 79.045 17.9101 79.465L18.2251 80.795C19.0185 84.1317 20.5001 85.8 22.6701 85.8C23.8368 85.8 24.7585 85.415 25.4351 84.645C26.1351 83.8517 26.4851 82.7433 26.4851 81.32C26.4851 79.9433 26.1235 78.66 25.4001 77.47C24.7001 76.28 23.5685 75.1017 22.0051 73.935C20.2785 72.6983 19.0185 71.5083 18.2251 70.365C17.4318 69.1983 17.0351 67.9617 17.0351 66.655C17.0351 64.9283 17.6301 63.5517 18.8201 62.525C20.0335 61.475 21.5735 60.95 23.4401 60.95C24.1401 60.95 24.8168 61.0317 25.4701 61.195C26.1235 61.3583 26.6601 61.5917 27.0801 61.895C27.2201 61.9883 27.3251 62.0933 27.3951 62.21C27.4885 62.3267 27.5351 62.4783 27.5351 62.665L27.6401 67.95C27.6401 68.3467 27.4885 68.545 27.1851 68.545C26.9751 68.545 26.8235 68.3817 26.7301 68.055L26.4851 67.18C25.9718 65.3833 25.4351 64.0767 24.8751 63.26C24.3385 62.42 23.5568 62 22.5301 62C21.5268 62 20.7218 62.3267 20.1151 62.98C19.5318 63.6333 19.2401 64.555 19.2401 65.745C19.2401 66.7483 19.5668 67.705 20.2201 68.615C20.8735 69.525 22.0168 70.6333 23.6501 71.94C25.4001 73.3633 26.6718 74.74 27.4651 76.07C28.2818 77.3767 28.6901 78.7767 28.6901 80.27C28.6901 81.5767 28.3985 82.72 27.8151 83.7C27.2318 84.68 26.4268 85.45 25.4001 86.01C24.3968 86.5467 23.2418 86.815 21.9351 86.815ZM39.198 86.815C38.078 86.815 37.028 86.4883 36.048 85.835C35.068 85.1583 34.2047 84.2367 33.458 83.07C32.7347 81.9033 32.163 80.5383 31.743 78.975C31.3464 77.3883 31.148 75.685 31.148 73.865C31.148 72.045 31.3464 70.3533 31.743 68.79C32.163 67.2267 32.7347 65.8617 33.458 64.695C34.2047 63.505 35.068 62.5833 36.048 61.93C37.028 61.2767 38.078 60.95 39.198 60.95C40.318 60.95 41.3564 61.2767 42.313 61.93C43.293 62.5833 44.1564 63.505 44.903 64.695C45.6497 65.8617 46.2214 67.2267 46.618 68.79C47.038 70.3533 47.248 72.045 47.248 73.865C47.248 75.685 47.038 77.3883 46.618 78.975C46.2214 80.5383 45.6497 81.9033 44.903 83.07C44.1564 84.2367 43.293 85.1583 42.313 85.835C41.3564 86.4883 40.318 86.815 39.198 86.815ZM39.198 85.87C40.8547 85.87 42.1497 84.8783 43.083 82.895C44.0164 80.9117 44.483 77.9017 44.483 73.865C44.483 69.8283 44.0164 66.83 43.083 64.87C42.1497 62.8867 40.8547 61.895 39.198 61.895C37.5647 61.895 36.2697 62.8867 35.313 64.87C34.3797 66.83 33.913 69.8283 33.913 73.865C33.913 77.9017 34.3797 80.9117 35.313 82.895C36.2697 84.8783 37.5647 85.87 39.198 85.87ZM58.001 86.815C56.741 86.815 55.621 86.5233 54.641 85.94C53.6843 85.3333 52.9376 84.505 52.401 83.455C51.8643 82.3817 51.596 81.1567 51.596 79.78V63.61C51.596 63.12 51.5143 62.7933 51.351 62.63C51.211 62.4667 50.896 62.3383 50.406 62.245L49.601 62.105C49.2976 62.035 49.146 61.895 49.146 61.685C49.146 61.4283 49.321 61.3 49.671 61.3H56.076C56.426 61.3 56.601 61.44 56.601 61.72C56.601 61.93 56.4726 62.0583 56.216 62.105L55.271 62.245C54.8043 62.315 54.4893 62.4433 54.326 62.63C54.1626 62.8167 54.081 63.155 54.081 63.645V79.815C54.081 81.5883 54.4776 82.965 55.271 83.945C56.0643 84.925 57.1726 85.415 58.596 85.415C60.0426 85.415 61.1626 84.925 61.956 83.945C62.7493 82.965 63.146 81.5883 63.146 79.815V64.345C63.146 63.085 62.7493 62.385 61.956 62.245L61.011 62.105C60.7543 62.0583 60.626 61.93 60.626 61.72C60.626 61.44 60.801 61.3 61.151 61.3H66.191C66.541 61.3 66.716 61.4283 66.716 61.685C66.716 61.895 66.5643 62.035 66.261 62.105L65.456 62.245C64.6626 62.385 64.266 63.0733 64.266 64.31V79.78C64.266 81.9033 63.6943 83.6067 62.551 84.89C61.4076 86.1733 59.891 86.815 58.001 86.815ZM82.1556 86.815C81.7823 86.815 81.4673 86.535 81.2106 85.975L71.7256 65.395C71.6556 65.2317 71.5623 65.1617 71.4456 65.185C71.3523 65.2083 71.3056 65.3133 71.3056 65.5V83.49C71.3056 84.1433 71.4106 84.645 71.6206 84.995C71.854 85.3217 72.2623 85.5317 72.8456 85.625L73.3006 85.695C73.604 85.7183 73.7556 85.8583 73.7556 86.115C73.7556 86.3717 73.5806 86.5 73.2306 86.5H68.2256C67.8756 86.5 67.7006 86.3717 67.7006 86.115C67.7006 85.8583 67.8523 85.7183 68.1556 85.695L68.6106 85.625C69.2173 85.5317 69.6373 85.3217 69.8706 84.995C70.104 84.645 70.2206 84.1433 70.2206 83.49V63.61C70.2206 63.12 70.139 62.7933 69.9756 62.63C69.8356 62.4667 69.4973 62.3383 68.9606 62.245L68.1556 62.105C67.8523 62.035 67.7006 61.895 67.7006 61.685C67.7006 61.4283 67.8756 61.3 68.2256 61.3H71.9706C72.554 61.3 72.9623 61.5567 73.1956 62.07L81.4556 80.235C81.5256 80.375 81.6073 80.4333 81.7006 80.41C81.8173 80.3867 81.8756 80.305 81.8756 80.165V64.31C81.8756 63.5633 81.7473 63.05 81.4906 62.77C81.234 62.4667 80.9073 62.28 80.5106 62.21L79.8806 62.105C79.5773 62.035 79.4256 61.895 79.4256 61.685C79.4256 61.4283 79.6006 61.3 79.9506 61.3H84.9556C85.3056 61.3 85.4806 61.4283 85.4806 61.685C85.4806 61.9417 85.329 62.0817 85.0256 62.105L84.5706 62.175C83.964 62.2683 83.544 62.4667 83.3106 62.77C83.0773 63.05 82.9606 63.5633 82.9606 64.31V85.695C82.9606 86.115 82.879 86.4067 82.7156 86.57C82.5756 86.7333 82.389 86.815 82.1556 86.815ZM87.232 86.5C86.882 86.5 86.707 86.3717 86.707 86.115C86.707 85.905 86.8587 85.765 87.162 85.695L87.967 85.555C88.7603 85.415 89.157 84.96 89.157 84.19V63.61C89.157 63.12 89.0753 62.7933 88.912 62.63C88.772 62.4667 88.457 62.3383 87.967 62.245L87.162 62.105C86.8587 62.035 86.707 61.895 86.707 61.685C86.707 61.4283 86.882 61.3 87.232 61.3H94.302C96.122 61.3 97.697 61.8367 99.027 62.91C100.357 63.96 101.384 65.4417 102.107 67.355C102.83 69.2683 103.192 71.485 103.192 74.005C103.192 76.5483 102.807 78.7533 102.037 80.62C101.29 82.4867 100.229 83.9333 98.852 84.96C97.4753 85.9867 95.842 86.5 93.952 86.5H87.232ZM94.092 85.59C96.1687 85.59 97.7437 84.5983 98.817 82.615C99.9137 80.6317 100.462 77.7617 100.462 74.005C100.462 70.2717 99.937 67.3783 98.887 65.325C97.8603 63.2483 96.332 62.21 94.302 62.21C92.5287 62.21 91.642 63.0617 91.642 64.765V83.035C91.642 83.9683 91.8287 84.6333 92.202 85.03C92.5987 85.4033 93.2287 85.59 94.092 85.59ZM108.321 86.5C107.971 86.5 107.796 86.3717 107.796 86.115C107.796 85.8583 107.948 85.7183 108.251 85.695L109.826 85.45C110.293 85.38 110.608 85.2633 110.771 85.1C110.935 84.9133 111.016 84.575 111.016 84.085V63.085C111.016 62.7583 110.946 62.525 110.806 62.385C110.666 62.245 110.375 62.175 109.931 62.175C109.068 62.175 108.216 62.5483 107.376 63.295C106.536 64.0417 105.988 65.2433 105.731 66.9L105.556 68.055C105.51 68.3583 105.346 68.51 105.066 68.51C104.716 68.51 104.565 68.3117 104.611 67.915L104.926 61.58C104.973 61.0433 105.183 60.775 105.556 60.775C105.72 60.775 105.871 60.8217 106.011 60.915C106.151 60.985 106.385 61.0667 106.711 61.16C107.061 61.2533 107.61 61.3 108.356 61.3H116.161C116.908 61.3 117.445 61.2533 117.771 61.16C118.121 61.0667 118.366 60.985 118.506 60.915C118.67 60.8217 118.821 60.775 118.961 60.775C119.335 60.775 119.545 61.0433 119.591 61.58L119.906 67.915C119.953 68.3117 119.801 68.51 119.451 68.51C119.171 68.51 119.008 68.3583 118.961 68.055L118.786 66.9C118.553 65.2433 118.016 64.0417 117.176 63.295C116.336 62.5483 115.473 62.175 114.586 62.175C114.143 62.175 113.851 62.245 113.711 62.385C113.571 62.525 113.501 62.7583 113.501 63.085V84.085C113.501 84.575 113.583 84.9133 113.746 85.1C113.933 85.2633 114.248 85.38 114.691 85.45L116.266 85.695C116.57 85.7183 116.721 85.8583 116.721 86.115C116.721 86.3717 116.546 86.5 116.196 86.5H108.321ZM136.074 86.815C134.044 86.815 132.749 85.485 132.189 82.825L131.384 78.94C131.128 77.68 130.836 76.7233 130.509 76.07C130.206 75.4167 129.774 74.9733 129.214 74.74C128.678 74.5067 127.931 74.39 126.974 74.39C126.648 74.39 126.391 74.4833 126.204 74.67C126.018 74.8333 125.924 75.0433 125.924 75.3V84.05C125.924 84.54 126.018 84.8783 126.204 85.065C126.391 85.2283 126.811 85.3683 127.464 85.485L128.759 85.695C129.016 85.7417 129.144 85.87 129.144 86.08C129.144 86.36 128.969 86.5 128.619 86.5H121.514C121.164 86.5 120.989 86.3717 120.989 86.115C120.989 85.905 121.141 85.765 121.444 85.695L122.249 85.555C122.739 85.4617 123.054 85.3333 123.194 85.17C123.358 85.0067 123.439 84.68 123.439 84.19V63.61C123.439 63.12 123.358 62.7933 123.194 62.63C123.054 62.4667 122.739 62.3383 122.249 62.245L121.444 62.105C121.141 62.035 120.989 61.895 120.989 61.685C120.989 61.4283 121.164 61.3 121.514 61.3H128.619C129.996 61.3 131.221 61.5683 132.294 62.105C133.368 62.6417 134.208 63.3883 134.814 64.345C135.421 65.2783 135.724 66.3633 135.724 67.6C135.724 69.07 135.281 70.4 134.394 71.59C133.508 72.7567 132.388 73.585 131.034 74.075C130.871 74.1217 130.778 74.2033 130.754 74.32C130.754 74.4133 130.836 74.495 130.999 74.565C131.746 74.915 132.329 75.405 132.749 76.035C133.193 76.665 133.531 77.505 133.764 78.555L134.534 82.125C134.791 83.3383 135.094 84.2017 135.444 84.715C135.794 85.2283 136.238 85.485 136.774 85.485C136.961 85.485 137.124 85.4617 137.264 85.415C137.428 85.345 137.626 85.2283 137.859 85.065C138.046 84.9483 138.221 84.925 138.384 84.995C138.548 85.0417 138.629 85.1583 138.629 85.345C138.629 85.7417 138.373 86.0917 137.859 86.395C137.346 86.675 136.751 86.815 136.074 86.815ZM128.269 73.515C129.856 73.515 131.058 72.99 131.874 71.94C132.691 70.8667 133.099 69.4433 133.099 67.67C133.099 65.9433 132.621 64.6017 131.664 63.645C130.731 62.665 129.436 62.175 127.779 62.175C126.543 62.175 125.924 62.6417 125.924 63.575V71.59C125.924 72.8733 126.706 73.515 128.269 73.515ZM136.42 86.5C136.07 86.5 135.895 86.3833 135.895 86.15C135.895 85.9167 136.059 85.765 136.385 85.695L136.91 85.59C137.377 85.4967 137.727 85.275 137.96 84.925C138.194 84.5517 138.392 84.0383 138.555 83.385L143.98 61.51C144.027 61.2767 144.097 61.125 144.19 61.055C144.307 60.985 144.412 60.95 144.505 60.95C144.622 60.95 144.727 60.985 144.82 61.055C144.937 61.125 145.019 61.2767 145.065 61.51L150.595 83.7C150.759 84.3533 150.945 84.8083 151.155 85.065C151.365 85.3217 151.692 85.4967 152.135 85.59L152.66 85.695C152.987 85.765 153.15 85.9167 153.15 86.15C153.15 86.3833 152.975 86.5 152.625 86.5H146.64C146.314 86.5 146.15 86.3717 146.15 86.115C146.15 85.8583 146.349 85.7183 146.745 85.695L147.41 85.625C147.807 85.5783 148.052 85.45 148.145 85.24C148.262 85.03 148.262 84.6683 148.145 84.155L146.815 78.73C146.675 78.1233 146.29 77.82 145.66 77.82H141.985C141.379 77.82 140.994 78.1233 140.83 78.73L139.64 83.42C139.29 84.75 139.64 85.485 140.69 85.625L141.215 85.695C141.612 85.765 141.81 85.905 141.81 86.115C141.81 86.3717 141.647 86.5 141.32 86.5H136.42ZM141.88 76.77H145.73C146.104 76.77 146.255 76.5717 146.185 76.175L143.945 66.795H143.77L141.425 76.175C141.355 76.5717 141.507 76.77 141.88 76.77ZM161.335 86.815C159.609 86.815 158.092 86.2783 156.785 85.205C155.502 84.1317 154.499 82.6267 153.775 80.69C153.075 78.73 152.725 76.42 152.725 73.76C152.725 71.1933 153.11 68.9533 153.88 67.04C154.674 65.1033 155.724 63.61 157.03 62.56C158.36 61.4867 159.83 60.95 161.44 60.95C162.397 60.95 163.237 61.0433 163.96 61.23C164.684 61.3933 165.325 61.615 165.885 61.895C166.165 62.0583 166.305 62.3033 166.305 62.63L166.41 67.95C166.41 68.3467 166.27 68.545 165.99 68.545C165.734 68.545 165.57 68.3933 165.5 68.09L165.15 66.795C164.66 64.975 164.089 63.715 163.435 63.015C162.805 62.315 162.047 61.965 161.16 61.965C159.527 61.965 158.162 62.98 157.065 65.01C155.992 67.0167 155.455 69.9333 155.455 73.76C155.455 76.3733 155.724 78.5783 156.26 80.375C156.82 82.1717 157.532 83.525 158.395 84.435C159.282 85.345 160.215 85.8 161.195 85.8C162.245 85.8 163.085 85.4733 163.715 84.82C164.369 84.1667 164.917 82.9067 165.36 81.04L165.78 79.325C165.85 78.975 166.037 78.8233 166.34 78.87C166.597 78.9167 166.725 79.115 166.725 79.465L166.585 85.135C166.585 85.4617 166.434 85.7067 166.13 85.87C165.57 86.15 164.905 86.3717 164.135 86.535C163.389 86.7217 162.455 86.815 161.335 86.815ZM169.332 86.5C168.982 86.5 168.807 86.3717 168.807 86.115C168.807 85.905 168.958 85.765 169.262 85.695L170.067 85.555C170.557 85.4617 170.872 85.3333 171.012 85.17C171.175 85.0067 171.257 84.68 171.257 84.19V63.61C171.257 63.12 171.175 62.7933 171.012 62.63C170.872 62.4667 170.557 62.3383 170.067 62.245L169.262 62.105C168.958 62.035 168.807 61.895 168.807 61.685C168.807 61.4283 168.982 61.3 169.332 61.3H175.737C176.087 61.3 176.262 61.44 176.262 61.72C176.262 61.93 176.133 62.0583 175.877 62.105L174.932 62.245C174.442 62.315 174.115 62.4433 173.952 62.63C173.812 62.8167 173.742 63.155 173.742 63.645V73.095C173.742 73.3283 173.812 73.4683 173.952 73.515C174.092 73.5617 174.22 73.48 174.337 73.27L180.077 64.275C180.847 63.085 180.777 62.4083 179.867 62.245L179.062 62.105C178.758 62.035 178.607 61.8833 178.607 61.65C178.607 61.4167 178.77 61.3 179.097 61.3H185.047C185.373 61.3 185.537 61.4283 185.537 61.685C185.537 61.9417 185.385 62.0817 185.082 62.105L184.417 62.175C183.693 62.245 183.098 62.455 182.632 62.805C182.165 63.155 181.64 63.785 181.057 64.695L177.102 70.89C176.868 71.2867 176.857 71.6717 177.067 72.045L183.647 84.435C183.833 84.8083 184.02 85.0767 184.207 85.24C184.417 85.4033 184.662 85.5083 184.942 85.555L185.782 85.695C186.062 85.7183 186.202 85.8583 186.202 86.115C186.202 86.3717 186.038 86.5 185.712 86.5H179.482C179.155 86.5 178.992 86.3717 178.992 86.115C178.992 85.8817 179.143 85.7417 179.447 85.695L180.042 85.625C180.952 85.5083 181.138 84.9367 180.602 83.91L175.562 74.32C175.468 74.1333 175.363 74.04 175.247 74.04C175.13 74.0167 175.013 74.0983 174.897 74.285L174.162 75.44C173.998 75.6733 173.882 75.895 173.812 76.105C173.765 76.315 173.742 76.5833 173.742 76.91V84.155C173.742 84.645 173.812 84.9833 173.952 85.17C174.115 85.3567 174.442 85.485 174.932 85.555L175.877 85.695C176.133 85.7417 176.262 85.87 176.262 86.08C176.262 86.36 176.087 86.5 175.737 86.5H169.332Z" fill="black"/>
<defs>
<linearGradient id="paint0_linear_311_117" x1="147.414" y1="25.5" x2="10.8862" y2="105.582" gradientUnits="userSpaceOnUse">
<stop stop-color="#F4FFEA"/>
<stop offset="1" stop-color="#A8FF60"/>
</linearGradient>
</defs>
</svg>
