<svg width="200" height="150" viewBox="0 0 200 150" fill="none" xmlns="http://www.w3.org/2000/svg">
<path d="M100 21C127.479 21 152.306 27.1281 170.229 36.9854C188.187 46.8625 199 60.3454 199 75C199 89.6546 188.187 103.137 170.229 113.015C152.306 122.872 127.479 129 100 129C72.5215 129 47.6939 122.872 29.7715 113.015C11.813 103.137 1 89.6546 1 75C1 60.3454 11.813 46.8625 29.7715 36.9854C47.6939 27.1281 72.5215 21 100 21Z" fill="url(#paint0_linear_311_123)" stroke="black" stroke-width="2"/>
<path d="M60.751 91.1229C60.631 91.1229 60.511 91.0779 60.391 90.9879C60.271 90.8979 60.181 90.7029 60.121 90.4029L56.656 76.4529C56.626 76.2129 56.536 76.1079 56.386 76.1379C56.236 76.1379 56.131 76.2429 56.071 76.4529L52.201 90.4029C52.111 90.7029 52.006 90.8979 51.886 90.9879C51.796 91.0779 51.691 91.1229 51.571 91.1229C51.451 91.1229 51.316 91.0779 51.166 90.9879C51.046 90.8979 50.956 90.7029 50.896 90.4029L43.786 61.8728C43.576 61.0328 43.336 60.4478 43.066 60.1179C42.826 59.7878 42.406 59.5628 41.806 59.4429L41.131 59.3079C40.711 59.2178 40.501 59.0228 40.501 58.7228C40.501 58.4229 40.726 58.2729 41.176 58.2729H48.421C48.841 58.2729 49.051 58.4378 49.051 58.7678C49.051 59.0378 48.826 59.2178 48.376 59.3079L47.881 59.3978C47.371 59.4878 47.041 59.6679 46.891 59.9379C46.771 60.1779 46.786 60.6279 46.936 61.2878L52.246 83.2479C52.306 83.4579 52.396 83.5629 52.516 83.5629C52.666 83.5629 52.771 83.4579 52.831 83.2479L54.856 75.9129C55.186 74.7729 55.351 73.7229 55.351 72.7629C55.351 71.8029 55.201 70.7379 54.901 69.5679L53.011 61.8728C52.801 61.0328 52.591 60.4329 52.381 60.0729C52.201 59.7129 51.946 59.5029 51.616 59.4429L50.941 59.3079C50.521 59.2178 50.311 59.0228 50.311 58.7228C50.311 58.4229 50.536 58.2729 50.986 58.2729H57.151C57.571 58.2729 57.781 58.4378 57.781 58.7678C57.781 59.0378 57.556 59.2178 57.106 59.3079L56.611 59.3978C56.221 59.4579 55.981 59.6229 55.891 59.8929C55.831 60.1629 55.876 60.6279 56.026 61.2878L57.556 67.7228C57.616 67.9329 57.706 68.0379 57.826 68.0379C57.976 68.0379 58.081 67.9329 58.141 67.7228L59.761 62.2329C60.091 61.0929 60.211 60.3429 60.121 59.9828C60.061 59.6229 59.896 59.4279 59.626 59.3978L59.131 59.3079C58.681 59.2178 58.456 59.0378 58.456 58.7678C58.456 58.4378 58.666 58.2729 59.086 58.2729H63.361C63.871 58.2729 64.126 58.4378 64.126 58.7678C64.126 59.0678 63.871 59.2478 63.361 59.3079L62.866 59.3528C62.476 59.3828 62.146 59.6228 61.876 60.0729C61.636 60.5229 61.366 61.2579 61.066 62.2778L59.356 68.1729C59.026 69.2829 58.846 70.3329 58.816 71.3229C58.816 72.2829 58.951 73.3479 59.221 74.5179L61.246 82.9779C61.306 83.1879 61.396 83.2929 61.516 83.2929C61.666 83.2929 61.756 83.1879 61.786 82.9779L66.961 62.2329C67.381 60.4928 67.111 59.5478 66.151 59.3978L65.656 59.3079C65.206 59.2178 64.981 59.0228 64.981 58.7228C64.981 58.4229 65.191 58.2729 65.611 58.2729H70.651C71.161 58.2729 71.416 58.4378 71.416 58.7678C71.416 59.0678 71.161 59.2478 70.651 59.3079L70.156 59.3528C69.766 59.3828 69.421 59.6228 69.121 60.0729C68.851 60.4929 68.596 61.2279 68.356 62.2778L61.381 90.4029C61.321 90.7029 61.231 90.8979 61.111 90.9879C60.991 91.0779 60.871 91.1229 60.751 91.1229ZM81.9815 91.0779C80.5415 91.0779 79.1915 90.6579 77.9315 89.8179C76.6715 88.9479 75.5615 87.7629 74.6015 86.2629C73.6715 84.7629 72.9365 83.0079 72.3965 80.9979C71.8865 78.9579 71.6315 76.7679 71.6315 74.4279C71.6315 72.0879 71.8865 69.9129 72.3965 67.9028C72.9365 65.8929 73.6715 64.1379 74.6015 62.6379C75.5615 61.1079 76.6715 59.9229 77.9315 59.0829C79.1915 58.2429 80.5415 57.8229 81.9815 57.8229C83.4215 57.8229 84.7565 58.2429 85.9865 59.0829C87.2465 59.9229 88.3565 61.1079 89.3165 62.6379C90.2765 64.1379 91.0115 65.8929 91.5215 67.9028C92.0615 69.9129 92.3315 72.0879 92.3315 74.4279C92.3315 76.7679 92.0615 78.9579 91.5215 80.9979C91.0115 83.0079 90.2765 84.7629 89.3165 86.2629C88.3565 87.7629 87.2465 88.9479 85.9865 89.8179C84.7565 90.6579 83.4215 91.0779 81.9815 91.0779ZM81.9815 89.8629C84.1115 89.8629 85.7765 88.5879 86.9765 86.0379C88.1765 83.4879 88.7765 79.6179 88.7765 74.4279C88.7765 69.2378 88.1765 65.3828 86.9765 62.8629C85.7765 60.3129 84.1115 59.0379 81.9815 59.0379C79.8815 59.0379 78.2165 60.3129 76.9865 62.8629C75.7865 65.3828 75.1865 69.2378 75.1865 74.4279C75.1865 79.6179 75.7865 83.4879 76.9865 86.0379C78.2165 88.5879 79.8815 89.8629 81.9815 89.8629ZM113.944 91.0779C111.334 91.0779 109.669 89.3679 108.949 85.9479L107.914 80.9529C107.584 79.3329 107.209 78.1029 106.789 77.2629C106.399 76.4229 105.844 75.8529 105.124 75.5529C104.434 75.2529 103.474 75.1029 102.244 75.1029C101.824 75.1029 101.494 75.2229 101.254 75.4629C101.014 75.6729 100.894 75.9429 100.894 76.2729V87.5229C100.894 88.1529 101.014 88.5879 101.254 88.8279C101.494 89.0379 102.034 89.2179 102.874 89.3679L104.539 89.6379C104.869 89.6979 105.034 89.8629 105.034 90.1329C105.034 90.4929 104.809 90.6729 104.359 90.6729H95.2238C94.7738 90.6729 94.5488 90.5079 94.5488 90.1779C94.5488 89.9079 94.7438 89.7279 95.1338 89.6379L96.1688 89.4579C96.7988 89.3379 97.2038 89.1729 97.3838 88.9629C97.5938 88.7529 97.6988 88.3329 97.6988 87.7029V61.2428C97.6988 60.6129 97.5938 60.1929 97.3838 59.9828C97.2038 59.7729 96.7988 59.6079 96.1688 59.4879L95.1338 59.3079C94.7438 59.2178 94.5488 59.0378 94.5488 58.7678C94.5488 58.4378 94.7738 58.2729 95.2238 58.2729H104.359C106.129 58.2729 107.704 58.6179 109.084 59.3079C110.464 59.9979 111.544 60.9579 112.324 62.1879C113.104 63.3878 113.494 64.7828 113.494 66.3729C113.494 68.2629 112.924 69.9729 111.784 71.5029C110.644 73.0029 109.204 74.0679 107.464 74.6979C107.254 74.7579 107.134 74.8629 107.104 75.0129C107.104 75.1329 107.209 75.2379 107.419 75.3279C108.379 75.7779 109.129 76.4079 109.669 77.2179C110.239 78.0279 110.674 79.1079 110.974 80.4579L111.964 85.0479C112.294 86.6079 112.684 87.7179 113.134 88.3779C113.584 89.0379 114.154 89.3679 114.844 89.3679C115.084 89.3679 115.294 89.3379 115.474 89.2779C115.684 89.1879 115.939 89.0379 116.239 88.8279C116.479 88.6779 116.704 88.6479 116.914 88.7379C117.124 88.7979 117.229 88.9479 117.229 89.1879C117.229 89.6979 116.899 90.1479 116.239 90.5379C115.579 90.8979 114.814 91.0779 113.944 91.0779ZM103.909 73.9779C105.949 73.9779 107.494 73.3029 108.544 71.9529C109.594 70.5729 110.119 68.7429 110.119 66.4628C110.119 64.2428 109.504 62.5178 108.274 61.2878C107.074 60.0278 105.409 59.3978 103.279 59.3978C101.689 59.3978 100.894 59.9978 100.894 61.1979V71.5029C100.894 73.1529 101.899 73.9779 103.909 73.9779ZM117.768 90.6729C117.318 90.6729 117.093 90.5079 117.093 90.1779C117.093 89.9079 117.288 89.7279 117.678 89.6379L118.713 89.4579C119.343 89.3379 119.748 89.1729 119.928 88.9629C120.138 88.7529 120.243 88.3329 120.243 87.7029V61.2428C120.243 60.6129 120.138 60.1929 119.928 59.9828C119.748 59.7729 119.343 59.6079 118.713 59.4879L117.678 59.3079C117.288 59.2178 117.093 59.0378 117.093 58.7678C117.093 58.4378 117.318 58.2729 117.768 58.2729H126.003C126.453 58.2729 126.678 58.4529 126.678 58.8129C126.678 59.0828 126.513 59.2478 126.183 59.3079L124.968 59.4879C124.338 59.5778 123.918 59.7428 123.708 59.9828C123.528 60.2229 123.438 60.6578 123.438 61.2878V86.4879C123.438 87.5679 123.738 88.3479 124.338 88.8279C124.968 89.3079 125.748 89.5479 126.678 89.5479C127.368 89.5479 128.073 89.4129 128.793 89.1429C129.543 88.8429 130.218 88.3029 130.818 87.5229C131.418 86.7129 131.868 85.5429 132.168 84.0129L132.753 80.9979C132.843 80.6079 133.068 80.4129 133.428 80.4129C133.848 80.4129 134.028 80.6679 133.968 81.1779L133.428 89.6379C133.368 90.3279 132.993 90.6729 132.303 90.6729H117.768ZM136.357 90.6729C135.907 90.6729 135.682 90.5079 135.682 90.1779C135.682 89.9079 135.877 89.7279 136.267 89.6379L137.302 89.4579C138.322 89.2779 138.832 88.6929 138.832 87.7029V61.2428C138.832 60.6129 138.727 60.1929 138.517 59.9828C138.337 59.7729 137.932 59.6079 137.302 59.4879L136.267 59.3079C135.877 59.2178 135.682 59.0378 135.682 58.7678C135.682 58.4378 135.907 58.2729 136.357 58.2729H145.447C147.787 58.2729 149.812 58.9629 151.522 60.3429C153.232 61.6929 154.552 63.5979 155.482 66.0578C156.412 68.5178 156.877 71.3679 156.877 74.6079C156.877 77.8779 156.382 80.7129 155.392 83.1129C154.432 85.5129 153.067 87.3729 151.297 88.6929C149.527 90.0129 147.427 90.6729 144.997 90.6729H136.357ZM145.177 89.5029C147.847 89.5029 149.872 88.2279 151.252 85.6779C152.662 83.1279 153.367 79.4379 153.367 74.6079C153.367 69.8079 152.692 66.0879 151.342 63.4479C150.022 60.7779 148.057 59.4429 145.447 59.4429C143.167 59.4429 142.027 60.5379 142.027 62.7278V86.2179C142.027 87.4179 142.267 88.2729 142.747 88.7829C143.257 89.2629 144.067 89.5029 145.177 89.5029Z" fill="black"/>
<defs>
<linearGradient id="paint0_linear_311_123" x1="165.472" y1="37.8947" x2="41.2505" y2="115.186" gradientUnits="userSpaceOnUse">
<stop stop-color="#CEFBFF"/>
<stop offset="1" stop-color="#88D4F7"/>
</linearGradient>
</defs>
</svg>
