<svg width="15" height="33" viewBox="0 0 15 33" fill="none" xmlns="http://www.w3.org/2000/svg">
<rect x="8.25" y="8.98242" width="2" height="2" transform="rotate(90 8.25 8.98242)" fill="black"/>
<rect x="8.25" y="24.9824" width="2" height="2" transform="rotate(-90 8.25 24.9824)" fill="black"/>
<rect x="6.24976" y="24.9824" width="2" height="2" transform="rotate(-90 6.24976 24.9824)" fill="black"/>
<rect x="4.25" y="8.98242" width="2" height="2" transform="rotate(-90 4.25 8.98242)" fill="black"/>
<rect x="4.25" y="6.98242" width="2" height="2" transform="rotate(-90 4.25 6.98242)" fill="black"/>
<rect x="4.25" y="4.98242" width="2" height="2" transform="rotate(-90 4.25 4.98242)" fill="black"/>
<rect x="8.25" y="8.98242" width="2" height="2" transform="rotate(-90 8.25 8.98242)" fill="black"/>
<rect x="8.25" y="10.9824" width="2" height="2" transform="rotate(-90 8.25 10.9824)" fill="black"/>
<rect x="8.25" y="6.98242" width="2" height="2" transform="rotate(-90 8.25 6.98242)" fill="black"/>
<rect x="8.25" y="4.98242" width="2" height="2" transform="rotate(-90 8.25 4.98242)" fill="black"/>
<rect x="6.24976" y="2.98242" width="2" height="2" transform="rotate(-90 6.24976 2.98242)" fill="black"/>
<rect x="6.24976" y="4.98242" width="2" height="2" transform="rotate(-90 6.24976 4.98242)" fill="black"/>
<rect x="8.25" y="2.98242" width="2" height="2" transform="rotate(-90 8.25 2.98242)" fill="black"/>
<rect x="4.25" y="28.9824" width="2" height="2" transform="rotate(-90 4.25 28.9824)" fill="black"/>
<rect x="4.25" y="12.9824" width="2" height="2" transform="rotate(-90 4.25 12.9824)" fill="black"/>
<rect x="8.25" y="20.9824" width="2" height="2" transform="rotate(-90 8.25 20.9824)" fill="black"/>
<rect x="8.25" y="22.9824" width="2" height="2" transform="rotate(-90 8.25 22.9824)" fill="black"/>
<rect x="10.25" y="22.9824" width="2" height="2" transform="rotate(-90 10.25 22.9824)" fill="black"/>
<rect x="2.24976" y="12.9824" width="2" height="2" transform="rotate(-90 2.24976 12.9824)" fill="black"/>
<rect x="2.24976" y="14.9824" width="2" height="2" transform="rotate(-90 2.24976 14.9824)" fill="black"/>
<rect x="0.25" y="14.9824" width="2" height="2" transform="rotate(-90 0.25 14.9824)" fill="black"/>
<rect x="4.25" y="24.9824" width="2" height="2" transform="rotate(-90 4.25 24.9824)" fill="black"/>
<rect x="8.25" y="16.9824" width="2" height="2" transform="rotate(-90 8.25 16.9824)" fill="black"/>
<rect x="12.25" y="16.9824" width="2" height="2" transform="rotate(-90 12.25 16.9824)" fill="black"/>
<rect x="2.24976" y="22.9824" width="2" height="2" transform="rotate(-90 2.24976 22.9824)" fill="black"/>
<rect x="4.25" y="18.9824" width="2" height="2" transform="rotate(-90 4.25 18.9824)" fill="black"/>
<rect x="0.25" y="16.9824" width="2" height="2" transform="rotate(-90 0.25 16.9824)" fill="black"/>
<rect x="0.25" y="18.9824" width="2" height="2" transform="rotate(-90 0.25 18.9824)" fill="black"/>
<rect x="0.25" y="20.9824" width="2" height="2" transform="rotate(-90 0.25 20.9824)" fill="black"/>
<rect x="4.25" y="32.9824" width="2" height="2" transform="rotate(-90 4.25 32.9824)" fill="black"/>
<rect x="0.25" y="30.7825" width="2" height="2" transform="rotate(-90 0.25 30.7825)" fill="black"/>
<rect x="4.25" y="16.9824" width="2" height="2" transform="rotate(-90 4.25 16.9824)" fill="black"/>
<rect x="2.24976" y="32.9824" width="2" height="2" transform="rotate(-90 2.24976 32.9824)" fill="black"/>
<rect x="6.24976" y="32.9824" width="2" height="2" transform="rotate(-90 6.24976 32.9824)" fill="black"/>
<rect x="8.25" y="30.9824" width="2" height="2" transform="rotate(-90 8.25 30.9824)" fill="black"/>
<rect x="8.25" y="32.9824" width="2" height="2" transform="rotate(-90 8.25 32.9824)" fill="black"/>
<rect x="10.25" y="30.9824" width="2" height="2" transform="rotate(-90 10.25 30.9824)" fill="black"/>
<rect x="10.25" y="28.9824" width="2" height="2" transform="rotate(-90 10.25 28.9824)" fill="black"/>
<rect x="10.25" y="26.9824" width="2" height="2" transform="rotate(-90 10.25 26.9824)" fill="black"/>
<rect x="10.25" y="24.9824" width="2" height="2" transform="rotate(-90 10.25 24.9824)" fill="black"/>
<rect x="2.24976" y="30.9824" width="2" height="2" transform="rotate(-90 2.24976 30.9824)" fill="black"/>
<rect x="8.25" y="18.9824" width="2" height="2" transform="rotate(-90 8.25 18.9824)" fill="black"/>
<rect x="8.25" y="14.9824" width="2" height="2" transform="rotate(-90 8.25 14.9824)" fill="black"/>
<rect x="10.25" y="14.9824" width="2" height="2" transform="rotate(-90 10.25 14.9824)" fill="black"/>
<rect x="12.25" y="20.9824" width="2" height="2" transform="rotate(-90 12.25 20.9824)" fill="black"/>
<rect x="12.25" y="18.9824" width="2" height="2" transform="rotate(-90 12.25 18.9824)" fill="black"/>
<rect x="6.24976" y="16.9824" width="2" height="2" transform="rotate(-90 6.24976 16.9824)" fill="black"/>
<rect x="6.24976" y="14.9824" width="2" height="2" transform="rotate(-90 6.24976 14.9824)" fill="black"/>
<rect x="6.24976" y="12.9824" width="2" height="2" transform="rotate(-90 6.24976 12.9824)" fill="black"/>
<rect x="2.24976" y="28.9824" width="2" height="2" transform="rotate(-90 2.24976 28.9824)" fill="black"/>
</svg>
