<svg width="100" height="100" viewBox="0 0 100 100" fill="none" xmlns="http://www.w3.org/2000/svg">
<rect x="25.3452" y="0.394775" width="6.18273" height="6.18273" fill="black"/>
<rect x="19.1625" y="6.5775" width="6.18273" height="6.18273" fill="black"/>
<rect x="25.3452" y="74.5875" width="6.18273" height="6.18273" fill="black"/>
<rect x="37.7107" y="0.394775" width="6.18273" height="6.18273" fill="black"/>
<rect x="37.7107" y="74.5875" width="6.18273" height="6.18273" fill="black"/>
<rect x="50.0762" y="0.394775" width="6.18273" height="6.18273" fill="black"/>
<rect x="56.2589" y="6.5775" width="6.18273" height="6.18273" fill="black"/>
<rect x="50.0762" y="74.5875" width="6.18273" height="6.18273" fill="black"/>
<rect x="31.528" y="0.394775" width="6.18273" height="6.18273" fill="black"/>
<rect x="31.528" y="74.5875" width="6.18273" height="6.18273" fill="black"/>
<rect x="43.8934" y="0.394775" width="6.18273" height="6.18273" fill="black"/>
<rect x="43.8934" y="74.5875" width="6.18273" height="6.18273" fill="black"/>
<rect width="6.18273" height="6.18273" transform="matrix(-1 0 0 1 25.3452 68.4048)" fill="black"/>
<rect x="56.2589" y="68.4048" width="6.18273" height="6.18273" fill="black"/>
<rect x="62.4416" y="6.5775" width="6.18273" height="6.18273" fill="black"/>
<rect width="6.18273" height="6.18273" transform="matrix(-1 0 0 1 19.1625 6.5775)" fill="black"/>
<rect width="6.18273" height="6.18273" transform="matrix(-1 0 0 1 19.1625 68.4048)" fill="black"/>
<rect x="68.6243" y="12.7602" width="6.18273" height="6.18273" fill="black"/>
<rect width="6.18273" height="6.18273" transform="matrix(-1 0 0 1 12.9798 12.7602)" fill="black"/>
<rect x="74.8071" y="31.3084" width="6.18273" height="6.18273" fill="black"/>
<rect width="6.18273" height="6.18273" transform="matrix(-1 0 0 1 6.79706 31.3084)" fill="black"/>
<rect x="74.8071" y="43.6739" width="6.18273" height="6.18273" fill="black"/>
<rect width="6.18273" height="6.18273" transform="matrix(-1 0 0 1 6.79706 43.6739)" fill="black"/>
<rect x="74.8071" y="25.1257" width="6.18273" height="6.18273" fill="black"/>
<rect width="6.18273" height="6.18273" transform="matrix(-1 0 0 1 6.79706 25.1257)" fill="black"/>
<rect x="74.8071" y="37.4911" width="6.18273" height="6.18273" fill="black"/>
<rect width="6.18273" height="6.18273" transform="matrix(-1 0 0 1 6.79706 37.4911)" fill="black"/>
<rect x="74.8071" y="49.8566" width="6.18273" height="6.18273" fill="black"/>
<rect x="68.6243" y="56.0393" width="6.18273" height="6.18273" fill="black"/>
<rect width="6.18273" height="6.18273" transform="matrix(-1 0 0 1 6.79706 49.8566)" fill="black"/>
<rect width="6.18273" height="6.18273" transform="matrix(-1 0 0 1 12.9798 56.0393)" fill="black"/>
<rect x="62.4416" y="68.4048" width="6.18273" height="6.18273" fill="black"/>
<rect x="62.4416" y="62.2221" width="6.18273" height="6.18273" fill="black"/>
<rect x="68.6243" y="62.2221" width="6.18273" height="6.18273" fill="black"/>
<rect width="6.18273" height="6.18273" transform="matrix(-1 0 0 1 12.9798 62.2221)" fill="black"/>
<rect x="80.9898" y="74.5875" width="6.18273" height="6.18273" fill="black"/>
<rect x="74.8071" y="74.5875" width="6.18273" height="6.18273" fill="black"/>
<rect x="74.8071" y="80.7703" width="6.18273" height="6.18273" fill="black"/>
<rect x="68.6243" y="74.5875" width="6.18273" height="6.18273" fill="black"/>
<rect x="74.8071" y="68.4048" width="6.18273" height="6.18273" fill="black"/>
<rect x="68.6243" y="68.4048" width="6.18273" height="6.18273" fill="black"/>
<rect x="87.1725" y="80.7703" width="6.18273" height="6.18273" fill="black"/>
<rect x="80.9898" y="80.7703" width="6.18273" height="6.18273" fill="black"/>
<rect x="80.9898" y="86.953" width="6.18273" height="6.18273" fill="black"/>
<rect x="93.3553" y="86.953" width="6.18273" height="6.18273" fill="black"/>
<rect x="87.1725" y="86.953" width="6.18273" height="6.18273" fill="black"/>
<rect x="87.1725" y="93.1357" width="6.18273" height="6.18273" fill="black"/>
<rect x="93.3553" y="93.1357" width="6.18273" height="6.18273" fill="black"/>
<rect x="68.6243" y="18.943" width="6.18273" height="6.18273" fill="black"/>
<rect width="6.18273" height="6.18273" transform="matrix(-1 0 0 1 12.9798 18.943)" fill="black"/>
</svg>
