<svg width="81" height="81" viewBox="0 0 81 81" fill="none" xmlns="http://www.w3.org/2000/svg">
<rect x="43.3653" y="0.569519" width="6.18273" height="6.18273" fill="black"/>
<rect x="43.3653" y="74.7623" width="6.18273" height="6.18273" fill="black"/>
<rect x="0.0861816" y="12.935" width="6.18273" height="6.18273" fill="black"/>
<rect x="74.2789" y="12.935" width="6.18273" height="6.18273" fill="black"/>
<rect x="0.0861816" y="37.6659" width="6.18273" height="6.18273" fill="black"/>
<rect x="74.2789" y="37.6659" width="6.18273" height="6.18273" fill="black"/>
<rect x="0.0861816" y="25.3004" width="6.18273" height="6.18273" fill="black"/>
<rect x="74.2789" y="25.3004" width="6.18273" height="6.18273" fill="black"/>
<rect x="0.0861816" y="50.0314" width="6.18273" height="6.18273" fill="black"/>
<rect x="74.2789" y="50.0314" width="6.18273" height="6.18273" fill="black"/>
<rect x="6.26891" y="6.75226" width="6.18273" height="6.18273" fill="black"/>
<rect x="68.0962" y="6.75226" width="6.18273" height="6.18273" fill="black"/>
<rect x="6.26891" y="68.5795" width="6.18273" height="6.18273" fill="black"/>
<rect x="68.0962" y="68.5795" width="6.18273" height="6.18273" fill="black"/>
<rect x="12.4516" y="0.569519" width="6.18273" height="6.18273" fill="black"/>
<rect x="12.4516" y="74.7623" width="6.18273" height="6.18273" fill="black"/>
<rect x="49.548" y="0.569519" width="6.18273" height="6.18273" fill="black"/>
<rect x="49.548" y="74.7623" width="6.18273" height="6.18273" fill="black"/>
<rect x="30.9998" y="0.569519" width="6.18273" height="6.18273" fill="black"/>
<rect x="30.9998" y="74.7623" width="6.18273" height="6.18273" fill="black"/>
<rect x="24.8171" y="0.569519" width="6.18273" height="6.18273" fill="black"/>
<rect x="24.8171" y="74.7623" width="6.18273" height="6.18273" fill="black"/>
<rect x="61.9135" y="0.569519" width="6.18273" height="6.18273" fill="black"/>
<rect x="61.9135" y="74.7623" width="6.18273" height="6.18273" fill="black"/>
<rect x="18.6344" y="0.569519" width="6.18273" height="6.18273" fill="black"/>
<rect x="18.6344" y="74.7623" width="6.18273" height="6.18273" fill="black"/>
<rect x="55.7308" y="0.569519" width="6.18273" height="6.18273" fill="black"/>
<rect x="55.7308" y="74.7623" width="6.18273" height="6.18273" fill="black"/>
<rect x="43.3653" y="19.1177" width="6.18273" height="6.18273" fill="black"/>
<rect x="0.0861816" y="19.1177" width="6.18273" height="6.18273" fill="black"/>
<rect x="74.2789" y="19.1177" width="6.18273" height="6.18273" fill="black"/>
<rect x="0.0861816" y="43.8486" width="6.18273" height="6.18273" fill="black"/>
<rect x="74.2789" y="43.8486" width="6.18273" height="6.18273" fill="black"/>
<rect x="0.0861816" y="31.4832" width="6.18273" height="6.18273" fill="black"/>
<rect x="74.2789" y="31.4832" width="6.18273" height="6.18273" fill="black"/>
<rect x="0.0861816" y="56.2141" width="6.18273" height="6.18273" fill="black"/>
<rect x="74.2789" y="56.2141" width="6.18273" height="6.18273" fill="black"/>
<rect x="0.0861816" y="62.3969" width="6.18273" height="6.18273" fill="black"/>
<rect x="74.2789" y="62.3969" width="6.18273" height="6.18273" fill="black"/>
<rect x="37.1826" y="25.3004" width="6.18273" height="6.18273" fill="black"/>
<rect x="30.9998" y="31.4832" width="6.18273" height="6.18273" fill="black"/>
<rect x="37.1826" y="0.569519" width="6.18273" height="6.18273" fill="black"/>
<rect x="37.1826" y="74.7623" width="6.18273" height="6.18273" fill="black"/>
<rect x="49.548" y="62.3968" width="6.18273" height="6.18273" transform="rotate(-180 49.548 62.3968)" fill="black"/>
<rect x="43.3652" y="56.2141" width="6.18273" height="6.18273" transform="rotate(-180 43.3652 56.2141)" fill="black"/>
<rect x="37.1825" y="50.0313" width="6.18273" height="6.18273" transform="rotate(-180 37.1825 50.0313)" fill="black"/>
<rect x="30.9998" y="43.8486" width="6.18273" height="6.18273" transform="rotate(-180 30.9998 43.8486)" fill="black"/>
</svg>
