<svg width="33" height="33" viewBox="0 0 33 33" fill="none" xmlns="http://www.w3.org/2000/svg">
<rect x="5.17432" y="13.2712" width="2.46132" height="2.46132" fill="black"/>
<rect x="5.17261" y="18.1941" width="2.46132" height="2.46132" fill="black"/>
<rect x="22.4045" y="13.2903" width="2.46132" height="2.46132" fill="black"/>
<rect x="12.5583" y="25.5776" width="2.46132" height="2.46132" fill="black"/>
<rect x="2.71338" y="15.7327" width="2.46132" height="2.46132" fill="black"/>
<rect x="19.9419" y="10.8098" width="2.46132" height="2.46132" fill="black"/>
<rect x="17.4819" y="23.1545" width="2.46132" height="2.46132" fill="black"/>
<rect x="12.5569" y="23.1162" width="2.46132" height="2.46132" fill="black"/>
<rect x="10.0959" y="10.8481" width="2.46132" height="2.46132" fill="black"/>
<rect x="15.0178" y="30.5388" width="2.46132" height="2.46132" fill="black"/>
<rect x="29.7886" y="15.7708" width="2.46132" height="2.46132" fill="black"/>
<rect x="15.021" y="0.9646" width="2.46132" height="2.46132" fill="black"/>
<rect x="0.25" y="15.7327" width="2.46132" height="2.46132" fill="black"/>
<rect x="17.4795" y="25.5776" width="2.46132" height="2.46132" fill="black"/>
<rect x="15.0178" y="28.0388" width="2.46132" height="2.46132" fill="black"/>
<rect x="7.63672" y="18.2319" width="2.46132" height="2.46132" fill="black"/>
<rect x="27.3269" y="15.7708" width="2.46132" height="2.46132" fill="black"/>
<rect x="24.8684" y="18.2319" width="2.46132" height="2.46132" fill="black"/>
<rect x="12.5583" y="5.88721" width="2.46132" height="2.46132" fill="black"/>
<rect x="17.4819" y="5.88721" width="2.46132" height="2.46132" fill="black"/>
<rect x="15.0193" y="3.42603" width="2.46132" height="2.46132" fill="black"/>
<rect x="15.02" y="3.42603" width="2.46132" height="2.46132" fill="black"/>
<rect x="17.4819" y="8.34863" width="2.46132" height="2.46132" fill="black"/>
<rect x="12.5576" y="8.34863" width="2.46132" height="2.46132" fill="black"/>
<rect x="7.63599" y="13.2712" width="2.46132" height="2.46132" fill="black"/>
<rect x="10.0952" y="20.6934" width="2.46132" height="2.46132" fill="black"/>
<rect x="24.866" y="13.2903" width="2.46132" height="2.46132" fill="black"/>
<rect x="19.9404" y="20.6934" width="2.46132" height="2.46132" fill="black"/>
<rect x="22.4045" y="18.2319" width="2.46132" height="2.46132" fill="black"/>
</svg>