<svg width="47" height="48" viewBox="0 0 47 48" fill="none" xmlns="http://www.w3.org/2000/svg">
<rect x="38.1323" y="3.37207" width="2.91522" height="2.91522" fill="white"/>
<rect x="41.0476" y="6.28784" width="2.91522" height="2.91522" fill="white"/>
<rect x="32.3024" y="9.20117" width="2.91522" height="2.91522" fill="white"/>
<path d="M32.3024 12.1183H35.2176V15.0335H32.3024V12.1183Z" fill="white"/>
<rect x="11.8955" y="23.7781" width="2.91522" height="2.91522" fill="white"/>
<rect x="8.98024" y="26.6938" width="2.91522" height="2.91522" fill="white"/>
<rect x="6.06497" y="29.6099" width="2.91522" height="2.91522" fill="white"/>
<rect x="0.234421" y="44.1841" width="2.91522" height="2.91522" fill="white"/>
<rect x="3.1497" y="41.271" width="2.91522" height="2.91522" fill="white"/>
<rect x="3.1497" y="44.1841" width="2.91522" height="2.91522" fill="white"/>
<rect x="0.234421" y="38.355" width="2.91522" height="2.91522" fill="white"/>
<rect x="6.06497" y="44.1841" width="2.91522" height="2.91522" fill="white"/>
<rect x="0.234421" y="41.271" width="2.91522" height="2.91522" fill="white"/>
<rect x="32.3028" y="3.37109" width="2.91522" height="2.91522" fill="white"/>
<rect x="35.218" y="0.455322" width="2.91522" height="2.91522" fill="white"/>
<rect x="43.9645" y="9.20044" width="2.91522" height="2.91522" fill="white"/>
<rect x="26.4729" y="9.20044" width="2.91522" height="2.91522" fill="white"/>
<rect x="29.3875" y="9.20044" width="2.91522" height="2.91522" fill="white"/>
<rect x="23.5576" y="12.1165" width="2.91522" height="2.91522" fill="white"/>
<rect x="20.6423" y="15.0325" width="2.91522" height="2.91522" fill="white"/>
<rect x="17.7271" y="17.9456" width="2.91522" height="2.91522" fill="white"/>
<rect x="14.8118" y="20.8616" width="2.91522" height="2.91522" fill="white"/>
<rect x="29.3875" y="6.28442" width="2.91522" height="2.91522" fill="white"/>
<rect x="41.0476" y="12.1177" width="2.91522" height="2.91522" fill="white"/>
<rect x="35.217" y="17.9465" width="2.91522" height="2.91522" fill="white"/>
<rect x="32.3024" y="20.8625" width="2.91522" height="2.91522" fill="white"/>
<rect x="29.3871" y="15.0334" width="2.91522" height="2.91522" fill="white"/>
<rect x="26.4719" y="12.1177" width="2.91522" height="2.91522" fill="white"/>
<rect x="29.3871" y="23.7783" width="2.91522" height="2.91522" fill="white"/>
<rect x="26.4719" y="17.9465" width="2.91522" height="2.91522" fill="white"/>
<rect x="26.4719" y="20.8625" width="2.91522" height="2.91522" fill="white"/>
<rect x="29.3871" y="17.9465" width="2.91522" height="2.91522" fill="white"/>
<rect x="32.3024" y="15.0334" width="2.91522" height="2.91522" fill="white"/>
<rect x="35.217" y="12.1177" width="2.91522" height="2.91522" fill="white"/>
<rect x="23.5566" y="15.0334" width="2.91522" height="2.91522" fill="white"/>
<rect x="20.6413" y="32.5234" width="2.91522" height="2.91522" fill="white"/>
<rect x="17.7261" y="26.6943" width="2.91522" height="2.91522" fill="white"/>
<rect x="17.7261" y="29.6079" width="2.91522" height="2.91522" fill="white"/>
<rect x="14.8108" y="23.7783" width="2.91522" height="2.91522" fill="white"/>
<rect x="8.98024" y="35.4395" width="2.91522" height="2.91522" fill="white"/>
<rect x="8.98024" y="38.3555" width="2.91522" height="2.91522" fill="white"/>
<rect x="6.06497" y="32.5234" width="2.91522" height="2.91522" fill="white"/>
<rect x="8.98024" y="29.6079" width="2.91522" height="2.91522" fill="white"/>
<rect x="11.8955" y="26.6943" width="2.91522" height="2.91522" fill="white"/>
<rect x="26.4719" y="26.6943" width="2.91522" height="2.91522" fill="white"/>
<rect x="23.5566" y="20.8625" width="2.91522" height="2.91522" fill="white"/>
<rect x="23.5566" y="23.7783" width="2.91522" height="2.91522" fill="white"/>
<rect x="20.6413" y="17.9465" width="2.91522" height="2.91522" fill="white"/>
<rect x="17.7261" y="35.4395" width="2.91522" height="2.91522" fill="white"/>
<rect x="11.8955" y="41.2715" width="2.91522" height="2.91522" fill="white"/>
<rect x="3.1497" y="32.5234" width="2.91522" height="2.91522" fill="white"/>
<rect x="14.8108" y="29.6079" width="2.91522" height="2.91522" fill="white"/>
<rect x="14.8108" y="32.5234" width="2.91522" height="2.91522" fill="white"/>
<rect x="23.5566" y="29.6079" width="2.91522" height="2.91522" fill="white"/>
<rect x="20.6413" y="23.7783" width="2.91522" height="2.91522" fill="white"/>
<rect x="20.6413" y="26.6943" width="2.91522" height="2.91522" fill="white"/>
<rect x="17.7261" y="20.8625" width="2.91522" height="2.91522" fill="white"/>
<rect x="11.8955" y="32.5234" width="2.91522" height="2.91522" fill="white"/>
<rect x="11.8955" y="35.4395" width="2.91522" height="2.91522" fill="white"/>
<rect x="14.8108" y="38.3555" width="2.91522" height="2.91522" fill="white"/>
<rect x="8.98024" y="44.1846" width="2.91522" height="2.91522" fill="white"/>
<rect x="0.234421" y="35.4395" width="2.91522" height="2.91522" fill="white"/>
<rect x="38.1323" y="15.0334" width="2.91522" height="2.91522" fill="white"/>
</svg>
