<svg width="33" height="33" viewBox="0 0 33 33" fill="none" xmlns="http://www.w3.org/2000/svg">
<rect x="26.5" y="2.98242" width="2" height="2" fill="black"/>
<rect x="28.5" y="4.98242" width="2" height="2" fill="black"/>
<rect x="22.5" y="6.98242" width="2" height="2" fill="black"/>
<path d="M22.5 8.98242H24.5V10.9824H22.5V8.98242Z" fill="black"/>
<rect x="8.50024" y="16.9824" width="2" height="2" fill="black"/>
<rect x="6.5" y="18.9824" width="2" height="2" fill="black"/>
<rect x="4.50024" y="20.9824" width="2" height="2" fill="black"/>
<rect x="0.5" y="30.9824" width="2" height="2" fill="black"/>
<rect x="2.5" y="28.9824" width="2" height="2" fill="black"/>
<rect x="2.5" y="30.9824" width="2" height="2" fill="black"/>
<rect x="0.5" y="26.9824" width="2" height="2" fill="black"/>
<rect x="4.50024" y="30.9824" width="2" height="2" fill="black"/>
<rect x="0.5" y="28.9824" width="2" height="2" fill="black"/>
<rect x="22.5" y="2.98242" width="2" height="2" fill="black"/>
<rect x="24.4998" y="0.982422" width="2" height="2" fill="black"/>
<rect x="30.5" y="6.98242" width="2" height="2" fill="black"/>
<rect x="18.5" y="6.98242" width="2" height="2" fill="black"/>
<rect x="20.5" y="6.98242" width="2" height="2" fill="black"/>
<rect x="16.5" y="8.98242" width="2" height="2" fill="black"/>
<rect x="14.5" y="10.9824" width="2" height="2" fill="black"/>
<rect x="12.5" y="12.9824" width="2" height="2" fill="black"/>
<rect x="10.5" y="14.9824" width="2" height="2" fill="black"/>
<rect x="20.5" y="4.98242" width="2" height="2" fill="black"/>
<rect x="28.5" y="8.98242" width="2" height="2" fill="black"/>
<rect x="24.5" y="12.9824" width="2" height="2" fill="black"/>
<rect x="22.5" y="14.9824" width="2" height="2" fill="black"/>
<rect x="20.5002" y="10.9824" width="2" height="2" fill="black"/>
<rect x="18.5" y="8.98242" width="2" height="2" fill="black"/>
<rect x="20.5002" y="16.9824" width="2" height="2" fill="black"/>
<rect x="18.5" y="12.9824" width="2" height="2" fill="black"/>
<rect x="18.5" y="14.9824" width="2" height="2" fill="black"/>
<rect x="20.5002" y="12.9824" width="2" height="2" fill="black"/>
<rect x="22.5" y="10.9824" width="2" height="2" fill="black"/>
<rect x="24.5" y="8.98242" width="2" height="2" fill="black"/>
<rect x="16.5002" y="10.9824" width="2" height="2" fill="black"/>
<rect x="14.5" y="22.9824" width="2" height="2" fill="black"/>
<rect x="12.5002" y="18.9824" width="2" height="2" fill="black"/>
<rect x="12.5002" y="20.9824" width="2" height="2" fill="black"/>
<rect x="10.5" y="16.9824" width="2" height="2" fill="black"/>
<rect x="6.5" y="24.9824" width="2" height="2" fill="black"/>
<rect x="6.5" y="26.9824" width="2" height="2" fill="black"/>
<rect x="4.50024" y="22.9824" width="2" height="2" fill="black"/>
<rect x="6.5" y="20.9824" width="2" height="2" fill="black"/>
<rect x="8.50024" y="18.9824" width="2" height="2" fill="black"/>
<rect x="18.5" y="18.9824" width="2" height="2" fill="black"/>
<rect x="16.5002" y="14.9824" width="2" height="2" fill="black"/>
<rect x="16.5002" y="16.9824" width="2" height="2" fill="black"/>
<rect x="14.5" y="12.9824" width="2" height="2" fill="black"/>
<rect x="12.5002" y="24.9824" width="2" height="2" fill="black"/>
<rect x="8.50024" y="28.9824" width="2" height="2" fill="black"/>
<rect x="2.5" y="22.9824" width="2" height="2" fill="black"/>
<rect x="10.5" y="20.9824" width="2" height="2" fill="black"/>
<rect x="10.5" y="22.9824" width="2" height="2" fill="black"/>
<rect x="16.5002" y="20.9824" width="2" height="2" fill="black"/>
<rect x="14.5" y="16.9824" width="2" height="2" fill="black"/>
<rect x="14.5" y="18.9824" width="2" height="2" fill="black"/>
<rect x="12.5002" y="14.9824" width="2" height="2" fill="black"/>
<rect x="8.50024" y="22.9824" width="2" height="2" fill="black"/>
<rect x="8.50024" y="24.9824" width="2" height="2" fill="black"/>
<rect x="10.5" y="26.9824" width="2" height="2" fill="black"/>
<rect x="6.5" y="30.9824" width="2" height="2" fill="black"/>
<rect x="0.5" y="24.9824" width="2" height="2" fill="black"/>
<rect x="26.5" y="10.9824" width="2" height="2" fill="black"/>
</svg>
