<svg width="200" height="150" viewBox="0 0 200 150" fill="none" xmlns="http://www.w3.org/2000/svg">
<path d="M86.0184 26.1385C94.0079 19.7767 105.5 19.6774 113.599 25.8407L113.981 26.1385C119.215 30.3058 126.005 32.1431 132.61 31.1395L133.249 31.0341L145.389 28.8466C151.797 27.6922 157.766 32.3483 158.249 38.7968L158.267 39.1053C158.541 44.8708 162.527 49.765 168.066 51.2274L168.606 51.3573L177.148 53.2343C183.536 54.6377 185.728 62.575 181.084 67.0624L180.857 67.2733C176.341 71.3383 176.27 78.3733 180.645 82.5311L180.857 82.7274C185.718 87.1028 183.704 95.0857 177.45 96.6942L177.148 96.7655L168.606 98.6425C162.969 99.8811 158.816 104.633 158.306 110.34L158.267 110.894C157.959 117.399 152.087 122.175 145.693 121.204L145.389 121.153L133.249 118.967C126.657 117.779 119.824 119.449 114.492 123.466L113.981 123.861C105.992 130.223 94.5009 130.323 86.4022 124.16L86.0184 123.861C80.7849 119.694 73.9952 117.857 67.3895 118.86L66.7509 118.967L54.6112 121.153C48.2027 122.308 42.2351 117.652 41.7518 111.203L41.7323 110.894C41.4591 105.129 37.473 100.236 31.9335 98.7733L31.3934 98.6425L22.8514 96.7655C16.4635 95.3621 14.2725 87.4258 18.9159 82.9384L19.1425 82.7274C23.6591 78.6624 23.7299 71.6265 19.3544 67.4686L19.1425 67.2733C14.281 62.8979 16.2963 54.9147 22.5507 53.3065L22.8514 53.2343L31.3934 51.3573C37.0307 50.1186 41.184 45.3665 41.6942 39.66L41.7323 39.1053C42.0403 32.6009 47.9132 27.8256 54.3065 28.7968L54.6112 28.8466L66.7509 31.0341C73.3431 32.2215 80.1755 30.5508 85.5077 26.5341L86.0184 26.1385Z" fill="url(#paint0_linear_311_116)" stroke="black" stroke-width="2.23353"/>
<path d="M56.6361 90.0364C56.1861 90.0364 55.9611 89.8714 55.9611 89.5414C55.9611 89.2714 56.1561 89.0914 56.5461 89.0014L57.5811 88.8214C58.2111 88.7014 58.6161 88.5364 58.7961 88.3264C59.0061 88.1164 59.1111 87.6964 59.1111 87.0664V60.6064C59.1111 59.9764 59.0061 59.5564 58.7961 59.3464C58.6161 59.1364 58.2111 58.9714 57.5811 58.8514L56.5461 58.6714C56.1561 58.5814 55.9611 58.4014 55.9611 58.1314C55.9611 57.8014 56.1861 57.6364 56.6361 57.6364H71.1261C71.8161 57.6364 72.1911 57.9814 72.2511 58.6714L72.6111 66.1414C72.6711 66.6514 72.4761 66.9064 72.0261 66.9064C71.6661 66.9064 71.4561 66.7114 71.3961 66.3214L71.1711 64.8364C70.9311 63.2764 70.5111 62.0614 69.9111 61.1914C69.3111 60.3214 68.6361 59.7064 67.8861 59.3464C67.1361 58.9564 66.4161 58.7614 65.7261 58.7614C64.4061 58.7614 63.5061 58.9714 63.0261 59.3914C62.5461 59.8114 62.3061 60.4564 62.3061 61.3264V71.9464C62.3061 72.3664 62.5161 72.5764 62.9361 72.5764H64.5111C65.8311 72.5764 66.6411 71.8714 66.9411 70.4614L67.4361 68.2114C67.5261 67.8214 67.7511 67.6264 68.1111 67.6264C68.4711 67.6264 68.6511 67.8814 68.6511 68.3914V78.5164C68.6511 79.0264 68.4711 79.2814 68.1111 79.2814C67.7511 79.2814 67.5261 79.0864 67.4361 78.6964L66.9411 76.4914C66.7311 75.4414 66.4311 74.7514 66.0411 74.4214C65.6811 74.0914 65.1561 73.9264 64.4661 73.9264H62.9361C62.5161 73.9264 62.3061 74.1364 62.3061 74.5564V86.8414C62.3061 87.4714 62.3961 87.9214 62.5761 88.1914C62.7861 88.4314 63.2061 88.5964 63.8361 88.6864L65.9511 89.0014C66.2811 89.0614 66.4461 89.2264 66.4461 89.4964C66.4461 89.8564 66.2211 90.0364 65.7711 90.0364H56.6361ZM85.8502 90.4414C84.2302 90.4414 82.7902 90.0664 81.5302 89.3164C80.3002 88.5364 79.3402 87.4714 78.6502 86.1214C77.9602 84.7414 77.6152 83.1664 77.6152 81.3964V60.6064C77.6152 59.9764 77.5102 59.5564 77.3002 59.3464C77.1202 59.1364 76.7152 58.9714 76.0852 58.8514L75.0502 58.6714C74.6602 58.5814 74.4652 58.4014 74.4652 58.1314C74.4652 57.8014 74.6902 57.6364 75.1402 57.6364H83.3752C83.8252 57.6364 84.0502 57.8164 84.0502 58.1764C84.0502 58.4464 83.8852 58.6114 83.5552 58.6714L82.3402 58.8514C81.7402 58.9414 81.3352 59.1064 81.1252 59.3464C80.9152 59.5864 80.8102 60.0214 80.8102 60.6514V81.4414C80.8102 83.7214 81.3202 85.4914 82.3402 86.7514C83.3602 88.0114 84.7852 88.6414 86.6152 88.6414C88.4752 88.6414 89.9152 88.0114 90.9352 86.7514C91.9552 85.4914 92.4652 83.7214 92.4652 81.4414V61.5514C92.4652 59.9314 91.9552 59.0314 90.9352 58.8514L89.7202 58.6714C89.3902 58.6114 89.2252 58.4464 89.2252 58.1764C89.2252 57.8164 89.4502 57.6364 89.9002 57.6364H96.3802C96.8302 57.6364 97.0552 57.8014 97.0552 58.1314C97.0552 58.4014 96.8602 58.5814 96.4702 58.6714L95.4352 58.8514C94.4152 59.0314 93.9052 59.9164 93.9052 61.5064V81.3964C93.9052 84.1264 93.1702 86.3164 91.7002 87.9664C90.2302 89.6164 88.2802 90.4414 85.8502 90.4414ZM116.906 90.4414C116.426 90.4414 116.021 90.0814 115.691 89.3614L103.496 62.9014C103.406 62.6914 103.286 62.6014 103.136 62.6314C103.016 62.6614 102.956 62.7964 102.956 63.0364V86.1664C102.956 87.0064 103.091 87.6514 103.361 88.1014C103.661 88.5214 104.186 88.7914 104.936 88.9114L105.521 89.0014C105.911 89.0314 106.106 89.2114 106.106 89.5414C106.106 89.8714 105.881 90.0364 105.431 90.0364H98.9962C98.5462 90.0364 98.3212 89.8714 98.3212 89.5414C98.3212 89.2114 98.5162 89.0314 98.9062 89.0014L99.4912 88.9114C100.271 88.7914 100.811 88.5214 101.111 88.1014C101.411 87.6514 101.561 87.0064 101.561 86.1664V60.6064C101.561 59.9764 101.456 59.5564 101.246 59.3464C101.066 59.1364 100.631 58.9714 99.9412 58.8514L98.9062 58.6714C98.5162 58.5814 98.3212 58.4014 98.3212 58.1314C98.3212 57.8014 98.5462 57.6364 98.9962 57.6364H103.811C104.561 57.6364 105.086 57.9664 105.386 58.6264L116.006 81.9814C116.096 82.1614 116.201 82.2364 116.321 82.2064C116.471 82.1764 116.546 82.0714 116.546 81.8914V61.5064C116.546 60.5464 116.381 59.8864 116.051 59.5264C115.721 59.1364 115.301 58.8964 114.791 58.8064L113.981 58.6714C113.591 58.5814 113.396 58.4014 113.396 58.1314C113.396 57.8014 113.621 57.6364 114.071 57.6364H120.506C120.956 57.6364 121.181 57.8014 121.181 58.1314C121.181 58.4614 120.986 58.6414 120.596 58.6714L120.011 58.7614C119.231 58.8814 118.691 59.1364 118.391 59.5264C118.091 59.8864 117.941 60.5464 117.941 61.5064V89.0014C117.941 89.5414 117.836 89.9164 117.626 90.1264C117.446 90.3364 117.206 90.4414 116.906 90.4414ZM123.433 90.0364C122.983 90.0364 122.758 89.8714 122.758 89.5414C122.758 89.2714 122.953 89.0914 123.343 89.0014L124.378 88.8214C125.008 88.7014 125.413 88.5364 125.593 88.3264C125.803 88.1164 125.908 87.6964 125.908 87.0664V60.6064C125.908 59.9764 125.803 59.5564 125.593 59.3464C125.413 59.1364 125.008 58.9714 124.378 58.8514L123.343 58.6714C122.953 58.5814 122.758 58.4014 122.758 58.1314C122.758 57.8014 122.983 57.6364 123.433 57.6364H131.668C132.118 57.6364 132.343 57.8164 132.343 58.1764C132.343 58.4464 132.178 58.6114 131.848 58.6714L130.633 58.8514C130.003 58.9414 129.583 59.1064 129.373 59.3464C129.193 59.5864 129.103 60.0214 129.103 60.6514V72.8014C129.103 73.1014 129.193 73.2814 129.373 73.3414C129.553 73.4014 129.718 73.2964 129.868 73.0264L137.248 61.4614C138.238 59.9314 138.148 59.0614 136.978 58.8514L135.943 58.6714C135.553 58.5814 135.358 58.3864 135.358 58.0864C135.358 57.7864 135.568 57.6364 135.988 57.6364H143.638C144.058 57.6364 144.268 57.8014 144.268 58.1314C144.268 58.4614 144.073 58.6414 143.683 58.6714L142.828 58.7614C141.898 58.8514 141.133 59.1214 140.533 59.5714C139.933 60.0214 139.258 60.8314 138.508 62.0014L133.423 69.9664C133.123 70.4764 133.108 70.9714 133.378 71.4514L141.838 87.3814C142.078 87.8614 142.318 88.2064 142.558 88.4164C142.828 88.6264 143.143 88.7614 143.503 88.8214L144.583 89.0014C144.943 89.0314 145.123 89.2114 145.123 89.5414C145.123 89.8714 144.913 90.0364 144.493 90.0364H136.483C136.063 90.0364 135.853 89.8714 135.853 89.5414C135.853 89.2414 136.048 89.0614 136.438 89.0014L137.203 88.9114C138.373 88.7614 138.613 88.0264 137.923 86.7064L131.443 74.3764C131.323 74.1364 131.188 74.0164 131.038 74.0164C130.888 73.9864 130.738 74.0914 130.588 74.3314L129.643 75.8164C129.433 76.1164 129.283 76.4014 129.193 76.6714C129.133 76.9414 129.103 77.2864 129.103 77.7064V87.0214C129.103 87.6514 129.193 88.0864 129.373 88.3264C129.583 88.5664 130.003 88.7314 130.633 88.8214L131.848 89.0014C132.178 89.0614 132.343 89.2264 132.343 89.4964C132.343 89.8564 132.118 90.0364 131.668 90.0364H123.433Z" fill="black"/>
<defs>
<linearGradient id="paint0_linear_311_116" x1="131.937" y1="26.7216" x2="10.4342" y2="122.207" gradientUnits="userSpaceOnUse">
<stop offset="0.198191" stop-color="#FBD6F2"/>
<stop offset="1" stop-color="#C25AF5"/>
</linearGradient>
</defs>
</svg>
