<svg width="200" height="150" viewBox="0 0 200 150" fill="none" xmlns="http://www.w3.org/2000/svg">
<path d="M116.3 34.8613L116.696 35.1914L117.194 35.0605L141.741 28.6016L145.302 45.2627L145.456 45.9844L146.191 46.0498L171.896 48.3496L162.373 63.5068L161.788 64.4375L162.771 64.9326L182.774 75L162.771 85.0674L161.788 85.5615L162.373 86.4932L171.896 101.649L146.191 103.95L145.456 104.016L145.302 104.737L141.741 121.397L117.194 114.939L116.696 114.809L116.3 115.139L100 128.699L83.7002 115.139L83.3037 114.809L82.8057 114.939L58.2578 121.397L54.6982 104.737L54.5439 104.016L53.8086 103.95L28.1025 101.649L37.627 86.4932L38.2119 85.5615L37.2295 85.0674L17.2246 75L37.2295 64.9326L38.2119 64.4375L37.627 63.5068L28.1025 48.3496L53.8086 46.0498L54.5439 45.9844L54.6982 45.2627L58.2578 28.6016L82.8057 35.0605L83.3037 35.1914L83.7002 34.8613L100 21.2998L116.3 34.8613Z" fill="url(#paint0_linear_311_112)" stroke="black" stroke-width="2"/>
<path d="M69.341 90.0347C68.891 90.0347 68.666 89.8697 68.666 89.5397C68.666 89.2697 68.861 89.0897 69.251 88.9997L70.286 88.8197C70.916 88.6997 71.321 88.5347 71.501 88.3247C71.711 88.1147 71.816 87.6947 71.816 87.0647V60.6047C71.816 59.9747 71.711 59.5547 71.501 59.3447C71.321 59.1347 70.916 58.9697 70.286 58.8497L69.251 58.6697C68.861 58.5797 68.666 58.3997 68.666 58.1297C68.666 57.7997 68.891 57.6347 69.341 57.6347H78.746C80.516 57.6347 82.076 58.0247 83.426 58.8047C84.776 59.5547 85.826 60.6047 86.576 61.9547C87.326 63.3047 87.701 64.8647 87.701 66.6347C87.701 68.3447 87.326 69.8597 86.576 71.1797C85.826 72.4997 84.791 73.5347 83.471 74.2847C82.151 75.0047 80.621 75.3647 78.881 75.3647H75.641C75.221 75.3647 75.011 75.5747 75.011 75.9947V86.8847C75.011 87.5147 75.131 87.9497 75.371 88.1897C75.611 88.3997 76.151 88.5797 76.991 88.7297L78.656 88.9997C78.986 89.0597 79.151 89.2247 79.151 89.4947C79.151 89.8547 78.926 90.0347 78.476 90.0347H69.341ZM75.011 71.7647C75.011 73.4147 76.016 74.2397 78.026 74.2397C79.976 74.2397 81.506 73.5497 82.616 72.1697C83.756 70.7897 84.326 68.8997 84.326 66.4997C84.326 64.0397 83.756 62.1347 82.616 60.7847C81.476 59.4347 79.856 58.7597 77.756 58.7597C75.926 58.7597 75.011 59.3597 75.011 60.5597V71.7647ZM100.248 90.4397C98.8079 90.4397 97.4579 90.0197 96.1979 89.1797C94.9379 88.3097 93.8279 87.1247 92.8679 85.6247C91.9379 84.1247 91.2029 82.3697 90.6629 80.3597C90.1529 78.3197 89.8979 76.1297 89.8979 73.7897C89.8979 71.4497 90.1529 69.2747 90.6629 67.2647C91.2029 65.2547 91.9379 63.4997 92.8679 61.9997C93.8279 60.4697 94.9379 59.2847 96.1979 58.4447C97.4579 57.6047 98.8079 57.1847 100.248 57.1847C101.688 57.1847 103.023 57.6047 104.253 58.4447C105.513 59.2847 106.623 60.4697 107.583 61.9997C108.543 63.4997 109.278 65.2547 109.788 67.2647C110.328 69.2747 110.598 71.4497 110.598 73.7897C110.598 76.1297 110.328 78.3197 109.788 80.3597C109.278 82.3697 108.543 84.1247 107.583 85.6247C106.623 87.1247 105.513 88.3097 104.253 89.1797C103.023 90.0197 101.688 90.4397 100.248 90.4397ZM100.248 89.2247C102.378 89.2247 104.043 87.9497 105.243 85.3997C106.443 82.8497 107.043 78.9797 107.043 73.7897C107.043 68.5997 106.443 64.7447 105.243 62.2247C104.043 59.6747 102.378 58.3997 100.248 58.3997C98.1479 58.3997 96.4829 59.6747 95.2529 62.2247C94.0529 64.7447 93.4529 68.5997 93.4529 73.7897C93.4529 78.9797 94.0529 82.8497 95.2529 85.3997C96.4829 87.9497 98.1479 89.2247 100.248 89.2247ZM112.815 90.0347C112.365 90.0347 112.14 89.8697 112.14 89.5397C112.14 89.2697 112.335 89.0897 112.725 88.9997L113.76 88.8197C114.39 88.6997 114.795 88.5347 114.975 88.3247C115.185 88.1147 115.29 87.6947 115.29 87.0647V60.6047C115.29 59.9747 115.185 59.5547 114.975 59.3447C114.795 59.1347 114.39 58.9697 113.76 58.8497L112.725 58.6697C112.335 58.5797 112.14 58.3997 112.14 58.1297C112.14 57.7997 112.365 57.6347 112.815 57.6347H122.22C123.99 57.6347 125.55 58.0247 126.9 58.8047C128.25 59.5547 129.3 60.6047 130.05 61.9547C130.8 63.3047 131.175 64.8647 131.175 66.6347C131.175 68.3447 130.8 69.8597 130.05 71.1797C129.3 72.4997 128.265 73.5347 126.945 74.2847C125.625 75.0047 124.095 75.3647 122.355 75.3647H119.115C118.695 75.3647 118.485 75.5747 118.485 75.9947V86.8847C118.485 87.5147 118.605 87.9497 118.845 88.1897C119.085 88.3997 119.625 88.5797 120.465 88.7297L122.13 88.9997C122.46 89.0597 122.625 89.2247 122.625 89.4947C122.625 89.8547 122.4 90.0347 121.95 90.0347H112.815ZM118.485 71.7647C118.485 73.4147 119.49 74.2397 121.5 74.2397C123.45 74.2397 124.98 73.5497 126.09 72.1697C127.23 70.7897 127.8 68.8997 127.8 66.4997C127.8 64.0397 127.23 62.1347 126.09 60.7847C124.95 59.4347 123.33 58.7597 121.23 58.7597C119.4 58.7597 118.485 59.3597 118.485 60.5597V71.7647Z" fill="black"/>
<defs>
<linearGradient id="paint0_linear_311_112" x1="46.2695" y1="130" x2="157.768" y2="43.4339" gradientUnits="userSpaceOnUse">
<stop offset="0.0748646" stop-color="#FFD600"/>
<stop offset="0.808728" stop-color="#FFF59A"/>
</linearGradient>
</defs>
</svg>
