<svg width="314" height="112" viewBox="0 0 314 112" fill="none" xmlns="http://www.w3.org/2000/svg">
<path d="M44.1989 108.357C41.3746 108.555 39.174 107.526 37.5972 105.271C36.0204 103.016 35.6869 99.3735 36.5965 94.343L43.2716 59.5814C43.9207 56.4613 43.8902 54.3348 43.1803 53.2019C42.5488 52.0635 41.6839 51.5326 40.5855 51.6095C38.8595 51.7301 36.9749 52.9657 34.9318 55.316C32.9616 57.5824 30.9314 60.6809 28.8411 64.6113C26.8237 68.4578 24.8813 72.8115 23.0137 77.6724C21.2191 82.4494 19.6006 87.49 18.1582 92.7942C16.7103 98.0199 15.6073 103.103 14.8491 108.044C14.674 108.924 14.155 109.394 13.292 109.454L8.34934 109.8C7.25097 109.877 6.78381 109.397 6.94785 108.36L18.9698 33.3719C19.2634 31.9322 19.1948 30.9516 18.7641 30.4298C18.4119 29.9026 17.6838 29.6381 16.58 29.6365L13.0248 29.5303C11.8425 29.5341 11.2969 29.0598 11.388 28.1074C11.4955 27.3903 12.0145 26.9204 12.945 26.6977C15.7365 26.0294 18.2086 25.3047 20.3615 24.5234C22.5088 23.6637 24.211 22.6381 25.4679 21.4464C26.0627 20.9318 26.6346 20.6553 27.1838 20.6169C28.1253 20.5511 28.5194 21.1148 28.3664 22.3081L20.3309 73.1297C20.2908 73.6843 20.4304 73.9899 20.7498 74.0464C21.0691 74.103 21.3299 73.8876 21.5324 73.4004C24.2207 66.7477 26.8482 61.4788 29.4147 57.5939C31.9812 53.7091 34.4257 50.897 36.7481 49.1579C39.1489 47.4132 41.3693 46.4695 43.4091 46.3269C46.3119 46.1239 48.5125 47.1526 50.0108 49.413C51.5092 51.6734 51.7615 55.2823 50.7679 60.2398L44.2105 94.9932C43.8149 97.2284 43.8909 98.8787 44.4384 99.9441C44.986 101.01 45.8874 101.498 47.1427 101.411C48.7118 101.301 50.1703 100.174 51.5183 98.0299C52.8609 95.8074 54.1921 91.733 55.5122 85.8066C55.6872 84.9271 56.167 84.46 56.9515 84.4051C57.5792 84.3612 57.9487 84.5719 58.06 85.0371C58.2499 85.4969 58.2883 86.0461 58.1753 86.6847C57.0577 92.1239 55.7428 96.4337 54.2308 99.6141C52.7133 102.716 51.0934 104.919 49.3712 106.222C47.7275 107.519 46.0034 108.231 44.1989 108.357ZM65.6861 106.855C62.8618 107.052 60.58 105.99 58.8408 103.667C57.1016 101.345 56.0675 97.8301 55.7383 93.1228C55.4256 88.6508 55.7405 84.135 56.6831 79.5753C57.6202 74.9371 59.0445 70.5014 60.9559 66.2681C62.8674 62.0348 65.0864 58.2531 67.6128 54.9229C70.2178 51.5872 72.987 48.9101 75.9206 46.8917C78.9271 44.7893 81.9603 43.6311 85.02 43.4172C86.5107 43.313 87.9448 43.528 89.3224 44.0624C90.6946 44.5183 91.856 45.3437 92.8068 46.5387C93.3269 47.2119 93.8224 47.532 94.2931 47.4991C94.7638 47.4662 95.2099 47.0802 95.6312 46.3412C96.4064 45.0256 97.0577 44.1916 97.5849 43.8394C98.1067 43.4087 98.6029 43.1769 99.0736 43.144C100.094 43.0727 100.524 43.5944 100.366 44.7093L93.0437 90.5141C92.2235 95.696 93.1863 98.1909 95.9322 97.9989C97.7367 97.8727 99.26 96.5442 100.502 94.0134C101.823 91.477 103.05 87.6069 104.184 82.4031C104.359 81.5237 104.839 81.0565 105.623 81.0016C106.173 80.9632 106.542 81.1739 106.732 81.6337C106.922 82.0934 106.96 82.6426 106.847 83.2812C105.872 90.7602 104.242 96.1959 101.956 99.5881C99.6652 102.902 96.7544 104.682 93.2239 104.929C90.1641 105.143 87.8769 104.002 86.3621 101.506C84.9258 99.0051 84.5612 95.4828 85.2684 90.9396L86.3457 84.3601C86.4642 83.7999 86.3246 83.4943 85.9268 83.4433C85.6075 83.3868 85.3466 83.6021 85.1442 84.0893C81.3832 92.315 77.9257 98.1149 74.7716 101.489C71.6959 104.858 68.6674 106.646 65.6861 106.855ZM68.2085 100.647C70.0914 100.515 72.0909 99.2325 74.207 96.7982C76.3231 94.3639 78.3534 91.2654 80.2978 87.5029C82.3206 83.7349 84.1281 79.706 85.7203 75.4162C87.3124 71.1264 88.5233 67.0209 89.3528 63.0998C90.2608 59.1732 90.6216 55.8762 90.435 53.2087C90.1004 48.423 88.2463 46.148 84.8727 46.3839C82.8329 46.5266 80.7412 47.6189 78.5977 49.6609C76.4487 51.6245 74.4247 54.2494 72.5259 57.5358C70.7055 60.8166 69.0722 64.518 67.626 68.6399C66.2527 72.6779 65.207 76.89 64.4888 81.2764C63.7652 85.5843 63.546 89.778 63.8312 93.8577C64.0232 96.6036 64.4687 98.4646 65.1677 99.4406C65.9396 100.333 66.9532 100.735 68.2085 100.647ZM109.076 103.939C106.487 104.12 104.578 103.307 103.347 101.501C102.112 99.6166 101.851 96.4419 102.563 91.9771L113.024 26.795C113.318 25.3553 113.249 24.3746 112.818 23.8529C112.466 23.3256 111.738 23.0612 110.634 23.0596L107.079 22.9534C105.897 22.9572 105.351 22.4829 105.442 21.5305C105.55 20.8134 106.069 20.3435 106.999 20.1208C109.791 19.4525 112.263 18.7278 114.416 17.9465C116.563 17.0868 118.265 16.0612 119.522 14.8695C120.117 14.3549 120.689 14.0784 121.238 14.04C122.179 13.9742 122.574 14.5379 122.421 15.7312L110.221 91.5599C109.949 93.3133 109.967 94.6918 110.273 95.6952C110.653 96.6148 111.431 97.0334 112.608 96.9511C114.02 96.8523 115.479 95.7254 116.984 93.5704C118.562 91.3314 120.207 87.235 121.919 81.2812C122.162 80.2394 122.675 79.691 123.46 79.6361C124.637 79.5538 125 80.238 124.549 81.6886C123.275 87.1387 121.727 91.5042 119.907 94.7851C118.16 97.982 116.349 100.277 114.475 101.669C112.602 103.062 110.802 103.818 109.076 103.939ZM120.554 101.954C119.534 102.025 119.106 101.542 119.27 100.506L127.601 48.8359C128.104 45.8837 127.062 44.4981 124.473 44.6792L122.001 44.852C120.746 44.9398 120.08 44.4345 120.003 43.3361C119.926 42.2377 120.594 41.6392 122.006 41.5404C124.438 41.3703 126.221 40.9303 127.354 40.2204C128.565 39.505 129.301 38.1921 129.562 36.2818C130.269 31.7385 131.483 27.6723 133.202 24.0831C134.995 20.41 137.233 17.4548 139.915 15.2174C142.596 12.9801 145.624 11.7435 148.998 11.5076C151.743 11.3156 153.987 11.8288 155.728 13.0473C157.541 14.1819 158.528 15.8868 158.687 18.162C158.808 19.888 158.436 21.3331 157.571 22.4973C156.779 23.5776 155.717 24.1644 154.383 24.2576C152.735 24.3728 151.604 23.9789 150.989 23.0759C150.452 22.1673 150.062 21.0909 149.817 19.8466C149.651 18.5968 149.339 17.5149 148.881 16.6008C148.423 15.6868 147.487 15.2792 146.075 15.3779C144.271 15.5041 142.725 16.5188 141.439 18.422C140.226 20.2413 139.241 23.6214 138.483 28.5625L136.845 38.9654C136.681 40.0018 137.148 40.4816 138.246 40.4048L147.661 39.7465C149.152 39.6422 149.778 40.1503 149.541 41.2706C149.383 42.3854 148.715 42.984 147.538 43.0663L137.3 43.7822C136.515 43.8371 136.033 44.265 135.852 45.066L127.054 100.198C126.879 101.078 126.36 101.548 125.497 101.608L120.554 101.954ZM153.718 98.0972L161.615 50.36C161.886 48.6066 161.832 47.2701 161.453 46.3506C161.146 45.3471 160.404 44.8865 159.227 44.9688C157.815 45.0676 156.32 46.2364 154.742 48.4754C153.237 50.6305 151.629 54.6849 149.916 60.6387C149.674 61.6805 149.16 62.2289 148.376 62.2838C147.199 62.3661 146.836 61.6819 147.286 60.2313C148.634 54.6972 150.142 50.3345 151.811 47.143C153.558 43.9461 155.369 41.6515 157.242 40.259C159.116 38.8666 160.877 38.1128 162.524 37.9976C165.113 37.8165 167.025 38.6683 168.261 40.5529C169.491 42.359 169.75 45.4944 169.037 49.9593L166.984 62.8747C166.944 63.4294 167.083 63.735 167.403 63.7915C167.722 63.848 167.983 63.6327 168.185 63.1455C170.801 56.5766 173.392 51.3498 175.958 47.4649C178.519 43.5015 181 40.6475 183.401 38.9029C185.802 37.1582 188.022 36.2146 190.062 36.0719C192.965 35.869 195.165 36.8977 196.664 39.158C198.162 41.4184 198.414 45.0274 197.421 49.9849L190.863 84.7382C190.468 86.9734 190.544 88.6237 191.091 89.6891C191.639 90.7546 192.54 91.2434 193.795 91.1557C195.365 91.0459 196.823 89.919 198.171 87.775C199.592 85.547 200.923 81.4725 202.165 75.5516C202.34 74.6722 202.82 74.205 203.604 74.1501C204.232 74.1063 204.601 74.3169 204.713 74.7822C204.903 75.2419 204.941 75.7911 204.828 76.4297C203.71 81.8689 202.396 86.1787 200.884 89.3592C199.366 92.4612 197.746 94.6637 196.024 95.9667C194.38 97.2642 192.656 97.976 190.852 98.1022C188.027 98.2997 185.827 97.271 184.25 95.0161C182.673 92.7612 182.34 89.1185 183.249 84.0881L189.924 49.3265C190.573 46.2064 190.543 44.0799 189.833 42.9469C189.202 41.8085 188.337 41.2777 187.238 41.3545C185.512 41.4752 183.628 42.7107 181.585 45.0611C179.536 47.333 177.506 50.4314 175.494 54.3563C173.477 58.2028 171.534 62.5565 169.667 67.4174C167.799 72.2783 166.141 77.3217 164.693 82.5475C163.324 87.7677 162.26 92.8484 161.502 97.7894C161.327 98.6689 160.808 99.1388 159.945 99.1991L155.12 99.5365C154.021 99.6133 153.554 99.1335 153.718 98.0972ZM220.094 96.0574C215.23 96.3975 211.246 94.6658 208.141 90.862C205.032 86.9799 203.236 81.5868 202.753 74.6827C202.396 69.5831 202.877 64.6221 204.196 59.7996C205.514 54.9771 207.378 50.6288 209.788 46.7549C212.276 42.8755 215.093 39.7615 218.24 37.4128C221.46 34.9801 224.757 33.6458 228.13 33.4099C232.995 33.0698 236.979 34.8016 240.083 38.6053C243.187 42.409 244.983 47.8021 245.472 54.7846C245.828 59.8842 245.347 64.8452 244.029 69.6678C242.711 74.4903 240.807 78.8412 238.319 82.7206C235.91 86.5946 233.095 89.7478 229.875 92.1805C226.728 94.5292 223.468 95.8215 220.094 96.0574ZM219.661 93.2495C222.172 93.0739 224.519 91.6878 226.702 89.0911C228.964 86.4889 230.936 83.1187 232.618 78.9803C234.299 74.8419 235.559 70.2995 236.395 65.353C237.226 60.328 237.469 55.3442 237.124 50.4015C236.438 40.5946 233.545 35.8695 228.446 36.2261C226.014 36.3962 223.666 37.7823 221.404 40.3845C219.137 42.9082 217.162 46.2392 215.481 50.3776C213.878 54.5105 212.66 59.0894 211.829 64.1144C210.993 69.0609 210.747 74.0055 211.093 78.9481C211.784 88.8335 214.64 93.6006 219.661 93.2495ZM254.465 93.654C251.797 93.8405 249.644 92.9267 248.005 90.9127C246.367 88.8986 245.893 85.5023 246.583 80.7237L253.372 37.4395C253.525 36.2462 253.013 35.6907 251.836 35.773L247.364 36.0857C246.266 36.1625 245.681 35.691 245.61 34.6711C245.572 34.1219 245.737 33.6767 246.108 33.3354C246.478 32.9942 246.938 32.8043 247.487 32.7659L251.724 32.4697C253.528 32.3435 254.53 31.4457 254.728 29.7762L256.672 16.9866C256.847 16.1071 257.366 15.6372 258.229 15.5769L263.054 15.2395C264.153 15.1627 264.62 15.6425 264.456 16.6789L262.427 29.9474C262.274 31.1406 262.786 31.6961 263.963 31.6138L270.671 31.1448C272.004 31.0515 272.707 31.5148 272.778 32.5348C272.86 33.7116 272.078 34.3576 270.43 34.4728L264.075 34.9172C262.349 35.0379 261.348 35.9357 261.071 37.6107L254.197 81.3738C253.926 83.1273 254.061 84.4975 254.603 85.4845C255.218 86.3875 256.153 86.7952 257.408 86.7074C259.213 86.5812 260.789 85.4461 262.137 83.302C263.564 81.1525 264.94 77.1537 266.265 71.3058C266.508 70.264 266.982 69.7183 267.688 69.669C268.237 69.6306 268.607 69.8412 268.797 70.301C268.986 70.7608 268.929 71.632 268.625 72.9147C267.507 78.3539 266.145 82.5488 264.538 85.4993C263.009 88.4444 261.381 90.5292 259.653 91.7538C257.92 92.8999 256.191 93.5333 254.465 93.654ZM281.956 91.7316C277.797 92.0224 274.351 90.6472 271.615 87.6061C268.874 84.4865 267.295 79.9455 266.878 73.9829C266.516 68.8049 267.059 63.603 268.507 58.3772C270.033 53.1459 272.142 48.347 274.832 43.9804C277.523 39.6138 280.545 36.0518 283.9 33.2944C287.334 30.5315 290.737 29.032 294.111 28.7961C297.798 28.5383 300.49 29.2567 302.185 30.9515C303.953 32.5623 304.941 34.8583 305.15 37.8396C305.397 41.3701 304.388 44.9884 302.125 48.6944C299.934 52.3165 296.699 55.6569 292.419 58.7155C288.217 61.7687 283.182 64.1706 277.313 65.9212C275.614 66.4342 274.78 67.478 274.812 69.0526C274.772 69.6073 274.773 70.1984 274.817 70.8261C274.856 71.3752 274.894 71.9244 274.933 72.4736C275.245 76.9456 276.226 80.267 277.876 82.438C279.604 84.6034 281.802 85.5929 284.47 85.4064C287.451 85.1979 290.219 83.6247 292.773 80.6868C295.405 77.7433 297.487 73.6952 299.019 68.5424C299.205 67.8199 299.651 67.4339 300.357 67.3845C300.828 67.3516 301.116 67.5286 301.222 67.9153C301.406 68.2967 301.439 68.7674 301.321 69.3275C299.293 76.4071 296.598 81.8384 293.236 85.6212C289.952 89.3986 286.192 91.4354 281.956 91.7316ZM275.47 61.5563C275.351 62.1164 275.463 62.5817 275.804 62.952C276.218 63.2384 276.695 63.2839 277.233 63.0886C282.004 61.4148 285.943 59.1289 289.052 56.231C292.155 53.2546 294.413 50.0221 295.824 46.5333C297.314 43.039 297.947 39.6836 297.722 36.4669C297.492 33.1718 296.082 31.6148 293.493 31.7958C291.218 31.9549 288.84 33.4615 286.359 36.3155C283.878 39.1695 281.65 42.8335 279.677 47.3076C277.704 51.7818 276.301 56.5313 275.47 61.5563ZM306.746 89.9981C305.099 90.1133 303.729 89.6966 302.638 88.748C301.541 87.721 300.938 86.4229 300.828 84.8538C300.686 82.8139 301.277 81.117 302.601 79.763C303.925 78.4089 305.372 77.6771 306.941 77.5673C308.51 77.4576 309.843 77.9163 310.94 78.9433C312.11 79.8865 312.749 81.1426 312.859 82.7117C313.002 84.7515 312.411 86.4484 311.086 87.8025C309.762 89.1565 308.315 89.8884 306.746 89.9981Z" fill="black"/>
</svg>
