<svg width="100" height="100" viewBox="0 0 100 100" fill="none" xmlns="http://www.w3.org/2000/svg">
<path d="M40.9316 11.8037C45.7695 6.39992 54.2305 6.39992 59.0684 11.8037C61.9863 15.0632 66.2276 16.8204 70.5957 16.5791C77.838 16.1787 83.8213 22.162 83.4209 29.4043C83.1796 33.7724 84.9368 38.0137 88.1963 40.9316C93.6001 45.7695 93.6001 54.2305 88.1963 59.0684C84.9368 61.9863 83.1796 66.2276 83.4209 70.5957C83.8213 77.838 77.838 83.8213 70.5957 83.4209C66.2276 83.1796 61.9863 84.9368 59.0684 88.1963C54.2305 93.6001 45.7695 93.6001 40.9316 88.1963C38.0137 84.9368 33.7724 83.1796 29.4043 83.4209C22.162 83.8213 16.1787 77.838 16.5791 70.5957C16.8204 66.2276 15.0632 61.9863 11.8037 59.0684C6.39992 54.2305 6.39992 45.7695 11.8037 40.9316C15.0632 38.0137 16.8204 33.7724 16.5791 29.4043C16.1787 22.162 22.162 16.1787 29.4043 16.5791C33.7724 16.8204 38.0137 15.0632 40.9316 11.8037Z" fill="url(#paint0_linear_1747_4124)" stroke="black" stroke-width="2.23353"/>
<line x1="36.5975" y1="74.3376" x2="67.3617" y2="33.6875" stroke="black" stroke-width="1.63039" stroke-linecap="round"/>
<mask id="path-3-outside-1_1747_4124" maskUnits="userSpaceOnUse" x="29" y="25" width="19" height="35" fill="black">
<rect fill="white" x="29" y="25" width="19" height="35"/>
<path d="M38.6162 58.3896C36.9423 58.3896 35.4992 58.0144 34.287 57.264C33.0748 56.4848 32.1368 55.5035 31.473 54.3201C30.838 53.108 30.5206 51.8525 30.5206 50.5537C30.5206 48.7643 31.0256 47.1769 32.0358 45.7915C33.046 44.3773 34.4746 43.1796 36.3217 42.1983C36.4949 42.1117 36.5815 42.0107 36.5815 41.8952C36.5815 41.7509 36.5093 41.6211 36.365 41.5056C34.7488 40.4089 33.551 39.1678 32.7718 37.7825C31.9925 36.3682 31.6029 34.9685 31.6029 33.5831C31.6029 32.14 31.9492 30.8845 32.6419 29.8167C33.3634 28.7488 34.3014 27.9118 35.4559 27.3057C36.6104 26.6996 37.8658 26.3966 39.2223 26.3966C40.5211 26.3966 41.69 26.6996 42.729 27.3057C43.768 27.8829 44.5906 28.6911 45.1967 29.7301C45.8028 30.7402 46.1058 31.8947 46.1058 33.1935C46.1058 34.6943 45.644 36.0941 44.7205 37.3928C43.7969 38.6627 42.5703 39.7162 41.0406 40.5532C40.8674 40.6398 40.7809 40.7552 40.7809 40.8995C40.7809 41.015 40.8674 41.1304 41.0406 41.2458C43.1475 42.5735 44.6339 43.9444 45.4997 45.3586C46.3944 46.744 46.8418 48.2736 46.8418 49.9476C46.8418 51.5639 46.481 53.0069 45.7595 54.2769C45.0379 55.5468 44.0567 56.5569 42.8156 57.3073C41.5746 58.0289 40.1748 58.3896 38.6162 58.3896ZM39.0925 40.0337C39.4677 40.2934 39.8429 40.279 40.2181 39.9904C41.3148 39.2111 42.1374 38.2154 42.6857 37.0032C43.263 35.791 43.5516 34.4778 43.5516 33.0636C43.5516 31.3896 43.1764 30.062 42.426 29.0807C41.7044 28.0705 40.6077 27.5655 39.1358 27.5655C37.635 27.5655 36.4228 28.0128 35.4992 28.9075C34.6045 29.8022 34.1571 30.9856 34.1571 32.4575C34.1571 33.3233 34.2726 34.1748 34.5035 35.0117C34.7632 35.8487 35.2539 36.6857 35.9754 37.5227C36.6969 38.3308 37.736 39.1678 39.0925 40.0337ZM38.7028 57.2207C40.4345 57.2207 41.791 56.7012 42.7723 55.6622C43.7825 54.6232 44.2875 53.2234 44.2875 51.4629C44.2875 49.9909 44.0134 48.7354 43.465 47.6964C42.9455 46.6285 42.2384 45.705 41.3437 44.9257C40.449 44.1176 39.4244 43.3816 38.2699 42.7178C37.8947 42.458 37.5195 42.458 37.1443 42.7178C34.489 44.5361 33.1614 47.1913 33.1614 50.6836C33.1614 51.7803 33.3346 52.8338 33.6809 53.8439C34.0273 54.8541 34.6045 55.6766 35.4126 56.3116C36.2207 56.9177 37.3175 57.2207 38.7028 57.2207Z"/>
</mask>
<path d="M38.6162 58.3896C36.9423 58.3896 35.4992 58.0144 34.287 57.264C33.0748 56.4848 32.1368 55.5035 31.473 54.3201C30.838 53.108 30.5206 51.8525 30.5206 50.5537C30.5206 48.7643 31.0256 47.1769 32.0358 45.7915C33.046 44.3773 34.4746 43.1796 36.3217 42.1983C36.4949 42.1117 36.5815 42.0107 36.5815 41.8952C36.5815 41.7509 36.5093 41.6211 36.365 41.5056C34.7488 40.4089 33.551 39.1678 32.7718 37.7825C31.9925 36.3682 31.6029 34.9685 31.6029 33.5831C31.6029 32.14 31.9492 30.8845 32.6419 29.8167C33.3634 28.7488 34.3014 27.9118 35.4559 27.3057C36.6104 26.6996 37.8658 26.3966 39.2223 26.3966C40.5211 26.3966 41.69 26.6996 42.729 27.3057C43.768 27.8829 44.5906 28.6911 45.1967 29.7301C45.8028 30.7402 46.1058 31.8947 46.1058 33.1935C46.1058 34.6943 45.644 36.0941 44.7205 37.3928C43.7969 38.6627 42.5703 39.7162 41.0406 40.5532C40.8674 40.6398 40.7809 40.7552 40.7809 40.8995C40.7809 41.015 40.8674 41.1304 41.0406 41.2458C43.1475 42.5735 44.6339 43.9444 45.4997 45.3586C46.3944 46.744 46.8418 48.2736 46.8418 49.9476C46.8418 51.5639 46.481 53.0069 45.7595 54.2769C45.0379 55.5468 44.0567 56.5569 42.8156 57.3073C41.5746 58.0289 40.1748 58.3896 38.6162 58.3896ZM39.0925 40.0337C39.4677 40.2934 39.8429 40.279 40.2181 39.9904C41.3148 39.2111 42.1374 38.2154 42.6857 37.0032C43.263 35.791 43.5516 34.4778 43.5516 33.0636C43.5516 31.3896 43.1764 30.062 42.426 29.0807C41.7044 28.0705 40.6077 27.5655 39.1358 27.5655C37.635 27.5655 36.4228 28.0128 35.4992 28.9075C34.6045 29.8022 34.1571 30.9856 34.1571 32.4575C34.1571 33.3233 34.2726 34.1748 34.5035 35.0117C34.7632 35.8487 35.2539 36.6857 35.9754 37.5227C36.6969 38.3308 37.736 39.1678 39.0925 40.0337ZM38.7028 57.2207C40.4345 57.2207 41.791 56.7012 42.7723 55.6622C43.7825 54.6232 44.2875 53.2234 44.2875 51.4629C44.2875 49.9909 44.0134 48.7354 43.465 47.6964C42.9455 46.6285 42.2384 45.705 41.3437 44.9257C40.449 44.1176 39.4244 43.3816 38.2699 42.7178C37.8947 42.458 37.5195 42.458 37.1443 42.7178C34.489 44.5361 33.1614 47.1913 33.1614 50.6836C33.1614 51.7803 33.3346 52.8338 33.6809 53.8439C34.0273 54.8541 34.6045 55.6766 35.4126 56.3116C36.2207 56.9177 37.3175 57.2207 38.7028 57.2207Z" fill="black"/>
<path d="M34.287 57.264L33.8188 57.9924L33.825 57.9963L33.8313 58.0002L34.287 57.264ZM31.473 54.3201L30.706 54.7219L30.7118 54.7329L30.7179 54.7438L31.473 54.3201ZM32.0358 45.7915L32.7354 46.3017L32.7404 46.2948L32.0358 45.7915ZM36.3217 42.1983L35.9345 41.4238L35.925 41.4286L35.9155 41.4336L36.3217 42.1983ZM36.365 41.5056L36.9059 40.8295L36.8794 40.8082L36.8512 40.7891L36.365 41.5056ZM32.7718 37.7825L32.0134 38.2003L32.0171 38.207L32.7718 37.7825ZM32.6419 29.8167L31.9245 29.3319L31.9199 29.3387L31.9155 29.3455L32.6419 29.8167ZM35.4559 27.3057L35.0534 26.5391L35.0534 26.5391L35.4559 27.3057ZM42.729 27.3057L42.2927 28.0536L42.3006 28.0582L42.3085 28.0626L42.729 27.3057ZM45.1967 29.7301L44.4487 30.1664L44.4542 30.1755L45.1967 29.7301ZM44.7205 37.3928L45.4208 37.9021L45.4261 37.8946L44.7205 37.3928ZM41.0406 40.5532L41.4278 41.3276L41.4422 41.3204L41.4562 41.3127L41.0406 40.5532ZM41.0406 41.2458L40.5603 41.9663L40.5696 41.9725L40.579 41.9784L41.0406 41.2458ZM45.4997 45.3586L44.7613 45.8107L44.7667 45.8196L44.7724 45.8284L45.4997 45.3586ZM45.7595 54.2769L46.5123 54.7046L45.7595 54.2769ZM42.8156 57.3073L43.2508 58.0559L43.2572 58.0521L43.2636 58.0483L42.8156 57.3073ZM39.0925 40.0337L39.5853 39.3218L39.572 39.3125L39.5583 39.3038L39.0925 40.0337ZM40.2181 39.9904L39.7166 39.2845L39.7032 39.2941L39.6901 39.3041L40.2181 39.9904ZM42.6857 37.0032L41.904 36.6309L41.9003 36.6386L41.8968 36.6463L42.6857 37.0032ZM42.426 29.0807L41.7214 29.584L41.7296 29.5954L41.7382 29.6066L42.426 29.0807ZM35.4992 28.9075L34.8967 28.2856L34.8869 28.2953L35.4992 28.9075ZM34.5035 35.0117L33.6688 35.242L33.6725 35.2553L33.6765 35.2684L34.5035 35.0117ZM35.9754 37.5227L35.3196 38.0881L35.3245 38.0938L35.3295 38.0994L35.9754 37.5227ZM42.7723 55.6622L42.1514 55.0586L42.1428 55.0677L42.7723 55.6622ZM43.465 47.6964L42.6864 48.0752L42.6926 48.088L42.6992 48.1006L43.465 47.6964ZM41.3437 44.9257L40.7633 45.5682L40.7691 45.5735L40.775 45.5786L41.3437 44.9257ZM38.2699 42.7178L37.7771 43.4297L37.8069 43.4503L37.8383 43.4684L38.2699 42.7178ZM37.1443 42.7178L37.6335 43.4322L37.6372 43.4297L37.1443 42.7178ZM33.6809 53.8439L32.8619 54.1247L33.6809 53.8439ZM35.4126 56.3116L34.8777 56.9924L34.8853 56.9984L34.8931 57.0043L35.4126 56.3116ZM38.6162 58.3896L38.6162 57.5238C37.0748 57.5238 35.7957 57.1797 34.7427 56.5278L34.287 57.264L33.8313 58.0002C35.2027 58.8492 36.8097 59.2555 38.6162 59.2555L38.6162 58.3896ZM34.287 57.264L34.7552 56.5357C33.6545 55.8281 32.8184 54.9487 32.2281 53.8965L31.473 54.3201L30.7179 54.7438C31.4553 56.0583 32.4951 57.1414 33.8188 57.9924L34.287 57.264ZM31.473 54.3201L32.24 53.9184C31.6664 52.8233 31.3864 51.705 31.3864 50.5537L30.5206 50.5537L29.6547 50.5537C29.6547 52 30.0097 53.3926 30.706 54.7219L31.473 54.3201ZM30.5206 50.5537L31.3864 50.5537C31.3864 48.9391 31.8382 47.5321 32.7354 46.3017L32.0358 45.7915L31.3362 45.2814C30.2131 46.8217 29.6547 48.5895 29.6547 50.5537L30.5206 50.5537ZM32.0358 45.7915L32.7404 46.2948C33.6584 45.0096 34.9754 43.894 36.728 42.9629L36.3217 42.1983L35.9155 41.4336C33.9739 42.4652 32.4336 43.745 31.3312 45.2883L32.0358 45.7915ZM36.3217 42.1983L36.709 42.9727C36.9644 42.845 37.4474 42.5219 37.4474 41.8952L36.5815 41.8952L35.7157 41.8952C35.7157 41.7152 35.7897 41.5752 35.8592 41.4941C35.917 41.4266 35.961 41.4106 35.9345 41.4238L36.3217 42.1983ZM36.5815 41.8952L37.4474 41.8952C37.4474 41.4169 37.193 41.0591 36.9059 40.8295L36.365 41.5056L35.8242 42.1817C35.8291 42.1857 35.8007 42.1644 35.7705 42.1101C35.7373 42.0504 35.7157 41.9747 35.7157 41.8952L36.5815 41.8952ZM36.365 41.5056L36.8512 40.7891C35.3209 39.7507 34.2267 38.6028 33.5264 37.358L32.7718 37.7825L32.0171 38.207C32.8754 39.7328 34.1767 41.067 35.8789 42.2221L36.365 41.5056ZM32.7718 37.7825L33.5301 37.3646C32.8096 36.057 32.4687 34.7998 32.4687 33.5831L31.6029 33.5831L30.737 33.5831C30.737 35.1371 31.1754 36.6794 32.0134 38.2003L32.7718 37.7825ZM31.6029 33.5831L32.4687 33.5831C32.4687 32.2842 32.7784 31.1973 33.3683 30.2878L32.6419 29.8167L31.9155 29.3455C31.12 30.5718 30.737 31.9958 30.737 33.5831L31.6029 33.5831ZM32.6419 29.8167L33.3593 30.3014C33.9998 29.3535 34.829 28.6127 35.8584 28.0723L35.4559 27.3057L35.0534 26.5391C33.7739 27.2109 32.7271 28.1441 31.9245 29.3319L32.6419 29.8167ZM35.4559 27.3057L35.8584 28.0723C36.8836 27.5341 38.0002 27.2624 39.2223 27.2624L39.2223 26.3966L39.2223 25.5307C37.7315 25.5307 36.3371 25.8651 35.0534 26.5391L35.4559 27.3057ZM39.2223 26.3966L39.2223 27.2624C40.3804 27.2624 41.3966 27.5309 42.2927 28.0536L42.729 27.3057L43.1653 26.5578C41.9834 25.8683 40.6618 25.5307 39.2223 25.5307L39.2223 26.3966ZM42.729 27.3057L42.3085 28.0626C43.2099 28.5633 43.9201 29.26 44.4488 30.1664L45.1967 29.7301L45.9446 29.2938C45.2611 28.1221 44.3262 27.2025 43.1495 26.5488L42.729 27.3057ZM45.1967 29.7301L44.4542 30.1755C44.9715 31.0376 45.24 32.0351 45.24 33.1935L46.1058 33.1935L46.9717 33.1935C46.9717 31.7543 46.6341 30.4429 45.9391 29.2846L45.1967 29.7301ZM46.1058 33.1935L45.24 33.1935C45.24 34.503 44.841 35.7292 44.0148 36.891L44.7205 37.3928L45.4261 37.8946C46.4471 36.4589 46.9717 34.8855 46.9717 33.1935L46.1058 33.1935ZM44.7205 37.3928L44.0202 36.8836C43.1798 38.0391 42.055 39.0112 40.625 39.7936L41.0406 40.5532L41.4562 41.3127C43.0856 40.4212 44.414 39.2864 45.4207 37.9021L44.7205 37.3928ZM41.0406 40.5532L40.6534 39.7787C40.3038 39.9535 39.915 40.3142 39.915 40.8995L40.7809 40.8995L41.6467 40.8995C41.6467 41.0147 41.6076 41.1321 41.5385 41.2242C41.4784 41.3043 41.4223 41.3304 41.4278 41.3276L41.0406 40.5532ZM40.7809 40.8995L39.915 40.8995C39.915 41.4746 40.3349 41.816 40.5603 41.9663L41.0406 41.2458L41.5209 40.5254C41.483 40.5002 41.5031 40.5059 41.5385 40.5532C41.5791 40.6073 41.6467 40.7273 41.6467 40.8995L40.7809 40.8995ZM41.0406 41.2458L40.579 41.9784C42.625 43.2676 43.991 44.5526 44.7613 45.8107L45.4997 45.3586L46.2382 44.9065C45.2767 43.3362 43.6701 41.8793 41.5022 40.5133L41.0406 41.2458ZM45.4997 45.3586L44.7724 45.8284C45.5753 47.0715 45.976 48.4376 45.976 49.9476L46.8418 49.9476L47.7076 49.9476C47.7076 48.1097 47.2136 46.4164 46.2271 44.8889L45.4997 45.3586ZM46.8418 49.9476L45.976 49.9476C45.976 51.4303 45.6464 52.7231 45.0067 53.8491L45.7595 54.2769L46.5123 54.7046C47.3156 53.2908 47.7076 51.6975 47.7076 49.9476L46.8418 49.9476ZM45.7595 54.2769L45.0067 53.8491C44.3577 54.9912 43.481 55.8932 42.3676 56.5664L42.8156 57.3073L43.2636 58.0483C44.6323 57.2207 45.7182 56.1023 46.5123 54.7046L45.7595 54.2769ZM42.8156 57.3073L42.3804 56.5588C41.2827 57.197 40.0354 57.5238 38.6162 57.5238L38.6162 58.3896L38.6162 59.2555C40.3141 59.2555 41.8664 58.8607 43.2508 58.0559L42.8156 57.3073ZM39.0925 40.0337L38.5996 40.7456C38.9074 40.9586 39.2761 41.0987 39.6885 41.0829C40.0975 41.0671 40.4534 40.9018 40.746 40.6767L40.2181 39.9904L39.6901 39.3041C39.6484 39.3362 39.6222 39.3486 39.6124 39.3526C39.6041 39.3559 39.6084 39.353 39.622 39.3524C39.6358 39.3519 39.6443 39.3545 39.6429 39.3541C39.64 39.3531 39.6208 39.3463 39.5853 39.3218L39.0925 40.0337ZM40.2181 39.9904L40.7196 40.6962C41.9398 39.8292 42.8623 38.7136 43.4746 37.3601L42.6857 37.0032L41.8968 36.6463C41.4124 37.7172 40.6898 38.5931 39.7166 39.2845L40.2181 39.9904ZM42.6857 37.0032L43.4675 37.3755C44.103 36.0408 44.4174 34.5996 44.4174 33.0636L43.5516 33.0636L42.6857 33.0636C42.6857 34.356 42.4229 35.5412 41.904 36.6309L42.6857 37.0032ZM43.5516 33.0636L44.4174 33.0636C44.4174 31.2663 44.0145 29.7327 43.1138 28.5547L42.426 29.0807L41.7382 29.6066C42.3382 30.3913 42.6857 31.5129 42.6857 33.0636L43.5516 33.0636ZM42.426 29.0807L43.1305 28.5774C42.2149 27.2955 40.8282 26.6996 39.1358 26.6996L39.1358 27.5655L39.1358 28.4313C40.3872 28.4313 41.194 28.8455 41.7214 29.584L42.426 29.0807ZM39.1358 27.5655L39.1358 26.6996C37.4505 26.6996 36.0087 27.2084 34.8967 28.2856L35.4992 28.9075L36.1016 29.5294C36.8369 28.8172 37.8194 28.4313 39.1358 28.4313L39.1358 27.5655ZM35.4992 28.9075L34.8869 28.2953C33.8033 29.3789 33.2913 30.7964 33.2913 32.4575L34.1571 32.4575L35.023 32.4575C35.023 31.1747 35.4057 30.2255 36.1114 29.5198L35.4992 28.9075ZM34.1571 32.4575L33.2913 32.4575C33.2913 33.4014 33.4173 34.3302 33.6688 35.242L34.5035 35.0117L35.3381 34.7815C35.1279 34.0193 35.023 33.2453 35.023 32.4575L34.1571 32.4575ZM34.5035 35.0117L33.6765 35.2684C33.9794 36.2444 34.54 37.1837 35.3196 38.0881L35.9754 37.5227L36.6312 36.9574C35.9677 36.1877 35.547 35.453 35.3304 34.7551L34.5035 35.0117ZM35.9754 37.5227L35.3295 38.0994C36.1226 38.9876 37.2324 39.8736 38.6266 40.7635L39.0925 40.0337L39.5583 39.3038C38.2395 38.462 37.2713 37.674 36.6213 36.946L35.9754 37.5227ZM38.7028 57.2207L38.7028 58.0866C40.6184 58.0866 42.2231 57.5048 43.4018 56.2567L42.7723 55.6622L42.1428 55.0677C41.359 55.8977 40.2506 56.3549 38.7028 56.3549L38.7028 57.2207ZM42.7723 55.6622L43.3931 56.2658C44.5929 55.0317 45.1534 53.3974 45.1534 51.4629L44.2875 51.4629L43.4217 51.4629C43.4217 53.0494 42.972 54.2147 42.1515 55.0586L42.7723 55.6622ZM44.2875 51.4629L45.1534 51.4629C45.1534 49.885 44.8594 48.4834 44.2307 47.2923L43.465 47.6964L42.6992 48.1006C43.1673 48.9874 43.4217 50.0969 43.4217 51.4629L44.2875 51.4629ZM43.465 47.6964L44.2436 47.3176C43.6733 46.1453 42.8948 45.1285 41.9123 44.2728L41.3437 44.9257L40.775 45.5786C41.582 46.2815 42.2177 47.1118 42.6864 48.0752L43.465 47.6964ZM41.3437 44.9257L41.924 44.2832C40.9793 43.4298 39.9038 42.6585 38.7015 41.9672L38.2699 42.7178L37.8383 43.4684C38.945 44.1047 39.9187 44.8053 40.7633 45.5682L41.3437 44.9257ZM38.2699 42.7178L38.7628 42.0059C38.4621 41.7978 38.1059 41.6571 37.7071 41.6571C37.3083 41.6571 36.9521 41.7978 36.6515 42.0059L37.1443 42.7178L37.6372 43.4297C37.6757 43.403 37.6996 43.3931 37.7089 43.3899C37.717 43.3871 37.7152 43.3888 37.7071 43.3888C37.699 43.3888 37.6972 43.3871 37.7053 43.3899C37.7146 43.3931 37.7385 43.403 37.7771 43.4297L38.2699 42.7178ZM37.1443 42.7178L36.6551 42.0034C33.7414 43.9986 32.2956 46.9343 32.2956 50.6836L33.1614 50.6836L34.0273 50.6836C34.0273 47.4484 35.2367 45.0735 37.6335 43.4322L37.1443 42.7178ZM33.1614 50.6836L32.2956 50.6836C32.2956 51.8733 32.4837 53.0218 32.8619 54.1247L33.6809 53.8439L34.5 53.5631C34.1854 52.6458 34.0273 51.6874 34.0273 50.6836L33.1614 50.6836ZM33.6809 53.8439L32.8619 54.1247C33.2601 55.2863 33.9329 56.2501 34.8777 56.9924L35.4126 56.3116L35.9475 55.6308C35.276 55.1031 34.7944 54.4218 34.5 53.5631L33.6809 53.8439ZM35.4126 56.3116L34.8931 57.0043C35.8979 57.7579 37.1985 58.0866 38.7028 58.0866L38.7028 57.2207L38.7028 56.3549C37.4364 56.3549 36.5436 56.0775 35.9321 55.6189L35.4126 56.3116Z" fill="black" mask="url(#path-3-outside-1_1747_4124)"/>
<mask id="path-5-outside-2_1747_4124" maskUnits="userSpaceOnUse" x="54.4905" y="55.3155" width="15" height="16" fill="black">
<rect fill="white" x="54.4905" y="55.3155" width="15" height="16"/>
<path d="M55.9337 70.3155C55.7377 70.3155 55.6396 70.2436 55.6396 70.0999C55.6396 69.9561 55.7246 69.8777 55.8945 69.8646L56.659 69.7862C56.9334 69.7601 57.1163 69.6948 57.2078 69.5902C57.3124 69.4857 57.3646 69.2962 57.3646 69.0217L57.3646 57.378C57.3646 57.1558 57.2993 57.0121 57.1686 56.9467C57.051 56.8683 56.8942 56.8422 56.6982 56.8683L55.9925 56.9467C55.7573 56.9598 55.6396 56.8749 55.6396 56.6919C55.6396 56.5482 55.7442 56.4567 55.9533 56.4175C56.6459 56.2999 57.1555 56.1888 57.4823 56.0842C57.809 55.9666 58.0507 55.9078 58.2075 55.9078C58.482 55.9078 58.6192 56.0516 58.6192 56.3391L58.6192 69.0217C58.6192 69.2962 58.6649 69.4857 58.7564 69.5902C58.8609 69.6948 59.0504 69.7601 59.3249 69.7862L59.9717 69.8646C60.1416 69.8777 60.2266 69.9561 60.2266 70.0999C60.2266 70.2436 60.1286 70.3155 59.9325 70.3155L55.9337 70.3155ZM64.9316 70.4919C64.1736 70.4919 63.5071 70.1717 62.9321 69.5314C62.3571 68.8911 61.9128 68.022 61.5992 66.9243C61.2856 65.8266 61.1287 64.5982 61.1287 63.2391C61.1287 61.88 61.2856 60.6581 61.5992 59.5735C61.9128 58.4757 62.3571 57.6067 62.9321 56.9663C63.5071 56.326 64.1736 56.0058 64.9316 56.0058C65.6895 56.0058 66.3495 56.326 66.9114 56.9663C67.4864 57.6067 67.9307 58.4757 68.2444 59.5735C68.5711 60.6581 68.7344 61.88 68.7344 63.2391C68.7344 64.5982 68.5711 65.8266 68.2444 66.9243C67.9307 68.022 67.4864 68.8911 66.9114 69.5314C66.3495 70.1717 65.6895 70.4919 64.9316 70.4919ZM64.9316 69.9626C65.7549 69.9626 66.356 69.4073 66.735 68.2965C67.127 67.1857 67.323 65.4999 67.323 63.2391C67.323 60.9783 67.127 59.299 66.735 58.2013C66.356 57.0905 65.7549 56.5351 64.9316 56.5351C64.1083 56.5351 63.5006 57.0905 63.1086 58.2013C62.7296 59.299 62.5401 60.9783 62.5401 63.2391C62.5401 65.4999 62.7296 67.1857 63.1086 68.2965C63.5006 69.4073 64.1083 69.9626 64.9316 69.9626Z"/>
</mask>
<path d="M55.9337 70.3155C55.7377 70.3155 55.6396 70.2436 55.6396 70.0999C55.6396 69.9561 55.7246 69.8777 55.8945 69.8646L56.659 69.7862C56.9334 69.7601 57.1163 69.6948 57.2078 69.5902C57.3124 69.4857 57.3646 69.2962 57.3646 69.0217L57.3646 57.378C57.3646 57.1558 57.2993 57.0121 57.1686 56.9467C57.051 56.8683 56.8942 56.8422 56.6982 56.8683L55.9925 56.9467C55.7573 56.9598 55.6396 56.8749 55.6396 56.6919C55.6396 56.5482 55.7442 56.4567 55.9533 56.4175C56.6459 56.2999 57.1555 56.1888 57.4823 56.0842C57.809 55.9666 58.0507 55.9078 58.2075 55.9078C58.482 55.9078 58.6192 56.0516 58.6192 56.3391L58.6192 69.0217C58.6192 69.2962 58.6649 69.4857 58.7564 69.5902C58.8609 69.6948 59.0504 69.7601 59.3249 69.7862L59.9717 69.8646C60.1416 69.8777 60.2266 69.9561 60.2266 70.0999C60.2266 70.2436 60.1286 70.3155 59.9325 70.3155L55.9337 70.3155ZM64.9316 70.4919C64.1736 70.4919 63.5071 70.1717 62.9321 69.5314C62.3571 68.8911 61.9128 68.022 61.5992 66.9243C61.2856 65.8266 61.1287 64.5982 61.1287 63.2391C61.1287 61.88 61.2856 60.6581 61.5992 59.5735C61.9128 58.4757 62.3571 57.6067 62.9321 56.9663C63.5071 56.326 64.1736 56.0058 64.9316 56.0058C65.6895 56.0058 66.3495 56.326 66.9114 56.9663C67.4864 57.6067 67.9307 58.4757 68.2444 59.5735C68.5711 60.6581 68.7344 61.88 68.7344 63.2391C68.7344 64.5982 68.5711 65.8266 68.2444 66.9243C67.9307 68.022 67.4864 68.8911 66.9114 69.5314C66.3495 70.1717 65.6895 70.4919 64.9316 70.4919ZM64.9316 69.9626C65.7549 69.9626 66.356 69.4073 66.735 68.2965C67.127 67.1857 67.323 65.4999 67.323 63.2391C67.323 60.9783 67.127 59.299 66.735 58.2013C66.356 57.0905 65.7549 56.5351 64.9316 56.5351C64.1083 56.5351 63.5006 57.0905 63.1086 58.2013C62.7296 59.299 62.5401 60.9783 62.5401 63.2391C62.5401 65.4999 62.7296 67.1857 63.1086 68.2965C63.5006 69.4073 64.1083 69.9626 64.9316 69.9626Z" fill="black"/>
<path d="M55.8945 69.8646L55.9297 70.3221L55.9413 70.3209L55.8945 69.8646ZM56.659 69.7862L56.6155 69.3296L56.6122 69.33L56.659 69.7862ZM57.2078 69.5902L56.8835 69.2659L56.8727 69.2767L56.8627 69.2882L57.2078 69.5902ZM57.1686 56.9467L56.9142 57.3284L56.938 57.3442L56.9635 57.357L57.1686 56.9467ZM56.6982 56.8683L56.7488 57.3243L56.7588 57.323L56.6982 56.8683ZM55.9925 56.9467L56.0179 57.4047L56.0306 57.404L56.0431 57.4026L55.9925 56.9467ZM55.9533 56.4175L55.8765 55.9653L55.8688 55.9667L55.9533 56.4175ZM57.4823 56.0842L57.622 56.5211L57.6299 56.5186L57.6376 56.5158L57.4823 56.0842ZM58.7564 69.5902L58.4112 69.8922L58.4213 69.9037L58.4321 69.9145L58.7564 69.5902ZM59.3249 69.7862L59.3801 69.3308L59.3683 69.3297L59.3249 69.7862ZM59.9717 69.8646L59.9166 70.3199L59.9265 70.3212L59.9366 70.3219L59.9717 69.8646ZM55.9337 70.3155L55.9337 69.8569C55.8782 69.8569 55.9196 69.8443 55.9844 69.8917C56.0215 69.919 56.0544 69.9579 56.0755 70.0044C56.0955 70.0484 56.0983 70.0841 56.0983 70.0999H55.6396H55.181C55.181 70.2876 55.2527 70.4926 55.4419 70.6314C55.6047 70.7508 55.7931 70.7741 55.9337 70.7741L55.9337 70.3155ZM55.6396 70.0999H56.0983C56.0983 70.1086 56.097 70.1339 56.084 70.1681C56.0701 70.2044 56.0466 70.2405 56.0144 70.2703C55.9525 70.3274 55.9006 70.3242 55.9296 70.3219L55.8945 69.8646L55.8593 69.4074C55.7184 69.4182 55.5391 69.4607 55.3923 69.5962C55.2337 69.7426 55.181 69.9334 55.181 70.0999H55.6396ZM55.8945 69.8646L55.9413 70.3209L56.7058 70.2425L56.659 69.7862L56.6122 69.33L55.8477 69.4084L55.8945 69.8646ZM56.659 69.7862L56.7024 70.2428C56.9943 70.215 57.3373 70.1388 57.553 69.8922L57.2078 69.5902L56.8627 69.2882C56.8849 69.2628 56.8934 69.2694 56.8477 69.2857C56.8035 69.3015 56.7293 69.3188 56.6155 69.3297L56.659 69.7862ZM57.2078 69.5902L57.5321 69.9145C57.7717 69.6749 57.8233 69.3241 57.8233 69.0217L57.3646 69.0217H56.906C56.906 69.1327 56.8951 69.2049 56.8833 69.2477C56.8716 69.2903 56.8642 69.2853 56.8835 69.2659L57.2078 69.5902ZM57.3646 69.0217L57.8233 69.0217L57.8233 57.378L57.3646 57.378L56.906 57.378L56.906 69.0217H57.3646ZM57.3646 57.378L57.8233 57.378C57.8233 57.0825 57.7328 56.7161 57.3737 56.5365L57.1686 56.9467L56.9635 57.357C56.9486 57.3495 56.9331 57.3384 56.9198 57.3241C56.9068 57.3103 56.9004 57.2983 56.8981 57.2934C56.8961 57.289 56.8983 57.2922 56.9009 57.3067C56.9035 57.3213 56.906 57.3444 56.906 57.378L57.3646 57.378ZM57.1686 56.9467L57.423 56.5651C57.1816 56.4042 56.9001 56.3787 56.6375 56.4137L56.6982 56.8683L56.7588 57.323C56.8221 57.3145 56.8634 57.3167 56.8874 57.3207C56.899 57.3227 56.9061 57.3249 56.9098 57.3263C56.9116 57.327 56.9128 57.3276 56.9134 57.3279C56.9137 57.3281 56.9139 57.3282 56.914 57.3282C56.9141 57.3283 56.9142 57.3284 56.9142 57.3284L57.1686 56.9467ZM56.6982 56.8683L56.6475 56.4125L55.9418 56.4909L55.9925 56.9467L56.0431 57.4026L56.7488 57.3242L56.6982 56.8683ZM55.9925 56.9467L55.967 56.4888C55.9361 56.4905 55.9256 56.4879 55.9297 56.4888C55.9344 56.4897 55.9619 56.4961 55.9964 56.521C56.0338 56.5481 56.0638 56.5857 56.0816 56.6264C56.098 56.6636 56.0983 56.6896 56.0983 56.6919L55.6396 56.6919L55.181 56.6919C55.181 56.8879 55.2502 57.1136 55.4593 57.2646C55.6423 57.3968 55.8562 57.4137 56.0179 57.4047L55.9925 56.9467ZM55.6396 56.6919L56.0983 56.6919C56.0983 56.7126 56.0942 56.7444 56.0784 56.7802C56.0623 56.8163 56.04 56.8432 56.0201 56.8607C55.9861 56.8903 55.9745 56.8801 56.0378 56.8683L55.9533 56.4175L55.8688 55.9667C55.723 55.994 55.5545 56.0492 55.416 56.1703C55.2603 56.3066 55.181 56.493 55.181 56.6919L55.6396 56.6919ZM55.9533 56.4175L56.0301 56.8697C56.7268 56.7513 57.2629 56.636 57.622 56.5211L57.4823 56.0842L57.3425 55.6474C57.0482 55.7416 56.565 55.8484 55.8765 55.9653L55.9533 56.4175ZM57.4823 56.0842L57.6376 56.5158C57.9601 56.3997 58.1368 56.3665 58.2075 56.3665L58.2075 55.9078L58.2075 55.4492C57.9646 55.4492 57.6578 55.5336 57.3269 55.6527L57.4823 56.0842ZM58.2075 55.9078L58.2075 56.3665C58.2374 56.3665 58.2443 56.3705 58.2364 56.3678C58.2321 56.3663 58.2242 56.363 58.2143 56.3568C58.2043 56.3505 58.194 56.3423 58.1845 56.3323C58.1644 56.3112 58.1575 56.2928 58.1564 56.2895C58.156 56.2881 58.1605 56.3023 58.1605 56.3391L58.6192 56.3391L59.0778 56.3391C59.0778 56.1298 59.0282 55.8877 58.848 55.699C58.664 55.5062 58.421 55.4492 58.2075 55.4492L58.2075 55.9078ZM58.6192 56.3391L58.1605 56.3391L58.1605 69.0217L58.6192 69.0217H59.0778L59.0778 56.3391L58.6192 56.3391ZM58.6192 69.0217L58.1605 69.0217C58.1605 69.3144 58.2026 69.6538 58.4112 69.8922L58.7564 69.5902L59.1016 69.2882C59.1202 69.3095 59.1114 69.3122 59.0993 69.2621C59.0876 69.2136 59.0778 69.1362 59.0778 69.0217H58.6192ZM58.7564 69.5902L58.4321 69.9145C58.6542 70.1366 58.9811 70.2142 59.2814 70.2428L59.3249 69.7862L59.3683 69.3297C59.2548 69.3188 59.1768 69.3014 59.1264 69.284C59.0753 69.2664 59.0695 69.2547 59.0807 69.2659L58.7564 69.5902ZM59.3249 69.7862L59.2697 70.2415L59.9166 70.3199L59.9717 69.8646L60.0269 69.4093L59.3801 69.3309L59.3249 69.7862ZM59.9717 69.8646L59.9366 70.3219C59.9656 70.3242 59.9137 70.3274 59.8518 70.2703C59.8196 70.2405 59.7961 70.2044 59.7823 70.1681C59.7692 70.1339 59.7679 70.1086 59.7679 70.0999L60.2266 70.0999H60.6852C60.6852 69.9334 60.6325 69.7426 60.4739 69.5962C60.3271 69.4607 60.1478 69.4182 60.0069 69.4074L59.9717 69.8646ZM60.2266 70.0999L59.7679 70.0999C59.7679 70.0841 59.7707 70.0484 59.7907 70.0044C59.8118 69.9579 59.8447 69.919 59.8818 69.8917C59.9466 69.8443 59.988 69.8569 59.9325 69.8569L59.9325 70.3155L59.9325 70.7741C60.0731 70.7741 60.2615 70.7508 60.4243 70.6314C60.6136 70.4926 60.6852 70.2876 60.6852 70.0999H60.2266ZM59.9325 70.3155L59.9325 69.8569L55.9337 69.8569L55.9337 70.3155L55.9337 70.7741L59.9325 70.7741L59.9325 70.3155ZM62.9321 69.5314L63.2734 69.225L62.9321 69.5314ZM61.5992 66.9243L62.0402 66.7983L61.5992 66.9243ZM61.5992 59.5735L62.0398 59.7009L62.0402 59.6994L61.5992 59.5735ZM62.9321 56.9663L62.5909 56.6599V56.6599L62.9321 56.9663ZM66.9114 56.9663L66.5667 57.2689L66.5702 57.2728L66.9114 56.9663ZM68.2444 59.5735L67.8033 59.6995L67.8052 59.7057L68.2444 59.5735ZM68.2444 66.9243L67.8047 66.7935L67.8034 66.7983L68.2444 66.9243ZM66.9114 69.5314L66.5701 69.225L66.5667 69.2289L66.9114 69.5314ZM66.735 68.2965L66.3025 68.1438L66.3009 68.1484L66.735 68.2965ZM66.735 58.2013L66.3009 58.3494L66.3031 58.3555L66.735 58.2013ZM63.1086 58.2013L62.6761 58.0486L62.675 58.0516L63.1086 58.2013ZM63.1086 68.2965L62.6745 68.4446L62.6761 68.4491L63.1086 68.2965ZM64.9316 70.4919L64.9316 70.0333C64.3222 70.0333 63.7745 69.783 63.2734 69.225L62.9321 69.5314L62.5909 69.8378C63.2398 70.5605 64.0251 70.9505 64.9316 70.9505V70.4919ZM62.9321 69.5314L63.2734 69.225C62.7575 68.6505 62.3407 67.85 62.0402 66.7983L61.5992 66.9243L61.1582 67.0503C61.485 68.1941 61.9568 69.1316 62.5909 69.8378L62.9321 69.5314ZM61.5992 66.9243L62.0402 66.7983C61.7402 65.7485 61.5874 64.5634 61.5874 63.2391H61.1287L60.6701 63.2391C60.6701 64.6329 60.8309 65.9047 61.1582 67.0503L61.5992 66.9243ZM61.1287 63.2391H61.5874C61.5874 61.9146 61.7403 60.7367 62.0398 59.7008L61.5992 59.5735L61.1586 59.4461C60.8308 60.5795 60.6701 61.8453 60.6701 63.2391L61.1287 63.2391ZM61.5992 59.5735L62.0402 59.6994C62.3407 58.6478 62.7575 57.8473 63.2734 57.2728L62.9321 56.9663L62.5909 56.6599C61.9568 57.3661 61.485 58.3037 61.1582 59.4475L61.5992 59.5735ZM62.9321 56.9663L63.2734 57.2728C63.7745 56.7148 64.3222 56.4645 64.9316 56.4645V56.0058L64.9316 55.5472C64.0251 55.5472 63.2398 55.9372 62.5909 56.6599L62.9321 56.9663ZM64.9316 56.0058V56.4645C65.5403 56.4645 66.0798 56.714 66.5667 57.2689L66.9114 56.9663L67.2561 56.6638C66.6192 55.938 65.8388 55.5472 64.9316 55.5472L64.9316 56.0058ZM66.9114 56.9663L66.5702 57.2728C67.086 57.8473 67.5029 58.6478 67.8034 59.6994L68.2444 59.5735L68.6853 59.4475C68.3586 58.3037 67.8868 57.3661 67.2527 56.6599L66.9114 56.9663ZM68.2444 59.5735L67.8052 59.7057C68.1167 60.7399 68.2758 61.9161 68.2758 63.2391H68.7344L69.1931 63.2391C69.1931 61.8438 69.0254 60.5763 68.6835 59.4412L68.2444 59.5735ZM68.7344 63.2391H68.2758C68.2758 64.5619 68.1167 65.7453 67.8048 66.7935L68.2444 66.9243L68.6839 67.0551C69.0254 65.9079 69.1931 64.6345 69.1931 63.2391L68.7344 63.2391ZM68.2444 66.9243L67.8034 66.7983C67.5029 67.85 67.086 68.6505 66.5702 69.225L66.9114 69.5314L67.2527 69.8378C67.8868 69.1316 68.3586 68.1941 68.6853 67.0503L68.2444 66.9243ZM66.9114 69.5314L66.5667 69.2289C66.0798 69.7837 65.5403 70.0333 64.9316 70.0333L64.9316 70.4919V70.9505C65.8388 70.9505 66.6192 70.5598 67.2561 69.8339L66.9114 69.5314ZM64.9316 69.9627L64.9316 70.4213C65.4578 70.4213 65.9253 70.2395 66.3111 69.883C66.6867 69.5359 66.965 69.0428 67.1691 68.4446L66.735 68.2965L66.3009 68.1484C66.126 68.6609 65.9142 69.0009 65.6887 69.2092C65.4734 69.4081 65.2286 69.504 64.9316 69.504V69.9627ZM66.735 68.2965L67.1675 68.4491C67.5862 67.2627 67.7817 65.5132 67.7817 63.2391L67.323 63.2391L66.8644 63.2391C66.8644 65.4865 66.6679 67.1086 66.3025 68.1438L66.735 68.2965ZM67.323 63.2391L67.7817 63.2391C67.7817 60.9655 67.5863 59.2214 67.1669 58.047L66.735 58.2013L66.3031 58.3555C66.6677 59.3766 66.8644 60.9911 66.8644 63.2391L67.323 63.2391ZM66.735 58.2013L67.1691 58.0532C66.965 57.455 66.6867 56.9618 66.3111 56.6148C65.9253 56.2583 65.4578 56.0765 64.9316 56.0765L64.9316 56.5351V56.9937C65.2286 56.9937 65.4734 57.0896 65.6887 57.2885C65.9142 57.4969 66.126 57.8368 66.3009 58.3494L66.735 58.2013ZM64.9316 56.5351L64.9316 56.0765C64.4054 56.0765 63.9373 56.2581 63.5489 56.6131C63.1706 56.9589 62.8871 57.4508 62.6761 58.0486L63.1086 58.2013L63.5411 58.3539C63.7221 57.841 63.9384 57.4998 64.1678 57.2902C64.3871 57.0898 64.6344 56.9937 64.9316 56.9937V56.5351ZM63.1086 58.2013L62.675 58.0516C62.2703 59.224 62.0815 60.9661 62.0815 63.2391L62.5401 63.2391H62.9987C62.9987 60.9905 63.1889 59.3741 63.5421 58.351L63.1086 58.2013ZM62.5401 63.2391L62.0815 63.2391C62.0815 65.5126 62.2704 67.2602 62.6745 68.4446L63.1086 68.2965L63.5426 68.1484C63.1888 67.1111 62.9987 65.4871 62.9987 63.2391H62.5401ZM63.1086 68.2965L62.6761 68.4491C62.8871 69.0469 63.1706 69.5388 63.5489 69.8846C63.9373 70.2396 64.4054 70.4213 64.9316 70.4213L64.9316 69.9627V69.504C64.6344 69.504 64.3871 69.408 64.1678 69.2076C63.9384 68.998 63.7221 68.6568 63.5411 68.1438L63.1086 68.2965Z" fill="black" mask="url(#path-5-outside-2_1747_4124)"/>
<defs>
<linearGradient id="paint0_linear_1747_4124" x1="82.7362" y1="16.2679" x2="5.61171" y2="42.6609" gradientUnits="userSpaceOnUse">
<stop stop-color="#FEDB9A"/>
<stop offset="1" stop-color="#FF6B57"/>
</linearGradient>
</defs>
</svg>
