<svg width="100" height="100" viewBox="0 0 100 100" fill="none" xmlns="http://www.w3.org/2000/svg">
<path d="M48.0714 2.39648C49.13 1.31636 50.8702 1.31636 51.9288 2.39648L74.5294 25.4561L74.5363 25.4639L74.5441 25.4707L97.6036 48.0713C98.6838 49.1299 98.6838 50.8701 97.6036 51.9287L74.5441 74.5293L74.5363 74.5361L74.5294 74.5439L51.9288 97.6035C50.8702 98.6836 49.13 98.6836 48.0714 97.6035L25.4708 74.5439L25.464 74.5361L25.4562 74.5293L2.39661 51.9287C1.31648 50.8701 1.31648 49.1299 2.39661 48.0713L25.4562 25.4707L25.464 25.4639L25.4708 25.4561L48.0714 2.39648Z" fill="url(#paint0_linear_1747_4109)" stroke="black" stroke-width="2"/>
<line x1="36.3524" y1="73.5978" x2="67.1166" y2="32.9478" stroke="black" stroke-width="1.63039" stroke-linecap="round"/>
<mask id="path-3-outside-1_1747_4109" maskUnits="userSpaceOnUse" x="28.7548" y="23.2603" width="18" height="36" fill="black">
<rect fill="white" x="28.7548" y="23.2603" width="18" height="36"/>
<path d="M35.877 57.6499C35.0977 57.6499 34.2896 57.5344 33.4526 57.3035C32.6445 57.0727 31.9662 56.7263 31.4178 56.2645C30.8695 55.8027 30.5953 55.2399 30.5953 54.5761C30.5953 54.1432 30.7252 53.7969 30.9849 53.5371C31.2447 53.2485 31.591 53.1042 32.0239 53.1042C32.5146 53.1042 32.8609 53.2774 33.063 53.6237C33.2938 53.97 33.4959 54.3597 33.669 54.7926C33.8422 55.2255 34.1164 55.6151 34.4916 55.9615C34.8957 56.3078 35.5162 56.481 36.3532 56.481C37.2767 56.481 38.1715 56.2212 39.0373 55.7017C39.932 55.1534 40.668 54.2731 41.2452 53.0609C41.8513 51.8487 42.1544 50.2469 42.1544 48.2554C42.1544 45.5136 41.505 43.4067 40.2062 41.9348C38.9074 40.4339 36.6995 39.5537 33.5825 39.2939C33.1495 39.2362 32.9764 39.0053 33.063 38.6012L35.3574 26.6525C35.444 26.2773 35.6605 26.0897 36.0068 26.0897L42.8037 26.0897C43.2944 26.0897 43.6407 26.0032 43.8428 25.83C44.0736 25.628 44.2612 25.4404 44.4056 25.2672C44.5499 25.094 44.7375 25.0074 44.9684 25.0074C45.1993 25.0074 45.3291 25.1084 45.358 25.3105C45.4157 25.4836 45.4157 25.6857 45.358 25.9166L44.7086 28.1678C44.622 28.5141 44.4056 28.6873 44.0592 28.6873L36.916 28.6873C36.5696 28.6873 36.3532 28.8749 36.2666 29.2501L35.0111 35.8738C34.9245 36.2779 35.0977 36.4943 35.5306 36.5232C37.8107 36.783 39.6578 37.4323 41.072 38.4714C42.5151 39.4815 43.5686 40.7659 44.2324 42.3244C44.9251 43.854 45.2714 45.528 45.2714 47.3463C45.2714 49.5109 44.7952 51.3725 43.8428 52.931C42.9192 54.4607 41.7359 55.6296 40.2928 56.4377C38.8786 57.2458 37.4066 57.6499 35.877 57.6499Z"/>
</mask>
<path d="M35.877 57.6499C35.0977 57.6499 34.2896 57.5344 33.4526 57.3035C32.6445 57.0727 31.9662 56.7263 31.4178 56.2645C30.8695 55.8027 30.5953 55.2399 30.5953 54.5761C30.5953 54.1432 30.7252 53.7969 30.9849 53.5371C31.2447 53.2485 31.591 53.1042 32.0239 53.1042C32.5146 53.1042 32.8609 53.2774 33.063 53.6237C33.2938 53.97 33.4959 54.3597 33.669 54.7926C33.8422 55.2255 34.1164 55.6151 34.4916 55.9615C34.8957 56.3078 35.5162 56.481 36.3532 56.481C37.2767 56.481 38.1715 56.2212 39.0373 55.7017C39.932 55.1534 40.668 54.2731 41.2452 53.0609C41.8513 51.8487 42.1544 50.2469 42.1544 48.2554C42.1544 45.5136 41.505 43.4067 40.2062 41.9348C38.9074 40.4339 36.6995 39.5537 33.5825 39.2939C33.1495 39.2362 32.9764 39.0053 33.063 38.6012L35.3574 26.6525C35.444 26.2773 35.6605 26.0897 36.0068 26.0897L42.8037 26.0897C43.2944 26.0897 43.6407 26.0032 43.8428 25.83C44.0736 25.628 44.2612 25.4404 44.4056 25.2672C44.5499 25.094 44.7375 25.0074 44.9684 25.0074C45.1993 25.0074 45.3291 25.1084 45.358 25.3105C45.4157 25.4836 45.4157 25.6857 45.358 25.9166L44.7086 28.1678C44.622 28.5141 44.4056 28.6873 44.0592 28.6873L36.916 28.6873C36.5696 28.6873 36.3532 28.8749 36.2666 29.2501L35.0111 35.8738C34.9245 36.2779 35.0977 36.4943 35.5306 36.5232C37.8107 36.783 39.6578 37.4323 41.072 38.4714C42.5151 39.4815 43.5686 40.7659 44.2324 42.3244C44.9251 43.854 45.2714 45.528 45.2714 47.3463C45.2714 49.5109 44.7952 51.3725 43.8428 52.931C42.9192 54.4607 41.7359 55.6296 40.2928 56.4377C38.8786 57.2458 37.4066 57.6499 35.877 57.6499Z" fill="black"/>
<path d="M33.4526 57.3035L33.2147 58.1361L33.2223 58.1382L33.4526 57.3035ZM31.4178 56.2645L31.9756 55.6022H31.9756L31.4178 56.2645ZM30.9849 53.5371L31.5972 54.1494L31.6133 54.1333L31.6285 54.1163L30.9849 53.5371ZM33.063 53.6237L32.3151 54.06L32.3281 54.0824L32.3425 54.104L33.063 53.6237ZM33.669 54.7926L32.8651 55.1142V55.1142L33.669 54.7926ZM34.4916 55.9615L33.9043 56.5977L33.916 56.6085L33.9281 56.6189L34.4916 55.9615ZM39.0373 55.7017L39.4828 56.4442L39.4898 56.44L39.0373 55.7017ZM41.2452 53.0609L40.4708 52.6737L40.4671 52.6811L40.4635 52.6886L41.2452 53.0609ZM40.2062 41.9348L39.5514 42.5014L39.557 42.5076L40.2062 41.9348ZM33.5825 39.2939L33.468 40.1522L33.4892 40.155L33.5106 40.1568L33.5825 39.2939ZM33.063 38.6012L33.9096 38.7827L33.9115 38.7736L33.9133 38.7645L33.063 38.6012ZM35.3574 26.6525L34.5138 26.4578L34.5102 26.4735L34.5071 26.4893L35.3574 26.6525ZM43.8428 25.83L44.4063 26.4874L44.4129 26.4816L43.8428 25.83ZM44.4056 25.2672L45.0707 25.8215L45.0707 25.8215L44.4056 25.2672ZM45.358 25.3105L44.5008 25.4329L44.5119 25.5102L44.5366 25.5843L45.358 25.3105ZM45.358 25.9166L46.1899 26.1565L46.1942 26.1416L46.198 26.1266L45.358 25.9166ZM44.7086 28.1678L43.8767 27.9278L43.8724 27.9427L43.8686 27.9578L44.7086 28.1678ZM36.2666 29.2501L35.4229 29.0554L35.4191 29.072L35.4159 29.0888L36.2666 29.2501ZM35.0111 35.8738L35.8577 36.0552L35.8599 36.0452L35.8618 36.0351L35.0111 35.8738ZM35.5306 36.5232L35.6286 35.6629L35.6085 35.6606L35.5882 35.6593L35.5306 36.5232ZM41.072 38.4714L40.5594 39.1691L40.5674 39.175L40.5755 39.1807L41.072 38.4714ZM44.2324 42.3244L43.4358 42.6637L43.4396 42.6727L43.4436 42.6816L44.2324 42.3244ZM43.8428 52.931L43.1039 52.4795L43.1015 52.4835L43.8428 52.931ZM40.2928 56.4377L39.8697 55.6822L39.8632 55.6859L40.2928 56.4377ZM35.877 57.6499L35.877 56.784C35.1838 56.784 34.4533 56.6814 33.6828 56.4689L33.4526 57.3035L33.2223 58.1382C34.1259 58.3875 35.0116 58.5157 35.877 58.5157L35.877 57.6499ZM33.4526 57.3035L33.6905 56.471C32.9797 56.268 32.4158 55.973 31.9756 55.6022L31.4178 56.2645L30.8601 56.9268C31.5166 57.4797 32.3092 57.8774 33.2147 58.1361L33.4526 57.3035ZM31.4178 56.2645L31.9756 55.6022C31.6048 55.29 31.4611 54.9622 31.4611 54.5761L30.5953 54.5761L29.7294 54.5761C29.7294 55.5177 30.1341 56.3155 30.8601 56.9268L31.4178 56.2645ZM30.5953 54.5761L31.4611 54.5761C31.4611 54.3287 31.5285 54.218 31.5972 54.1494L30.9849 53.5371L30.3727 52.9249C29.9218 53.3757 29.7294 53.9577 29.7294 54.5761L30.5953 54.5761ZM30.9849 53.5371L31.6285 54.1163C31.7042 54.0323 31.8051 53.97 32.0239 53.97L32.0239 53.1042L32.0239 52.2383C31.377 52.2383 30.7852 52.4647 30.3413 52.9579L30.9849 53.5371ZM32.0239 53.1042L32.0239 53.97C32.1698 53.97 32.2393 53.9959 32.2645 54.0085C32.2815 54.017 32.2957 54.0267 32.3151 54.06L33.063 53.6237L33.8109 53.1874C33.4169 52.5121 32.7419 52.2383 32.0239 52.2383L32.0239 53.1042ZM33.063 53.6237L32.3425 54.104C32.5365 54.3949 32.7116 54.7303 32.8651 55.1142L33.669 54.7926L34.473 54.471C34.2802 53.989 34.0512 53.5452 33.7834 53.1434L33.063 53.6237ZM33.669 54.7926L32.8651 55.1142C33.0906 55.6778 33.4435 56.1723 33.9043 56.5977L34.4916 55.9615L35.0789 55.3253C34.7893 55.0579 34.5938 54.7732 34.473 54.471L33.669 54.7926ZM34.4916 55.9615L33.9281 56.6189C34.5573 57.1582 35.4218 57.3468 36.3532 57.3468L36.3532 56.481L36.3532 55.6151C35.6106 55.6151 35.234 55.4575 35.0551 55.3041L34.4916 55.9615ZM36.3532 56.481L36.3532 57.3468C37.4481 57.3468 38.4953 57.0367 39.4828 56.4442L39.0373 55.7017L38.5918 54.9593C37.8476 55.4058 37.1054 55.6151 36.3532 55.6151L36.3532 56.481ZM39.0373 55.7017L39.4898 56.44C40.5623 55.7826 41.3976 54.7547 42.027 53.4331L41.2452 53.0609L40.4635 52.6886C39.9383 53.7915 39.3017 54.5242 38.5848 54.9635L39.0373 55.7017ZM41.2452 53.0609L42.0197 53.4481C42.7074 52.0727 43.0202 50.3231 43.0202 48.2554L42.1544 48.2554L41.2885 48.2554C41.2885 50.1707 40.9952 51.6248 40.4708 52.6737L41.2452 53.0609ZM42.1544 48.2554L43.0202 48.2554C43.0202 45.3861 42.3406 43.0451 40.8554 41.3619L40.2062 41.9348L39.557 42.5076C40.6693 43.7683 41.2885 45.6411 41.2885 48.2554L42.1544 48.2554ZM40.2062 41.9348L40.8609 41.3682C39.3483 39.6202 36.8716 38.6992 33.6544 38.4311L33.5825 39.2939L33.5106 40.1568C36.5275 40.4082 38.4666 41.2477 39.5515 42.5013L40.2062 41.9348ZM33.5825 39.2939L33.6969 38.4357C33.5941 38.422 33.7101 38.4106 33.8206 38.5579C33.9402 38.7174 33.8955 38.8486 33.9096 38.7827L33.063 38.6012L32.2163 38.4198C32.1439 38.7579 32.1424 39.2066 32.4352 39.597C32.7189 39.9752 33.1379 40.1082 33.468 40.1522L33.5825 39.2939ZM33.063 38.6012L33.9133 38.7645L36.2078 26.8158L35.3574 26.6525L34.5071 26.4893L32.2126 38.438L33.063 38.6012ZM35.3574 26.6525L36.2011 26.8472C36.2172 26.7776 36.2227 26.8233 36.1518 26.8848C36.117 26.9149 36.0788 26.9352 36.0452 26.9463C36.0139 26.9568 35.9981 26.9556 36.0068 26.9556L36.0068 26.0897L36.0068 25.2239C35.6709 25.2239 35.3146 25.3188 35.0177 25.5761C34.7303 25.8252 34.5843 26.1523 34.5138 26.4578L35.3574 26.6525ZM36.0068 26.0897L36.0068 26.9556L42.8037 26.9556L42.8037 26.0897L42.8037 25.2239L36.0068 25.2239L36.0068 26.0897ZM42.8037 26.0897L42.8037 26.9556C43.3469 26.9556 43.9604 26.8695 44.4062 26.4874L43.8428 25.83L43.2793 25.1726C43.3091 25.1471 43.3067 25.1635 43.2215 25.1848C43.1372 25.2059 43.0026 25.2239 42.8037 25.2239L42.8037 26.0897ZM43.8428 25.83L44.4129 26.4816C44.6667 26.2596 44.8891 26.0394 45.0707 25.8215L44.4056 25.2672L43.7404 24.7129C43.6334 24.8413 43.4806 24.9963 43.2726 25.1784L43.8428 25.83ZM44.4056 25.2672L45.0707 25.8215C45.0682 25.8246 45.0506 25.8432 45.0173 25.8585C44.9847 25.8736 44.9634 25.8733 44.9684 25.8733L44.9684 25.0074L44.9684 24.1416C44.4877 24.1416 44.0538 24.3368 43.7404 24.7129L44.4056 25.2672ZM44.9684 25.0074L44.9684 25.8733C44.9673 25.8733 44.8451 25.8738 44.7074 25.7666C44.5549 25.6481 44.5101 25.4978 44.5008 25.4329L45.358 25.3105L46.2151 25.188C46.177 24.9211 46.0528 24.6193 45.7705 24.3997C45.5029 24.1916 45.2003 24.1416 44.9684 24.1416L44.9684 25.0074ZM45.358 25.3105L44.5366 25.5843C44.5286 25.5603 44.5477 25.5877 44.518 25.7066L45.358 25.9166L46.198 26.1266C46.2837 25.7836 46.3028 25.407 46.1794 25.0367L45.358 25.3105ZM45.358 25.9166L44.5261 25.6766L43.8767 27.9278L44.7086 28.1678L45.5405 28.4078L46.1899 26.1565L45.358 25.9166ZM44.7086 28.1678L43.8686 27.9578C43.858 28.0003 43.8628 27.9434 43.9404 27.8813C43.9765 27.8524 44.0128 27.8356 44.04 27.8273C44.0652 27.8195 44.0743 27.8214 44.0592 27.8214L44.0592 28.6873L44.0592 29.5531C44.3788 29.5531 44.7254 29.471 45.0222 29.2335C45.3163 28.9982 45.4727 28.6816 45.5486 28.3778L44.7086 28.1678ZM44.0592 28.6873L44.0592 27.8214L36.916 27.8214L36.916 28.6873L36.916 29.5531L44.0592 29.5531L44.0592 28.6873ZM36.916 28.6873L36.916 27.8214C36.58 27.8214 36.2238 27.9163 35.9268 28.1737C35.6394 28.4228 35.4934 28.7499 35.4229 29.0554L36.2666 29.2501L37.1103 29.4448C37.1263 29.3751 37.1319 29.4208 37.0609 29.4823C37.0262 29.5124 36.9879 29.5327 36.9544 29.5439C36.9231 29.5543 36.9072 29.5531 36.916 29.5531L36.916 28.6873ZM36.2666 29.2501L35.4159 29.0888L34.1604 35.7126L35.0111 35.8738L35.8618 36.0351L37.1173 29.4113L36.2666 29.2501ZM35.0111 35.8738L34.1645 35.6924C34.0941 36.0209 34.084 36.4852 34.3999 36.8801C34.706 37.2627 35.1491 37.3655 35.473 37.3871L35.5306 36.5232L35.5882 35.6593C35.4792 35.652 35.6193 35.6322 35.7522 35.7983C35.8949 35.9768 35.8415 36.1308 35.8577 36.0552L35.0111 35.8738ZM35.5306 36.5232L35.4326 37.3835C37.6076 37.6313 39.2987 38.2429 40.5594 39.1691L41.072 38.4714L41.5847 37.7736C40.0169 36.6218 38.0138 35.9347 35.6286 35.6629L35.5306 36.5232ZM41.072 38.4714L40.5755 39.1807C41.8915 40.1019 42.838 41.2602 43.4358 42.6637L44.2324 42.3244L45.029 41.9851C44.2991 40.2715 43.1388 38.8612 41.5686 37.762L41.072 38.4714ZM44.2324 42.3244L43.4436 42.6816C44.0814 44.0899 44.4056 45.6409 44.4056 47.3463L45.2714 47.3463L46.1373 47.3463C46.1373 45.4152 45.7687 43.6181 45.0211 41.9672L44.2324 42.3244ZM45.2714 47.3463L44.4056 47.3463C44.4056 49.3814 43.959 51.0803 43.1039 52.4795L43.8428 52.931L44.5816 53.3825C45.6313 51.6647 46.1373 49.6404 46.1373 47.3463L45.2714 47.3463ZM43.8428 52.931L43.1015 52.4835C42.2491 53.8953 41.1714 54.9533 39.8697 55.6822L40.2928 56.4377L40.7158 57.1932C42.3003 56.3059 43.5893 55.026 44.584 53.3785L43.8428 52.931ZM40.2928 56.4377L39.8632 55.6859C38.571 56.4243 37.2461 56.784 35.877 56.784L35.877 57.6499L35.877 58.5157C37.5671 58.5157 39.1861 58.0673 40.7224 57.1895L40.2928 56.4377Z" fill="black" mask="url(#path-3-outside-1_1747_4109)"/>
<mask id="path-5-outside-2_1747_4109" maskUnits="userSpaceOnUse" x="54.2452" y="54.5757" width="15" height="16" fill="black">
<rect fill="white" x="54.2452" y="54.5757" width="15" height="16"/>
<path d="M55.6884 69.5757C55.4924 69.5757 55.3944 69.5039 55.3944 69.3601C55.3944 69.2164 55.4793 69.138 55.6492 69.1249L56.4137 69.0465C56.6882 69.0203 56.8711 68.955 56.9626 68.8505C57.0671 68.7459 57.1194 68.5564 57.1194 68.282L57.1194 56.6383C57.1194 56.4161 57.0541 56.2723 56.9234 56.207C56.8058 56.1286 56.6489 56.1025 56.4529 56.1286L55.7472 56.207C55.512 56.2201 55.3944 56.1351 55.3944 55.9522C55.3944 55.8084 55.4989 55.7169 55.708 55.6777C56.4007 55.5601 56.9103 55.449 57.237 55.3445C57.5637 55.2269 57.8055 55.1681 57.9623 55.1681C58.2367 55.1681 58.3739 55.3118 58.3739 55.5993L58.3739 68.282C58.3739 68.5564 58.4197 68.7459 58.5112 68.8505C58.6157 68.955 58.8052 69.0203 59.0796 69.0465L59.7265 69.1249C59.8964 69.138 59.9813 69.2164 59.9813 69.3601C59.9813 69.5039 59.8833 69.5757 59.6873 69.5757L55.6884 69.5757ZM64.6863 69.7522C63.9284 69.7522 63.2619 69.432 62.6869 68.7917C62.1119 68.1513 61.6676 67.2823 61.3539 66.1846C61.0403 65.0868 60.8835 63.8584 60.8835 62.4993C60.8835 61.1402 61.0403 59.9184 61.3539 58.8337C61.6676 57.736 62.1119 56.8669 62.6869 56.2266C63.2619 55.5863 63.9284 55.2661 64.6863 55.2661C65.4443 55.2661 66.1042 55.5863 66.6662 56.2266C67.2412 56.8669 67.6855 57.736 67.9991 58.8337C68.3258 59.9184 68.4892 61.1402 68.4892 62.4993C68.4892 63.8584 68.3258 65.0868 67.9991 66.1846C67.6855 67.2823 67.2412 68.1513 66.6662 68.7917C66.1042 69.432 65.4443 69.7522 64.6863 69.7522ZM64.6863 69.2229C65.5096 69.2229 66.1108 68.6675 66.4897 67.5567C66.8818 66.4459 67.0778 64.7601 67.0778 62.4993C67.0778 60.2385 66.8818 58.5593 66.4897 57.4615C66.1108 56.3508 65.5096 55.7954 64.6863 55.7954C63.863 55.7954 63.2554 56.3508 62.8633 57.4615C62.4843 58.5593 62.2949 60.2385 62.2949 62.4993C62.2949 64.7601 62.4843 66.4459 62.8633 67.5567C63.2554 68.6675 63.863 69.2229 64.6863 69.2229Z"/>
</mask>
<path d="M55.6884 69.5757C55.4924 69.5757 55.3944 69.5039 55.3944 69.3601C55.3944 69.2164 55.4793 69.138 55.6492 69.1249L56.4137 69.0465C56.6882 69.0203 56.8711 68.955 56.9626 68.8505C57.0671 68.7459 57.1194 68.5564 57.1194 68.282L57.1194 56.6383C57.1194 56.4161 57.0541 56.2723 56.9234 56.207C56.8058 56.1286 56.6489 56.1025 56.4529 56.1286L55.7472 56.207C55.512 56.2201 55.3944 56.1351 55.3944 55.9522C55.3944 55.8084 55.4989 55.7169 55.708 55.6777C56.4007 55.5601 56.9103 55.449 57.237 55.3445C57.5637 55.2269 57.8055 55.1681 57.9623 55.1681C58.2367 55.1681 58.3739 55.3118 58.3739 55.5993L58.3739 68.282C58.3739 68.5564 58.4197 68.7459 58.5112 68.8505C58.6157 68.955 58.8052 69.0203 59.0796 69.0465L59.7265 69.1249C59.8964 69.138 59.9813 69.2164 59.9813 69.3601C59.9813 69.5039 59.8833 69.5757 59.6873 69.5757L55.6884 69.5757ZM64.6863 69.7522C63.9284 69.7522 63.2619 69.432 62.6869 68.7917C62.1119 68.1513 61.6676 67.2823 61.3539 66.1846C61.0403 65.0868 60.8835 63.8584 60.8835 62.4993C60.8835 61.1402 61.0403 59.9184 61.3539 58.8337C61.6676 57.736 62.1119 56.8669 62.6869 56.2266C63.2619 55.5863 63.9284 55.2661 64.6863 55.2661C65.4443 55.2661 66.1042 55.5863 66.6662 56.2266C67.2412 56.8669 67.6855 57.736 67.9991 58.8337C68.3258 59.9184 68.4892 61.1402 68.4892 62.4993C68.4892 63.8584 68.3258 65.0868 67.9991 66.1846C67.6855 67.2823 67.2412 68.1513 66.6662 68.7917C66.1042 69.432 65.4443 69.7522 64.6863 69.7522ZM64.6863 69.2229C65.5096 69.2229 66.1108 68.6675 66.4897 67.5567C66.8818 66.4459 67.0778 64.7601 67.0778 62.4993C67.0778 60.2385 66.8818 58.5593 66.4897 57.4615C66.1108 56.3508 65.5096 55.7954 64.6863 55.7954C63.863 55.7954 63.2554 56.3508 62.8633 57.4615C62.4843 58.5593 62.2949 60.2385 62.2949 62.4993C62.2949 64.7601 62.4843 66.4459 62.8633 67.5567C63.2554 68.6675 63.863 69.2229 64.6863 69.2229Z" fill="black"/>
<path d="M55.6492 69.1249L55.6844 69.5823L55.696 69.5811L55.6492 69.1249ZM56.4137 69.0465L56.3702 68.5899L56.3669 68.5902L56.4137 69.0465ZM56.9626 68.8505L56.6383 68.5262L56.6275 68.537L56.6174 68.5484L56.9626 68.8505ZM56.9234 56.207L56.669 56.5886L56.6927 56.6044L56.7183 56.6172L56.9234 56.207ZM56.4529 56.1286L56.5036 56.5845L56.5135 56.5832L56.4529 56.1286ZM55.7472 56.207L55.7727 56.6649L55.7853 56.6642L55.7979 56.6628L55.7472 56.207ZM55.708 55.6777L55.6312 55.2255L55.6235 55.227L55.708 55.6777ZM57.237 55.3445L57.3768 55.7813L57.3846 55.7788L57.3924 55.776L57.237 55.3445ZM58.5112 68.8505L58.166 69.1525L58.1761 69.164L58.1869 69.1748L58.5112 68.8505ZM59.0796 69.0465L59.1348 68.591L59.1231 68.5899L59.0796 69.0465ZM59.7265 69.1249L59.6713 69.5802L59.6813 69.5814L59.6913 69.5822L59.7265 69.1249ZM55.6884 69.5757L55.6884 69.1171C55.6329 69.1171 55.6744 69.1045 55.7391 69.152C55.7763 69.1792 55.8091 69.2181 55.8303 69.2647C55.8503 69.3087 55.853 69.3443 55.853 69.3601H55.3944H54.9358C54.9358 69.5478 55.0074 69.7529 55.1967 69.8917C55.3594 70.011 55.5479 70.0344 55.6884 70.0344L55.6884 69.5757ZM55.3944 69.3601H55.853C55.853 69.3688 55.8518 69.3942 55.8387 69.4284C55.8249 69.4646 55.8014 69.5008 55.7692 69.5305C55.7073 69.5877 55.6554 69.5844 55.6844 69.5822L55.6492 69.1249L55.6141 68.6676C55.4732 68.6784 55.2939 68.7209 55.147 68.8565C54.9885 69.0028 54.9358 69.1936 54.9358 69.3601H55.3944ZM55.6492 69.1249L55.696 69.5811L56.4605 69.5027L56.4137 69.0465L56.3669 68.5902L55.6024 68.6686L55.6492 69.1249ZM56.4137 69.0465L56.4572 69.5031C56.749 69.4753 57.092 69.399 57.3077 69.1525L56.9626 68.8505L56.6174 68.5484C56.6397 68.523 56.6481 68.5297 56.6025 68.546C56.5582 68.5618 56.484 68.5791 56.3702 68.5899L56.4137 69.0465ZM56.9626 68.8505L57.2869 69.1748C57.5265 68.9352 57.578 68.5843 57.578 68.282L57.1194 68.282H56.6608C56.6608 68.393 56.6499 68.4652 56.6381 68.508C56.6263 68.5506 56.6189 68.5455 56.6383 68.5262L56.9626 68.8505ZM57.1194 68.282L57.578 68.282L57.578 56.6383L57.1194 56.6383L56.6608 56.6383L56.6608 68.282H57.1194ZM57.1194 56.6383L57.578 56.6383C57.578 56.3427 57.4876 55.9763 57.1285 55.7968L56.9234 56.207L56.7183 56.6172C56.7034 56.6098 56.6879 56.5986 56.6745 56.5844C56.6615 56.5705 56.6551 56.5586 56.6529 56.5536C56.6509 56.5492 56.6531 56.5524 56.6557 56.567C56.6583 56.5815 56.6608 56.6047 56.6608 56.6383L57.1194 56.6383ZM56.9234 56.207L57.1778 55.8254C56.9363 55.6644 56.6548 55.639 56.3923 55.674L56.4529 56.1286L56.5135 56.5832C56.5769 56.5748 56.6181 56.577 56.6422 56.581C56.6538 56.5829 56.6609 56.5852 56.6645 56.5866C56.6664 56.5873 56.6675 56.5878 56.6682 56.5882C56.6685 56.5883 56.6687 56.5884 56.6688 56.5885C56.6689 56.5886 56.669 56.5886 56.669 56.5886L56.9234 56.207ZM56.4529 56.1286L56.4023 55.6728L55.6966 55.7512L55.7472 56.207L55.7979 56.6628L56.5036 56.5844L56.4529 56.1286ZM55.7472 56.207L55.7218 55.7491C55.6909 55.7508 55.6803 55.7482 55.6844 55.749C55.6892 55.75 55.7166 55.7563 55.7511 55.7813C55.7886 55.8083 55.8185 55.8459 55.8364 55.8866C55.8528 55.9239 55.853 55.9498 55.853 55.9522L55.3944 55.9522L54.9358 55.9522C54.9358 56.1481 55.005 56.3739 55.2141 56.5249C55.397 56.657 55.6109 56.6739 55.7727 56.6649L55.7472 56.207ZM55.3944 55.9522L55.853 55.9522C55.853 55.9729 55.849 56.0047 55.8331 56.0404C55.817 56.0766 55.7948 56.1035 55.7748 56.1209C55.7409 56.1506 55.7292 56.1404 55.7926 56.1285L55.708 55.6777L55.6235 55.227C55.4778 55.2543 55.3093 55.3094 55.1708 55.4306C55.0151 55.5668 54.9358 55.7533 54.9358 55.9522L55.3944 55.9522ZM55.708 55.6777L55.7848 56.1299C56.4815 56.0116 57.0177 55.8962 57.3768 55.7813L57.237 55.3445L57.0972 54.9077C56.8029 55.0019 56.3198 55.1087 55.6313 55.2256L55.708 55.6777ZM57.237 55.3445L57.3924 55.776C57.7149 55.6599 57.8916 55.6267 57.9623 55.6267L57.9623 55.1681L57.9623 54.7094C57.7194 54.7094 57.4125 54.7939 57.0817 54.913L57.237 55.3445ZM57.9623 55.1681L57.9623 55.6267C57.9922 55.6267 57.9991 55.6308 57.9912 55.628C57.9868 55.6265 57.9789 55.6232 57.9691 55.617C57.9591 55.6107 57.9488 55.6025 57.9393 55.5926C57.9192 55.5715 57.9122 55.553 57.9112 55.5497C57.9107 55.5484 57.9153 55.5625 57.9153 55.5993L58.3739 55.5993L58.8326 55.5993C58.8326 55.3901 58.783 55.148 58.6028 54.9592C58.4188 54.7664 58.1758 54.7094 57.9623 54.7094L57.9623 55.1681ZM58.3739 55.5993L57.9153 55.5993L57.9153 68.282L58.3739 68.282H58.8326L58.8326 55.5993L58.3739 55.5993ZM58.3739 68.282L57.9153 68.282C57.9153 68.5746 57.9574 68.914 58.166 69.1525L58.5112 68.8505L58.8563 68.5484C58.875 68.5698 58.8662 68.5724 58.8541 68.5223C58.8424 68.4739 58.8326 68.3964 58.8326 68.282H58.3739ZM58.5112 68.8505L58.1869 69.1748C58.4089 69.3968 58.7359 69.4745 59.0361 69.5031L59.0796 69.0465L59.1231 68.5899C59.0096 68.5791 58.9315 68.5617 58.8812 68.5443C58.83 68.5267 58.8242 68.5149 58.8355 68.5262L58.5112 68.8505ZM59.0796 69.0465L59.0244 69.5018L59.6713 69.5802L59.7265 69.1249L59.7817 68.6696L59.1348 68.5912L59.0796 69.0465ZM59.7265 69.1249L59.6913 69.5822C59.7203 69.5844 59.6685 69.5877 59.6065 69.5305C59.5743 69.5008 59.5509 69.4646 59.537 69.4284C59.5239 69.3942 59.5227 69.3688 59.5227 69.3601L59.9813 69.3601H60.44C60.44 69.1936 60.3873 69.0028 60.2287 68.8565C60.0819 68.7209 59.9025 68.6784 59.7617 68.6676L59.7265 69.1249ZM59.9813 69.3601L59.5227 69.3601C59.5227 69.3443 59.5254 69.3087 59.5454 69.2647C59.5666 69.2181 59.5994 69.1792 59.6366 69.152C59.7013 69.1045 59.7428 69.1171 59.6873 69.1171L59.6873 69.5757L59.6873 70.0344C59.8278 70.0344 60.0163 70.011 60.179 69.8917C60.3683 69.7529 60.44 69.5478 60.44 69.3601H59.9813ZM59.6873 69.5757L59.6873 69.1171L55.6884 69.1171L55.6884 69.5757L55.6884 70.0344L59.6873 70.0344L59.6873 69.5757ZM62.6869 68.7917L63.0282 68.4852L62.6869 68.7917ZM61.3539 66.1846L61.7949 66.0586L61.3539 66.1846ZM61.3539 58.8337L61.7945 58.9611L61.7949 58.9597L61.3539 58.8337ZM62.6869 56.2266L62.3457 55.9202V55.9202L62.6869 56.2266ZM66.6662 56.2266L66.3214 56.5291L66.3249 56.533L66.6662 56.2266ZM67.9991 58.8337L67.5581 58.9597L67.56 58.966L67.9991 58.8337ZM67.9991 66.1846L67.5595 66.0537L67.5581 66.0586L67.9991 66.1846ZM66.6662 68.7917L66.3249 68.4852L66.3214 68.4891L66.6662 68.7917ZM66.4897 67.5567L66.0572 67.4041L66.0557 67.4086L66.4897 67.5567ZM66.4897 57.4615L66.0556 57.6097L66.0578 57.6158L66.4897 57.4615ZM62.8633 57.4615L62.4308 57.3089L62.4298 57.3119L62.8633 57.4615ZM62.8633 67.5567L62.4292 67.7048L62.4308 67.7094L62.8633 67.5567ZM64.6863 69.7522L64.6863 69.2935C64.0769 69.2935 63.5292 69.0432 63.0282 68.4852L62.6869 68.7917L62.3457 69.0981C62.9946 69.8208 63.7798 70.2108 64.6863 70.2108V69.7522ZM62.6869 68.7917L63.0282 68.4852C62.5123 67.9107 62.0954 67.1102 61.7949 66.0586L61.3539 66.1846L60.913 66.3106C61.2397 67.4543 61.7115 68.3919 62.3457 69.0981L62.6869 68.7917ZM61.3539 66.1846L61.7949 66.0586C61.495 65.0087 61.3421 63.8236 61.3421 62.4993H60.8835L60.4249 62.4993C60.4249 63.8932 60.5856 65.1649 60.913 66.3106L61.3539 66.1846ZM60.8835 62.4993H61.3421C61.3421 61.1749 61.495 59.9969 61.7945 58.9611L61.3539 58.8337L60.9134 58.7063C60.5856 59.8398 60.4249 61.1056 60.4249 62.4993L60.8835 62.4993ZM61.3539 58.8337L61.7949 58.9597C62.0954 57.908 62.5123 57.1075 63.0282 56.533L62.6869 56.2266L62.3457 55.9202C61.7115 56.6264 61.2397 57.5639 60.913 58.7077L61.3539 58.8337ZM62.6869 56.2266L63.0282 56.533C63.5292 55.975 64.0769 55.7247 64.6863 55.7247V55.2661L64.6863 54.8075C63.7798 54.8075 62.9946 55.1975 62.3457 55.9202L62.6869 56.2266ZM64.6863 55.2661V55.7247C65.295 55.7247 65.8345 55.9743 66.3214 56.5291L66.6662 56.2266L67.0109 55.9241C66.3739 55.1982 65.5935 54.8075 64.6863 54.8075L64.6863 55.2661ZM66.6662 56.2266L66.3249 56.533C66.8408 57.1075 67.2576 57.908 67.5581 58.9597L67.9991 58.8337L68.4401 58.7077C68.1133 57.5639 67.6415 56.6264 67.0074 55.9202L66.6662 56.2266ZM67.9991 58.8337L67.56 58.966C67.8715 60.0002 68.0305 61.1764 68.0305 62.4993H68.4892L68.9478 62.4993C68.9478 61.1041 68.7802 59.8366 68.4383 58.7014L67.9991 58.8337ZM68.4892 62.4993H68.0305C68.0305 63.8221 67.8715 65.0055 67.5595 66.0537L67.9991 66.1846L68.4387 66.3154C68.7801 65.1681 68.9478 63.8947 68.9478 62.4993L68.4892 62.4993ZM67.9991 66.1846L67.5581 66.0586C67.2576 67.1102 66.8408 67.9107 66.3249 68.4852L66.6662 68.7917L67.0074 69.0981C67.6415 68.3919 68.1133 67.4543 68.4401 66.3106L67.9991 66.1846ZM66.6662 68.7917L66.3214 68.4891C65.8345 69.044 65.295 69.2935 64.6863 69.2935L64.6863 69.7522V70.2108C65.5935 70.2108 66.3739 69.82 67.0109 69.0942L66.6662 68.7917ZM64.6863 69.2229L64.6863 69.6815C65.2126 69.6815 65.68 69.4997 66.0659 69.1432C66.4415 68.7962 66.7197 68.303 66.9238 67.7048L66.4897 67.5567L66.0557 67.4086C65.8808 67.9212 65.6689 68.2611 65.4434 68.4695C65.2281 68.6684 64.9834 68.7643 64.6863 68.7643V69.2229ZM66.4897 67.5567L66.9222 67.7094C67.341 66.523 67.5364 64.7734 67.5364 62.4993L67.0778 62.4993L66.6192 62.4993C66.6192 64.7468 66.4226 66.3689 66.0573 67.4041L66.4897 67.5567ZM67.0778 62.4993L67.5364 62.4993C67.5364 60.2257 67.3411 58.4817 66.9217 57.3073L66.4897 57.4615L66.0578 57.6158C66.4225 58.6369 66.6192 60.2513 66.6192 62.4993L67.0778 62.4993ZM66.4897 57.4615L66.9238 57.3135C66.7197 56.7152 66.4415 56.2221 66.0659 55.875C65.68 55.5185 65.2126 55.3367 64.6863 55.3367L64.6863 55.7954V56.254C64.9834 56.254 65.2281 56.3499 65.4434 56.5488C65.6689 56.7571 65.8808 57.0971 66.0557 57.6096L66.4897 57.4615ZM64.6863 55.7954L64.6863 55.3367C64.1602 55.3367 63.6921 55.5184 63.3037 55.8734C62.9253 56.2192 62.6418 56.7111 62.4308 57.3089L62.8633 57.4615L63.2958 57.6142C63.4769 57.1012 63.6932 56.76 63.9225 56.5504C64.1418 56.35 64.3892 56.254 64.6863 56.254V55.7954ZM62.8633 57.4615L62.4298 57.3119C62.0251 58.4842 61.8362 60.2263 61.8362 62.4993L62.2949 62.4993H62.7535C62.7535 60.2507 62.9436 58.6343 63.2969 57.6112L62.8633 57.4615ZM62.2949 62.4993L61.8362 62.4993C61.8362 64.7729 62.0252 66.5204 62.4293 67.7048L62.8633 67.5567L63.2974 67.4086C62.9435 66.3714 62.7535 64.7474 62.7535 62.4993H62.2949ZM62.8633 67.5567L62.4308 67.7094C62.6418 68.3072 62.9253 68.7991 63.3037 69.1449C63.6921 69.4999 64.1602 69.6815 64.6863 69.6815L64.6863 69.2229V68.7643C64.3892 68.7643 64.1418 68.6683 63.9225 68.4678C63.6932 68.2582 63.4769 67.917 63.2958 67.4041L62.8633 67.5567Z" fill="black" mask="url(#path-5-outside-2_1747_4109)"/>
<defs>
<linearGradient id="paint0_linear_1747_4109" x1="66.301" y1="9.91342" x2="-6.65872" y2="55.8868" gradientUnits="userSpaceOnUse">
<stop stop-color="#FBD6F2"/>
<stop offset="1" stop-color="#CC7BF4"/>
</linearGradient>
</defs>
</svg>
