<svg width="100" height="100" viewBox="0 0 100 100" fill="none" xmlns="http://www.w3.org/2000/svg">
<path d="M50 4.87695C55.0282 14.3608 66.777 18.2108 76.4189 13.4922C74.928 24.1348 82.167 34.1845 92.75 36.0537C85.2703 43.8106 85.2706 56.1882 92.75 63.9453C82.1672 65.8144 74.9286 75.8645 76.4189 86.5068C66.7773 81.7886 55.0284 85.6389 50 95.1221C44.9715 85.6386 33.2219 81.788 23.5801 86.5068C25.0705 75.8642 17.8324 65.814 7.24902 63.9453C14.729 56.1881 14.7293 43.8108 7.24902 36.0537C17.8326 34.1849 25.0711 24.1352 23.5801 13.4922C33.2222 18.2114 44.9716 14.3611 50 4.87695Z" fill="url(#paint0_linear_1747_4103)" stroke="black" stroke-width="2"/>
<line x1="37.4089" y1="73.3376" x2="68.1731" y2="32.6875" stroke="black" stroke-width="1.63039" stroke-linecap="round"/>
<mask id="path-3-outside-1_1747_4103" maskUnits="userSpaceOnUse" x="27.8113" y="23" width="19" height="34" fill="black">
<rect fill="white" x="27.8113" y="23" width="19" height="34"/>
<path d="M36.3461 56C35.9131 56 35.6967 55.8413 35.6967 55.5238C35.6967 55.2063 35.8843 55.0331 36.2595 55.0043L38.121 54.7445C38.7271 54.6579 39.1168 54.5136 39.2899 54.3116C39.492 54.0807 39.593 53.6911 39.593 53.1427L39.593 47.5147C39.593 47.1106 39.391 46.9086 38.9869 46.9086L30.2418 46.9086C29.6935 46.9086 29.4193 46.6633 29.4193 46.1726C29.4193 46.0283 29.4481 45.884 29.5059 45.7397C29.5924 45.5665 29.6935 45.3501 29.8089 45.0903L40.1991 25.2624C40.3145 24.9738 40.5454 24.8295 40.8918 24.8295L41.7576 24.8295C42.2771 24.8295 42.407 25.0748 42.1472 25.5655L31.7571 43.8781C31.555 44.2822 31.6705 44.4842 32.1034 44.4842L38.9869 44.4842C39.391 44.4842 39.593 44.2822 39.593 43.8781L39.593 35.3928C39.593 35.1331 39.7373 34.9022 40.0259 34.7001L41.6277 33.791C41.8298 33.6756 42.0029 33.6611 42.1472 33.7477C42.2915 33.8054 42.3637 33.9497 42.3637 34.1806L42.3637 43.8781C42.3637 44.2822 42.5657 44.4842 42.9698 44.4842L44.8747 44.4842C45.221 44.4842 45.3942 44.6574 45.3942 45.0037L45.3942 46.3891C45.3942 46.7354 45.221 46.9086 44.8747 46.9086L42.9698 46.9086C42.5657 46.9086 42.3637 47.1106 42.3637 47.5147L42.3637 53.1427C42.3637 53.7488 42.4503 54.1529 42.6235 54.3549C42.8255 54.5569 43.2295 54.7157 43.8356 54.8311L44.8314 55.0043C45.2066 55.0909 45.3942 55.264 45.3942 55.5238C45.3942 55.8413 45.1777 56 44.7448 56L36.3461 56Z"/>
</mask>
<path d="M36.3461 56C35.9131 56 35.6967 55.8413 35.6967 55.5238C35.6967 55.2063 35.8843 55.0331 36.2595 55.0043L38.121 54.7445C38.7271 54.6579 39.1168 54.5136 39.2899 54.3116C39.492 54.0807 39.593 53.6911 39.593 53.1427L39.593 47.5147C39.593 47.1106 39.391 46.9086 38.9869 46.9086L30.2418 46.9086C29.6935 46.9086 29.4193 46.6633 29.4193 46.1726C29.4193 46.0283 29.4481 45.884 29.5059 45.7397C29.5924 45.5665 29.6935 45.3501 29.8089 45.0903L40.1991 25.2624C40.3145 24.9738 40.5454 24.8295 40.8918 24.8295L41.7576 24.8295C42.2771 24.8295 42.407 25.0748 42.1472 25.5655L31.7571 43.8781C31.555 44.2822 31.6705 44.4842 32.1034 44.4842L38.9869 44.4842C39.391 44.4842 39.593 44.2822 39.593 43.8781L39.593 35.3928C39.593 35.1331 39.7373 34.9022 40.0259 34.7001L41.6277 33.791C41.8298 33.6756 42.0029 33.6611 42.1472 33.7477C42.2915 33.8054 42.3637 33.9497 42.3637 34.1806L42.3637 43.8781C42.3637 44.2822 42.5657 44.4842 42.9698 44.4842L44.8747 44.4842C45.221 44.4842 45.3942 44.6574 45.3942 45.0037L45.3942 46.3891C45.3942 46.7354 45.221 46.9086 44.8747 46.9086L42.9698 46.9086C42.5657 46.9086 42.3637 47.1106 42.3637 47.5147L42.3637 53.1427C42.3637 53.7488 42.4503 54.1529 42.6235 54.3549C42.8255 54.5569 43.2295 54.7157 43.8356 54.8311L44.8314 55.0043C45.2066 55.0909 45.3942 55.264 45.3942 55.5238C45.3942 55.8413 45.1777 56 44.7448 56L36.3461 56Z" fill="black"/>
<path d="M36.2595 55.0043L36.3259 55.8676L36.3526 55.8655L36.3791 55.8618L36.2595 55.0043ZM38.121 54.7445L38.2407 55.6021L38.2435 55.6017L38.121 54.7445ZM39.2899 54.3116L38.6383 53.7414L38.6325 53.7481L39.2899 54.3116ZM29.5059 45.7397L28.7314 45.3525L28.7153 45.3847L28.7019 45.4181L29.5059 45.7397ZM29.8089 45.0903L29.042 44.6884L29.029 44.7132L29.0177 44.7387L29.8089 45.0903ZM40.1991 25.2624L40.966 25.6643L40.9866 25.6251L41.003 25.584L40.1991 25.2624ZM42.1472 25.5655L42.9003 25.9927L42.9066 25.9817L42.9125 25.9706L42.1472 25.5655ZM31.7571 43.8781L31.004 43.4509L30.9928 43.4706L30.9826 43.4909L31.7571 43.8781ZM40.0259 34.7001L39.5985 33.9471L39.5629 33.9673L39.5294 33.9908L40.0259 34.7001ZM41.6277 33.791L42.0551 34.544L42.0573 34.5428L41.6277 33.791ZM42.1472 33.7477L41.7018 34.4902L41.7613 34.5259L41.8257 34.5516L42.1472 33.7477ZM42.6235 54.3549L41.9661 54.9184L41.9877 54.9436L42.0112 54.9671L42.6235 54.3549ZM43.8356 54.8311L43.6736 55.6818L43.6873 55.6841L43.8356 54.8311ZM44.8314 55.0043L45.0261 54.1606L45.003 54.1553L44.9797 54.1512L44.8314 55.0043ZM36.3461 56L36.3461 55.1342C36.2879 55.1342 36.2651 55.1285 36.2676 55.1292C36.2707 55.1299 36.3139 55.1408 36.3711 55.1827C36.4333 55.2284 36.4895 55.2946 36.5255 55.3738C36.5593 55.4482 36.5625 55.5055 36.5625 55.5238L35.6967 55.5238L34.8308 55.5238C34.8308 55.9012 34.974 56.3056 35.347 56.5792C35.6699 56.816 36.0493 56.8658 36.3461 56.8658L36.3461 56ZM35.6967 55.5238L36.5625 55.5238C36.5625 55.5287 36.5619 55.5663 36.5406 55.622C36.5178 55.6815 36.4787 55.7422 36.4247 55.792C36.3214 55.8873 36.2439 55.8739 36.3259 55.8676L36.2595 55.0043L36.1931 54.141C35.8999 54.1635 35.541 54.2511 35.2501 54.5196C34.9371 54.8084 34.8308 55.1865 34.8308 55.5238L35.6967 55.5238ZM36.2595 55.0043L36.3791 55.8618L38.2407 55.6021L38.121 54.7445L38.0014 53.887L36.1398 54.1467L36.2595 55.0043ZM38.121 54.7445L38.2435 55.6017C38.5817 55.5534 38.896 55.4843 39.1686 55.3833C39.431 55.2861 39.7257 55.1337 39.9473 54.8751L39.2899 54.3116L38.6325 53.7481C38.681 53.6916 38.6943 53.7123 38.5671 53.7594C38.4501 53.8028 38.2665 53.8491 37.9986 53.8874L38.121 54.7445ZM39.2899 54.3116L39.9416 54.8818C40.3553 54.4089 40.4588 53.7523 40.4588 53.1427L39.593 53.1427L38.7271 53.1427C38.7271 53.3681 38.7059 53.5254 38.6791 53.6289C38.6523 53.7323 38.6273 53.7541 38.6383 53.7414L39.2899 54.3116ZM39.593 53.1427L40.4588 53.1427L40.4588 47.5147L39.593 47.5147L38.7271 47.5147L38.7271 53.1427L39.593 53.1427ZM39.593 47.5147L40.4588 47.5147C40.4588 47.1792 40.3744 46.7685 40.0537 46.4479C39.733 46.1272 39.3224 46.0428 38.9869 46.0428L38.9869 46.9086L38.9869 47.7744C39.0555 47.7744 38.9479 47.791 38.8292 47.6724C38.7106 47.5537 38.7271 47.4461 38.7271 47.5147L39.593 47.5147ZM38.9869 46.9086L38.9869 46.0428L30.2418 46.0428L30.2418 46.9086L30.2418 47.7744L38.9869 47.7744L38.9869 46.9086ZM30.2418 46.9086L30.2418 46.0428C30.1665 46.0428 30.1333 46.034 30.1294 46.0329C30.1286 46.0326 30.1612 46.0426 30.2023 46.0793C30.2221 46.0971 30.2397 46.1174 30.2541 46.1389C30.2684 46.1602 30.2771 46.179 30.2821 46.1923C30.2915 46.2178 30.2851 46.2168 30.2851 46.1726L29.4193 46.1726L28.5534 46.1726C28.5534 46.5779 28.6711 47.033 29.0476 47.3699C29.4057 47.6903 29.8565 47.7744 30.2418 47.7744L30.2418 46.9086ZM29.4193 46.1726L30.2851 46.1726C30.2851 46.1467 30.2898 46.1112 30.3098 46.0613L29.5059 45.7397L28.7019 45.4181C28.6065 45.6568 28.5534 45.9099 28.5534 46.1726L29.4193 46.1726ZM29.5059 45.7397L30.2803 46.1269C30.3748 45.938 30.4816 45.7087 30.6001 45.442L29.8089 45.0903L29.0177 44.7387C28.9054 44.9914 28.8101 45.1951 28.7314 45.3525L29.5059 45.7397ZM29.8089 45.0903L30.5758 45.4922L40.966 25.6643L40.1991 25.2624L39.4322 24.8605L29.042 44.6884L29.8089 45.0903ZM40.1991 25.2624L41.003 25.584C41.004 25.5814 40.9993 25.5941 40.9834 25.6139C40.9669 25.6346 40.9443 25.6553 40.9177 25.672C40.8627 25.7063 40.8372 25.6953 40.8918 25.6953L40.8918 24.8295L40.8918 23.9636C40.6 23.9636 40.2859 24.0248 39.9999 24.2035C39.7071 24.3865 39.5111 24.651 39.3952 24.9408L40.1991 25.2624ZM40.8918 24.8295L40.8918 25.6953L41.7576 25.6953L41.7576 24.8295L41.7576 23.9636L40.8918 23.9636L40.8918 24.8295ZM41.7576 24.8295L41.7576 25.6953C41.8298 25.6953 41.8207 25.7053 41.7682 25.6855C41.7033 25.6609 41.5685 25.5869 41.4794 25.4186C41.395 25.2591 41.4106 25.1255 41.4163 25.093C41.4214 25.0641 41.4232 25.0826 41.382 25.1603L42.1472 25.5655L42.9125 25.9706C43.0012 25.803 43.0841 25.6068 43.1217 25.3939C43.1599 25.1775 43.1593 24.8906 43.0099 24.6084C42.6986 24.0204 42.0594 23.9636 41.7576 23.9636L41.7576 24.8295ZM42.1472 25.5655L41.3942 25.1382L31.004 43.4509L31.7571 43.8781L32.5101 44.3054L42.9003 25.9927L42.1472 25.5655ZM31.7571 43.8781L30.9826 43.4909C30.8667 43.7227 30.6468 44.2485 30.9404 44.7623C31.2491 45.3026 31.84 45.3501 32.1034 45.3501L32.1034 44.4842L32.1034 43.6184C32.0528 43.6184 32.0759 43.6112 32.1376 43.6339C32.2099 43.6605 32.348 43.7352 32.4439 43.9031C32.5369 44.0659 32.53 44.2112 32.5222 44.2657C32.5152 44.3147 32.5047 44.3189 32.5315 44.2654L31.7571 43.8781ZM32.1034 44.4842L32.1034 45.3501L38.9869 45.3501L38.9869 44.4842L38.9869 43.6184L32.1034 43.6184L32.1034 44.4842ZM38.9869 44.4842L38.9869 45.3501C39.3224 45.3501 39.733 45.2656 40.0537 44.945C40.3744 44.6243 40.4588 44.2136 40.4588 43.8781L39.593 43.8781L38.7271 43.8781C38.7271 43.9467 38.7106 43.8391 38.8292 43.7205C38.9479 43.6018 39.0555 43.6184 38.9869 43.6184L38.9869 44.4842ZM39.593 43.8781L40.4588 43.8781L40.4588 35.3928L39.593 35.3928L38.7271 35.3928L38.7271 43.8781L39.593 43.8781ZM39.593 35.3928L40.4588 35.3928C40.4588 35.4093 40.4564 35.4285 40.4507 35.4477C40.4451 35.4667 40.4384 35.479 40.4355 35.4837C40.4308 35.4913 40.4466 35.4626 40.5224 35.4095L40.0259 34.7001L39.5294 33.9908C39.0993 34.2919 38.7271 34.7561 38.7271 35.3928L39.593 35.3928ZM40.0259 34.7001L40.4533 35.4532L42.0551 34.544L41.6277 33.791L41.2003 33.038L39.5985 33.9471L40.0259 34.7001ZM41.6277 33.791L42.0573 34.5428C42.084 34.5275 42.0554 34.5503 41.981 34.5565C41.8931 34.5638 41.7905 34.5434 41.7018 34.4902L42.1472 33.7477L42.5927 33.0053C42.0811 32.6983 41.5546 32.8356 41.1981 33.0392L41.6277 33.791ZM42.1472 33.7477L41.8257 34.5516C41.7672 34.5283 41.7063 34.4917 41.6512 34.4402C41.5964 34.3891 41.5591 34.3343 41.5351 34.2865C41.4909 34.1979 41.4979 34.1456 41.4979 34.1806L42.3637 34.1806L43.2295 34.1806C43.2295 33.7963 43.0951 33.1943 42.4688 32.9438L42.1472 33.7477ZM42.3637 34.1806L41.4979 34.1806L41.4979 43.8781L42.3637 43.8781L43.2295 43.8781L43.2295 34.1806L42.3637 34.1806ZM42.3637 43.8781L41.4979 43.8781C41.4979 44.2136 41.5823 44.6243 41.903 44.945C42.2236 45.2656 42.6343 45.3501 42.9698 45.3501L42.9698 44.4842L42.9698 43.6184C42.9012 43.6184 43.0088 43.6018 43.1275 43.7205C43.2461 43.8391 43.2295 43.9467 43.2295 43.8781L42.3637 43.8781ZM42.9698 44.4842L42.9698 45.3501L44.8747 45.3501L44.8747 44.4842L44.8747 43.6184L42.9698 43.6184L42.9698 44.4842ZM44.8747 44.4842L44.8747 45.3501C44.9144 45.3501 44.7851 45.3594 44.652 45.2264C44.519 45.0933 44.5283 44.964 44.5283 45.0037L45.3942 45.0037L46.26 45.0037C46.26 44.6971 46.1828 44.3081 45.8765 44.0019C45.5703 43.6956 45.1813 43.6184 44.8747 43.6184L44.8747 44.4842ZM45.3942 45.0037L44.5283 45.0037L44.5283 46.3891L45.3942 46.3891L46.26 46.3891L46.26 45.0037L45.3942 45.0037ZM45.3942 46.3891L44.5283 46.3891C44.5283 46.4288 44.519 46.2995 44.652 46.1665C44.7851 46.0334 44.9144 46.0428 44.8747 46.0428L44.8747 46.9086L44.8747 47.7744C45.1813 47.7744 45.5703 47.6972 45.8765 47.391C46.1828 47.0847 46.26 46.6957 46.26 46.3891L45.3942 46.3891ZM44.8747 46.9086L44.8747 46.0428L42.9698 46.0428L42.9698 46.9086L42.9698 47.7744L44.8747 47.7744L44.8747 46.9086ZM42.9698 46.9086L42.9698 46.0428C42.6343 46.0428 42.2236 46.1272 41.903 46.4479C41.5823 46.7685 41.4979 47.1792 41.4979 47.5147L42.3637 47.5147L43.2295 47.5147C43.2295 47.4461 43.2461 47.5537 43.1275 47.6724C43.0088 47.791 42.9012 47.7744 42.9698 47.7744L42.9698 46.9086ZM42.3637 47.5147L41.4979 47.5147L41.4979 53.1427L42.3637 53.1427L43.2295 53.1427L43.2295 47.5147L42.3637 47.5147ZM42.3637 53.1427L41.4979 53.1427C41.4979 53.4813 41.5215 53.7995 41.582 54.0817C41.6404 54.354 41.7476 54.6635 41.9661 54.9184L42.6235 54.3549L43.2809 53.7914C43.3262 53.8443 43.3035 53.8507 43.2753 53.7189C43.2492 53.5971 43.2295 53.4102 43.2295 53.1427L42.3637 53.1427ZM42.6235 54.3549L42.0112 54.9671C42.4144 55.3703 43.0545 55.5637 43.6736 55.6817L43.8356 54.8311L43.9977 53.9806C43.7273 53.9291 43.5306 53.873 43.3946 53.8196C43.2514 53.7633 43.2204 53.7274 43.2357 53.7426L42.6235 54.3549ZM43.8356 54.8311L43.6873 55.6841L44.683 55.8573L44.8314 55.0043L44.9797 54.1512L43.984 53.9781L43.8356 54.8311ZM44.8314 55.0043L44.6367 55.8479C44.7464 55.8733 44.7253 55.8899 44.6662 55.8353C44.6318 55.8036 44.5929 55.7549 44.5645 55.6895C44.5363 55.6244 44.5283 55.5652 44.5283 55.5238L45.3942 55.5238L46.26 55.5238C46.26 55.157 46.1156 54.8166 45.8408 54.5629C45.594 54.3351 45.2915 54.2219 45.0261 54.1606L44.8314 55.0043ZM45.3942 55.5238L44.5283 55.5238C44.5283 55.5055 44.5315 55.4482 44.5653 55.3738C44.6014 55.2946 44.6575 55.2284 44.7198 55.1827C44.7769 55.1408 44.8201 55.1299 44.8233 55.1292C44.8258 55.1285 44.8029 55.1342 44.7448 55.1342L44.7448 56L44.7448 56.8658C45.0415 56.8658 45.4209 56.816 45.7439 56.5792C46.1169 56.3056 46.26 55.9012 46.26 55.5238L45.3942 55.5238ZM44.7448 56L44.7448 55.1342L36.3461 55.1342L36.3461 56L36.3461 56.8658L44.7448 56.8658L44.7448 56Z" fill="black" mask="url(#path-3-outside-1_1747_4103)"/>
<mask id="path-5-outside-2_1747_4103" maskUnits="userSpaceOnUse" x="55.3018" y="54.3155" width="15" height="16" fill="black">
<rect fill="white" x="55.3018" y="54.3155" width="15" height="16"/>
<path d="M56.745 69.3155C56.5489 69.3155 56.4509 69.2436 56.4509 69.0999C56.4509 68.9561 56.5359 68.8777 56.7057 68.8646L57.4702 68.7862C57.7447 68.7601 57.9276 68.6948 58.0191 68.5902C58.1236 68.4857 58.1759 68.2962 58.1759 68.0217L58.1759 56.378C58.1759 56.1558 58.1106 56.0121 57.9799 55.9467C57.8623 55.8683 57.7055 55.8422 57.5094 55.8683L56.8038 55.9467C56.5685 55.9598 56.4509 55.8749 56.4509 55.6919C56.4509 55.5482 56.5555 55.4567 56.7646 55.4175C57.4572 55.2999 57.9668 55.1888 58.2935 55.0842C58.6202 54.9666 58.862 54.9078 59.0188 54.9078C59.2932 54.9078 59.4305 55.0516 59.4305 55.3391L59.4305 68.0217C59.4305 68.2962 59.4762 68.4857 59.5677 68.5902C59.6722 68.6948 59.8617 68.7601 60.1361 68.7862L60.783 68.8646C60.9529 68.8777 61.0378 68.9561 61.0378 69.0999C61.0378 69.2436 60.9398 69.3155 60.7438 69.3155L56.745 69.3155ZM65.7429 69.4919C64.9849 69.4919 64.3184 69.1717 63.7434 68.5314C63.1684 67.8911 62.7241 67.022 62.4105 65.9243C62.0968 64.8266 61.94 63.5982 61.94 62.2391C61.94 60.88 62.0968 59.6581 62.4105 58.5735C62.7241 57.4757 63.1684 56.6067 63.7434 55.9663C64.3184 55.326 64.9849 55.0058 65.7429 55.0058C66.5008 55.0058 67.1607 55.326 67.7227 55.9663C68.2977 56.6067 68.742 57.4757 69.0556 58.5735C69.3823 59.6581 69.5457 60.88 69.5457 62.2391C69.5457 63.5982 69.3823 64.8266 69.0556 65.9243C68.742 67.022 68.2977 67.8911 67.7227 68.5314C67.1607 69.1717 66.5008 69.4919 65.7429 69.4919ZM65.7429 68.9626C66.5661 68.9626 67.1673 68.4073 67.5463 67.2965C67.9383 66.1857 68.1343 64.4999 68.1343 62.2391C68.1343 59.9783 67.9383 58.299 67.5463 57.2013C67.1673 56.0905 66.5661 55.5351 65.7429 55.5351C64.9196 55.5351 64.3119 56.0905 63.9198 57.2013C63.5409 58.299 63.3514 59.9783 63.3514 62.2391C63.3514 64.4999 63.5409 66.1857 63.9198 67.2965C64.3119 68.4073 64.9196 68.9626 65.7429 68.9626Z"/>
</mask>
<path d="M56.745 69.3155C56.5489 69.3155 56.4509 69.2436 56.4509 69.0999C56.4509 68.9561 56.5359 68.8777 56.7057 68.8646L57.4702 68.7862C57.7447 68.7601 57.9276 68.6948 58.0191 68.5902C58.1236 68.4857 58.1759 68.2962 58.1759 68.0217L58.1759 56.378C58.1759 56.1558 58.1106 56.0121 57.9799 55.9467C57.8623 55.8683 57.7055 55.8422 57.5094 55.8683L56.8038 55.9467C56.5685 55.9598 56.4509 55.8749 56.4509 55.6919C56.4509 55.5482 56.5555 55.4567 56.7646 55.4175C57.4572 55.2999 57.9668 55.1888 58.2935 55.0842C58.6202 54.9666 58.862 54.9078 59.0188 54.9078C59.2932 54.9078 59.4305 55.0516 59.4305 55.3391L59.4305 68.0217C59.4305 68.2962 59.4762 68.4857 59.5677 68.5902C59.6722 68.6948 59.8617 68.7601 60.1361 68.7862L60.783 68.8646C60.9529 68.8777 61.0378 68.9561 61.0378 69.0999C61.0378 69.2436 60.9398 69.3155 60.7438 69.3155L56.745 69.3155ZM65.7429 69.4919C64.9849 69.4919 64.3184 69.1717 63.7434 68.5314C63.1684 67.8911 62.7241 67.022 62.4105 65.9243C62.0968 64.8266 61.94 63.5982 61.94 62.2391C61.94 60.88 62.0968 59.6581 62.4105 58.5735C62.7241 57.4757 63.1684 56.6067 63.7434 55.9663C64.3184 55.326 64.9849 55.0058 65.7429 55.0058C66.5008 55.0058 67.1607 55.326 67.7227 55.9663C68.2977 56.6067 68.742 57.4757 69.0556 58.5735C69.3823 59.6581 69.5457 60.88 69.5457 62.2391C69.5457 63.5982 69.3823 64.8266 69.0556 65.9243C68.742 67.022 68.2977 67.8911 67.7227 68.5314C67.1607 69.1717 66.5008 69.4919 65.7429 69.4919ZM65.7429 68.9626C66.5661 68.9626 67.1673 68.4073 67.5463 67.2965C67.9383 66.1857 68.1343 64.4999 68.1343 62.2391C68.1343 59.9783 67.9383 58.299 67.5463 57.2013C67.1673 56.0905 66.5661 55.5351 65.7429 55.5351C64.9196 55.5351 64.3119 56.0905 63.9198 57.2013C63.5409 58.299 63.3514 59.9783 63.3514 62.2391C63.3514 64.4999 63.5409 66.1857 63.9198 67.2965C64.3119 68.4073 64.9196 68.9626 65.7429 68.9626Z" fill="black"/>
<path d="M56.7057 68.8646L56.7409 69.3221L56.7525 69.3209L56.7057 68.8646ZM57.4702 68.7862L57.4268 68.3296L57.4234 68.33L57.4702 68.7862ZM58.0191 68.5902L57.6948 68.2659L57.684 68.2767L57.6739 68.2882L58.0191 68.5902ZM57.9799 55.9467L57.7255 56.3284L57.7492 56.3442L57.7748 56.357L57.9799 55.9467ZM57.5094 55.8683L57.5601 56.3243L57.5701 56.323L57.5094 55.8683ZM56.8038 55.9467L56.8292 56.4047L56.8418 56.404L56.8544 56.4026L56.8038 55.9467ZM56.7646 55.4175L56.6878 54.9653L56.68 54.9667L56.7646 55.4175ZM58.2935 55.0842L58.4333 55.5211L58.4411 55.5186L58.4489 55.5158L58.2935 55.0842ZM59.5677 68.5902L59.2225 68.8922L59.2326 68.9037L59.2434 68.9145L59.5677 68.5902ZM60.1361 68.7862L60.1914 68.3308L60.1796 68.3297L60.1361 68.7862ZM60.783 68.8646L60.7278 69.3199L60.7378 69.3212L60.7478 69.3219L60.783 68.8646ZM56.745 69.3155L56.745 68.8569C56.6895 68.8569 56.7309 68.8443 56.7957 68.8917C56.8328 68.919 56.8657 68.9579 56.8868 69.0044C56.9068 69.0484 56.9096 69.0841 56.9096 69.0999H56.4509H55.9923C55.9923 69.2876 56.0639 69.4926 56.2532 69.6314C56.4159 69.7508 56.6044 69.7741 56.745 69.7741L56.745 69.3155ZM56.4509 69.0999H56.9096C56.9096 69.1086 56.9083 69.1339 56.8952 69.1681C56.8814 69.2044 56.8579 69.2405 56.8257 69.2703C56.7638 69.3274 56.7119 69.3242 56.7409 69.3219L56.7057 68.8646L56.6706 68.4074C56.5297 68.4182 56.3504 68.4607 56.2035 68.5962C56.045 68.7426 55.9923 68.9334 55.9923 69.0999H56.4509ZM56.7057 68.8646L56.7525 69.3209L57.517 69.2425L57.4702 68.7862L57.4234 68.33L56.659 68.4084L56.7057 68.8646ZM57.4702 68.7862L57.5137 69.2428C57.8056 69.215 58.1485 69.1388 58.3643 68.8922L58.0191 68.5902L57.6739 68.2882C57.6962 68.2628 57.7047 68.2694 57.659 68.2857C57.6147 68.3015 57.5406 68.3188 57.4268 68.3297L57.4702 68.7862ZM58.0191 68.5902L58.3434 68.9145C58.583 68.6749 58.6346 68.3241 58.6346 68.0217L58.1759 68.0217H57.7173C57.7173 68.1327 57.7064 68.2049 57.6946 68.2477C57.6828 68.2903 57.6754 68.2853 57.6948 68.2659L58.0191 68.5902ZM58.1759 68.0217L58.6346 68.0217L58.6346 56.378L58.1759 56.378L57.7173 56.378L57.7173 68.0217H58.1759ZM58.1759 56.378L58.6346 56.378C58.6346 56.0825 58.5441 55.7161 58.185 55.5365L57.9799 55.9467L57.7748 56.357C57.7599 56.3495 57.7444 56.3384 57.7311 56.3241C57.718 56.3103 57.7117 56.2983 57.7094 56.2934C57.7074 56.289 57.7096 56.2922 57.7122 56.3067C57.7148 56.3213 57.7173 56.3444 57.7173 56.378L58.1759 56.378ZM57.9799 55.9467L58.2343 55.5651C57.9929 55.4042 57.7114 55.3787 57.4488 55.4137L57.5094 55.8683L57.5701 56.323C57.6334 56.3145 57.6746 56.3167 57.6987 56.3207C57.7103 56.3227 57.7174 56.3249 57.7211 56.3263C57.7229 56.327 57.7241 56.3276 57.7247 56.3279C57.725 56.3281 57.7252 56.3282 57.7253 56.3282C57.7254 56.3283 57.7255 56.3284 57.7255 56.3284L57.9799 55.9467ZM57.5094 55.8683L57.4588 55.4125L56.7531 55.4909L56.8038 55.9467L56.8544 56.4026L57.5601 56.3242L57.5094 55.8683ZM56.8038 55.9467L56.7783 55.4888C56.7474 55.4905 56.7369 55.4879 56.7409 55.4888C56.7457 55.4897 56.7731 55.4961 56.8077 55.521C56.8451 55.5481 56.875 55.5857 56.8929 55.6264C56.9093 55.6636 56.9096 55.6896 56.9096 55.6919L56.4509 55.6919L55.9923 55.6919C55.9923 55.8879 56.0615 56.1136 56.2706 56.2646C56.4535 56.3968 56.6674 56.4137 56.8292 56.4047L56.8038 55.9467ZM56.4509 55.6919L56.9096 55.6919C56.9096 55.7126 56.9055 55.7444 56.8896 55.7802C56.8736 55.8163 56.8513 55.8432 56.8313 55.8607C56.7974 55.8903 56.7857 55.8801 56.8491 55.8683L56.7646 55.4175L56.68 54.9667C56.5343 54.994 56.3658 55.0492 56.2273 55.1703C56.0716 55.3066 55.9923 55.493 55.9923 55.6919L56.4509 55.6919ZM56.7646 55.4175L56.8413 55.8697C57.538 55.7513 58.0742 55.636 58.4333 55.5211L58.2935 55.0842L58.1538 54.6474C57.8594 54.7416 57.3763 54.8484 56.6878 54.9653L56.7646 55.4175ZM58.2935 55.0842L58.4489 55.5158C58.7714 55.3997 58.9481 55.3665 59.0188 55.3665L59.0188 54.9078L59.0188 54.4492C58.7759 54.4492 58.469 54.5336 58.1382 54.6527L58.2935 55.0842ZM59.0188 54.9078L59.0188 55.3665C59.0487 55.3665 59.0556 55.3705 59.0477 55.3678C59.0434 55.3663 59.0354 55.363 59.0256 55.3568C59.0156 55.3505 59.0053 55.3423 58.9958 55.3323C58.9757 55.3112 58.9687 55.2928 58.9677 55.2895C58.9673 55.2881 58.9718 55.3023 58.9718 55.3391L59.4305 55.3391L59.8891 55.3391C59.8891 55.1298 59.8395 54.8877 59.6593 54.699C59.4753 54.5062 59.2323 54.4492 59.0188 54.4492L59.0188 54.9078ZM59.4305 55.3391L58.9718 55.3391L58.9718 68.0217L59.4305 68.0217H59.8891L59.8891 55.3391L59.4305 55.3391ZM59.4305 68.0217L58.9718 68.0217C58.9718 68.3144 59.0139 68.6538 59.2225 68.8922L59.5677 68.5902L59.9128 68.2882C59.9315 68.3095 59.9227 68.3122 59.9106 68.2621C59.8989 68.2136 59.8891 68.1362 59.8891 68.0217H59.4305ZM59.5677 68.5902L59.2434 68.9145C59.4654 69.1366 59.7924 69.2142 60.0927 69.2428L60.1361 68.7862L60.1796 68.3297C60.0661 68.3188 59.9881 68.3014 59.9377 68.284C59.8866 68.2664 59.8808 68.2547 59.892 68.2659L59.5677 68.5902ZM60.1361 68.7862L60.081 69.2415L60.7278 69.3199L60.783 68.8646L60.8382 68.4093L60.1913 68.3309L60.1361 68.7862ZM60.783 68.8646L60.7478 69.3219C60.7769 69.3242 60.725 69.3274 60.6631 69.2703C60.6308 69.2405 60.6074 69.2044 60.5935 69.1681C60.5805 69.1339 60.5792 69.1086 60.5792 69.0999L61.0378 69.0999H61.4965C61.4965 68.9334 61.4438 68.7426 61.2852 68.5962C61.1384 68.4607 60.9591 68.4182 60.8182 68.4074L60.783 68.8646ZM61.0378 69.0999L60.5792 69.0999C60.5792 69.0841 60.5819 69.0484 60.6019 69.0044C60.6231 68.9579 60.656 68.919 60.6931 68.8917C60.7579 68.8443 60.7993 68.8569 60.7438 68.8569L60.7438 69.3155L60.7438 69.7741C60.8843 69.7741 61.0728 69.7508 61.2356 69.6314C61.4248 69.4926 61.4965 69.2876 61.4965 69.0999H61.0378ZM60.7438 69.3155L60.7438 68.8569L56.745 68.8569L56.745 69.3155L56.745 69.7741L60.7438 69.7741L60.7438 69.3155ZM63.7434 68.5314L64.0847 68.225L63.7434 68.5314ZM62.4105 65.9243L62.8515 65.7983L62.4105 65.9243ZM62.4105 58.5735L62.8511 58.7009L62.8515 58.6994L62.4105 58.5735ZM63.7434 55.9663L63.4022 55.6599V55.6599L63.7434 55.9663ZM67.7227 55.9663L67.3779 56.2689L67.3814 56.2728L67.7227 55.9663ZM69.0556 58.5735L68.6146 58.6995L68.6165 58.7057L69.0556 58.5735ZM69.0556 65.9243L68.616 65.7935L68.6146 65.7983L69.0556 65.9243ZM67.7227 68.5314L67.3814 68.225L67.378 68.2289L67.7227 68.5314ZM67.5463 67.2965L67.1137 67.1438L67.1122 67.1484L67.5463 67.2965ZM67.5463 57.2013L67.1121 57.3494L67.1143 57.3555L67.5463 57.2013ZM63.9198 57.2013L63.4873 57.0486L63.4863 57.0516L63.9198 57.2013ZM63.9198 67.2965L63.4857 67.4446L63.4874 67.4491L63.9198 67.2965ZM65.7429 69.4919L65.7429 69.0333C65.1334 69.0333 64.5857 68.783 64.0847 68.225L63.7434 68.5314L63.4022 68.8378C64.0511 69.5605 64.8364 69.9505 65.7429 69.9505V69.4919ZM63.7434 68.5314L64.0847 68.225C63.5688 67.6505 63.1519 66.85 62.8515 65.7983L62.4105 65.9243L61.9695 66.0503C62.2963 67.1941 62.768 68.1316 63.4022 68.8378L63.7434 68.5314ZM62.4105 65.9243L62.8515 65.7983C62.5515 64.7485 62.3987 63.5634 62.3987 62.2391H61.94L61.4814 62.2391C61.4814 63.6329 61.6422 64.9047 61.9695 66.0503L62.4105 65.9243ZM61.94 62.2391H62.3987C62.3987 60.9146 62.5515 59.7367 62.8511 58.7008L62.4105 58.5735L61.9699 58.4461C61.6421 59.5795 61.4814 60.8453 61.4814 62.2391L61.94 62.2391ZM62.4105 58.5735L62.8515 58.6994C63.1519 57.6478 63.5688 56.8473 64.0847 56.2728L63.7434 55.9663L63.4022 55.6599C62.768 56.3661 62.2963 57.3037 61.9695 58.4475L62.4105 58.5735ZM63.7434 55.9663L64.0847 56.2728C64.5857 55.7148 65.1334 55.4645 65.7429 55.4645V55.0058L65.7429 54.5472C64.8364 54.5472 64.0511 54.9372 63.4022 55.6599L63.7434 55.9663ZM65.7429 55.0058V55.4645C66.3516 55.4645 66.8911 55.714 67.378 56.2689L67.7227 55.9663L68.0674 55.6638C67.4304 54.938 66.6501 54.5472 65.7429 54.5472L65.7429 55.0058ZM67.7227 55.9663L67.3814 56.2728C67.8973 56.8473 68.3142 57.6478 68.6146 58.6994L69.0556 58.5735L69.4966 58.4475C69.1698 57.3037 68.6981 56.3661 68.0639 55.6599L67.7227 55.9663ZM69.0556 58.5735L68.6165 58.7057C68.928 59.7399 69.0871 60.9161 69.0871 62.2391H69.5457L70.0043 62.2391C70.0043 60.8438 69.8367 59.5763 69.4948 58.4412L69.0556 58.5735ZM69.5457 62.2391H69.0871C69.0871 63.5619 68.928 64.7453 68.6161 65.7935L69.0556 65.9243L69.4952 66.0551C69.8367 64.9079 70.0043 63.6345 70.0043 62.2391L69.5457 62.2391ZM69.0556 65.9243L68.6146 65.7983C68.3142 66.85 67.8973 67.6505 67.3814 68.225L67.7227 68.5314L68.0639 68.8378C68.6981 68.1316 69.1698 67.1941 69.4966 66.0503L69.0556 65.9243ZM67.7227 68.5314L67.378 68.2289C66.8911 68.7837 66.3516 69.0333 65.7429 69.0333L65.7429 69.4919V69.9505C66.6501 69.9505 67.4304 69.5598 68.0674 68.8339L67.7227 68.5314ZM65.7429 68.9627L65.7429 69.4213C66.2691 69.4213 66.7365 69.2395 67.1224 68.883C67.498 68.5359 67.7762 68.0428 67.9803 67.4446L67.5463 67.2965L67.1122 67.1484C66.9373 67.6609 66.7255 68.0009 66.4999 68.2092C66.2847 68.4081 66.0399 68.504 65.7429 68.504V68.9627ZM67.5463 67.2965L67.9788 67.4491C68.3975 66.2627 68.593 64.5132 68.593 62.2391L68.1343 62.2391L67.6757 62.2391C67.6757 64.4865 67.4791 66.1086 67.1138 67.1438L67.5463 67.2965ZM68.1343 62.2391L68.593 62.2391C68.593 59.9655 68.3976 58.2214 67.9782 57.047L67.5463 57.2013L67.1143 57.3555C67.479 58.3766 67.6757 59.9911 67.6757 62.2391L68.1343 62.2391ZM67.5463 57.2013L67.9803 57.0532C67.7762 56.455 67.498 55.9618 67.1224 55.6148C66.7365 55.2583 66.2691 55.0765 65.7429 55.0765L65.7429 55.5351V55.9937C66.0399 55.9937 66.2847 56.0896 66.4999 56.2885C66.7255 56.4969 66.9373 56.8368 67.1122 57.3494L67.5463 57.2013ZM65.7429 55.5351L65.7429 55.0765C65.2167 55.0765 64.7486 55.2581 64.3602 55.6131C63.9819 55.9589 63.6983 56.4508 63.4874 57.0486L63.9198 57.2013L64.3523 57.3539C64.5334 56.841 64.7497 56.4998 64.979 56.2902C65.1983 56.0898 65.4457 55.9937 65.7429 55.9937V55.5351ZM63.9198 57.2013L63.4863 57.0516C63.0816 58.224 62.8927 59.9661 62.8927 62.2391L63.3514 62.2391H63.81C63.81 59.9905 64.0002 58.3741 64.3534 57.351L63.9198 57.2013ZM63.3514 62.2391L62.8927 62.2391C62.8927 64.5126 63.0817 66.2602 63.4858 67.4446L63.9198 67.2965L64.3539 67.1484C64 66.1111 63.81 64.4871 63.81 62.2391H63.3514ZM63.9198 67.2965L63.4874 67.4491C63.6983 68.0469 63.9819 68.5388 64.3602 68.8846C64.7486 69.2396 65.2167 69.4213 65.7429 69.4213L65.7429 68.9627V68.504C65.4457 68.504 65.1983 68.408 64.979 68.2076C64.7497 67.998 64.5334 67.6568 64.3523 67.1438L63.9198 67.2965Z" fill="black" mask="url(#path-5-outside-2_1747_4103)"/>
<defs>
<linearGradient id="paint0_linear_1747_4103" x1="62.6569" y1="2.5" x2="-2.46402" y2="49.2388" gradientUnits="userSpaceOnUse">
<stop stop-color="#E9F1FF"/>
<stop offset="1" stop-color="#8EACFF"/>
</linearGradient>
</defs>
</svg>
