<svg width="100" height="100" viewBox="0 0 100 100" fill="none" xmlns="http://www.w3.org/2000/svg">
<path d="M47.6484 7.94434C49.0504 6.92576 50.9496 6.92576 52.3516 7.94434L89.2705 34.7676C90.6725 35.7862 91.2591 37.5921 90.7236 39.2402L76.6221 82.6416C76.0866 84.2897 74.5503 85.4062 72.8174 85.4062H27.1826C25.4497 85.4062 23.9134 84.2897 23.3779 82.6416L9.27637 39.2402C8.74087 37.5921 9.32754 35.7862 10.7295 34.7676L47.6484 7.94434Z" fill="url(#paint0_linear_1747_4128)" stroke="black" stroke-width="2"/>
<line x1="35.3524" y1="72.3376" x2="66.1166" y2="31.6875" stroke="black" stroke-width="1.63039" stroke-linecap="round"/>
<mask id="path-3-outside-1_1747_4128" maskUnits="userSpaceOnUse" x="30.7549" y="25.5205" width="17" height="35" fill="black">
<rect fill="white" x="30.7549" y="25.5205" width="17" height="35"/>
<path d="M34.6149 58.8668C34.3263 58.9246 34.1098 58.8957 33.9655 58.7803C33.8501 58.6648 33.7923 58.5205 33.7923 58.3473C33.7923 58.0876 33.9511 57.8856 34.2685 57.7412C36.4909 56.9043 38.3236 55.5045 39.7667 53.5419C41.2098 51.5504 42.2055 48.8519 42.7539 45.4462C42.8116 45.2153 42.7827 45.071 42.6673 45.0133C42.5518 44.9556 42.4075 44.9989 42.2343 45.1432C41.3396 45.8358 40.2429 46.1822 38.9441 46.1822C37.5876 46.1822 36.3754 45.7637 35.3076 44.9267C34.2397 44.0897 33.3883 42.9641 32.7533 41.5499C32.1472 40.1068 31.8442 38.5194 31.8442 36.7877C31.8442 35.0272 32.1761 33.4109 32.8399 31.939C33.5037 30.4382 34.384 29.226 35.4807 28.3024C36.6063 27.3789 37.8474 26.9171 39.2039 26.9171C40.6758 26.9171 41.9602 27.4077 43.0569 28.389C44.1536 29.3703 45.0051 30.7412 45.6111 32.5018C46.2461 34.2335 46.5636 36.2682 46.5636 38.606C46.5636 42.1848 46.0152 45.4029 44.9185 48.2602C43.8506 51.0886 42.4075 53.412 40.5892 55.2303C38.7998 57.0486 36.8084 58.2608 34.6149 58.8668ZM34.9612 36.5713C34.9612 42.257 36.3033 45.0999 38.9874 45.0999C40.4594 45.0999 41.5705 44.335 42.3209 42.8054C43.0713 41.2757 43.4465 39.1111 43.4465 36.3115C43.4465 33.6274 43.0858 31.5926 42.3642 30.2073C41.6715 28.7931 40.6037 28.086 39.1606 28.086C36.361 28.086 34.9612 30.9144 34.9612 36.5713Z"/>
</mask>
<path d="M34.6149 58.8668C34.3263 58.9246 34.1098 58.8957 33.9655 58.7803C33.8501 58.6648 33.7923 58.5205 33.7923 58.3473C33.7923 58.0876 33.9511 57.8856 34.2685 57.7412C36.4909 56.9043 38.3236 55.5045 39.7667 53.5419C41.2098 51.5504 42.2055 48.8519 42.7539 45.4462C42.8116 45.2153 42.7827 45.071 42.6673 45.0133C42.5518 44.9556 42.4075 44.9989 42.2343 45.1432C41.3396 45.8358 40.2429 46.1822 38.9441 46.1822C37.5876 46.1822 36.3754 45.7637 35.3076 44.9267C34.2397 44.0897 33.3883 42.9641 32.7533 41.5499C32.1472 40.1068 31.8442 38.5194 31.8442 36.7877C31.8442 35.0272 32.1761 33.4109 32.8399 31.939C33.5037 30.4382 34.384 29.226 35.4807 28.3024C36.6063 27.3789 37.8474 26.9171 39.2039 26.9171C40.6758 26.9171 41.9602 27.4077 43.0569 28.389C44.1536 29.3703 45.0051 30.7412 45.6111 32.5018C46.2461 34.2335 46.5636 36.2682 46.5636 38.606C46.5636 42.1848 46.0152 45.4029 44.9185 48.2602C43.8506 51.0886 42.4075 53.412 40.5892 55.2303C38.7998 57.0486 36.8084 58.2608 34.6149 58.8668ZM34.9612 36.5713C34.9612 42.257 36.3033 45.0999 38.9874 45.0999C40.4594 45.0999 41.5705 44.335 42.3209 42.8054C43.0713 41.2757 43.4465 39.1111 43.4465 36.3115C43.4465 33.6274 43.0858 31.5926 42.3642 30.2073C41.6715 28.7931 40.6037 28.086 39.1606 28.086C36.361 28.086 34.9612 30.9144 34.9612 36.5713Z" fill="black"/>
<path d="M34.6149 58.8668L34.7847 59.7159L34.8154 59.7097L34.8455 59.7014L34.6149 58.8668ZM33.9655 58.7803L33.3533 59.3925L33.3872 59.4264L33.4246 59.4564L33.9655 58.7803ZM34.2685 57.7412L33.9634 56.931L33.9364 56.9411L33.9103 56.953L34.2685 57.7412ZM39.7667 53.5419L40.4643 54.0548L40.4678 54.0499L39.7667 53.5419ZM42.7539 45.4462L41.9139 45.2362L41.9049 45.2721L41.899 45.3086L42.7539 45.4462ZM42.6673 45.0133L43.0545 44.2388L43.0545 44.2388L42.6673 45.0133ZM42.2343 45.1432L42.7644 45.8278L42.7767 45.8183L42.7886 45.8083L42.2343 45.1432ZM35.3076 44.9267L34.7734 45.6082H34.7734L35.3076 44.9267ZM32.7533 41.5499L31.955 41.8852L31.9591 41.8949L31.9634 41.9045L32.7533 41.5499ZM32.8399 31.939L33.6292 32.295L33.6317 32.2892L32.8399 31.939ZM35.4807 28.3024L34.9315 27.633L34.923 27.6401L35.4807 28.3024ZM43.0569 28.389L43.6342 27.7437V27.7437L43.0569 28.389ZM45.6111 32.5018L44.7925 32.7836L44.7953 32.7918L44.7982 32.7999L45.6111 32.5018ZM44.9185 48.2602L44.1101 47.9499L44.1084 47.9544L44.9185 48.2602ZM40.5892 55.2303L39.977 54.618L39.9721 54.623L40.5892 55.2303ZM42.3642 30.2073L41.5866 30.5881L41.5913 30.5978L41.5963 30.6073L42.3642 30.2073ZM34.6149 58.8668L34.4451 58.0178C34.4064 58.0256 34.3793 58.0285 34.3626 58.0295C34.3457 58.0304 34.3426 58.0292 34.3505 58.0302C34.3588 58.0313 34.3798 58.0351 34.4088 58.0467C34.4387 58.0586 34.4727 58.0772 34.5064 58.1041L33.9655 58.7803L33.4246 59.4564C33.862 59.8063 34.3926 59.7943 34.7847 59.7159L34.6149 58.8668ZM33.9655 58.7803L34.5777 58.168C34.5987 58.1889 34.6227 58.2217 34.6395 58.2639C34.656 58.305 34.6582 58.3363 34.6582 58.3473L33.7923 58.3473L32.9265 58.3473C32.9265 58.7347 33.0648 59.1041 33.3533 59.3925L33.9655 58.7803ZM33.7923 58.3473L34.6582 58.3473C34.6582 58.372 34.6541 58.4063 34.6409 58.4448C34.6276 58.4834 34.6092 58.5143 34.5922 58.5359C34.5609 58.5759 34.5514 58.5638 34.6268 58.5295L34.2685 57.7412L33.9103 56.953C33.4094 57.1807 32.9265 57.6287 32.9265 58.3473L33.7923 58.3473ZM34.2685 57.7412L34.5737 58.5515C36.9571 57.6539 38.9246 56.1487 40.4642 54.0548L39.7667 53.5419L39.0691 53.029C37.7226 54.8602 36.0247 56.1546 33.9634 56.931L34.2685 57.7412ZM39.7667 53.5419L40.4678 54.0499C42.0158 51.9137 43.0469 49.0727 43.6087 45.5839L42.7539 45.4462L41.899 45.3086C41.364 48.631 40.4037 51.1872 39.0656 53.0338L39.7667 53.5419ZM42.7539 45.4462L43.5938 45.6562C43.6368 45.4843 43.6749 45.2471 43.6245 44.995C43.566 44.7025 43.3868 44.405 43.0545 44.2388L42.6673 45.0133L42.28 45.7877C42.1878 45.7416 42.1004 45.6704 42.033 45.5761C41.9679 45.4849 41.9389 45.3967 41.9265 45.3346C41.9049 45.2269 41.9286 45.1772 41.9139 45.2362L42.7539 45.4462ZM42.6673 45.0133L43.0545 44.2388C42.4445 43.9339 41.907 44.2889 41.68 44.478L42.2343 45.1432L42.7886 45.8083C42.8259 45.7773 42.8022 45.8075 42.7213 45.8318C42.6199 45.8622 42.4523 45.8738 42.28 45.7877L42.6673 45.0133ZM42.2343 45.1432L41.7043 44.4585C40.9832 45.0168 40.0807 45.3163 38.9441 45.3163L38.9441 46.1822L38.9441 47.048C40.4051 47.048 41.696 46.6549 42.7644 45.8278L42.2343 45.1432ZM38.9441 46.1822L38.9441 45.3163C37.7813 45.3163 36.7572 44.9628 35.8417 44.2452L35.3076 44.9267L34.7734 45.6082C35.9937 46.5646 37.3939 47.048 38.9441 47.048L38.9441 46.1822ZM35.3076 44.9267L35.8417 44.2452C34.8992 43.5065 34.1289 42.4998 33.5432 41.1953L32.7533 41.5499L31.9634 41.9045C32.6476 43.4284 33.5802 44.6729 34.7734 45.6082L35.3076 44.9267ZM32.7533 41.5499L33.5516 41.2146C32.9946 39.8885 32.71 38.4166 32.71 36.7877L31.8442 36.7877L30.9783 36.7877C30.9783 38.6223 31.2998 40.3252 31.955 41.8852L32.7533 41.5499ZM31.8442 36.7877L32.71 36.7877C32.71 35.1387 33.0202 33.6452 33.6292 32.2949L32.8399 31.939L32.0506 31.583C31.3319 33.1766 30.9783 34.9157 30.9783 36.7877L31.8442 36.7877ZM32.8399 31.939L33.6317 32.2892C34.25 30.8914 35.0561 29.7919 36.0385 28.9647L35.4807 28.3024L34.923 27.6401C33.7119 28.66 32.7574 29.9849 32.048 31.5887L32.8399 31.939ZM35.4807 28.3024L36.03 28.9718C37.0129 28.1652 38.0629 27.7829 39.2039 27.7829L39.2039 26.9171L39.2039 26.0512C37.6318 26.0512 36.1997 26.5925 34.9315 27.6331L35.4807 28.3024ZM39.2039 26.9171L39.2039 27.7829C40.4628 27.7829 41.5416 28.1951 42.4796 29.0343L43.0569 28.389L43.6342 27.7437C42.3787 26.6204 40.8888 26.0512 39.2039 26.0512L39.2039 26.9171ZM43.0569 28.389L42.4796 29.0343C43.4406 29.8942 44.222 31.1265 44.7925 32.7836L45.6111 32.5018L46.4298 32.2199C45.7882 30.356 44.8666 28.8464 43.6342 27.7437L43.0569 28.389ZM45.6111 32.5018L44.7982 32.7999C45.3902 34.4144 45.6977 36.3439 45.6977 38.606L46.5636 38.606L47.4294 38.606C47.4294 36.1925 47.102 34.0526 46.4241 32.2037L45.6111 32.5018ZM46.5636 38.606L45.6977 38.606C45.6977 42.0964 45.163 45.2069 44.1101 47.9499L44.9185 48.2602L45.7268 48.5705C46.8674 45.5989 47.4294 42.2733 47.4294 38.606L46.5636 38.606ZM44.9185 48.2602L44.1084 47.9544C43.0764 50.6878 41.6944 52.9006 39.977 54.618L40.5892 55.2303L41.2015 55.8425C43.1206 53.9234 44.6248 51.4895 45.7285 48.566L44.9185 48.2602ZM40.5892 55.2303L39.9721 54.623C38.2762 56.3463 36.4141 57.4714 34.3843 58.0323L34.6149 58.8668L34.8455 59.7014C37.2026 59.0501 39.3235 57.7509 41.2064 55.8376L40.5892 55.2303ZM34.9612 36.5713L34.0954 36.5713C34.0954 39.4548 34.4313 41.7413 35.1848 43.3374C35.5669 44.1467 36.072 44.812 36.7265 45.2741C37.389 45.7419 38.1543 45.9657 38.9874 45.9657L38.9874 45.0999L38.9874 44.234C38.4785 44.234 38.0694 44.1025 37.7254 43.8595C37.3734 43.611 37.0397 43.2102 36.7508 42.5981C36.1621 41.3512 35.8271 39.3735 35.8271 36.5713L34.9612 36.5713ZM38.9874 45.0999L38.9874 45.9657C39.882 45.9657 40.7025 45.7304 41.4157 45.2395C42.1218 44.7535 42.6746 44.0504 43.0983 43.1867L42.3209 42.8054L41.5436 42.424C41.2169 43.09 40.8389 43.5342 40.4338 43.813C40.0359 44.0869 39.5648 44.234 38.9874 44.234L38.9874 45.0999ZM42.3209 42.8054L43.0983 43.1867C43.9328 41.4857 44.3124 39.1684 44.3124 36.3115L43.4465 36.3115L42.5807 36.3115C42.5807 39.0538 42.2099 41.0658 41.5436 42.424L42.3209 42.8054ZM43.4465 36.3115L44.3124 36.3115C44.3124 33.575 43.9488 31.3753 43.1322 29.8073L42.3642 30.2073L41.5963 30.6073C42.2227 31.81 42.5807 33.6798 42.5807 36.3115L43.4465 36.3115ZM42.3642 30.2073L43.1418 29.8264C42.7432 29.0126 42.2106 28.3505 41.5218 27.8944C40.8286 27.4354 40.0299 27.2201 39.1606 27.2201L39.1606 28.086L39.1606 28.9518C39.7344 28.9518 40.1911 29.0901 40.5658 29.3382C40.9449 29.5892 41.2926 29.9878 41.5866 30.5881L42.3642 30.2073ZM39.1606 28.086L39.1606 27.2201C38.3073 27.2201 37.5225 27.4382 36.8397 27.8982C36.1627 28.3541 35.6355 29.0141 35.235 29.8232C34.4462 31.4173 34.0954 33.6993 34.0954 36.5713L34.9612 36.5713L35.8271 36.5713C35.8271 33.7864 36.1762 31.8257 36.7871 30.5913C37.0865 29.9862 37.4342 29.5856 37.8071 29.3344C38.1741 29.0873 38.614 28.9518 39.1606 28.9518L39.1606 28.086Z" fill="black" mask="url(#path-3-outside-1_1747_4128)"/>
<mask id="path-5-outside-2_1747_4128" maskUnits="userSpaceOnUse" x="53.2454" y="53.3155" width="15" height="16" fill="black">
<rect fill="white" x="53.2454" y="53.3155" width="15" height="16"/>
<path d="M54.6886 68.3155C54.4925 68.3155 54.3945 68.2436 54.3945 68.0999C54.3945 67.9561 54.4795 67.8777 54.6494 67.8646L55.4138 67.7862C55.6883 67.7601 55.8712 67.6948 55.9627 67.5902C56.0672 67.4857 56.1195 67.2962 56.1195 67.0217L56.1195 55.378C56.1195 55.1558 56.0542 55.0121 55.9235 54.9467C55.8059 54.8683 55.6491 54.8422 55.453 54.8683L54.7474 54.9467C54.5121 54.9598 54.3945 54.8749 54.3945 54.6919C54.3945 54.5482 54.4991 54.4567 54.7082 54.4175C55.4008 54.2999 55.9104 54.1888 56.2371 54.0842C56.5638 53.9666 56.8056 53.9078 56.9624 53.9078C57.2369 53.9078 57.3741 54.0516 57.3741 54.3391L57.3741 67.0217C57.3741 67.2962 57.4198 67.4857 57.5113 67.5902C57.6158 67.6948 57.8053 67.7601 58.0797 67.7862L58.7266 67.8646C58.8965 67.8777 58.9815 67.9561 58.9815 68.0999C58.9815 68.2436 58.8834 68.3155 58.6874 68.3155L54.6886 68.3155ZM63.6865 68.4919C62.9285 68.4919 62.262 68.1717 61.687 67.5314C61.112 66.8911 60.6677 66.022 60.3541 64.9243C60.0404 63.8266 59.8836 62.5982 59.8836 61.2391C59.8836 59.88 60.0404 58.6581 60.3541 57.5735C60.6677 56.4757 61.112 55.6067 61.687 54.9663C62.262 54.326 62.9285 54.0058 63.6865 54.0058C64.4444 54.0058 65.1044 54.326 65.6663 54.9663C66.2413 55.6067 66.6856 56.4757 66.9992 57.5735C67.3259 58.6581 67.4893 59.88 67.4893 61.2391C67.4893 62.5982 67.3259 63.8266 66.9992 64.9243C66.6856 66.022 66.2413 66.8911 65.6663 67.5314C65.1044 68.1717 64.4444 68.4919 63.6865 68.4919ZM63.6865 67.9626C64.5098 67.9626 65.1109 67.4073 65.4899 66.2965C65.8819 65.1857 66.0779 63.4999 66.0779 61.2391C66.0779 58.9783 65.8819 57.299 65.4899 56.2013C65.1109 55.0905 64.5098 54.5351 63.6865 54.5351C62.8632 54.5351 62.2555 55.0905 61.8634 56.2013C61.4845 57.299 61.295 58.9783 61.295 61.2391C61.295 63.4999 61.4845 65.1857 61.8634 66.2965C62.2555 67.4073 62.8632 67.9626 63.6865 67.9626Z"/>
</mask>
<path d="M54.6886 68.3155C54.4925 68.3155 54.3945 68.2436 54.3945 68.0999C54.3945 67.9561 54.4795 67.8777 54.6494 67.8646L55.4138 67.7862C55.6883 67.7601 55.8712 67.6948 55.9627 67.5902C56.0672 67.4857 56.1195 67.2962 56.1195 67.0217L56.1195 55.378C56.1195 55.1558 56.0542 55.0121 55.9235 54.9467C55.8059 54.8683 55.6491 54.8422 55.453 54.8683L54.7474 54.9467C54.5121 54.9598 54.3945 54.8749 54.3945 54.6919C54.3945 54.5482 54.4991 54.4567 54.7082 54.4175C55.4008 54.2999 55.9104 54.1888 56.2371 54.0842C56.5638 53.9666 56.8056 53.9078 56.9624 53.9078C57.2369 53.9078 57.3741 54.0516 57.3741 54.3391L57.3741 67.0217C57.3741 67.2962 57.4198 67.4857 57.5113 67.5902C57.6158 67.6948 57.8053 67.7601 58.0797 67.7862L58.7266 67.8646C58.8965 67.8777 58.9815 67.9561 58.9815 68.0999C58.9815 68.2436 58.8834 68.3155 58.6874 68.3155L54.6886 68.3155ZM63.6865 68.4919C62.9285 68.4919 62.262 68.1717 61.687 67.5314C61.112 66.8911 60.6677 66.022 60.3541 64.9243C60.0404 63.8266 59.8836 62.5982 59.8836 61.2391C59.8836 59.88 60.0404 58.6581 60.3541 57.5735C60.6677 56.4757 61.112 55.6067 61.687 54.9663C62.262 54.326 62.9285 54.0058 63.6865 54.0058C64.4444 54.0058 65.1044 54.326 65.6663 54.9663C66.2413 55.6067 66.6856 56.4757 66.9992 57.5735C67.3259 58.6581 67.4893 59.88 67.4893 61.2391C67.4893 62.5982 67.3259 63.8266 66.9992 64.9243C66.6856 66.022 66.2413 66.8911 65.6663 67.5314C65.1044 68.1717 64.4444 68.4919 63.6865 68.4919ZM63.6865 67.9626C64.5098 67.9626 65.1109 67.4073 65.4899 66.2965C65.8819 65.1857 66.0779 63.4999 66.0779 61.2391C66.0779 58.9783 65.8819 57.299 65.4899 56.2013C65.1109 55.0905 64.5098 54.5351 63.6865 54.5351C62.8632 54.5351 62.2555 55.0905 61.8634 56.2013C61.4845 57.299 61.295 58.9783 61.295 61.2391C61.295 63.4999 61.4845 65.1857 61.8634 66.2965C62.2555 67.4073 62.8632 67.9626 63.6865 67.9626Z" fill="black"/>
<path d="M54.6494 67.8646L54.6845 68.3221L54.6961 68.3209L54.6494 67.8646ZM55.4138 67.7862L55.3704 67.3296L55.367 67.33L55.4138 67.7862ZM55.9627 67.5902L55.6384 67.2659L55.6276 67.2767L55.6175 67.2882L55.9627 67.5902ZM55.9235 54.9467L55.6691 55.3284L55.6929 55.3442L55.7184 55.357L55.9235 54.9467ZM55.453 54.8683L55.5037 55.3243L55.5137 55.323L55.453 54.8683ZM54.7474 54.9467L54.7728 55.4047L54.7854 55.404L54.798 55.4026L54.7474 54.9467ZM54.7082 54.4175L54.6314 53.9653L54.6236 53.9667L54.7082 54.4175ZM56.2371 54.0842L56.3769 54.5211L56.3847 54.5186L56.3925 54.5158L56.2371 54.0842ZM57.5113 67.5902L57.1661 67.8922L57.1762 67.9037L57.187 67.9145L57.5113 67.5902ZM58.0797 67.7862L58.135 67.3308L58.1232 67.3297L58.0797 67.7862ZM58.7266 67.8646L58.6714 68.3199L58.6814 68.3212L58.6914 68.3219L58.7266 67.8646ZM54.6886 68.3155L54.6886 67.8569C54.6331 67.8569 54.6745 67.8443 54.7393 67.8917C54.7764 67.919 54.8093 67.9579 54.8304 68.0044C54.8504 68.0484 54.8532 68.0841 54.8532 68.0999H54.3945H53.9359C53.9359 68.2876 54.0075 68.4926 54.1968 68.6314C54.3596 68.7508 54.548 68.7741 54.6886 68.7741L54.6886 68.3155ZM54.3945 68.0999H54.8532C54.8532 68.1086 54.8519 68.1339 54.8388 68.1681C54.825 68.2044 54.8015 68.2405 54.7693 68.2703C54.7074 68.3274 54.6555 68.3242 54.6845 68.3219L54.6494 67.8646L54.6142 67.4074C54.4733 67.4182 54.294 67.4607 54.1471 67.5962C53.9886 67.7426 53.9359 67.9334 53.9359 68.0999H54.3945ZM54.6494 67.8646L54.6961 68.3209L55.4606 68.2425L55.4138 67.7862L55.367 67.33L54.6026 67.4084L54.6494 67.8646ZM55.4138 67.7862L55.4573 68.2428C55.7492 68.215 56.0921 68.1388 56.3079 67.8922L55.9627 67.5902L55.6175 67.2882C55.6398 67.2628 55.6483 67.2694 55.6026 67.2857C55.5584 67.3015 55.4842 67.3188 55.3704 67.3297L55.4138 67.7862ZM55.9627 67.5902L56.287 67.9145C56.5266 67.6749 56.5782 67.3241 56.5782 67.0217L56.1195 67.0217H55.6609C55.6609 67.1327 55.65 67.2049 55.6382 67.2477C55.6264 67.2903 55.619 67.2853 55.6384 67.2659L55.9627 67.5902ZM56.1195 67.0217L56.5782 67.0217L56.5782 55.378L56.1195 55.378L55.6609 55.378L55.6609 67.0217H56.1195ZM56.1195 55.378L56.5782 55.378C56.5782 55.0825 56.4877 54.7161 56.1286 54.5365L55.9235 54.9467L55.7184 55.357C55.7035 55.3495 55.688 55.3384 55.6747 55.3241C55.6616 55.3103 55.6553 55.2983 55.653 55.2934C55.651 55.289 55.6532 55.2922 55.6558 55.3067C55.6584 55.3213 55.6609 55.3444 55.6609 55.378L56.1195 55.378ZM55.9235 54.9467L56.1779 54.5651C55.9365 54.4042 55.655 54.3787 55.3924 54.4137L55.453 54.8683L55.5137 55.323C55.577 55.3145 55.6182 55.3167 55.6423 55.3207C55.6539 55.3227 55.661 55.3249 55.6647 55.3263C55.6665 55.327 55.6677 55.3276 55.6683 55.3279C55.6686 55.3281 55.6688 55.3282 55.6689 55.3282C55.669 55.3283 55.6691 55.3284 55.6691 55.3284L55.9235 54.9467ZM55.453 54.8683L55.4024 54.4125L54.6967 54.4909L54.7474 54.9467L54.798 55.4026L55.5037 55.3242L55.453 54.8683ZM54.7474 54.9467L54.7219 54.4888C54.691 54.4905 54.6805 54.4879 54.6845 54.4888C54.6893 54.4897 54.7167 54.4961 54.7513 54.521C54.7887 54.5481 54.8187 54.5857 54.8365 54.6264C54.8529 54.6636 54.8532 54.6896 54.8532 54.6919L54.3945 54.6919L53.9359 54.6919C53.9359 54.8879 54.0051 55.1136 54.2142 55.2646C54.3971 55.3968 54.6111 55.4137 54.7728 55.4047L54.7474 54.9467ZM54.3945 54.6919L54.8532 54.6919C54.8532 54.7126 54.8491 54.7444 54.8332 54.7802C54.8172 54.8163 54.7949 54.8432 54.7749 54.8607C54.741 54.8903 54.7294 54.8801 54.7927 54.8683L54.7082 54.4175L54.6236 53.9667C54.4779 53.994 54.3094 54.0492 54.1709 54.1703C54.0152 54.3066 53.9359 54.493 53.9359 54.6919L54.3945 54.6919ZM54.7082 54.4175L54.7849 54.8697C55.4816 54.7513 56.0178 54.636 56.3769 54.5211L56.2371 54.0842L56.0974 53.6474C55.803 53.7416 55.3199 53.8484 54.6314 53.9653L54.7082 54.4175ZM56.2371 54.0842L56.3925 54.5158C56.715 54.3997 56.8917 54.3665 56.9624 54.3665L56.9624 53.9078L56.9624 53.4492C56.7195 53.4492 56.4126 53.5336 56.0818 53.6527L56.2371 54.0842ZM56.9624 53.9078L56.9624 54.3665C56.9923 54.3665 56.9992 54.3705 56.9913 54.3678C56.987 54.3663 56.9791 54.363 56.9692 54.3568C56.9592 54.3505 56.9489 54.3423 56.9394 54.3323C56.9193 54.3112 56.9123 54.2928 56.9113 54.2895C56.9109 54.2881 56.9154 54.3023 56.9154 54.3391L57.3741 54.3391L57.8327 54.3391C57.8327 54.1298 57.7831 53.8877 57.6029 53.699C57.4189 53.5062 57.1759 53.4492 56.9624 53.4492L56.9624 53.9078ZM57.3741 54.3391L56.9154 54.3391L56.9154 67.0217L57.3741 67.0217H57.8327L57.8327 54.3391L57.3741 54.3391ZM57.3741 67.0217L56.9154 67.0217C56.9154 67.3144 56.9575 67.6538 57.1661 67.8922L57.5113 67.5902L57.8564 67.2882C57.8751 67.3095 57.8663 67.3122 57.8542 67.2621C57.8425 67.2136 57.8327 67.1362 57.8327 67.0217H57.3741ZM57.5113 67.5902L57.187 67.9145C57.409 68.1366 57.736 68.2142 58.0363 68.2428L58.0797 67.7862L58.1232 67.3297C58.0097 67.3188 57.9317 67.3014 57.8813 67.284C57.8302 67.2664 57.8244 67.2547 57.8356 67.2659L57.5113 67.5902ZM58.0797 67.7862L58.0246 68.2415L58.6714 68.3199L58.7266 67.8646L58.7818 67.4093L58.1349 67.3309L58.0797 67.7862ZM58.7266 67.8646L58.6914 68.3219C58.7205 68.3242 58.6686 68.3274 58.6067 68.2703C58.5745 68.2405 58.551 68.2044 58.5371 68.1681C58.5241 68.1339 58.5228 68.1086 58.5228 68.0999L58.9815 68.0999H59.4401C59.4401 67.9334 59.3874 67.7426 59.2288 67.5962C59.082 67.4607 58.9027 67.4182 58.7618 67.4074L58.7266 67.8646ZM58.9815 68.0999L58.5228 68.0999C58.5228 68.0841 58.5256 68.0484 58.5455 68.0044C58.5667 67.9579 58.5996 67.919 58.6367 67.8917C58.7015 67.8443 58.7429 67.8569 58.6874 67.8569L58.6874 68.3155L58.6874 68.7741C58.828 68.7741 59.0164 68.7508 59.1792 68.6314C59.3684 68.4926 59.4401 68.2876 59.4401 68.0999H58.9815ZM58.6874 68.3155L58.6874 67.8569L54.6886 67.8569L54.6886 68.3155L54.6886 68.7741L58.6874 68.7741L58.6874 68.3155ZM61.687 67.5314L62.0283 67.225L61.687 67.5314ZM60.3541 64.9243L60.7951 64.7983L60.3541 64.9243ZM60.3541 57.5735L60.7947 57.7009L60.7951 57.6994L60.3541 57.5735ZM61.687 54.9663L61.3458 54.6599V54.6599L61.687 54.9663ZM65.6663 54.9663L65.3215 55.2689L65.325 55.2728L65.6663 54.9663ZM66.9992 57.5735L66.5582 57.6995L66.5601 57.7057L66.9992 57.5735ZM66.9992 64.9243L66.5596 64.7935L66.5582 64.7983L66.9992 64.9243ZM65.6663 67.5314L65.325 67.225L65.3216 67.2289L65.6663 67.5314ZM65.4899 66.2965L65.0573 66.1438L65.0558 66.1484L65.4899 66.2965ZM65.4899 56.2013L65.0557 56.3494L65.0579 56.3555L65.4899 56.2013ZM61.8634 56.2013L61.4309 56.0486L61.4299 56.0516L61.8634 56.2013ZM61.8634 66.2965L61.4294 66.4446L61.431 66.4491L61.8634 66.2965ZM63.6865 68.4919L63.6865 68.0333C63.077 68.0333 62.5293 67.783 62.0283 67.225L61.687 67.5314L61.3458 67.8378C61.9947 68.5605 62.78 68.9505 63.6865 68.9505L63.6865 68.4919ZM61.687 67.5314L62.0283 67.225C61.5124 66.6505 61.0955 65.85 60.7951 64.7983L60.3541 64.9243L59.9131 65.0503C60.2399 66.1941 60.7117 67.1316 61.3458 67.8378L61.687 67.5314ZM60.3541 64.9243L60.7951 64.7983C60.4951 63.7485 60.3423 62.5634 60.3423 61.2391H59.8836L59.425 61.2391C59.425 62.6329 59.5858 63.9047 59.9131 65.0503L60.3541 64.9243ZM59.8836 61.2391H60.3423C60.3423 59.9146 60.4951 58.7367 60.7947 57.7008L60.3541 57.5735L59.9135 57.4461C59.5857 58.5795 59.425 59.8453 59.425 61.2391L59.8836 61.2391ZM60.3541 57.5735L60.7951 57.6994C61.0955 56.6478 61.5124 55.8473 62.0283 55.2728L61.687 54.9663L61.3458 54.6599C60.7117 55.3661 60.2399 56.3037 59.9131 57.4475L60.3541 57.5735ZM61.687 54.9663L62.0283 55.2728C62.5293 54.7148 63.077 54.4645 63.6865 54.4645L63.6865 54.0058L63.6865 53.5472C62.78 53.5472 61.9947 53.9372 61.3458 54.6599L61.687 54.9663ZM63.6865 54.0058L63.6865 54.4645C64.2952 54.4645 64.8347 54.714 65.3216 55.2689L65.6663 54.9663L66.011 54.6638C65.374 53.938 64.5937 53.5472 63.6865 53.5472L63.6865 54.0058ZM65.6663 54.9663L65.325 55.2728C65.8409 55.8473 66.2578 56.6478 66.5582 57.6994L66.9992 57.5735L67.4402 57.4475C67.1134 56.3037 66.6417 55.3661 66.0075 54.6599L65.6663 54.9663ZM66.9992 57.5735L66.5601 57.7057C66.8716 58.7399 67.0307 59.9161 67.0307 61.2391H67.4893L67.9479 61.2391C67.9479 59.8438 67.7803 58.5763 67.4384 57.4412L66.9992 57.5735ZM67.4893 61.2391H67.0307C67.0307 62.5619 66.8716 63.7453 66.5597 64.7935L66.9992 64.9243L67.4388 65.0551C67.7803 63.9079 67.9479 62.6345 67.9479 61.2391L67.4893 61.2391ZM66.9992 64.9243L66.5582 64.7983C66.2578 65.85 65.8409 66.6505 65.325 67.225L65.6663 67.5314L66.0075 67.8378C66.6417 67.1316 67.1134 66.1941 67.4402 65.0503L66.9992 64.9243ZM65.6663 67.5314L65.3216 67.2289C64.8347 67.7837 64.2952 68.0333 63.6865 68.0333L63.6865 68.4919L63.6865 68.9505C64.5937 68.9505 65.374 68.5598 66.011 67.8339L65.6663 67.5314ZM63.6865 67.9627L63.6865 68.4213C64.2127 68.4213 64.6802 68.2395 65.066 67.883C65.4416 67.5359 65.7198 67.0428 65.9239 66.4446L65.4899 66.2965L65.0558 66.1484C64.8809 66.6609 64.6691 67.0009 64.4435 67.2092C64.2283 67.4081 63.9835 67.504 63.6865 67.504V67.9627ZM65.4899 66.2965L65.9224 66.4491C66.3411 65.2627 66.5366 63.5132 66.5366 61.2391L66.0779 61.2391L65.6193 61.2391C65.6193 63.4865 65.4227 65.1086 65.0574 66.1438L65.4899 66.2965ZM66.0779 61.2391L66.5366 61.2391C66.5366 58.9655 66.3412 57.2214 65.9218 56.047L65.4899 56.2013L65.0579 56.3555C65.4226 57.3766 65.6193 58.9911 65.6193 61.2391L66.0779 61.2391ZM65.4899 56.2013L65.9239 56.0532C65.7198 55.455 65.4416 54.9618 65.066 54.6148C64.6802 54.2583 64.2127 54.0765 63.6865 54.0765L63.6865 54.5351L63.6865 54.9937C63.9835 54.9937 64.2283 55.0896 64.4435 55.2885C64.6691 55.4969 64.8809 55.8368 65.0558 56.3494L65.4899 56.2013ZM63.6865 54.5351L63.6865 54.0765C63.1603 54.0765 62.6922 54.2581 62.3038 54.6131C61.9255 54.9589 61.642 55.4508 61.431 56.0486L61.8634 56.2013L62.2959 56.3539C62.477 55.841 62.6933 55.4998 62.9226 55.2902C63.1419 55.0898 63.3893 54.9937 63.6865 54.9937L63.6865 54.5351ZM61.8634 56.2013L61.4299 56.0516C61.0252 57.224 60.8363 58.9661 60.8363 61.2391L61.295 61.2391H61.7536C61.7536 58.9905 61.9438 57.3741 62.297 56.351L61.8634 56.2013ZM61.295 61.2391L60.8363 61.2391C60.8363 63.5126 61.0253 65.2602 61.4294 66.4446L61.8634 66.2965L62.2975 66.1484C61.9436 65.1111 61.7536 63.4871 61.7536 61.2391H61.295ZM61.8634 66.2965L61.431 66.4491C61.642 67.0469 61.9255 67.5388 62.3038 67.8846C62.6922 68.2396 63.1603 68.4213 63.6865 68.4213L63.6865 67.9627V67.504C63.3893 67.504 63.1419 67.408 62.9226 67.2076C62.6933 66.998 62.477 66.6568 62.2959 66.1438L61.8634 66.2965Z" fill="black" mask="url(#path-5-outside-2_1747_4128)"/>
<defs>
<linearGradient id="paint0_linear_1747_4128" x1="23.1193" y1="95" x2="92.787" y2="50.5997" gradientUnits="userSpaceOnUse">
<stop offset="0.0840252" stop-color="#FFAA6E"/>
<stop offset="1" stop-color="#FFE070"/>
</linearGradient>
</defs>
</svg>
