<svg width="82" height="82" viewBox="0 0 82 82" fill="none" xmlns="http://www.w3.org/2000/svg">
<path d="M41 1C63.0914 1 81 18.9086 81 41V77.3584C81 79.3695 79.3696 81 77.3584 81H4.6416C2.63045 81 1 79.3696 1 77.3584V41C1 18.9086 18.9086 1 41 1Z" fill="url(#paint0_linear_1747_4033)"/>
<path d="M41 1C63.0914 1 81 18.9086 81 41V77.3584C81 79.3695 79.3696 81 77.3584 81H4.6416C2.63045 81 1 79.3696 1 77.3584V41C1 18.9086 18.9086 1 41 1Z" stroke="black" stroke-width="2"/>
<line x1="27.8524" y1="66.0978" x2="58.6166" y2="25.4478" stroke="black" stroke-width="1.63039" stroke-linecap="round"/>
<mask id="path-3-outside-1_1747_4033" maskUnits="userSpaceOnUse" x="22.2548" y="13.7603" width="13" height="34" fill="black">
<rect fill="white" x="22.2548" y="13.7603" width="13" height="34"/>
<path d="M24.4031 46.7603C23.9702 46.7603 23.7537 46.6015 23.7537 46.284C23.7537 45.9666 23.9413 45.7934 24.3165 45.7645L26.0049 45.5914C26.611 45.5336 27.0151 45.3893 27.2171 45.1584C27.448 44.9275 27.5634 44.5091 27.5634 43.903L27.5634 18.1873C27.5634 17.6966 27.4191 17.3792 27.1305 17.2349C26.8708 17.0617 26.5244 17.004 26.0915 17.0617L24.533 17.2349C24.0135 17.2637 23.7537 17.0761 23.7537 16.672C23.7537 16.3546 23.9846 16.1525 24.4464 16.066C25.9761 15.8062 27.1017 15.5609 27.8232 15.33C28.5447 15.0702 29.0787 14.9404 29.425 14.9404C30.0311 14.9404 30.3342 15.2578 30.3342 15.8928L30.3342 43.903C30.3342 44.5091 30.4352 44.9275 30.6372 45.1584C30.8681 45.3893 31.2866 45.5336 31.8927 45.5914L33.3213 45.7645C33.6965 45.7934 33.8841 45.9666 33.8841 46.284C33.8841 46.6015 33.6677 46.7603 33.2347 46.7603L24.4031 46.7603Z"/>
</mask>
<path d="M24.4031 46.7603C23.9702 46.7603 23.7537 46.6015 23.7537 46.284C23.7537 45.9666 23.9413 45.7934 24.3165 45.7645L26.0049 45.5914C26.611 45.5336 27.0151 45.3893 27.2171 45.1584C27.448 44.9275 27.5634 44.5091 27.5634 43.903L27.5634 18.1873C27.5634 17.6966 27.4191 17.3792 27.1305 17.2349C26.8708 17.0617 26.5244 17.004 26.0915 17.0617L24.533 17.2349C24.0135 17.2637 23.7537 17.0761 23.7537 16.672C23.7537 16.3546 23.9846 16.1525 24.4464 16.066C25.9761 15.8062 27.1017 15.5609 27.8232 15.33C28.5447 15.0702 29.0787 14.9404 29.425 14.9404C30.0311 14.9404 30.3342 15.2578 30.3342 15.8928L30.3342 43.903C30.3342 44.5091 30.4352 44.9275 30.6372 45.1584C30.8681 45.3893 31.2866 45.5336 31.8927 45.5914L33.3213 45.7645C33.6965 45.7934 33.8841 45.9666 33.8841 46.284C33.8841 46.6015 33.6677 46.7603 33.2347 46.7603L24.4031 46.7603Z" fill="black"/>
<path d="M24.3165 45.7645L24.3829 46.6278L24.3939 46.627L24.4049 46.6259L24.3165 45.7645ZM26.0049 45.5914L25.9228 44.7294L25.9166 44.73L26.0049 45.5914ZM27.2171 45.1584L26.6049 44.5462L26.5845 44.5666L26.5655 44.5883L27.2171 45.1584ZM27.1305 17.2349L26.6502 17.9553L26.6951 17.9852L26.7433 18.0093L27.1305 17.2349ZM26.0915 17.0617L26.1871 17.9222L26.1965 17.9212L26.2059 17.9199L26.0915 17.0617ZM24.533 17.2349L24.581 18.0994L24.6049 18.098L24.6286 18.0954L24.533 17.2349ZM24.4464 16.066L24.3014 15.2123L24.2941 15.2136L24.2868 15.2149L24.4464 16.066ZM27.8232 15.33L28.0871 16.1546L28.1019 16.1499L28.1165 16.1447L27.8232 15.33ZM30.6372 45.1584L29.9856 45.7286L30.0046 45.7503L30.025 45.7707L30.6372 45.1584ZM31.8927 45.5914L31.9969 44.7318L31.9858 44.7305L31.9748 44.7294L31.8927 45.5914ZM33.3213 45.7645L33.2171 46.6241L33.236 46.6264L33.2549 46.6278L33.3213 45.7645ZM24.4031 46.7603L24.4031 45.8944C24.345 45.8944 24.3221 45.8888 24.3246 45.8894C24.3277 45.8902 24.3709 45.9011 24.4281 45.943C24.4904 45.9886 24.5465 46.0548 24.5825 46.1341C24.6164 46.2085 24.6196 46.2657 24.6196 46.284L23.7537 46.284L22.8879 46.284C22.8879 46.6614 23.031 47.0659 23.404 47.3394C23.727 47.5763 24.1064 47.6261 24.4031 47.6261L24.4031 46.7603ZM23.7537 46.284L24.6196 46.284C24.6196 46.2889 24.6189 46.3266 24.5976 46.3822C24.5749 46.4418 24.5357 46.5024 24.4817 46.5523C24.3784 46.6476 24.3009 46.6341 24.3829 46.6278L24.3165 45.7645L24.2501 44.9012C23.9569 44.9238 23.598 45.0113 23.3071 45.2798C22.9942 45.5687 22.8879 45.9467 22.8879 46.284L23.7537 46.284ZM24.3165 45.7645L24.4049 46.6259L26.0933 46.4527L26.0049 45.5914L25.9166 44.73L24.2282 44.9032L24.3165 45.7645ZM26.0049 45.5914L26.087 46.4533C26.7259 46.3925 27.4321 46.2276 27.8687 45.7286L27.2171 45.1584L26.5655 44.5883C26.5928 44.557 26.5868 44.5832 26.4713 44.6244C26.3584 44.6648 26.1817 44.7048 25.9228 44.7294L26.0049 45.5914ZM27.2171 45.1584L27.8293 45.7707C28.3152 45.2848 28.4293 44.5617 28.4293 43.903L27.5634 43.903L26.6976 43.903C26.6976 44.1564 26.6729 44.33 26.6422 44.4411C26.6116 44.5519 26.5851 44.566 26.6049 44.5462L27.2171 45.1584ZM27.5634 43.903L28.4293 43.903L28.4293 18.1873L27.5634 18.1873L26.6976 18.1873L26.6976 43.903L27.5634 43.903ZM27.5634 18.1873L28.4293 18.1873C28.4293 17.5582 28.2376 16.8203 27.5177 16.4604L27.1305 17.2349L26.7433 18.0093C26.7257 18.0005 26.7056 17.9862 26.6883 17.9677C26.6715 17.9499 26.666 17.9374 26.667 17.9395C26.6716 17.9497 26.6976 18.0187 26.6976 18.1873L27.5634 18.1873ZM27.1305 17.2349L27.6108 16.5144C27.1173 16.1854 26.5356 16.129 25.9771 16.2034L26.0915 17.0617L26.2059 17.9199C26.5133 17.879 26.6243 17.938 26.6502 17.9553L27.1305 17.2349ZM26.0915 17.0617L25.9959 16.2011L24.4374 16.3743L24.533 17.2349L24.6286 18.0954L26.1871 17.9222L26.0915 17.0617ZM24.533 17.2349L24.4849 16.3703C24.4077 16.3746 24.3713 16.3688 24.3649 16.3675C24.3597 16.3664 24.3997 16.3736 24.4555 16.4139C24.5168 16.4581 24.5662 16.5203 24.5952 16.5864C24.6214 16.646 24.6196 16.6823 24.6196 16.672L23.7537 16.672L22.8879 16.672C22.8879 17.0713 23.0279 17.519 23.4416 17.8177C23.8058 18.0808 24.2379 18.1184 24.581 18.0994L24.533 17.2349ZM23.7537 16.672L24.6196 16.672C24.6196 16.6996 24.614 16.7492 24.5882 16.8072C24.5621 16.8661 24.5263 16.9085 24.497 16.934C24.4705 16.9572 24.4577 16.9596 24.4764 16.9518C24.4952 16.9439 24.5358 16.9301 24.606 16.917L24.4464 16.066L24.2868 15.2149C23.9781 15.2728 23.6349 15.3874 23.3567 15.6308C23.046 15.9027 22.8879 16.2736 22.8879 16.672L23.7537 16.672ZM24.4464 16.066L24.5913 16.9196C26.1287 16.6585 27.3044 16.4051 28.0871 16.1546L27.8232 15.33L27.5593 14.5053C26.8989 14.7167 25.8234 14.9539 24.3014 15.2123L24.4464 16.066ZM27.8232 15.33L28.1165 16.1447C28.8302 15.8877 29.2412 15.8062 29.425 15.8062L29.425 14.9404L29.425 14.0745C28.9161 14.0745 28.2593 14.2527 27.5299 14.5153L27.8232 15.33ZM29.425 14.9404L29.425 15.8062C29.5034 15.8062 29.5357 15.8168 29.5373 15.8173C29.5373 15.8173 29.53 15.8147 29.5182 15.8073C29.5062 15.7998 29.493 15.7894 29.4806 15.7763C29.4536 15.7481 29.4487 15.7275 29.4522 15.7386C29.457 15.7534 29.4683 15.8002 29.4683 15.8928L30.3342 15.8928L31.2 15.8928C31.2 15.4516 31.0954 14.9601 30.7332 14.5806C30.3638 14.1936 29.8721 14.0745 29.425 14.0745L29.425 14.9404ZM30.3342 15.8928L29.4683 15.8928L29.4683 43.903L30.3342 43.903L31.2 43.903L31.2 15.8928L30.3342 15.8928ZM30.3342 43.903L29.4683 43.903C29.4683 44.5434 29.5624 45.2449 29.9856 45.7286L30.6372 45.1584L31.2888 44.5883C31.3094 44.6118 31.2818 44.5932 31.2516 44.4682C31.2222 44.3464 31.2 44.163 31.2 43.903L30.3342 43.903ZM30.6372 45.1584L30.025 45.7707C30.4777 46.2234 31.1557 46.3909 31.8106 46.4533L31.8927 45.5914L31.9748 44.7294C31.7164 44.7048 31.5319 44.6645 31.4065 44.6213C31.2796 44.5775 31.245 44.5418 31.2494 44.5462L30.6372 45.1584ZM31.8927 45.5914L31.7885 46.4509L33.2171 46.6241L33.3213 45.7645L33.4255 44.905L31.9969 44.7318L31.8927 45.5914ZM33.3213 45.7645L33.2549 46.6278C33.3369 46.6341 33.2594 46.6476 33.1561 46.5523C33.1021 46.5024 33.063 46.4418 33.0402 46.3822C33.0189 46.3266 33.0183 46.2889 33.0183 46.284L33.8841 46.284L34.75 46.284C34.75 45.9467 34.6437 45.5687 34.3307 45.2798C34.0399 45.0113 33.6809 44.9238 33.3877 44.9012L33.3213 45.7645ZM33.8841 46.284L33.0183 46.284C33.0183 46.2657 33.0215 46.2085 33.0553 46.1341C33.0913 46.0548 33.1475 45.9886 33.2098 45.943C33.2669 45.9011 33.3101 45.8902 33.3132 45.8894C33.3157 45.8888 33.2929 45.8944 33.2347 45.8944L33.2347 46.7603L33.2347 47.6261C33.5315 47.6261 33.9109 47.5763 34.2338 47.3394C34.6068 47.0659 34.75 46.6614 34.75 46.284L33.8841 46.284ZM33.2347 46.7603L33.2347 45.8944L24.4031 45.8944L24.4031 46.7603L24.4031 47.6261L33.2347 47.6261L33.2347 46.7603Z" fill="black" mask="url(#path-3-outside-1_1747_4033)"/>
<mask id="path-5-outside-2_1747_4033" maskUnits="userSpaceOnUse" x="45.7452" y="47.0757" width="15" height="16" fill="black">
<rect fill="white" x="45.7452" y="47.0757" width="15" height="16"/>
<path d="M47.1884 62.0757C46.9924 62.0757 46.8944 62.0039 46.8944 61.8601C46.8944 61.7164 46.9793 61.638 47.1492 61.6249L47.9137 61.5465C48.1882 61.5203 48.3711 61.455 48.4626 61.3505C48.5671 61.2459 48.6194 61.0564 48.6194 60.782L48.6194 49.1383C48.6194 48.9161 48.5541 48.7723 48.4234 48.707C48.3058 48.6286 48.1489 48.6025 47.9529 48.6286L47.2472 48.707C47.012 48.7201 46.8944 48.6351 46.8944 48.4522C46.8944 48.3084 46.9989 48.2169 47.208 48.1777C47.9007 48.0601 48.4103 47.949 48.737 47.8445C49.0637 47.7269 49.3055 47.6681 49.4623 47.6681C49.7367 47.6681 49.8739 47.8118 49.8739 48.0993L49.8739 60.782C49.8739 61.0564 49.9197 61.2459 50.0112 61.3505C50.1157 61.455 50.3052 61.5203 50.5796 61.5465L51.2265 61.6249C51.3964 61.638 51.4813 61.7164 51.4813 61.8601C51.4813 62.0039 51.3833 62.0757 51.1873 62.0757L47.1884 62.0757ZM56.1863 62.2522C55.4284 62.2522 54.7619 61.932 54.1869 61.2917C53.6119 60.6513 53.1676 59.7823 52.8539 58.6846C52.5403 57.5868 52.3835 56.3584 52.3835 54.9993C52.3835 53.6402 52.5403 52.4184 52.8539 51.3337C53.1676 50.236 53.6119 49.3669 54.1869 48.7266C54.7619 48.0863 55.4284 47.7661 56.1863 47.7661C56.9443 47.7661 57.6042 48.0863 58.1662 48.7266C58.7412 49.3669 59.1855 50.236 59.4991 51.3337C59.8258 52.4184 59.9892 53.6402 59.9892 54.9993C59.9892 56.3584 59.8258 57.5868 59.4991 58.6846C59.1855 59.7823 58.7412 60.6513 58.1662 61.2917C57.6042 61.932 56.9443 62.2522 56.1863 62.2522ZM56.1863 61.7229C57.0096 61.7229 57.6108 61.1675 57.9897 60.0567C58.3818 58.9459 58.5778 57.2601 58.5778 54.9993C58.5778 52.7385 58.3818 51.0593 57.9897 49.9615C57.6108 48.8508 57.0096 48.2954 56.1863 48.2954C55.363 48.2954 54.7554 48.8508 54.3633 49.9615C53.9843 51.0593 53.7949 52.7385 53.7949 54.9993C53.7949 57.2601 53.9843 58.9459 54.3633 60.0567C54.7554 61.1675 55.363 61.7229 56.1863 61.7229Z"/>
</mask>
<path d="M47.1884 62.0757C46.9924 62.0757 46.8944 62.0039 46.8944 61.8601C46.8944 61.7164 46.9793 61.638 47.1492 61.6249L47.9137 61.5465C48.1882 61.5203 48.3711 61.455 48.4626 61.3505C48.5671 61.2459 48.6194 61.0564 48.6194 60.782L48.6194 49.1383C48.6194 48.9161 48.5541 48.7723 48.4234 48.707C48.3058 48.6286 48.1489 48.6025 47.9529 48.6286L47.2472 48.707C47.012 48.7201 46.8944 48.6351 46.8944 48.4522C46.8944 48.3084 46.9989 48.2169 47.208 48.1777C47.9007 48.0601 48.4103 47.949 48.737 47.8445C49.0637 47.7269 49.3055 47.6681 49.4623 47.6681C49.7367 47.6681 49.8739 47.8118 49.8739 48.0993L49.8739 60.782C49.8739 61.0564 49.9197 61.2459 50.0112 61.3505C50.1157 61.455 50.3052 61.5203 50.5796 61.5465L51.2265 61.6249C51.3964 61.638 51.4813 61.7164 51.4813 61.8601C51.4813 62.0039 51.3833 62.0757 51.1873 62.0757L47.1884 62.0757ZM56.1863 62.2522C55.4284 62.2522 54.7619 61.932 54.1869 61.2917C53.6119 60.6513 53.1676 59.7823 52.8539 58.6846C52.5403 57.5868 52.3835 56.3584 52.3835 54.9993C52.3835 53.6402 52.5403 52.4184 52.8539 51.3337C53.1676 50.236 53.6119 49.3669 54.1869 48.7266C54.7619 48.0863 55.4284 47.7661 56.1863 47.7661C56.9443 47.7661 57.6042 48.0863 58.1662 48.7266C58.7412 49.3669 59.1855 50.236 59.4991 51.3337C59.8258 52.4184 59.9892 53.6402 59.9892 54.9993C59.9892 56.3584 59.8258 57.5868 59.4991 58.6846C59.1855 59.7823 58.7412 60.6513 58.1662 61.2917C57.6042 61.932 56.9443 62.2522 56.1863 62.2522ZM56.1863 61.7229C57.0096 61.7229 57.6108 61.1675 57.9897 60.0567C58.3818 58.9459 58.5778 57.2601 58.5778 54.9993C58.5778 52.7385 58.3818 51.0593 57.9897 49.9615C57.6108 48.8508 57.0096 48.2954 56.1863 48.2954C55.363 48.2954 54.7554 48.8508 54.3633 49.9615C53.9843 51.0593 53.7949 52.7385 53.7949 54.9993C53.7949 57.2601 53.9843 58.9459 54.3633 60.0567C54.7554 61.1675 55.363 61.7229 56.1863 61.7229Z" fill="black"/>
<path d="M47.1492 61.6249L47.1844 62.0823L47.196 62.0811L47.1492 61.6249ZM47.9137 61.5465L47.8702 61.0899L47.8669 61.0902L47.9137 61.5465ZM48.4626 61.3505L48.1383 61.0262L48.1275 61.037L48.1174 61.0484L48.4626 61.3505ZM48.4234 48.707L48.169 49.0886L48.1927 49.1044L48.2183 49.1172L48.4234 48.707ZM47.9529 48.6286L48.0036 49.0845L48.0135 49.0832L47.9529 48.6286ZM47.2472 48.707L47.2727 49.1649L47.2853 49.1642L47.2979 49.1628L47.2472 48.707ZM47.208 48.1777L47.1312 47.7255L47.1235 47.727L47.208 48.1777ZM48.737 47.8445L48.8768 48.2813L48.8846 48.2788L48.8924 48.276L48.737 47.8445ZM50.0112 61.3505L49.666 61.6525L49.6761 61.664L49.6869 61.6748L50.0112 61.3505ZM50.5796 61.5465L50.6348 61.091L50.6231 61.0899L50.5796 61.5465ZM51.2265 61.6249L51.1713 62.0802L51.1813 62.0814L51.1913 62.0822L51.2265 61.6249ZM47.1884 62.0757L47.1884 61.6171C47.1329 61.6171 47.1744 61.6045 47.2391 61.652C47.2763 61.6792 47.3091 61.7181 47.3303 61.7647C47.3503 61.8087 47.353 61.8443 47.353 61.8601L46.8944 61.8601L46.4358 61.8601C46.4358 62.0478 46.5074 62.2529 46.6967 62.3917C46.8594 62.511 47.0479 62.5344 47.1884 62.5344L47.1884 62.0757ZM46.8944 61.8601L47.353 61.8601C47.353 61.8688 47.3518 61.8942 47.3387 61.9284C47.3249 61.9646 47.3014 62.0008 47.2692 62.0305C47.2073 62.0877 47.1554 62.0844 47.1844 62.0822L47.1492 61.6249L47.1141 61.1676C46.9732 61.1784 46.7939 61.2209 46.647 61.3565C46.4885 61.5028 46.4358 61.6936 46.4358 61.8601L46.8944 61.8601ZM47.1492 61.6249L47.196 62.0811L47.9605 62.0027L47.9137 61.5465L47.8669 61.0902L47.1024 61.1686L47.1492 61.6249ZM47.9137 61.5465L47.9572 62.0031C48.249 61.9753 48.592 61.899 48.8077 61.6525L48.4626 61.3505L48.1174 61.0484C48.1397 61.023 48.1481 61.0297 48.1025 61.046C48.0582 61.0618 47.984 61.0791 47.8702 61.0899L47.9137 61.5465ZM48.4626 61.3505L48.7869 61.6748C49.0265 61.4352 49.078 61.0843 49.078 60.782L48.6194 60.782L48.1608 60.782C48.1608 60.893 48.1499 60.9652 48.1381 61.008C48.1263 61.0506 48.1189 61.0455 48.1383 61.0262L48.4626 61.3505ZM48.6194 60.782L49.078 60.782L49.078 49.1383L48.6194 49.1383L48.1608 49.1383L48.1608 60.782L48.6194 60.782ZM48.6194 49.1383L49.078 49.1383C49.078 48.8427 48.9876 48.4763 48.6285 48.2968L48.4234 48.707L48.2183 49.1172C48.2034 49.1098 48.1879 49.0986 48.1745 49.0844C48.1615 49.0705 48.1551 49.0586 48.1529 49.0536C48.1509 49.0492 48.1531 49.0524 48.1557 49.067C48.1583 49.0815 48.1608 49.1047 48.1608 49.1383L48.6194 49.1383ZM48.4234 48.707L48.6778 48.3254C48.4363 48.1644 48.1548 48.139 47.8923 48.174L47.9529 48.6286L48.0135 49.0832C48.0769 49.0748 48.1181 49.077 48.1422 49.081C48.1538 49.0829 48.1609 49.0852 48.1645 49.0866C48.1664 49.0873 48.1675 49.0878 48.1682 49.0882C48.1685 49.0883 48.1687 49.0884 48.1688 49.0885C48.1689 49.0886 48.169 49.0886 48.169 49.0886L48.4234 48.707ZM47.9529 48.6286L47.9023 48.1728L47.1966 48.2512L47.2472 48.707L47.2979 49.1628L48.0036 49.0844L47.9529 48.6286ZM47.2472 48.707L47.2218 48.2491C47.1909 48.2508 47.1803 48.2482 47.1844 48.249C47.1892 48.25 47.2166 48.2563 47.2511 48.2813C47.2886 48.3083 47.3185 48.3459 47.3364 48.3866C47.3528 48.4239 47.353 48.4498 47.353 48.4522L46.8944 48.4522L46.4358 48.4522C46.4358 48.6481 46.505 48.8739 46.7141 49.0249C46.897 49.157 47.1109 49.1739 47.2727 49.1649L47.2472 48.707ZM46.8944 48.4522L47.353 48.4522C47.353 48.4729 47.349 48.5047 47.3331 48.5404C47.317 48.5766 47.2948 48.6035 47.2748 48.6209C47.2409 48.6506 47.2292 48.6404 47.2926 48.6285L47.208 48.1777L47.1235 47.727C46.9778 47.7543 46.8093 47.8094 46.6708 47.9306C46.5151 48.0668 46.4358 48.2533 46.4358 48.4522L46.8944 48.4522ZM47.208 48.1777L47.2848 48.6299C47.9815 48.5116 48.5177 48.3962 48.8768 48.2813L48.737 47.8445L48.5972 47.4077C48.3029 47.5019 47.8198 47.6087 47.1313 47.7256L47.208 48.1777ZM48.737 47.8445L48.8924 48.276C49.2149 48.1599 49.3916 48.1267 49.4623 48.1267L49.4623 47.6681L49.4623 47.2094C49.2194 47.2094 48.9125 47.2939 48.5817 47.413L48.737 47.8445ZM49.4623 47.6681L49.4623 48.1267C49.4922 48.1267 49.4991 48.1308 49.4912 48.128C49.4868 48.1265 49.4789 48.1232 49.4691 48.117C49.4591 48.1107 49.4488 48.1025 49.4393 48.0926C49.4192 48.0715 49.4122 48.053 49.4112 48.0497C49.4107 48.0484 49.4153 48.0625 49.4153 48.0993L49.8739 48.0993L50.3326 48.0993C50.3326 47.8901 50.283 47.648 50.1028 47.4592C49.9188 47.2664 49.6758 47.2094 49.4623 47.2094L49.4623 47.6681ZM49.8739 48.0993L49.4153 48.0993L49.4153 60.782L49.8739 60.782L50.3326 60.782L50.3326 48.0993L49.8739 48.0993ZM49.8739 60.782L49.4153 60.782C49.4153 61.0746 49.4574 61.414 49.666 61.6525L50.0112 61.3505L50.3563 61.0484C50.375 61.0698 50.3662 61.0724 50.3541 61.0223C50.3424 60.9739 50.3326 60.8964 50.3326 60.782L49.8739 60.782ZM50.0112 61.3505L49.6869 61.6748C49.9089 61.8968 50.2359 61.9745 50.5361 62.0031L50.5796 61.5465L50.6231 61.0899C50.5096 61.0791 50.4315 61.0617 50.3812 61.0443C50.33 61.0267 50.3242 61.0149 50.3355 61.0262L50.0112 61.3505ZM50.5796 61.5465L50.5244 62.0018L51.1713 62.0802L51.2265 61.6249L51.2817 61.1696L50.6348 61.0912L50.5796 61.5465ZM51.2265 61.6249L51.1913 62.0822C51.2203 62.0844 51.1685 62.0877 51.1065 62.0305C51.0743 62.0008 51.0509 61.9646 51.037 61.9284C51.0239 61.8942 51.0227 61.8688 51.0227 61.8601L51.4813 61.8601L51.94 61.8601C51.94 61.6936 51.8873 61.5028 51.7287 61.3565C51.5819 61.2209 51.4025 61.1784 51.2617 61.1676L51.2265 61.6249ZM51.4813 61.8601L51.0227 61.8601C51.0227 61.8443 51.0254 61.8087 51.0454 61.7647C51.0666 61.7181 51.0994 61.6792 51.1366 61.652C51.2013 61.6045 51.2428 61.6171 51.1873 61.6171L51.1873 62.0757L51.1873 62.5344C51.3278 62.5344 51.5163 62.511 51.679 62.3917C51.8683 62.2529 51.94 62.0478 51.94 61.8601L51.4813 61.8601ZM51.1873 62.0757L51.1873 61.6171L47.1884 61.6171L47.1884 62.0757L47.1884 62.5344L51.1873 62.5344L51.1873 62.0757ZM54.1869 61.2917L54.5282 60.9852L54.1869 61.2917ZM52.8539 58.6846L53.2949 58.5586L52.8539 58.6846ZM52.8539 51.3337L53.2945 51.4611L53.2949 51.4597L52.8539 51.3337ZM54.1869 48.7266L53.8457 48.4202V48.4202L54.1869 48.7266ZM58.1662 48.7266L57.8214 49.0291L57.8249 49.033L58.1662 48.7266ZM59.4991 51.3337L59.0581 51.4597L59.06 51.466L59.4991 51.3337ZM59.4991 58.6846L59.0595 58.5537L59.0581 58.5586L59.4991 58.6846ZM58.1662 61.2917L57.8249 60.9852L57.8214 60.9891L58.1662 61.2917ZM57.9897 60.0567L57.5572 59.9041L57.5557 59.9086L57.9897 60.0567ZM57.9897 49.9615L57.5556 50.1097L57.5578 50.1158L57.9897 49.9615ZM54.3633 49.9615L53.9308 49.8089L53.9298 49.8119L54.3633 49.9615ZM54.3633 60.0567L53.9292 60.2048L53.9308 60.2094L54.3633 60.0567ZM56.1863 62.2522L56.1863 61.7935C55.5769 61.7935 55.0292 61.5432 54.5282 60.9852L54.1869 61.2917L53.8457 61.5981C54.4946 62.3208 55.2798 62.7108 56.1863 62.7108L56.1863 62.2522ZM54.1869 61.2917L54.5282 60.9852C54.0123 60.4107 53.5954 59.6102 53.2949 58.5586L52.8539 58.6846L52.413 58.8106C52.7397 59.9543 53.2115 60.8919 53.8457 61.5981L54.1869 61.2917ZM52.8539 58.6846L53.2949 58.5586C52.995 57.5087 52.8421 56.3236 52.8421 54.9993H52.3835L51.9249 54.9993C51.9249 56.3932 52.0856 57.6649 52.413 58.8106L52.8539 58.6846ZM52.3835 54.9993H52.8421C52.8421 53.6749 52.995 52.4969 53.2945 51.4611L52.8539 51.3337L52.4134 51.2063C52.0856 52.3398 51.9249 53.6056 51.9249 54.9993L52.3835 54.9993ZM52.8539 51.3337L53.2949 51.4597C53.5954 50.408 54.0123 49.6075 54.5282 49.033L54.1869 48.7266L53.8457 48.4202C53.2115 49.1264 52.7397 50.0639 52.413 51.2077L52.8539 51.3337ZM54.1869 48.7266L54.5282 49.033C55.0292 48.475 55.5769 48.2247 56.1863 48.2247L56.1863 47.7661L56.1863 47.3075C55.2798 47.3075 54.4946 47.6975 53.8457 48.4202L54.1869 48.7266ZM56.1863 47.7661L56.1863 48.2247C56.795 48.2247 57.3345 48.4743 57.8214 49.0291L58.1662 48.7266L58.5109 48.4241C57.8739 47.6982 57.0935 47.3075 56.1863 47.3075L56.1863 47.7661ZM58.1662 48.7266L57.8249 49.033C58.3408 49.6075 58.7576 50.408 59.0581 51.4597L59.4991 51.3337L59.9401 51.2077C59.6133 50.0639 59.1415 49.1264 58.5074 48.4202L58.1662 48.7266ZM59.4991 51.3337L59.06 51.466C59.3715 52.5002 59.5305 53.6764 59.5305 54.9993H59.9892L60.4478 54.9993C60.4478 53.6041 60.2802 52.3366 59.9383 51.2014L59.4991 51.3337ZM59.9892 54.9993H59.5305C59.5305 56.3221 59.3715 57.5055 59.0595 58.5537L59.4991 58.6846L59.9387 58.8154C60.2801 57.6681 60.4478 56.3947 60.4478 54.9993L59.9892 54.9993ZM59.4991 58.6846L59.0581 58.5586C58.7576 59.6102 58.3408 60.4107 57.8249 60.9852L58.1662 61.2917L58.5074 61.5981C59.1415 60.8919 59.6133 59.9543 59.9401 58.8106L59.4991 58.6846ZM58.1662 61.2917L57.8214 60.9891C57.3345 61.544 56.795 61.7935 56.1863 61.7935L56.1863 62.2522L56.1863 62.7108C57.0935 62.7108 57.8739 62.32 58.5109 61.5942L58.1662 61.2917ZM56.1863 61.7229L56.1863 62.1815C56.7126 62.1815 57.18 61.9997 57.5659 61.6432C57.9415 61.2962 58.2197 60.803 58.4238 60.2048L57.9897 60.0567L57.5557 59.9086C57.3808 60.4212 57.1689 60.7611 56.9434 60.9695C56.7281 61.1684 56.4834 61.2643 56.1863 61.2643V61.7229ZM57.9897 60.0567L58.4222 60.2094C58.841 59.023 59.0364 57.2734 59.0364 54.9993L58.5778 54.9993L58.1192 54.9993C58.1192 57.2468 57.9226 58.8689 57.5573 59.9041L57.9897 60.0567ZM58.5778 54.9993L59.0364 54.9993C59.0364 52.7257 58.8411 50.9817 58.4217 49.8073L57.9897 49.9615L57.5578 50.1158C57.9225 51.1369 58.1192 52.7513 58.1192 54.9993L58.5778 54.9993ZM57.9897 49.9615L58.4238 49.8135C58.2197 49.2152 57.9415 48.7221 57.5659 48.375C57.18 48.0185 56.7126 47.8367 56.1863 47.8367L56.1863 48.2954L56.1863 48.754C56.4834 48.754 56.7281 48.8499 56.9434 49.0488C57.1689 49.2571 57.3808 49.5971 57.5557 50.1096L57.9897 49.9615ZM56.1863 48.2954L56.1863 47.8367C55.6602 47.8367 55.1921 48.0184 54.8037 48.3734C54.4253 48.7192 54.1418 49.2111 53.9308 49.8089L54.3633 49.9615L54.7958 50.1142C54.9769 49.6012 55.1932 49.26 55.4225 49.0504C55.6418 48.85 55.8892 48.754 56.1863 48.754L56.1863 48.2954ZM54.3633 49.9615L53.9298 49.8119C53.5251 50.9842 53.3362 52.7263 53.3362 54.9993L53.7949 54.9993H54.2535C54.2535 52.7507 54.4436 51.1343 54.7969 50.1112L54.3633 49.9615ZM53.7949 54.9993L53.3362 54.9993C53.3362 57.2729 53.5252 59.0204 53.9293 60.2048L54.3633 60.0567L54.7974 59.9086C54.4435 58.8714 54.2535 57.2474 54.2535 54.9993H53.7949ZM54.3633 60.0567L53.9308 60.2094C54.1418 60.8072 54.4253 61.2991 54.8037 61.6449C55.1921 61.9999 55.6602 62.1815 56.1863 62.1815L56.1863 61.7229V61.2643C55.8892 61.2643 55.6418 61.1683 55.4225 60.9678C55.1932 60.7582 54.9769 60.417 54.7958 59.9041L54.3633 60.0567Z" fill="black" mask="url(#path-5-outside-2_1747_4033)"/>
<defs>
<linearGradient id="paint0_linear_1747_4033" x1="60.48" y1="-4.88037" x2="-8.8485" y2="39.7839" gradientUnits="userSpaceOnUse">
<stop offset="0.0361371" stop-color="#FFE6C6"/>
<stop offset="0.916137" stop-color="#D58F5F"/>
</linearGradient>
</defs>
</svg>
