<svg width="100" height="100" viewBox="0 0 100 100" fill="none" xmlns="http://www.w3.org/2000/svg">
<path d="M48 7.30957C49.1602 6.63972 50.5729 6.59753 51.7646 7.18359L52 7.30957L85.9707 26.9229C87.2083 27.6374 87.9707 28.9577 87.9707 30.3867V69.6133C87.9707 71.0423 87.2083 72.3626 85.9707 73.0771L52 92.6904C50.7624 93.405 49.2376 93.405 48 92.6904L14.0293 73.0771C12.7917 72.3626 12.0293 71.0423 12.0293 69.6133V30.3867C12.0293 28.9577 12.7917 27.6374 14.0293 26.9229L48 7.30957Z" fill="url(#paint0_linear_1747_4119)" stroke="black" stroke-width="2"/>
<line x1="36.3524" y1="73.5978" x2="67.1166" y2="32.9478" stroke="black" stroke-width="1.63039" stroke-linecap="round"/>
<mask id="path-3-outside-1_1747_4119" maskUnits="userSpaceOnUse" x="29.7549" y="24.2603" width="18" height="34" fill="black">
<rect fill="white" x="29.7549" y="24.2603" width="18" height="34"/>
<path d="M34.8289 57.2603C34.3671 57.2603 34.2084 57.0438 34.3527 56.6109L44.0069 29.38C44.1512 28.9182 43.9925 28.6873 43.5307 28.6873L33.9198 28.6873C33.458 28.6873 33.1117 28.7739 32.8808 28.947C32.6499 29.1202 32.4623 29.3078 32.318 29.5098C32.1737 29.683 31.9861 29.7696 31.7552 29.7696C31.5243 29.7696 31.38 29.683 31.3222 29.5098C31.2934 29.3078 31.3078 29.0913 31.3655 28.8605L32.0149 26.6093C32.1015 26.2629 32.318 26.0897 32.6643 26.0897L45.5221 26.0897C45.9262 26.0897 46.1282 26.2629 46.1282 26.6093C46.1282 26.8401 46.0128 27.3164 45.7819 28.0379L36.5173 56.784C36.4307 57.1015 36.2287 57.2603 35.9112 57.2603L34.8289 57.2603Z"/>
</mask>
<path d="M34.8289 57.2603C34.3671 57.2603 34.2084 57.0438 34.3527 56.6109L44.0069 29.38C44.1512 28.9182 43.9925 28.6873 43.5307 28.6873L33.9198 28.6873C33.458 28.6873 33.1117 28.7739 32.8808 28.947C32.6499 29.1202 32.4623 29.3078 32.318 29.5098C32.1737 29.683 31.9861 29.7696 31.7552 29.7696C31.5243 29.7696 31.38 29.683 31.3222 29.5098C31.2934 29.3078 31.3078 29.0913 31.3655 28.8605L32.0149 26.6093C32.1015 26.2629 32.318 26.0897 32.6643 26.0897L45.5221 26.0897C45.9262 26.0897 46.1282 26.2629 46.1282 26.6093C46.1282 26.8401 46.0128 27.3164 45.7819 28.0379L36.5173 56.784C36.4307 57.1015 36.2287 57.2603 35.9112 57.2603L34.8289 57.2603Z" fill="black"/>
<path d="M34.3527 56.6109L33.5366 56.3215L33.5339 56.3293L33.5313 56.3371L34.3527 56.6109ZM44.0069 29.38L44.823 29.6693L44.8285 29.6539L44.8334 29.6382L44.0069 29.38ZM32.8808 28.947L32.3613 28.2544L32.3613 28.2544L32.8808 28.947ZM32.318 29.5098L32.9831 30.0641L33.0038 30.0394L33.0225 30.0131L32.318 29.5098ZM31.3222 29.5098L30.4651 29.6323L30.4761 29.7096L30.5008 29.7836L31.3222 29.5098ZM31.3655 28.8605L30.5336 28.6205L30.5293 28.6354L30.5255 28.6505L31.3655 28.8605ZM32.0149 26.6093L32.8469 26.8492L32.8512 26.8343L32.8549 26.8192L32.0149 26.6093ZM45.7819 28.0379L46.606 28.3035L46.6066 28.3018L45.7819 28.0379ZM36.5173 56.784L35.6932 56.5184L35.6872 56.5372L35.682 56.5562L36.5173 56.784ZM34.8289 57.2603L34.8289 56.3944C34.7744 56.3944 34.7816 56.3871 34.8246 56.4021C34.8749 56.4197 34.9766 56.4697 35.0618 56.5859C35.1475 56.7028 35.1656 56.8173 35.1669 56.8757C35.168 56.9254 35.1578 56.9337 35.1741 56.8847L34.3527 56.6109L33.5313 56.3371C33.432 56.635 33.3309 57.1539 33.6653 57.6099C33.9962 58.0611 34.517 58.1261 34.8289 58.1261L34.8289 57.2603ZM34.3527 56.6109L35.1688 56.9002L44.823 29.6693L44.0069 29.38L43.1908 29.0906L33.5366 56.3215L34.3527 56.6109ZM44.0069 29.38L44.8334 29.6382C44.929 29.332 45.0206 28.8223 44.7096 28.3699C44.3858 27.899 43.8599 27.8214 43.5307 27.8214L43.5307 28.6873L43.5307 29.5531C43.5807 29.5531 43.5672 29.5603 43.5183 29.5421C43.46 29.5204 43.3611 29.4652 43.2826 29.351C43.2061 29.2397 43.1935 29.1373 43.1927 29.0949C43.1919 29.0589 43.1988 29.063 43.1805 29.1217L44.0069 29.38ZM43.5307 28.6873L43.5307 27.8214L33.9198 27.8214L33.9198 28.6873L33.9198 29.5531L43.5307 29.5531L43.5307 28.6873ZM33.9198 28.6873L33.9198 27.8214C33.3747 27.8214 32.8081 27.9192 32.3613 28.2544L32.8808 28.947L33.4003 29.6397C33.4152 29.6285 33.5413 29.5531 33.9198 29.5531L33.9198 28.6873ZM32.8808 28.947L32.3613 28.2544C32.0706 28.4724 31.8169 28.7217 31.6134 29.0066L32.318 29.5098L33.0225 30.0131C33.1076 29.894 33.2292 29.7681 33.4003 29.6397L32.8808 28.947ZM32.318 29.5098L31.6528 28.9555C31.6554 28.9525 31.6729 28.9338 31.7062 28.9185C31.7389 28.9034 31.7601 28.9037 31.7552 28.9037L31.7552 29.7696L31.7552 30.6354C32.2358 30.6354 32.6698 30.4402 32.9831 30.0641L32.318 29.5098ZM31.7552 29.7696L31.7552 28.9037C31.7406 28.9037 31.8157 28.9001 31.9192 28.9622C32.0399 29.0346 32.1131 29.1444 32.1437 29.236L31.3222 29.5098L30.5008 29.7836C30.5891 30.0484 30.7634 30.2882 31.0283 30.4471C31.2761 30.5958 31.5389 30.6354 31.7552 30.6354L31.7552 29.7696ZM31.3222 29.5098L32.1794 29.3874C32.1688 29.3131 32.1705 29.2105 32.2055 29.0705L31.3655 28.8605L30.5255 28.6505C30.4451 28.9722 30.418 29.3025 30.4651 29.6323L31.3222 29.5098ZM31.3655 28.8605L32.1975 29.1004L32.8469 26.8492L32.0149 26.6093L31.183 26.3693L30.5336 28.6205L31.3655 28.8605ZM32.0149 26.6093L32.8549 26.8192C32.8656 26.7767 32.8607 26.8336 32.7831 26.8957C32.747 26.9246 32.7108 26.9414 32.6835 26.9498C32.6584 26.9575 32.6492 26.9556 32.6643 26.9556L32.6643 26.0897L32.6643 25.2239C32.3447 25.2239 31.9981 25.306 31.7013 25.5435C31.4072 25.7788 31.2509 26.0955 31.1749 26.3993L32.0149 26.6093ZM32.6643 26.0897L32.6643 26.9556L45.5221 26.9556L45.5221 26.0897L45.5221 25.2239L32.6643 25.2239L32.6643 26.0897ZM45.5221 26.0897L45.5221 26.9556C45.6206 26.9556 45.5328 26.9795 45.4132 26.877C45.3504 26.8231 45.3073 26.7572 45.2834 26.6958C45.2616 26.6397 45.2624 26.6049 45.2624 26.6093L46.1282 26.6093L46.9941 26.6093C46.9941 26.2648 46.8874 25.8598 46.5402 25.5622C46.2186 25.2865 45.8278 25.2239 45.5221 25.2239L45.5221 26.0897ZM46.1282 26.6093L45.2624 26.6093C45.2624 26.6021 45.2626 26.6244 45.2521 26.6889C45.2422 26.7494 45.2256 26.8307 45.2002 26.9356C45.1492 27.1458 45.0694 27.4236 44.9572 27.774L45.7819 28.0379L46.6066 28.3018C46.7253 27.9307 46.8186 27.6096 46.8831 27.3436C46.9432 27.0959 46.9941 26.8343 46.9941 26.6093L46.1282 26.6093ZM45.7819 28.0379L44.9578 27.7723L35.6932 56.5184L36.5173 56.784L37.3414 57.0496L46.606 28.3035L45.7819 28.0379ZM36.5173 56.784L35.682 56.5562C35.6738 56.5863 35.6843 56.5245 35.7659 56.4604C35.8506 56.3938 35.9228 56.3944 35.9112 56.3944L35.9112 57.2603L35.9112 58.1261C36.2171 58.1261 36.5491 58.0473 36.8358 57.822C37.1195 57.5992 37.2743 57.2993 37.3527 57.0119L36.5173 56.784ZM35.9112 57.2603L35.9112 56.3944L34.8289 56.3944L34.8289 57.2603L34.8289 58.1261L35.9112 58.1261L35.9112 57.2603Z" fill="black" mask="url(#path-3-outside-1_1747_4119)"/>
<mask id="path-5-outside-2_1747_4119" maskUnits="userSpaceOnUse" x="54.2454" y="54.5757" width="15" height="16" fill="black">
<rect fill="white" x="54.2454" y="54.5757" width="15" height="16"/>
<path d="M55.6886 69.5757C55.4925 69.5757 55.3945 69.5039 55.3945 69.3601C55.3945 69.2164 55.4795 69.138 55.6494 69.1249L56.4138 69.0465C56.6883 69.0203 56.8712 68.955 56.9627 68.8505C57.0672 68.7459 57.1195 68.5564 57.1195 68.282L57.1195 56.6383C57.1195 56.4161 57.0542 56.2723 56.9235 56.207C56.8059 56.1286 56.6491 56.1025 56.453 56.1286L55.7474 56.207C55.5121 56.2201 55.3945 56.1351 55.3945 55.9522C55.3945 55.8084 55.4991 55.7169 55.7082 55.6777C56.4008 55.5601 56.9104 55.449 57.2371 55.3445C57.5638 55.2269 57.8056 55.1681 57.9624 55.1681C58.2369 55.1681 58.3741 55.3118 58.3741 55.5993L58.3741 68.282C58.3741 68.5564 58.4198 68.7459 58.5113 68.8505C58.6158 68.955 58.8053 69.0203 59.0797 69.0465L59.7266 69.1249C59.8965 69.138 59.9815 69.2164 59.9815 69.3601C59.9815 69.5039 59.8834 69.5757 59.6874 69.5757L55.6886 69.5757ZM64.6865 69.7522C63.9285 69.7522 63.262 69.432 62.687 68.7917C62.112 68.1513 61.6677 67.2823 61.3541 66.1846C61.0404 65.0868 60.8836 63.8584 60.8836 62.4993C60.8836 61.1402 61.0404 59.9184 61.3541 58.8337C61.6677 57.736 62.112 56.8669 62.687 56.2266C63.262 55.5863 63.9285 55.2661 64.6865 55.2661C65.4444 55.2661 66.1044 55.5863 66.6663 56.2266C67.2413 56.8669 67.6856 57.736 67.9992 58.8337C68.3259 59.9184 68.4893 61.1402 68.4893 62.4993C68.4893 63.8584 68.3259 65.0868 67.9992 66.1846C67.6856 67.2823 67.2413 68.1513 66.6663 68.7917C66.1044 69.432 65.4444 69.7522 64.6865 69.7522ZM64.6865 69.2229C65.5098 69.2229 66.1109 68.6675 66.4899 67.5567C66.8819 66.4459 67.0779 64.7601 67.0779 62.4993C67.0779 60.2385 66.8819 58.5593 66.4899 57.4615C66.1109 56.3508 65.5098 55.7954 64.6865 55.7954C63.8632 55.7954 63.2555 56.3508 62.8634 57.4615C62.4845 58.5593 62.295 60.2385 62.295 62.4993C62.295 64.7601 62.4845 66.4459 62.8634 67.5567C63.2555 68.6675 63.8632 69.2229 64.6865 69.2229Z"/>
</mask>
<path d="M55.6886 69.5757C55.4925 69.5757 55.3945 69.5039 55.3945 69.3601C55.3945 69.2164 55.4795 69.138 55.6494 69.1249L56.4138 69.0465C56.6883 69.0203 56.8712 68.955 56.9627 68.8505C57.0672 68.7459 57.1195 68.5564 57.1195 68.282L57.1195 56.6383C57.1195 56.4161 57.0542 56.2723 56.9235 56.207C56.8059 56.1286 56.6491 56.1025 56.453 56.1286L55.7474 56.207C55.5121 56.2201 55.3945 56.1351 55.3945 55.9522C55.3945 55.8084 55.4991 55.7169 55.7082 55.6777C56.4008 55.5601 56.9104 55.449 57.2371 55.3445C57.5638 55.2269 57.8056 55.1681 57.9624 55.1681C58.2369 55.1681 58.3741 55.3118 58.3741 55.5993L58.3741 68.282C58.3741 68.5564 58.4198 68.7459 58.5113 68.8505C58.6158 68.955 58.8053 69.0203 59.0797 69.0465L59.7266 69.1249C59.8965 69.138 59.9815 69.2164 59.9815 69.3601C59.9815 69.5039 59.8834 69.5757 59.6874 69.5757L55.6886 69.5757ZM64.6865 69.7522C63.9285 69.7522 63.262 69.432 62.687 68.7917C62.112 68.1513 61.6677 67.2823 61.3541 66.1846C61.0404 65.0868 60.8836 63.8584 60.8836 62.4993C60.8836 61.1402 61.0404 59.9184 61.3541 58.8337C61.6677 57.736 62.112 56.8669 62.687 56.2266C63.262 55.5863 63.9285 55.2661 64.6865 55.2661C65.4444 55.2661 66.1044 55.5863 66.6663 56.2266C67.2413 56.8669 67.6856 57.736 67.9992 58.8337C68.3259 59.9184 68.4893 61.1402 68.4893 62.4993C68.4893 63.8584 68.3259 65.0868 67.9992 66.1846C67.6856 67.2823 67.2413 68.1513 66.6663 68.7917C66.1044 69.432 65.4444 69.7522 64.6865 69.7522ZM64.6865 69.2229C65.5098 69.2229 66.1109 68.6675 66.4899 67.5567C66.8819 66.4459 67.0779 64.7601 67.0779 62.4993C67.0779 60.2385 66.8819 58.5593 66.4899 57.4615C66.1109 56.3508 65.5098 55.7954 64.6865 55.7954C63.8632 55.7954 63.2555 56.3508 62.8634 57.4615C62.4845 58.5593 62.295 60.2385 62.295 62.4993C62.295 64.7601 62.4845 66.4459 62.8634 67.5567C63.2555 68.6675 63.8632 69.2229 64.6865 69.2229Z" fill="black"/>
<path d="M55.6494 69.1249L55.6845 69.5823L55.6961 69.5811L55.6494 69.1249ZM56.4138 69.0465L56.3704 68.5899L56.367 68.5902L56.4138 69.0465ZM56.9627 68.8505L56.6384 68.5262L56.6276 68.537L56.6175 68.5484L56.9627 68.8505ZM56.9235 56.207L56.6691 56.5886L56.6929 56.6044L56.7184 56.6172L56.9235 56.207ZM56.453 56.1286L56.5037 56.5845L56.5137 56.5832L56.453 56.1286ZM55.7474 56.207L55.7728 56.6649L55.7854 56.6642L55.798 56.6628L55.7474 56.207ZM55.7082 55.6777L55.6314 55.2255L55.6236 55.227L55.7082 55.6777ZM57.2371 55.3445L57.3769 55.7813L57.3847 55.7788L57.3925 55.776L57.2371 55.3445ZM58.5113 68.8505L58.1661 69.1525L58.1762 69.164L58.187 69.1748L58.5113 68.8505ZM59.0797 69.0465L59.135 68.591L59.1232 68.5899L59.0797 69.0465ZM59.7266 69.1249L59.6714 69.5802L59.6814 69.5814L59.6914 69.5822L59.7266 69.1249ZM55.6886 69.5757L55.6886 69.1171C55.6331 69.1171 55.6745 69.1045 55.7393 69.152C55.7764 69.1792 55.8093 69.2181 55.8304 69.2647C55.8504 69.3087 55.8532 69.3443 55.8532 69.3601H55.3945H54.9359C54.9359 69.5478 55.0075 69.7529 55.1968 69.8917C55.3596 70.011 55.548 70.0344 55.6886 70.0344L55.6886 69.5757ZM55.3945 69.3601H55.8532C55.8532 69.3688 55.8519 69.3942 55.8388 69.4284C55.825 69.4646 55.8015 69.5008 55.7693 69.5305C55.7074 69.5877 55.6555 69.5844 55.6845 69.5822L55.6494 69.1249L55.6142 68.6676C55.4733 68.6784 55.294 68.7209 55.1471 68.8565C54.9886 69.0028 54.9359 69.1936 54.9359 69.3601H55.3945ZM55.6494 69.1249L55.6961 69.5811L56.4606 69.5027L56.4138 69.0465L56.367 68.5902L55.6026 68.6686L55.6494 69.1249ZM56.4138 69.0465L56.4573 69.5031C56.7492 69.4753 57.0921 69.399 57.3079 69.1525L56.9627 68.8505L56.6175 68.5484C56.6398 68.523 56.6483 68.5297 56.6026 68.546C56.5584 68.5618 56.4842 68.5791 56.3704 68.5899L56.4138 69.0465ZM56.9627 68.8505L57.287 69.1748C57.5266 68.9352 57.5782 68.5843 57.5782 68.282L57.1195 68.282H56.6609C56.6609 68.393 56.65 68.4652 56.6382 68.508C56.6264 68.5506 56.619 68.5455 56.6384 68.5262L56.9627 68.8505ZM57.1195 68.282L57.5782 68.282L57.5782 56.6383L57.1195 56.6383L56.6609 56.6383L56.6609 68.282H57.1195ZM57.1195 56.6383L57.5782 56.6383C57.5782 56.3427 57.4877 55.9763 57.1286 55.7968L56.9235 56.207L56.7184 56.6172C56.7035 56.6098 56.688 56.5986 56.6747 56.5844C56.6616 56.5705 56.6553 56.5586 56.653 56.5536C56.651 56.5492 56.6532 56.5524 56.6558 56.567C56.6584 56.5815 56.6609 56.6047 56.6609 56.6383L57.1195 56.6383ZM56.9235 56.207L57.1779 55.8254C56.9365 55.6644 56.655 55.639 56.3924 55.674L56.453 56.1286L56.5137 56.5832C56.577 56.5748 56.6182 56.577 56.6423 56.581C56.6539 56.5829 56.661 56.5852 56.6647 56.5866C56.6665 56.5873 56.6677 56.5878 56.6683 56.5882C56.6686 56.5883 56.6688 56.5884 56.6689 56.5885C56.669 56.5886 56.6691 56.5886 56.6691 56.5886L56.9235 56.207ZM56.453 56.1286L56.4024 55.6728L55.6967 55.7512L55.7474 56.207L55.798 56.6628L56.5037 56.5844L56.453 56.1286ZM55.7474 56.207L55.7219 55.7491C55.691 55.7508 55.6805 55.7482 55.6845 55.749C55.6893 55.75 55.7167 55.7563 55.7513 55.7813C55.7887 55.8083 55.8187 55.8459 55.8365 55.8866C55.8529 55.9239 55.8532 55.9498 55.8532 55.9522L55.3945 55.9522L54.9359 55.9522C54.9359 56.1481 55.0051 56.3739 55.2142 56.5249C55.3971 56.657 55.6111 56.6739 55.7728 56.6649L55.7474 56.207ZM55.3945 55.9522L55.8532 55.9522C55.8532 55.9729 55.8491 56.0047 55.8332 56.0404C55.8172 56.0766 55.7949 56.1035 55.7749 56.1209C55.741 56.1506 55.7294 56.1404 55.7927 56.1285L55.7082 55.6777L55.6236 55.227C55.4779 55.2543 55.3094 55.3094 55.1709 55.4306C55.0152 55.5668 54.9359 55.7533 54.9359 55.9522L55.3945 55.9522ZM55.7082 55.6777L55.7849 56.1299C56.4816 56.0116 57.0178 55.8962 57.3769 55.7813L57.2371 55.3445L57.0974 54.9077C56.803 55.0019 56.3199 55.1087 55.6314 55.2256L55.7082 55.6777ZM57.2371 55.3445L57.3925 55.776C57.715 55.6599 57.8917 55.6267 57.9624 55.6267L57.9624 55.1681L57.9624 54.7094C57.7195 54.7094 57.4126 54.7939 57.0818 54.913L57.2371 55.3445ZM57.9624 55.1681L57.9624 55.6267C57.9923 55.6267 57.9992 55.6308 57.9913 55.628C57.987 55.6265 57.9791 55.6232 57.9692 55.617C57.9592 55.6107 57.9489 55.6025 57.9394 55.5926C57.9193 55.5715 57.9123 55.553 57.9113 55.5497C57.9109 55.5484 57.9154 55.5625 57.9154 55.5993L58.3741 55.5993L58.8327 55.5993C58.8327 55.3901 58.7831 55.148 58.6029 54.9592C58.4189 54.7664 58.1759 54.7094 57.9624 54.7094L57.9624 55.1681ZM58.3741 55.5993L57.9154 55.5993L57.9154 68.282L58.3741 68.282H58.8327L58.8327 55.5993L58.3741 55.5993ZM58.3741 68.282L57.9154 68.282C57.9154 68.5746 57.9575 68.914 58.1661 69.1525L58.5113 68.8505L58.8564 68.5484C58.8751 68.5698 58.8663 68.5724 58.8542 68.5223C58.8425 68.4739 58.8327 68.3964 58.8327 68.282H58.3741ZM58.5113 68.8505L58.187 69.1748C58.409 69.3968 58.736 69.4745 59.0363 69.5031L59.0797 69.0465L59.1232 68.5899C59.0097 68.5791 58.9317 68.5617 58.8813 68.5443C58.8302 68.5267 58.8244 68.5149 58.8356 68.5262L58.5113 68.8505ZM59.0797 69.0465L59.0246 69.5018L59.6714 69.5802L59.7266 69.1249L59.7818 68.6696L59.1349 68.5912L59.0797 69.0465ZM59.7266 69.1249L59.6914 69.5822C59.7205 69.5844 59.6686 69.5877 59.6067 69.5305C59.5745 69.5008 59.551 69.4646 59.5371 69.4284C59.5241 69.3942 59.5228 69.3688 59.5228 69.3601L59.9815 69.3601H60.4401C60.4401 69.1936 60.3874 69.0028 60.2288 68.8565C60.082 68.7209 59.9027 68.6784 59.7618 68.6676L59.7266 69.1249ZM59.9815 69.3601L59.5228 69.3601C59.5228 69.3443 59.5256 69.3087 59.5455 69.2647C59.5667 69.2181 59.5996 69.1792 59.6367 69.152C59.7015 69.1045 59.7429 69.1171 59.6874 69.1171L59.6874 69.5757L59.6874 70.0344C59.828 70.0344 60.0164 70.011 60.1792 69.8917C60.3684 69.7529 60.4401 69.5478 60.4401 69.3601H59.9815ZM59.6874 69.5757L59.6874 69.1171L55.6886 69.1171L55.6886 69.5757L55.6886 70.0344L59.6874 70.0344L59.6874 69.5757ZM62.687 68.7917L63.0283 68.4852L62.687 68.7917ZM61.3541 66.1846L61.7951 66.0586L61.3541 66.1846ZM61.3541 58.8337L61.7947 58.9611L61.7951 58.9597L61.3541 58.8337ZM62.687 56.2266L62.3458 55.9202V55.9202L62.687 56.2266ZM66.6663 56.2266L66.3215 56.5291L66.325 56.533L66.6663 56.2266ZM67.9992 58.8337L67.5582 58.9597L67.5601 58.966L67.9992 58.8337ZM67.9992 66.1846L67.5596 66.0537L67.5582 66.0586L67.9992 66.1846ZM66.6663 68.7917L66.325 68.4852L66.3216 68.4891L66.6663 68.7917ZM66.4899 67.5567L66.0573 67.4041L66.0558 67.4086L66.4899 67.5567ZM66.4899 57.4615L66.0557 57.6097L66.0579 57.6158L66.4899 57.4615ZM62.8634 57.4615L62.4309 57.3089L62.4299 57.3119L62.8634 57.4615ZM62.8634 67.5567L62.4294 67.7048L62.431 67.7094L62.8634 67.5567ZM64.6865 69.7522L64.6865 69.2935C64.077 69.2935 63.5293 69.0432 63.0283 68.4852L62.687 68.7917L62.3458 69.0981C62.9947 69.8208 63.78 70.2108 64.6865 70.2108V69.7522ZM62.687 68.7917L63.0283 68.4852C62.5124 67.9107 62.0955 67.1102 61.7951 66.0586L61.3541 66.1846L60.9131 66.3106C61.2399 67.4543 61.7117 68.3919 62.3458 69.0981L62.687 68.7917ZM61.3541 66.1846L61.7951 66.0586C61.4951 65.0087 61.3423 63.8236 61.3423 62.4993H60.8836L60.425 62.4993C60.425 63.8932 60.5858 65.1649 60.9131 66.3106L61.3541 66.1846ZM60.8836 62.4993H61.3423C61.3423 61.1749 61.4951 59.9969 61.7947 58.9611L61.3541 58.8337L60.9135 58.7063C60.5857 59.8398 60.425 61.1056 60.425 62.4993L60.8836 62.4993ZM61.3541 58.8337L61.7951 58.9597C62.0955 57.908 62.5124 57.1075 63.0283 56.533L62.687 56.2266L62.3458 55.9202C61.7117 56.6264 61.2399 57.5639 60.9131 58.7077L61.3541 58.8337ZM62.687 56.2266L63.0283 56.533C63.5293 55.975 64.077 55.7247 64.6865 55.7247V55.2661L64.6865 54.8075C63.78 54.8075 62.9947 55.1975 62.3458 55.9202L62.687 56.2266ZM64.6865 55.2661V55.7247C65.2952 55.7247 65.8347 55.9743 66.3216 56.5291L66.6663 56.2266L67.011 55.9241C66.374 55.1982 65.5937 54.8075 64.6865 54.8075L64.6865 55.2661ZM66.6663 56.2266L66.325 56.533C66.8409 57.1075 67.2578 57.908 67.5582 58.9597L67.9992 58.8337L68.4402 58.7077C68.1134 57.5639 67.6417 56.6264 67.0075 55.9202L66.6663 56.2266ZM67.9992 58.8337L67.5601 58.966C67.8716 60.0002 68.0307 61.1764 68.0307 62.4993H68.4893L68.9479 62.4993C68.9479 61.1041 68.7803 59.8366 68.4384 58.7014L67.9992 58.8337ZM68.4893 62.4993H68.0307C68.0307 63.8221 67.8716 65.0055 67.5597 66.0537L67.9992 66.1846L68.4388 66.3154C68.7803 65.1681 68.9479 63.8947 68.9479 62.4993L68.4893 62.4993ZM67.9992 66.1846L67.5582 66.0586C67.2578 67.1102 66.8409 67.9107 66.325 68.4852L66.6663 68.7917L67.0075 69.0981C67.6417 68.3919 68.1134 67.4543 68.4402 66.3106L67.9992 66.1846ZM66.6663 68.7917L66.3216 68.4891C65.8347 69.044 65.2952 69.2935 64.6865 69.2935L64.6865 69.7522V70.2108C65.5937 70.2108 66.374 69.82 67.011 69.0942L66.6663 68.7917ZM64.6865 69.2229L64.6865 69.6815C65.2127 69.6815 65.6802 69.4997 66.066 69.1432C66.4416 68.7962 66.7198 68.303 66.9239 67.7048L66.4899 67.5567L66.0558 67.4086C65.8809 67.9212 65.6691 68.2611 65.4435 68.4695C65.2283 68.6684 64.9835 68.7643 64.6865 68.7643V69.2229ZM66.4899 67.5567L66.9224 67.7094C67.3411 66.523 67.5366 64.7734 67.5366 62.4993L67.0779 62.4993L66.6193 62.4993C66.6193 64.7468 66.4227 66.3689 66.0574 67.4041L66.4899 67.5567ZM67.0779 62.4993L67.5366 62.4993C67.5366 60.2257 67.3412 58.4817 66.9218 57.3073L66.4899 57.4615L66.0579 57.6158C66.4226 58.6369 66.6193 60.2513 66.6193 62.4993L67.0779 62.4993ZM66.4899 57.4615L66.9239 57.3135C66.7198 56.7152 66.4416 56.2221 66.066 55.875C65.6802 55.5185 65.2127 55.3367 64.6865 55.3367L64.6865 55.7954V56.254C64.9835 56.254 65.2283 56.3499 65.4435 56.5488C65.6691 56.7571 65.8809 57.0971 66.0558 57.6096L66.4899 57.4615ZM64.6865 55.7954L64.6865 55.3367C64.1603 55.3367 63.6922 55.5184 63.3038 55.8734C62.9255 56.2192 62.642 56.7111 62.431 57.3089L62.8634 57.4615L63.2959 57.6142C63.477 57.1012 63.6933 56.76 63.9226 56.5504C64.1419 56.35 64.3893 56.254 64.6865 56.254V55.7954ZM62.8634 57.4615L62.4299 57.3119C62.0252 58.4842 61.8363 60.2263 61.8363 62.4993L62.295 62.4993H62.7536C62.7536 60.2507 62.9438 58.6343 63.297 57.6112L62.8634 57.4615ZM62.295 62.4993L61.8363 62.4993C61.8363 64.7729 62.0253 66.5204 62.4294 67.7048L62.8634 67.5567L63.2975 67.4086C62.9436 66.3714 62.7536 64.7474 62.7536 62.4993H62.295ZM62.8634 67.5567L62.431 67.7094C62.642 68.3072 62.9255 68.7991 63.3038 69.1449C63.6922 69.4999 64.1603 69.6815 64.6865 69.6815L64.6865 69.2229V68.7643C64.3893 68.7643 64.1419 68.6683 63.9226 68.4678C63.6933 68.2582 63.477 67.917 63.2959 67.4041L62.8634 67.5567Z" fill="black" mask="url(#path-5-outside-2_1747_4119)"/>
<defs>
<linearGradient id="paint0_linear_1747_4119" x1="73.3849" y1="10.0735" x2="-5.17749" y2="60.9072" gradientUnits="userSpaceOnUse">
<stop stop-color="#FAAFBE"/>
<stop offset="1" stop-color="#F3654F"/>
</linearGradient>
</defs>
</svg>
