<svg width="100" height="100" viewBox="0 0 100 100" fill="none" xmlns="http://www.w3.org/2000/svg">
<path d="M49.667 94C44.7997 94 41.3971 93.3542 39.0498 92.2324C36.7461 91.1313 35.4248 89.5577 34.7109 87.5615L34.3428 86.5303L33.3496 86.9902C31.4577 87.8658 29.4425 88.0315 27.0859 87.1992C24.6857 86.3514 21.8949 84.4535 18.5537 81.1123C15.1141 77.6727 13.206 74.8177 12.3965 72.3721C11.6033 69.9756 11.8475 67.9233 12.8408 65.9795L13.3535 64.9756L12.2959 64.5859C10.342 63.8672 8.80251 62.5614 7.72657 60.3115C6.63063 58.0197 6.00001 54.7126 6 50C6 45.2874 6.63062 41.9803 7.72657 39.6885C8.80252 37.4385 10.342 36.1328 12.2959 35.4141L13.3535 35.0244L12.8408 34.0205C11.8476 32.0767 11.6033 30.0244 12.3965 27.6279C13.206 25.1823 15.1142 22.3273 18.5537 18.8877C21.8949 15.5465 24.6857 13.6486 27.0859 12.8008C29.4425 11.9685 31.4577 12.1342 33.3496 13.0098L34.3428 13.4697L34.7109 12.4385C35.4248 10.4423 36.7461 8.86865 39.0498 7.76757C41.3971 6.64574 44.7997 6 49.667 6C54.5344 6.00003 57.9369 6.64564 60.2842 7.76758C62.5877 8.86863 63.9083 10.4424 64.6221 12.4385L64.9902 13.4697L65.9834 13.0098C67.8754 12.1341 69.8906 11.9685 72.2471 12.8008C74.6474 13.6485 77.438 15.5463 80.7793 18.8877C84.1682 22.2766 86.0718 25.0981 86.9014 27.5205C87.715 29.8965 87.511 31.9299 86.5791 33.8467L86.0684 34.8984L87.1865 35.2402C89.3158 35.8908 90.9745 37.1533 92.1318 39.4033C93.3139 41.7017 94 45.0855 94 50C94 54.9145 93.3139 58.2983 92.1318 60.5967C90.9745 62.8467 89.3158 64.1092 87.1865 64.7598L86.0684 65.1016L86.5791 66.1533C87.511 68.0701 87.715 70.1035 86.9014 72.4795C86.0718 74.9019 84.1682 77.7234 80.7793 81.1123C77.4379 84.4537 74.6474 86.3515 72.2471 87.1992C69.8905 88.0315 67.8754 87.8659 65.9834 86.9902L64.9902 86.5303L64.6221 87.5615C63.9083 89.5576 62.5877 91.1314 60.2842 92.2324C57.9369 93.3543 54.5344 94 49.667 94Z" fill="url(#paint0_linear_1747_4114)" stroke="black" stroke-width="2"/>
<line x1="36.3525" y1="73.5978" x2="67.1167" y2="32.9478" stroke="black" stroke-width="1.63039" stroke-linecap="round"/>
<mask id="path-3-outside-1_1747_4114" maskUnits="userSpaceOnUse" x="29.7549" y="24.2603" width="18" height="35" fill="black">
<rect fill="white" x="29.7549" y="24.2603" width="18" height="35"/>
<path d="M38.5945 57.6499C37.1514 57.6499 35.8671 57.1592 34.7415 56.1779C33.6448 55.1967 32.7789 53.8257 32.144 52.0652C31.5379 50.3046 31.2348 48.2699 31.2348 45.9609C31.2348 43.5943 31.5667 41.2998 32.2305 39.0775C32.9232 36.8263 33.8757 34.7771 35.0878 32.9299C36.3 31.0828 37.6998 29.5243 39.2872 28.2544C40.9035 26.9844 42.6351 26.133 44.4823 25.7001C44.7709 25.6424 44.9729 25.6712 45.0884 25.7867C45.2327 25.9021 45.3048 26.0464 45.3048 26.2196C45.3048 26.5082 45.1461 26.6958 44.8286 26.7824C42.2888 27.6194 40.2396 28.9759 38.6811 30.8519C37.1226 32.699 35.9681 35.1234 35.2177 38.125C35.16 38.3271 35.1744 38.4714 35.261 38.5579C35.3765 38.6157 35.5208 38.5868 35.6939 38.4714C36.5886 37.8364 37.6421 37.5189 38.8543 37.5189C40.2108 37.5189 41.423 37.9519 42.4908 38.8177C43.5587 39.6547 44.3957 40.8091 45.0018 42.2811C45.6367 43.753 45.9542 45.4414 45.9542 47.3463C45.9542 49.2223 45.6223 50.954 44.9585 52.5414C44.2947 54.0999 43.4 55.341 42.2744 56.2645C41.1776 57.1881 39.951 57.6499 38.5945 57.6499ZM38.5079 56.481C39.9799 56.481 41.0622 55.7595 41.7549 54.3164C42.4764 52.8444 42.8372 50.5932 42.8372 47.5628C42.8372 44.4746 42.5053 42.2089 41.8415 40.7659C41.1776 39.3228 40.1242 38.6012 38.6811 38.6012C35.6218 38.6012 34.0921 41.675 34.0921 47.8225C34.0921 53.5948 35.5641 56.481 38.5079 56.481Z"/>
</mask>
<path d="M38.5945 57.6499C37.1514 57.6499 35.8671 57.1592 34.7415 56.1779C33.6448 55.1967 32.7789 53.8257 32.144 52.0652C31.5379 50.3046 31.2348 48.2699 31.2348 45.9609C31.2348 43.5943 31.5667 41.2998 32.2305 39.0775C32.9232 36.8263 33.8757 34.7771 35.0878 32.9299C36.3 31.0828 37.6998 29.5243 39.2872 28.2544C40.9035 26.9844 42.6351 26.133 44.4823 25.7001C44.7709 25.6424 44.9729 25.6712 45.0884 25.7867C45.2327 25.9021 45.3048 26.0464 45.3048 26.2196C45.3048 26.5082 45.1461 26.6958 44.8286 26.7824C42.2888 27.6194 40.2396 28.9759 38.6811 30.8519C37.1226 32.699 35.9681 35.1234 35.2177 38.125C35.16 38.3271 35.1744 38.4714 35.261 38.5579C35.3765 38.6157 35.5208 38.5868 35.6939 38.4714C36.5886 37.8364 37.6421 37.5189 38.8543 37.5189C40.2108 37.5189 41.423 37.9519 42.4908 38.8177C43.5587 39.6547 44.3957 40.8091 45.0018 42.2811C45.6367 43.753 45.9542 45.4414 45.9542 47.3463C45.9542 49.2223 45.6223 50.954 44.9585 52.5414C44.2947 54.0999 43.4 55.341 42.2744 56.2645C41.1776 57.1881 39.951 57.6499 38.5945 57.6499ZM38.5079 56.481C39.9799 56.481 41.0622 55.7595 41.7549 54.3164C42.4764 52.8444 42.8372 50.5932 42.8372 47.5628C42.8372 44.4746 42.5053 42.2089 41.8415 40.7659C41.1776 39.3228 40.1242 38.6012 38.6811 38.6012C35.6218 38.6012 34.0921 41.675 34.0921 47.8225C34.0921 53.5948 35.5641 56.481 38.5079 56.481Z" fill="black"/>
<path d="M34.7415 56.1779L34.1641 56.8233L34.1725 56.8306L34.7415 56.1779ZM32.144 52.0652L31.3252 52.347L31.3295 52.3589L32.144 52.0652ZM32.2305 39.0775L31.403 38.8228L31.4009 38.8296L32.2305 39.0775ZM35.0878 32.9299L34.3639 32.4549L35.0878 32.9299ZM39.2872 28.2544L38.7522 27.5735L38.7463 27.5782L39.2872 28.2544ZM44.4823 25.7001L44.3125 24.8511L44.2985 24.8539L44.2847 24.8571L44.4823 25.7001ZM45.0884 25.7867L44.4761 26.3989L44.51 26.4329L44.5475 26.4628L45.0884 25.7867ZM44.8286 26.7824L44.6008 25.9471L44.579 25.953L44.5576 25.9601L44.8286 26.7824ZM38.6811 30.8519L39.3429 31.4103L39.3471 31.4052L38.6811 30.8519ZM35.2177 38.125L36.0503 38.3629L36.0542 38.349L36.0577 38.335L35.2177 38.125ZM35.261 38.5579L34.6488 39.1702L34.7481 39.2695L34.8738 39.3324L35.261 38.5579ZM35.6939 38.4714L36.1742 39.1918L36.1847 39.1848L36.195 39.1775L35.6939 38.4714ZM42.4908 38.8177L41.9455 39.4903L41.9511 39.4948L41.9567 39.4992L42.4908 38.8177ZM45.0018 42.2811L44.2012 42.6108L44.2039 42.6174L44.2068 42.624L45.0018 42.2811ZM44.9585 52.5414L45.7551 52.8807L45.7573 52.8754L44.9585 52.5414ZM42.2744 56.2645L41.7251 55.5951L41.7167 55.6022L42.2744 56.2645ZM41.7549 54.3164L40.9774 53.9352L40.9743 53.9417L41.7549 54.3164ZM41.8415 40.7659L41.0548 41.1277L41.8415 40.7659ZM38.5945 57.6499L38.5945 56.784C37.3685 56.784 36.2844 56.3744 35.3105 55.5253L34.7415 56.1779L34.1725 56.8306C35.4498 57.9441 36.9344 58.5157 38.5945 58.5157L38.5945 57.6499ZM34.7415 56.1779L35.3188 55.5327C34.3543 54.6696 33.5576 53.4328 32.9585 51.7714L32.144 52.0652L31.3295 52.3589C32.0002 54.2186 32.9353 55.7237 34.1642 56.8232L34.7415 56.1779ZM32.144 52.0652L32.9626 51.7833C32.3942 50.1322 32.1007 48.1961 32.1007 45.9609L31.2348 45.9609L30.369 45.9609C30.369 48.3437 30.6815 50.477 31.3253 52.347L32.144 52.0652ZM31.2348 45.9609L32.1007 45.9609C32.1007 43.6765 32.4209 41.4656 33.0602 39.3253L32.2305 39.0775L31.4009 38.8296C30.7126 41.134 30.369 43.5121 30.369 45.9609L31.2348 45.9609ZM32.2305 39.0775L33.0581 39.3321C33.7284 37.1537 34.6472 35.1796 35.8117 33.405L35.0878 32.9299L34.3639 32.4549C33.1041 34.3746 32.1181 36.4988 31.403 38.8228L32.2305 39.0775ZM35.0878 32.9299L35.8117 33.405C36.9782 31.6275 38.3178 30.1387 39.8281 28.9305L39.2872 28.2544L38.7463 27.5782C37.0818 28.9099 35.6218 30.5381 34.3639 32.4549L35.0878 32.9299ZM39.2872 28.2544L39.8221 28.9352C41.3475 27.7367 42.9657 26.9449 44.6799 26.5431L44.4823 25.7001L44.2847 24.8571C42.3046 25.3212 40.4594 26.2322 38.7523 27.5735L39.2872 28.2544ZM44.4823 25.7001L44.6521 26.5491C44.739 26.5318 44.7567 26.5397 44.7278 26.5356C44.6904 26.5303 44.581 26.5038 44.4761 26.3989L45.0884 25.7867L45.7006 25.1744C45.2602 24.734 44.6627 24.781 44.3125 24.8511L44.4823 25.7001ZM45.0884 25.7867L44.5475 26.4628C44.536 26.4536 44.5038 26.4238 44.4763 26.3687C44.4479 26.312 44.439 26.2574 44.439 26.2196L45.3048 26.2196L46.1707 26.2196C46.1707 25.7637 45.9631 25.3776 45.6293 25.1106L45.0884 25.7867ZM45.3048 26.2196L44.439 26.2196C44.439 26.2124 44.44 26.1842 44.4537 26.1433C44.4679 26.1006 44.4918 26.0565 44.5248 26.0175C44.5912 25.9391 44.6468 25.9345 44.6008 25.9471L44.8286 26.7824L45.0564 27.6178C45.3279 27.5437 45.6217 27.4021 45.8468 27.1361C46.0808 26.8595 46.1707 26.5312 46.1707 26.2196L45.3048 26.2196ZM44.8286 26.7824L44.5576 25.9601C41.8789 26.8428 39.6874 28.2857 38.0151 30.2986L38.6811 30.8519L39.3471 31.4052C40.7919 29.6661 42.6987 28.396 45.0996 27.6048L44.8286 26.7824ZM38.6811 30.8519L38.0193 30.2935C36.3552 32.2659 35.1515 34.82 34.3777 37.915L35.2177 38.125L36.0577 38.335C36.7848 35.4268 37.89 33.1322 39.3429 31.4103L38.6811 30.8519ZM35.2177 38.125L34.3852 37.8872C34.3049 38.1683 34.2137 38.7351 34.6488 39.1702L35.261 38.5579L35.8733 37.9457C35.9963 38.0687 36.038 38.2102 36.0468 38.2986C36.0542 38.3726 36.0391 38.4019 36.0503 38.3629L35.2177 38.125ZM35.261 38.5579L34.8738 39.3324C35.4093 39.6001 35.9097 39.3681 36.1742 39.1918L35.6939 38.4714L35.2136 37.7509C35.1851 37.77 35.2115 37.7455 35.286 37.7306C35.3749 37.7128 35.51 37.7144 35.6482 37.7835L35.261 38.5579ZM35.6939 38.4714L36.195 39.1775C36.928 38.6573 37.8019 38.3848 38.8543 38.3848L38.8543 37.5189L38.8543 36.6531C37.4823 36.6531 36.2493 37.0155 35.1928 37.7653L35.6939 38.4714ZM38.8543 37.5189L38.8543 38.3848C40.0093 38.3848 41.0296 38.7476 41.9455 39.4903L42.4908 38.8177L43.0361 38.1451C41.8163 37.1561 40.4122 36.6531 38.8543 36.6531L38.8543 37.5189ZM42.4908 38.8177L41.9567 39.4992C42.8879 40.229 43.6421 41.253 44.2012 42.6108L45.0018 42.2811L45.8024 41.9514C45.1493 40.3653 44.2295 39.0803 43.025 38.1362L42.4908 38.8177ZM45.0018 42.2811L44.2068 42.624C44.7871 43.9693 45.0884 45.5375 45.0884 47.3463L45.9542 47.3463L46.8201 47.3463C46.8201 45.3453 46.4864 43.5368 45.7968 41.9381L45.0018 42.2811ZM45.9542 47.3463L45.0884 47.3463C45.0884 49.118 44.7754 50.735 44.1597 52.2073L44.9585 52.5414L45.7573 52.8754C46.4692 51.173 46.8201 49.3266 46.8201 47.3463L45.9542 47.3463ZM44.9585 52.5414L44.1619 52.2021C43.5438 53.6533 42.7265 54.7735 41.7252 55.5952L42.2744 56.2645L42.8236 56.9339C44.0734 55.9084 45.0456 54.5465 45.7551 52.8807L44.9585 52.5414ZM42.2744 56.2645L41.7167 55.6022C40.7664 56.4025 39.7347 56.784 38.5945 56.784L38.5945 57.6499L38.5945 58.5157C40.1674 58.5157 41.5889 57.9737 42.8321 56.9268L42.2744 56.2645ZM38.5079 56.481L38.5079 57.3468C39.3916 57.3468 40.2023 57.128 40.9039 56.6603C41.6011 56.1954 42.1373 55.5205 42.5354 54.6911L41.7549 54.3164L40.9743 53.9417C40.6798 54.5553 40.3284 54.9627 39.9433 55.2194C39.5626 55.4732 39.0962 55.6151 38.5079 55.6151L38.5079 56.481ZM41.7549 54.3164L42.5323 54.6975C43.3426 53.0445 43.703 50.6315 43.703 47.5628L42.8372 47.5628L41.9713 47.5628C41.9713 50.555 41.6102 52.6444 40.9774 53.9353L41.7549 54.3164ZM42.8372 47.5628L43.703 47.5628C43.703 44.4457 43.3731 42.0237 42.6281 40.404L41.8415 40.7659L41.0548 41.1277C41.6374 42.3941 41.9713 44.5034 41.9713 47.5628L42.8372 47.5628ZM41.8415 40.7659L42.6281 40.404C42.2466 39.5747 41.7267 38.8965 41.0428 38.428C40.3537 37.9561 39.5537 37.7354 38.6811 37.7354L38.6811 38.6012L38.6811 39.4671C39.2516 39.4671 39.6999 39.6072 40.0642 39.8567C40.4337 40.1098 40.7725 40.5139 41.0548 41.1277L41.8415 40.7659ZM38.6811 38.6012L38.6811 37.7354C37.7639 37.7354 36.9229 37.9683 36.1916 38.4582C35.4658 38.9443 34.8976 39.65 34.4642 40.5208C33.6096 42.2381 33.2263 44.7048 33.2263 47.8225L34.0921 47.8225L34.958 47.8225C34.958 44.7927 35.3395 42.6488 36.0145 41.2923C36.346 40.6263 36.7338 40.1793 37.1553 39.897C37.5712 39.6184 38.0686 39.4671 38.6811 39.4671L38.6811 38.6012ZM34.0921 47.8225L33.2263 47.8225C33.2263 50.7542 33.5954 53.0836 34.4247 54.7097C34.8458 55.5353 35.3981 56.2043 36.1023 56.6646C36.8111 57.1279 37.6239 57.3468 38.5079 57.3468L38.5079 56.481L38.5079 55.6151C37.92 55.6151 37.4448 55.4733 37.0497 55.2151C36.65 54.9538 36.2823 54.5405 35.9674 53.923C35.3248 52.663 34.958 50.6631 34.958 47.8225L34.0921 47.8225Z" fill="black" mask="url(#path-3-outside-1_1747_4114)"/>
<mask id="path-5-outside-2_1747_4114" maskUnits="userSpaceOnUse" x="54.2454" y="54.5757" width="15" height="16" fill="black">
<rect fill="white" x="54.2454" y="54.5757" width="15" height="16"/>
<path d="M55.6886 69.5757C55.4925 69.5757 55.3945 69.5039 55.3945 69.3601C55.3945 69.2164 55.4795 69.138 55.6494 69.1249L56.4138 69.0465C56.6883 69.0203 56.8712 68.955 56.9627 68.8505C57.0672 68.7459 57.1195 68.5564 57.1195 68.282L57.1195 56.6383C57.1195 56.4161 57.0542 56.2723 56.9235 56.207C56.8059 56.1286 56.6491 56.1025 56.453 56.1286L55.7474 56.207C55.5121 56.2201 55.3945 56.1351 55.3945 55.9522C55.3945 55.8084 55.4991 55.7169 55.7082 55.6777C56.4008 55.5601 56.9104 55.449 57.2371 55.3445C57.5638 55.2269 57.8056 55.1681 57.9624 55.1681C58.2369 55.1681 58.3741 55.3118 58.3741 55.5993L58.3741 68.282C58.3741 68.5564 58.4198 68.7459 58.5113 68.8505C58.6158 68.955 58.8053 69.0203 59.0797 69.0465L59.7266 69.1249C59.8965 69.138 59.9815 69.2164 59.9815 69.3601C59.9815 69.5039 59.8834 69.5757 59.6874 69.5757L55.6886 69.5757ZM64.6865 69.7522C63.9285 69.7522 63.262 69.432 62.687 68.7917C62.112 68.1513 61.6677 67.2823 61.3541 66.1846C61.0404 65.0868 60.8836 63.8584 60.8836 62.4993C60.8836 61.1402 61.0404 59.9184 61.3541 58.8337C61.6677 57.736 62.112 56.8669 62.687 56.2266C63.262 55.5863 63.9285 55.2661 64.6865 55.2661C65.4444 55.2661 66.1044 55.5863 66.6663 56.2266C67.2413 56.8669 67.6856 57.736 67.9992 58.8337C68.3259 59.9184 68.4893 61.1402 68.4893 62.4993C68.4893 63.8584 68.3259 65.0868 67.9992 66.1846C67.6856 67.2823 67.2413 68.1513 66.6663 68.7917C66.1044 69.432 65.4444 69.7522 64.6865 69.7522ZM64.6865 69.2229C65.5098 69.2229 66.1109 68.6675 66.4899 67.5567C66.8819 66.4459 67.0779 64.7601 67.0779 62.4993C67.0779 60.2385 66.8819 58.5593 66.4899 57.4615C66.1109 56.3508 65.5098 55.7954 64.6865 55.7954C63.8632 55.7954 63.2555 56.3508 62.8634 57.4615C62.4845 58.5593 62.295 60.2385 62.295 62.4993C62.295 64.7601 62.4845 66.4459 62.8634 67.5567C63.2555 68.6675 63.8632 69.2229 64.6865 69.2229Z"/>
</mask>
<path d="M55.6886 69.5757C55.4925 69.5757 55.3945 69.5039 55.3945 69.3601C55.3945 69.2164 55.4795 69.138 55.6494 69.1249L56.4138 69.0465C56.6883 69.0203 56.8712 68.955 56.9627 68.8505C57.0672 68.7459 57.1195 68.5564 57.1195 68.282L57.1195 56.6383C57.1195 56.4161 57.0542 56.2723 56.9235 56.207C56.8059 56.1286 56.6491 56.1025 56.453 56.1286L55.7474 56.207C55.5121 56.2201 55.3945 56.1351 55.3945 55.9522C55.3945 55.8084 55.4991 55.7169 55.7082 55.6777C56.4008 55.5601 56.9104 55.449 57.2371 55.3445C57.5638 55.2269 57.8056 55.1681 57.9624 55.1681C58.2369 55.1681 58.3741 55.3118 58.3741 55.5993L58.3741 68.282C58.3741 68.5564 58.4198 68.7459 58.5113 68.8505C58.6158 68.955 58.8053 69.0203 59.0797 69.0465L59.7266 69.1249C59.8965 69.138 59.9815 69.2164 59.9815 69.3601C59.9815 69.5039 59.8834 69.5757 59.6874 69.5757L55.6886 69.5757ZM64.6865 69.7522C63.9285 69.7522 63.262 69.432 62.687 68.7917C62.112 68.1513 61.6677 67.2823 61.3541 66.1846C61.0404 65.0868 60.8836 63.8584 60.8836 62.4993C60.8836 61.1402 61.0404 59.9184 61.3541 58.8337C61.6677 57.736 62.112 56.8669 62.687 56.2266C63.262 55.5863 63.9285 55.2661 64.6865 55.2661C65.4444 55.2661 66.1044 55.5863 66.6663 56.2266C67.2413 56.8669 67.6856 57.736 67.9992 58.8337C68.3259 59.9184 68.4893 61.1402 68.4893 62.4993C68.4893 63.8584 68.3259 65.0868 67.9992 66.1846C67.6856 67.2823 67.2413 68.1513 66.6663 68.7917C66.1044 69.432 65.4444 69.7522 64.6865 69.7522ZM64.6865 69.2229C65.5098 69.2229 66.1109 68.6675 66.4899 67.5567C66.8819 66.4459 67.0779 64.7601 67.0779 62.4993C67.0779 60.2385 66.8819 58.5593 66.4899 57.4615C66.1109 56.3508 65.5098 55.7954 64.6865 55.7954C63.8632 55.7954 63.2555 56.3508 62.8634 57.4615C62.4845 58.5593 62.295 60.2385 62.295 62.4993C62.295 64.7601 62.4845 66.4459 62.8634 67.5567C63.2555 68.6675 63.8632 69.2229 64.6865 69.2229Z" fill="black"/>
<path d="M55.6494 69.1249L55.6845 69.5823L55.6961 69.5811L55.6494 69.1249ZM56.4138 69.0465L56.3704 68.5899L56.367 68.5902L56.4138 69.0465ZM56.9627 68.8505L56.6384 68.5262L56.6276 68.537L56.6175 68.5484L56.9627 68.8505ZM56.9235 56.207L56.6691 56.5886L56.6929 56.6044L56.7184 56.6172L56.9235 56.207ZM56.453 56.1286L56.5037 56.5845L56.5137 56.5832L56.453 56.1286ZM55.7474 56.207L55.7728 56.6649L55.7854 56.6642L55.798 56.6628L55.7474 56.207ZM55.7082 55.6777L55.6314 55.2255L55.6236 55.227L55.7082 55.6777ZM57.2371 55.3445L57.3769 55.7813L57.3847 55.7788L57.3925 55.776L57.2371 55.3445ZM58.5113 68.8505L58.1661 69.1525L58.1762 69.164L58.187 69.1748L58.5113 68.8505ZM59.0797 69.0465L59.135 68.591L59.1232 68.5899L59.0797 69.0465ZM59.7266 69.1249L59.6714 69.5802L59.6814 69.5814L59.6914 69.5822L59.7266 69.1249ZM55.6886 69.5757L55.6886 69.1171C55.6331 69.1171 55.6745 69.1045 55.7393 69.152C55.7764 69.1792 55.8093 69.2181 55.8304 69.2647C55.8504 69.3087 55.8532 69.3443 55.8532 69.3601H55.3945H54.9359C54.9359 69.5478 55.0075 69.7529 55.1968 69.8917C55.3596 70.011 55.548 70.0344 55.6886 70.0344L55.6886 69.5757ZM55.3945 69.3601H55.8532C55.8532 69.3688 55.8519 69.3942 55.8388 69.4284C55.825 69.4646 55.8015 69.5008 55.7693 69.5305C55.7074 69.5877 55.6555 69.5844 55.6845 69.5822L55.6494 69.1249L55.6142 68.6676C55.4733 68.6784 55.294 68.7209 55.1471 68.8565C54.9886 69.0028 54.9359 69.1936 54.9359 69.3601H55.3945ZM55.6494 69.1249L55.6961 69.5811L56.4606 69.5027L56.4138 69.0465L56.367 68.5902L55.6026 68.6686L55.6494 69.1249ZM56.4138 69.0465L56.4573 69.5031C56.7492 69.4753 57.0921 69.399 57.3079 69.1525L56.9627 68.8505L56.6175 68.5484C56.6398 68.523 56.6483 68.5297 56.6026 68.546C56.5584 68.5618 56.4842 68.5791 56.3704 68.5899L56.4138 69.0465ZM56.9627 68.8505L57.287 69.1748C57.5266 68.9352 57.5782 68.5843 57.5782 68.282L57.1195 68.282H56.6609C56.6609 68.393 56.65 68.4652 56.6382 68.508C56.6264 68.5506 56.619 68.5455 56.6384 68.5262L56.9627 68.8505ZM57.1195 68.282L57.5782 68.282L57.5782 56.6383L57.1195 56.6383L56.6609 56.6383L56.6609 68.282H57.1195ZM57.1195 56.6383L57.5782 56.6383C57.5782 56.3427 57.4877 55.9763 57.1286 55.7968L56.9235 56.207L56.7184 56.6172C56.7035 56.6098 56.688 56.5986 56.6747 56.5844C56.6616 56.5705 56.6553 56.5586 56.653 56.5536C56.651 56.5492 56.6532 56.5524 56.6558 56.567C56.6584 56.5815 56.6609 56.6047 56.6609 56.6383L57.1195 56.6383ZM56.9235 56.207L57.1779 55.8254C56.9365 55.6644 56.655 55.639 56.3924 55.674L56.453 56.1286L56.5137 56.5832C56.577 56.5748 56.6182 56.577 56.6423 56.581C56.6539 56.5829 56.661 56.5852 56.6647 56.5866C56.6665 56.5873 56.6677 56.5878 56.6683 56.5882C56.6686 56.5883 56.6688 56.5884 56.6689 56.5885C56.669 56.5886 56.6691 56.5886 56.6691 56.5886L56.9235 56.207ZM56.453 56.1286L56.4024 55.6728L55.6967 55.7512L55.7474 56.207L55.798 56.6628L56.5037 56.5844L56.453 56.1286ZM55.7474 56.207L55.7219 55.7491C55.691 55.7508 55.6805 55.7482 55.6845 55.749C55.6893 55.75 55.7167 55.7563 55.7513 55.7813C55.7887 55.8083 55.8187 55.8459 55.8365 55.8866C55.8529 55.9239 55.8532 55.9498 55.8532 55.9522L55.3945 55.9522L54.9359 55.9522C54.9359 56.1481 55.0051 56.3739 55.2142 56.5249C55.3971 56.657 55.6111 56.6739 55.7728 56.6649L55.7474 56.207ZM55.3945 55.9522L55.8532 55.9522C55.8532 55.9729 55.8491 56.0047 55.8332 56.0404C55.8172 56.0766 55.7949 56.1035 55.7749 56.1209C55.741 56.1506 55.7294 56.1404 55.7927 56.1285L55.7082 55.6777L55.6236 55.227C55.4779 55.2543 55.3094 55.3094 55.1709 55.4306C55.0152 55.5668 54.9359 55.7533 54.9359 55.9522L55.3945 55.9522ZM55.7082 55.6777L55.7849 56.1299C56.4816 56.0116 57.0178 55.8962 57.3769 55.7813L57.2371 55.3445L57.0974 54.9077C56.803 55.0019 56.3199 55.1087 55.6314 55.2256L55.7082 55.6777ZM57.2371 55.3445L57.3925 55.776C57.715 55.6599 57.8917 55.6267 57.9624 55.6267L57.9624 55.1681L57.9624 54.7094C57.7195 54.7094 57.4126 54.7939 57.0818 54.913L57.2371 55.3445ZM57.9624 55.1681L57.9624 55.6267C57.9923 55.6267 57.9992 55.6308 57.9913 55.628C57.987 55.6265 57.9791 55.6232 57.9692 55.617C57.9592 55.6107 57.9489 55.6025 57.9394 55.5926C57.9193 55.5715 57.9123 55.553 57.9113 55.5497C57.9109 55.5484 57.9154 55.5625 57.9154 55.5993L58.3741 55.5993L58.8327 55.5993C58.8327 55.3901 58.7831 55.148 58.6029 54.9592C58.4189 54.7664 58.1759 54.7094 57.9624 54.7094L57.9624 55.1681ZM58.3741 55.5993L57.9154 55.5993L57.9154 68.282L58.3741 68.282H58.8327L58.8327 55.5993L58.3741 55.5993ZM58.3741 68.282L57.9154 68.282C57.9154 68.5746 57.9575 68.914 58.1661 69.1525L58.5113 68.8505L58.8564 68.5484C58.8751 68.5698 58.8663 68.5724 58.8542 68.5223C58.8425 68.4739 58.8327 68.3964 58.8327 68.282H58.3741ZM58.5113 68.8505L58.187 69.1748C58.409 69.3968 58.736 69.4745 59.0363 69.5031L59.0797 69.0465L59.1232 68.5899C59.0097 68.5791 58.9317 68.5617 58.8813 68.5443C58.8302 68.5267 58.8244 68.5149 58.8356 68.5262L58.5113 68.8505ZM59.0797 69.0465L59.0246 69.5018L59.6714 69.5802L59.7266 69.1249L59.7818 68.6696L59.1349 68.5912L59.0797 69.0465ZM59.7266 69.1249L59.6914 69.5822C59.7205 69.5844 59.6686 69.5877 59.6067 69.5305C59.5745 69.5008 59.551 69.4646 59.5371 69.4284C59.5241 69.3942 59.5228 69.3688 59.5228 69.3601L59.9815 69.3601H60.4401C60.4401 69.1936 60.3874 69.0028 60.2288 68.8565C60.082 68.7209 59.9027 68.6784 59.7618 68.6676L59.7266 69.1249ZM59.9815 69.3601L59.5228 69.3601C59.5228 69.3443 59.5256 69.3087 59.5455 69.2647C59.5667 69.2181 59.5996 69.1792 59.6367 69.152C59.7015 69.1045 59.7429 69.1171 59.6874 69.1171L59.6874 69.5757L59.6874 70.0344C59.828 70.0344 60.0164 70.011 60.1792 69.8917C60.3684 69.7529 60.4401 69.5478 60.4401 69.3601H59.9815ZM59.6874 69.5757L59.6874 69.1171L55.6886 69.1171L55.6886 69.5757L55.6886 70.0344L59.6874 70.0344L59.6874 69.5757ZM62.687 68.7917L63.0283 68.4852L62.687 68.7917ZM61.3541 66.1846L61.7951 66.0586L61.3541 66.1846ZM61.3541 58.8337L61.7947 58.9611L61.7951 58.9597L61.3541 58.8337ZM62.687 56.2266L62.3458 55.9202V55.9202L62.687 56.2266ZM66.6663 56.2266L66.3215 56.5291L66.325 56.533L66.6663 56.2266ZM67.9992 58.8337L67.5582 58.9597L67.5601 58.966L67.9992 58.8337ZM67.9992 66.1846L67.5596 66.0537L67.5582 66.0586L67.9992 66.1846ZM66.6663 68.7917L66.325 68.4852L66.3216 68.4891L66.6663 68.7917ZM66.4899 67.5567L66.0573 67.4041L66.0558 67.4086L66.4899 67.5567ZM66.4899 57.4615L66.0557 57.6097L66.0579 57.6158L66.4899 57.4615ZM62.8634 57.4615L62.4309 57.3089L62.4299 57.3119L62.8634 57.4615ZM62.8634 67.5567L62.4294 67.7048L62.431 67.7094L62.8634 67.5567ZM64.6865 69.7522L64.6865 69.2935C64.077 69.2935 63.5293 69.0432 63.0283 68.4852L62.687 68.7917L62.3458 69.0981C62.9947 69.8208 63.78 70.2108 64.6865 70.2108V69.7522ZM62.687 68.7917L63.0283 68.4852C62.5124 67.9107 62.0955 67.1102 61.7951 66.0586L61.3541 66.1846L60.9131 66.3106C61.2399 67.4543 61.7117 68.3919 62.3458 69.0981L62.687 68.7917ZM61.3541 66.1846L61.7951 66.0586C61.4951 65.0087 61.3423 63.8236 61.3423 62.4993H60.8836L60.425 62.4993C60.425 63.8932 60.5858 65.1649 60.9131 66.3106L61.3541 66.1846ZM60.8836 62.4993H61.3423C61.3423 61.1749 61.4951 59.9969 61.7947 58.9611L61.3541 58.8337L60.9135 58.7063C60.5857 59.8398 60.425 61.1056 60.425 62.4993L60.8836 62.4993ZM61.3541 58.8337L61.7951 58.9597C62.0955 57.908 62.5124 57.1075 63.0283 56.533L62.687 56.2266L62.3458 55.9202C61.7117 56.6264 61.2399 57.5639 60.9131 58.7077L61.3541 58.8337ZM62.687 56.2266L63.0283 56.533C63.5293 55.975 64.077 55.7247 64.6865 55.7247V55.2661L64.6865 54.8075C63.78 54.8075 62.9947 55.1975 62.3458 55.9202L62.687 56.2266ZM64.6865 55.2661V55.7247C65.2952 55.7247 65.8347 55.9743 66.3216 56.5291L66.6663 56.2266L67.011 55.9241C66.374 55.1982 65.5937 54.8075 64.6865 54.8075L64.6865 55.2661ZM66.6663 56.2266L66.325 56.533C66.8409 57.1075 67.2578 57.908 67.5582 58.9597L67.9992 58.8337L68.4402 58.7077C68.1134 57.5639 67.6417 56.6264 67.0075 55.9202L66.6663 56.2266ZM67.9992 58.8337L67.5601 58.966C67.8716 60.0002 68.0307 61.1764 68.0307 62.4993H68.4893L68.9479 62.4993C68.9479 61.1041 68.7803 59.8366 68.4384 58.7014L67.9992 58.8337ZM68.4893 62.4993H68.0307C68.0307 63.8221 67.8716 65.0055 67.5597 66.0537L67.9992 66.1846L68.4388 66.3154C68.7803 65.1681 68.9479 63.8947 68.9479 62.4993L68.4893 62.4993ZM67.9992 66.1846L67.5582 66.0586C67.2578 67.1102 66.8409 67.9107 66.325 68.4852L66.6663 68.7917L67.0075 69.0981C67.6417 68.3919 68.1134 67.4543 68.4402 66.3106L67.9992 66.1846ZM66.6663 68.7917L66.3216 68.4891C65.8347 69.044 65.2952 69.2935 64.6865 69.2935L64.6865 69.7522V70.2108C65.5937 70.2108 66.374 69.82 67.011 69.0942L66.6663 68.7917ZM64.6865 69.2229L64.6865 69.6815C65.2127 69.6815 65.6802 69.4997 66.066 69.1432C66.4416 68.7962 66.7198 68.303 66.9239 67.7048L66.4899 67.5567L66.0558 67.4086C65.8809 67.9212 65.6691 68.2611 65.4435 68.4695C65.2283 68.6684 64.9835 68.7643 64.6865 68.7643V69.2229ZM66.4899 67.5567L66.9224 67.7094C67.3411 66.523 67.5366 64.7734 67.5366 62.4993L67.0779 62.4993L66.6193 62.4993C66.6193 64.7468 66.4227 66.3689 66.0574 67.4041L66.4899 67.5567ZM67.0779 62.4993L67.5366 62.4993C67.5366 60.2257 67.3412 58.4817 66.9218 57.3073L66.4899 57.4615L66.0579 57.6158C66.4226 58.6369 66.6193 60.2513 66.6193 62.4993L67.0779 62.4993ZM66.4899 57.4615L66.9239 57.3135C66.7198 56.7152 66.4416 56.2221 66.066 55.875C65.6802 55.5185 65.2127 55.3367 64.6865 55.3367L64.6865 55.7954V56.254C64.9835 56.254 65.2283 56.3499 65.4435 56.5488C65.6691 56.7571 65.8809 57.0971 66.0558 57.6096L66.4899 57.4615ZM64.6865 55.7954L64.6865 55.3367C64.1603 55.3367 63.6922 55.5184 63.3038 55.8734C62.9255 56.2192 62.642 56.7111 62.431 57.3089L62.8634 57.4615L63.2959 57.6142C63.477 57.1012 63.6933 56.76 63.9226 56.5504C64.1419 56.35 64.3893 56.254 64.6865 56.254V55.7954ZM62.8634 57.4615L62.4299 57.3119C62.0252 58.4842 61.8363 60.2263 61.8363 62.4993L62.295 62.4993H62.7536C62.7536 60.2507 62.9438 58.6343 63.297 57.6112L62.8634 57.4615ZM62.295 62.4993L61.8363 62.4993C61.8363 64.7729 62.0253 66.5204 62.4294 67.7048L62.8634 67.5567L63.2975 67.4086C62.9436 66.3714 62.7536 64.7474 62.7536 62.4993H62.295ZM62.8634 67.5567L62.431 67.7094C62.642 68.3072 62.9255 68.7991 63.3038 69.1449C63.6922 69.4999 64.1603 69.6815 64.6865 69.6815L64.6865 69.2229V68.7643C64.3893 68.7643 64.1419 68.6683 63.9226 68.4678C63.6933 68.2582 63.477 67.917 63.2959 67.4041L62.8634 67.5567Z" fill="black" mask="url(#path-5-outside-2_1747_4114)"/>
<defs>
<linearGradient id="paint0_linear_1747_4114" x1="37.3431" y1="95" x2="117.394" y2="52.136" gradientUnits="userSpaceOnUse">
<stop stop-color="#FFE8F4"/>
<stop offset="1" stop-color="#FF88CA"/>
</linearGradient>
</defs>
</svg>
