<svg width="100" height="100" viewBox="0 0 100 100" fill="none" xmlns="http://www.w3.org/2000/svg">
<path d="M58.6768 15.2852L59.1416 15.8828L59.8428 15.5977L72.9355 10.2734L74.8721 24.2744L74.9756 25.0244L75.7256 25.1279L89.7256 27.0635L84.4023 40.1572L84.1172 40.8584L84.7148 41.3232L95.8711 50L84.7148 58.6768L84.1172 59.1416L84.4023 59.8428L89.7256 72.9355L75.7256 74.8721L74.9756 74.9756L74.8721 75.7256L72.9355 89.7256L59.8428 84.4023L59.1416 84.1172L58.6768 84.7148L50 95.8711L41.3232 84.7148L40.8584 84.1172L40.1572 84.4023L27.0635 89.7256L25.1279 75.7256L25.0244 74.9756L24.2744 74.8721L10.2734 72.9355L15.5977 59.8428L15.8828 59.1416L15.2852 58.6768L4.12793 50L15.2852 41.3232L15.8828 40.8584L15.5977 40.1572L10.2734 27.0635L24.2744 25.1279L25.0244 25.0244L25.1279 24.2744L27.0635 10.2734L40.1572 15.5977L40.8584 15.8828L41.3232 15.2852L50 4.12793L58.6768 15.2852Z" fill="url(#paint0_linear_1747_4132)" stroke="black" stroke-width="2"/>
<line x1="41.3102" y1="73.309" x2="69.7041" y2="35.7908" stroke="black" stroke-width="1.63" stroke-linecap="round"/>
<mask id="path-3-outside-1_1747_4132" maskUnits="userSpaceOnUse" x="27.2461" y="28.5494" width="27" height="30" fill="black">
<rect fill="white" x="27.2461" y="28.5494" width="27" height="30"/>
<path d="M28.5434 56.5494C28.1737 56.5494 27.9888 56.4138 27.9888 56.1427C27.9888 55.8715 28.149 55.7236 28.4695 55.699L29.9114 55.5511C30.429 55.5018 30.7741 55.3786 30.9467 55.1814C31.1438 54.9842 31.2424 54.6268 31.2424 54.1092L31.2424 32.1471C31.2424 31.7281 31.1192 31.457 30.8727 31.3337C30.6509 31.1858 30.3551 31.1365 29.9854 31.1858L28.6543 31.3337C28.2106 31.3584 27.9888 31.1981 27.9888 30.8531C27.9888 30.5819 28.186 30.4094 28.5804 30.3354C29.8868 30.1136 30.8481 29.9041 31.4643 29.7069C32.0805 29.4851 32.5365 29.3741 32.8323 29.3741C33.3499 29.3741 33.6087 29.6453 33.6087 30.1875L33.6087 54.1092C33.6087 54.6268 33.695 54.9842 33.8675 55.1814C34.0647 55.3786 34.4221 55.5018 34.9398 55.5511L36.1599 55.699C36.4803 55.7236 36.6405 55.8715 36.6405 56.1427C36.6405 56.4138 36.4557 56.5494 36.0859 56.5494L28.5434 56.5494ZM45.5149 56.8821C44.0853 56.8821 42.8282 56.2782 41.7437 55.0705C40.6591 53.8627 39.8211 52.2235 39.2295 50.153C38.6379 48.0825 38.3421 45.7655 38.3421 43.2021C38.3421 40.6386 38.6379 38.334 39.2295 36.2881C39.8211 34.2176 40.6591 32.5785 41.7437 31.3707C42.8282 30.1629 44.0853 29.559 45.5149 29.559C46.9446 29.559 48.1893 30.1629 49.2492 31.3707C50.3338 32.5785 51.1718 34.2176 51.7634 36.2881C52.3796 38.334 52.6877 40.6386 52.6877 43.2021C52.6877 45.7655 52.3796 48.0825 51.7634 50.153C51.1718 52.2235 50.3338 53.8627 49.2492 55.0705C48.1893 56.2782 46.9446 56.8821 45.5149 56.8821ZM45.5149 55.8839C47.0678 55.8839 48.2016 54.8363 48.9165 52.7411C49.6559 50.646 50.0257 47.4663 50.0257 43.2021C50.0257 38.9378 49.6559 35.7705 48.9165 33.7C48.2016 31.6048 47.0678 30.5573 45.5149 30.5573C43.9621 30.5573 42.8159 31.6048 42.0764 33.7C41.3616 35.7705 41.0042 38.9378 41.0042 43.2021C41.0042 47.4663 41.3616 50.646 42.0764 52.7411C42.8159 54.8363 43.9621 55.8839 45.5149 55.8839Z"/>
</mask>
<path d="M28.5434 56.5494C28.1737 56.5494 27.9888 56.4138 27.9888 56.1427C27.9888 55.8715 28.149 55.7236 28.4695 55.699L29.9114 55.5511C30.429 55.5018 30.7741 55.3786 30.9467 55.1814C31.1438 54.9842 31.2424 54.6268 31.2424 54.1092L31.2424 32.1471C31.2424 31.7281 31.1192 31.457 30.8727 31.3337C30.6509 31.1858 30.3551 31.1365 29.9854 31.1858L28.6543 31.3337C28.2106 31.3584 27.9888 31.1981 27.9888 30.8531C27.9888 30.5819 28.186 30.4094 28.5804 30.3354C29.8868 30.1136 30.8481 29.9041 31.4643 29.7069C32.0805 29.4851 32.5365 29.3741 32.8323 29.3741C33.3499 29.3741 33.6087 29.6453 33.6087 30.1875L33.6087 54.1092C33.6087 54.6268 33.695 54.9842 33.8675 55.1814C34.0647 55.3786 34.4221 55.5018 34.9398 55.5511L36.1599 55.699C36.4803 55.7236 36.6405 55.8715 36.6405 56.1427C36.6405 56.4138 36.4557 56.5494 36.0859 56.5494L28.5434 56.5494ZM45.5149 56.8821C44.0853 56.8821 42.8282 56.2782 41.7437 55.0705C40.6591 53.8627 39.8211 52.2235 39.2295 50.153C38.6379 48.0825 38.3421 45.7655 38.3421 43.2021C38.3421 40.6386 38.6379 38.334 39.2295 36.2881C39.8211 34.2176 40.6591 32.5785 41.7437 31.3707C42.8282 30.1629 44.0853 29.559 45.5149 29.559C46.9446 29.559 48.1893 30.1629 49.2492 31.3707C50.3338 32.5785 51.1718 34.2176 51.7634 36.2881C52.3796 38.334 52.6877 40.6386 52.6877 43.2021C52.6877 45.7655 52.3796 48.0825 51.7634 50.153C51.1718 52.2235 50.3338 53.8627 49.2492 55.0705C48.1893 56.2782 46.9446 56.8821 45.5149 56.8821ZM45.5149 55.8839C47.0678 55.8839 48.2016 54.8363 48.9165 52.7411C49.6559 50.646 50.0257 47.4663 50.0257 43.2021C50.0257 38.9378 49.6559 35.7705 48.9165 33.7C48.2016 31.6048 47.0678 30.5573 45.5149 30.5573C43.9621 30.5573 42.8159 31.6048 42.0764 33.7C41.3616 35.7705 41.0042 38.9378 41.0042 43.2021C41.0042 47.4663 41.3616 50.646 42.0764 52.7411C42.8159 54.8363 43.9621 55.8839 45.5149 55.8839Z" fill="black"/>
<path d="M28.4695 55.699L28.5262 56.4363L28.5355 56.4356L28.5449 56.4346L28.4695 55.699ZM29.9114 55.5511L29.8413 54.815L29.836 54.8155L29.9114 55.5511ZM30.9467 55.1814L30.4238 54.6585L30.4064 54.6759L30.3902 54.6944L30.9467 55.1814ZM30.8727 31.3337L30.4625 31.949L30.5008 31.9745L30.542 31.9951L30.8727 31.3337ZM29.9854 31.1858L30.067 31.9208L30.0751 31.9199L30.0831 31.9188L29.9854 31.1858ZM28.6543 31.3337L28.6953 32.072L28.7157 32.0709L28.736 32.0686L28.6543 31.3337ZM28.5804 30.3354L28.4566 29.6063L28.4441 29.6086L28.5804 30.3354ZM31.4643 29.7069L31.6896 30.4112L31.7023 30.4071L31.7148 30.4026L31.4643 29.7069ZM33.8675 55.1814L33.311 55.6683L33.3272 55.6868L33.3447 55.7043L33.8675 55.1814ZM34.9398 55.5511L35.0287 54.817L35.0193 54.8159L35.0099 54.815L34.9398 55.5511ZM36.1599 55.699L36.0709 56.4331L36.087 56.435L36.1032 56.4363L36.1599 55.699ZM28.5434 56.5494L28.5434 55.8099C28.4938 55.8099 28.4742 55.8051 28.4764 55.8056C28.479 55.8063 28.5159 55.8156 28.5647 55.8514C28.6179 55.8904 28.6659 55.9469 28.6967 56.0146C28.7255 56.0782 28.7283 56.127 28.7283 56.1427L27.9888 56.1427L27.2493 56.1427C27.2493 56.465 27.3716 56.8104 27.6902 57.044C27.966 57.2463 28.29 57.2888 28.5434 57.2888L28.5434 56.5494ZM27.9888 56.1427L28.7283 56.1427C28.7283 56.1468 28.7277 56.179 28.7095 56.2265C28.6901 56.2774 28.6566 56.3292 28.6105 56.3718C28.5223 56.4532 28.4561 56.4417 28.5262 56.4363L28.4695 55.699L28.4127 54.9617C28.1624 54.981 27.8558 55.0557 27.6074 55.285C27.3401 55.5317 27.2493 55.8546 27.2493 56.1427L27.9888 56.1427ZM28.4695 55.699L28.5449 56.4346L29.9869 56.2867L29.9114 55.5511L29.836 54.8155L28.394 54.9634L28.4695 55.699ZM29.9114 55.5511L29.9815 56.2872C30.5272 56.2353 31.1303 56.0944 31.5032 55.6683L30.9467 55.1814L30.3902 54.6944C30.4135 54.6678 30.4084 54.6901 30.3097 54.7253C30.2133 54.7598 30.0624 54.7939 29.8413 54.815L29.9114 55.5511ZM30.9467 55.1814L31.4695 55.7043C31.8845 55.2893 31.9819 54.6718 31.9819 54.1092L31.2424 54.1092L30.503 54.1092C30.503 54.3256 30.4819 54.4738 30.4557 54.5688C30.4296 54.6634 30.4069 54.6754 30.4238 54.6585L30.9467 55.1814ZM31.2424 54.1092L31.9819 54.1092L31.9819 32.1471L31.2424 32.1471L30.503 32.1471L30.503 54.1092L31.2424 54.1092ZM31.2424 32.1471L31.9819 32.1471C31.9819 31.6098 31.8182 30.9797 31.2034 30.6723L30.8727 31.3337L30.542 31.9951C30.5269 31.9876 30.5098 31.9754 30.495 31.9596C30.4807 31.9444 30.476 31.9337 30.4768 31.9355C30.4808 31.9442 30.503 32.0031 30.503 32.1471L31.2424 32.1471ZM30.8727 31.3337L31.2829 30.7184C30.8614 30.4374 30.3646 30.3892 29.8876 30.4528L29.9854 31.1858L30.0831 31.9188C30.3456 31.8838 30.4404 31.9342 30.4625 31.949L30.8727 31.3337ZM29.9854 31.1858L29.9037 30.4509L28.5727 30.5988L28.6543 31.3337L28.736 32.0686L30.067 31.9208L29.9854 31.1858ZM28.6543 31.3337L28.6133 30.5954C28.5473 30.599 28.5163 30.5941 28.5108 30.5929C28.5064 30.5921 28.5405 30.5982 28.5881 30.6326C28.6405 30.6704 28.6827 30.7235 28.7075 30.7799C28.7298 30.8308 28.7283 30.8618 28.7283 30.8531L27.9888 30.8531L27.2493 30.8531C27.2493 31.194 27.369 31.5764 27.7222 31.8315C28.0333 32.0561 28.4023 32.0883 28.6953 32.072L28.6543 31.3337ZM27.9888 30.8531L28.7283 30.8531C28.7283 30.8766 28.7235 30.9189 28.7015 30.9685C28.6792 31.0187 28.6486 31.055 28.6236 31.0768C28.601 31.0966 28.59 31.0986 28.606 31.092C28.6221 31.0853 28.6567 31.0735 28.7167 31.0622L28.5804 30.3354L28.4441 29.6086C28.1805 29.6581 27.8873 29.7559 27.6498 29.9638C27.3844 30.196 27.2493 30.5127 27.2493 30.8531L27.9888 30.8531ZM28.5804 30.3354L28.7042 31.0645C30.0171 30.8415 31.0212 30.6251 31.6896 30.4112L31.4643 29.7069L31.2389 29.0026C30.6749 29.1831 29.7564 29.3857 28.4566 29.6064L28.5804 30.3354ZM31.4643 29.7069L31.7148 30.4026C32.3243 30.1832 32.6753 30.1136 32.8323 30.1136L32.8323 29.3741L32.8323 28.6347C32.3977 28.6347 31.8367 28.7869 31.2138 29.0111L31.4643 29.7069ZM32.8323 29.3741L32.8323 30.1136C32.8992 30.1136 32.9268 30.1226 32.9282 30.1231C32.9282 30.1231 32.9219 30.1209 32.9119 30.1146C32.9016 30.1081 32.8904 30.0992 32.8797 30.0881C32.8567 30.0639 32.8525 30.0464 32.8555 30.0559C32.8596 30.0685 32.8693 30.1085 32.8693 30.1875L33.6087 30.1875L34.3482 30.1875C34.3482 29.8108 34.2588 29.391 33.9495 29.0669C33.634 28.7364 33.2141 28.6347 32.8323 28.6347L32.8323 29.3741ZM33.6087 30.1875L32.8693 30.1875L32.8693 54.1092L33.6087 54.1092L34.3482 54.1092L34.3482 30.1875L33.6087 30.1875ZM33.6087 54.1092L32.8693 54.1092C32.8693 54.6561 32.9496 55.2552 33.311 55.6683L33.8675 55.1814L34.424 54.6944C34.4416 54.7145 34.418 54.6986 34.3922 54.5919C34.3671 54.4878 34.3482 54.3312 34.3482 54.1092L33.6087 54.1092ZM33.8675 55.1814L33.3447 55.7043C33.7313 56.0909 34.3104 56.234 34.8696 56.2872L34.9398 55.5511L35.0099 54.815C34.7892 54.794 34.6317 54.7596 34.5245 54.7226C34.4161 54.6852 34.3866 54.6547 34.3904 54.6585L33.8675 55.1814ZM34.9398 55.5511L34.8508 56.2852L36.0709 56.4331L36.1599 55.699L36.2488 54.9649L35.0287 54.817L34.9398 55.5511ZM36.1599 55.699L36.1032 56.4363C36.1732 56.4417 36.107 56.4532 36.0188 56.3718C35.9727 56.3292 35.9392 56.2774 35.9198 56.2265C35.9016 56.179 35.9011 56.1468 35.9011 56.1427L36.6405 56.1427L37.38 56.1427C37.38 55.8546 37.2892 55.5317 37.0219 55.285C36.7735 55.0557 36.467 54.981 36.2166 54.9617L36.1599 55.699ZM36.6405 56.1427L35.9011 56.1427C35.9011 56.127 35.9038 56.0782 35.9327 56.0146C35.9634 55.9469 36.0114 55.8904 36.0646 55.8514C36.1134 55.8156 36.1503 55.8063 36.153 55.8056C36.1551 55.8051 36.1356 55.8099 36.0859 55.8099L36.0859 56.5494L36.0859 57.2888C36.3393 57.2888 36.6633 57.2463 36.9392 57.044C37.2577 56.8104 37.38 56.465 37.38 56.1427L36.6405 56.1427ZM36.0859 56.5494L36.0859 55.8099L28.5434 55.8099L28.5434 56.5494L28.5434 57.2888L36.0859 57.2888L36.0859 56.5494ZM41.7437 55.0705L42.2939 54.5764L41.7437 55.0705ZM39.2295 50.153L39.9405 49.9499L39.2295 50.153ZM39.2295 36.2881L39.9399 36.4935L39.9405 36.4913L39.2295 36.2881ZM41.7437 31.3707L41.1935 30.8766V30.8766L41.7437 31.3707ZM49.2492 31.3707L48.6934 31.8585L48.699 31.8647L49.2492 31.3707ZM51.7634 36.2881L51.0523 36.4913L51.0553 36.5014L51.7634 36.2881ZM51.7634 50.153L51.0546 49.9421L51.0524 49.9499L51.7634 50.153ZM49.2492 55.0705L48.699 54.5764L48.6934 54.5827L49.2492 55.0705ZM48.9165 52.7411L48.2191 52.495L48.2166 52.5024L48.9165 52.7411ZM48.9165 33.7L48.2165 33.9388L48.2201 33.9487L48.9165 33.7ZM42.0764 33.7L41.3791 33.4539L41.3775 33.4587L42.0764 33.7ZM42.0764 52.7411L41.3765 52.9799L41.3791 52.9873L42.0764 52.7411ZM45.5149 56.8821L45.5149 56.1427C44.3248 56.1427 43.2592 55.6514 42.2939 54.5764L41.7437 55.0705L41.1935 55.5645C42.3972 56.905 43.8458 57.6216 45.5149 57.6216L45.5149 56.8821ZM41.7437 55.0705L42.2939 54.5764C41.3047 53.4748 40.5109 51.9461 39.9405 49.9499L39.2295 50.153L38.5185 50.3562C39.1313 52.5009 40.0136 54.2506 41.1935 55.5645L41.7437 55.0705ZM39.2295 50.153L39.9405 49.9499C39.371 47.9566 39.0816 45.7095 39.0816 43.2021L38.3421 43.2021L37.6027 43.2021C37.6027 45.8216 37.9049 48.2085 38.5185 50.3562L39.2295 50.153ZM38.3421 43.2021L39.0816 43.2021C39.0816 40.6945 39.3711 38.4606 39.9399 36.4935L39.2295 36.2881L38.5191 36.0827C37.9048 38.2073 37.6027 40.5828 37.6027 43.2021L38.3421 43.2021ZM39.2295 36.2881L39.9405 36.4913C40.5109 34.495 41.3047 32.9664 42.2939 31.8647L41.7437 31.3707L41.1935 30.8766C40.0136 32.1906 39.1313 33.9402 38.5185 36.085L39.2295 36.2881ZM41.7437 31.3707L42.2939 31.8647C43.2592 30.7897 44.3248 30.2985 45.5149 30.2985L45.5149 29.559L45.5149 28.8195C43.8458 28.8195 42.3972 29.5361 41.1935 30.8766L41.7437 31.3707ZM45.5149 29.559L45.5149 30.2985C46.7039 30.2985 47.7545 30.7885 48.6934 31.8584L49.2492 31.3707L49.805 30.8829C48.6241 29.5373 47.1852 28.8195 45.5149 28.8195L45.5149 29.559ZM49.2492 31.3707L48.699 31.8647C49.6882 32.9664 50.482 34.495 51.0524 36.4913L51.7634 36.2881L52.4744 36.085C51.8616 33.9402 50.9793 32.1906 49.7994 30.8766L49.2492 31.3707ZM51.7634 36.2881L51.0553 36.5014C51.6471 38.4659 51.9483 40.6969 51.9483 43.2021L52.6877 43.2021L53.4272 43.2021C53.4272 40.5803 53.1122 38.202 52.4714 36.0748L51.7634 36.2881ZM52.6877 43.2021L51.9483 43.2021C51.9483 45.707 51.6471 47.9514 51.0547 49.9421L51.7634 50.153L52.4721 50.364C53.1121 48.2136 53.4272 45.8241 53.4272 43.2021L52.6877 43.2021ZM51.7634 50.153L51.0524 49.9499C50.482 51.9461 49.6882 53.4748 48.699 54.5764L49.2492 55.0705L49.7994 55.5645C50.9793 54.2506 51.8616 52.5009 52.4744 50.3562L51.7634 50.153ZM49.2492 55.0705L48.6934 54.5827C47.7545 55.6526 46.7039 56.1427 45.5149 56.1427L45.5149 56.8821L45.5149 57.6216C47.1852 57.6216 48.6241 56.9038 49.805 55.5582L49.2492 55.0705ZM45.5149 55.8839L45.5149 56.6233C46.4761 56.6233 47.3273 56.2922 48.0318 55.6413C48.7197 55.0057 49.2354 54.0965 49.6163 52.9799L48.9165 52.7411L48.2166 52.5024C47.8828 53.4809 47.4741 54.143 47.0282 54.555C46.5988 54.9518 46.1066 55.1444 45.5149 55.1444L45.5149 55.8839ZM48.9165 52.7411L49.6138 52.9873C50.3962 50.7702 50.7651 47.4878 50.7651 43.2021L50.0257 43.2021L49.2862 43.2021C49.2862 47.4448 48.9156 50.5218 48.2192 52.495L48.9165 52.7411ZM50.0257 43.2021L50.7651 43.2021C50.7651 38.9172 50.3964 35.6454 49.6128 33.4513L48.9165 33.7L48.2201 33.9487C48.9154 35.8956 49.2862 38.9585 49.2862 43.2021L50.0257 43.2021ZM48.9165 33.7L49.6163 33.4612C49.2354 32.3446 48.7197 31.4354 48.0318 30.7998C47.3273 30.149 46.4761 29.8178 45.5149 29.8178L45.5149 30.5573L45.5149 31.2967C46.1066 31.2967 46.5988 31.4894 47.0282 31.8861C47.4741 32.2981 47.8828 32.9602 48.2166 33.9388L48.9165 33.7ZM45.5149 30.5573L45.5149 29.8178C44.5539 29.8178 43.7012 30.1488 42.9918 30.7971C42.2986 31.4307 41.773 32.3379 41.3791 33.4539L42.0764 33.7L42.7737 33.9461C43.1193 32.9669 43.5366 32.3028 43.9895 31.8888C44.4263 31.4896 44.9231 31.2967 45.5149 31.2967L45.5149 30.5573ZM42.0764 33.7L41.3775 33.4587C40.6211 35.6495 40.2647 38.9182 40.2647 43.2021L41.0042 43.2021L41.7437 43.2021C41.7437 38.9575 42.1021 35.8915 42.7754 33.9413L42.0764 33.7ZM41.0042 43.2021L40.2647 43.2021C40.2647 47.4868 40.6213 50.7661 41.3766 52.9799L42.0764 52.7411L42.7763 52.5024C42.1019 50.5259 41.7437 47.4458 41.7437 43.2021L41.0042 43.2021ZM42.0764 52.7411L41.3791 52.9873C41.773 54.1032 42.2986 55.0104 42.9918 55.644C43.7012 56.2924 44.5539 56.6233 45.5149 56.6233L45.5149 55.8839L45.5149 55.1444C44.9231 55.1444 44.4263 54.9516 43.9895 54.5524C43.5366 54.1384 43.1193 53.4742 42.7737 52.495L42.0764 52.7411Z" fill="black" mask="url(#path-3-outside-1_1747_4132)"/>
<mask id="path-5-outside-2_1747_4132" maskUnits="userSpaceOnUse" x="57.9485" y="57.2014" width="15" height="16" fill="black">
<rect fill="white" x="57.9485" y="57.2014" width="15" height="16"/>
<path d="M58.7951 72.2014C58.5991 72.2014 58.5011 72.1295 58.5011 71.9858C58.5011 71.842 58.5861 71.7636 58.7559 71.7506L59.5203 71.6722C59.7947 71.646 59.9777 71.5807 60.0691 71.4762C60.1737 71.3716 60.2259 71.1822 60.2259 70.9078L60.2259 59.2654C60.2259 59.0432 60.1606 58.8995 60.0299 58.8342C59.9123 58.7558 59.7555 58.7296 59.5595 58.7558L58.8539 58.8342C58.6187 58.8472 58.5011 58.7623 58.5011 58.5794C58.5011 58.4356 58.6057 58.3442 58.8147 58.305C59.5073 58.1874 60.0169 58.0763 60.3435 57.9718C60.6702 57.8542 60.9119 57.7954 61.0687 57.7954C61.3431 57.7954 61.4803 57.9391 61.4803 58.2266L61.4803 70.9078C61.4803 71.1822 61.5261 71.3716 61.6175 71.4762C61.7221 71.5807 61.9115 71.646 62.1859 71.6722L62.8327 71.7506C63.0026 71.7636 63.0875 71.842 63.0875 71.9858C63.0875 72.1295 62.9895 72.2014 62.7935 72.2014L58.7951 72.2014ZM67.792 72.3778C67.0341 72.3778 66.3677 72.0576 65.7928 71.4174C65.2178 70.7771 64.7736 69.9082 64.46 68.8106C64.1464 67.713 63.9896 66.4847 63.9896 65.1258C63.9896 63.7668 64.1464 62.5451 64.46 61.4606C64.7736 60.363 65.2178 59.494 65.7928 58.8538C66.3677 58.2135 67.0341 57.8934 67.792 57.8934C68.5498 57.8934 69.2097 58.2135 69.7716 58.8538C70.3465 59.494 70.7908 60.363 71.1044 61.4606C71.431 62.5451 71.5944 63.7668 71.5944 65.1258C71.5944 66.4847 71.431 67.713 71.1044 68.8106C70.7908 69.9082 70.3465 70.7771 69.7716 71.4174C69.2097 72.0576 68.5498 72.3778 67.792 72.3778ZM67.792 71.8486C68.6152 71.8486 69.2162 71.2932 69.5952 70.1826C69.9872 69.0719 70.1832 67.3863 70.1832 65.1258C70.1832 62.8652 69.9872 61.1862 69.5952 60.0886C69.2162 58.9779 68.6152 58.4226 67.792 58.4226C66.9688 58.4226 66.3612 58.9779 65.9692 60.0886C65.5902 61.1862 65.4008 62.8652 65.4008 65.1258C65.4008 67.3863 65.5902 69.0719 65.9692 70.1826C66.3612 71.2932 66.9688 71.8486 67.792 71.8486Z"/>
</mask>
<path d="M58.7951 72.2014C58.5991 72.2014 58.5011 72.1295 58.5011 71.9858C58.5011 71.842 58.5861 71.7636 58.7559 71.7506L59.5203 71.6722C59.7947 71.646 59.9777 71.5807 60.0691 71.4762C60.1737 71.3716 60.2259 71.1822 60.2259 70.9078L60.2259 59.2654C60.2259 59.0432 60.1606 58.8995 60.0299 58.8342C59.9123 58.7558 59.7555 58.7296 59.5595 58.7558L58.8539 58.8342C58.6187 58.8472 58.5011 58.7623 58.5011 58.5794C58.5011 58.4356 58.6057 58.3442 58.8147 58.305C59.5073 58.1874 60.0169 58.0763 60.3435 57.9718C60.6702 57.8542 60.9119 57.7954 61.0687 57.7954C61.3431 57.7954 61.4803 57.9391 61.4803 58.2266L61.4803 70.9078C61.4803 71.1822 61.5261 71.3716 61.6175 71.4762C61.7221 71.5807 61.9115 71.646 62.1859 71.6722L62.8327 71.7506C63.0026 71.7636 63.0875 71.842 63.0875 71.9858C63.0875 72.1295 62.9895 72.2014 62.7935 72.2014L58.7951 72.2014ZM67.792 72.3778C67.0341 72.3778 66.3677 72.0576 65.7928 71.4174C65.2178 70.7771 64.7736 69.9082 64.46 68.8106C64.1464 67.713 63.9896 66.4847 63.9896 65.1258C63.9896 63.7668 64.1464 62.5451 64.46 61.4606C64.7736 60.363 65.2178 59.494 65.7928 58.8538C66.3677 58.2135 67.0341 57.8934 67.792 57.8934C68.5498 57.8934 69.2097 58.2135 69.7716 58.8538C70.3465 59.494 70.7908 60.363 71.1044 61.4606C71.431 62.5451 71.5944 63.7668 71.5944 65.1258C71.5944 66.4847 71.431 67.713 71.1044 68.8106C70.7908 69.9082 70.3465 70.7771 69.7716 71.4174C69.2097 72.0576 68.5498 72.3778 67.792 72.3778ZM67.792 71.8486C68.6152 71.8486 69.2162 71.2932 69.5952 70.1826C69.9872 69.0719 70.1832 67.3863 70.1832 65.1258C70.1832 62.8652 69.9872 61.1862 69.5952 60.0886C69.2162 58.9779 68.6152 58.4226 67.792 58.4226C66.9688 58.4226 66.3612 58.9779 65.9692 60.0886C65.5902 61.1862 65.4008 62.8652 65.4008 65.1258C65.4008 67.3863 65.5902 69.0719 65.9692 70.1826C66.3612 71.2932 66.9688 71.8486 67.792 71.8486Z" fill="black"/>
<path d="M58.7559 71.7506L58.7885 72.1738L58.7992 72.1727L58.7559 71.7506ZM59.5203 71.6722L59.4801 71.2497L59.477 71.25L59.5203 71.6722ZM60.0691 71.4762L59.769 71.1761L59.759 71.1861L59.7497 71.1967L60.0691 71.4762ZM60.0299 58.8342L59.7945 59.1873L59.8165 59.2019L59.8401 59.2137L60.0299 58.8342ZM59.5595 58.7558L59.6064 59.1777L59.6156 59.1764L59.5595 58.7558ZM58.8539 58.8342L58.8775 59.2579L58.8891 59.2572L58.9008 59.256L58.8539 58.8342ZM58.8147 58.305L58.7437 57.8865L58.7365 57.8878L58.8147 58.305ZM60.3435 57.9718L60.4729 58.376L60.4801 58.3736L60.4873 58.3711L60.3435 57.9718ZM61.6175 71.4762L61.2981 71.7556L61.3074 71.7663L61.3174 71.7762L61.6175 71.4762ZM62.1859 71.6722L62.237 71.2507L62.2262 71.2497L62.1859 71.6722ZM62.8327 71.7506L62.7817 72.1719L62.7909 72.173L62.8002 72.1737L62.8327 71.7506ZM58.7951 72.2014L58.7951 71.777C58.7707 71.777 58.763 71.7746 58.7673 71.7756C58.7718 71.7767 58.7955 71.7832 58.8256 71.8052C58.8581 71.8291 58.8872 71.8634 58.9058 71.9045C58.9234 71.9432 58.9255 71.9738 58.9255 71.9858L58.5011 71.9858H58.0767C58.0767 72.1648 58.1449 72.3586 58.3236 72.4897C58.4779 72.6028 58.6578 72.6257 58.7951 72.6257L58.7951 72.2014ZM58.5011 71.9858L58.9255 71.9858C58.9255 71.9911 58.9248 72.0122 58.9134 72.0418C58.9014 72.0733 58.8809 72.105 58.8527 72.131C58.7986 72.181 58.7553 72.1763 58.7885 72.1737L58.7559 71.7506L58.7234 71.3274C58.5867 71.3379 58.416 71.3789 58.277 71.5073C58.1271 71.6457 58.0767 71.8264 58.0767 71.9858H58.5011ZM58.7559 71.7506L58.7992 72.1727L59.5636 72.0943L59.5203 71.6722L59.477 71.25L58.7126 71.3284L58.7559 71.7506ZM59.5203 71.6722L59.5606 72.0946C59.8511 72.067 60.1821 71.9915 60.3885 71.7556L60.0691 71.4762L59.7497 71.1967C59.7669 71.1771 59.7696 71.1864 59.7206 71.2039C59.6728 71.221 59.5956 71.2387 59.4801 71.2497L59.5203 71.6722ZM60.0691 71.4762L60.3692 71.7762C60.5987 71.5467 60.6503 71.208 60.6503 70.9078H60.2259H59.8015C59.8015 71.0207 59.7905 71.0961 59.7776 71.1428C59.7648 71.1893 59.755 71.1901 59.769 71.1761L60.0691 71.4762ZM60.2259 70.9078H60.6503L60.6503 59.2654L60.2259 59.2654L59.8015 59.2654L59.8015 70.9078H60.2259ZM60.2259 59.2654L60.6503 59.2654C60.6503 58.9754 60.5617 58.6256 60.2197 58.4546L60.0299 58.8342L59.8401 59.2137C59.8288 59.2081 59.8166 59.1993 59.8061 59.1881C59.7958 59.1772 59.7914 59.1685 59.7906 59.1666C59.7899 59.1652 59.7929 59.1712 59.7959 59.1881C59.7989 59.205 59.8015 59.2302 59.8015 59.2654L60.2259 59.2654ZM60.0299 58.8342L60.2653 58.481C60.0331 58.3262 59.761 58.3007 59.5034 58.3351L59.5595 58.7558L59.6156 59.1764C59.7501 59.1585 59.7915 59.1853 59.7945 59.1873L60.0299 58.8342ZM59.5595 58.7558L59.5127 58.334L58.8071 58.4124L58.8539 58.8342L58.9008 59.256L59.6064 59.1776L59.5595 58.7558ZM58.8539 58.8342L58.8304 58.4104C58.7974 58.4122 58.7838 58.4096 58.7843 58.4097C58.7854 58.41 58.808 58.4147 58.8378 58.4362C58.8703 58.4597 58.8963 58.4924 58.9118 58.5276C58.9258 58.5596 58.9255 58.5806 58.9255 58.5794L58.5011 58.5794L58.0767 58.5794C58.0767 58.7675 58.143 58.9814 58.3408 59.1243C58.5145 59.2497 58.719 59.2667 58.8775 59.2579L58.8539 58.8342ZM58.5011 58.5794L58.9255 58.5794C58.9255 58.5958 58.9223 58.6228 58.9085 58.6537C58.8946 58.685 58.8755 58.7079 58.859 58.7223C58.8438 58.7356 58.8348 58.7384 58.8407 58.7359C58.8467 58.7334 58.8629 58.7277 58.8929 58.7221L58.8147 58.305L58.7365 57.8878C58.5938 57.9146 58.4321 57.968 58.3001 58.0836C58.1521 58.213 58.0767 58.39 58.0767 58.5794L58.5011 58.5794ZM58.8147 58.305L58.8858 58.7234C59.5821 58.6051 60.1162 58.4901 60.4729 58.376L60.3435 57.9718L60.2142 57.5676C59.9175 57.6625 59.4324 57.7696 58.7437 57.8865L58.8147 58.305ZM60.3435 57.9718L60.4873 58.3711C60.8101 58.2548 60.9916 58.2197 61.0687 58.2197L61.0687 57.7954L61.0687 57.371C60.8323 57.371 60.5303 57.4535 60.1998 57.5724L60.3435 57.9718ZM61.0687 57.7954L61.0687 58.2197C61.0847 58.2197 61.0956 58.2208 61.1024 58.2218C61.1091 58.2228 61.1108 58.2237 61.1089 58.223C61.1068 58.2222 61.1012 58.22 61.0937 58.2153C61.086 58.2105 61.078 58.2041 61.0704 58.1962C61.0629 58.1883 61.0576 58.1807 61.0542 58.1747C61.0508 58.1688 61.0499 58.1656 61.0502 58.1666C61.0505 58.1676 61.052 58.1727 61.0534 58.1828C61.0548 58.193 61.0559 58.2073 61.0559 58.2266L61.4803 58.2266L61.9047 58.2266C61.9047 58.0222 61.8563 57.7902 61.6844 57.6101C61.509 57.4264 61.2765 57.371 61.0687 57.371L61.0687 57.7954ZM61.4803 58.2266L61.0559 58.2266L61.0559 70.9078H61.4803H61.9047L61.9047 58.2266L61.4803 58.2266ZM61.4803 70.9078H61.0559C61.0559 71.199 61.0983 71.5272 61.2981 71.7556L61.6175 71.4762L61.9369 71.1967C61.9508 71.2125 61.9401 71.2095 61.9272 71.1561C61.9146 71.1042 61.9047 71.0239 61.9047 70.9078H61.4803ZM61.6175 71.4762L61.3174 71.7762C61.5307 71.9895 61.8474 72.0662 62.1457 72.0946L62.1859 71.6722L62.2262 71.2497C62.1109 71.2387 62.03 71.2208 61.9764 71.2023C61.922 71.1836 61.9111 71.1696 61.9176 71.1761L61.6175 71.4762ZM62.1859 71.6722L62.1349 72.0935L62.7817 72.1719L62.8327 71.7506L62.8838 71.3292L62.237 71.2508L62.1859 71.6722ZM62.8327 71.7506L62.8002 72.1737C62.8334 72.1763 62.7901 72.181 62.736 72.131C62.7077 72.105 62.6872 72.0733 62.6752 72.0418C62.6639 72.0122 62.6631 71.9911 62.6631 71.9858H63.0875L63.5119 71.9858C63.5119 71.8264 63.4616 71.6457 63.3117 71.5073C63.1726 71.3789 63.0019 71.3379 62.8653 71.3274L62.8327 71.7506ZM63.0875 71.9858H62.6631C62.6631 71.9738 62.6652 71.9432 62.6828 71.9045C62.7015 71.8634 62.7305 71.8291 62.763 71.8052C62.7931 71.7832 62.8168 71.7767 62.8214 71.7756C62.8256 71.7746 62.818 71.777 62.7935 71.777L62.7935 72.2014L62.7935 72.6257C62.9309 72.6257 63.1107 72.6028 63.265 72.4897C63.4438 72.3586 63.5119 72.1648 63.5119 71.9858L63.0875 71.9858ZM62.7935 72.2014L62.7935 71.777L58.7951 71.777L58.7951 72.2014L58.7951 72.6257L62.7935 72.6257L62.7935 72.2014ZM65.7928 71.4174L66.1085 71.1338L65.7928 71.4174ZM64.46 68.8106L64.868 68.694L64.46 68.8106ZM64.46 61.4606L64.8677 61.5784L64.868 61.5771L64.46 61.4606ZM65.7928 58.8538L65.477 58.5702L65.477 58.5702L65.7928 58.8538ZM69.7716 58.8538L69.4526 59.1337L69.4558 59.1373L69.7716 58.8538ZM71.1044 61.4606L70.6963 61.5772L70.698 61.583L71.1044 61.4606ZM71.1044 68.8106L70.6976 68.6895L70.6963 68.694L71.1044 68.8106ZM69.7716 71.4174L69.4558 71.1338L69.4526 71.1374L69.7716 71.4174ZM69.5952 70.1826L69.195 70.0413L69.1935 70.0455L69.5952 70.1826ZM69.5952 60.0886L69.1935 60.2256L69.1955 60.2313L69.5952 60.0886ZM65.9692 60.0886L65.569 59.9473L65.568 59.9501L65.9692 60.0886ZM65.9692 70.1826L65.5675 70.3196L65.569 70.3238L65.9692 70.1826ZM67.792 72.3778L67.792 71.9534C67.1716 71.9534 66.6151 71.6979 66.1085 71.1338L65.7928 71.4174L65.477 71.7009C66.1204 72.4174 66.8967 72.8021 67.792 72.8021V72.3778ZM65.7928 71.4174L66.1085 71.1338C65.5883 70.5545 65.1695 69.749 64.868 68.694L64.46 68.8106L64.0519 68.9271C64.3777 70.0673 64.8474 70.9997 65.477 71.7009L65.7928 71.4174ZM64.46 68.8106L64.868 68.694C64.5671 67.6407 64.414 66.4525 64.414 65.1258L63.9896 65.1258H63.5652C63.5652 66.5169 63.7257 67.7852 64.0519 68.9271L64.46 68.8106ZM63.9896 65.1258L64.414 65.1258C64.414 63.7989 64.5671 62.6178 64.8677 61.5784L64.46 61.4606L64.0523 61.3427C63.7256 62.4724 63.5652 63.7348 63.5652 65.1258H63.9896ZM64.46 61.4606L64.868 61.5771C65.1695 60.5221 65.5883 59.7166 66.1085 59.1373L65.7928 58.8538L65.477 58.5702C64.8474 59.2714 64.3777 60.2038 64.0519 61.344L64.46 61.4606ZM65.7928 58.8538L66.1085 59.1373C66.6151 58.5732 67.1716 58.3177 67.792 58.3177V57.8934L67.792 57.469C66.8967 57.469 66.1204 57.8537 65.477 58.5702L65.7928 58.8538ZM67.792 57.8934V58.3177C68.4117 58.3177 68.9602 58.5725 69.4526 59.1337L69.7716 58.8538L70.0906 58.5738C69.4593 57.8544 68.6879 57.469 67.792 57.469L67.792 57.8934ZM69.7716 58.8538L69.4558 59.1373C69.976 59.7166 70.3949 60.5221 70.6963 61.5771L71.1044 61.4606L71.5124 61.344C71.1867 60.2038 70.717 59.2714 70.0873 58.5702L69.7716 58.8538ZM71.1044 61.4606L70.698 61.583C71.0106 62.6208 71.17 63.8003 71.17 65.1258L71.5944 65.1258H72.0188C72.0188 63.7334 71.8515 62.4694 71.5107 61.3382L71.1044 61.4606ZM71.5944 65.1258L71.17 65.1258C71.17 66.4511 71.0106 67.6377 70.6976 68.6895L71.1044 68.8106L71.5111 68.9316C71.8514 67.7882 72.0188 66.5183 72.0188 65.1258H71.5944ZM71.1044 68.8106L70.6963 68.694C70.3949 69.749 69.976 70.5545 69.4558 71.1338L69.7716 71.4174L70.0873 71.7009C70.717 70.9997 71.1867 70.0673 71.5124 68.9271L71.1044 68.8106ZM69.7716 71.4174L69.4526 71.1374C68.9602 71.6986 68.4117 71.9534 67.792 71.9534L67.792 72.3778V72.8021C68.6879 72.8021 69.4593 72.4167 70.0906 71.6973L69.7716 71.4174ZM67.792 71.8486L67.792 72.2729C68.3096 72.2729 68.7687 72.0944 69.1482 71.7438C69.5181 71.4019 69.7939 70.9145 69.9968 70.3196L69.5952 70.1826L69.1935 70.0455C69.0176 70.5612 68.8033 70.9068 68.5722 71.1203C68.3506 71.3251 68.0975 71.4242 67.792 71.4242V71.8486ZM69.5952 70.1826L69.9954 70.3238C70.4121 69.1432 70.6076 67.3986 70.6076 65.1258L70.1832 65.1258H69.7588C69.7588 67.374 69.5623 69.0006 69.195 70.0413L69.5952 70.1826ZM70.1832 65.1258L70.6076 65.1258C70.6076 62.8534 70.4122 61.1143 69.9948 59.9458L69.5952 60.0886L69.1955 60.2313C69.5622 61.258 69.7588 62.8771 69.7588 65.1258H70.1832ZM69.5952 60.0886L69.9968 59.9515C69.7939 59.3566 69.5181 58.8692 69.1482 58.5273C68.7687 58.1767 68.3096 57.9982 67.792 57.9982V58.4226L67.792 58.8469C68.0975 58.8469 68.3506 58.946 68.5722 59.1508C68.8033 59.3643 69.0176 59.7099 69.1935 60.2256L69.5952 60.0886ZM67.792 58.4226V57.9982C67.2744 57.9982 66.8146 58.1766 66.4326 58.5258C66.0598 58.8665 65.7788 59.3527 65.569 59.9473L65.9692 60.0886L66.3694 60.2298C66.5515 59.7137 66.7703 59.367 67.0052 59.1523C67.2308 58.9461 67.4863 58.8469 67.792 58.8469L67.792 58.4226ZM65.9692 60.0886L65.568 59.9501C65.1652 61.1167 64.9764 62.8539 64.9764 65.1258H65.4008L65.8252 65.1258C65.8252 62.8765 66.0152 61.2556 66.3703 60.227L65.9692 60.0886ZM65.4008 65.1258H64.9764C64.9764 67.3981 65.1654 69.1408 65.5675 70.3196L65.9692 70.1826L66.3708 70.0455C66.0151 69.0029 65.8252 67.3745 65.8252 65.1258L65.4008 65.1258ZM65.9692 70.1826L65.569 70.3238C65.7788 70.9184 66.0598 71.4046 66.4326 71.7453C66.8146 72.0945 67.2744 72.2729 67.792 72.2729L67.792 71.8486V71.4242C67.4863 71.4242 67.2308 71.325 67.0052 71.1188C66.7703 70.9041 66.5515 70.5574 66.3694 70.0413L65.9692 70.1826Z" fill="black" mask="url(#path-5-outside-2_1747_4132)"/>
<defs>
<linearGradient id="paint0_linear_1747_4132" x1="19.9741" y1="97.5" x2="99.7153" y2="57.4405" gradientUnits="userSpaceOnUse">
<stop offset="0.0748646" stop-color="#FFD600"/>
<stop offset="0.808728" stop-color="#FFF59A"/>
</linearGradient>
</defs>
</svg>
