<svg width="95" height="95" viewBox="0 0 95 95" fill="none" xmlns="http://www.w3.org/2000/svg">
<mask id="path-1-inside-1_1747_4042" fill="white">
<path d="M47.5 0C52.0784 0.000663365 54.5484 7.02022 55.8848 16.207C61.6356 8.91885 67.2856 4.07506 71.251 6.36426C75.2145 8.65443 73.8435 15.9676 70.4082 24.5908C79.0315 21.1552 86.3457 19.7861 88.6357 23.75C90.9237 27.7152 86.0798 33.3637 78.793 39.1143C87.9801 40.4506 94.9997 42.9214 95 47.5C94.9998 52.0788 87.9795 54.5485 78.792 55.8848C86.0805 61.6358 90.9248 67.2856 88.6357 71.251C86.3458 75.215 79.0319 73.8448 70.4082 70.4092C73.8438 79.0327 75.2143 86.346 71.25 88.6357C67.2847 90.9244 61.6355 86.0807 55.8848 78.793C54.5484 87.9799 52.0785 94.9996 47.5 95C42.9215 94.9998 40.4506 87.9806 39.1143 78.7939C33.364 86.0806 27.7161 90.9241 23.751 88.6367C19.7858 86.3472 21.1555 79.0327 24.5918 70.4082C15.9677 73.8441 8.65352 75.2148 6.36328 71.251C4.07438 67.2857 8.91798 61.6356 16.2061 55.8848C7.01944 54.5484 0.000231051 52.0785 0 47.5C0.000220904 42.9218 7.01836 40.4507 16.2041 39.1143C8.91787 33.3642 4.07547 27.7159 6.36328 23.751C8.65275 19.7859 15.9674 21.1549 24.5918 24.5908C21.1559 15.9668 19.7854 8.65294 23.75 6.36328C27.7151 4.07501 33.3639 8.91806 39.1143 16.2051C40.4506 7.01886 42.9216 0.000208174 47.5 0Z"/>
</mask>
<path d="M47.5 0C52.0784 0.000663365 54.5484 7.02022 55.8848 16.207C61.6356 8.91885 67.2856 4.07506 71.251 6.36426C75.2145 8.65443 73.8435 15.9676 70.4082 24.5908C79.0315 21.1552 86.3457 19.7861 88.6357 23.75C90.9237 27.7152 86.0798 33.3637 78.793 39.1143C87.9801 40.4506 94.9997 42.9214 95 47.5C94.9998 52.0788 87.9795 54.5485 78.792 55.8848C86.0805 61.6358 90.9248 67.2856 88.6357 71.251C86.3458 75.215 79.0319 73.8448 70.4082 70.4092C73.8438 79.0327 75.2143 86.346 71.25 88.6357C67.2847 90.9244 61.6355 86.0807 55.8848 78.793C54.5484 87.9799 52.0785 94.9996 47.5 95C42.9215 94.9998 40.4506 87.9806 39.1143 78.7939C33.364 86.0806 27.7161 90.9241 23.751 88.6367C19.7858 86.3472 21.1555 79.0327 24.5918 70.4082C15.9677 73.8441 8.65352 75.2148 6.36328 71.251C4.07438 67.2857 8.91798 61.6356 16.2061 55.8848C7.01944 54.5484 0.000231051 52.0785 0 47.5C0.000220904 42.9218 7.01836 40.4507 16.2041 39.1143C8.91787 33.3642 4.07547 27.7159 6.36328 23.751C8.65275 19.7859 15.9674 21.1549 24.5918 24.5908C21.1559 15.9668 19.7854 8.65294 23.75 6.36328C27.7151 4.07501 33.3639 8.91806 39.1143 16.2051C40.4506 7.01886 42.9216 0.000208174 47.5 0Z" fill="url(#paint0_linear_1747_4042)"/>
<path d="M47.5 0L47.5003 -2H47.4999L47.5 0ZM55.8848 16.207L53.9056 16.4949L54.5749 21.0958L57.4548 17.4459L55.8848 16.207ZM71.251 6.36426L72.2516 4.63256L72.2509 4.63217L71.251 6.36426ZM70.4082 24.5908L68.5502 23.8506L66.8297 28.1694L71.1484 26.4488L70.4082 24.5908ZM88.6357 23.75L90.368 22.7504L90.3675 22.7495L88.6357 23.75ZM78.793 39.1143L77.554 37.5443L73.9046 40.4243L78.5051 41.0934L78.793 39.1143ZM95 47.5L97 47.5001V47.4999L95 47.5ZM78.792 55.8848L78.5041 53.9056L73.9031 54.5748L77.5531 57.4548L78.792 55.8848ZM88.6357 71.251L90.3676 72.2514L90.3679 72.2508L88.6357 71.251ZM70.4082 70.4092L71.1484 68.5512L66.8296 66.8306L68.5502 71.1494L70.4082 70.4092ZM71.25 88.6357L72.2498 90.3679L72.2503 90.3676L71.25 88.6357ZM55.8848 78.793L57.4548 77.554L54.5748 73.9043L53.9056 78.5051L55.8848 78.793ZM47.5 95L47.4999 97H47.5002L47.5 95ZM39.1143 78.7939L41.0934 78.506L40.4242 73.9055L37.5442 77.555L39.1143 78.7939ZM23.751 88.6367L22.7509 90.3687L22.7516 90.3691L23.751 88.6367ZM24.5918 70.4082L26.4498 71.1485L28.1706 66.8295L23.8516 68.5502L24.5918 70.4082ZM6.36328 71.251L4.63114 72.2508L4.63155 72.2515L6.36328 71.251ZM16.2061 55.8848L17.445 57.4548L21.0948 54.5749L16.494 53.9056L16.2061 55.8848ZM0 47.5L-2 47.4999V47.5001L0 47.5ZM16.2041 39.1143L16.492 41.0934L21.0924 40.4241L17.4431 37.5443L16.2041 39.1143ZM6.36328 23.751L4.63127 22.7509L4.63098 22.7514L6.36328 23.751ZM24.5918 24.5908L23.8516 26.4488L28.1705 28.1694L26.4498 23.8506L24.5918 24.5908ZM23.75 6.36328L22.7503 4.63105L22.7498 4.63136L23.75 6.36328ZM39.1143 16.2051L37.5442 17.444L40.4242 21.0935L41.0934 16.493L39.1143 16.2051ZM47.5 0L47.4997 2C48.5655 2.00015 49.8233 2.78173 51.0962 5.50549C52.3275 8.14008 53.2459 11.9597 53.9056 16.4949L55.8848 16.207L57.8639 15.9191C57.1873 11.2676 56.2025 6.98398 54.72 3.81193C53.2793 0.729045 51.0129 -1.99949 47.5003 -2L47.5 0ZM55.8848 16.207L57.4548 17.4459C60.2938 13.848 62.9992 10.9994 65.3831 9.3335C67.8476 7.61125 69.3279 7.5634 70.251 8.09635L71.251 6.36426L72.2509 4.63217C69.2087 2.87592 65.8814 4.10536 63.0918 6.05475C60.2216 8.06052 57.2266 11.2778 54.3147 14.9681L55.8848 16.207ZM71.251 6.36426L70.2504 8.09596C71.173 8.62905 71.8712 9.93482 71.6116 12.9299C71.3605 15.827 70.2461 19.5936 68.5502 23.8506L70.4082 24.5908L72.2662 25.331C74.0056 20.9648 75.2943 16.7633 75.5967 13.2754C75.8905 9.88554 75.2925 6.38964 72.2516 4.63256L71.251 6.36426ZM70.4082 24.5908L71.1484 26.4488C75.4053 24.7528 79.1722 23.6388 82.0693 23.3881C85.0646 23.129 86.3708 23.8276 86.904 24.7505L88.6357 23.75L90.3675 22.7495C88.6107 19.7085 85.1147 19.1097 81.7245 19.403C78.2363 19.7048 74.0343 20.9932 69.668 22.7329L70.4082 24.5908ZM88.6357 23.75L86.9034 24.7496C87.4361 25.6726 87.388 27.1526 85.6656 29.6169C83.9997 32.0004 81.1513 34.7054 77.554 37.5443L78.793 39.1143L80.032 40.6843C83.7215 37.7726 86.9385 34.7781 88.9442 31.9084C90.8935 29.1194 92.1234 25.7926 90.368 22.7504L88.6357 23.75ZM78.793 39.1143L78.5051 41.0934C83.0404 41.7531 86.8601 42.6717 89.4947 43.9031C92.2184 45.1762 92.9999 46.4342 93 47.5001L95 47.5L97 47.4999C96.9998 43.9872 94.2714 41.7204 91.1884 40.2794C88.0163 38.7967 83.7326 37.8117 79.0808 37.1351L78.793 39.1143ZM95 47.5L93 47.4999C92.9999 48.5657 92.2185 49.8235 89.4945 51.0964C86.8597 52.3276 83.0398 53.2459 78.5041 53.9056L78.792 55.8848L79.0799 57.8639C83.7317 57.1873 88.0157 56.2026 91.188 54.7203C94.271 53.2795 96.9998 51.0131 97 47.5001L95 47.5ZM78.792 55.8848L77.5531 57.4548C81.1512 60.2939 84 62.9994 85.6661 65.3832C87.3886 67.8477 87.4365 69.328 86.9036 70.2511L88.6357 71.251L90.3679 72.2508C92.124 69.2086 90.8943 65.8812 88.9447 63.0918C86.9388 60.2216 83.7213 57.2266 80.0309 54.3147L78.792 55.8848ZM88.6357 71.251L86.9039 70.2506C86.3708 71.1734 85.065 71.8718 82.0697 71.6124C79.1725 71.3615 75.4057 70.2473 71.1484 68.5512L70.4082 70.4092L69.668 72.2672C74.0345 74.0068 78.2364 75.2954 81.7246 75.5975C85.1147 75.8911 88.6107 75.2926 90.3676 72.2514L88.6357 71.251ZM70.4082 70.4092L68.5502 71.1494C70.2463 75.4066 71.3606 79.1732 71.6115 82.0702C71.8709 85.0652 71.1725 86.3709 70.2497 86.9039L71.25 88.6357L72.2503 90.3676C75.2918 88.6109 75.8902 85.115 75.5966 81.725C75.2944 78.237 74.0057 74.0353 72.2662 69.669L70.4082 70.4092ZM71.25 88.6357L70.2502 86.9036C69.3271 87.4364 67.8469 87.3884 65.3826 85.6662C62.9989 84.0003 60.2937 81.1517 57.4548 77.554L55.8848 78.793L54.3147 80.0319C57.2265 83.7219 60.2213 86.9391 63.0912 88.9448C65.8805 90.8942 69.2076 92.1238 72.2498 90.3679L71.25 88.6357ZM55.8848 78.793L53.9056 78.5051C53.2459 83.0404 52.3275 86.8601 51.0963 89.4947C49.8234 92.2184 48.5656 92.9999 47.4998 93L47.5 95L47.5002 97C51.0129 96.9997 53.2794 94.2711 54.7201 91.1882C56.2025 88.0161 57.1873 83.7325 57.8639 79.0809L55.8848 78.793ZM47.5 95L47.5001 93C46.4342 93 45.1762 92.2185 43.9031 89.495C42.6717 86.8606 41.7531 83.0412 41.0934 78.506L39.1143 78.7939L37.1351 79.0818C37.8117 83.7334 38.7968 88.0169 40.2795 91.1888C41.7205 94.2717 43.9873 96.9998 47.4999 97L47.5 95ZM39.1143 78.7939L37.5442 77.555C34.7055 81.1522 32.0007 84.0005 29.6174 85.6663C27.1534 87.3886 25.6734 87.4368 24.7504 86.9043L23.751 88.6367L22.7516 90.3691C25.7937 92.124 29.1202 90.8941 31.909 88.9448C34.7784 86.9391 37.7727 83.7224 40.6843 80.0329L39.1143 78.7939ZM23.751 88.6367L24.751 86.9047C23.8279 86.3717 23.1292 85.0658 23.3884 82.0705C23.6391 79.1732 24.7534 75.406 26.4498 71.1485L24.5918 70.4082L22.7338 69.6679C20.9939 74.0348 19.7052 78.2372 19.4033 81.7256C19.1099 85.1161 19.7089 88.6123 22.7509 90.3687L23.751 88.6367ZM24.5918 70.4082L23.8516 68.5502C19.5941 70.2464 15.8271 71.3609 12.9297 71.6119C9.93418 71.8715 8.62815 71.1732 8.09501 70.2504L6.36328 71.251L4.63155 72.2515C6.38865 75.2926 9.88486 75.8908 13.275 75.597C16.7633 75.2947 20.9654 74.0059 25.332 72.2662L24.5918 70.4082ZM6.36328 71.251L8.09542 70.2511C7.56253 69.3279 7.61044 67.8476 9.33268 65.3831C10.9985 62.9992 13.8471 60.2938 17.445 57.4548L16.2061 55.8848L14.9671 54.3147C11.2769 57.2266 8.05966 60.2216 6.05392 63.0918C4.10457 65.8814 2.87512 69.2087 4.63114 72.2508L6.36328 71.251ZM16.2061 55.8848L16.494 53.9056C11.9588 53.2459 8.13935 52.3276 5.50494 51.0963C2.78142 49.8234 2.00005 48.5657 2 47.4999L0 47.5L-2 47.5001C-1.99982 51.0128 0.728529 53.2793 3.81132 54.7201C6.98323 56.2025 11.2667 57.1873 15.9182 57.8639L16.2061 55.8848ZM0 47.5L2 47.5001C2.00005 46.4342 2.78147 45.1763 5.50452 43.9032C8.13851 42.6718 11.9574 41.7532 16.492 41.0934L16.2041 39.1143L15.9162 37.1351C11.265 37.8118 6.98201 38.7969 3.81044 40.2797C0.727934 41.7208 -1.99983 43.9876 -2 47.4999L0 47.5ZM16.2041 39.1143L17.4431 37.5443C13.8461 34.7057 10.9983 32.0009 9.3328 29.6176C7.61098 27.1537 7.56296 25.6736 8.09558 24.7505L6.36328 23.751L4.63098 22.7514C2.8758 25.7932 4.10507 29.1198 6.05405 31.9088C8.05937 34.7784 11.2758 37.7728 14.9651 40.6843L16.2041 39.1143ZM6.36328 23.751L8.09529 24.751C8.62836 23.8278 9.93434 23.1291 12.9297 23.3881C15.8269 23.6386 19.5941 24.7526 23.8516 26.4488L24.5918 24.5908L25.332 22.7328C20.9651 20.9931 16.7628 19.7046 13.2743 19.403C9.88377 19.1098 6.38767 19.709 4.63127 22.7509L6.36328 23.751ZM24.5918 24.5908L26.4498 23.8506C24.7536 19.5932 23.6392 15.8262 23.3882 12.9291C23.1288 9.9339 23.8273 8.62821 24.7502 8.0952L23.75 6.36328L22.7498 4.63136C19.7081 6.38801 19.1095 9.8841 19.4032 13.2743C19.7053 16.7625 20.9941 20.9645 22.7338 25.3311L24.5918 24.5908ZM23.75 6.36328L24.7497 8.09551C25.6728 7.5628 27.1529 7.61076 29.617 9.3328C32.0005 10.9985 34.7055 13.8467 37.5442 17.444L39.1143 16.2051L40.6843 14.9661C37.7727 11.2764 34.7781 8.05963 31.9083 6.05409C29.1192 4.10492 25.7923 2.8755 22.7503 4.63105L23.75 6.36328ZM39.1143 16.2051L41.0934 16.493C41.7531 11.9581 42.6717 8.13896 43.9032 5.50477C45.1763 2.7815 46.4342 2.00005 47.5001 2L47.5 0L47.4999 -2C43.9874 -1.99984 41.7207 0.728141 40.2796 3.8108C38.7968 6.98254 37.8118 11.2658 37.1351 15.9172L39.1143 16.2051Z" fill="black" mask="url(#path-1-inside-1_1747_4042)"/>
<line x1="33.5977" y1="70.3376" x2="64.3618" y2="29.6875" stroke="black" stroke-width="1.63039" stroke-linecap="round"/>
<mask id="path-4-outside-2_1747_4042" maskUnits="userSpaceOnUse" x="28" y="22" width="17" height="35" fill="black">
<rect fill="white" x="28" y="22" width="17" height="35"/>
<path d="M34.4846 55.3896C32.9838 55.3896 31.7716 55.1154 30.848 54.5671C29.9533 54.0187 29.506 53.2972 29.506 52.4025C29.506 51.9118 29.6503 51.5366 29.9389 51.2769C30.2275 50.9882 30.6027 50.8439 31.0645 50.8439C31.6129 50.8439 31.9736 51.0171 32.1468 51.3634C32.32 51.7098 32.4499 52.0994 32.5364 52.5323C32.623 52.9653 32.8106 53.3549 33.0992 53.7012C33.4167 54.0476 33.9651 54.2207 34.7444 54.2207C36.3895 54.2207 37.7171 53.4559 38.7273 51.9262C39.7663 50.3677 40.2858 48.333 40.2858 45.822C40.2858 40.2517 38.6984 37.4666 35.5236 37.4666C34.3692 37.4666 33.3879 37.7408 32.5797 38.2891C32.118 38.6355 31.7716 38.6788 31.5407 38.419C31.3676 38.1304 31.483 37.7841 31.8871 37.38L35.0041 34.4361C36.274 33.2528 37.1976 32.1705 37.7748 31.1892C38.3521 30.2079 38.6407 29.2266 38.6407 28.2453C38.6407 27.1774 38.3953 26.3549 37.9047 25.7776C37.4429 25.1716 36.7935 24.8685 35.9565 24.8685C34.8598 24.8685 33.9362 25.2726 33.1858 26.0807C32.4354 26.8888 31.9448 28 31.7139 29.4142C31.6562 29.8471 31.4397 30.0636 31.0645 30.0636C30.6604 30.0636 30.4873 29.8038 30.545 29.2843C30.747 27.4949 31.4108 26.0663 32.5364 24.9984C33.6909 23.9305 35.1051 23.3966 36.7791 23.3966C38.2222 23.3966 39.3766 23.8006 40.2425 24.6088C41.1372 25.388 41.5846 26.4415 41.5846 27.7691C41.5846 30.0492 39.723 32.4735 35.9998 35.0422L35.0041 35.7349C34.8887 35.8215 34.8454 35.9225 34.8742 36.0379C34.932 36.1245 35.033 36.1534 35.1773 36.1245C35.6679 35.9802 36.1586 35.9081 36.6492 35.9081C37.9769 35.9081 39.1457 36.2833 40.1559 37.0337C41.1661 37.7841 41.9598 38.8375 42.537 40.194C43.1142 41.5216 43.4028 43.0513 43.4028 44.783C43.4028 46.1684 43.1575 47.496 42.6669 48.7659C42.1762 50.0358 41.5124 51.1758 40.6754 52.186C39.8384 53.1673 38.886 53.9466 37.8181 54.5238C36.7502 55.101 35.6391 55.3896 34.4846 55.3896Z"/>
</mask>
<path d="M34.4846 55.3896C32.9838 55.3896 31.7716 55.1154 30.848 54.5671C29.9533 54.0187 29.506 53.2972 29.506 52.4025C29.506 51.9118 29.6503 51.5366 29.9389 51.2769C30.2275 50.9882 30.6027 50.8439 31.0645 50.8439C31.6129 50.8439 31.9736 51.0171 32.1468 51.3634C32.32 51.7098 32.4499 52.0994 32.5364 52.5323C32.623 52.9653 32.8106 53.3549 33.0992 53.7012C33.4167 54.0476 33.9651 54.2207 34.7444 54.2207C36.3895 54.2207 37.7171 53.4559 38.7273 51.9262C39.7663 50.3677 40.2858 48.333 40.2858 45.822C40.2858 40.2517 38.6984 37.4666 35.5236 37.4666C34.3692 37.4666 33.3879 37.7408 32.5797 38.2891C32.118 38.6355 31.7716 38.6788 31.5407 38.419C31.3676 38.1304 31.483 37.7841 31.8871 37.38L35.0041 34.4361C36.274 33.2528 37.1976 32.1705 37.7748 31.1892C38.3521 30.2079 38.6407 29.2266 38.6407 28.2453C38.6407 27.1774 38.3953 26.3549 37.9047 25.7776C37.4429 25.1716 36.7935 24.8685 35.9565 24.8685C34.8598 24.8685 33.9362 25.2726 33.1858 26.0807C32.4354 26.8888 31.9448 28 31.7139 29.4142C31.6562 29.8471 31.4397 30.0636 31.0645 30.0636C30.6604 30.0636 30.4873 29.8038 30.545 29.2843C30.747 27.4949 31.4108 26.0663 32.5364 24.9984C33.6909 23.9305 35.1051 23.3966 36.7791 23.3966C38.2222 23.3966 39.3766 23.8006 40.2425 24.6088C41.1372 25.388 41.5846 26.4415 41.5846 27.7691C41.5846 30.0492 39.723 32.4735 35.9998 35.0422L35.0041 35.7349C34.8887 35.8215 34.8454 35.9225 34.8742 36.0379C34.932 36.1245 35.033 36.1534 35.1773 36.1245C35.6679 35.9802 36.1586 35.9081 36.6492 35.9081C37.9769 35.9081 39.1457 36.2833 40.1559 37.0337C41.1661 37.7841 41.9598 38.8375 42.537 40.194C43.1142 41.5216 43.4028 43.0513 43.4028 44.783C43.4028 46.1684 43.1575 47.496 42.6669 48.7659C42.1762 50.0358 41.5124 51.1758 40.6754 52.186C39.8384 53.1673 38.886 53.9466 37.8181 54.5238C36.7502 55.101 35.6391 55.3896 34.4846 55.3896Z" fill="black"/>
<path d="M30.848 54.5671L30.3955 55.3054L30.406 55.3116L30.848 54.5671ZM29.9389 51.2769L30.5181 51.9204L30.535 51.9052L30.5511 51.8891L29.9389 51.2769ZM32.1468 51.3634L31.3724 51.7507L32.1468 51.3634ZM33.0992 53.7012L32.4341 54.2555L32.4472 54.2712L32.461 54.2863L33.0992 53.7012ZM38.7273 51.9262L38.0068 51.446L38.0047 51.4491L38.7273 51.9262ZM32.5797 38.2891L32.0936 37.5727L32.0766 37.5842L32.0602 37.5965L32.5797 38.2891ZM31.5407 38.419L30.7983 38.8645L30.8399 38.9338L30.8936 38.9943L31.5407 38.419ZM31.8871 37.38L31.2925 36.7505L31.2836 36.759L31.2748 36.7678L31.8871 37.38ZM35.0041 34.4361L34.4138 33.8026L34.4096 33.8066L35.0041 34.4361ZM37.7748 31.1892L38.5211 31.6282L37.7748 31.1892ZM37.9047 25.7776L37.216 26.3024L37.23 26.3208L37.245 26.3384L37.9047 25.7776ZM33.1858 26.0807L32.5513 25.4915V25.4915L33.1858 26.0807ZM31.7139 29.4142L30.8594 29.2747L30.8573 29.2872L30.8556 29.2998L31.7139 29.4142ZM30.545 29.2843L29.6846 29.1872L29.6844 29.1887L30.545 29.2843ZM32.5364 24.9984L31.9485 24.3627L31.9405 24.3702L32.5364 24.9984ZM40.2425 24.6088L39.6517 25.2417L39.6626 25.2519L39.6738 25.2617L40.2425 24.6088ZM35.9998 35.0422L35.5081 34.3295L35.5054 34.3314L35.9998 35.0422ZM35.0041 35.7349L34.5097 35.0241L34.497 35.0329L34.4846 35.0422L35.0041 35.7349ZM34.8742 36.0379L34.0342 36.2479L34.0706 36.3934L34.1538 36.5182L34.8742 36.0379ZM35.1773 36.1245L35.3471 36.9736L35.3847 36.966L35.4216 36.9552L35.1773 36.1245ZM40.1559 37.0337L39.6396 37.7287L40.1559 37.0337ZM42.537 40.194L41.7402 40.533L41.7429 40.5392L42.537 40.194ZM42.6669 48.7659L41.8592 48.4538L42.6669 48.7659ZM40.6754 52.186L41.3342 52.7479L41.3421 52.7384L40.6754 52.186ZM37.8181 54.5238L37.4064 53.7621L37.8181 54.5238ZM34.4846 55.3896L34.4846 54.5238C33.0805 54.5238 32.037 54.266 31.2901 53.8226L30.848 54.5671L30.406 55.3116C31.5062 55.9649 32.8871 56.2555 34.4846 56.2555L34.4846 55.3896ZM30.848 54.5671L31.3005 53.8289C30.6104 53.4059 30.3718 52.9394 30.3718 52.4025L29.506 52.4025L28.6401 52.4025C28.6401 53.6549 29.2963 54.6315 30.3956 55.3053L30.848 54.5671ZM29.506 52.4025L30.3718 52.4025C30.3718 52.088 30.4578 51.9747 30.5181 51.9204L29.9389 51.2769L29.3597 50.6333C28.8428 51.0985 28.6401 51.7356 28.6401 52.4025L29.506 52.4025ZM29.9389 51.2769L30.5511 51.8891C30.6555 51.7847 30.7995 51.7098 31.0645 51.7098L31.0645 50.8439L31.0645 49.9781C30.406 49.9781 29.7995 50.1918 29.3267 50.6646L29.9389 51.2769ZM31.0645 50.8439L31.0645 51.7098C31.2543 51.7098 31.3432 51.7407 31.3717 51.7544C31.3836 51.7601 31.3832 51.7619 31.378 51.7567C31.3724 51.7513 31.3707 51.7474 31.3724 51.7507L32.1468 51.3634L32.9213 50.9762C32.5427 50.2191 31.7848 49.9781 31.0645 49.9781L31.0645 50.8439ZM32.1468 51.3634L31.3724 51.7507C31.5067 52.0193 31.6139 52.3343 31.6874 52.7021L32.5364 52.5323L33.3855 52.3625C33.2859 51.8645 33.1333 51.4002 32.9213 50.9762L32.1468 51.3634ZM32.5364 52.5323L31.6874 52.7021C31.8029 53.2796 32.0551 53.8008 32.4341 54.2555L33.0992 53.7012L33.7644 53.1469C33.5661 52.909 33.4431 52.6509 33.3855 52.3625L32.5364 52.5323ZM33.0992 53.7012L32.461 54.2863C33.0234 54.8998 33.8759 55.0866 34.7444 55.0866L34.7444 54.2207L34.7444 53.3549C34.0543 53.3549 33.8101 53.1953 33.7375 53.1162L33.0992 53.7012ZM34.7444 54.2207L34.7444 55.0866C36.7174 55.0866 38.3009 54.1431 39.4498 52.4034L38.7273 51.9262L38.0047 51.4491C37.1333 52.7687 36.0616 53.3549 34.7444 53.3549L34.7444 54.2207ZM38.7273 51.9262L39.4477 52.4065C40.6088 50.6648 41.1516 48.447 41.1516 45.822L40.2858 45.822L39.4199 45.822C39.4199 48.219 38.9237 50.0706 38.0068 51.446L38.7273 51.9262ZM40.2858 45.822L41.1516 45.822C41.1516 42.983 40.7521 40.7138 39.8475 39.1267C38.9016 37.4672 37.4258 36.6007 35.5236 36.6007L35.5236 37.4666L35.5236 38.3324C36.7962 38.3324 37.7015 38.8586 38.343 39.9842C39.0258 41.1822 39.4199 43.0907 39.4199 45.822L40.2858 45.822ZM35.5236 37.4666L35.5236 36.6007C34.228 36.6007 33.0697 36.9103 32.0936 37.5727L32.5797 38.2891L33.0659 39.0056C33.706 38.5712 34.5103 38.3324 35.5236 38.3324L35.5236 37.4666ZM32.5797 38.2891L32.0602 37.5965C31.9776 37.6584 31.9175 37.6936 31.879 37.7121C31.8398 37.7311 31.8373 37.7258 31.8662 37.7222C31.9001 37.718 31.964 37.718 32.0396 37.7463C32.1152 37.7747 32.1641 37.8171 32.1879 37.8438L31.5407 38.419L30.8936 38.9943C31.1994 39.3383 31.6264 39.4974 32.081 39.4405C32.4716 39.3917 32.8179 39.1929 33.0992 38.9818L32.5797 38.2891ZM31.5407 38.419L32.2832 37.9735C32.3031 38.0068 32.322 38.0557 32.3273 38.1133C32.3323 38.169 32.3223 38.2062 32.3188 38.2166C32.3162 38.2244 32.3207 38.2075 32.35 38.1651C32.3791 38.1231 32.4263 38.0653 32.4993 37.9922L31.8871 37.38L31.2748 36.7678C31.0261 37.0165 30.7936 37.3163 30.676 37.669C30.546 38.059 30.5697 38.4835 30.7983 38.8645L31.5407 38.419ZM31.8871 37.38L32.4816 38.0095L35.5986 35.0656L35.0041 34.4361L34.4096 33.8066L31.2925 36.7505L31.8871 37.38ZM35.0041 34.4361L35.5944 35.0696C36.8969 33.8558 37.8855 32.7087 38.5211 31.6282L37.7748 31.1892L37.0285 30.7502C36.5097 31.6322 35.6511 32.6498 34.4138 33.8027L35.0041 34.4361ZM37.7748 31.1892L38.5211 31.6282C39.1639 30.5354 39.5065 29.4042 39.5065 28.2453L38.6407 28.2453L37.7748 28.2453C37.7748 29.049 37.5402 29.8804 37.0285 30.7502L37.7748 31.1892ZM38.6407 28.2453L39.5065 28.2453C39.5065 27.0552 39.2336 26.0041 38.5644 25.2169L37.9047 25.7776L37.245 26.3384C37.5571 26.7056 37.7748 27.2997 37.7748 28.2453L38.6407 28.2453ZM37.9047 25.7776L38.5934 25.2529C37.9502 24.4086 37.0331 24.0027 35.9565 24.0027L35.9565 24.8685L35.9565 25.7344C36.5539 25.7344 36.9357 25.9345 37.216 26.3024L37.9047 25.7776ZM35.9565 24.8685L35.9565 24.0027C34.6175 24.0027 33.4645 24.5081 32.5513 25.4915L33.1858 26.0807L33.8203 26.6699C34.4079 26.0371 35.1021 25.7344 35.9565 25.7344L35.9565 24.8685ZM33.1858 26.0807L32.5513 25.4915C31.6548 26.4571 31.1096 27.742 30.8594 29.2747L31.7139 29.4142L32.5684 29.5537C32.78 28.258 33.2161 27.3206 33.8203 26.6699L33.1858 26.0807ZM31.7139 29.4142L30.8556 29.2998C30.8415 29.4059 30.8231 29.3619 30.896 29.289C30.9336 29.2514 30.9779 29.2248 31.0187 29.2099C31.0563 29.1961 31.0757 29.1977 31.0645 29.1977L31.0645 30.0636L31.0645 30.9294C31.4267 30.9294 31.8147 30.8193 32.1205 30.5135C32.4099 30.2241 32.5286 29.8554 32.5721 29.5286L31.7139 29.4142ZM31.0645 30.0636L31.0645 29.1977C31.0533 29.1977 31.0941 29.1956 31.1601 29.2253C31.2341 29.2586 31.3038 29.3161 31.352 29.3885C31.3956 29.4539 31.402 29.5015 31.4015 29.4984C31.4009 29.4941 31.3968 29.4583 31.4055 29.3799L30.545 29.2843L29.6844 29.1887C29.6471 29.5252 29.6571 29.9679 29.9112 30.3491C30.2049 30.7897 30.6684 30.9294 31.0645 30.9294L31.0645 30.0636ZM30.545 29.2843L31.4054 29.3815C31.5884 27.7603 32.178 26.532 33.1324 25.6265L32.5364 24.9984L31.9405 24.3702C30.6437 25.6005 29.9056 27.2295 29.6846 29.1872L30.545 29.2843ZM32.5364 24.9984L33.1244 25.634C34.1079 24.7243 35.3077 24.2624 36.7791 24.2624L36.7791 23.3966L36.7791 22.5307C34.9025 22.5307 33.2739 23.1367 31.9485 24.3628L32.5364 24.9984ZM36.7791 23.3966L36.7791 24.2624C38.0534 24.2624 38.9796 24.6145 39.6517 25.2417L40.2425 24.6088L40.8333 23.9758C39.7736 22.9868 38.391 22.5307 36.7791 22.5307L36.7791 23.3966ZM40.2425 24.6088L39.6738 25.2617C40.356 25.8558 40.7187 26.6585 40.7187 27.7691L41.5846 27.7691L42.4504 27.7691C42.4504 26.2244 41.9184 24.9202 40.8112 23.9558L40.2425 24.6088ZM41.5846 27.7691L40.7187 27.7691C40.7187 29.5785 39.21 31.7755 35.5081 34.3295L35.9998 35.0422L36.4915 35.7549C40.2359 33.1715 42.4504 30.5198 42.4504 27.7691L41.5846 27.7691ZM35.9998 35.0422L35.5054 34.3314L34.5097 35.0241L35.0041 35.7349L35.4986 36.4457L36.4943 35.753L35.9998 35.0422ZM35.0041 35.7349L34.4846 35.0422C34.3425 35.1488 34.1865 35.3076 34.0892 35.5345C33.9867 35.7736 33.9779 36.0228 34.0342 36.2479L34.8742 36.0379L35.7142 35.8279C35.7417 35.9377 35.7401 36.0785 35.6809 36.2167C35.6269 36.3426 35.5503 36.4076 35.5236 36.4276L35.0041 35.7349ZM34.8742 36.0379L34.1538 36.5182C34.4866 37.0174 35.0276 37.0375 35.3471 36.9736L35.1773 36.1245L35.0075 35.2755C35.0195 35.2731 35.1067 35.2564 35.2312 35.292C35.3761 35.3334 35.5084 35.4282 35.5947 35.5577L34.8742 36.0379ZM35.1773 36.1245L35.4216 36.9552C35.8363 36.8332 36.2447 36.7739 36.6492 36.7739L36.6492 35.9081L36.6492 35.0422C36.0724 35.0422 35.4996 35.1272 34.933 35.2939L35.1773 36.1245ZM36.6492 35.9081L36.6492 36.7739C37.8018 36.7739 38.7873 37.0956 39.6396 37.7287L40.1559 37.0337L40.6722 36.3386C39.5042 35.471 38.1519 35.0422 36.6492 35.0422L36.6492 35.9081ZM40.1559 37.0337L39.6396 37.7287C40.5066 38.3728 41.2128 39.2935 41.7403 40.533L42.537 40.194L43.3337 39.855C42.7067 38.3815 41.8255 37.1954 40.6722 36.3386L40.1559 37.0337ZM42.537 40.194L41.7429 40.5392C42.2645 41.7388 42.537 43.1472 42.537 44.783L43.4028 44.783L44.2687 44.783C44.2687 42.9554 43.964 41.3045 43.331 39.8488L42.537 40.194ZM43.4028 44.783L42.537 44.783C42.537 46.0636 42.3107 47.2853 41.8592 48.4538L42.6669 48.7659L43.4745 49.0779C44.0043 47.7067 44.2687 46.2731 44.2687 44.783L43.4028 44.783ZM42.6669 48.7659L41.8592 48.4538C41.401 49.6399 40.7838 50.6981 40.0087 51.6336L40.6754 52.186L41.3421 52.7384C42.241 51.6536 42.9515 50.4317 43.4745 49.0779L42.6669 48.7659ZM40.6754 52.186L40.0166 51.6241C39.2446 52.5293 38.3745 53.2388 37.4064 53.7621L37.8181 54.5238L38.2298 55.2855C39.3974 54.6543 40.4323 53.8053 41.3342 52.7479L40.6754 52.186ZM37.8181 54.5238L37.4064 53.7621C36.4582 54.2746 35.4878 54.5238 34.4846 54.5238L34.4846 55.3896L34.4846 56.2555C35.7903 56.2555 37.0422 55.9274 38.2298 55.2855L37.8181 54.5238Z" fill="black" mask="url(#path-4-outside-2_1747_4042)"/>
<mask id="path-6-outside-3_1747_4042" maskUnits="userSpaceOnUse" x="51.4905" y="51.3155" width="15" height="16" fill="black">
<rect fill="white" x="51.4905" y="51.3155" width="15" height="16"/>
<path d="M52.9337 66.3155C52.7377 66.3155 52.6396 66.2436 52.6396 66.0999C52.6396 65.9561 52.7246 65.8777 52.8945 65.8646L53.659 65.7862C53.9334 65.7601 54.1163 65.6948 54.2078 65.5902C54.3124 65.4857 54.3646 65.2962 54.3646 65.0217L54.3646 53.378C54.3646 53.1558 54.2993 53.0121 54.1686 52.9467C54.051 52.8683 53.8942 52.8422 53.6982 52.8683L52.9925 52.9467C52.7573 52.9598 52.6396 52.8749 52.6396 52.6919C52.6396 52.5482 52.7442 52.4567 52.9533 52.4175C53.6459 52.2999 54.1555 52.1888 54.4823 52.0842C54.809 51.9666 55.0507 51.9078 55.2075 51.9078C55.482 51.9078 55.6192 52.0516 55.6192 52.3391L55.6192 65.0217C55.6192 65.2962 55.6649 65.4857 55.7564 65.5902C55.8609 65.6948 56.0504 65.7601 56.3249 65.7862L56.9717 65.8646C57.1416 65.8777 57.2266 65.9561 57.2266 66.0999C57.2266 66.2436 57.1286 66.3155 56.9325 66.3155L52.9337 66.3155ZM61.9316 66.4919C61.1736 66.4919 60.5071 66.1717 59.9321 65.5314C59.3571 64.8911 58.9128 64.022 58.5992 62.9243C58.2856 61.8266 58.1287 60.5982 58.1287 59.2391C58.1287 57.88 58.2856 56.6581 58.5992 55.5735C58.9128 54.4757 59.3571 53.6067 59.9321 52.9663C60.5071 52.326 61.1736 52.0058 61.9316 52.0058C62.6895 52.0058 63.3495 52.326 63.9114 52.9663C64.4864 53.6067 64.9307 54.4757 65.2444 55.5735C65.5711 56.6581 65.7344 57.88 65.7344 59.2391C65.7344 60.5982 65.5711 61.8266 65.2444 62.9243C64.9307 64.022 64.4864 64.8911 63.9114 65.5314C63.3495 66.1717 62.6895 66.4919 61.9316 66.4919ZM61.9316 65.9626C62.7549 65.9626 63.356 65.4073 63.735 64.2965C64.127 63.1857 64.323 61.4999 64.323 59.2391C64.323 56.9783 64.127 55.299 63.735 54.2013C63.356 53.0905 62.7549 52.5351 61.9316 52.5351C61.1083 52.5351 60.5006 53.0905 60.1086 54.2013C59.7296 55.299 59.5401 56.9783 59.5401 59.2391C59.5401 61.4999 59.7296 63.1857 60.1086 64.2965C60.5006 65.4073 61.1083 65.9626 61.9316 65.9626Z"/>
</mask>
<path d="M52.9337 66.3155C52.7377 66.3155 52.6396 66.2436 52.6396 66.0999C52.6396 65.9561 52.7246 65.8777 52.8945 65.8646L53.659 65.7862C53.9334 65.7601 54.1163 65.6948 54.2078 65.5902C54.3124 65.4857 54.3646 65.2962 54.3646 65.0217L54.3646 53.378C54.3646 53.1558 54.2993 53.0121 54.1686 52.9467C54.051 52.8683 53.8942 52.8422 53.6982 52.8683L52.9925 52.9467C52.7573 52.9598 52.6396 52.8749 52.6396 52.6919C52.6396 52.5482 52.7442 52.4567 52.9533 52.4175C53.6459 52.2999 54.1555 52.1888 54.4823 52.0842C54.809 51.9666 55.0507 51.9078 55.2075 51.9078C55.482 51.9078 55.6192 52.0516 55.6192 52.3391L55.6192 65.0217C55.6192 65.2962 55.6649 65.4857 55.7564 65.5902C55.8609 65.6948 56.0504 65.7601 56.3249 65.7862L56.9717 65.8646C57.1416 65.8777 57.2266 65.9561 57.2266 66.0999C57.2266 66.2436 57.1286 66.3155 56.9325 66.3155L52.9337 66.3155ZM61.9316 66.4919C61.1736 66.4919 60.5071 66.1717 59.9321 65.5314C59.3571 64.8911 58.9128 64.022 58.5992 62.9243C58.2856 61.8266 58.1287 60.5982 58.1287 59.2391C58.1287 57.88 58.2856 56.6581 58.5992 55.5735C58.9128 54.4757 59.3571 53.6067 59.9321 52.9663C60.5071 52.326 61.1736 52.0058 61.9316 52.0058C62.6895 52.0058 63.3495 52.326 63.9114 52.9663C64.4864 53.6067 64.9307 54.4757 65.2444 55.5735C65.5711 56.6581 65.7344 57.88 65.7344 59.2391C65.7344 60.5982 65.5711 61.8266 65.2444 62.9243C64.9307 64.022 64.4864 64.8911 63.9114 65.5314C63.3495 66.1717 62.6895 66.4919 61.9316 66.4919ZM61.9316 65.9626C62.7549 65.9626 63.356 65.4073 63.735 64.2965C64.127 63.1857 64.323 61.4999 64.323 59.2391C64.323 56.9783 64.127 55.299 63.735 54.2013C63.356 53.0905 62.7549 52.5351 61.9316 52.5351C61.1083 52.5351 60.5006 53.0905 60.1086 54.2013C59.7296 55.299 59.5401 56.9783 59.5401 59.2391C59.5401 61.4999 59.7296 63.1857 60.1086 64.2965C60.5006 65.4073 61.1083 65.9626 61.9316 65.9626Z" fill="black"/>
<path d="M52.8945 65.8646L52.9297 66.3221L52.9413 66.3209L52.8945 65.8646ZM53.659 65.7862L53.6155 65.3296L53.6122 65.33L53.659 65.7862ZM54.2078 65.5902L53.8835 65.2659L53.8727 65.2767L53.8627 65.2882L54.2078 65.5902ZM54.1686 52.9467L53.9142 53.3284L53.938 53.3442L53.9635 53.357L54.1686 52.9467ZM53.6982 52.8683L53.7488 53.3243L53.7588 53.323L53.6982 52.8683ZM52.9925 52.9467L53.0179 53.4047L53.0306 53.404L53.0431 53.4026L52.9925 52.9467ZM52.9533 52.4175L52.8765 51.9653L52.8688 51.9667L52.9533 52.4175ZM54.4823 52.0842L54.622 52.5211L54.6299 52.5186L54.6376 52.5158L54.4823 52.0842ZM55.7564 65.5902L55.4112 65.8922L55.4213 65.9037L55.4321 65.9145L55.7564 65.5902ZM56.3249 65.7862L56.3801 65.3308L56.3683 65.3297L56.3249 65.7862ZM56.9717 65.8646L56.9166 66.3199L56.9265 66.3212L56.9366 66.3219L56.9717 65.8646ZM52.9337 66.3155L52.9337 65.8569C52.8782 65.8569 52.9196 65.8443 52.9844 65.8917C53.0215 65.919 53.0544 65.9579 53.0755 66.0044C53.0955 66.0484 53.0983 66.0841 53.0983 66.0999H52.6396H52.181C52.181 66.2876 52.2527 66.4926 52.4419 66.6314C52.6047 66.7508 52.7931 66.7741 52.9337 66.7741L52.9337 66.3155ZM52.6396 66.0999H53.0983C53.0983 66.1086 53.097 66.1339 53.084 66.1681C53.0701 66.2044 53.0466 66.2405 53.0144 66.2703C52.9525 66.3274 52.9006 66.3242 52.9296 66.3219L52.8945 65.8646L52.8593 65.4074C52.7184 65.4182 52.5391 65.4607 52.3923 65.5962C52.2337 65.7426 52.181 65.9334 52.181 66.0999H52.6396ZM52.8945 65.8646L52.9413 66.3209L53.7058 66.2425L53.659 65.7862L53.6122 65.33L52.8477 65.4084L52.8945 65.8646ZM53.659 65.7862L53.7024 66.2428C53.9943 66.215 54.3373 66.1388 54.553 65.8922L54.2078 65.5902L53.8627 65.2882C53.8849 65.2628 53.8934 65.2694 53.8477 65.2857C53.8035 65.3015 53.7293 65.3188 53.6155 65.3297L53.659 65.7862ZM54.2078 65.5902L54.5321 65.9145C54.7717 65.6749 54.8233 65.3241 54.8233 65.0217L54.3646 65.0217H53.906C53.906 65.1327 53.8951 65.2049 53.8833 65.2477C53.8716 65.2903 53.8642 65.2853 53.8835 65.2659L54.2078 65.5902ZM54.3646 65.0217L54.8233 65.0217L54.8233 53.378L54.3646 53.378L53.906 53.378L53.906 65.0217H54.3646ZM54.3646 53.378L54.8233 53.378C54.8233 53.0825 54.7328 52.7161 54.3737 52.5365L54.1686 52.9467L53.9635 53.357C53.9486 53.3495 53.9331 53.3384 53.9198 53.3241C53.9068 53.3103 53.9004 53.2983 53.8981 53.2934C53.8961 53.289 53.8983 53.2922 53.9009 53.3067C53.9035 53.3213 53.906 53.3444 53.906 53.378L54.3646 53.378ZM54.1686 52.9467L54.423 52.5651C54.1816 52.4042 53.9001 52.3787 53.6375 52.4137L53.6982 52.8683L53.7588 53.323C53.8221 53.3145 53.8634 53.3167 53.8874 53.3207C53.899 53.3227 53.9061 53.3249 53.9098 53.3263C53.9116 53.327 53.9128 53.3276 53.9134 53.3279C53.9137 53.3281 53.9139 53.3282 53.914 53.3282C53.9141 53.3283 53.9142 53.3284 53.9142 53.3284L54.1686 52.9467ZM53.6982 52.8683L53.6475 52.4125L52.9418 52.4909L52.9925 52.9467L53.0431 53.4026L53.7488 53.3242L53.6982 52.8683ZM52.9925 52.9467L52.967 52.4888C52.9361 52.4905 52.9256 52.4879 52.9297 52.4888C52.9344 52.4897 52.9619 52.4961 52.9964 52.521C53.0338 52.5481 53.0638 52.5857 53.0816 52.6264C53.098 52.6636 53.0983 52.6896 53.0983 52.6919L52.6396 52.6919L52.181 52.6919C52.181 52.8879 52.2502 53.1136 52.4593 53.2646C52.6423 53.3968 52.8562 53.4137 53.0179 53.4047L52.9925 52.9467ZM52.6396 52.6919L53.0983 52.6919C53.0983 52.7126 53.0942 52.7444 53.0784 52.7802C53.0623 52.8163 53.04 52.8432 53.0201 52.8607C52.9861 52.8903 52.9745 52.8801 53.0378 52.8683L52.9533 52.4175L52.8688 51.9667C52.723 51.994 52.5545 52.0492 52.416 52.1703C52.2603 52.3066 52.181 52.493 52.181 52.6919L52.6396 52.6919ZM52.9533 52.4175L53.0301 52.8697C53.7268 52.7513 54.2629 52.636 54.622 52.5211L54.4823 52.0842L54.3425 51.6474C54.0482 51.7416 53.565 51.8484 52.8765 51.9653L52.9533 52.4175ZM54.4823 52.0842L54.6376 52.5158C54.9601 52.3997 55.1368 52.3665 55.2075 52.3665L55.2075 51.9078L55.2075 51.4492C54.9646 51.4492 54.6578 51.5336 54.3269 51.6527L54.4823 52.0842ZM55.2075 51.9078L55.2075 52.3665C55.2374 52.3665 55.2443 52.3705 55.2364 52.3678C55.2321 52.3663 55.2242 52.363 55.2143 52.3568C55.2043 52.3505 55.194 52.3423 55.1845 52.3323C55.1644 52.3112 55.1575 52.2928 55.1564 52.2895C55.156 52.2881 55.1605 52.3023 55.1605 52.3391L55.6192 52.3391L56.0778 52.3391C56.0778 52.1298 56.0282 51.8877 55.848 51.699C55.664 51.5062 55.421 51.4492 55.2075 51.4492L55.2075 51.9078ZM55.6192 52.3391L55.1605 52.3391L55.1605 65.0217L55.6192 65.0217H56.0778L56.0778 52.3391L55.6192 52.3391ZM55.6192 65.0217L55.1605 65.0217C55.1605 65.3144 55.2026 65.6538 55.4112 65.8922L55.7564 65.5902L56.1016 65.2882C56.1202 65.3095 56.1114 65.3122 56.0993 65.2621C56.0876 65.2136 56.0778 65.1362 56.0778 65.0217H55.6192ZM55.7564 65.5902L55.4321 65.9145C55.6542 66.1366 55.9811 66.2142 56.2814 66.2428L56.3249 65.7862L56.3683 65.3297C56.2548 65.3188 56.1768 65.3014 56.1264 65.284C56.0753 65.2664 56.0695 65.2547 56.0807 65.2659L55.7564 65.5902ZM56.3249 65.7862L56.2697 66.2415L56.9166 66.3199L56.9717 65.8646L57.0269 65.4093L56.3801 65.3309L56.3249 65.7862ZM56.9717 65.8646L56.9366 66.3219C56.9656 66.3242 56.9137 66.3274 56.8518 66.2703C56.8196 66.2405 56.7961 66.2044 56.7823 66.1681C56.7692 66.1339 56.7679 66.1086 56.7679 66.0999L57.2266 66.0999H57.6852C57.6852 65.9334 57.6325 65.7426 57.4739 65.5962C57.3271 65.4607 57.1478 65.4182 57.0069 65.4074L56.9717 65.8646ZM57.2266 66.0999L56.7679 66.0999C56.7679 66.0841 56.7707 66.0484 56.7907 66.0044C56.8118 65.9579 56.8447 65.919 56.8818 65.8917C56.9466 65.8443 56.988 65.8569 56.9325 65.8569L56.9325 66.3155L56.9325 66.7741C57.0731 66.7741 57.2615 66.7508 57.4243 66.6314C57.6136 66.4926 57.6852 66.2876 57.6852 66.0999H57.2266ZM56.9325 66.3155L56.9325 65.8569L52.9337 65.8569L52.9337 66.3155L52.9337 66.7741L56.9325 66.7741L56.9325 66.3155ZM59.9321 65.5314L60.2734 65.225L59.9321 65.5314ZM58.5992 62.9243L59.0402 62.7983L58.5992 62.9243ZM58.5992 55.5735L59.0398 55.7009L59.0402 55.6994L58.5992 55.5735ZM59.9321 52.9663L59.5909 52.6599V52.6599L59.9321 52.9663ZM63.9114 52.9663L63.5667 53.2689L63.5702 53.2728L63.9114 52.9663ZM65.2444 55.5735L64.8033 55.6995L64.8052 55.7057L65.2444 55.5735ZM65.2444 62.9243L64.8047 62.7935L64.8034 62.7983L65.2444 62.9243ZM63.9114 65.5314L63.5701 65.225L63.5667 65.2289L63.9114 65.5314ZM63.735 64.2965L63.3025 64.1438L63.3009 64.1484L63.735 64.2965ZM63.735 54.2013L63.3009 54.3494L63.3031 54.3555L63.735 54.2013ZM60.1086 54.2013L59.6761 54.0486L59.675 54.0516L60.1086 54.2013ZM60.1086 64.2965L59.6745 64.4446L59.6761 64.4491L60.1086 64.2965ZM61.9316 66.4919L61.9316 66.0333C61.3222 66.0333 60.7745 65.783 60.2734 65.225L59.9321 65.5314L59.5909 65.8378C60.2398 66.5605 61.0251 66.9505 61.9316 66.9505L61.9316 66.4919ZM59.9321 65.5314L60.2734 65.225C59.7575 64.6505 59.3407 63.85 59.0402 62.7983L58.5992 62.9243L58.1582 63.0503C58.485 64.1941 58.9568 65.1316 59.5909 65.8378L59.9321 65.5314ZM58.5992 62.9243L59.0402 62.7983C58.7402 61.7485 58.5874 60.5634 58.5874 59.2391H58.1287L57.6701 59.2391C57.6701 60.6329 57.8309 61.9047 58.1582 63.0503L58.5992 62.9243ZM58.1287 59.2391H58.5874C58.5874 57.9146 58.7403 56.7367 59.0398 55.7008L58.5992 55.5735L58.1586 55.4461C57.8308 56.5795 57.6701 57.8453 57.6701 59.2391L58.1287 59.2391ZM58.5992 55.5735L59.0402 55.6994C59.3407 54.6478 59.7575 53.8473 60.2734 53.2728L59.9321 52.9663L59.5909 52.6599C58.9568 53.3661 58.485 54.3037 58.1582 55.4475L58.5992 55.5735ZM59.9321 52.9663L60.2734 53.2728C60.7745 52.7148 61.3222 52.4645 61.9316 52.4645L61.9316 52.0058L61.9316 51.5472C61.0251 51.5472 60.2398 51.9372 59.5909 52.6599L59.9321 52.9663ZM61.9316 52.0058L61.9316 52.4645C62.5403 52.4645 63.0798 52.714 63.5667 53.2689L63.9114 52.9663L64.2561 52.6638C63.6192 51.938 62.8388 51.5472 61.9316 51.5472L61.9316 52.0058ZM63.9114 52.9663L63.5702 53.2728C64.086 53.8473 64.5029 54.6478 64.8034 55.6994L65.2444 55.5735L65.6853 55.4475C65.3586 54.3037 64.8868 53.3661 64.2527 52.6599L63.9114 52.9663ZM65.2444 55.5735L64.8052 55.7057C65.1167 56.7399 65.2758 57.9161 65.2758 59.2391H65.7344L66.1931 59.2391C66.1931 57.8438 66.0254 56.5763 65.6835 55.4412L65.2444 55.5735ZM65.7344 59.2391H65.2758C65.2758 60.5619 65.1167 61.7453 64.8048 62.7935L65.2444 62.9243L65.6839 63.0551C66.0254 61.9079 66.1931 60.6345 66.1931 59.2391L65.7344 59.2391ZM65.2444 62.9243L64.8034 62.7983C64.5029 63.85 64.086 64.6505 63.5702 65.225L63.9114 65.5314L64.2527 65.8378C64.8868 65.1316 65.3586 64.1941 65.6853 63.0503L65.2444 62.9243ZM63.9114 65.5314L63.5667 65.2289C63.0798 65.7837 62.5403 66.0333 61.9316 66.0333L61.9316 66.4919L61.9316 66.9505C62.8388 66.9505 63.6192 66.5598 64.2561 65.8339L63.9114 65.5314ZM61.9316 65.9627L61.9316 66.4213C62.4578 66.4213 62.9253 66.2395 63.3111 65.883C63.6867 65.5359 63.965 65.0428 64.1691 64.4446L63.735 64.2965L63.3009 64.1484C63.126 64.6609 62.9142 65.0009 62.6887 65.2092C62.4734 65.4081 62.2286 65.504 61.9316 65.504V65.9627ZM63.735 64.2965L64.1675 64.4491C64.5862 63.2627 64.7817 61.5132 64.7817 59.2391L64.323 59.2391L63.8644 59.2391C63.8644 61.4865 63.6679 63.1086 63.3025 64.1438L63.735 64.2965ZM64.323 59.2391L64.7817 59.2391C64.7817 56.9655 64.5863 55.2214 64.1669 54.047L63.735 54.2013L63.3031 54.3555C63.6677 55.3766 63.8644 56.9911 63.8644 59.2391L64.323 59.2391ZM63.735 54.2013L64.1691 54.0532C63.965 53.455 63.6867 52.9618 63.3111 52.6148C62.9253 52.2583 62.4578 52.0765 61.9316 52.0765L61.9316 52.5351L61.9316 52.9937C62.2286 52.9937 62.4734 53.0896 62.6887 53.2885C62.9142 53.4969 63.126 53.8368 63.3009 54.3494L63.735 54.2013ZM61.9316 52.5351L61.9316 52.0765C61.4054 52.0765 60.9373 52.2581 60.5489 52.6131C60.1706 52.9589 59.8871 53.4508 59.6761 54.0486L60.1086 54.2013L60.5411 54.3539C60.7221 53.841 60.9384 53.4998 61.1678 53.2902C61.3871 53.0898 61.6344 52.9937 61.9316 52.9937L61.9316 52.5351ZM60.1086 54.2013L59.675 54.0516C59.2703 55.224 59.0815 56.9661 59.0815 59.2391L59.5401 59.2391H59.9987C59.9987 56.9905 60.1889 55.3741 60.5421 54.351L60.1086 54.2013ZM59.5401 59.2391L59.0815 59.2391C59.0815 61.5126 59.2704 63.2602 59.6745 64.4446L60.1086 64.2965L60.5426 64.1484C60.1888 63.1111 59.9987 61.4871 59.9987 59.2391H59.5401ZM60.1086 64.2965L59.6761 64.4491C59.8871 65.0469 60.1706 65.5388 60.5489 65.8846C60.9373 66.2396 61.4054 66.4213 61.9316 66.4213L61.9316 65.9627V65.504C61.6344 65.504 61.3871 65.408 61.1678 65.2076C60.9384 64.998 60.7221 64.6568 60.5411 64.1438L60.1086 64.2965Z" fill="black" mask="url(#path-6-outside-3_1747_4042)"/>
<defs>
<linearGradient id="paint0_linear_1747_4042" x1="107.671" y1="-6.35168e-07" x2="-16.2998" y2="32.1524" gradientUnits="userSpaceOnUse">
<stop offset="0.332359" stop-color="#B2F2FF"/>
<stop offset="1" stop-color="#8BF392"/>
</linearGradient>
</defs>
</svg>
