<svg width="100" height="100" viewBox="0 0 100 100" fill="none" xmlns="http://www.w3.org/2000/svg">
<rect x="11" y="11" width="78" height="78" rx="4" fill="url(#paint0_linear_1747_4037)"/>
<rect x="11" y="11" width="78" height="78" rx="4" stroke="black" stroke-width="2"/>
<line x1="36.8524" y1="75.0978" x2="67.6166" y2="34.4478" stroke="black" stroke-width="1.63039" stroke-linecap="round"/>
<mask id="path-3-outside-1_1747_4037" maskUnits="userSpaceOnUse" x="28.2548" y="22.7603" width="19" height="34" fill="black">
<rect fill="white" x="28.2548" y="22.7603" width="19" height="34"/>
<path d="M30.8213 55.7603C30.3018 55.7603 30.042 55.5727 30.042 55.1975C30.042 54.9954 30.143 54.7357 30.3451 54.4182L35.5401 46.4957C37.7048 43.2055 39.2633 40.377 40.2157 38.0104C41.197 35.6149 41.6877 33.4214 41.6877 31.4299C41.6877 29.6405 41.3125 28.2696 40.5621 27.3172C39.8405 26.3647 38.7871 25.8885 37.4017 25.8885C36.0164 25.8885 34.7609 26.3792 33.6353 27.3605C32.5097 28.3129 31.7881 29.8425 31.4707 31.9494C31.3841 32.4112 31.1676 32.6421 30.8213 32.6421C30.3884 32.6421 30.2008 32.3535 30.2585 31.7763C30.4605 29.8714 30.9512 28.3706 31.7304 27.2739C32.5385 26.1483 33.5054 25.3546 34.631 24.8928C35.7566 24.4021 36.8966 24.1568 38.0511 24.1568C40.0426 24.1568 41.6588 24.7629 42.8999 25.9751C44.1698 27.1584 44.8047 28.818 44.8047 30.9537C44.8047 32.4545 44.444 33.9986 43.7224 35.586C43.0297 37.1445 42.0629 38.8618 40.8218 40.7378C39.6096 42.5849 38.2098 44.7063 36.6225 47.1018L33.2457 52.2103C33.0725 52.47 33.0581 52.7009 33.2024 52.903C33.3755 53.0761 33.6064 53.1627 33.895 53.1627L38.5273 53.1627C39.6241 53.1627 40.5332 53.0473 41.2547 52.8164C41.9763 52.5566 42.5535 52.0948 42.9864 51.431C43.4194 50.7383 43.7513 49.757 43.9822 48.4871L44.3718 46.4524C44.4584 46.0772 44.6748 45.8896 45.0212 45.8896C45.4252 45.8896 45.5984 46.1349 45.5407 46.6256L45.0212 54.7645C44.9635 55.4283 44.6027 55.7603 43.9389 55.7603L30.8213 55.7603Z"/>
</mask>
<path d="M30.8213 55.7603C30.3018 55.7603 30.042 55.5727 30.042 55.1975C30.042 54.9954 30.143 54.7357 30.3451 54.4182L35.5401 46.4957C37.7048 43.2055 39.2633 40.377 40.2157 38.0104C41.197 35.6149 41.6877 33.4214 41.6877 31.4299C41.6877 29.6405 41.3125 28.2696 40.5621 27.3172C39.8405 26.3647 38.7871 25.8885 37.4017 25.8885C36.0164 25.8885 34.7609 26.3792 33.6353 27.3605C32.5097 28.3129 31.7881 29.8425 31.4707 31.9494C31.3841 32.4112 31.1676 32.6421 30.8213 32.6421C30.3884 32.6421 30.2008 32.3535 30.2585 31.7763C30.4605 29.8714 30.9512 28.3706 31.7304 27.2739C32.5385 26.1483 33.5054 25.3546 34.631 24.8928C35.7566 24.4021 36.8966 24.1568 38.0511 24.1568C40.0426 24.1568 41.6588 24.7629 42.8999 25.9751C44.1698 27.1584 44.8047 28.818 44.8047 30.9537C44.8047 32.4545 44.444 33.9986 43.7224 35.586C43.0297 37.1445 42.0629 38.8618 40.8218 40.7378C39.6096 42.5849 38.2098 44.7063 36.6225 47.1018L33.2457 52.2103C33.0725 52.47 33.0581 52.7009 33.2024 52.903C33.3755 53.0761 33.6064 53.1627 33.895 53.1627L38.5273 53.1627C39.6241 53.1627 40.5332 53.0473 41.2547 52.8164C41.9763 52.5566 42.5535 52.0948 42.9864 51.431C43.4194 50.7383 43.7513 49.757 43.9822 48.4871L44.3718 46.4524C44.4584 46.0772 44.6748 45.8896 45.0212 45.8896C45.4252 45.8896 45.5984 46.1349 45.5407 46.6256L45.0212 54.7645C44.9635 55.4283 44.6027 55.7603 43.9389 55.7603L30.8213 55.7603Z" fill="black"/>
<path d="M30.3451 54.4182L29.6209 53.9434L29.6146 53.9533L30.3451 54.4182ZM35.5401 46.4957L34.8168 46.0198L34.8161 46.0209L35.5401 46.4957ZM40.2157 38.0104L39.4145 37.6822L39.4125 37.6871L40.2157 38.0104ZM40.5621 27.3172L39.8719 27.84L39.8769 27.8466L39.882 27.853L40.5621 27.3172ZM33.6353 27.3605L34.1946 28.0215L34.2043 28.0131L33.6353 27.3605ZM31.4707 31.9494L32.3217 32.109L32.3245 32.0938L32.3268 32.0785L31.4707 31.9494ZM30.2585 31.7763L29.3974 31.685L29.3969 31.6901L30.2585 31.7763ZM31.7304 27.2739L31.0271 26.7689L31.0246 26.7724L31.7304 27.2739ZM34.631 24.8928L34.9596 25.6938L34.9684 25.6903L34.977 25.6865L34.631 24.8928ZM42.8999 25.9751L42.2949 26.5945L42.3021 26.6016L42.3096 26.6086L42.8999 25.9751ZM43.7224 35.586L42.9341 35.2277L42.9312 35.2344L43.7224 35.586ZM40.8218 40.7378L40.0997 40.2601L40.0979 40.2627L40.8218 40.7378ZM36.6225 47.1018L35.9007 46.6235L35.9002 46.6243L36.6225 47.1018ZM33.2457 52.2103L33.9661 52.6906L33.968 52.6877L33.2457 52.2103ZM33.2024 52.903L32.4978 53.4062L32.5394 53.4645L32.5901 53.5152L33.2024 52.903ZM41.2547 52.8164L41.5186 53.641L41.5334 53.6363L41.548 53.631L41.2547 52.8164ZM42.9864 51.431L43.7117 51.904L43.7162 51.897L43.7207 51.8899L42.9864 51.431ZM43.9822 48.4871L43.1317 48.3243L43.1303 48.3322L43.9822 48.4871ZM44.3718 46.4524L43.5281 46.2577L43.5245 46.2736L43.5214 46.2896L44.3718 46.4524ZM45.5407 46.6256L44.6808 46.5244L44.6781 46.5473L44.6766 46.5704L45.5407 46.6256ZM45.0212 54.7645L45.8838 54.8395L45.8846 54.8296L45.8853 54.8197L45.0212 54.7645ZM30.8213 55.7603L30.8213 54.8944C30.7407 54.8944 30.6979 54.8869 30.683 54.8833C30.6687 54.8798 30.6976 54.8843 30.7438 54.9176C30.7953 54.9548 30.8448 55.0114 30.8769 55.0808C30.9068 55.1456 30.9079 55.1919 30.9079 55.1975L30.042 55.1975L29.1762 55.1975C29.1762 55.6089 29.334 56.0356 29.7299 56.3215C30.0736 56.5697 30.4832 56.6261 30.8213 56.6261L30.8213 55.7603ZM30.042 55.1975L30.9079 55.1975C30.9079 55.2361 30.8994 55.2301 30.9248 55.1649C30.9491 55.1024 30.9951 55.0094 31.0755 54.883L30.3451 54.4182L29.6146 53.9533C29.3891 54.3077 29.1762 54.7414 29.1762 55.1975L30.042 55.1975ZM30.3451 54.4182L31.0691 54.893L36.2642 46.9705L35.5401 46.4957L34.8161 46.0209L29.621 53.9434L30.3451 54.4182ZM35.5401 46.4957L36.2635 46.9716C38.4447 43.6562 40.0368 40.7742 41.019 38.3336L40.2157 38.0104L39.4125 37.6871C38.4898 39.9798 36.9649 42.7547 34.8168 46.0198L35.5401 46.4957ZM40.2157 38.0104L41.017 38.3386C42.0287 35.8687 42.5535 33.5622 42.5535 31.4299L41.6877 31.4299L40.8218 31.4299C40.8218 33.2806 40.3653 35.3611 39.4145 37.6822L40.2157 38.0104ZM41.6877 31.4299L42.5535 31.4299C42.5535 29.5351 42.1583 27.9441 41.2422 26.7813L40.5621 27.3172L39.882 27.853C40.4666 28.5951 40.8218 29.7459 40.8218 31.4299L41.6877 31.4299ZM40.5621 27.3172L41.2522 26.7943C40.3395 25.5895 39.0091 25.0227 37.4017 25.0227L37.4017 25.8885L37.4017 26.7544C38.565 26.7544 39.3415 27.1399 39.8719 27.84L40.5621 27.3172ZM37.4017 25.8885L37.4017 25.0227C35.7902 25.0227 34.3363 25.6006 33.0663 26.7078L33.6353 27.3605L34.2043 28.0131C35.1855 27.1577 36.2425 26.7544 37.4017 26.7544L37.4017 25.8885ZM33.6353 27.3605L33.076 26.6995C31.7318 27.8368 30.9495 29.5969 30.6145 31.8204L31.4707 31.9494L32.3268 32.0785C32.6267 30.0882 33.2875 28.7889 34.1946 28.0214L33.6353 27.3605ZM31.4707 31.9494L30.6196 31.7899C30.6073 31.8557 30.5943 31.8914 30.5881 31.9054C30.5823 31.9188 30.5867 31.9034 30.6117 31.8768C30.6389 31.8477 30.6789 31.8179 30.728 31.7978C30.7754 31.7783 30.8107 31.7763 30.8213 31.7763L30.8213 32.6421L30.8213 33.508C31.2087 33.508 31.5867 33.3687 31.875 33.0611C32.1383 32.7803 32.2618 32.4284 32.3217 32.109L31.4707 31.9494ZM30.8213 32.6421L30.8213 31.7763C30.8068 31.7763 30.8448 31.7736 30.9077 31.8029C30.9784 31.8358 31.0408 31.8906 31.0819 31.9538C31.1182 32.0096 31.1201 32.0445 31.1175 32.0266C31.1147 32.0081 31.1106 31.9569 31.12 31.8624L30.2585 31.7763L29.3969 31.6901C29.3607 32.0521 29.3768 32.5081 29.6299 32.8975C29.9252 33.3518 30.3976 33.508 30.8213 33.508L30.8213 32.6421ZM30.2585 31.7763L31.1195 31.8676C31.3121 30.0515 31.7719 28.7104 32.4362 27.7754L31.7304 27.2739L31.0246 26.7724C30.1304 28.0308 29.6089 29.6913 29.3975 31.685L30.2585 31.7763ZM31.7304 27.2739L32.4338 27.7788C33.1607 26.7663 34.0043 26.0858 34.9596 25.6938L34.631 24.8928L34.3024 24.0917C33.0066 24.6234 31.9164 25.5302 31.0271 26.7689L31.7304 27.2739ZM34.631 24.8928L34.977 25.6865C36.0005 25.2404 37.0232 25.0227 38.0511 25.0227L38.0511 24.1568L38.0511 23.291C36.7701 23.291 35.5127 23.5639 34.285 24.0991L34.631 24.8928ZM38.0511 24.1568L38.0511 25.0227C39.8526 25.0227 41.2397 25.5639 42.2949 26.5945L42.8999 25.9751L43.5049 25.3557C42.0779 23.9619 40.2325 23.291 38.0511 23.291L38.0511 24.1568ZM42.8999 25.9751L42.3096 26.6086C43.3645 27.5916 43.9389 28.9988 43.9389 30.9537L44.8047 30.9537L45.6706 30.9537C45.6706 28.6372 44.975 26.7253 43.4901 25.3416L42.8999 25.9751ZM44.8047 30.9537L43.9389 30.9537C43.9389 32.3125 43.6128 33.7348 42.9342 35.2277L43.7224 35.586L44.5106 35.9443C45.2751 34.2625 45.6706 32.5966 45.6706 30.9537L44.8047 30.9537ZM43.7224 35.586L42.9312 35.2344C42.263 36.7377 41.3221 38.4123 40.0997 40.2601L40.8218 40.7378L41.544 41.2155C42.8037 39.3113 43.7964 37.5513 44.5136 35.9377L43.7224 35.586ZM40.8218 40.7378L40.0979 40.2627C38.8866 42.1085 37.4876 44.2288 35.9007 46.6235L36.6225 47.1018L37.3442 47.5801C38.9321 45.1838 40.3326 43.0613 41.5457 41.2129L40.8218 40.7378ZM36.6225 47.1018L35.9002 46.6243L32.5233 51.7328L33.2457 52.2103L33.968 52.6877L37.3448 47.5792L36.6225 47.1018ZM33.2457 52.2103L32.5252 51.73C32.3825 51.9441 32.2603 52.2124 32.2408 52.5243C32.2202 52.8533 32.3191 53.156 32.4978 53.4062L33.2024 52.903L33.9069 52.3997C33.9207 52.419 33.9396 52.4517 33.9532 52.4972C33.9671 52.5435 33.9717 52.5903 33.9691 52.6323C33.9641 52.7133 33.9356 52.7362 33.9661 52.6906L33.2457 52.2103ZM33.2024 52.903L32.5901 53.5152C32.9544 53.8795 33.4209 54.0286 33.895 54.0286L33.895 53.1627L33.895 52.2969C33.8372 52.2969 33.8126 52.2883 33.8094 52.2871C33.8077 52.2864 33.8088 52.2867 33.8113 52.2883C33.8138 52.2899 33.815 52.2911 33.8146 52.2907L33.2024 52.903ZM33.895 53.1627L33.895 54.0286L38.5273 54.0286L38.5273 53.1627L38.5273 52.2969L33.895 52.2969L33.895 53.1627ZM38.5273 53.1627L38.5273 54.0286C39.6772 54.0286 40.6829 53.9084 41.5186 53.641L41.2547 52.8164L40.9909 51.9917C40.3835 52.1861 39.5709 52.2969 38.5273 52.2969L38.5273 53.1627ZM41.2547 52.8164L41.548 53.631C42.4532 53.3052 43.1795 52.72 43.7117 51.904L42.9864 51.431L42.2612 50.958C41.9275 51.4696 41.4994 51.8081 40.9615 52.0017L41.2547 52.8164ZM42.9864 51.431L43.7207 51.8899C44.2355 51.0662 44.5936 49.9644 44.834 48.642L43.9822 48.4871L43.1303 48.3322C42.9089 49.5497 42.6032 50.4105 42.2522 50.9721L42.9864 51.431ZM43.9822 48.4871L44.8326 48.65L45.2222 46.6152L44.3718 46.4524L43.5214 46.2896L43.1318 48.3243L43.9822 48.4871ZM44.3718 46.4524L45.2155 46.6471C45.2315 46.5774 45.2371 46.6231 45.1662 46.6846C45.1314 46.7148 45.0931 46.735 45.0596 46.7462C45.0283 46.7566 45.0124 46.7554 45.0212 46.7554L45.0212 45.8896L45.0212 45.0237C44.6852 45.0237 44.329 45.1186 44.032 45.376C43.7446 45.6251 43.5986 45.9522 43.5281 46.2577L44.3718 46.4524ZM45.0212 45.8896L45.0212 46.7554C45.038 46.7554 45.0033 46.7584 44.9423 46.7325C44.8731 46.7031 44.8005 46.6491 44.7467 46.5729C44.6971 46.5025 44.6866 46.4463 44.6853 46.4378C44.6843 46.4313 44.6888 46.4562 44.6808 46.5244L45.5407 46.6256L46.4006 46.7267C46.4393 46.3974 46.4295 45.954 46.1615 45.5743C45.8598 45.1468 45.3983 45.0237 45.0212 45.0237L45.0212 45.8896ZM45.5407 46.6256L44.6766 46.5704L44.1571 54.7094L45.0212 54.7645L45.8853 54.8197L46.4048 46.6807L45.5407 46.6256ZM45.0212 54.7645L44.1586 54.6895C44.1416 54.8844 44.0927 54.9002 44.1211 54.8741C44.1499 54.8476 44.1316 54.8944 43.9389 54.8944L43.9389 55.7603L43.9389 56.6261C44.4099 56.6261 44.9039 56.507 45.2935 56.1485C45.6826 55.7905 45.843 55.3085 45.8838 54.8395L45.0212 54.7645ZM43.9389 55.7603L43.9389 54.8944L30.8213 54.8944L30.8213 55.7603L30.8213 56.6261L43.9389 56.6261L43.9389 55.7603Z" fill="black" mask="url(#path-3-outside-1_1747_4037)"/>
<mask id="path-5-outside-2_1747_4037" maskUnits="userSpaceOnUse" x="54.7452" y="56.0757" width="15" height="16" fill="black">
<rect fill="white" x="54.7452" y="56.0757" width="15" height="16"/>
<path d="M56.1884 71.0757C55.9924 71.0757 55.8944 71.0039 55.8944 70.8601C55.8944 70.7164 55.9793 70.638 56.1492 70.6249L56.9137 70.5465C57.1882 70.5203 57.3711 70.455 57.4626 70.3505C57.5671 70.2459 57.6194 70.0564 57.6194 69.782L57.6194 58.1383C57.6194 57.9161 57.5541 57.7723 57.4234 57.707C57.3058 57.6286 57.1489 57.6025 56.9529 57.6286L56.2472 57.707C56.012 57.7201 55.8944 57.6351 55.8944 57.4522C55.8944 57.3084 55.9989 57.2169 56.208 57.1777C56.9007 57.0601 57.4103 56.949 57.737 56.8445C58.0637 56.7269 58.3055 56.6681 58.4623 56.6681C58.7367 56.6681 58.8739 56.8118 58.8739 57.0993L58.8739 69.782C58.8739 70.0564 58.9197 70.2459 59.0112 70.3505C59.1157 70.455 59.3052 70.5203 59.5796 70.5465L60.2265 70.6249C60.3964 70.638 60.4813 70.7164 60.4813 70.8601C60.4813 71.0039 60.3833 71.0757 60.1873 71.0757L56.1884 71.0757ZM65.1863 71.2522C64.4284 71.2522 63.7619 70.932 63.1869 70.2917C62.6119 69.6513 62.1676 68.7823 61.8539 67.6846C61.5403 66.5868 61.3835 65.3584 61.3835 63.9993C61.3835 62.6402 61.5403 61.4184 61.8539 60.3337C62.1676 59.236 62.6119 58.3669 63.1869 57.7266C63.7619 57.0863 64.4284 56.7661 65.1863 56.7661C65.9443 56.7661 66.6042 57.0863 67.1662 57.7266C67.7412 58.3669 68.1855 59.236 68.4991 60.3337C68.8258 61.4184 68.9892 62.6402 68.9892 63.9993C68.9892 65.3584 68.8258 66.5868 68.4991 67.6846C68.1855 68.7823 67.7412 69.6513 67.1662 70.2917C66.6042 70.932 65.9443 71.2522 65.1863 71.2522ZM65.1863 70.7229C66.0096 70.7229 66.6108 70.1675 66.9897 69.0567C67.3818 67.9459 67.5778 66.2601 67.5778 63.9993C67.5778 61.7385 67.3818 60.0593 66.9897 58.9615C66.6108 57.8508 66.0096 57.2954 65.1863 57.2954C64.363 57.2954 63.7554 57.8508 63.3633 58.9615C62.9843 60.0593 62.7949 61.7385 62.7949 63.9993C62.7949 66.2601 62.9843 67.9459 63.3633 69.0567C63.7554 70.1675 64.363 70.7229 65.1863 70.7229Z"/>
</mask>
<path d="M56.1884 71.0757C55.9924 71.0757 55.8944 71.0039 55.8944 70.8601C55.8944 70.7164 55.9793 70.638 56.1492 70.6249L56.9137 70.5465C57.1882 70.5203 57.3711 70.455 57.4626 70.3505C57.5671 70.2459 57.6194 70.0564 57.6194 69.782L57.6194 58.1383C57.6194 57.9161 57.5541 57.7723 57.4234 57.707C57.3058 57.6286 57.1489 57.6025 56.9529 57.6286L56.2472 57.707C56.012 57.7201 55.8944 57.6351 55.8944 57.4522C55.8944 57.3084 55.9989 57.2169 56.208 57.1777C56.9007 57.0601 57.4103 56.949 57.737 56.8445C58.0637 56.7269 58.3055 56.6681 58.4623 56.6681C58.7367 56.6681 58.8739 56.8118 58.8739 57.0993L58.8739 69.782C58.8739 70.0564 58.9197 70.2459 59.0112 70.3505C59.1157 70.455 59.3052 70.5203 59.5796 70.5465L60.2265 70.6249C60.3964 70.638 60.4813 70.7164 60.4813 70.8601C60.4813 71.0039 60.3833 71.0757 60.1873 71.0757L56.1884 71.0757ZM65.1863 71.2522C64.4284 71.2522 63.7619 70.932 63.1869 70.2917C62.6119 69.6513 62.1676 68.7823 61.8539 67.6846C61.5403 66.5868 61.3835 65.3584 61.3835 63.9993C61.3835 62.6402 61.5403 61.4184 61.8539 60.3337C62.1676 59.236 62.6119 58.3669 63.1869 57.7266C63.7619 57.0863 64.4284 56.7661 65.1863 56.7661C65.9443 56.7661 66.6042 57.0863 67.1662 57.7266C67.7412 58.3669 68.1855 59.236 68.4991 60.3337C68.8258 61.4184 68.9892 62.6402 68.9892 63.9993C68.9892 65.3584 68.8258 66.5868 68.4991 67.6846C68.1855 68.7823 67.7412 69.6513 67.1662 70.2917C66.6042 70.932 65.9443 71.2522 65.1863 71.2522ZM65.1863 70.7229C66.0096 70.7229 66.6108 70.1675 66.9897 69.0567C67.3818 67.9459 67.5778 66.2601 67.5778 63.9993C67.5778 61.7385 67.3818 60.0593 66.9897 58.9615C66.6108 57.8508 66.0096 57.2954 65.1863 57.2954C64.363 57.2954 63.7554 57.8508 63.3633 58.9615C62.9843 60.0593 62.7949 61.7385 62.7949 63.9993C62.7949 66.2601 62.9843 67.9459 63.3633 69.0567C63.7554 70.1675 64.363 70.7229 65.1863 70.7229Z" fill="black"/>
<path d="M56.1492 70.6249L56.1844 71.0823L56.196 71.0811L56.1492 70.6249ZM56.9137 70.5465L56.8702 70.0899L56.8669 70.0902L56.9137 70.5465ZM57.4626 70.3505L57.1383 70.0262L57.1275 70.037L57.1174 70.0484L57.4626 70.3505ZM57.4234 57.707L57.169 58.0886L57.1927 58.1044L57.2183 58.1172L57.4234 57.707ZM56.9529 57.6286L57.0036 58.0845L57.0135 58.0832L56.9529 57.6286ZM56.2472 57.707L56.2727 58.1649L56.2853 58.1642L56.2979 58.1628L56.2472 57.707ZM56.208 57.1777L56.1312 56.7255L56.1235 56.727L56.208 57.1777ZM57.737 56.8445L57.8768 57.2813L57.8846 57.2788L57.8924 57.276L57.737 56.8445ZM59.0112 70.3505L58.666 70.6525L58.6761 70.664L58.6869 70.6748L59.0112 70.3505ZM59.5796 70.5465L59.6348 70.091L59.6231 70.0899L59.5796 70.5465ZM60.2265 70.6249L60.1713 71.0802L60.1813 71.0814L60.1913 71.0822L60.2265 70.6249ZM56.1884 71.0757L56.1884 70.6171C56.1329 70.6171 56.1744 70.6045 56.2391 70.652C56.2763 70.6792 56.3091 70.7181 56.3303 70.7647C56.3503 70.8087 56.353 70.8443 56.353 70.8601H55.8944H55.4358C55.4358 71.0478 55.5074 71.2529 55.6967 71.3917C55.8594 71.511 56.0479 71.5344 56.1884 71.5344L56.1884 71.0757ZM55.8944 70.8601H56.353C56.353 70.8688 56.3518 70.8942 56.3387 70.9284C56.3249 70.9646 56.3014 71.0008 56.2692 71.0305C56.2073 71.0877 56.1554 71.0844 56.1844 71.0822L56.1492 70.6249L56.1141 70.1676C55.9732 70.1784 55.7939 70.2209 55.647 70.3565C55.4885 70.5028 55.4358 70.6936 55.4358 70.8601H55.8944ZM56.1492 70.6249L56.196 71.0811L56.9605 71.0027L56.9137 70.5465L56.8669 70.0902L56.1024 70.1686L56.1492 70.6249ZM56.9137 70.5465L56.9572 71.0031C57.249 70.9753 57.592 70.899 57.8077 70.6525L57.4626 70.3505L57.1174 70.0484C57.1397 70.023 57.1481 70.0297 57.1025 70.046C57.0582 70.0618 56.984 70.0791 56.8702 70.0899L56.9137 70.5465ZM57.4626 70.3505L57.7869 70.6748C58.0265 70.4352 58.078 70.0843 58.078 69.782L57.6194 69.782H57.1608C57.1608 69.893 57.1499 69.9652 57.1381 70.008C57.1263 70.0506 57.1189 70.0455 57.1383 70.0262L57.4626 70.3505ZM57.6194 69.782L58.078 69.782L58.078 58.1383L57.6194 58.1383L57.1608 58.1383L57.1608 69.782H57.6194ZM57.6194 58.1383L58.078 58.1383C58.078 57.8427 57.9876 57.4763 57.6285 57.2968L57.4234 57.707L57.2183 58.1172C57.2034 58.1098 57.1879 58.0986 57.1745 58.0844C57.1615 58.0705 57.1551 58.0586 57.1529 58.0536C57.1509 58.0492 57.1531 58.0524 57.1557 58.067C57.1583 58.0815 57.1608 58.1047 57.1608 58.1383L57.6194 58.1383ZM57.4234 57.707L57.6778 57.3254C57.4363 57.1644 57.1548 57.139 56.8923 57.174L56.9529 57.6286L57.0135 58.0832C57.0769 58.0748 57.1181 58.077 57.1422 58.081C57.1538 58.0829 57.1609 58.0852 57.1645 58.0866C57.1664 58.0873 57.1675 58.0878 57.1682 58.0882C57.1685 58.0883 57.1687 58.0884 57.1688 58.0885C57.1689 58.0886 57.169 58.0886 57.169 58.0886L57.4234 57.707ZM56.9529 57.6286L56.9023 57.1728L56.1966 57.2512L56.2472 57.707L56.2979 58.1628L57.0036 58.0844L56.9529 57.6286ZM56.2472 57.707L56.2218 57.2491C56.1909 57.2508 56.1803 57.2482 56.1844 57.249C56.1892 57.25 56.2166 57.2563 56.2511 57.2813C56.2886 57.3083 56.3185 57.3459 56.3364 57.3866C56.3528 57.4239 56.353 57.4498 56.353 57.4522L55.8944 57.4522L55.4358 57.4522C55.4358 57.6481 55.505 57.8739 55.7141 58.0249C55.897 58.157 56.1109 58.1739 56.2727 58.1649L56.2472 57.707ZM55.8944 57.4522L56.353 57.4522C56.353 57.4729 56.349 57.5047 56.3331 57.5404C56.317 57.5766 56.2948 57.6035 56.2748 57.6209C56.2409 57.6506 56.2292 57.6404 56.2926 57.6285L56.208 57.1777L56.1235 56.727C55.9778 56.7543 55.8093 56.8094 55.6708 56.9306C55.5151 57.0668 55.4358 57.2533 55.4358 57.4522L55.8944 57.4522ZM56.208 57.1777L56.2848 57.6299C56.9815 57.5116 57.5177 57.3962 57.8768 57.2813L57.737 56.8445L57.5972 56.4077C57.3029 56.5019 56.8198 56.6087 56.1313 56.7256L56.208 57.1777ZM57.737 56.8445L57.8924 57.276C58.2149 57.1599 58.3916 57.1267 58.4623 57.1267L58.4623 56.6681L58.4623 56.2094C58.2194 56.2094 57.9125 56.2939 57.5817 56.413L57.737 56.8445ZM58.4623 56.6681L58.4623 57.1267C58.4922 57.1267 58.4991 57.1308 58.4912 57.128C58.4868 57.1265 58.4789 57.1232 58.4691 57.117C58.4591 57.1107 58.4488 57.1025 58.4393 57.0926C58.4192 57.0715 58.4122 57.053 58.4112 57.0497C58.4107 57.0484 58.4153 57.0625 58.4153 57.0993L58.8739 57.0993L59.3326 57.0993C59.3326 56.8901 59.283 56.648 59.1028 56.4592C58.9188 56.2664 58.6758 56.2094 58.4623 56.2094L58.4623 56.6681ZM58.8739 57.0993L58.4153 57.0993L58.4153 69.782L58.8739 69.782H59.3326L59.3326 57.0993L58.8739 57.0993ZM58.8739 69.782L58.4153 69.782C58.4153 70.0746 58.4574 70.414 58.666 70.6525L59.0112 70.3505L59.3563 70.0484C59.375 70.0698 59.3662 70.0724 59.3541 70.0223C59.3424 69.9739 59.3326 69.8964 59.3326 69.782H58.8739ZM59.0112 70.3505L58.6869 70.6748C58.9089 70.8968 59.2359 70.9745 59.5361 71.0031L59.5796 70.5465L59.6231 70.0899C59.5096 70.0791 59.4315 70.0617 59.3812 70.0443C59.33 70.0267 59.3242 70.0149 59.3355 70.0262L59.0112 70.3505ZM59.5796 70.5465L59.5244 71.0018L60.1713 71.0802L60.2265 70.6249L60.2817 70.1696L59.6348 70.0912L59.5796 70.5465ZM60.2265 70.6249L60.1913 71.0822C60.2203 71.0844 60.1685 71.0877 60.1065 71.0305C60.0743 71.0008 60.0509 70.9646 60.037 70.9284C60.0239 70.8942 60.0227 70.8688 60.0227 70.8601L60.4813 70.8601H60.94C60.94 70.6936 60.8873 70.5028 60.7287 70.3565C60.5819 70.2209 60.4025 70.1784 60.2617 70.1676L60.2265 70.6249ZM60.4813 70.8601L60.0227 70.8601C60.0227 70.8443 60.0254 70.8087 60.0454 70.7647C60.0666 70.7181 60.0994 70.6792 60.1366 70.652C60.2013 70.6045 60.2428 70.6171 60.1873 70.6171L60.1873 71.0757L60.1873 71.5344C60.3278 71.5344 60.5163 71.511 60.679 71.3917C60.8683 71.2529 60.94 71.0478 60.94 70.8601H60.4813ZM60.1873 71.0757L60.1873 70.6171L56.1884 70.6171L56.1884 71.0757L56.1884 71.5344L60.1873 71.5344L60.1873 71.0757ZM63.1869 70.2917L63.5282 69.9852L63.1869 70.2917ZM61.8539 67.6846L62.2949 67.5586L61.8539 67.6846ZM61.8539 60.3337L62.2945 60.4611L62.2949 60.4597L61.8539 60.3337ZM63.1869 57.7266L62.8457 57.4202V57.4202L63.1869 57.7266ZM67.1662 57.7266L66.8214 58.0291L66.8249 58.033L67.1662 57.7266ZM68.4991 60.3337L68.0581 60.4597L68.06 60.466L68.4991 60.3337ZM68.4991 67.6846L68.0595 67.5537L68.0581 67.5586L68.4991 67.6846ZM67.1662 70.2917L66.8249 69.9852L66.8214 69.9891L67.1662 70.2917ZM66.9897 69.0567L66.5572 68.9041L66.5557 68.9086L66.9897 69.0567ZM66.9897 58.9615L66.5556 59.1097L66.5578 59.1158L66.9897 58.9615ZM63.3633 58.9615L62.9308 58.8089L62.9298 58.8119L63.3633 58.9615ZM63.3633 69.0567L62.9292 69.2048L62.9308 69.2094L63.3633 69.0567ZM65.1863 71.2522L65.1863 70.7935C64.5769 70.7935 64.0292 70.5432 63.5282 69.9852L63.1869 70.2917L62.8457 70.5981C63.4946 71.3208 64.2798 71.7108 65.1863 71.7108V71.2522ZM63.1869 70.2917L63.5282 69.9852C63.0123 69.4107 62.5954 68.6102 62.2949 67.5586L61.8539 67.6846L61.413 67.8106C61.7397 68.9543 62.2115 69.8919 62.8457 70.5981L63.1869 70.2917ZM61.8539 67.6846L62.2949 67.5586C61.995 66.5087 61.8421 65.3236 61.8421 63.9993H61.3835L60.9249 63.9993C60.9249 65.3932 61.0856 66.6649 61.413 67.8106L61.8539 67.6846ZM61.3835 63.9993H61.8421C61.8421 62.6749 61.995 61.4969 62.2945 60.4611L61.8539 60.3337L61.4134 60.2063C61.0856 61.3398 60.9249 62.6056 60.9249 63.9993L61.3835 63.9993ZM61.8539 60.3337L62.2949 60.4597C62.5954 59.408 63.0123 58.6075 63.5282 58.033L63.1869 57.7266L62.8457 57.4202C62.2115 58.1264 61.7397 59.0639 61.413 60.2077L61.8539 60.3337ZM63.1869 57.7266L63.5282 58.033C64.0292 57.475 64.5769 57.2247 65.1863 57.2247V56.7661L65.1863 56.3075C64.2798 56.3075 63.4946 56.6975 62.8457 57.4202L63.1869 57.7266ZM65.1863 56.7661V57.2247C65.795 57.2247 66.3345 57.4743 66.8214 58.0291L67.1662 57.7266L67.5109 57.4241C66.8739 56.6982 66.0935 56.3075 65.1863 56.3075L65.1863 56.7661ZM67.1662 57.7266L66.8249 58.033C67.3408 58.6075 67.7576 59.408 68.0581 60.4597L68.4991 60.3337L68.9401 60.2077C68.6133 59.0639 68.1415 58.1264 67.5074 57.4202L67.1662 57.7266ZM68.4991 60.3337L68.06 60.466C68.3715 61.5002 68.5305 62.6764 68.5305 63.9993H68.9892L69.4478 63.9993C69.4478 62.6041 69.2802 61.3366 68.9383 60.2014L68.4991 60.3337ZM68.9892 63.9993H68.5305C68.5305 65.3221 68.3715 66.5055 68.0595 67.5537L68.4991 67.6846L68.9387 67.8154C69.2801 66.6681 69.4478 65.3947 69.4478 63.9993L68.9892 63.9993ZM68.4991 67.6846L68.0581 67.5586C67.7576 68.6102 67.3408 69.4107 66.8249 69.9852L67.1662 70.2917L67.5074 70.5981C68.1415 69.8919 68.6133 68.9543 68.9401 67.8106L68.4991 67.6846ZM67.1662 70.2917L66.8214 69.9891C66.3345 70.544 65.795 70.7935 65.1863 70.7935L65.1863 71.2522V71.7108C66.0935 71.7108 66.8739 71.32 67.5109 70.5942L67.1662 70.2917ZM65.1863 70.7229L65.1863 71.1815C65.7126 71.1815 66.18 70.9997 66.5659 70.6432C66.9415 70.2962 67.2197 69.803 67.4238 69.2048L66.9897 69.0567L66.5557 68.9086C66.3808 69.4212 66.1689 69.7611 65.9434 69.9695C65.7281 70.1684 65.4834 70.2643 65.1863 70.2643V70.7229ZM66.9897 69.0567L67.4222 69.2094C67.841 68.023 68.0364 66.2734 68.0364 63.9993L67.5778 63.9993L67.1192 63.9993C67.1192 66.2468 66.9226 67.8689 66.5573 68.9041L66.9897 69.0567ZM67.5778 63.9993L68.0364 63.9993C68.0364 61.7257 67.8411 59.9817 67.4217 58.8073L66.9897 58.9615L66.5578 59.1158C66.9225 60.1369 67.1192 61.7513 67.1192 63.9993L67.5778 63.9993ZM66.9897 58.9615L67.4238 58.8135C67.2197 58.2152 66.9415 57.7221 66.5659 57.375C66.18 57.0185 65.7126 56.8367 65.1863 56.8367L65.1863 57.2954V57.754C65.4834 57.754 65.7281 57.8499 65.9434 58.0488C66.1689 58.2571 66.3808 58.5971 66.5557 59.1096L66.9897 58.9615ZM65.1863 57.2954L65.1863 56.8367C64.6602 56.8367 64.1921 57.0184 63.8037 57.3734C63.4253 57.7192 63.1418 58.2111 62.9308 58.8089L63.3633 58.9615L63.7958 59.1142C63.9769 58.6012 64.1932 58.26 64.4225 58.0504C64.6418 57.85 64.8892 57.754 65.1863 57.754V57.2954ZM63.3633 58.9615L62.9298 58.8119C62.5251 59.9842 62.3362 61.7263 62.3362 63.9993L62.7949 63.9993H63.2535C63.2535 61.7507 63.4436 60.1343 63.7969 59.1112L63.3633 58.9615ZM62.7949 63.9993L62.3362 63.9993C62.3362 66.2729 62.5252 68.0204 62.9293 69.2048L63.3633 69.0567L63.7974 68.9086C63.4435 67.8714 63.2535 66.2474 63.2535 63.9993H62.7949ZM63.3633 69.0567L62.9308 69.2094C63.1418 69.8072 63.4253 70.2991 63.8037 70.6449C64.1921 70.9999 64.6602 71.1815 65.1863 71.1815L65.1863 70.7229V70.2643C64.8892 70.2643 64.6418 70.1683 64.4225 69.9678C64.1932 69.7582 63.9769 69.417 63.7958 68.9041L63.3633 69.0567Z" fill="black" mask="url(#path-5-outside-2_1747_4037)"/>
<defs>
<linearGradient id="paint0_linear_1747_4037" x1="70.7866" y1="14.5098" x2="5.97405" y2="67.0046" gradientUnits="userSpaceOnUse">
<stop stop-color="#FCEE84"/>
<stop offset="1" stop-color="#92E8A5"/>
</linearGradient>
</defs>
</svg>
