<svg width="180" height="107" viewBox="0 0 180 107" fill="none" xmlns="http://www.w3.org/2000/svg">
<path d="M1.00098 90.0002C1.00098 40.8469 40.8476 1.00018 90.001 1.00018C139.154 1.00018 179.001 40.8469 179.001 90.0002V105.212H1.00098V90.0002Z" fill="url(#paint0_linear_212_94)" stroke="black" stroke-width="2"/>
<path d="M20.85 93.6628C18.63 93.6628 16.68 92.9728 15 91.5928C13.35 90.2128 12.06 88.2778 11.13 85.7878C10.23 83.2678 9.78 80.2978 9.78 76.8778C9.78 73.5778 10.275 70.6978 11.265 68.2378C12.285 65.7478 13.635 63.8278 15.315 62.4778C17.025 61.0978 18.915 60.4078 20.985 60.4078C22.215 60.4078 23.295 60.5278 24.225 60.7678C25.155 60.9778 25.98 61.2628 26.7 61.6228C27.06 61.8328 27.24 62.1478 27.24 62.5678L27.375 69.4078C27.375 69.9178 27.195 70.1728 26.835 70.1728C26.505 70.1728 26.295 69.9778 26.205 69.5878L25.755 67.9228C25.125 65.5828 24.39 63.9628 23.55 63.0628C22.74 62.1628 21.765 61.7128 20.625 61.7128C18.525 61.7128 16.77 63.0178 15.36 65.6278C13.98 68.2078 13.29 71.9578 13.29 76.8778C13.29 80.2378 13.635 83.0728 14.325 85.3828C15.045 87.6928 15.96 89.4328 17.07 90.6028C18.21 91.7728 19.41 92.3578 20.67 92.3578C22.02 92.3578 23.1 91.9378 23.91 91.0978C24.75 90.2578 25.455 88.6378 26.025 86.2378L26.565 84.0328C26.655 83.5828 26.895 83.3878 27.285 83.4478C27.615 83.5078 27.78 83.7628 27.78 84.2128L27.6 91.5028C27.6 91.9228 27.405 92.2378 27.015 92.4478C26.295 92.8078 25.44 93.0928 24.45 93.3028C23.49 93.5428 22.29 93.6628 20.85 93.6628ZM30.6811 93.2578C30.2311 93.2578 30.0061 93.0928 30.0061 92.7628C30.0061 92.4928 30.2011 92.3128 30.5911 92.2228L31.6261 92.0428C32.2561 91.9228 32.6611 91.7578 32.8411 91.5478C33.0511 91.3378 33.1561 90.9178 33.1561 90.2878V63.8278C33.1561 63.1978 33.0511 62.7778 32.8411 62.5678C32.6611 62.3578 32.2561 62.1928 31.6261 62.0728L30.5911 61.8928C30.2011 61.8028 30.0061 61.6228 30.0061 61.3528C30.0061 61.0228 30.2311 60.8578 30.6811 60.8578H38.9161C39.3661 60.8578 39.5911 61.0378 39.5911 61.3978C39.5911 61.6678 39.4261 61.8328 39.0961 61.8928L37.8811 62.0728C37.2511 62.1628 36.8311 62.3278 36.6211 62.5678C36.4411 62.8078 36.3511 63.2428 36.3511 63.8728V89.0728C36.3511 90.1528 36.6511 90.9328 37.2511 91.4128C37.8811 91.8928 38.6611 92.1328 39.5911 92.1328C40.2811 92.1328 40.9861 91.9978 41.7061 91.7278C42.4561 91.4278 43.1311 90.8878 43.7311 90.1078C44.3311 89.2978 44.7811 88.1278 45.0811 86.5978L45.6661 83.5828C45.7561 83.1928 45.9811 82.9978 46.3411 82.9978C46.7611 82.9978 46.9411 83.2528 46.8811 83.7628L46.3411 92.2228C46.2811 92.9128 45.9061 93.2578 45.2161 93.2578H30.6811ZM47.155 93.2578C46.705 93.2578 46.48 93.1078 46.48 92.8078C46.48 92.5078 46.69 92.3128 47.11 92.2228L47.785 92.0878C48.385 91.9678 48.835 91.6828 49.135 91.2328C49.435 90.7528 49.69 90.0928 49.9 89.2528L56.875 61.1278C56.935 60.8278 57.025 60.6328 57.145 60.5428C57.295 60.4528 57.43 60.4078 57.55 60.4078C57.7 60.4078 57.835 60.4528 57.955 60.5428C58.105 60.6328 58.21 60.8278 58.27 61.1278L65.38 89.6578C65.59 90.4978 65.83 91.0828 66.1 91.4128C66.37 91.7428 66.79 91.9678 67.36 92.0878L68.035 92.2228C68.455 92.3128 68.665 92.5078 68.665 92.8078C68.665 93.1078 68.44 93.2578 67.99 93.2578H60.295C59.875 93.2578 59.665 93.0928 59.665 92.7628C59.665 92.4328 59.92 92.2528 60.43 92.2228L61.285 92.1328C61.795 92.0728 62.11 91.9078 62.23 91.6378C62.38 91.3678 62.38 90.9028 62.23 90.2428L60.52 83.2678C60.34 82.4878 59.845 82.0978 59.035 82.0978H54.31C53.53 82.0978 53.035 82.4878 52.825 83.2678L51.295 89.2978C50.845 91.0078 51.295 91.9528 52.645 92.1328L53.32 92.2228C53.83 92.3128 54.085 92.4928 54.085 92.7628C54.085 93.0928 53.875 93.2578 53.455 93.2578H47.155ZM54.175 80.7478H59.125C59.605 80.7478 59.8 80.4928 59.71 79.9828L56.83 67.9228H56.605L53.59 79.9828C53.5 80.4928 53.695 80.7478 54.175 80.7478ZM75.159 93.6628C74.559 93.6628 73.884 93.6028 73.134 93.4828C72.414 93.3628 71.724 93.2128 71.064 93.0328C70.434 92.8528 69.939 92.6578 69.579 92.4478C69.369 92.3278 69.204 92.2078 69.084 92.0878C68.994 91.9378 68.949 91.6978 68.949 91.3678L68.724 84.3028C68.724 83.7028 68.919 83.4028 69.309 83.4028C69.639 83.4028 69.864 83.6728 69.984 84.2128L70.389 85.9228C71.409 90.2128 73.314 92.3578 76.104 92.3578C77.604 92.3578 78.789 91.8628 79.659 90.8728C80.559 89.8528 81.009 88.4278 81.009 86.5978C81.009 84.8278 80.544 83.1778 79.614 81.6478C78.714 80.1178 77.259 78.6028 75.249 77.1028C73.029 75.5128 71.409 73.9828 70.389 72.5128C69.369 71.0128 68.859 69.4228 68.859 67.7428C68.859 65.5228 69.624 63.7528 71.154 62.4328C72.714 61.0828 74.694 60.4078 77.094 60.4078C77.994 60.4078 78.864 60.5128 79.704 60.7228C80.544 60.9328 81.234 61.2328 81.774 61.6228C81.954 61.7428 82.089 61.8778 82.179 62.0278C82.299 62.1778 82.359 62.3728 82.359 62.6128L82.494 69.4078C82.494 69.9178 82.299 70.1728 81.909 70.1728C81.639 70.1728 81.444 69.9628 81.324 69.5428L81.009 68.4178C80.349 66.1078 79.659 64.4278 78.939 63.3778C78.249 62.2978 77.244 61.7578 75.924 61.7578C74.634 61.7578 73.599 62.1778 72.819 63.0178C72.069 63.8578 71.694 65.0428 71.694 66.5728C71.694 67.8628 72.114 69.0928 72.954 70.2628C73.794 71.4328 75.264 72.8578 77.364 74.5378C79.614 76.3678 81.249 78.1378 82.269 79.8478C83.319 81.5278 83.844 83.3278 83.844 85.2478C83.844 86.9278 83.469 88.3978 82.719 89.6578C81.969 90.9178 80.934 91.9078 79.614 92.6278C78.324 93.3178 76.839 93.6628 75.159 93.6628ZM93.0342 93.6628C92.4342 93.6628 91.7592 93.6028 91.0092 93.4828C90.2892 93.3628 89.5992 93.2128 88.9392 93.0328C88.3092 92.8528 87.8142 92.6578 87.4542 92.4478C87.2442 92.3278 87.0792 92.2078 86.9592 92.0878C86.8692 91.9378 86.8242 91.6978 86.8242 91.3678L86.5992 84.3028C86.5992 83.7028 86.7942 83.4028 87.1842 83.4028C87.5142 83.4028 87.7392 83.6728 87.8592 84.2128L88.2642 85.9228C89.2842 90.2128 91.1892 92.3578 93.9792 92.3578C95.4792 92.3578 96.6642 91.8628 97.5342 90.8728C98.4342 89.8528 98.8842 88.4278 98.8842 86.5978C98.8842 84.8278 98.4192 83.1778 97.4892 81.6478C96.5892 80.1178 95.1342 78.6028 93.1242 77.1028C90.9042 75.5128 89.2842 73.9828 88.2642 72.5128C87.2442 71.0128 86.7342 69.4228 86.7342 67.7428C86.7342 65.5228 87.4992 63.7528 89.0292 62.4328C90.5892 61.0828 92.5692 60.4078 94.9692 60.4078C95.8692 60.4078 96.7392 60.5128 97.5792 60.7228C98.4192 60.9328 99.1092 61.2328 99.6492 61.6228C99.8292 61.7428 99.9642 61.8778 100.054 62.0278C100.174 62.1778 100.234 62.3728 100.234 62.6128L100.369 69.4078C100.369 69.9178 100.174 70.1728 99.7842 70.1728C99.5142 70.1728 99.3192 69.9628 99.1992 69.5428L98.8842 68.4178C98.2242 66.1078 97.5342 64.4278 96.8142 63.3778C96.1242 62.2978 95.1192 61.7578 93.7992 61.7578C92.5092 61.7578 91.4742 62.1778 90.6942 63.0178C89.9442 63.8578 89.5692 65.0428 89.5692 66.5728C89.5692 67.8628 89.9892 69.0928 90.8292 70.2628C91.6692 71.4328 93.1392 72.8578 95.2392 74.5378C97.4892 76.3678 99.1242 78.1378 100.144 79.8478C101.194 81.5278 101.719 83.3278 101.719 85.2478C101.719 86.9278 101.344 88.3978 100.594 89.6578C99.8442 90.9178 98.8092 91.9078 97.4892 92.6278C96.1992 93.3178 94.7142 93.6628 93.0342 93.6628ZM103.896 93.2578C103.446 93.2578 103.221 93.0928 103.221 92.7628C103.221 92.4928 103.416 92.3128 103.806 92.2228L104.841 92.0428C105.471 91.9228 105.876 91.7578 106.056 91.5478C106.266 91.3378 106.371 90.9178 106.371 90.2878V63.8278C106.371 63.1978 106.266 62.7778 106.056 62.5678C105.876 62.3578 105.471 62.1928 104.841 62.0728L103.806 61.8928C103.416 61.8028 103.221 61.6228 103.221 61.3528C103.221 61.0228 103.446 60.8578 103.896 60.8578H112.041C112.491 60.8578 112.716 61.0228 112.716 61.3528C112.716 61.6228 112.521 61.8028 112.131 61.8928L111.096 62.0728C110.466 62.1928 110.046 62.3578 109.836 62.5678C109.656 62.7778 109.566 63.1978 109.566 63.8278V90.2878C109.566 90.9178 109.656 91.3378 109.836 91.5478C110.046 91.7578 110.466 91.9228 111.096 92.0428L112.131 92.2228C112.521 92.3128 112.716 92.4928 112.716 92.7628C112.716 93.0928 112.491 93.2578 112.041 93.2578H103.896ZM125.992 93.6628C123.772 93.6628 121.822 92.9728 120.142 91.5928C118.492 90.2128 117.202 88.2778 116.272 85.7878C115.372 83.2678 114.922 80.2978 114.922 76.8778C114.922 73.5778 115.417 70.6978 116.407 68.2378C117.427 65.7478 118.777 63.8278 120.457 62.4778C122.167 61.0978 124.057 60.4078 126.127 60.4078C127.357 60.4078 128.437 60.5278 129.367 60.7678C130.297 60.9778 131.122 61.2628 131.842 61.6228C132.202 61.8328 132.382 62.1478 132.382 62.5678L132.517 69.4078C132.517 69.9178 132.337 70.1728 131.977 70.1728C131.647 70.1728 131.437 69.9778 131.347 69.5878L130.897 67.9228C130.267 65.5828 129.532 63.9628 128.692 63.0628C127.882 62.1628 126.907 61.7128 125.767 61.7128C123.667 61.7128 121.912 63.0178 120.502 65.6278C119.122 68.2078 118.432 71.9578 118.432 76.8778C118.432 80.2378 118.777 83.0728 119.467 85.3828C120.187 87.6928 121.102 89.4328 122.212 90.6028C123.352 91.7728 124.552 92.3578 125.812 92.3578C127.162 92.3578 128.242 91.9378 129.052 91.0978C129.892 90.2578 130.597 88.6378 131.167 86.2378L131.707 84.0328C131.797 83.5828 132.037 83.3878 132.427 83.4478C132.757 83.5078 132.922 83.7628 132.922 84.2128L132.742 91.5028C132.742 91.9228 132.547 92.2378 132.157 92.4478C131.437 92.8078 130.582 93.0928 129.592 93.3028C128.632 93.5428 127.432 93.6628 125.992 93.6628ZM133.631 93.2578C133.181 93.2578 132.956 93.1078 132.956 92.8078C132.956 92.5078 133.166 92.3128 133.586 92.2228L134.261 92.0878C134.861 91.9678 135.311 91.6828 135.611 91.2328C135.911 90.7528 136.166 90.0928 136.376 89.2528L143.351 61.1278C143.411 60.8278 143.501 60.6328 143.621 60.5428C143.771 60.4528 143.906 60.4078 144.026 60.4078C144.176 60.4078 144.311 60.4528 144.431 60.5428C144.581 60.6328 144.686 60.8278 144.746 61.1278L151.856 89.6578C152.066 90.4978 152.306 91.0828 152.576 91.4128C152.846 91.7428 153.266 91.9678 153.836 92.0878L154.511 92.2228C154.931 92.3128 155.141 92.5078 155.141 92.8078C155.141 93.1078 154.916 93.2578 154.466 93.2578H146.771C146.351 93.2578 146.141 93.0928 146.141 92.7628C146.141 92.4328 146.396 92.2528 146.906 92.2228L147.761 92.1328C148.271 92.0728 148.586 91.9078 148.706 91.6378C148.856 91.3678 148.856 90.9028 148.706 90.2428L146.996 83.2678C146.816 82.4878 146.321 82.0978 145.511 82.0978H140.786C140.006 82.0978 139.511 82.4878 139.301 83.2678L137.771 89.2978C137.321 91.0078 137.771 91.9528 139.121 92.1328L139.796 92.2228C140.306 92.3128 140.561 92.4928 140.561 92.7628C140.561 93.0928 140.351 93.2578 139.931 93.2578H133.631ZM140.651 80.7478H145.601C146.081 80.7478 146.276 80.4928 146.186 79.9828L143.306 67.9228H143.081L140.066 79.9828C139.976 80.4928 140.171 80.7478 140.651 80.7478ZM154.972 93.2578C154.522 93.2578 154.297 93.0928 154.297 92.7628C154.297 92.4928 154.492 92.3128 154.882 92.2228L155.917 92.0428C156.547 91.9228 156.952 91.7578 157.132 91.5478C157.342 91.3378 157.447 90.9178 157.447 90.2878V63.8278C157.447 63.1978 157.342 62.7778 157.132 62.5678C156.952 62.3578 156.547 62.1928 155.917 62.0728L154.882 61.8928C154.492 61.8028 154.297 61.6228 154.297 61.3528C154.297 61.0228 154.522 60.8578 154.972 60.8578H163.207C163.657 60.8578 163.882 61.0378 163.882 61.3978C163.882 61.6678 163.717 61.8328 163.387 61.8928L162.172 62.0728C161.542 62.1628 161.122 62.3278 160.912 62.5678C160.732 62.8078 160.642 63.2428 160.642 63.8728V89.0728C160.642 90.1528 160.942 90.9328 161.542 91.4128C162.172 91.8928 162.952 92.1328 163.882 92.1328C164.572 92.1328 165.277 91.9978 165.997 91.7278C166.747 91.4278 167.422 90.8878 168.022 90.1078C168.622 89.2978 169.072 88.1278 169.372 86.5978L169.957 83.5828C170.047 83.1928 170.272 82.9978 170.632 82.9978C171.052 82.9978 171.232 83.2528 171.172 83.7628L170.632 92.2228C170.572 92.9128 170.197 93.2578 169.507 93.2578H154.972Z" fill="black"/>
<defs>
<linearGradient id="paint0_linear_212_94" x1="115.315" y1="0.000187477" x2="-4.01875" y2="130.463" gradientUnits="userSpaceOnUse">
<stop stop-color="#FFE8F4"/>
<stop offset="1" stop-color="#FF54B2"/>
</linearGradient>
</defs>
</svg>
