<svg width="233" height="110" viewBox="0 0 233 110" fill="none" xmlns="http://www.w3.org/2000/svg">
<path d="M113.374 1.70261C114.181 1.32376 115.115 1.32376 115.923 1.70261L152.814 19.0132L153.239 18.1079L152.814 19.0132C153.196 19.1924 153.599 19.3226 154.014 19.4006L197.713 27.6194C199.523 27.9596 200.601 29.834 199.987 31.5693L192.279 53.3307C191.897 54.4107 191.897 55.5893 192.279 56.6693L199.987 78.4307C200.601 80.166 199.523 82.0404 197.713 82.3806L154.014 90.5994C153.599 90.6774 153.196 90.8076 152.814 90.9868L115.923 108.297C115.115 108.676 114.181 108.676 113.374 108.297L76.4831 90.9868C76.1011 90.8076 75.698 90.6774 75.2833 90.5994L31.5834 82.3806C29.7743 82.0404 28.6955 80.166 29.3101 78.4307L37.0174 56.6693C37.3999 55.5893 37.3999 54.4107 37.0174 53.3307L29.3101 31.5693C28.6955 29.834 29.7743 27.9596 31.5834 27.6194L75.2833 19.4006C75.698 19.3226 76.1011 19.1924 76.4831 19.0132L113.374 1.70261Z" fill="url(#paint0_linear_226_120)" stroke="black" stroke-width="2"/>
<path d="M59.1595 69.3947C57.1862 69.3947 55.4529 68.7813 53.9595 67.5547C52.4929 66.328 51.3462 64.608 50.5195 62.3947C49.7195 60.1547 49.3195 57.5147 49.3195 54.4747C49.3195 51.5413 49.7595 48.9813 50.6395 46.7947C51.5462 44.5813 52.7462 42.8747 54.2395 41.6747C55.7595 40.448 57.4395 39.8347 59.2795 39.8347C60.3729 39.8347 61.3329 39.9413 62.1595 40.1547C62.9862 40.3413 63.7195 40.5947 64.3595 40.9147C64.6795 41.1013 64.8395 41.3813 64.8395 41.7547L64.9595 47.8347C64.9595 48.288 64.7995 48.5147 64.4795 48.5147C64.1862 48.5147 63.9995 48.3413 63.9195 47.9947L63.5195 46.5147C62.9595 44.4347 62.3062 42.9947 61.5595 42.1947C60.8395 41.3947 59.9729 40.9947 58.9595 40.9947C57.0929 40.9947 55.5329 42.1547 54.2795 44.4747C53.0529 46.768 52.4395 50.1013 52.4395 54.4747C52.4395 57.4613 52.7462 59.9813 53.3595 62.0347C53.9995 64.088 54.8129 65.6347 55.7995 66.6747C56.8129 67.7147 57.8795 68.2347 58.9995 68.2347C60.1995 68.2347 61.1595 67.8613 61.8795 67.1147C62.6262 66.368 63.2529 64.928 63.7595 62.7947L64.2395 60.8347C64.3195 60.4347 64.5329 60.2613 64.8795 60.3147C65.1729 60.368 65.3195 60.5947 65.3195 60.9947L65.1595 67.4747C65.1595 67.848 64.9862 68.128 64.6395 68.3147C63.9995 68.6347 63.2395 68.888 62.3595 69.0747C61.5062 69.288 60.4395 69.3947 59.1595 69.3947ZM76.8695 69.3947C75.5895 69.3947 74.3895 69.0213 73.2695 68.2747C72.1495 67.5013 71.1629 66.448 70.3095 65.1147C69.4829 63.7813 68.8295 62.2213 68.3495 60.4347C67.8962 58.6213 67.6695 56.6747 67.6695 54.5947C67.6695 52.5147 67.8962 50.5813 68.3495 48.7947C68.8295 47.008 69.4829 45.448 70.3095 44.1147C71.1629 42.7547 72.1495 41.7013 73.2695 40.9547C74.3895 40.208 75.5895 39.8347 76.8695 39.8347C78.1495 39.8347 79.3362 40.208 80.4295 40.9547C81.5495 41.7013 82.5362 42.7547 83.3895 44.1147C84.2429 45.448 84.8962 47.008 85.3495 48.7947C85.8295 50.5813 86.0695 52.5147 86.0695 54.5947C86.0695 56.6747 85.8295 58.6213 85.3495 60.4347C84.8962 62.2213 84.2429 63.7813 83.3895 65.1147C82.5362 66.448 81.5495 67.5013 80.4295 68.2747C79.3362 69.0213 78.1495 69.3947 76.8695 69.3947ZM76.8695 68.3147C78.7629 68.3147 80.2429 67.1813 81.3095 64.9147C82.3762 62.648 82.9095 59.208 82.9095 54.5947C82.9095 49.9813 82.3762 46.5547 81.3095 44.3147C80.2429 42.048 78.7629 40.9147 76.8695 40.9147C75.0029 40.9147 73.5229 42.048 72.4295 44.3147C71.3629 46.5547 70.8295 49.9813 70.8295 54.5947C70.8295 59.208 71.3629 62.648 72.4295 64.9147C73.5229 67.1813 75.0029 68.3147 76.8695 68.3147ZM97.9586 69.3947C96.5186 69.3947 95.2386 69.0613 94.1186 68.3947C93.0253 67.7013 92.1719 66.7547 91.5586 65.5547C90.9453 64.328 90.6386 62.928 90.6386 61.3547V42.8747C90.6386 42.3147 90.5453 41.9413 90.3586 41.7547C90.1986 41.568 89.8386 41.4213 89.2786 41.3147L88.3586 41.1547C88.0119 41.0747 87.8386 40.9147 87.8386 40.6747C87.8386 40.3813 88.0386 40.2347 88.4386 40.2347H95.7586C96.1586 40.2347 96.3586 40.3947 96.3586 40.7147C96.3586 40.9547 96.2119 41.1013 95.9186 41.1547L94.8386 41.3147C94.3053 41.3947 93.9453 41.5413 93.7586 41.7547C93.5719 41.968 93.4786 42.3547 93.4786 42.9147V61.3947C93.4786 63.4213 93.9319 64.9947 94.8386 66.1147C95.7453 67.2347 97.0119 67.7947 98.6386 67.7947C100.292 67.7947 101.572 67.2347 102.479 66.1147C103.385 64.9947 103.839 63.4213 103.839 61.3947V43.7147C103.839 42.2747 103.385 41.4747 102.479 41.3147L101.399 41.1547C101.105 41.1013 100.959 40.9547 100.959 40.7147C100.959 40.3947 101.159 40.2347 101.559 40.2347H107.319C107.719 40.2347 107.919 40.3813 107.919 40.6747C107.919 40.9147 107.745 41.0747 107.399 41.1547L106.479 41.3147C105.572 41.4747 105.119 42.2613 105.119 43.6747V61.3547C105.119 63.7813 104.465 65.728 103.159 67.1947C101.852 68.6613 100.119 69.3947 97.9586 69.3947ZM125.164 69.3947C124.737 69.3947 124.377 69.0747 124.084 68.4347L113.244 44.9147C113.164 44.728 113.057 44.648 112.924 44.6747C112.817 44.7013 112.764 44.8213 112.764 45.0347V65.5947C112.764 66.3413 112.884 66.9147 113.124 67.3147C113.391 67.688 113.857 67.928 114.524 68.0347L115.044 68.1147C115.391 68.1413 115.564 68.3013 115.564 68.5947C115.564 68.888 115.364 69.0347 114.964 69.0347H109.244C108.844 69.0347 108.644 68.888 108.644 68.5947C108.644 68.3013 108.817 68.1413 109.164 68.1147L109.684 68.0347C110.377 67.928 110.857 67.688 111.124 67.3147C111.391 66.9147 111.524 66.3413 111.524 65.5947V42.8747C111.524 42.3147 111.431 41.9413 111.244 41.7547C111.084 41.568 110.697 41.4213 110.084 41.3147L109.164 41.1547C108.817 41.0747 108.644 40.9147 108.644 40.6747C108.644 40.3813 108.844 40.2347 109.244 40.2347H113.524C114.191 40.2347 114.657 40.528 114.924 41.1147L124.364 61.8747C124.444 62.0347 124.537 62.1013 124.644 62.0747C124.777 62.048 124.844 61.9547 124.844 61.7947V43.6747C124.844 42.8213 124.697 42.2347 124.404 41.9147C124.111 41.568 123.737 41.3547 123.284 41.2747L122.564 41.1547C122.217 41.0747 122.044 40.9147 122.044 40.6747C122.044 40.3813 122.244 40.2347 122.644 40.2347H128.364C128.764 40.2347 128.964 40.3813 128.964 40.6747C128.964 40.968 128.791 41.128 128.444 41.1547L127.924 41.2347C127.231 41.3413 126.751 41.568 126.484 41.9147C126.217 42.2347 126.084 42.8213 126.084 43.6747V68.1147C126.084 68.5947 125.991 68.928 125.804 69.1147C125.644 69.3013 125.431 69.3947 125.164 69.3947ZM133.925 69.0347C133.525 69.0347 133.325 68.888 133.325 68.5947C133.325 68.3013 133.499 68.1413 133.845 68.1147L135.645 67.8347C136.179 67.7547 136.539 67.6213 136.725 67.4347C136.912 67.2213 137.005 66.8347 137.005 66.2747V42.2747C137.005 41.9013 136.925 41.6347 136.765 41.4747C136.605 41.3147 136.272 41.2347 135.765 41.2347C134.779 41.2347 133.805 41.6613 132.845 42.5147C131.885 43.368 131.259 44.7413 130.965 46.6347L130.765 47.9547C130.712 48.3013 130.525 48.4747 130.205 48.4747C129.805 48.4747 129.632 48.248 129.685 47.7947L130.045 40.5547C130.099 39.9413 130.339 39.6347 130.765 39.6347C130.952 39.6347 131.125 39.688 131.285 39.7947C131.445 39.8747 131.712 39.968 132.085 40.0747C132.485 40.1813 133.112 40.2347 133.965 40.2347H142.885C143.739 40.2347 144.352 40.1813 144.725 40.0747C145.125 39.968 145.405 39.8747 145.565 39.7947C145.752 39.688 145.925 39.6347 146.085 39.6347C146.512 39.6347 146.752 39.9413 146.805 40.5547L147.165 47.7947C147.219 48.248 147.045 48.4747 146.645 48.4747C146.325 48.4747 146.139 48.3013 146.085 47.9547L145.885 46.6347C145.619 44.7413 145.005 43.368 144.045 42.5147C143.085 41.6613 142.099 41.2347 141.085 41.2347C140.579 41.2347 140.245 41.3147 140.085 41.4747C139.925 41.6347 139.845 41.9013 139.845 42.2747V66.2747C139.845 66.8347 139.939 67.2213 140.125 67.4347C140.339 67.6213 140.699 67.7547 141.205 67.8347L143.005 68.1147C143.352 68.1413 143.525 68.3013 143.525 68.5947C143.525 68.888 143.325 69.0347 142.925 69.0347H133.925ZM165.243 69.3947C162.923 69.3947 161.443 67.8747 160.803 64.8347L159.883 60.3947C159.59 58.9547 159.256 57.8613 158.883 57.1147C158.536 56.368 158.043 55.8613 157.403 55.5947C156.79 55.328 155.936 55.1947 154.843 55.1947C154.47 55.1947 154.176 55.3013 153.963 55.5147C153.75 55.7013 153.643 55.9413 153.643 56.2347V66.2347C153.643 66.7947 153.75 67.1813 153.963 67.3947C154.176 67.5813 154.656 67.7413 155.403 67.8747L156.883 68.1147C157.176 68.168 157.323 68.3147 157.323 68.5547C157.323 68.8747 157.123 69.0347 156.723 69.0347H148.603C148.203 69.0347 148.003 68.888 148.003 68.5947C148.003 68.3547 148.176 68.1947 148.523 68.1147L149.443 67.9547C150.003 67.848 150.363 67.7013 150.523 67.5147C150.71 67.328 150.803 66.9547 150.803 66.3947V42.8747C150.803 42.3147 150.71 41.9413 150.523 41.7547C150.363 41.568 150.003 41.4213 149.443 41.3147L148.523 41.1547C148.176 41.0747 148.003 40.9147 148.003 40.6747C148.003 40.3813 148.203 40.2347 148.603 40.2347H156.723C158.296 40.2347 159.696 40.5413 160.923 41.1547C162.15 41.768 163.11 42.6213 163.803 43.7147C164.496 44.7813 164.843 46.0213 164.843 47.4347C164.843 49.1147 164.336 50.6347 163.323 51.9947C162.31 53.328 161.03 54.2747 159.483 54.8347C159.296 54.888 159.19 54.9813 159.163 55.1147C159.163 55.2213 159.256 55.3147 159.443 55.3947C160.296 55.7947 160.963 56.3547 161.443 57.0747C161.95 57.7947 162.336 58.7547 162.603 59.9547L163.483 64.0347C163.776 65.4213 164.123 66.408 164.523 66.9947C164.923 67.5813 165.43 67.8747 166.043 67.8747C166.256 67.8747 166.443 67.848 166.603 67.7947C166.79 67.7147 167.016 67.5813 167.283 67.3947C167.496 67.2613 167.696 67.2347 167.883 67.3147C168.07 67.368 168.163 67.5013 168.163 67.7147C168.163 68.168 167.87 68.568 167.283 68.9147C166.696 69.2347 166.016 69.3947 165.243 69.3947ZM156.323 54.1947C158.136 54.1947 159.51 53.5947 160.443 52.3947C161.376 51.168 161.843 49.5413 161.843 47.5147C161.843 45.5413 161.296 44.008 160.203 42.9147C159.136 41.7947 157.656 41.2347 155.763 41.2347C154.35 41.2347 153.643 41.768 153.643 42.8347V51.9947C153.643 53.4613 154.536 54.1947 156.323 54.1947ZM171.298 69.0347C170.898 69.0347 170.698 68.888 170.698 68.5947C170.698 68.3013 170.871 68.1413 171.218 68.1147L173.018 67.8347C173.551 67.7547 173.911 67.6213 174.098 67.4347C174.285 67.2213 174.378 66.8347 174.378 66.2747V56.8347C174.378 56.248 174.245 55.6747 173.978 55.1147L168.098 42.7947C167.911 42.3413 167.698 41.9947 167.458 41.7547C167.218 41.5147 166.871 41.3413 166.418 41.2347L166.058 41.1547C165.685 41.0747 165.498 40.9013 165.498 40.6347C165.498 40.368 165.698 40.2347 166.098 40.2347H172.938C173.311 40.2347 173.498 40.3813 173.498 40.6747C173.498 40.968 173.271 41.128 172.818 41.1547L172.058 41.2347C171.605 41.2613 171.285 41.408 171.098 41.6747C170.911 41.9413 170.951 42.3547 171.218 42.9147L176.138 53.3947C176.245 53.5813 176.378 53.6747 176.538 53.6747C176.698 53.6747 176.831 53.5813 176.938 53.3947L181.658 43.7547C182.005 43.0613 182.085 42.5013 181.898 42.0747C181.738 41.6213 181.351 41.3547 180.738 41.2747L179.858 41.1547C179.405 41.0747 179.178 40.9147 179.178 40.6747C179.178 40.3813 179.365 40.2347 179.738 40.2347H185.418C185.818 40.2347 186.018 40.368 186.018 40.6347C186.018 40.9013 185.831 41.0747 185.458 41.1547L185.058 41.2347C184.685 41.3147 184.351 41.5413 184.058 41.9147C183.791 42.288 183.431 42.9147 182.978 43.7947L177.738 54.3147C177.551 54.688 177.418 55.048 177.338 55.3947C177.258 55.7147 177.218 56.088 177.218 56.5147V66.2747C177.218 66.8347 177.311 67.2213 177.498 67.4347C177.711 67.6213 178.071 67.7547 178.578 67.8347L180.378 68.1147C180.725 68.1413 180.898 68.3013 180.898 68.5947C180.898 68.888 180.698 69.0347 180.298 69.0347H171.298Z" fill="black"/>
<defs>
<linearGradient id="paint0_linear_226_120" x1="162.84" y1="-6.54684" x2="62.2011" y2="113.021" gradientUnits="userSpaceOnUse">
<stop offset="0.0361371" stop-color="#FFE6C6"/>
<stop offset="0.916137" stop-color="#D58F5F"/>
</linearGradient>
</defs>
</svg>
