<svg width="198" height="110" viewBox="0 0 198 110" fill="none" xmlns="http://www.w3.org/2000/svg">
<path d="M98.4538 1.14758C98.9289 1.06092 99.4155 1.06092 99.8901 1.14758L155.318 11.2693C155.947 11.3841 156.539 11.6483 157.044 12.0397L189.63 37.294C190.608 38.0514 191.177 39.2201 191.174 40.4585L191.081 69.5415C191.077 70.7799 190.5 71.9485 189.518 72.706L156.771 97.9603C156.264 98.3516 155.67 98.6158 155.04 98.7307L99.5482 108.852C99.0731 108.939 98.5865 108.939 98.1119 108.852L42.6839 98.7307C42.0548 98.6158 41.463 98.3516 40.958 97.9603L8.37188 72.706L7.75773 73.4971L8.37188 72.706C7.39448 71.9485 6.82452 70.7799 6.82846 69.5415L6.92077 40.4585C6.92471 39.2201 7.50208 38.0514 8.48429 37.294L41.2307 12.0397C41.7382 11.6483 42.3317 11.3841 42.9615 11.2693L98.4538 1.14758Z" fill="url(#paint0_linear_219_111)" stroke="black" stroke-width="2"/>
<path d="M22.132 67.1001C21.782 67.1001 21.607 66.9718 21.607 66.7151C21.607 66.5051 21.7587 66.3651 22.062 66.2951L22.867 66.1551C23.357 66.0618 23.672 65.9334 23.812 65.7701C23.9753 65.6068 24.057 65.2801 24.057 64.7901V44.2101C24.057 43.7201 23.9753 43.3934 23.812 43.2301C23.672 43.0668 23.357 42.9384 22.867 42.8451L22.062 42.7051C21.7587 42.6351 21.607 42.4951 21.607 42.2851C21.607 42.0284 21.782 41.9001 22.132 41.9001H33.892C34.4287 41.9001 34.7203 42.1684 34.767 42.7051L35.047 48.5151C35.0937 48.9118 34.942 49.1101 34.592 49.1101C34.312 49.1101 34.1487 48.9584 34.102 48.6551L33.892 47.3601C33.6353 45.7734 33.1103 44.6184 32.317 43.8951C31.5237 43.1484 30.427 42.7751 29.027 42.7751C28.0937 42.7751 27.4403 42.9151 27.067 43.1951C26.717 43.4518 26.542 43.9184 26.542 44.5951V53.0301C26.542 53.3568 26.7053 53.5201 27.032 53.5201H28.782C29.8087 53.5201 30.4387 52.9718 30.672 51.8751L31.022 50.1251C31.1153 49.7751 31.3137 49.6234 31.617 49.6701C31.8737 49.7168 32.002 49.9151 32.002 50.2651V58.1401C32.002 58.4901 31.8737 58.6884 31.617 58.7351C31.3137 58.7818 31.1153 58.6301 31.022 58.2801L30.672 56.5651C30.5087 55.7484 30.2753 55.2118 29.972 54.9551C29.692 54.6984 29.2837 54.5701 28.747 54.5701H27.032C26.7053 54.5701 26.542 54.7334 26.542 55.0601V63.8451C26.542 64.6851 26.752 65.2918 27.172 65.6651C27.6153 66.0384 28.4087 66.2251 29.552 66.2251C30.7187 66.2251 31.7103 65.9334 32.527 65.3501C33.367 64.7434 33.9503 63.6234 34.277 61.9901L34.697 59.9251C34.767 59.6218 34.942 59.4701 35.222 59.4701C35.5487 59.4701 35.6887 59.6684 35.642 60.0651L35.292 66.2951C35.2453 66.8318 34.9537 67.1001 34.417 67.1001H22.132ZM37.6414 67.1001C37.2914 67.1001 37.1164 66.9718 37.1164 66.7151C37.1164 66.5051 37.268 66.3651 37.5714 66.2951L38.3764 66.1551C38.8664 66.0618 39.1814 65.9334 39.3214 65.7701C39.4847 65.6068 39.5664 65.2801 39.5664 64.7901V44.2101C39.5664 43.7201 39.4847 43.3934 39.3214 43.2301C39.1814 43.0668 38.8664 42.9384 38.3764 42.8451L37.5714 42.7051C37.268 42.6351 37.1164 42.4951 37.1164 42.2851C37.1164 42.0284 37.2914 41.9001 37.6414 41.9001H44.0464C44.3964 41.9001 44.5714 42.0401 44.5714 42.3201C44.5714 42.5301 44.443 42.6584 44.1864 42.7051L43.2414 42.8451C42.7514 42.9151 42.4247 43.0434 42.2614 43.2301C42.1214 43.4168 42.0514 43.7551 42.0514 44.2451V63.8451C42.0514 64.6851 42.2847 65.2918 42.7514 65.6651C43.2414 66.0384 43.848 66.2251 44.5714 66.2251C45.108 66.2251 45.6564 66.1201 46.2164 65.9101C46.7997 65.6768 47.3247 65.2568 47.7914 64.6501C48.258 64.0201 48.608 63.1101 48.8414 61.9201L49.2964 59.5751C49.3664 59.2718 49.5414 59.1201 49.8214 59.1201C50.148 59.1201 50.288 59.3184 50.2414 59.7151L49.8214 66.2951C49.7747 66.8318 49.483 67.1001 48.9464 67.1001H37.6414ZM51.7494 67.1001C51.3994 67.1001 51.2244 66.9718 51.2244 66.7151C51.2244 66.5051 51.3761 66.3651 51.6794 66.2951L52.4844 66.1551C52.9744 66.0618 53.2894 65.9334 53.4294 65.7701C53.5927 65.6068 53.6744 65.2801 53.6744 64.7901V44.2101C53.6744 43.7201 53.5927 43.3934 53.4294 43.2301C53.2894 43.0668 52.9744 42.9384 52.4844 42.8451L51.6794 42.7051C51.3761 42.6351 51.2244 42.4951 51.2244 42.2851C51.2244 42.0284 51.3994 41.9001 51.7494 41.9001H63.5094C64.0461 41.9001 64.3377 42.1684 64.3844 42.7051L64.6644 48.5151C64.7111 48.9118 64.5594 49.1101 64.2094 49.1101C63.9294 49.1101 63.7661 48.9584 63.7194 48.6551L63.5094 47.3601C63.2527 45.7734 62.7277 44.6184 61.9344 43.8951C61.1411 43.1484 60.0444 42.7751 58.6444 42.7751C57.7111 42.7751 57.0577 42.9151 56.6844 43.1951C56.3344 43.4518 56.1594 43.9184 56.1594 44.5951V53.0301C56.1594 53.3568 56.3227 53.5201 56.6494 53.5201H58.3994C59.4261 53.5201 60.0561 52.9718 60.2894 51.8751L60.6394 50.1251C60.7327 49.7751 60.9311 49.6234 61.2344 49.6701C61.4911 49.7168 61.6194 49.9151 61.6194 50.2651V58.1401C61.6194 58.4901 61.4911 58.6884 61.2344 58.7351C60.9311 58.7818 60.7327 58.6301 60.6394 58.2801L60.2894 56.5651C60.1261 55.7484 59.8927 55.2118 59.5894 54.9551C59.3094 54.6984 58.9011 54.5701 58.3644 54.5701H56.6494C56.3227 54.5701 56.1594 54.7334 56.1594 55.0601V63.8451C56.1594 64.6851 56.3694 65.2918 56.7894 65.6651C57.2327 66.0384 58.0261 66.2251 59.1694 66.2251C60.3361 66.2251 61.3277 65.9334 62.1444 65.3501C62.9844 64.7434 63.5677 63.6234 63.8944 61.9901L64.3144 59.9251C64.3844 59.6218 64.5594 59.4701 64.8394 59.4701C65.1661 59.4701 65.3061 59.6684 65.2594 60.0651L64.9094 66.2951C64.8627 66.8318 64.5711 67.1001 64.0344 67.1001H51.7494ZM76.0788 67.4151C74.3521 67.4151 72.8354 66.8784 71.5288 65.8051C70.2454 64.7318 69.2421 63.2268 68.5188 61.2901C67.8188 59.3301 67.4688 57.0201 67.4688 54.3601C67.4688 51.7934 67.8538 49.5534 68.6238 47.6401C69.4171 45.7034 70.4671 44.2101 71.7738 43.1601C73.1038 42.0868 74.5738 41.5501 76.1838 41.5501C77.1404 41.5501 77.9804 41.6434 78.7038 41.8301C79.4271 41.9934 80.0688 42.2151 80.6288 42.4951C80.9088 42.6584 81.0488 42.9034 81.0488 43.2301L81.1538 48.5501C81.1538 48.9468 81.0138 49.1451 80.7338 49.1451C80.4771 49.1451 80.3138 48.9934 80.2438 48.6901L79.8938 47.3951C79.4038 45.5751 78.8321 44.3151 78.1788 43.6151C77.5488 42.9151 76.7904 42.5651 75.9038 42.5651C74.2704 42.5651 72.9054 43.5801 71.8088 45.6101C70.7354 47.6168 70.1988 50.5334 70.1988 54.3601C70.1988 56.9734 70.4671 59.1784 71.0038 60.9751C71.5638 62.7718 72.2754 64.1251 73.1388 65.0351C74.0254 65.9451 74.9588 66.4001 75.9388 66.4001C76.9888 66.4001 77.8288 66.0734 78.4588 65.4201C79.1121 64.7668 79.6604 63.5068 80.1038 61.6401L80.5238 59.9251C80.5938 59.5751 80.7804 59.4234 81.0838 59.4701C81.3404 59.5168 81.4688 59.7151 81.4688 60.0651L81.3288 65.7351C81.3288 66.0618 81.1771 66.3068 80.8738 66.4701C80.3138 66.7501 79.6488 66.9718 78.8788 67.1351C78.1321 67.3218 77.1988 67.4151 76.0788 67.4151ZM86.6652 67.1001C86.3152 67.1001 86.1402 66.9718 86.1402 66.7151C86.1402 66.4584 86.2918 66.3184 86.5952 66.2951L88.1702 66.0501C88.6368 65.9801 88.9518 65.8634 89.1152 65.7001C89.2785 65.5134 89.3602 65.1751 89.3602 64.6851V43.6851C89.3602 43.3584 89.2902 43.1251 89.1502 42.9851C89.0102 42.8451 88.7185 42.7751 88.2752 42.7751C87.4118 42.7751 86.5602 43.1484 85.7202 43.8951C84.8802 44.6418 84.3318 45.8434 84.0752 47.5001L83.9002 48.6551C83.8535 48.9584 83.6902 49.1101 83.4102 49.1101C83.0602 49.1101 82.9085 48.9118 82.9552 48.5151L83.2702 42.1801C83.3168 41.6434 83.5268 41.3751 83.9002 41.3751C84.0635 41.3751 84.2152 41.4218 84.3552 41.5151C84.4952 41.5851 84.7285 41.6668 85.0552 41.7601C85.4052 41.8534 85.9535 41.9001 86.7002 41.9001H94.5052C95.2518 41.9001 95.7885 41.8534 96.1152 41.7601C96.4652 41.6668 96.7102 41.5851 96.8502 41.5151C97.0135 41.4218 97.1652 41.3751 97.3052 41.3751C97.6785 41.3751 97.8885 41.6434 97.9352 42.1801L98.2502 48.5151C98.2968 48.9118 98.1452 49.1101 97.7952 49.1101C97.5152 49.1101 97.3518 48.9584 97.3052 48.6551L97.1302 47.5001C96.8968 45.8434 96.3602 44.6418 95.5202 43.8951C94.6802 43.1484 93.8168 42.7751 92.9302 42.7751C92.4868 42.7751 92.1952 42.8451 92.0552 42.9851C91.9152 43.1251 91.8452 43.3584 91.8452 43.6851V64.6851C91.8452 65.1751 91.9268 65.5134 92.0902 65.7001C92.2768 65.8634 92.5918 65.9801 93.0352 66.0501L94.6102 66.2951C94.9135 66.3184 95.0652 66.4584 95.0652 66.7151C95.0652 66.9718 94.8902 67.1001 94.5402 67.1001H86.6652ZM114.068 67.4151C112.038 67.4151 110.743 66.0851 110.183 63.4251L109.378 59.5401C109.121 58.2801 108.83 57.3234 108.503 56.6701C108.2 56.0168 107.768 55.5734 107.208 55.3401C106.671 55.1068 105.925 54.9901 104.968 54.9901C104.641 54.9901 104.385 55.0834 104.198 55.2701C104.011 55.4334 103.918 55.6434 103.918 55.9001V64.6501C103.918 65.1401 104.011 65.4784 104.198 65.6651C104.385 65.8284 104.805 65.9684 105.458 66.0851L106.753 66.2951C107.01 66.3418 107.138 66.4701 107.138 66.6801C107.138 66.9601 106.963 67.1001 106.613 67.1001H99.508C99.158 67.1001 98.983 66.9718 98.983 66.7151C98.983 66.5051 99.1346 66.3651 99.438 66.2951L100.243 66.1551C100.733 66.0618 101.048 65.9334 101.188 65.7701C101.351 65.6068 101.433 65.2801 101.433 64.7901V44.2101C101.433 43.7201 101.351 43.3934 101.188 43.2301C101.048 43.0668 100.733 42.9384 100.243 42.8451L99.438 42.7051C99.1346 42.6351 98.983 42.4951 98.983 42.2851C98.983 42.0284 99.158 41.9001 99.508 41.9001H106.613C107.99 41.9001 109.215 42.1684 110.288 42.7051C111.361 43.2418 112.201 43.9884 112.808 44.9451C113.415 45.8784 113.718 46.9634 113.718 48.2001C113.718 49.6701 113.275 51.0001 112.388 52.1901C111.501 53.3568 110.381 54.1851 109.028 54.6751C108.865 54.7218 108.771 54.8034 108.748 54.9201C108.748 55.0134 108.83 55.0951 108.993 55.1651C109.74 55.5151 110.323 56.0051 110.743 56.6351C111.186 57.2651 111.525 58.1051 111.758 59.1551L112.528 62.7251C112.785 63.9384 113.088 64.8018 113.438 65.3151C113.788 65.8284 114.231 66.0851 114.768 66.0851C114.955 66.0851 115.118 66.0618 115.258 66.0151C115.421 65.9451 115.62 65.8284 115.853 65.6651C116.04 65.5484 116.215 65.5251 116.378 65.5951C116.541 65.6418 116.623 65.7584 116.623 65.9451C116.623 66.3418 116.366 66.6918 115.853 66.9951C115.34 67.2751 114.745 67.4151 114.068 67.4151ZM106.263 54.1151C107.85 54.1151 109.051 53.5901 109.868 52.5401C110.685 51.4668 111.093 50.0434 111.093 48.2701C111.093 46.5434 110.615 45.2018 109.658 44.2451C108.725 43.2651 107.43 42.7751 105.773 42.7751C104.536 42.7751 103.918 43.2418 103.918 44.1751V52.1901C103.918 53.4734 104.7 54.1151 106.263 54.1151ZM124.508 67.4151C123.388 67.4151 122.338 67.0884 121.358 66.4351C120.378 65.7584 119.514 64.8368 118.768 63.6701C118.044 62.5034 117.473 61.1384 117.053 59.5751C116.656 57.9884 116.458 56.2851 116.458 54.4651C116.458 52.6451 116.656 50.9534 117.053 49.3901C117.473 47.8268 118.044 46.4618 118.768 45.2951C119.514 44.1051 120.378 43.1834 121.358 42.5301C122.338 41.8768 123.388 41.5501 124.508 41.5501C125.628 41.5501 126.666 41.8768 127.623 42.5301C128.603 43.1834 129.466 44.1051 130.213 45.2951C130.959 46.4618 131.531 47.8268 131.928 49.3901C132.348 50.9534 132.558 52.6451 132.558 54.4651C132.558 56.2851 132.348 57.9884 131.928 59.5751C131.531 61.1384 130.959 62.5034 130.213 63.6701C129.466 64.8368 128.603 65.7584 127.623 66.4351C126.666 67.0884 125.628 67.4151 124.508 67.4151ZM124.508 66.4701C126.164 66.4701 127.459 65.4784 128.393 63.4951C129.326 61.5118 129.793 58.5018 129.793 54.4651C129.793 50.4284 129.326 47.4301 128.393 45.4701C127.459 43.4868 126.164 42.4951 124.508 42.4951C122.874 42.4951 121.579 43.4868 120.623 45.4701C119.689 47.4301 119.223 50.4284 119.223 54.4651C119.223 58.5018 119.689 61.5118 120.623 63.4951C121.579 65.4784 122.874 66.4701 124.508 66.4701ZM148.351 67.4151C147.977 67.4151 147.662 67.1351 147.406 66.5751L137.921 45.9951C137.851 45.8318 137.757 45.7618 137.641 45.7851C137.547 45.8084 137.501 45.9134 137.501 46.1001V64.0901C137.501 64.7434 137.606 65.2451 137.816 65.5951C138.049 65.9218 138.457 66.1318 139.041 66.2251L139.496 66.2951C139.799 66.3184 139.951 66.4584 139.951 66.7151C139.951 66.9718 139.776 67.1001 139.426 67.1001H134.421C134.071 67.1001 133.896 66.9718 133.896 66.7151C133.896 66.4584 134.047 66.3184 134.351 66.2951L134.806 66.2251C135.412 66.1318 135.832 65.9218 136.066 65.5951C136.299 65.2451 136.416 64.7434 136.416 64.0901V44.2101C136.416 43.7201 136.334 43.3934 136.171 43.2301C136.031 43.0668 135.692 42.9384 135.156 42.8451L134.351 42.7051C134.047 42.6351 133.896 42.4951 133.896 42.2851C133.896 42.0284 134.071 41.9001 134.421 41.9001H138.166C138.749 41.9001 139.157 42.1568 139.391 42.6701L147.651 60.8351C147.721 60.9751 147.802 61.0334 147.896 61.0101C148.012 60.9868 148.071 60.9051 148.071 60.7651V44.9101C148.071 44.1634 147.942 43.6501 147.686 43.3701C147.429 43.0668 147.102 42.8801 146.706 42.8101L146.076 42.7051C145.772 42.6351 145.621 42.4951 145.621 42.2851C145.621 42.0284 145.796 41.9001 146.146 41.9001H151.151C151.501 41.9001 151.676 42.0284 151.676 42.2851C151.676 42.5418 151.524 42.6818 151.221 42.7051L150.766 42.7751C150.159 42.8684 149.739 43.0668 149.506 43.3701C149.272 43.6501 149.156 44.1634 149.156 44.9101V66.2951C149.156 66.7151 149.074 67.0068 148.911 67.1701C148.771 67.3334 148.584 67.4151 148.351 67.4151ZM153.077 67.1001C152.727 67.1001 152.552 66.9718 152.552 66.7151C152.552 66.5051 152.704 66.3651 153.007 66.2951L153.812 66.1551C154.302 66.0618 154.617 65.9334 154.757 65.7701C154.92 65.6068 155.002 65.2801 155.002 64.7901V44.2101C155.002 43.7201 154.92 43.3934 154.757 43.2301C154.617 43.0668 154.302 42.9384 153.812 42.8451L153.007 42.7051C152.704 42.6351 152.552 42.4951 152.552 42.2851C152.552 42.0284 152.727 41.9001 153.077 41.9001H159.412C159.762 41.9001 159.937 42.0284 159.937 42.2851C159.937 42.4951 159.785 42.6351 159.482 42.7051L158.677 42.8451C158.187 42.9384 157.86 43.0668 157.697 43.2301C157.557 43.3934 157.487 43.7201 157.487 44.2101V64.7901C157.487 65.2801 157.557 65.6068 157.697 65.7701C157.86 65.9334 158.187 66.0618 158.677 66.1551L159.482 66.2951C159.785 66.3651 159.937 66.5051 159.937 66.7151C159.937 66.9718 159.762 67.1001 159.412 67.1001H153.077ZM170.263 67.4151C168.536 67.4151 167.02 66.8784 165.713 65.8051C164.43 64.7318 163.426 63.2268 162.703 61.2901C162.003 59.3301 161.653 57.0201 161.653 54.3601C161.653 51.7934 162.038 49.5534 162.808 47.6401C163.601 45.7034 164.651 44.2101 165.958 43.1601C167.288 42.0868 168.758 41.5501 170.368 41.5501C171.325 41.5501 172.165 41.6434 172.888 41.8301C173.611 41.9934 174.253 42.2151 174.813 42.4951C175.093 42.6584 175.233 42.9034 175.233 43.2301L175.338 48.5501C175.338 48.9468 175.198 49.1451 174.918 49.1451C174.661 49.1451 174.498 48.9934 174.428 48.6901L174.078 47.3951C173.588 45.5751 173.016 44.3151 172.363 43.6151C171.733 42.9151 170.975 42.5651 170.088 42.5651C168.455 42.5651 167.09 43.5801 165.993 45.6101C164.92 47.6168 164.383 50.5334 164.383 54.3601C164.383 56.9734 164.651 59.1784 165.188 60.9751C165.748 62.7718 166.46 64.1251 167.323 65.0351C168.21 65.9451 169.143 66.4001 170.123 66.4001C171.173 66.4001 172.013 66.0734 172.643 65.4201C173.296 64.7668 173.845 63.5068 174.288 61.6401L174.708 59.9251C174.778 59.5751 174.965 59.4234 175.268 59.4701C175.525 59.5168 175.653 59.7151 175.653 60.0651L175.513 65.7351C175.513 66.0618 175.361 66.3068 175.058 66.4701C174.498 66.7501 173.833 66.9718 173.063 67.1351C172.316 67.3218 171.383 67.4151 170.263 67.4151Z" fill="black"/>
<defs>
<linearGradient id="paint0_linear_219_111" x1="223.215" y1="8.28479e-07" x2="21.3335" y2="102.885" gradientUnits="userSpaceOnUse">
<stop offset="0.332359" stop-color="#B2F2FF"/>
<stop offset="1" stop-color="#86FF8F"/>
</linearGradient>
</defs>
</svg>
