<svg width="196" height="98" viewBox="0 0 196 98" fill="none" xmlns="http://www.w3.org/2000/svg">
<mask id="path-1-inside-1_219_110" fill="white">
<path fill-rule="evenodd" clip-rule="evenodd" d="M97.85 97.2332L102.085 97.2332L190.434 97.2333C194.233 97.2333 196.644 93.1638 194.82 89.8318L147.469 3.36508C146.592 1.76285 144.91 0.766642 143.084 0.766642L102.085 0.766644L93.3565 0.766644L52.3577 0.766646C50.531 0.766646 48.8496 1.76285 47.9722 3.36508L0.621612 89.8318C-1.20308 93.1638 1.20813 97.2334 5.00711 97.2333L97.85 97.2332Z"/>
</mask>
<path fill-rule="evenodd" clip-rule="evenodd" d="M97.85 97.2332L102.085 97.2332L190.434 97.2333C194.233 97.2333 196.644 93.1638 194.82 89.8318L147.469 3.36508C146.592 1.76285 144.91 0.766642 143.084 0.766642L102.085 0.766644L93.3565 0.766644L52.3577 0.766646C50.531 0.766646 48.8496 1.76285 47.9722 3.36508L0.621612 89.8318C-1.20308 93.1638 1.20813 97.2334 5.00711 97.2333L97.85 97.2332Z" fill="url(#paint0_linear_219_110)"/>
<path d="M102.085 97.2332L102.085 95.2332L102.085 97.2332ZM97.85 97.2332L97.85 99.2332L97.85 97.2332ZM93.3565 0.766644L93.3565 -1.23336L93.3565 0.766644ZM52.3577 0.766646L52.3577 2.76665L52.3577 0.766646ZM47.9722 3.36508L49.7264 4.32571L47.9722 3.36508ZM147.469 3.36508L145.715 4.3257L147.469 3.36508ZM0.621612 89.8318L-1.13258 88.8712L0.621612 89.8318ZM102.085 99.2332L97.85 99.2332L97.85 95.2332L102.085 95.2332L102.085 99.2332ZM190.434 99.2333L102.085 99.2332L102.085 95.2332L190.434 95.2333L190.434 99.2333ZM149.223 2.40445L196.574 88.8711L193.065 90.7924L145.715 4.3257L149.223 2.40445ZM102.085 -1.23336L143.084 -1.23336L143.084 2.76664L102.085 2.76664L102.085 -1.23336ZM102.085 2.76664L93.3565 2.76664L93.3565 -1.23336L102.085 -1.23336L102.085 2.76664ZM93.3565 2.76664L52.3577 2.76665L52.3577 -1.23335L93.3565 -1.23336L93.3565 2.76664ZM49.7264 4.32571L2.37581 90.7924L-1.13258 88.8712L46.218 2.40446L49.7264 4.32571ZM5.00711 95.2333L97.85 95.2332L97.85 99.2332L5.00711 99.2333L5.00711 95.2333ZM52.3577 2.76665C51.2617 2.76665 50.2529 3.36437 49.7264 4.32571L46.218 2.40446C47.4464 0.161338 49.8003 -1.23335 52.3577 -1.23335L52.3577 2.76665ZM145.715 4.3257C145.188 3.36437 144.18 2.76664 143.084 2.76664L143.084 -1.23336C145.641 -1.23336 147.995 0.161333 149.223 2.40445L145.715 4.3257ZM2.37581 90.7924C1.28099 92.7916 2.72772 95.2333 5.00711 95.2333L5.00711 99.2333C-0.311447 99.2334 -3.68715 93.5361 -1.13258 88.8712L2.37581 90.7924ZM190.434 95.2333C192.714 95.2333 194.16 92.7916 193.065 90.7924L196.574 88.8711C199.128 93.536 195.753 99.2333 190.434 99.2333L190.434 95.2333Z" fill="black" mask="url(#path-1-inside-1_219_110)"/>
<path d="M58.4852 70.1018C58.0352 70.1018 57.8102 69.9368 57.8102 69.6068C57.8102 69.3368 58.0052 69.1568 58.3952 69.0668L59.4302 68.8868C60.0602 68.7668 60.4652 68.6018 60.6452 68.3918C60.8552 68.1818 60.9602 67.7618 60.9602 67.1318V40.6718C60.9602 40.0418 60.8552 39.6218 60.6452 39.4118C60.4652 39.2018 60.0602 39.0368 59.4302 38.9168L58.3952 38.7368C58.0052 38.6468 57.8102 38.4668 57.8102 38.1968C57.8102 37.8668 58.0352 37.7018 58.4852 37.7018H72.9752C73.6652 37.7018 74.0402 38.0468 74.1002 38.7368L74.4602 46.2068C74.5202 46.7168 74.3252 46.9718 73.8752 46.9718C73.5152 46.9718 73.3052 46.7768 73.2452 46.3868L73.0202 44.9018C72.7802 43.3418 72.3602 42.1268 71.7602 41.2568C71.1602 40.3868 70.4852 39.7718 69.7352 39.4118C68.9852 39.0218 68.2652 38.8268 67.5752 38.8268C66.2552 38.8268 65.3552 39.0368 64.8752 39.4568C64.3952 39.8768 64.1552 40.5218 64.1552 41.3918V52.0118C64.1552 52.4318 64.3652 52.6418 64.7852 52.6418H66.3602C67.6802 52.6418 68.4902 51.9368 68.7902 50.5268L69.2852 48.2768C69.3752 47.8868 69.6002 47.6918 69.9602 47.6918C70.3202 47.6918 70.5002 47.9468 70.5002 48.4568V58.5818C70.5002 59.0918 70.3202 59.3468 69.9602 59.3468C69.6002 59.3468 69.3752 59.1518 69.2852 58.7618L68.7902 56.5568C68.5802 55.5068 68.2802 54.8168 67.8902 54.4868C67.5302 54.1568 67.0052 53.9918 66.3152 53.9918H64.7852C64.3652 53.9918 64.1552 54.2018 64.1552 54.6218V66.9068C64.1552 67.5368 64.2452 67.9868 64.4252 68.2568C64.6352 68.4968 65.0552 68.6618 65.6852 68.7518L67.8002 69.0668C68.1302 69.1268 68.2952 69.2918 68.2952 69.5618C68.2952 69.9218 68.0702 70.1018 67.6202 70.1018H58.4852ZM86.7607 70.5068C85.3207 70.5068 83.9707 70.0868 82.7107 69.2468C81.4507 68.3768 80.3407 67.1918 79.3807 65.6918C78.4507 64.1918 77.7157 62.4368 77.1757 60.4268C76.6657 58.3868 76.4107 56.1968 76.4107 53.8568C76.4107 51.5168 76.6657 49.3418 77.1757 47.3318C77.7157 45.3218 78.4507 43.5668 79.3807 42.0668C80.3407 40.5368 81.4507 39.3518 82.7107 38.5118C83.9707 37.6718 85.3207 37.2518 86.7607 37.2518C88.2007 37.2518 89.5357 37.6718 90.7657 38.5118C92.0257 39.3518 93.1357 40.5368 94.0957 42.0668C95.0557 43.5668 95.7907 45.3218 96.3007 47.3318C96.8407 49.3418 97.1107 51.5168 97.1107 53.8568C97.1107 56.1968 96.8407 58.3868 96.3007 60.4268C95.7907 62.4368 95.0557 64.1918 94.0957 65.6918C93.1357 67.1918 92.0257 68.3768 90.7657 69.2468C89.5357 70.0868 88.2007 70.5068 86.7607 70.5068ZM86.7607 69.2918C88.8907 69.2918 90.5557 68.0168 91.7557 65.4668C92.9557 62.9168 93.5557 59.0468 93.5557 53.8568C93.5557 48.6668 92.9557 44.8118 91.7557 42.2918C90.5557 39.7418 88.8907 38.4668 86.7607 38.4668C84.6607 38.4668 82.9957 39.7418 81.7657 42.2918C80.5657 44.8118 79.9657 48.6668 79.9657 53.8568C79.9657 59.0468 80.5657 62.9168 81.7657 65.4668C82.9957 68.0168 84.6607 69.2918 86.7607 69.2918ZM99.553 70.1018C99.103 70.1018 98.878 69.9368 98.878 69.6068C98.878 69.3368 99.073 69.1568 99.463 69.0668L100.498 68.8868C101.128 68.7668 101.533 68.6018 101.713 68.3918C101.923 68.1818 102.028 67.7618 102.028 67.1318V40.6718C102.028 40.0418 101.923 39.6218 101.713 39.4118C101.533 39.2018 101.128 39.0368 100.498 38.9168L99.463 38.7368C99.073 38.6468 98.878 38.4668 98.878 38.1968C98.878 37.8668 99.103 37.7018 99.553 37.7018H107.788C108.238 37.7018 108.463 37.8818 108.463 38.2418C108.463 38.5118 108.298 38.6768 107.968 38.7368L106.753 38.9168C106.123 39.0068 105.703 39.1718 105.493 39.4118C105.313 39.6518 105.223 40.0868 105.223 40.7168V65.9168C105.223 66.9968 105.523 67.7768 106.123 68.2568C106.753 68.7368 107.533 68.9768 108.463 68.9768C109.153 68.9768 109.858 68.8418 110.578 68.5718C111.328 68.2718 112.003 67.7318 112.603 66.9518C113.203 66.1418 113.653 64.9718 113.953 63.4418L114.538 60.4268C114.628 60.0368 114.853 59.8418 115.213 59.8418C115.633 59.8418 115.813 60.0968 115.753 60.6068L115.213 69.0668C115.153 69.7568 114.778 70.1018 114.088 70.1018H99.553ZM117.692 70.1018C117.242 70.1018 117.017 69.9368 117.017 69.6068C117.017 69.3368 117.212 69.1568 117.602 69.0668L118.637 68.8868C119.267 68.7668 119.672 68.6018 119.852 68.3918C120.062 68.1818 120.167 67.7618 120.167 67.1318V40.6718C120.167 40.0418 120.062 39.6218 119.852 39.4118C119.672 39.2018 119.267 39.0368 118.637 38.9168L117.602 38.7368C117.212 38.6468 117.017 38.4668 117.017 38.1968C117.017 37.8668 117.242 37.7018 117.692 37.7018H125.927C126.377 37.7018 126.602 37.8818 126.602 38.2418C126.602 38.5118 126.437 38.6768 126.107 38.7368L124.892 38.9168C124.262 39.0068 123.842 39.1718 123.632 39.4118C123.452 39.6518 123.362 40.0868 123.362 40.7168V52.8668C123.362 53.1668 123.452 53.3468 123.632 53.4068C123.812 53.4668 123.977 53.3618 124.127 53.0918L131.507 41.5268C132.497 39.9968 132.407 39.1268 131.237 38.9168L130.202 38.7368C129.812 38.6468 129.617 38.4518 129.617 38.1518C129.617 37.8518 129.827 37.7018 130.247 37.7018H137.897C138.317 37.7018 138.527 37.8668 138.527 38.1968C138.527 38.5268 138.332 38.7068 137.942 38.7368L137.087 38.8268C136.157 38.9168 135.392 39.1868 134.792 39.6368C134.192 40.0868 133.517 40.8968 132.767 42.0668L127.682 50.0318C127.382 50.5418 127.367 51.0368 127.637 51.5168L136.097 67.4468C136.337 67.9268 136.577 68.2718 136.817 68.4818C137.087 68.6918 137.402 68.8268 137.762 68.8868L138.842 69.0668C139.202 69.0968 139.382 69.2768 139.382 69.6068C139.382 69.9368 139.172 70.1018 138.752 70.1018H130.742C130.322 70.1018 130.112 69.9368 130.112 69.6068C130.112 69.3068 130.307 69.1268 130.697 69.0668L131.462 68.9768C132.632 68.8268 132.872 68.0918 132.182 66.7718L125.702 54.4418C125.582 54.2018 125.447 54.0818 125.297 54.0818C125.147 54.0518 124.997 54.1568 124.847 54.3968L123.902 55.8818C123.692 56.1818 123.542 56.4668 123.452 56.7368C123.392 57.0068 123.362 57.3518 123.362 57.7718V67.0868C123.362 67.7168 123.452 68.1518 123.632 68.3918C123.842 68.6318 124.262 68.7968 124.892 68.8868L126.107 69.0668C126.437 69.1268 126.602 69.2918 126.602 69.5618C126.602 69.9218 126.377 70.1018 125.927 70.1018H117.692Z" fill="black"/>
<defs>
<linearGradient id="paint0_linear_219_110" x1="207.073" y1="26.0833" x2="173.744" y2="130.896" gradientUnits="userSpaceOnUse">
<stop offset="0.13158" stop-color="#FFECDB"/>
<stop offset="0.916137" stop-color="#9BDABE"/>
</linearGradient>
</defs>
</svg>
