<svg width="201" height="124" viewBox="0 0 201 124" fill="none" xmlns="http://www.w3.org/2000/svg">
<path d="M86.6673 13.1385C94.7834 6.67581 106.514 6.67581 114.63 13.1385C120.032 17.4403 127.093 19.2594 133.898 18.0336L146.037 15.8469C152.548 14.6742 158.603 19.4976 158.916 26.1052C159.198 32.0565 163.436 37.0792 169.255 38.3577L177.797 40.2343C184.287 41.6601 186.445 49.8283 181.506 54.2731C176.918 58.4026 176.918 65.5974 181.506 69.7269C186.445 74.1718 184.287 82.3399 177.797 83.7657L169.255 85.6423C163.436 86.9208 159.198 91.9435 158.916 97.8948C158.603 104.502 152.548 109.326 146.037 108.153L133.898 105.966C127.093 104.741 120.032 106.56 114.63 110.862C106.514 117.324 94.7834 117.324 86.6673 110.862C81.2649 106.56 74.204 104.741 67.3992 105.966L55.2597 108.153C48.7495 109.326 42.694 104.502 42.3812 97.8948C42.0994 91.9435 37.8609 86.9208 32.0417 85.6423L23.4998 83.7657C17.0103 82.3399 14.8525 74.1718 19.7911 69.7269C24.3794 65.5974 24.3794 58.4026 19.7911 54.2731C14.8525 49.8283 17.0103 41.6601 23.4998 40.2343L32.0417 38.3577C37.8609 37.0792 42.0994 32.0566 42.3812 26.1052C42.694 19.4976 48.7495 14.6742 55.2597 15.8469L67.3992 18.0336C74.204 19.2594 81.2649 17.4403 86.6673 13.1385Z" fill="url(#paint0_linear_219_112)" stroke="black" stroke-width="2.23353"/>
<path d="M57.2847 77.0364C56.8347 77.0364 56.6097 76.8714 56.6097 76.5414C56.6097 76.2714 56.8047 76.0914 57.1947 76.0014L58.2297 75.8214C58.8597 75.7014 59.2647 75.5364 59.4447 75.3264C59.6547 75.1164 59.7597 74.6964 59.7597 74.0664V47.6064C59.7597 46.9764 59.6547 46.5564 59.4447 46.3464C59.2647 46.1364 58.8597 45.9714 58.2297 45.8514L57.1947 45.6714C56.8047 45.5814 56.6097 45.4014 56.6097 45.1314C56.6097 44.8014 56.8347 44.6364 57.2847 44.6364H71.7747C72.4647 44.6364 72.8397 44.9814 72.8997 45.6714L73.2597 53.1414C73.3197 53.6514 73.1247 53.9064 72.6747 53.9064C72.3147 53.9064 72.1047 53.7114 72.0447 53.3214L71.8197 51.8364C71.5797 50.2764 71.1597 49.0614 70.5597 48.1914C69.9597 47.3214 69.2847 46.7064 68.5347 46.3464C67.7847 45.9564 67.0647 45.7614 66.3747 45.7614C65.0547 45.7614 64.1547 45.9714 63.6747 46.3914C63.1947 46.8114 62.9547 47.4564 62.9547 48.3264V58.9464C62.9547 59.3664 63.1647 59.5764 63.5847 59.5764H65.1597C66.4797 59.5764 67.2897 58.8714 67.5897 57.4614L68.0847 55.2114C68.1747 54.8214 68.3997 54.6264 68.7597 54.6264C69.1197 54.6264 69.2997 54.8814 69.2997 55.3914V65.5164C69.2997 66.0264 69.1197 66.2814 68.7597 66.2814C68.3997 66.2814 68.1747 66.0864 68.0847 65.6964L67.5897 63.4914C67.3797 62.4414 67.0797 61.7514 66.6897 61.4214C66.3297 61.0914 65.8047 60.9264 65.1147 60.9264H63.5847C63.1647 60.9264 62.9547 61.1364 62.9547 61.5564V73.8414C62.9547 74.4714 63.0447 74.9214 63.2247 75.1914C63.4347 75.4314 63.8547 75.5964 64.4847 75.6864L66.5997 76.0014C66.9297 76.0614 67.0947 76.2264 67.0947 76.4964C67.0947 76.8564 66.8697 77.0364 66.4197 77.0364H57.2847ZM86.4988 77.4414C84.8788 77.4414 83.4388 77.0664 82.1788 76.3164C80.9488 75.5364 79.9888 74.4714 79.2988 73.1214C78.6088 71.7414 78.2638 70.1664 78.2638 68.3964V47.6064C78.2638 46.9764 78.1588 46.5564 77.9488 46.3464C77.7688 46.1364 77.3638 45.9714 76.7338 45.8514L75.6988 45.6714C75.3088 45.5814 75.1138 45.4014 75.1138 45.1314C75.1138 44.8014 75.3388 44.6364 75.7888 44.6364H84.0238C84.4738 44.6364 84.6988 44.8164 84.6988 45.1764C84.6988 45.4464 84.5338 45.6114 84.2038 45.6714L82.9888 45.8514C82.3888 45.9414 81.9838 46.1064 81.7738 46.3464C81.5638 46.5864 81.4588 47.0214 81.4588 47.6514V68.4414C81.4588 70.7214 81.9688 72.4914 82.9888 73.7514C84.0088 75.0114 85.4338 75.6414 87.2638 75.6414C89.1238 75.6414 90.5638 75.0114 91.5838 73.7514C92.6038 72.4914 93.1138 70.7214 93.1138 68.4414V48.5514C93.1138 46.9314 92.6038 46.0314 91.5838 45.8514L90.3688 45.6714C90.0388 45.6114 89.8738 45.4464 89.8738 45.1764C89.8738 44.8164 90.0988 44.6364 90.5488 44.6364H97.0288C97.4788 44.6364 97.7038 44.8014 97.7038 45.1314C97.7038 45.4014 97.5088 45.5814 97.1188 45.6714L96.0838 45.8514C95.0638 46.0314 94.5538 46.9164 94.5538 48.5064V68.3964C94.5538 71.1264 93.8188 73.3164 92.3488 74.9664C90.8788 76.6164 88.9288 77.4414 86.4988 77.4414ZM117.555 77.4414C117.075 77.4414 116.67 77.0814 116.34 76.3614L104.145 49.9014C104.055 49.6914 103.935 49.6014 103.785 49.6314C103.665 49.6614 103.605 49.7964 103.605 50.0364V73.1664C103.605 74.0064 103.74 74.6514 104.01 75.1014C104.31 75.5214 104.835 75.7914 105.585 75.9114L106.17 76.0014C106.56 76.0314 106.755 76.2114 106.755 76.5414C106.755 76.8714 106.53 77.0364 106.08 77.0364H99.6448C99.1948 77.0364 98.9698 76.8714 98.9698 76.5414C98.9698 76.2114 99.1648 76.0314 99.5548 76.0014L100.14 75.9114C100.92 75.7914 101.46 75.5214 101.76 75.1014C102.06 74.6514 102.21 74.0064 102.21 73.1664V47.6064C102.21 46.9764 102.105 46.5564 101.895 46.3464C101.715 46.1364 101.28 45.9714 100.59 45.8514L99.5548 45.6714C99.1648 45.5814 98.9698 45.4014 98.9698 45.1314C98.9698 44.8014 99.1948 44.6364 99.6448 44.6364H104.46C105.21 44.6364 105.735 44.9664 106.035 45.6264L116.655 68.9814C116.745 69.1614 116.85 69.2364 116.97 69.2064C117.12 69.1764 117.195 69.0714 117.195 68.8914V48.5064C117.195 47.5464 117.03 46.8864 116.7 46.5264C116.37 46.1364 115.95 45.8964 115.44 45.8064L114.63 45.6714C114.24 45.5814 114.045 45.4014 114.045 45.1314C114.045 44.8014 114.27 44.6364 114.72 44.6364H121.155C121.605 44.6364 121.83 44.8014 121.83 45.1314C121.83 45.4614 121.635 45.6414 121.245 45.6714L120.66 45.7614C119.88 45.8814 119.34 46.1364 119.04 46.5264C118.74 46.8864 118.59 47.5464 118.59 48.5064V76.0014C118.59 76.5414 118.485 76.9164 118.275 77.1264C118.095 77.3364 117.855 77.4414 117.555 77.4414ZM124.082 77.0364C123.632 77.0364 123.407 76.8714 123.407 76.5414C123.407 76.2714 123.602 76.0914 123.992 76.0014L125.027 75.8214C125.657 75.7014 126.062 75.5364 126.242 75.3264C126.452 75.1164 126.557 74.6964 126.557 74.0664V47.6064C126.557 46.9764 126.452 46.5564 126.242 46.3464C126.062 46.1364 125.657 45.9714 125.027 45.8514L123.992 45.6714C123.602 45.5814 123.407 45.4014 123.407 45.1314C123.407 44.8014 123.632 44.6364 124.082 44.6364H132.317C132.767 44.6364 132.992 44.8164 132.992 45.1764C132.992 45.4464 132.827 45.6114 132.497 45.6714L131.282 45.8514C130.652 45.9414 130.232 46.1064 130.022 46.3464C129.842 46.5864 129.752 47.0214 129.752 47.6514V59.8014C129.752 60.1014 129.842 60.2814 130.022 60.3414C130.202 60.4014 130.367 60.2964 130.517 60.0264L137.897 48.4614C138.887 46.9314 138.797 46.0614 137.627 45.8514L136.592 45.6714C136.202 45.5814 136.007 45.3864 136.007 45.0864C136.007 44.7864 136.217 44.6364 136.637 44.6364H144.287C144.707 44.6364 144.917 44.8014 144.917 45.1314C144.917 45.4614 144.722 45.6414 144.332 45.6714L143.477 45.7614C142.547 45.8514 141.782 46.1214 141.182 46.5714C140.582 47.0214 139.907 47.8314 139.157 49.0014L134.072 56.9664C133.772 57.4764 133.757 57.9714 134.027 58.4514L142.487 74.3814C142.727 74.8614 142.967 75.2064 143.207 75.4164C143.477 75.6264 143.792 75.7614 144.152 75.8214L145.232 76.0014C145.592 76.0314 145.772 76.2114 145.772 76.5414C145.772 76.8714 145.562 77.0364 145.142 77.0364H137.132C136.712 77.0364 136.502 76.8714 136.502 76.5414C136.502 76.2414 136.697 76.0614 137.087 76.0014L137.852 75.9114C139.022 75.7614 139.262 75.0264 138.572 73.7064L132.092 61.3764C131.972 61.1364 131.837 61.0164 131.687 61.0164C131.537 60.9864 131.387 61.0914 131.237 61.3314L130.292 62.8164C130.082 63.1164 129.932 63.4014 129.842 63.6714C129.782 63.9414 129.752 64.2864 129.752 64.7064V74.0214C129.752 74.6514 129.842 75.0864 130.022 75.3264C130.232 75.5664 130.652 75.7314 131.282 75.8214L132.497 76.0014C132.827 76.0614 132.992 76.2264 132.992 76.4964C132.992 76.8564 132.767 77.0364 132.317 77.0364H124.082Z" fill="black"/>
<defs>
<linearGradient id="paint0_linear_219_112" x1="132.586" y1="13.7216" x2="11.0828" y2="109.207" gradientUnits="userSpaceOnUse">
<stop offset="0.198191" stop-color="#FBD6F2"/>
<stop offset="1" stop-color="#C25AF5"/>
</linearGradient>
</defs>
</svg>
