<svg width="197" height="113" viewBox="0 0 197 113" fill="none" xmlns="http://www.w3.org/2000/svg">
<path d="M15.96 76.6573L17.1071 75.3696L15.4198 75.0136C10.7334 74.0248 7.16762 72.2338 4.76146 69.3476C2.35804 66.4646 0.999974 62.3545 0.999974 56.4999C0.999975 50.6453 2.35804 46.5352 4.76147 43.6522C7.16762 40.766 10.7334 38.9751 15.4198 37.9862L17.1071 37.6302L15.96 36.3426C14.8315 35.0758 14.1944 33.8373 14.0182 32.5981C13.8436 31.3709 14.1047 30.0297 14.978 28.5162C16.7611 25.4258 20.9982 21.7867 28.6181 17.4159C43.3295 8.97741 53.7299 7.4981 62.7165 9.88366L63.4308 10.0733L63.8217 9.44614C65.3958 6.92106 68.42 4.79541 73.8507 3.30651C79.2827 1.81727 86.9995 1.00001 97.7702 1.00001C108.541 1.00002 116.258 1.81728 121.69 3.30654C127.121 4.79546 130.145 6.92114 131.719 9.44625L132.11 10.0734L132.824 9.88378C141.811 7.4981 152.211 8.97734 166.923 17.4159C174.429 21.7215 178.655 25.3183 180.484 28.382C181.382 29.8853 181.677 31.218 181.544 32.4332C181.41 33.6563 180.83 34.8751 179.774 36.1204L178.646 37.4509L180.364 37.752C185.445 38.6424 189.315 40.3787 191.924 43.289C194.525 46.1895 196 50.3978 196 56.4999C196 62.602 194.525 66.8104 191.924 69.7109C189.315 72.6213 185.445 74.3575 180.364 75.248L178.646 75.5491L179.774 76.8795C180.83 78.1249 181.41 79.3436 181.544 80.5668C181.677 81.782 181.382 83.1147 180.484 84.618C178.655 87.6817 174.429 91.2785 166.923 95.5841C152.211 104.023 141.811 105.502 132.824 103.116L132.11 102.927L131.719 103.554C130.145 106.079 127.121 108.205 121.69 109.693C116.258 111.183 108.541 112 97.7702 112C86.9995 112 79.2826 111.183 73.8507 109.693C68.42 108.205 65.3957 106.079 63.8217 103.554L63.4307 102.927L62.7165 103.116C53.7298 105.502 43.3293 104.023 28.6179 95.5841C20.9979 91.2132 16.7607 87.5741 14.9776 84.4837C14.1044 82.9702 13.8434 81.629 14.018 80.4018C14.1943 79.1626 14.8314 77.9241 15.96 76.6573Z" fill="url(#paint0_linear_135_1298)" stroke="black" stroke-width="2"/>
<path d="M49.9923 72.1931C47.5623 72.1931 45.5073 71.5031 43.8273 70.1231C42.1473 68.7431 40.8723 66.8081 40.0023 64.3181C39.1323 61.7981 38.6973 58.8281 38.6973 55.4081C38.6973 52.1081 39.2073 49.2281 40.2273 46.7681C41.2473 44.2781 42.6423 42.3581 44.4123 41.0081C46.2123 39.6281 48.2673 38.9381 50.5773 38.9381C51.7473 38.9381 52.8123 39.0581 53.7723 39.2981C54.7323 39.5081 55.5723 39.7931 56.2923 40.1531C56.6823 40.3631 56.8773 40.6781 56.8773 41.0981L57.0123 47.9381C57.0123 48.4481 56.8323 48.7031 56.4723 48.7031C56.1423 48.7031 55.9323 48.5081 55.8423 48.1181L55.4823 46.7681C54.8223 44.2781 54.0723 42.5681 53.2323 41.6381C52.3923 40.7081 51.2373 40.2431 49.7673 40.2431C47.5773 40.2431 45.7623 41.5481 44.3223 44.1581C42.9123 46.7381 42.2073 50.4881 42.2073 55.4081C42.2073 60.4781 42.9273 64.3481 44.3673 67.0181C45.8373 69.6581 47.7123 70.9781 49.9923 70.9781C51.2223 70.9781 52.1523 70.7081 52.7823 70.1681C53.4123 69.6281 53.7273 68.6231 53.7273 67.1531L53.7273 57.2981C53.7273 56.6681 53.6223 56.2331 53.4123 55.9931C53.2323 55.7531 52.8273 55.6031 52.1973 55.5431L50.4423 55.3631C50.0523 55.3331 49.8573 55.1531 49.8573 54.8231C49.8573 54.4931 50.0823 54.3281 50.5323 54.3281L58.7673 54.3281C59.2173 54.3281 59.4423 54.5081 59.4423 54.8681C59.4423 55.1381 59.2773 55.3031 58.9473 55.3631L58.2723 55.4531C57.6123 55.5431 57.2223 55.7231 57.1023 55.9931C56.9823 56.2631 56.9223 56.7131 56.9223 57.3431L56.9223 69.5381C56.9223 69.8681 56.8323 70.1381 56.6523 70.3481C56.4723 70.5281 56.1573 70.7381 55.7073 70.9781C54.9873 71.3381 54.1623 71.6231 53.2323 71.8331C52.3023 72.0731 51.2223 72.1931 49.9923 72.1931ZM72.0641 72.1931C70.6241 72.1931 69.2741 71.7731 68.0141 70.9331C66.7541 70.0631 65.6441 68.8781 64.6841 67.3781C63.7541 65.8781 63.0191 64.1231 62.4791 62.1131C61.9691 60.0731 61.7141 57.8831 61.7141 55.5431C61.7141 53.2031 61.9691 51.0281 62.4791 49.0181C63.0191 47.0081 63.7541 45.2531 64.6841 43.7531C65.6441 42.2231 66.7541 41.0381 68.0141 40.1981C69.2741 39.3581 70.6241 38.9381 72.0641 38.9381C73.5041 38.9381 74.8391 39.3581 76.0691 40.1981C77.3291 41.0381 78.4391 42.2231 79.3991 43.7531C80.3591 45.2531 81.0941 47.0081 81.6041 49.0181C82.1441 51.0281 82.4141 53.2031 82.4141 55.5431C82.4141 57.8831 82.1441 60.0731 81.6041 62.1131C81.0941 64.1231 80.3591 65.8781 79.3991 67.3781C78.4391 68.8781 77.3291 70.0631 76.0691 70.9331C74.8391 71.7731 73.5041 72.1931 72.0641 72.1931ZM72.0641 70.9781C74.1941 70.9781 75.8591 69.7031 77.0591 67.1531C78.2591 64.6031 78.8591 60.7331 78.8591 55.5431C78.8591 50.3531 78.2591 46.4981 77.0591 43.9781C75.8591 41.4281 74.1941 40.1531 72.0641 40.1531C69.9641 40.1531 68.2991 41.4281 67.0691 43.9781C65.8691 46.4981 65.2691 50.3531 65.2691 55.5431C65.2691 60.7331 65.8691 64.6031 67.0691 67.1531C68.2991 69.7031 69.9641 70.9781 72.0641 70.9781ZM92.0458 72.1931C91.4458 72.1931 90.7708 72.1331 90.0208 72.0131C89.3008 71.8931 88.6108 71.7431 87.9508 71.5631C87.3208 71.3831 86.8258 71.1881 86.4658 70.9781C86.2558 70.8581 86.0908 70.7381 85.9708 70.6181C85.8808 70.4681 85.8358 70.2281 85.8358 69.8981L85.6108 62.8331C85.6108 62.2331 85.8058 61.9331 86.1958 61.9331C86.5258 61.9331 86.7508 62.2031 86.8708 62.7431L87.2758 64.4531C88.2958 68.7431 90.2008 70.8881 92.9908 70.8881C94.4908 70.8881 95.6758 70.3931 96.5458 69.4031C97.4458 68.3831 97.8958 66.9581 97.8958 65.1281C97.8958 63.3581 97.4308 61.7081 96.5008 60.1781C95.6008 58.6481 94.1458 57.1331 92.1358 55.6331C89.9158 54.0431 88.2958 52.5131 87.2758 51.0431C86.2558 49.5431 85.7458 47.9531 85.7458 46.2731C85.7458 44.0531 86.5108 42.2831 88.0408 40.9631C89.6008 39.6131 91.5808 38.9381 93.9808 38.9381C94.8808 38.9381 95.7508 39.0431 96.5908 39.2531C97.4308 39.4631 98.1208 39.7631 98.6608 40.1531C98.8408 40.2731 98.9758 40.4081 99.0658 40.5581C99.1858 40.7081 99.2458 40.9031 99.2458 41.1431L99.3808 47.9381C99.3808 48.4481 99.1858 48.7031 98.7958 48.7031C98.5258 48.7031 98.3308 48.4931 98.2108 48.0731L97.8958 46.9481C97.2358 44.6381 96.5458 42.9581 95.8258 41.9081C95.1358 40.8281 94.1308 40.2881 92.8108 40.2881C91.5208 40.2881 90.4858 40.7081 89.7058 41.5481C88.9558 42.3881 88.5808 43.5731 88.5808 45.1031C88.5808 46.3931 89.0008 47.6231 89.8408 48.7931C90.6808 49.9631 92.1508 51.3881 94.2508 53.0681C96.5008 54.8981 98.1358 56.6681 99.1558 58.3781C100.206 60.0581 100.731 61.8581 100.731 63.7781C100.731 65.4581 100.356 66.9281 99.6058 68.1881C98.8558 69.4481 97.8208 70.4381 96.5008 71.1581C95.2108 71.8481 93.7258 72.1931 92.0458 72.1931ZM102.907 71.7881C102.457 71.7881 102.232 71.6231 102.232 71.2931C102.232 71.0231 102.427 70.8431 102.817 70.7531L103.852 70.5731C104.482 70.4531 104.887 70.2881 105.067 70.0781C105.277 69.8681 105.382 69.4481 105.382 68.8181L105.382 42.3581C105.382 41.7281 105.277 41.3081 105.067 41.0981C104.887 40.8881 104.482 40.7231 103.852 40.6031L102.817 40.4231C102.427 40.3331 102.232 40.1531 102.232 39.8831C102.232 39.5531 102.457 39.3881 102.907 39.3881L112.312 39.3881C114.082 39.3881 115.642 39.7781 116.992 40.5581C118.342 41.3081 119.392 42.3581 120.142 43.7081C120.892 45.0581 121.267 46.6181 121.267 48.3881C121.267 50.0981 120.892 51.6131 120.142 52.9331C119.392 54.2531 118.357 55.2881 117.037 56.0381C115.717 56.7581 114.187 57.1181 112.447 57.1181L109.207 57.1181C108.787 57.1181 108.577 57.3281 108.577 57.7481L108.577 68.6381C108.577 69.2681 108.697 69.7031 108.937 69.9431C109.177 70.1531 109.717 70.3331 110.557 70.4831L112.222 70.7531C112.552 70.8131 112.717 70.9781 112.717 71.2481C112.717 71.6081 112.492 71.7881 112.042 71.7881L102.907 71.7881ZM108.577 53.5181C108.577 55.1681 109.582 55.9931 111.592 55.9931C113.542 55.9931 115.072 55.3031 116.182 53.9231C117.322 52.5431 117.892 50.6531 117.892 48.2531C117.892 45.7931 117.322 43.8881 116.182 42.5381C115.042 41.1881 113.422 40.5131 111.322 40.5131C109.492 40.5131 108.577 41.1131 108.577 42.3131L108.577 53.5181ZM123.419 71.7881C122.969 71.7881 122.744 71.6231 122.744 71.2931C122.744 71.0231 122.939 70.8431 123.329 70.7531L124.364 70.5731C124.994 70.4531 125.399 70.2881 125.579 70.0781C125.789 69.8681 125.894 69.4481 125.894 68.8181L125.894 42.3581C125.894 41.7281 125.789 41.3081 125.579 41.0981C125.399 40.8881 124.994 40.7231 124.364 40.6031L123.329 40.4231C122.939 40.3331 122.744 40.1531 122.744 39.8831C122.744 39.5531 122.969 39.3881 123.419 39.3881L138.539 39.3881C139.229 39.3881 139.604 39.7331 139.664 40.4231L140.024 47.8931C140.084 48.4031 139.889 48.6581 139.439 48.6581C139.079 48.6581 138.869 48.4631 138.809 48.0731L138.539 46.4081C138.209 44.3681 137.534 42.8831 136.514 41.9531C135.494 40.9931 134.084 40.5131 132.284 40.5131C131.084 40.5131 130.244 40.6931 129.764 41.0531C129.314 41.3831 129.089 41.9831 129.089 42.8531L129.089 53.6981C129.089 54.1181 129.299 54.3281 129.719 54.3281L131.969 54.3281C133.289 54.3281 134.099 53.6231 134.399 52.2131L134.849 49.9631C134.969 49.5131 135.224 49.3181 135.614 49.3781C135.944 49.4381 136.109 49.6931 136.109 50.1431L136.109 60.2681C136.109 60.7181 135.944 60.9731 135.614 61.0331C135.224 61.0931 134.969 60.8981 134.849 60.4481L134.399 58.2431C134.189 57.1931 133.889 56.5031 133.499 56.1731C133.139 55.8431 132.614 55.6781 131.924 55.6781L129.719 55.6781C129.299 55.6781 129.089 55.8881 129.089 56.3081L129.089 67.6031C129.089 68.6831 129.359 69.4631 129.899 69.9431C130.469 70.4231 131.489 70.6631 132.959 70.6631C134.459 70.6631 135.734 70.2881 136.784 69.5381C137.864 68.7581 138.614 67.3181 139.034 65.2181L139.574 62.5631C139.664 62.1731 139.889 61.9781 140.249 61.9781C140.669 61.9781 140.849 62.2331 140.789 62.7431L140.339 70.7531C140.279 71.4431 139.904 71.7881 139.214 71.7881L123.419 71.7881ZM143.36 71.7881C142.91 71.7881 142.685 71.6231 142.685 71.2931C142.685 71.0231 142.88 70.8431 143.27 70.7531L144.305 70.5731C144.935 70.4531 145.34 70.2881 145.52 70.0781C145.73 69.8681 145.835 69.4481 145.835 68.8181L145.835 42.3581C145.835 41.7281 145.73 41.3081 145.52 41.0981C145.34 40.8881 144.935 40.7231 144.305 40.6031L143.27 40.4231C142.88 40.3331 142.685 40.1531 142.685 39.8831C142.685 39.5531 142.91 39.3881 143.36 39.3881L151.595 39.3881C152.045 39.3881 152.27 39.5681 152.27 39.9281C152.27 40.1981 152.105 40.3631 151.775 40.4231L150.56 40.6031C149.93 40.6931 149.51 40.8581 149.3 41.0981C149.12 41.3381 149.03 41.7731 149.03 42.4031L149.03 67.6031C149.03 68.6831 149.33 69.4631 149.93 69.9431C150.56 70.4231 151.34 70.6631 152.27 70.6631C152.96 70.6631 153.665 70.5281 154.385 70.2581C155.135 69.9581 155.81 69.4181 156.41 68.6381C157.01 67.8281 157.46 66.6581 157.76 65.1281L158.345 62.1131C158.435 61.7231 158.66 61.5281 159.02 61.5281C159.44 61.5281 159.62 61.7831 159.56 62.2931L159.02 70.7531C158.96 71.4431 158.585 71.7881 157.895 71.7881L143.36 71.7881Z" fill="black"/>
<defs>
<linearGradient id="paint0_linear_135_1298" x1="51.7006" y1="119.725" x2="155.919" y2="2.67239" gradientUnits="userSpaceOnUse">
<stop stop-color="#99ECF2"/>
<stop offset="1" stop-color="#FCFFD0"/>
</linearGradient>
</defs>
</svg>
