<svg width="194" height="110" viewBox="0 0 194 110" fill="none" xmlns="http://www.w3.org/2000/svg">
<path d="M95.7183 1.71415C96.6971 1.30942 97.7964 1.30941 98.7753 1.71415L183.527 36.7589C185.753 37.6796 186.667 40.3458 185.472 42.4385L154.62 96.4791C153.908 97.7262 152.582 98.4959 151.146 98.4959H43.3473C41.9113 98.4959 40.5855 97.7262 39.8736 96.4791L9.02166 42.4385C7.82695 40.3458 8.74011 37.6796 10.9669 36.7588L95.7183 1.71415Z" fill="url(#paint0_linear_226_123)" stroke="black" stroke-width="2"/>
<path d="M32.5336 69.1667C32.0836 69.1667 31.8586 69.0017 31.8586 68.6717C31.8586 68.4017 32.0536 68.2217 32.4436 68.1317L33.4786 67.9517C34.1086 67.8317 34.5136 67.6667 34.6936 67.4567C34.9036 67.2467 35.0086 66.8267 35.0086 66.1967V39.7367C35.0086 39.1067 34.9036 38.6867 34.6936 38.4767C34.5136 38.2667 34.1086 38.1017 33.4786 37.9817L32.4436 37.8017C32.0536 37.7117 31.8586 37.5317 31.8586 37.2617C31.8586 36.9317 32.0836 36.7667 32.5336 36.7667H40.7686C41.2186 36.7667 41.4436 36.9467 41.4436 37.3067C41.4436 37.5767 41.2786 37.7417 40.9486 37.8017L39.7336 37.9817C39.1036 38.0717 38.6836 38.2367 38.4736 38.4767C38.2936 38.7167 38.2036 39.1517 38.2036 39.7817V51.0767C38.2036 51.4967 38.4136 51.7067 38.8336 51.7067H47.7436C48.1636 51.7067 48.3736 51.4967 48.3736 51.0767V39.7817C48.3736 39.1517 48.2686 38.7167 48.0586 38.4767C47.8786 38.2367 47.4736 38.0717 46.8436 37.9817L45.6286 37.8017C45.2986 37.7417 45.1336 37.5767 45.1336 37.3067C45.1336 36.9467 45.3586 36.7667 45.8086 36.7667H54.0436C54.4936 36.7667 54.7186 36.9317 54.7186 37.2617C54.7186 37.5317 54.5236 37.7117 54.1336 37.8017L53.0986 37.9817C52.4686 38.1017 52.0486 38.2667 51.8386 38.4767C51.6586 38.6867 51.5686 39.1067 51.5686 39.7367V66.1967C51.5686 66.8267 51.6586 67.2467 51.8386 67.4567C52.0486 67.6667 52.4686 67.8317 53.0986 67.9517L54.1336 68.1317C54.5236 68.2217 54.7186 68.4017 54.7186 68.6717C54.7186 69.0017 54.4936 69.1667 54.0436 69.1667H45.8086C45.3586 69.1667 45.1336 68.9867 45.1336 68.6267C45.1336 68.3567 45.2986 68.1917 45.6286 68.1317L46.8436 67.9517C47.4736 67.8617 47.8786 67.6967 48.0586 67.4567C48.2686 67.2167 48.3736 66.7817 48.3736 66.1517V53.6867C48.3736 53.2667 48.1636 53.0567 47.7436 53.0567H38.8336C38.4136 53.0567 38.2036 53.2667 38.2036 53.6867V66.1517C38.2036 66.7817 38.2936 67.2167 38.4736 67.4567C38.6836 67.6967 39.1036 67.8617 39.7336 67.9517L40.9486 68.1317C41.2786 68.1917 41.4436 68.3567 41.4436 68.6267C41.4436 68.9867 41.2186 69.1667 40.7686 69.1667H32.5336ZM57.099 69.1667C56.649 69.1667 56.424 69.0017 56.424 68.6717C56.424 68.4017 56.619 68.2217 57.009 68.1317L58.044 67.9517C58.674 67.8317 59.079 67.6667 59.259 67.4567C59.469 67.2467 59.574 66.8267 59.574 66.1967V39.7367C59.574 39.1067 59.469 38.6867 59.259 38.4767C59.079 38.2667 58.674 38.1017 58.044 37.9817L57.009 37.8017C56.619 37.7117 56.424 37.5317 56.424 37.2617C56.424 36.9317 56.649 36.7667 57.099 36.7667H65.244C65.694 36.7667 65.919 36.9317 65.919 37.2617C65.919 37.5317 65.724 37.7117 65.334 37.8017L64.299 37.9817C63.669 38.1017 63.249 38.2667 63.039 38.4767C62.859 38.6867 62.769 39.1067 62.769 39.7367V66.1967C62.769 66.8267 62.859 67.2467 63.039 67.4567C63.249 67.6667 63.669 67.8317 64.299 67.9517L65.334 68.1317C65.724 68.2217 65.919 68.4017 65.919 68.6717C65.919 69.0017 65.694 69.1667 65.244 69.1667H57.099ZM68.3051 69.1667C67.8551 69.1667 67.6301 69.0017 67.6301 68.6717C67.6301 68.4017 67.8251 68.2217 68.2151 68.1317L69.2501 67.9517C69.8801 67.8317 70.2851 67.6667 70.4651 67.4567C70.6751 67.2467 70.7801 66.8267 70.7801 66.1967V39.7367C70.7801 39.1067 70.6751 38.6867 70.4651 38.4767C70.2851 38.2667 69.8801 38.1017 69.2501 37.9817L68.2151 37.8017C67.8251 37.7117 67.6301 37.5317 67.6301 37.2617C67.6301 36.9317 67.8551 36.7667 68.3051 36.7667H77.7101C79.4801 36.7667 81.0401 37.1567 82.3901 37.9367C83.7401 38.6867 84.7901 39.7367 85.5401 41.0867C86.2901 42.4367 86.6651 43.9967 86.6651 45.7667C86.6651 47.4767 86.2901 48.9917 85.5401 50.3117C84.7901 51.6317 83.7551 52.6667 82.4351 53.4167C81.1151 54.1367 79.5851 54.4967 77.8451 54.4967H74.6051C74.1851 54.4967 73.9751 54.7067 73.9751 55.1267V66.0167C73.9751 66.6467 74.0951 67.0817 74.3351 67.3217C74.5751 67.5317 75.1151 67.7117 75.9551 67.8617L77.6201 68.1317C77.9501 68.1917 78.1151 68.3567 78.1151 68.6267C78.1151 68.9867 77.8901 69.1667 77.4401 69.1667H68.3051ZM73.9751 50.8967C73.9751 52.5467 74.9801 53.3717 76.9901 53.3717C78.9401 53.3717 80.4701 52.6817 81.5801 51.3017C82.7201 49.9217 83.2901 48.0317 83.2901 45.6317C83.2901 43.1717 82.7201 41.2667 81.5801 39.9167C80.4401 38.5667 78.8201 37.8917 76.7201 37.8917C74.8901 37.8917 73.9751 38.4917 73.9751 39.6917V50.8967ZM86.2784 57.5117C85.9784 57.5117 85.8284 57.3617 85.8284 57.0617V56.4317C85.8284 56.1317 85.9784 55.9817 86.2784 55.9817H97.3484C97.6484 55.9817 97.7984 56.1317 97.7984 56.4317V57.0617C97.7984 57.3617 97.6484 57.5117 97.3484 57.5117H86.2784ZM98.9543 69.1667C98.5043 69.1667 98.2793 69.0017 98.2793 68.6717C98.2793 68.4017 98.4743 68.2217 98.8643 68.1317L99.8993 67.9517C100.529 67.8317 100.934 67.6667 101.114 67.4567C101.324 67.2467 101.429 66.8267 101.429 66.1967V39.7367C101.429 39.1067 101.324 38.6867 101.114 38.4767C100.934 38.2667 100.529 38.1017 99.8993 37.9817L98.8643 37.8017C98.4743 37.7117 98.2793 37.5317 98.2793 37.2617C98.2793 36.9317 98.5043 36.7667 98.9543 36.7667H107.189C107.639 36.7667 107.864 36.9467 107.864 37.3067C107.864 37.5767 107.699 37.7417 107.369 37.8017L106.154 37.9817C105.524 38.0717 105.104 38.2367 104.894 38.4767C104.714 38.7167 104.624 39.1517 104.624 39.7817V51.0767C104.624 51.4967 104.834 51.7067 105.254 51.7067H114.164C114.584 51.7067 114.794 51.4967 114.794 51.0767V39.7817C114.794 39.1517 114.689 38.7167 114.479 38.4767C114.299 38.2367 113.894 38.0717 113.264 37.9817L112.049 37.8017C111.719 37.7417 111.554 37.5767 111.554 37.3067C111.554 36.9467 111.779 36.7667 112.229 36.7667H120.464C120.914 36.7667 121.139 36.9317 121.139 37.2617C121.139 37.5317 120.944 37.7117 120.554 37.8017L119.519 37.9817C118.889 38.1017 118.469 38.2667 118.259 38.4767C118.079 38.6867 117.989 39.1067 117.989 39.7367V66.1967C117.989 66.8267 118.079 67.2467 118.259 67.4567C118.469 67.6667 118.889 67.8317 119.519 67.9517L120.554 68.1317C120.944 68.2217 121.139 68.4017 121.139 68.6717C121.139 69.0017 120.914 69.1667 120.464 69.1667H112.229C111.779 69.1667 111.554 68.9867 111.554 68.6267C111.554 68.3567 111.719 68.1917 112.049 68.1317L113.264 67.9517C113.894 67.8617 114.299 67.6967 114.479 67.4567C114.689 67.2167 114.794 66.7817 114.794 66.1517V53.6867C114.794 53.2667 114.584 53.0567 114.164 53.0567H105.254C104.834 53.0567 104.624 53.2667 104.624 53.6867V66.1517C104.624 66.7817 104.714 67.2167 104.894 67.4567C105.104 67.6967 105.524 67.8617 106.154 67.9517L107.369 68.1317C107.699 68.1917 107.864 68.3567 107.864 68.6267C107.864 68.9867 107.639 69.1667 107.189 69.1667H98.9543ZM131.89 69.5717C130.45 69.5717 129.1 69.1517 127.84 68.3117C126.58 67.4417 125.47 66.2567 124.51 64.7567C123.58 63.2567 122.845 61.5017 122.305 59.4917C121.795 57.4517 121.54 55.2617 121.54 52.9217C121.54 50.5817 121.795 48.4067 122.305 46.3967C122.845 44.3867 123.58 42.6317 124.51 41.1317C125.47 39.6017 126.58 38.4167 127.84 37.5767C129.1 36.7367 130.45 36.3167 131.89 36.3167C133.33 36.3167 134.665 36.7367 135.895 37.5767C137.155 38.4167 138.265 39.6017 139.225 41.1317C140.185 42.6317 140.92 44.3867 141.43 46.3967C141.97 48.4067 142.24 50.5817 142.24 52.9217C142.24 55.2617 141.97 57.4517 141.43 59.4917C140.92 61.5017 140.185 63.2567 139.225 64.7567C138.265 66.2567 137.155 67.4417 135.895 68.3117C134.665 69.1517 133.33 69.5717 131.89 69.5717ZM131.89 68.3567C134.02 68.3567 135.685 67.0817 136.885 64.5317C138.085 61.9817 138.685 58.1117 138.685 52.9217C138.685 47.7317 138.085 43.8767 136.885 41.3567C135.685 38.8067 134.02 37.5317 131.89 37.5317C129.79 37.5317 128.125 38.8067 126.895 41.3567C125.695 43.8767 125.095 47.7317 125.095 52.9217C125.095 58.1117 125.695 61.9817 126.895 64.5317C128.125 67.0817 129.79 68.3567 131.89 68.3567ZM143.782 69.1667C143.332 69.1667 143.107 69.0017 143.107 68.6717C143.107 68.4017 143.302 68.2217 143.692 68.1317L144.727 67.9517C145.357 67.8317 145.762 67.6667 145.942 67.4567C146.152 67.2467 146.257 66.8267 146.257 66.1967V39.7367C146.257 39.1067 146.152 38.6867 145.942 38.4767C145.762 38.2667 145.357 38.1017 144.727 37.9817L143.692 37.8017C143.302 37.7117 143.107 37.5317 143.107 37.2617C143.107 36.9317 143.332 36.7667 143.782 36.7667H153.187C154.957 36.7667 156.517 37.1567 157.867 37.9367C159.217 38.6867 160.267 39.7367 161.017 41.0867C161.767 42.4367 162.142 43.9967 162.142 45.7667C162.142 47.4767 161.767 48.9917 161.017 50.3117C160.267 51.6317 159.232 52.6667 157.912 53.4167C156.592 54.1367 155.062 54.4967 153.322 54.4967H150.082C149.662 54.4967 149.452 54.7067 149.452 55.1267V66.0167C149.452 66.6467 149.572 67.0817 149.812 67.3217C150.052 67.5317 150.592 67.7117 151.432 67.8617L153.097 68.1317C153.427 68.1917 153.592 68.3567 153.592 68.6267C153.592 68.9867 153.367 69.1667 152.917 69.1667H143.782ZM149.452 50.8967C149.452 52.5467 150.457 53.3717 152.467 53.3717C154.417 53.3717 155.947 52.6817 157.057 51.3017C158.197 49.9217 158.767 48.0317 158.767 45.6317C158.767 43.1717 158.197 41.2667 157.057 39.9167C155.917 38.5667 154.297 37.8917 152.197 37.8917C150.367 37.8917 149.452 38.4917 149.452 39.6917V50.8967Z" fill="black"/>
<defs>
<linearGradient id="paint0_linear_226_123" x1="34.8143" y1="110" x2="137.946" y2="9.21333" gradientUnits="userSpaceOnUse">
<stop offset="0.0840252" stop-color="#FFAA6E"/>
<stop offset="1" stop-color="#FFE070"/>
</linearGradient>
</defs>
</svg>
