<svg width="163" height="130" viewBox="0 0 163 130" fill="none" xmlns="http://www.w3.org/2000/svg">
<path d="M76.2449 13.2116L81.5 3.27775L86.7552 13.2116C92.0463 23.2135 104.281 27.2673 114.498 22.4036L129.478 15.2724L128.638 17.7756C124.193 31.0373 133.636 44.8784 147.605 45.5771L158.606 46.1274L157.017 47.1274C143.857 55.4086 143.857 74.5915 157.017 82.8727L158.606 83.8726L147.605 84.4229C133.636 85.1217 124.193 98.9628 128.638 112.224L129.478 114.728L114.498 107.596C104.281 102.733 92.0463 106.787 86.7552 116.788L81.5 126.722L76.2449 116.788C70.9537 106.787 58.7191 102.733 48.5024 107.596L33.5225 114.728L34.3616 112.224C38.8068 98.9628 29.364 85.1217 15.3946 84.4229L4.39358 83.8726L5.98261 82.8727C19.1429 74.5915 19.1429 55.4086 5.98261 47.1274L4.39358 46.1274L15.3946 45.5771C29.364 44.8784 38.8068 31.0373 34.3616 17.7756L33.5225 15.2724L48.5025 22.4036C58.7191 27.2673 70.9537 23.2135 76.2449 13.2116Z" fill="url(#paint0_linear_135_1312)" stroke="black" stroke-width="2.23353"/>
<path d="M51.0183 87.6751C50.0883 87.6751 49.3383 87.4201 48.7683 86.9101C48.1683 86.4301 47.8683 85.7851 47.8683 84.9751C47.8683 84.3751 48.0483 83.8801 48.4083 83.4901C48.7383 83.1001 49.1733 82.9051 49.7133 82.9051C50.2233 82.9051 50.5833 83.0551 50.7933 83.3551C51.0033 83.6551 51.1683 84.0001 51.2883 84.3901C51.4383 84.7801 51.6033 85.1251 51.7833 85.4251C51.9633 85.7251 52.2483 85.8751 52.6383 85.8751C53.2083 85.8751 53.6433 85.5451 53.9433 84.8851C54.2433 84.2251 54.3933 83.2951 54.3933 82.0951V48.5701C54.3933 47.9401 54.2883 47.5201 54.0783 47.3101C53.8983 47.1001 53.4933 46.9351 52.8633 46.8151L51.8283 46.6351C51.4383 46.5451 51.2433 46.3651 51.2433 46.0951C51.2433 45.7651 51.4683 45.6001 51.9183 45.6001H60.0633C60.5133 45.6001 60.7383 45.7651 60.7383 46.0951C60.7383 46.3651 60.5433 46.5451 60.1533 46.6351L59.1183 46.8151C58.4883 46.9351 58.0683 47.1001 57.8583 47.3101C57.6783 47.5201 57.5883 47.9401 57.5883 48.5701V76.0201C57.5883 79.6201 57.0033 82.4551 55.8333 84.5251C54.6633 86.6251 53.0583 87.6751 51.0183 87.6751ZM60.2183 78.0001C59.7683 78.0001 59.5433 77.8501 59.5433 77.5501C59.5433 77.2501 59.7533 77.0551 60.1733 76.9651L60.8483 76.8301C61.4483 76.7101 61.8983 76.4251 62.1983 75.9751C62.4983 75.4951 62.7533 74.8351 62.9633 73.9951L69.9383 45.8701C69.9983 45.5701 70.0883 45.3751 70.2083 45.2851C70.3583 45.1951 70.4933 45.1501 70.6133 45.1501C70.7633 45.1501 70.8983 45.1951 71.0183 45.2851C71.1683 45.3751 71.2733 45.5701 71.3333 45.8701L78.4433 74.4001C78.6533 75.2401 78.8933 75.8251 79.1633 76.1551C79.4333 76.4851 79.8533 76.7101 80.4233 76.8301L81.0983 76.9651C81.5183 77.0551 81.7283 77.2501 81.7283 77.5501C81.7283 77.8501 81.5033 78.0001 81.0533 78.0001H73.3583C72.9383 78.0001 72.7283 77.8351 72.7283 77.5051C72.7283 77.1751 72.9833 76.9951 73.4933 76.9651L74.3483 76.8751C74.8583 76.8151 75.1733 76.6501 75.2933 76.3801C75.4433 76.1101 75.4433 75.6451 75.2933 74.9851L73.5833 68.0101C73.4033 67.2301 72.9083 66.8401 72.0983 66.8401H67.3733C66.5933 66.8401 66.0983 67.2301 65.8883 68.0101L64.3583 74.0401C63.9083 75.7501 64.3583 76.6951 65.7083 76.8751L66.3833 76.9651C66.8933 77.0551 67.1483 77.2351 67.1483 77.5051C67.1483 77.8351 66.9383 78.0001 66.5183 78.0001H60.2183ZM67.2383 65.4901H72.1883C72.6683 65.4901 72.8633 65.2351 72.7733 64.7251L69.8933 52.6651H69.6683L66.6533 64.7251C66.5633 65.2351 66.7583 65.4901 67.2383 65.4901ZM82.2697 78.0001C81.8497 78.0001 81.5497 77.8801 81.3697 77.6401C81.2197 77.4001 81.2347 77.0851 81.4147 76.6951L94.4197 47.6701C94.5997 47.1901 94.4347 46.9501 93.9247 46.9501H89.4247C88.3147 46.9501 87.2947 47.3101 86.3647 48.0301C85.4647 48.7201 84.7147 50.0551 84.1147 52.0351L83.4397 54.2851C83.3497 54.6751 83.1397 54.8701 82.8097 54.8701C82.3597 54.8701 82.1647 54.6151 82.2247 54.1051L83.0347 45.7351C83.0947 45.0451 83.3497 44.7001 83.7997 44.7001C84.0097 44.7001 84.2047 44.7751 84.3847 44.9251C84.5647 45.0751 84.8647 45.2251 85.2847 45.3751C85.7347 45.5251 86.4397 45.6001 87.3997 45.6001H97.3447C97.7647 45.6001 98.0497 45.7201 98.1997 45.9601C98.3797 46.1701 98.3797 46.4851 98.1997 46.9051L85.1947 75.9301C85.0147 76.4101 85.1797 76.6501 85.6897 76.6501H90.6847C91.5247 76.6501 92.3497 76.5301 93.1597 76.2901C93.9697 76.0501 94.6897 75.5551 95.3197 74.8051C95.9497 74.0251 96.4147 72.8701 96.7147 71.3401L97.2997 68.3251C97.3897 67.9351 97.6147 67.7401 97.9747 67.7401C98.3947 67.7401 98.5747 67.9951 98.5147 68.5051L97.9747 76.9651C97.9147 77.6551 97.5397 78.0001 96.8497 78.0001H82.2697ZM101.024 78.0001C100.604 78.0001 100.304 77.8801 100.124 77.6401C99.9738 77.4001 99.9888 77.0851 100.169 76.6951L113.174 47.6701C113.354 47.1901 113.189 46.9501 112.679 46.9501H108.179C107.069 46.9501 106.049 47.3101 105.119 48.0301C104.219 48.7201 103.469 50.0551 102.869 52.0351L102.194 54.2851C102.104 54.6751 101.894 54.8701 101.564 54.8701C101.114 54.8701 100.919 54.6151 100.979 54.1051L101.789 45.7351C101.849 45.0451 102.104 44.7001 102.554 44.7001C102.764 44.7001 102.959 44.7751 103.139 44.9251C103.319 45.0751 103.619 45.2251 104.039 45.3751C104.489 45.5251 105.194 45.6001 106.154 45.6001H116.099C116.519 45.6001 116.804 45.7201 116.954 45.9601C117.134 46.1701 117.134 46.4851 116.954 46.9051L103.949 75.9301C103.769 76.4101 103.934 76.6501 104.444 76.6501H109.439C110.279 76.6501 111.104 76.5301 111.914 76.2901C112.724 76.0501 113.444 75.5551 114.074 74.8051C114.704 74.0251 115.169 72.8701 115.469 71.3401L116.054 68.3251C116.144 67.9351 116.369 67.7401 116.729 67.7401C117.149 67.7401 117.329 67.9951 117.269 68.5051L116.729 76.9651C116.669 77.6551 116.294 78.0001 115.604 78.0001H101.024Z" fill="black"/>
<defs>
<linearGradient id="paint0_linear_135_1312" x1="104.197" y1="0.889526" x2="11.5292" y2="89.2551" gradientUnits="userSpaceOnUse">
<stop stop-color="#E9F1FF"/>
<stop offset="1" stop-color="#8EACFF"/>
</linearGradient>
</defs>
</svg>
