<svg width="181" height="110" viewBox="0 0 181 110" fill="none" xmlns="http://www.w3.org/2000/svg">
<path d="M134.127 28.6249L134.135 28.6297L134.143 28.6343L169.569 49.8526C173.458 52.1822 173.458 57.8178 169.569 60.1473L134.143 81.3657L134.135 81.3703L134.127 81.375L93.2833 106.842C91.3403 108.054 88.8772 108.054 86.9342 106.842L46.0901 81.375L46.0825 81.3703L46.0749 81.3657L10.6489 60.1473C6.75954 57.8178 6.75954 52.1822 10.6489 49.8526L46.0749 28.6343L46.0825 28.6297L46.0901 28.6249L86.9342 3.15786C88.8772 1.94636 91.3403 1.94636 93.2833 3.15786L134.127 28.6249Z" fill="url(#paint0_linear_226_121)" stroke="black" stroke-width="2"/>
<path d="M45.7809 70.3769C45.3309 70.3769 45.1059 70.2119 45.1059 69.8819C45.1059 69.6119 45.3009 69.4319 45.6909 69.3419L46.7259 69.1619C47.3559 69.0419 47.7609 68.8769 47.9409 68.6669C48.1509 68.4569 48.2559 68.0369 48.2559 67.4069V40.9469C48.2559 40.3169 48.1509 39.8969 47.9409 39.6869C47.7609 39.4769 47.3559 39.3119 46.7259 39.1919L45.6909 39.0119C45.3009 38.9219 45.1059 38.7419 45.1059 38.4719C45.1059 38.1419 45.3309 37.9769 45.7809 37.9769H54.0159C54.4659 37.9769 54.6909 38.1569 54.6909 38.5169C54.6909 38.7869 54.5259 38.9519 54.1959 39.0119L52.9809 39.1919C52.3509 39.2819 51.9309 39.4469 51.7209 39.6869C51.5409 39.9269 51.4509 40.3619 51.4509 40.9919V66.1919C51.4509 67.2719 51.7509 68.0519 52.3509 68.5319C52.9809 69.0119 53.7609 69.2519 54.6909 69.2519C55.3809 69.2519 56.0859 69.1169 56.8059 68.8469C57.5559 68.5469 58.2309 68.0069 58.8309 67.2269C59.4309 66.4169 59.8809 65.2469 60.1809 63.7169L60.7659 60.7019C60.8559 60.3119 61.0809 60.1169 61.4409 60.1169C61.8609 60.1169 62.0409 60.3719 61.9809 60.8819L61.4409 69.3419C61.3809 70.0319 61.0059 70.3769 60.3159 70.3769H45.7809ZM62.2548 70.3769C61.8048 70.3769 61.5798 70.2269 61.5798 69.9269C61.5798 69.6269 61.7898 69.4319 62.2098 69.3419L62.8848 69.2069C63.4848 69.0869 63.9348 68.8019 64.2348 68.3519C64.5348 67.8719 64.7898 67.2119 64.9998 66.3719L71.9748 38.2469C72.0348 37.9469 72.1248 37.7519 72.2448 37.6619C72.3948 37.5719 72.5298 37.5269 72.6498 37.5269C72.7998 37.5269 72.9348 37.5719 73.0548 37.6619C73.2048 37.7519 73.3098 37.9469 73.3698 38.2469L80.4798 66.7769C80.6898 67.6169 80.9298 68.2019 81.1998 68.5319C81.4698 68.8619 81.8898 69.0869 82.4598 69.2069L83.1348 69.3419C83.5548 69.4319 83.7648 69.6269 83.7648 69.9269C83.7648 70.2269 83.5398 70.3769 83.0898 70.3769H75.3948C74.9748 70.3769 74.7648 70.2119 74.7648 69.8819C74.7648 69.5519 75.0198 69.3719 75.5298 69.3419L76.3848 69.2519C76.8948 69.1919 77.2098 69.0269 77.3298 68.7569C77.4798 68.4869 77.4798 68.0219 77.3298 67.3619L75.6198 60.3869C75.4398 59.6069 74.9448 59.2169 74.1348 59.2169H69.4098C68.6298 59.2169 68.1348 59.6069 67.9248 60.3869L66.3948 66.4169C65.9448 68.1269 66.3948 69.0719 67.7448 69.2519L68.4198 69.3419C68.9298 69.4319 69.1848 69.6119 69.1848 69.8819C69.1848 70.2119 68.9748 70.3769 68.5548 70.3769H62.2548ZM69.2748 57.8669H74.2248C74.7048 57.8669 74.8998 57.6119 74.8098 57.1019L71.9298 45.0419H71.7048L68.6898 57.1019C68.5998 57.6119 68.7948 57.8669 69.2748 57.8669ZM85.9265 70.3769C85.4765 70.3769 85.2515 70.2119 85.2515 69.8819C85.2515 69.5519 85.4465 69.3719 85.8365 69.3419L87.8615 69.0269C88.4615 68.9369 88.8665 68.7869 89.0765 68.5769C89.2865 68.3369 89.3915 67.9019 89.3915 67.2719V40.2719C89.3915 39.8519 89.3015 39.5519 89.1215 39.3719C88.9415 39.1919 88.5665 39.1019 87.9965 39.1019C86.8865 39.1019 85.7915 39.5819 84.7115 40.5419C83.6315 41.5019 82.9265 43.0469 82.5965 45.1769L82.3715 46.6619C82.3115 47.0519 82.1015 47.2469 81.7415 47.2469C81.2915 47.2469 81.0965 46.9919 81.1565 46.4819L81.5615 38.3369C81.6215 37.6469 81.8915 37.3019 82.3715 37.3019C82.5815 37.3019 82.7765 37.3619 82.9565 37.4819C83.1365 37.5719 83.4365 37.6769 83.8565 37.7969C84.3065 37.9169 85.0115 37.9769 85.9715 37.9769H96.0065C96.9665 37.9769 97.6565 37.9169 98.0765 37.7969C98.5265 37.6769 98.8415 37.5719 99.0215 37.4819C99.2315 37.3619 99.4265 37.3019 99.6065 37.3019C100.087 37.3019 100.357 37.6469 100.417 38.3369L100.822 46.4819C100.882 46.9919 100.687 47.2469 100.237 47.2469C99.8765 47.2469 99.6665 47.0519 99.6065 46.6619L99.3815 45.1769C99.0815 43.0469 98.3915 41.5019 97.3115 40.5419C96.2315 39.5819 95.1215 39.1019 93.9815 39.1019C93.4115 39.1019 93.0365 39.1919 92.8565 39.3719C92.6765 39.5519 92.5865 39.8519 92.5865 40.2719V67.2719C92.5865 67.9019 92.6915 68.3369 92.9015 68.5769C93.1415 68.7869 93.5465 68.9369 94.1165 69.0269L96.1415 69.3419C96.5315 69.3719 96.7265 69.5519 96.7265 69.8819C96.7265 70.2119 96.5015 70.3769 96.0515 70.3769H85.9265ZM102.439 70.3769C101.989 70.3769 101.764 70.2119 101.764 69.8819C101.764 69.6119 101.959 69.4319 102.349 69.3419L103.384 69.1619C104.014 69.0419 104.419 68.8769 104.599 68.6669C104.809 68.4569 104.914 68.0369 104.914 67.4069V40.9469C104.914 40.3169 104.809 39.8969 104.599 39.6869C104.419 39.4769 104.014 39.3119 103.384 39.1919L102.349 39.0119C101.959 38.9219 101.764 38.7419 101.764 38.4719C101.764 38.1419 101.989 37.9769 102.439 37.9769H110.584C111.034 37.9769 111.259 38.1419 111.259 38.4719C111.259 38.7419 111.064 38.9219 110.674 39.0119L109.639 39.1919C109.009 39.3119 108.589 39.4769 108.379 39.6869C108.199 39.8969 108.109 40.3169 108.109 40.9469V67.4069C108.109 68.0369 108.199 68.4569 108.379 68.6669C108.589 68.8769 109.009 69.0419 109.639 69.1619L110.674 69.3419C111.064 69.4319 111.259 69.6119 111.259 69.8819C111.259 70.2119 111.034 70.3769 110.584 70.3769H102.439ZM130.97 70.7819C130.49 70.7819 130.085 70.4219 129.755 69.7019L117.56 43.2419C117.47 43.0319 117.35 42.9419 117.2 42.9719C117.08 43.0019 117.02 43.1369 117.02 43.3769V66.5069C117.02 67.3469 117.155 67.9919 117.425 68.4419C117.725 68.8619 118.25 69.1319 119 69.2519L119.585 69.3419C119.975 69.3719 120.17 69.5519 120.17 69.8819C120.17 70.2119 119.945 70.3769 119.495 70.3769H113.06C112.61 70.3769 112.385 70.2119 112.385 69.8819C112.385 69.5519 112.58 69.3719 112.97 69.3419L113.555 69.2519C114.335 69.1319 114.875 68.8619 115.175 68.4419C115.475 67.9919 115.625 67.3469 115.625 66.5069V40.9469C115.625 40.3169 115.52 39.8969 115.31 39.6869C115.13 39.4769 114.695 39.3119 114.005 39.1919L112.97 39.0119C112.58 38.9219 112.385 38.7419 112.385 38.4719C112.385 38.1419 112.61 37.9769 113.06 37.9769H117.875C118.625 37.9769 119.15 38.3069 119.45 38.9669L130.07 62.3219C130.16 62.5019 130.265 62.5769 130.385 62.5469C130.535 62.5169 130.61 62.4119 130.61 62.2319V41.8469C130.61 40.8869 130.445 40.2269 130.115 39.8669C129.785 39.4769 129.365 39.2369 128.855 39.1469L128.045 39.0119C127.655 38.9219 127.46 38.7419 127.46 38.4719C127.46 38.1419 127.685 37.9769 128.135 37.9769H134.57C135.02 37.9769 135.245 38.1419 135.245 38.4719C135.245 38.8019 135.05 38.9819 134.66 39.0119L134.075 39.1019C133.295 39.2219 132.755 39.4769 132.455 39.8669C132.155 40.2269 132.005 40.8869 132.005 41.8469V69.3419C132.005 69.8819 131.9 70.2569 131.69 70.4669C131.51 70.6769 131.27 70.7819 130.97 70.7819Z" fill="black"/>
<defs>
<linearGradient id="paint0_linear_226_121" x1="136.879" y1="6.20095" x2="71.7012" y2="100.829" gradientUnits="userSpaceOnUse">
<stop stop-color="#FAAFBE"/>
<stop offset="1" stop-color="#F3654F"/>
</linearGradient>
</defs>
</svg>
