<svg width="171" height="110" viewBox="0 0 171 110" fill="none" xmlns="http://www.w3.org/2000/svg">
<path d="M102.453 15.0601L127 8.60228L130.561 25.2631L130.715 25.9843L131.45 26.05L157.156 28.3505L147.632 43.507L147.047 44.438L148.029 44.9323L168.035 55L148.029 65.0677L147.047 65.562L147.632 66.493L157.156 81.6495L131.45 83.95L130.715 84.0157L130.561 84.7369L127 101.398L102.453 94.9399L101.955 94.8088L101.559 95.1382L85.259 108.699L68.9589 95.1382L68.563 94.8088L68.0649 94.9399L43.5179 101.398L39.9568 84.7369L39.8026 84.0157L39.068 83.95L13.3623 81.6495L22.8859 66.493L23.4709 65.562L22.4887 65.0677L2.48354 55L22.4887 44.9323L23.4709 44.438L22.8859 43.507L13.3623 28.3505L39.068 26.05L39.8026 25.9843L39.9568 25.2631L43.5179 8.60228L68.0649 15.0601L68.563 15.1912L68.9589 14.8618L85.259 1.30082L101.559 14.8618L101.955 15.1912L102.453 15.0601Z" fill="url(#paint0_linear_226_124)" stroke="black" stroke-width="2"/>
<path d="M54.6 70.0347C54.15 70.0347 53.925 69.8697 53.925 69.5397C53.925 69.2697 54.12 69.0897 54.51 68.9997L55.545 68.8197C56.175 68.6997 56.58 68.5347 56.76 68.3247C56.97 68.1147 57.075 67.6947 57.075 67.0647V40.6047C57.075 39.9747 56.97 39.5547 56.76 39.3447C56.58 39.1347 56.175 38.9697 55.545 38.8497L54.51 38.6697C54.12 38.5797 53.925 38.3997 53.925 38.1297C53.925 37.7997 54.15 37.6347 54.6 37.6347H64.005C65.775 37.6347 67.335 38.0247 68.685 38.8047C70.035 39.5547 71.085 40.6047 71.835 41.9547C72.585 43.3047 72.96 44.8647 72.96 46.6347C72.96 48.3447 72.585 49.8597 71.835 51.1797C71.085 52.4997 70.05 53.5347 68.73 54.2847C67.41 55.0047 65.88 55.3647 64.14 55.3647H60.9C60.48 55.3647 60.27 55.5747 60.27 55.9947V66.8847C60.27 67.5147 60.39 67.9497 60.63 68.1897C60.87 68.3997 61.41 68.5797 62.25 68.7297L63.915 68.9997C64.245 69.0597 64.41 69.2247 64.41 69.4947C64.41 69.8547 64.185 70.0347 63.735 70.0347H54.6ZM60.27 51.7647C60.27 53.4147 61.275 54.2397 63.285 54.2397C65.235 54.2397 66.765 53.5497 67.875 52.1697C69.015 50.7897 69.585 48.8997 69.585 46.4997C69.585 44.0397 69.015 42.1347 67.875 40.7847C66.735 39.4347 65.115 38.7597 63.015 38.7597C61.185 38.7597 60.27 39.3597 60.27 40.5597V51.7647ZM85.5069 70.4397C84.0669 70.4397 82.7169 70.0197 81.4569 69.1797C80.1969 68.3097 79.0869 67.1247 78.1269 65.6247C77.1969 64.1247 76.4619 62.3697 75.9219 60.3597C75.4119 58.3197 75.1569 56.1297 75.1569 53.7897C75.1569 51.4497 75.4119 49.2747 75.9219 47.2647C76.4619 45.2547 77.1969 43.4997 78.1269 41.9997C79.0869 40.4697 80.1969 39.2847 81.4569 38.4447C82.7169 37.6047 84.0669 37.1847 85.5069 37.1847C86.9469 37.1847 88.2819 37.6047 89.512 38.4447C90.7719 39.2847 91.8819 40.4697 92.842 41.9997C93.802 43.4997 94.537 45.2547 95.0469 47.2647C95.5869 49.2747 95.8569 51.4497 95.8569 53.7897C95.8569 56.1297 95.5869 58.3197 95.0469 60.3597C94.537 62.3697 93.802 64.1247 92.842 65.6247C91.8819 67.1247 90.7719 68.3097 89.512 69.1797C88.2819 70.0197 86.9469 70.4397 85.5069 70.4397ZM85.5069 69.2247C87.6369 69.2247 89.3019 67.9497 90.5019 65.3997C91.702 62.8497 92.302 58.9797 92.302 53.7897C92.302 48.5997 91.702 44.7447 90.5019 42.2247C89.3019 39.6747 87.6369 38.3997 85.5069 38.3997C83.4069 38.3997 81.7419 39.6747 80.5119 42.2247C79.3119 44.7447 78.7119 48.5997 78.7119 53.7897C78.7119 58.9797 79.3119 62.8497 80.5119 65.3997C81.7419 67.9497 83.4069 69.2247 85.5069 69.2247ZM98.0743 70.0347C97.6243 70.0347 97.3993 69.8697 97.3993 69.5397C97.3993 69.2697 97.5943 69.0897 97.9843 68.9997L99.0193 68.8197C99.6493 68.6997 100.054 68.5347 100.234 68.3247C100.444 68.1147 100.549 67.6947 100.549 67.0647V40.6047C100.549 39.9747 100.444 39.5547 100.234 39.3447C100.054 39.1347 99.6493 38.9697 99.0193 38.8497L97.9843 38.6697C97.5943 38.5797 97.3993 38.3997 97.3993 38.1297C97.3993 37.7997 97.6243 37.6347 98.0743 37.6347H107.479C109.249 37.6347 110.809 38.0247 112.159 38.8047C113.509 39.5547 114.559 40.6047 115.309 41.9547C116.059 43.3047 116.434 44.8647 116.434 46.6347C116.434 48.3447 116.059 49.8597 115.309 51.1797C114.559 52.4997 113.524 53.5347 112.204 54.2847C110.884 55.0047 109.354 55.3647 107.614 55.3647H104.374C103.954 55.3647 103.744 55.5747 103.744 55.9947V66.8847C103.744 67.5147 103.864 67.9497 104.104 68.1897C104.344 68.3997 104.884 68.5797 105.724 68.7297L107.389 68.9997C107.719 69.0597 107.884 69.2247 107.884 69.4947C107.884 69.8547 107.659 70.0347 107.209 70.0347H98.0743ZM103.744 51.7647C103.744 53.4147 104.749 54.2397 106.759 54.2397C108.709 54.2397 110.239 53.5497 111.349 52.1697C112.489 50.7897 113.059 48.8997 113.059 46.4997C113.059 44.0397 112.489 42.1347 111.349 40.7847C110.209 39.4347 108.589 38.7597 106.489 38.7597C104.659 38.7597 103.744 39.3597 103.744 40.5597V51.7647Z" fill="black"/>
<defs>
<linearGradient id="paint0_linear_226_124" x1="31.5286" y1="110" x2="143.027" y2="23.4339" gradientUnits="userSpaceOnUse">
<stop offset="0.0748646" stop-color="#FFD600"/>
<stop offset="0.808728" stop-color="#FFF59A"/>
</linearGradient>
</defs>
</svg>
