<svg width="206" height="124" viewBox="0 0 206 124" fill="none" xmlns="http://www.w3.org/2000/svg">
<mask id="path-1-inside-1_212_95" fill="white">
<path fill-rule="evenodd" clip-rule="evenodd" d="M191.471 31.5009C196.7 36.8261 189.788 43.565 177.663 50.4256C193.842 52.6933 205.442 56.4888 205.442 62.8414C205.442 69.4268 192.976 73.2643 175.865 75.5004C188.69 82.1629 196.389 88.6123 191.732 93.4356C186.379 98.9798 169.75 97.144 150.447 92.5426C159.585 104.947 164.24 115.34 155.196 116.727C146.024 118.133 132.129 108.841 118.341 96.8795C116.405 111.264 112.304 123.188 103.619 123.188C94.9343 123.188 90.8332 111.264 88.8966 96.8799C75.1093 108.841 61.2143 118.133 52.0424 116.727C43.5438 115.424 47.1415 106.168 55.188 94.7648C36.6265 98.9377 20.6447 100.188 14.7469 94.1822C9.51744 88.8569 16.43 82.1179 28.5555 75.2572C12.3764 72.9896 0.775512 69.1941 0.775513 62.8414C0.775513 56.256 13.2419 52.4186 30.3518 50.1825C17.5275 43.5201 9.82822 37.0707 14.4855 32.2474C20.0957 26.4372 38.0893 28.7322 58.5677 33.8215C48.2937 20.3972 42.4287 8.74692 52.0424 7.27294C61.2143 5.8667 75.1094 15.159 88.8968 27.1202C90.8334 12.7359 94.9345 0.811767 103.619 0.811768C112.304 0.811768 116.405 12.7359 118.341 27.1203C132.129 15.159 146.024 5.86677 155.196 7.27301C164.121 8.64147 159.705 18.7814 150.805 30.9689C169.462 26.7556 185.549 25.4708 191.471 31.5009Z"/>
</mask>
<path fill-rule="evenodd" clip-rule="evenodd" d="M191.471 31.5009C196.7 36.8261 189.788 43.565 177.663 50.4256C193.842 52.6933 205.442 56.4888 205.442 62.8414C205.442 69.4268 192.976 73.2643 175.865 75.5004C188.69 82.1629 196.389 88.6123 191.732 93.4356C186.379 98.9798 169.75 97.144 150.447 92.5426C159.585 104.947 164.24 115.34 155.196 116.727C146.024 118.133 132.129 108.841 118.341 96.8795C116.405 111.264 112.304 123.188 103.619 123.188C94.9343 123.188 90.8332 111.264 88.8966 96.8799C75.1093 108.841 61.2143 118.133 52.0424 116.727C43.5438 115.424 47.1415 106.168 55.188 94.7648C36.6265 98.9377 20.6447 100.188 14.7469 94.1822C9.51744 88.8569 16.43 82.1179 28.5555 75.2572C12.3764 72.9896 0.775512 69.1941 0.775513 62.8414C0.775513 56.256 13.2419 52.4186 30.3518 50.1825C17.5275 43.5201 9.82822 37.0707 14.4855 32.2474C20.0957 26.4372 38.0893 28.7322 58.5677 33.8215C48.2937 20.3972 42.4287 8.74692 52.0424 7.27294C61.2143 5.8667 75.1094 15.159 88.8968 27.1202C90.8334 12.7359 94.9345 0.811767 103.619 0.811768C112.304 0.811768 116.405 12.7359 118.341 27.1203C132.129 15.159 146.024 5.86677 155.196 7.27301C164.121 8.64147 159.705 18.7814 150.805 30.9689C169.462 26.7556 185.549 25.4708 191.471 31.5009Z" fill="url(#paint0_linear_212_95)"/>
<path d="M177.663 50.4256L176.678 48.6849L171.547 51.588L177.385 52.4062L177.663 50.4256ZM191.471 31.5009L192.898 30.0995V30.0995L191.471 31.5009ZM175.865 75.5004L175.606 73.5172L169.297 74.3418L174.943 77.2752L175.865 75.5004ZM191.732 93.4356L193.171 94.8248L191.732 93.4356ZM150.447 92.5426L150.911 90.5971L145.596 89.3304L148.837 93.7289L150.447 92.5426ZM155.196 116.727L154.893 114.75L155.196 116.727ZM118.341 96.8795L119.652 95.3688L116.853 92.941L116.359 96.6127L118.341 96.8795ZM88.8966 96.8799L90.8787 96.613L90.3844 92.9414L87.586 95.3692L88.8966 96.8799ZM52.0424 116.727L51.7393 118.704H51.7393L52.0424 116.727ZM55.188 94.7648L56.8222 95.9179L59.8165 91.6744L54.7494 92.8135L55.188 94.7648ZM14.7469 94.1822L16.1739 92.7809V92.7808L14.7469 94.1822ZM28.5555 75.2572L29.5404 76.9979L34.6713 74.0949L28.8331 73.2766L28.5555 75.2572ZM0.775513 62.8414H2.77551H0.775513ZM30.3518 50.1825L30.611 52.1656L36.9202 51.3411L31.2739 48.4077L30.3518 50.1825ZM14.4855 32.2474L15.9242 33.6367L15.9242 33.6367L14.4855 32.2474ZM58.5677 33.8215L58.0854 35.7625L63.6254 37.1393L60.156 32.606L58.5677 33.8215ZM52.0424 7.27294L51.7393 5.29604L52.0424 7.27294ZM88.8968 27.1202L87.5861 28.631L90.3846 31.0587L90.8789 27.3871L88.8968 27.1202ZM103.619 0.811768V2.81177V0.811768ZM118.341 27.1203L116.359 27.3871L116.854 31.0588L119.652 28.631L118.341 27.1203ZM155.196 7.27301L155.499 5.29612L155.196 7.27301ZM150.805 30.9689L149.19 29.7894L146.047 34.0938L151.246 32.9197L150.805 30.9689ZM178.647 52.1663C184.745 48.7163 189.789 45.1636 192.631 41.6439C194.061 39.8732 195.079 37.9335 195.22 35.8766C195.367 33.727 194.537 31.7685 192.898 30.0995L190.044 32.9022C191.02 33.8958 191.286 34.7767 191.229 35.6027C191.166 36.5215 190.679 37.6938 189.519 39.1311C187.18 42.0273 182.706 45.2744 176.678 48.6849L178.647 52.1663ZM207.442 62.8414C207.442 60.5719 206.384 58.6522 204.761 57.0964C203.168 55.5695 200.958 54.3129 198.381 53.2522C193.222 51.1285 186.077 49.5855 177.94 48.445L177.385 52.4062C185.427 53.5334 192.172 55.022 196.858 56.9511C199.204 57.9168 200.905 58.9419 201.993 59.9842C203.05 60.9975 203.442 61.9346 203.442 62.8414H207.442ZM176.125 77.4835C184.725 76.3596 192.314 74.8167 197.801 72.6637C200.54 71.5889 202.888 70.312 204.581 68.7552C206.304 67.1707 207.442 65.1971 207.442 62.8414H203.442C203.442 63.7784 203.023 64.754 201.873 65.811C200.694 66.8958 198.856 67.9528 196.34 68.9401C191.316 70.9112 184.116 72.4051 175.606 73.5172L176.125 77.4835ZM193.171 94.8248C194.738 93.2024 195.389 91.2512 194.985 89.1569C194.611 87.2163 193.379 85.4097 191.793 83.7678C188.607 80.4719 183.228 77.0715 176.787 73.7256L174.943 77.2752C181.327 80.5917 186.21 83.7473 188.916 86.5476C190.275 87.9538 190.897 89.0803 191.057 89.9138C191.188 90.5935 191.055 91.2572 190.293 92.0464L193.171 94.8248ZM149.983 94.4881C159.679 96.7993 168.803 98.4417 176.227 98.7915C179.938 98.9663 183.303 98.8227 186.139 98.2414C188.955 97.6641 191.441 96.6161 193.171 94.8248L190.293 92.0464C189.346 93.0272 187.746 93.8288 185.336 94.3228C182.945 94.8128 179.943 94.9622 176.415 94.7959C169.36 94.4635 160.518 92.8873 150.911 90.5971L149.983 94.4881ZM148.837 93.7289C153.399 99.9219 156.641 105.361 157.71 109.291C158.245 111.261 158.133 112.489 157.771 113.201C157.467 113.8 156.762 114.463 154.893 114.75L155.499 118.704C158.152 118.297 160.256 117.141 161.337 115.013C162.36 113 162.209 110.594 161.57 108.241C160.287 103.528 156.633 97.5674 152.057 91.3564L148.837 93.7289ZM154.893 114.75C151.018 115.344 145.766 113.682 139.495 110.082C133.313 106.532 126.503 101.313 119.652 95.3688L117.031 98.3903C123.967 104.408 130.999 109.816 137.503 113.55C143.92 117.235 150.201 119.516 155.499 118.704L154.893 114.75ZM103.619 125.188C109.089 125.188 112.815 121.369 115.305 116.311C117.803 111.238 119.346 104.404 120.323 97.1464L116.359 96.6127C115.4 103.74 113.924 110.06 111.716 114.545C109.5 119.046 106.833 121.188 103.619 121.188V125.188ZM86.9145 97.1468C87.8916 104.404 89.4352 111.238 91.933 116.312C94.4228 121.369 98.1486 125.188 103.619 125.188V121.188C100.405 121.188 97.7376 119.046 95.5216 114.545C93.3134 110.06 91.8382 103.74 90.8787 96.613L86.9145 97.1468ZM51.7393 118.704C57.0368 119.516 63.3181 117.235 69.7346 113.551C76.2393 109.816 83.2712 104.408 90.2072 98.3906L87.586 95.3692C80.7347 101.313 73.9254 106.532 67.7429 110.082C61.4721 113.682 56.2199 115.344 52.3455 114.75L51.7393 118.704ZM53.5539 93.6117C49.5226 99.3249 46.3919 104.778 45.4559 109.111C44.9842 111.295 44.9971 113.523 46.0987 115.373C47.2383 117.286 49.2539 118.323 51.7393 118.704L52.3455 114.75C50.5816 114.48 49.86 113.871 49.5353 113.326C49.1727 112.717 48.9944 111.675 49.3657 109.956C50.1155 106.485 52.8069 101.608 56.8222 95.9179L53.5539 93.6117ZM13.32 95.5835C16.8923 99.2213 23.1292 100.375 30.2422 100.29C37.4994 100.204 46.2919 98.8147 55.6267 96.7161L54.7494 92.8135C45.5226 94.8878 37.0435 96.2096 30.1949 96.2906C23.2023 96.3734 18.4994 95.1489 16.1739 92.7809L13.32 95.5835ZM27.5706 73.5166C21.473 76.9666 16.4289 80.5193 13.587 84.0391C12.1573 85.8098 11.139 87.7495 10.9979 89.8064C10.8503 91.956 11.681 93.9145 13.32 95.5835L16.1739 92.7808C15.1982 91.7872 14.9318 90.9063 14.9885 90.0803C15.0515 89.1615 15.5387 87.9892 16.6992 86.5519C19.0376 83.6557 23.5125 80.4085 29.5404 76.9979L27.5706 73.5166ZM-1.22449 62.8414C-1.22449 65.1109 -0.166356 67.0306 1.45709 68.5865C3.05025 70.1133 5.26034 71.3699 7.83701 72.4306C12.9961 74.5544 20.1409 76.0974 28.2779 77.2379L28.8331 73.2766C20.791 72.1494 14.0458 70.6609 9.35966 68.7318C7.01372 67.7661 5.3124 66.741 4.2248 65.6986C3.16749 64.6853 2.77551 63.7483 2.77551 62.8414H-1.22449ZM30.0927 48.1994C21.4927 49.3233 13.904 50.8662 8.41694 53.0192C5.6778 54.0939 3.3296 55.3708 1.63685 56.9276C-0.0859445 58.5121 -1.22449 60.4857 -1.22449 62.8414H2.77551C2.77551 61.9044 3.19527 60.9289 4.34462 59.8718C5.52401 58.7871 7.36179 57.7301 9.87799 56.7428C14.9017 54.7717 22.1011 53.2778 30.611 52.1656L30.0927 48.1994ZM13.0467 30.8582C11.4801 32.4807 10.829 34.4318 11.2325 36.5261C11.6065 38.4667 12.8382 40.2732 14.4249 41.9151C17.6101 45.211 22.9894 48.6114 29.4298 51.9573L31.2739 48.4077C24.89 45.0912 20.0074 41.9356 17.3012 39.1354C15.9423 37.7292 15.3209 36.6027 15.1603 35.7693C15.0293 35.0896 15.1622 34.4258 15.9242 33.6367L13.0467 30.8582ZM59.0501 31.8806C48.7695 29.3256 39.0145 27.4459 31.0754 26.951C27.1077 26.7037 23.512 26.7964 20.493 27.3605C17.4995 27.9199 14.8576 28.9827 13.0467 30.8582L15.9242 33.6367C16.9184 32.607 18.6296 31.7779 21.2277 31.2925C23.8003 30.8118 27.0349 30.7069 30.8266 30.9433C38.4065 31.4157 47.8875 33.2281 58.0854 35.7625L59.0501 31.8806ZM60.156 32.606C55.0245 25.9011 51.1833 19.8686 49.7496 15.4488C49.0252 13.2154 49.045 11.7776 49.4021 10.9376C49.6847 10.2726 50.3708 9.5526 52.3455 9.24984L51.7393 5.29604C48.9071 5.73028 46.7213 7.01926 45.7208 9.3728C44.7948 11.5513 45.1204 14.1414 45.9448 16.6829C47.6087 21.8128 51.8369 28.3176 56.9795 35.0371L60.156 32.606ZM52.3455 9.24984C56.2199 8.65581 61.4721 10.3176 67.7429 13.9182C73.9255 17.4682 80.7349 22.6871 87.5861 28.631L90.2074 25.6095C83.2713 19.5921 76.2394 14.1843 69.7347 10.4494C63.3181 6.76507 57.0368 4.48383 51.7393 5.29604L52.3455 9.24984ZM103.619 -1.18823C98.1488 -1.18823 94.423 2.63123 91.9331 7.68847C89.4354 12.7616 87.8918 19.596 86.9146 26.8534L90.8789 27.3871C91.8384 20.2602 93.3136 13.9403 95.5218 9.4553C97.7377 4.95438 100.405 2.81177 103.619 2.81177V-1.18823ZM120.324 26.8534C119.346 19.596 117.803 12.7616 115.305 7.68849C112.815 2.63124 109.089 -1.18823 103.619 -1.18823V2.81177C106.833 2.81177 109.5 4.95439 111.716 9.45531C113.925 13.9403 115.4 20.2602 116.359 27.3871L120.324 26.8534ZM155.499 5.29612C150.201 4.4839 143.92 6.76514 137.503 10.4494C130.999 14.1843 123.967 19.5922 117.031 25.6096L119.652 28.631C126.503 22.6871 133.313 17.4682 139.495 13.9183C145.766 10.3177 151.018 8.65588 154.893 9.24991L155.499 5.29612ZM152.42 32.1483C156.877 26.0452 160.415 20.1969 161.62 15.5676C162.223 13.253 162.338 10.8856 161.296 8.90723C160.201 6.82635 158.115 5.69725 155.499 5.29612L154.893 9.24991C156.739 9.533 157.448 10.1846 157.757 10.7707C158.119 11.4592 158.248 12.6451 157.749 14.56C156.753 18.3896 153.633 23.7051 149.19 29.7894L152.42 32.1483ZM192.898 30.0995C189.312 26.4477 183.04 25.2989 175.887 25.3938C168.589 25.4906 159.747 26.8992 150.365 29.018L151.246 32.9197C160.52 30.8252 169.05 29.4848 175.94 29.3934C182.976 29.3001 187.708 30.524 190.044 32.9022L192.898 30.0995Z" fill="black" mask="url(#path-1-inside-1_212_95)"/>
<path d="M62.1595 75.7368C59.8395 75.7368 58.3595 74.2168 57.7195 71.1768L56.7995 66.7368C56.5062 65.2968 56.1728 64.2035 55.7995 63.4568C55.4528 62.7102 54.9595 62.2035 54.3195 61.9368C53.7062 61.6702 52.8528 61.5368 51.7595 61.5368C51.3862 61.5368 51.0928 61.6435 50.8795 61.8568C50.6662 62.0435 50.5595 62.2835 50.5595 62.5768V72.5768C50.5595 73.1368 50.6662 73.5235 50.8795 73.7368C51.0928 73.9235 51.5728 74.0835 52.3195 74.2168L53.7995 74.4568C54.0928 74.5102 54.2395 74.6568 54.2395 74.8968C54.2395 75.2168 54.0395 75.3768 53.6395 75.3768H45.5195C45.1195 75.3768 44.9195 75.2302 44.9195 74.9368C44.9195 74.6968 45.0928 74.5368 45.4395 74.4568L46.3595 74.2968C46.9195 74.1902 47.2795 74.0435 47.4395 73.8568C47.6262 73.6702 47.7195 73.2968 47.7195 72.7368V49.2168C47.7195 48.6568 47.6262 48.2835 47.4395 48.0968C47.2795 47.9102 46.9195 47.7635 46.3595 47.6568L45.4395 47.4968C45.0928 47.4168 44.9195 47.2568 44.9195 47.0168C44.9195 46.7235 45.1195 46.5768 45.5195 46.5768H53.6395C55.2128 46.5768 56.6128 46.8835 57.8395 47.4968C59.0662 48.1102 60.0262 48.9635 60.7195 50.0568C61.4128 51.1235 61.7595 52.3635 61.7595 53.7768C61.7595 55.4568 61.2528 56.9768 60.2395 58.3368C59.2262 59.6702 57.9462 60.6168 56.3995 61.1768C56.2128 61.2302 56.1062 61.3235 56.0795 61.4568C56.0795 61.5635 56.1728 61.6568 56.3595 61.7368C57.2128 62.1368 57.8795 62.6968 58.3595 63.4168C58.8662 64.1368 59.2528 65.0968 59.5195 66.2968L60.3995 70.3768C60.6928 71.7635 61.0395 72.7502 61.4395 73.3368C61.8395 73.9235 62.3462 74.2168 62.9595 74.2168C63.1728 74.2168 63.3595 74.1902 63.5195 74.1368C63.7062 74.0568 63.9328 73.9235 64.1995 73.7368C64.4128 73.6035 64.6128 73.5768 64.7995 73.6568C64.9862 73.7102 65.0795 73.8435 65.0795 74.0568C65.0795 74.5102 64.7862 74.9102 64.1995 75.2568C63.6128 75.5768 62.9328 75.7368 62.1595 75.7368ZM53.2395 60.5368C55.0528 60.5368 56.4262 59.9368 57.3595 58.7368C58.2928 57.5102 58.7595 55.8835 58.7595 53.8568C58.7595 51.8835 58.2128 50.3502 57.1195 49.2568C56.0528 48.1368 54.5728 47.5768 52.6795 47.5768C51.2662 47.5768 50.5595 48.1102 50.5595 49.1768V58.3368C50.5595 59.8035 51.4528 60.5368 53.2395 60.5368ZM65.1585 75.3768C64.7585 75.3768 64.5585 75.2302 64.5585 74.9368C64.5585 74.6968 64.7319 74.5368 65.0785 74.4568L65.9985 74.2968C66.5585 74.1902 66.9185 74.0435 67.0785 73.8568C67.2652 73.6702 67.3585 73.2968 67.3585 72.7368V49.2168C67.3585 48.6568 67.2652 48.2835 67.0785 48.0968C66.9185 47.9102 66.5585 47.7635 65.9985 47.6568L65.0785 47.4968C64.7319 47.4168 64.5585 47.2568 64.5585 47.0168C64.5585 46.7235 64.7585 46.5768 65.1585 46.5768H78.5985C79.2119 46.5768 79.5452 46.8835 79.5985 47.4968L79.9185 54.1368C79.9719 54.5902 79.7985 54.8168 79.3985 54.8168C79.0785 54.8168 78.8919 54.6435 78.8385 54.2968L78.5985 52.8168C78.3052 51.0035 77.7052 49.6835 76.7985 48.8568C75.8919 48.0035 74.6385 47.5768 73.0385 47.5768C71.9719 47.5768 71.2252 47.7368 70.7985 48.0568C70.3985 48.3502 70.1985 48.8835 70.1985 49.6568V59.2968C70.1985 59.6702 70.3852 59.8568 70.7585 59.8568H72.7585C73.9319 59.8568 74.6519 59.2302 74.9185 57.9768L75.3185 55.9768C75.4252 55.5768 75.6519 55.4035 75.9985 55.4568C76.2919 55.5102 76.4385 55.7368 76.4385 56.1368V65.1368C76.4385 65.5368 76.2919 65.7635 75.9985 65.8168C75.6519 65.8702 75.4252 65.6968 75.3185 65.2968L74.9185 63.3368C74.7319 62.4035 74.4652 61.7902 74.1185 61.4968C73.7985 61.2035 73.3319 61.0568 72.7185 61.0568H70.7585C70.3852 61.0568 70.1985 61.2435 70.1985 61.6168V71.6568C70.1985 72.6168 70.4385 73.3102 70.9185 73.7368C71.4252 74.1635 72.3319 74.3768 73.6385 74.3768C74.9719 74.3768 76.1052 74.0435 77.0385 73.3768C77.9985 72.6835 78.6652 71.4035 79.0385 69.5368L79.5185 67.1768C79.5985 66.8302 79.7985 66.6568 80.1185 66.6568C80.4919 66.6568 80.6519 66.8835 80.5985 67.3368L80.1985 74.4568C80.1452 75.0702 79.8119 75.3768 79.1985 75.3768H65.1585ZM93.1635 75.7368C91.0035 75.7368 89.1769 75.1235 87.6835 73.8968C86.1902 72.6702 85.0569 70.9502 84.2835 68.7368C83.5102 66.4968 83.1235 63.8568 83.1235 60.8168C83.1235 57.8835 83.5769 55.3235 84.4835 53.1368C85.3902 50.9235 86.6302 49.2168 88.2035 48.0168C89.8035 46.7902 91.6302 46.1768 93.6835 46.1768C94.7235 46.1768 95.6702 46.2835 96.5235 46.4968C97.3769 46.6835 98.1235 46.9368 98.7635 47.2568C99.1102 47.4435 99.2835 47.7235 99.2835 48.0968L99.4035 54.1768C99.4035 54.6302 99.2435 54.8568 98.9235 54.8568C98.6302 54.8568 98.4435 54.6835 98.3635 54.3368L98.0435 53.1368C97.4569 50.9235 96.7902 49.4035 96.0435 48.5768C95.2969 47.7502 94.2702 47.3368 92.9635 47.3368C91.0169 47.3368 89.4035 48.4968 88.1235 50.8168C86.8702 53.1102 86.2435 56.4435 86.2435 60.8168C86.2435 65.3235 86.8835 68.7635 88.1635 71.1368C89.4702 73.4835 91.1369 74.6568 93.1635 74.6568C94.2569 74.6568 95.0835 74.4168 95.6435 73.9368C96.2035 73.4568 96.4835 72.5635 96.4835 71.2568V62.4968C96.4835 61.9368 96.3902 61.5502 96.2035 61.3368C96.0435 61.1235 95.6835 60.9902 95.1235 60.9368L93.5635 60.7768C93.2169 60.7502 93.0435 60.5902 93.0435 60.2968C93.0435 60.0035 93.2435 59.8568 93.6435 59.8568H100.964C101.364 59.8568 101.564 60.0168 101.564 60.3368C101.564 60.5768 101.417 60.7235 101.124 60.7768L100.524 60.8568C99.9369 60.9368 99.5902 61.0968 99.4835 61.3368C99.3769 61.5768 99.3235 61.9768 99.3235 62.5368V73.3768C99.3235 73.6702 99.2435 73.9102 99.0835 74.0968C98.9235 74.2568 98.6435 74.4435 98.2435 74.6568C97.6035 74.9768 96.8702 75.2302 96.0435 75.4168C95.2169 75.6302 94.2569 75.7368 93.1635 75.7368ZM113.623 75.7368C111.463 75.7368 109.636 75.1235 108.143 73.8968C106.65 72.6702 105.516 70.9502 104.743 68.7368C103.97 66.4968 103.583 63.8568 103.583 60.8168C103.583 57.8835 104.036 55.3235 104.943 53.1368C105.85 50.9235 107.09 49.2168 108.663 48.0168C110.263 46.7902 112.09 46.1768 114.143 46.1768C115.183 46.1768 116.13 46.2835 116.983 46.4968C117.836 46.6835 118.583 46.9368 119.223 47.2568C119.57 47.4435 119.743 47.7235 119.743 48.0968L119.863 54.1768C119.863 54.6302 119.703 54.8568 119.383 54.8568C119.09 54.8568 118.903 54.6835 118.823 54.3368L118.503 53.1368C117.916 50.9235 117.25 49.4035 116.503 48.5768C115.756 47.7502 114.73 47.3368 113.423 47.3368C111.476 47.3368 109.863 48.4968 108.583 50.8168C107.33 53.1102 106.703 56.4435 106.703 60.8168C106.703 65.3235 107.343 68.7635 108.623 71.1368C109.93 73.4835 111.596 74.6568 113.623 74.6568C114.716 74.6568 115.543 74.4168 116.103 73.9368C116.663 73.4568 116.943 72.5635 116.943 71.2568V62.4968C116.943 61.9368 116.85 61.5502 116.663 61.3368C116.503 61.1235 116.143 60.9902 115.583 60.9368L114.023 60.7768C113.676 60.7502 113.503 60.5902 113.503 60.2968C113.503 60.0035 113.703 59.8568 114.103 59.8568H121.423C121.823 59.8568 122.023 60.0168 122.023 60.3368C122.023 60.5768 121.876 60.7235 121.583 60.7768L120.983 60.8568C120.396 60.9368 120.05 61.0968 119.943 61.3368C119.836 61.5768 119.783 61.9768 119.783 62.5368V73.3768C119.783 73.6702 119.703 73.9102 119.543 74.0968C119.383 74.2568 119.103 74.4435 118.703 74.6568C118.063 74.9768 117.33 75.2302 116.503 75.4168C115.676 75.6302 114.716 75.7368 113.623 75.7368ZM122.322 75.3768C121.922 75.3768 121.722 75.2435 121.722 74.9768C121.722 74.7102 121.909 74.5368 122.282 74.4568L122.882 74.3368C123.416 74.2302 123.816 73.9768 124.082 73.5768C124.349 73.1502 124.576 72.5635 124.762 71.8168L130.962 46.8168C131.016 46.5502 131.096 46.3768 131.202 46.2968C131.336 46.2168 131.456 46.1768 131.562 46.1768C131.696 46.1768 131.816 46.2168 131.922 46.2968C132.056 46.3768 132.149 46.5502 132.202 46.8168L138.522 72.1768C138.709 72.9235 138.922 73.4435 139.162 73.7368C139.402 74.0302 139.776 74.2302 140.282 74.3368L140.882 74.4568C141.256 74.5368 141.442 74.7102 141.442 74.9768C141.442 75.2435 141.242 75.3768 140.842 75.3768H134.002C133.629 75.3768 133.442 75.2302 133.442 74.9368C133.442 74.6435 133.669 74.4835 134.122 74.4568L134.882 74.3768C135.336 74.3235 135.616 74.1768 135.722 73.9368C135.856 73.6968 135.856 73.2835 135.722 72.6968L134.202 66.4968C134.042 65.8035 133.602 65.4568 132.882 65.4568H128.682C127.989 65.4568 127.549 65.8035 127.362 66.4968L126.002 71.8568C125.602 73.3768 126.002 74.2168 127.202 74.3768L127.802 74.4568C128.256 74.5368 128.482 74.6968 128.482 74.9368C128.482 75.2302 128.296 75.3768 127.922 75.3768H122.322ZM128.562 64.2568H132.962C133.389 64.2568 133.562 64.0302 133.482 63.5768L130.922 52.8568H130.722L128.042 63.5768C127.962 64.0302 128.136 64.2568 128.562 64.2568ZM141.293 75.3768C140.893 75.3768 140.693 75.2302 140.693 74.9368C140.693 74.6968 140.866 74.5368 141.213 74.4568L142.133 74.2968C142.693 74.1902 143.053 74.0435 143.213 73.8568C143.4 73.6702 143.493 73.2968 143.493 72.7368V49.2168C143.493 48.6568 143.4 48.2835 143.213 48.0968C143.053 47.9102 142.693 47.7635 142.133 47.6568L141.213 47.4968C140.866 47.4168 140.693 47.2568 140.693 47.0168C140.693 46.7235 140.893 46.5768 141.293 46.5768H154.733C155.346 46.5768 155.68 46.8835 155.733 47.4968L156.053 54.1368C156.106 54.5902 155.933 54.8168 155.533 54.8168C155.213 54.8168 155.026 54.6435 154.973 54.2968L154.733 52.8168C154.44 51.0035 153.84 49.6835 152.933 48.8568C152.026 48.0035 150.773 47.5768 149.173 47.5768C148.106 47.5768 147.36 47.7368 146.933 48.0568C146.533 48.3502 146.333 48.8835 146.333 49.6568V59.2968C146.333 59.6702 146.52 59.8568 146.893 59.8568H148.893C150.066 59.8568 150.786 59.2302 151.053 57.9768L151.453 55.9768C151.56 55.5768 151.786 55.4035 152.133 55.4568C152.426 55.5102 152.573 55.7368 152.573 56.1368V65.1368C152.573 65.5368 152.426 65.7635 152.133 65.8168C151.786 65.8702 151.56 65.6968 151.453 65.2968L151.053 63.3368C150.866 62.4035 150.6 61.7902 150.253 61.4968C149.933 61.2035 149.466 61.0568 148.853 61.0568H146.893C146.52 61.0568 146.333 61.2435 146.333 61.6168V71.6568C146.333 72.6168 146.573 73.3102 147.053 73.7368C147.56 74.1635 148.466 74.3768 149.773 74.3768C151.106 74.3768 152.24 74.0435 153.173 73.3768C154.133 72.6835 154.8 71.4035 155.173 69.5368L155.653 67.1768C155.733 66.8302 155.933 66.6568 156.253 66.6568C156.626 66.6568 156.786 66.8835 156.733 67.3368L156.333 74.4568C156.28 75.0702 155.946 75.3768 155.333 75.3768H141.293Z" fill="black"/>
<defs>
<linearGradient id="paint0_linear_212_95" x1="156.288" y1="7.71041" x2="59.4284" y2="138.915" gradientUnits="userSpaceOnUse">
<stop stop-color="#FCEE84"/>
<stop offset="1" stop-color="#66CE7E"/>
</linearGradient>
</defs>
</svg>
