<svg width="171" height="110" viewBox="0 0 171 110" fill="none" xmlns="http://www.w3.org/2000/svg">
<path d="M83.5196 2.92857C85.0875 2.37059 86.8049 2.39087 88.3631 2.98576L153.377 27.8067C156.119 28.8535 157.924 31.4963 157.899 34.4281L157.537 77.2773C157.512 80.2091 155.663 82.8088 152.904 83.7907L87.483 107.071C85.915 107.629 84.1976 107.609 82.6394 107.014L17.6255 82.1933C14.8835 81.1465 13.0785 78.5037 13.1033 75.5718L13.4657 32.7227C13.4905 29.7909 15.3397 27.1912 18.0989 26.2093L83.5196 2.92857Z" fill="url(#paint0_linear_226_125)" stroke="black" stroke-width="2"/>
<path d="M61.6539 70.7252C59.0439 70.7252 57.3789 69.0152 56.6589 65.5952L55.6239 60.6002C55.2939 58.9802 54.9189 57.7502 54.4989 56.9102C54.1089 56.0702 53.5539 55.5002 52.8339 55.2002C52.1439 54.9002 51.1839 54.7502 49.9539 54.7502C49.5339 54.7502 49.2039 54.8702 48.9639 55.1102C48.7239 55.3202 48.6039 55.5902 48.6039 55.9202V67.1702C48.6039 67.8002 48.7239 68.2352 48.9639 68.4752C49.2039 68.6852 49.7439 68.8652 50.5839 69.0152L52.2489 69.2852C52.5789 69.3452 52.7439 69.5102 52.7439 69.7802C52.7439 70.1402 52.5189 70.3202 52.0689 70.3202H42.9339C42.4839 70.3202 42.2589 70.1552 42.2589 69.8252C42.2589 69.5552 42.4539 69.3752 42.8439 69.2852L43.8789 69.1052C44.5089 68.9852 44.9139 68.8202 45.0939 68.6102C45.3039 68.4002 45.4089 67.9802 45.4089 67.3502V40.8902C45.4089 40.2602 45.3039 39.8402 45.0939 39.6302C44.9139 39.4202 44.5089 39.2552 43.8789 39.1352L42.8439 38.9552C42.4539 38.8652 42.2589 38.6852 42.2589 38.4152C42.2589 38.0852 42.4839 37.9202 42.9339 37.9202H52.0689C53.8389 37.9202 55.4139 38.2652 56.7939 38.9552C58.1739 39.6452 59.2539 40.6052 60.0339 41.8352C60.8139 43.0352 61.2039 44.4302 61.2039 46.0202C61.2039 47.9102 60.6339 49.6202 59.4939 51.1502C58.3539 52.6502 56.9139 53.7152 55.1739 54.3452C54.9639 54.4052 54.8439 54.5102 54.8139 54.6602C54.8139 54.7802 54.9189 54.8852 55.1289 54.9752C56.0889 55.4252 56.8389 56.0552 57.3789 56.8652C57.9489 57.6752 58.3839 58.7552 58.6839 60.1052L59.6739 64.6952C60.0039 66.2552 60.3939 67.3652 60.8439 68.0252C61.2939 68.6852 61.8639 69.0152 62.5539 69.0152C62.7939 69.0152 63.0039 68.9852 63.1839 68.9252C63.3939 68.8352 63.6489 68.6852 63.9489 68.4752C64.1889 68.3252 64.4139 68.2952 64.6239 68.3852C64.8339 68.4452 64.9389 68.5952 64.9389 68.8352C64.9389 69.3452 64.6089 69.7952 63.9489 70.1852C63.2889 70.5452 62.5239 70.7252 61.6539 70.7252ZM51.6189 53.6252C53.6589 53.6252 55.2039 52.9502 56.2539 51.6002C57.3039 50.2202 57.8289 48.3902 57.8289 46.1102C57.8289 43.8902 57.2139 42.1652 55.9839 40.9352C54.7839 39.6752 53.1189 39.0452 50.9889 39.0452C49.3989 39.0452 48.6039 39.6452 48.6039 40.8452V51.1502C48.6039 52.8002 49.6089 53.6252 51.6189 53.6252ZM74.8515 70.7252C73.4115 70.7252 72.0615 70.3052 70.8015 69.4652C69.5415 68.5952 68.4315 67.4102 67.4715 65.9102C66.5415 64.4102 65.8065 62.6552 65.2665 60.6452C64.7565 58.6052 64.5015 56.4152 64.5015 54.0752C64.5015 51.7352 64.7565 49.5602 65.2665 47.5502C65.8065 45.5402 66.5415 43.7852 67.4715 42.2852C68.4315 40.7552 69.5415 39.5702 70.8015 38.7302C72.0615 37.8902 73.4115 37.4702 74.8515 37.4702C76.2915 37.4702 77.6265 37.8902 78.8565 38.7302C80.1165 39.5702 81.2265 40.7552 82.1865 42.2852C83.1465 43.7852 83.8815 45.5402 84.3915 47.5502C84.9315 49.5602 85.2015 51.7352 85.2015 54.0752C85.2015 56.4152 84.9315 58.6052 84.3915 60.6452C83.8815 62.6552 83.1465 64.4102 82.1865 65.9102C81.2265 67.4102 80.1165 68.5952 78.8565 69.4652C77.6265 70.3052 76.2915 70.7252 74.8515 70.7252ZM74.8515 69.5102C76.9815 69.5102 78.6465 68.2352 79.8465 65.6852C81.0465 63.1352 81.6465 59.2652 81.6465 54.0752C81.6465 48.8852 81.0465 45.0302 79.8465 42.5102C78.6465 39.9602 76.9815 38.6852 74.8515 38.6852C72.7515 38.6852 71.0865 39.9602 69.8565 42.5102C68.6565 45.0302 68.0565 48.8852 68.0565 54.0752C68.0565 59.2652 68.6565 63.1352 69.8565 65.6852C71.0865 68.2352 72.7515 69.5102 74.8515 69.5102ZM99.1983 70.7252C96.9783 70.7252 95.0283 70.0352 93.3483 68.6552C91.6983 67.2752 90.4083 65.3402 89.4783 62.8502C88.5783 60.3302 88.1283 57.3602 88.1283 53.9402C88.1283 50.6402 88.6233 47.7602 89.6133 45.3002C90.6333 42.8102 91.9833 40.8902 93.6633 39.5402C95.3733 38.1602 97.2633 37.4702 99.3333 37.4702C100.563 37.4702 101.643 37.5902 102.573 37.8302C103.503 38.0402 104.328 38.3252 105.048 38.6852C105.408 38.8952 105.588 39.2102 105.588 39.6302L105.723 46.4702C105.723 46.9802 105.543 47.2352 105.183 47.2352C104.853 47.2352 104.643 47.0402 104.553 46.6502L104.103 44.9852C103.473 42.6452 102.738 41.0252 101.898 40.1252C101.088 39.2252 100.113 38.7752 98.9733 38.7752C96.8733 38.7752 95.1183 40.0802 93.7083 42.6902C92.3283 45.2702 91.6383 49.0202 91.6383 53.9402C91.6383 57.3002 91.9833 60.1352 92.6733 62.4452C93.3933 64.7552 94.3083 66.4952 95.4183 67.6652C96.5583 68.8352 97.7583 69.4202 99.0183 69.4202C100.368 69.4202 101.448 69.0002 102.258 68.1602C103.098 67.3202 103.803 65.7002 104.373 63.3002L104.913 61.0952C105.003 60.6452 105.243 60.4502 105.633 60.5102C105.963 60.5702 106.128 60.8252 106.128 61.2752L105.948 68.5652C105.948 68.9852 105.753 69.3002 105.363 69.5102C104.643 69.8702 103.788 70.1552 102.798 70.3652C101.838 70.6052 100.638 70.7252 99.1983 70.7252ZM108.804 70.3202C108.354 70.3202 108.129 70.1552 108.129 69.8252C108.129 69.5552 108.324 69.3752 108.714 69.2852L109.749 69.1052C110.379 68.9852 110.784 68.8202 110.964 68.6102C111.174 68.4002 111.279 67.9802 111.279 67.3502V40.8902C111.279 40.2602 111.174 39.8402 110.964 39.6302C110.784 39.4202 110.379 39.2552 109.749 39.1352L108.714 38.9552C108.324 38.8652 108.129 38.6852 108.129 38.4152C108.129 38.0852 108.354 37.9202 108.804 37.9202H117.039C117.489 37.9202 117.714 38.1002 117.714 38.4602C117.714 38.7302 117.549 38.8952 117.219 38.9552L116.004 39.1352C115.374 39.2252 114.954 39.3902 114.744 39.6302C114.564 39.8702 114.474 40.3052 114.474 40.9352V53.0852C114.474 53.3852 114.564 53.5652 114.744 53.6252C114.924 53.6852 115.089 53.5802 115.239 53.3102L122.619 41.7452C123.609 40.2152 123.519 39.3452 122.349 39.1352L121.314 38.9552C120.924 38.8652 120.729 38.6702 120.729 38.3702C120.729 38.0702 120.939 37.9202 121.359 37.9202H129.009C129.429 37.9202 129.639 38.0852 129.639 38.4152C129.639 38.7452 129.444 38.9252 129.054 38.9552L128.199 39.0452C127.269 39.1352 126.504 39.4052 125.904 39.8552C125.304 40.3052 124.629 41.1152 123.879 42.2852L118.794 50.2502C118.494 50.7602 118.479 51.2552 118.749 51.7352L127.209 67.6652C127.449 68.1452 127.689 68.4902 127.929 68.7002C128.199 68.9102 128.514 69.0452 128.874 69.1052L129.954 69.2852C130.314 69.3152 130.494 69.4952 130.494 69.8252C130.494 70.1552 130.284 70.3202 129.864 70.3202H121.854C121.434 70.3202 121.224 70.1552 121.224 69.8252C121.224 69.5252 121.419 69.3452 121.809 69.2852L122.574 69.1952C123.744 69.0452 123.984 68.3102 123.294 66.9902L116.814 54.6602C116.694 54.4202 116.559 54.3002 116.409 54.3002C116.259 54.2702 116.109 54.3752 115.959 54.6152L115.014 56.1002C114.804 56.4002 114.654 56.6852 114.564 56.9552C114.504 57.2252 114.474 57.5702 114.474 57.9902V67.3052C114.474 67.9352 114.564 68.3702 114.744 68.6102C114.954 68.8502 115.374 69.0152 116.004 69.1052L117.219 69.2852C117.549 69.3452 117.714 69.5102 117.714 69.7802C117.714 70.1402 117.489 70.3202 117.039 70.3202H108.804Z" fill="black"/>
<defs>
<linearGradient id="paint0_linear_226_125" x1="141.162" y1="19.2218" x2="27.5716" y2="78.7415" gradientUnits="userSpaceOnUse">
<stop stop-color="#FEDB9A"/>
<stop offset="1" stop-color="#FF6B57"/>
</linearGradient>
</defs>
</svg>
