<svg width="232" height="99" viewBox="0 0 232 99" fill="none" xmlns="http://www.w3.org/2000/svg">
<path d="M230.128 1.115L222.591 15.0236C216.653 25.982 216.485 39.1597 222.139 50.2667C227.516 60.8258 227.296 73.3656 221.553 83.7299L213.71 97.885L2.03062 97.885L10.3567 84.7948C17.2284 73.991 17.4867 60.253 11.026 49.1985C5.04501 38.965 5.21992 26.2616 11.4804 16.1966L20.8611 1.11501L230.128 1.115Z" fill="url(#paint0_linear_219_109)" stroke="black" stroke-width="2.23"/>
<path d="M37.9351 61.315C37.4685 61.315 36.9435 61.2683 36.3601 61.175C35.8001 61.0817 35.2635 60.965 34.7501 60.825C34.2601 60.685 33.8751 60.5333 33.5951 60.37C33.4318 60.2767 33.3035 60.1833 33.2101 60.09C33.1401 59.9733 33.1051 59.7867 33.1051 59.53L32.9301 54.035C32.9301 53.5683 33.0818 53.335 33.3851 53.335C33.6418 53.335 33.8168 53.545 33.9101 53.965L34.2251 55.295C35.0185 58.6317 36.5001 60.3 38.6701 60.3C39.8368 60.3 40.7585 59.915 41.4351 59.145C42.1351 58.3517 42.4851 57.2433 42.4851 55.82C42.4851 54.4433 42.1235 53.16 41.4001 51.97C40.7001 50.78 39.5685 49.6017 38.0051 48.435C36.2785 47.1983 35.0185 46.0083 34.2251 44.865C33.4318 43.6983 33.0351 42.4617 33.0351 41.155C33.0351 39.4283 33.6301 38.0517 34.8201 37.025C36.0335 35.975 37.5735 35.45 39.4401 35.45C40.1401 35.45 40.8168 35.5317 41.4701 35.695C42.1235 35.8583 42.6601 36.0917 43.0801 36.395C43.2201 36.4883 43.3251 36.5933 43.3951 36.71C43.4885 36.8267 43.5351 36.9783 43.5351 37.165L43.6401 42.45C43.6401 42.8467 43.4885 43.045 43.1851 43.045C42.9751 43.045 42.8235 42.8817 42.7301 42.555L42.4851 41.68C41.9718 39.8833 41.4351 38.5767 40.8751 37.76C40.3385 36.92 39.5568 36.5 38.5301 36.5C37.5268 36.5 36.7218 36.8267 36.1151 37.48C35.5318 38.1333 35.2401 39.055 35.2401 40.245C35.2401 41.2483 35.5668 42.205 36.2201 43.115C36.8735 44.025 38.0168 45.1333 39.6501 46.44C41.4001 47.8633 42.6718 49.24 43.4651 50.57C44.2818 51.8767 44.6901 53.2767 44.6901 54.77C44.6901 56.0767 44.3985 57.22 43.8151 58.2C43.2318 59.18 42.4268 59.95 41.4001 60.51C40.3968 61.0467 39.2418 61.315 37.9351 61.315ZM55.198 61.315C54.078 61.315 53.028 60.9883 52.048 60.335C51.068 59.6583 50.2047 58.7367 49.458 57.57C48.7347 56.4033 48.163 55.0383 47.743 53.475C47.3464 51.8883 47.148 50.185 47.148 48.365C47.148 46.545 47.3464 44.8533 47.743 43.29C48.163 41.7267 48.7347 40.3617 49.458 39.195C50.2047 38.005 51.068 37.0833 52.048 36.43C53.028 35.7767 54.078 35.45 55.198 35.45C56.318 35.45 57.3564 35.7767 58.313 36.43C59.293 37.0833 60.1564 38.005 60.903 39.195C61.6497 40.3617 62.2214 41.7267 62.618 43.29C63.038 44.8533 63.248 46.545 63.248 48.365C63.248 50.185 63.038 51.8883 62.618 53.475C62.2214 55.0383 61.6497 56.4033 60.903 57.57C60.1564 58.7367 59.293 59.6583 58.313 60.335C57.3564 60.9883 56.318 61.315 55.198 61.315ZM55.198 60.37C56.8547 60.37 58.1497 59.3783 59.083 57.395C60.0164 55.4117 60.483 52.4017 60.483 48.365C60.483 44.3283 60.0164 41.33 59.083 39.37C58.1497 37.3867 56.8547 36.395 55.198 36.395C53.5647 36.395 52.2697 37.3867 51.313 39.37C50.3797 41.33 49.913 44.3283 49.913 48.365C49.913 52.4017 50.3797 55.4117 51.313 57.395C52.2697 59.3783 53.5647 60.37 55.198 60.37ZM74.001 61.315C72.741 61.315 71.621 61.0233 70.641 60.44C69.6843 59.8333 68.9376 59.005 68.401 57.955C67.8643 56.8817 67.596 55.6567 67.596 54.28V38.11C67.596 37.62 67.5143 37.2933 67.351 37.13C67.211 36.9667 66.896 36.8383 66.406 36.745L65.601 36.605C65.2976 36.535 65.146 36.395 65.146 36.185C65.146 35.9283 65.321 35.8 65.671 35.8H72.076C72.426 35.8 72.601 35.94 72.601 36.22C72.601 36.43 72.4726 36.5583 72.216 36.605L71.271 36.745C70.8043 36.815 70.4893 36.9433 70.326 37.13C70.1626 37.3167 70.081 37.655 70.081 38.145V54.315C70.081 56.0883 70.4776 57.465 71.271 58.445C72.0643 59.425 73.1726 59.915 74.596 59.915C76.0426 59.915 77.1626 59.425 77.956 58.445C78.7493 57.465 79.146 56.0883 79.146 54.315V38.845C79.146 37.585 78.7493 36.885 77.956 36.745L77.011 36.605C76.7543 36.5583 76.626 36.43 76.626 36.22C76.626 35.94 76.801 35.8 77.151 35.8H82.191C82.541 35.8 82.716 35.9283 82.716 36.185C82.716 36.395 82.5643 36.535 82.261 36.605L81.456 36.745C80.6626 36.885 80.266 37.5733 80.266 38.81V54.28C80.266 56.4033 79.6943 58.1067 78.551 59.39C77.4076 60.6733 75.891 61.315 74.001 61.315ZM98.1556 61.315C97.7823 61.315 97.4673 61.035 97.2106 60.475L87.7256 39.895C87.6556 39.7317 87.5623 39.6617 87.4456 39.685C87.3523 39.7083 87.3056 39.8133 87.3056 40V57.99C87.3056 58.6433 87.4106 59.145 87.6206 59.495C87.854 59.8217 88.2623 60.0317 88.8456 60.125L89.3006 60.195C89.604 60.2183 89.7556 60.3583 89.7556 60.615C89.7556 60.8717 89.5806 61 89.2306 61H84.2256C83.8756 61 83.7006 60.8717 83.7006 60.615C83.7006 60.3583 83.8523 60.2183 84.1556 60.195L84.6106 60.125C85.2173 60.0317 85.6373 59.8217 85.8706 59.495C86.104 59.145 86.2206 58.6433 86.2206 57.99V38.11C86.2206 37.62 86.139 37.2933 85.9756 37.13C85.8356 36.9667 85.4973 36.8383 84.9606 36.745L84.1556 36.605C83.8523 36.535 83.7006 36.395 83.7006 36.185C83.7006 35.9283 83.8756 35.8 84.2256 35.8H87.9706C88.554 35.8 88.9623 36.0567 89.1956 36.57L97.4556 54.735C97.5256 54.875 97.6073 54.9333 97.7006 54.91C97.8173 54.8867 97.8756 54.805 97.8756 54.665V38.81C97.8756 38.0633 97.7473 37.55 97.4906 37.27C97.234 36.9667 96.9073 36.78 96.5106 36.71L95.8806 36.605C95.5773 36.535 95.4256 36.395 95.4256 36.185C95.4256 35.9283 95.6006 35.8 95.9506 35.8H100.956C101.306 35.8 101.481 35.9283 101.481 36.185C101.481 36.4417 101.329 36.5817 101.026 36.605L100.571 36.675C99.964 36.7683 99.544 36.9667 99.3106 37.27C99.0773 37.55 98.9606 38.0633 98.9606 38.81V60.195C98.9606 60.615 98.879 60.9067 98.7156 61.07C98.5756 61.2333 98.389 61.315 98.1556 61.315ZM103.232 61C102.882 61 102.707 60.8717 102.707 60.615C102.707 60.405 102.859 60.265 103.162 60.195L103.967 60.055C104.76 59.915 105.157 59.46 105.157 58.69V38.11C105.157 37.62 105.075 37.2933 104.912 37.13C104.772 36.9667 104.457 36.8383 103.967 36.745L103.162 36.605C102.859 36.535 102.707 36.395 102.707 36.185C102.707 35.9283 102.882 35.8 103.232 35.8H110.302C112.122 35.8 113.697 36.3367 115.027 37.41C116.357 38.46 117.384 39.9417 118.107 41.855C118.83 43.7683 119.192 45.985 119.192 48.505C119.192 51.0483 118.807 53.2533 118.037 55.12C117.29 56.9867 116.229 58.4333 114.852 59.46C113.475 60.4867 111.842 61 109.952 61H103.232ZM110.092 60.09C112.169 60.09 113.744 59.0983 114.817 57.115C115.914 55.1317 116.462 52.2617 116.462 48.505C116.462 44.7717 115.937 41.8783 114.887 39.825C113.86 37.7483 112.332 36.71 110.302 36.71C108.529 36.71 107.642 37.5617 107.642 39.265V57.535C107.642 58.4683 107.829 59.1333 108.202 59.53C108.599 59.9033 109.229 60.09 110.092 60.09ZM124.321 61C123.971 61 123.796 60.8717 123.796 60.615C123.796 60.3583 123.948 60.2183 124.251 60.195L125.826 59.95C126.293 59.88 126.608 59.7633 126.771 59.6C126.935 59.4133 127.016 59.075 127.016 58.585V37.585C127.016 37.2583 126.946 37.025 126.806 36.885C126.666 36.745 126.375 36.675 125.931 36.675C125.068 36.675 124.216 37.0483 123.376 37.795C122.536 38.5417 121.988 39.7433 121.731 41.4L121.556 42.555C121.51 42.8583 121.346 43.01 121.066 43.01C120.716 43.01 120.565 42.8117 120.611 42.415L120.926 36.08C120.973 35.5433 121.183 35.275 121.556 35.275C121.72 35.275 121.871 35.3217 122.011 35.415C122.151 35.485 122.385 35.5667 122.711 35.66C123.061 35.7533 123.61 35.8 124.356 35.8H132.161C132.908 35.8 133.445 35.7533 133.771 35.66C134.121 35.5667 134.366 35.485 134.506 35.415C134.67 35.3217 134.821 35.275 134.961 35.275C135.335 35.275 135.545 35.5433 135.591 36.08L135.906 42.415C135.953 42.8117 135.801 43.01 135.451 43.01C135.171 43.01 135.008 42.8583 134.961 42.555L134.786 41.4C134.553 39.7433 134.016 38.5417 133.176 37.795C132.336 37.0483 131.473 36.675 130.586 36.675C130.143 36.675 129.851 36.745 129.711 36.885C129.571 37.025 129.501 37.2583 129.501 37.585V58.585C129.501 59.075 129.583 59.4133 129.746 59.6C129.933 59.7633 130.248 59.88 130.691 59.95L132.266 60.195C132.57 60.2183 132.721 60.3583 132.721 60.615C132.721 60.8717 132.546 61 132.196 61H124.321ZM152.074 61.315C150.044 61.315 148.749 59.985 148.189 57.325L147.384 53.44C147.128 52.18 146.836 51.2233 146.509 50.57C146.206 49.9167 145.774 49.4733 145.214 49.24C144.678 49.0067 143.931 48.89 142.974 48.89C142.648 48.89 142.391 48.9833 142.204 49.17C142.018 49.3333 141.924 49.5433 141.924 49.8V58.55C141.924 59.04 142.018 59.3783 142.204 59.565C142.391 59.7283 142.811 59.8683 143.464 59.985L144.759 60.195C145.016 60.2417 145.144 60.37 145.144 60.58C145.144 60.86 144.969 61 144.619 61H137.514C137.164 61 136.989 60.8717 136.989 60.615C136.989 60.405 137.141 60.265 137.444 60.195L138.249 60.055C138.739 59.9617 139.054 59.8333 139.194 59.67C139.358 59.5067 139.439 59.18 139.439 58.69V38.11C139.439 37.62 139.358 37.2933 139.194 37.13C139.054 36.9667 138.739 36.8383 138.249 36.745L137.444 36.605C137.141 36.535 136.989 36.395 136.989 36.185C136.989 35.9283 137.164 35.8 137.514 35.8H144.619C145.996 35.8 147.221 36.0683 148.294 36.605C149.368 37.1417 150.208 37.8883 150.814 38.845C151.421 39.7783 151.724 40.8633 151.724 42.1C151.724 43.57 151.281 44.9 150.394 46.09C149.508 47.2567 148.388 48.085 147.034 48.575C146.871 48.6217 146.778 48.7033 146.754 48.82C146.754 48.9133 146.836 48.995 146.999 49.065C147.746 49.415 148.329 49.905 148.749 50.535C149.193 51.165 149.531 52.005 149.764 53.055L150.534 56.625C150.791 57.8383 151.094 58.7017 151.444 59.215C151.794 59.7283 152.238 59.985 152.774 59.985C152.961 59.985 153.124 59.9617 153.264 59.915C153.428 59.845 153.626 59.7283 153.859 59.565C154.046 59.4483 154.221 59.425 154.384 59.495C154.548 59.5417 154.629 59.6583 154.629 59.845C154.629 60.2417 154.373 60.5917 153.859 60.895C153.346 61.175 152.751 61.315 152.074 61.315ZM144.269 48.015C145.856 48.015 147.058 47.49 147.874 46.44C148.691 45.3667 149.099 43.9433 149.099 42.17C149.099 40.4433 148.621 39.1017 147.664 38.145C146.731 37.165 145.436 36.675 143.779 36.675C142.543 36.675 141.924 37.1417 141.924 38.075V46.09C141.924 47.3733 142.706 48.015 144.269 48.015ZM152.42 61C152.07 61 151.895 60.8833 151.895 60.65C151.895 60.4167 152.059 60.265 152.385 60.195L152.91 60.09C153.377 59.9967 153.727 59.775 153.96 59.425C154.194 59.0517 154.392 58.5383 154.555 57.885L159.98 36.01C160.027 35.7767 160.097 35.625 160.19 35.555C160.307 35.485 160.412 35.45 160.505 35.45C160.622 35.45 160.727 35.485 160.82 35.555C160.937 35.625 161.019 35.7767 161.065 36.01L166.595 58.2C166.759 58.8533 166.945 59.3083 167.155 59.565C167.365 59.8217 167.692 59.9967 168.135 60.09L168.66 60.195C168.987 60.265 169.15 60.4167 169.15 60.65C169.15 60.8833 168.975 61 168.625 61H162.64C162.314 61 162.15 60.8717 162.15 60.615C162.15 60.3583 162.349 60.2183 162.745 60.195L163.41 60.125C163.807 60.0783 164.052 59.95 164.145 59.74C164.262 59.53 164.262 59.1683 164.145 58.655L162.815 53.23C162.675 52.6233 162.29 52.32 161.66 52.32H157.985C157.379 52.32 156.994 52.6233 156.83 53.23L155.64 57.92C155.29 59.25 155.64 59.985 156.69 60.125L157.215 60.195C157.612 60.265 157.81 60.405 157.81 60.615C157.81 60.8717 157.647 61 157.32 61H152.42ZM157.88 51.27H161.73C162.104 51.27 162.255 51.0717 162.185 50.675L159.945 41.295H159.77L157.425 50.675C157.355 51.0717 157.507 51.27 157.88 51.27ZM177.335 61.315C175.609 61.315 174.092 60.7783 172.785 59.705C171.502 58.6317 170.499 57.1267 169.775 55.19C169.075 53.23 168.725 50.92 168.725 48.26C168.725 45.6933 169.11 43.4533 169.88 41.54C170.674 39.6033 171.724 38.11 173.03 37.06C174.36 35.9867 175.83 35.45 177.44 35.45C178.397 35.45 179.237 35.5433 179.96 35.73C180.684 35.8933 181.325 36.115 181.885 36.395C182.165 36.5583 182.305 36.8033 182.305 37.13L182.41 42.45C182.41 42.8467 182.27 43.045 181.99 43.045C181.734 43.045 181.57 42.8933 181.5 42.59L181.15 41.295C180.66 39.475 180.089 38.215 179.435 37.515C178.805 36.815 178.047 36.465 177.16 36.465C175.527 36.465 174.162 37.48 173.065 39.51C171.992 41.5167 171.455 44.4333 171.455 48.26C171.455 50.8733 171.724 53.0783 172.26 54.875C172.82 56.6717 173.532 58.025 174.395 58.935C175.282 59.845 176.215 60.3 177.195 60.3C178.245 60.3 179.085 59.9733 179.715 59.32C180.369 58.6667 180.917 57.4067 181.36 55.54L181.78 53.825C181.85 53.475 182.037 53.3233 182.34 53.37C182.597 53.4167 182.725 53.615 182.725 53.965L182.585 59.635C182.585 59.9617 182.434 60.2067 182.13 60.37C181.57 60.65 180.905 60.8717 180.135 61.035C179.389 61.2217 178.455 61.315 177.335 61.315ZM185.332 61C184.982 61 184.807 60.8717 184.807 60.615C184.807 60.405 184.958 60.265 185.262 60.195L186.067 60.055C186.557 59.9617 186.872 59.8333 187.012 59.67C187.175 59.5067 187.257 59.18 187.257 58.69V38.11C187.257 37.62 187.175 37.2933 187.012 37.13C186.872 36.9667 186.557 36.8383 186.067 36.745L185.262 36.605C184.958 36.535 184.807 36.395 184.807 36.185C184.807 35.9283 184.982 35.8 185.332 35.8H191.737C192.087 35.8 192.262 35.94 192.262 36.22C192.262 36.43 192.133 36.5583 191.877 36.605L190.932 36.745C190.442 36.815 190.115 36.9433 189.952 37.13C189.812 37.3167 189.742 37.655 189.742 38.145V47.595C189.742 47.8283 189.812 47.9683 189.952 48.015C190.092 48.0617 190.22 47.98 190.337 47.77L196.077 38.775C196.847 37.585 196.777 36.9083 195.867 36.745L195.062 36.605C194.758 36.535 194.607 36.3833 194.607 36.15C194.607 35.9167 194.77 35.8 195.097 35.8H201.047C201.373 35.8 201.537 35.9283 201.537 36.185C201.537 36.4417 201.385 36.5817 201.082 36.605L200.417 36.675C199.693 36.745 199.098 36.955 198.632 37.305C198.165 37.655 197.64 38.285 197.057 39.195L193.102 45.39C192.868 45.7867 192.857 46.1717 193.067 46.545L199.647 58.935C199.833 59.3083 200.02 59.5767 200.207 59.74C200.417 59.9033 200.662 60.0083 200.942 60.055L201.782 60.195C202.062 60.2183 202.202 60.3583 202.202 60.615C202.202 60.8717 202.038 61 201.712 61H195.482C195.155 61 194.992 60.8717 194.992 60.615C194.992 60.3817 195.143 60.2417 195.447 60.195L196.042 60.125C196.952 60.0083 197.138 59.4367 196.602 58.41L191.562 48.82C191.468 48.6333 191.363 48.54 191.247 48.54C191.13 48.5167 191.013 48.5983 190.897 48.785L190.162 49.94C189.998 50.1733 189.882 50.395 189.812 50.605C189.765 50.815 189.742 51.0833 189.742 51.41V58.655C189.742 59.145 189.812 59.4833 189.952 59.67C190.115 59.8567 190.442 59.985 190.932 60.055L191.877 60.195C192.133 60.2417 192.262 60.37 192.262 60.58C192.262 60.86 192.087 61 191.737 61H185.332Z" fill="black"/>
<defs>
<linearGradient id="paint0_linear_219_109" x1="171" y1="5.18421e-07" x2="25.5" y2="99" gradientUnits="userSpaceOnUse">
<stop stop-color="#F4FFEA"/>
<stop offset="1" stop-color="#A8FF60"/>
</linearGradient>
</defs>
</svg>
