<svg width="191" height="107" viewBox="0 0 191 107" fill="none" xmlns="http://www.w3.org/2000/svg">
<path d="M189.112 53.5C189.112 67.7525 178.843 80.8587 161.797 90.4589C144.781 100.041 121.206 106 95.1121 106C69.0179 106 45.4435 100.041 28.4276 90.4589C11.3806 80.8587 1.11206 67.7525 1.11206 53.5C1.11206 39.2475 11.3806 26.1413 28.4276 16.5411C45.4435 6.95851 69.0179 1 95.1121 1C121.206 1 144.781 6.95851 161.797 16.5411C178.843 26.1413 189.112 39.2475 189.112 53.5Z" fill="url(#paint0_linear_219_113)" stroke="black" stroke-width="2"/>
<path d="M55.8631 69.45C55.7431 69.45 55.6231 69.405 55.5031 69.315C55.3831 69.225 55.2931 69.03 55.2331 68.73L51.7681 54.78C51.7381 54.54 51.6481 54.435 51.4981 54.465C51.3481 54.465 51.2431 54.57 51.1831 54.78L47.3131 68.73C47.2231 69.03 47.1181 69.225 46.9981 69.315C46.9081 69.405 46.8031 69.45 46.6831 69.45C46.5631 69.45 46.4281 69.405 46.2781 69.315C46.1581 69.225 46.0681 69.03 46.0081 68.73L38.8981 40.2C38.6881 39.36 38.4481 38.775 38.1781 38.445C37.9381 38.115 37.5181 37.89 36.9181 37.77L36.2431 37.635C35.8231 37.545 35.6131 37.35 35.6131 37.05C35.6131 36.75 35.8381 36.6 36.2881 36.6H43.5331C43.9531 36.6 44.1631 36.765 44.1631 37.095C44.1631 37.365 43.9381 37.545 43.4881 37.635L42.9931 37.725C42.4831 37.815 42.1531 37.995 42.0031 38.265C41.8831 38.505 41.8981 38.955 42.0481 39.615L47.3581 61.575C47.4181 61.785 47.5081 61.89 47.6281 61.89C47.7781 61.89 47.8831 61.785 47.9431 61.575L49.9681 54.24C50.2981 53.1 50.4631 52.05 50.4631 51.09C50.4631 50.13 50.3131 49.065 50.0131 47.895L48.1231 40.2C47.9131 39.36 47.7031 38.76 47.4931 38.4C47.3131 38.04 47.0581 37.83 46.7281 37.77L46.0531 37.635C45.6331 37.545 45.4231 37.35 45.4231 37.05C45.4231 36.75 45.6481 36.6 46.0981 36.6H52.2631C52.6831 36.6 52.8931 36.765 52.8931 37.095C52.8931 37.365 52.6681 37.545 52.2181 37.635L51.7231 37.725C51.3331 37.785 51.0931 37.95 51.0031 38.22C50.9431 38.49 50.9881 38.955 51.1381 39.615L52.6681 46.05C52.7281 46.26 52.8181 46.365 52.9381 46.365C53.0881 46.365 53.1931 46.26 53.2531 46.05L54.8731 40.56C55.2031 39.42 55.3231 38.67 55.2331 38.31C55.1731 37.95 55.0081 37.755 54.7381 37.725L54.2431 37.635C53.7931 37.545 53.5681 37.365 53.5681 37.095C53.5681 36.765 53.7781 36.6 54.1981 36.6H58.4731C58.9831 36.6 59.2381 36.765 59.2381 37.095C59.2381 37.395 58.9831 37.575 58.4731 37.635L57.9781 37.68C57.5881 37.71 57.2581 37.95 56.9881 38.4C56.7481 38.85 56.4781 39.585 56.1781 40.605L54.4681 46.5C54.1381 47.61 53.9581 48.66 53.9281 49.65C53.9281 50.61 54.0631 51.675 54.3331 52.845L56.3581 61.305C56.4181 61.515 56.5081 61.62 56.6281 61.62C56.7781 61.62 56.8681 61.515 56.8981 61.305L62.0731 40.56C62.4931 38.82 62.2231 37.875 61.2631 37.725L60.7681 37.635C60.3181 37.545 60.0931 37.35 60.0931 37.05C60.0931 36.75 60.3031 36.6 60.7231 36.6H65.7631C66.2731 36.6 66.5281 36.765 66.5281 37.095C66.5281 37.395 66.2731 37.575 65.7631 37.635L65.2681 37.68C64.8781 37.71 64.5331 37.95 64.2331 38.4C63.9631 38.82 63.7081 39.555 63.4681 40.605L56.4931 68.73C56.4331 69.03 56.3431 69.225 56.2231 69.315C56.1031 69.405 55.9831 69.45 55.8631 69.45ZM77.0936 69.405C75.6536 69.405 74.3036 68.985 73.0436 68.145C71.7836 67.275 70.6736 66.09 69.7136 64.59C68.7836 63.09 68.0486 61.335 67.5086 59.325C66.9986 57.285 66.7436 55.095 66.7436 52.755C66.7436 50.415 66.9986 48.24 67.5086 46.23C68.0486 44.22 68.7836 42.465 69.7136 40.965C70.6736 39.435 71.7836 38.25 73.0436 37.41C74.3036 36.57 75.6536 36.15 77.0936 36.15C78.5336 36.15 79.8686 36.57 81.0986 37.41C82.3586 38.25 83.4686 39.435 84.4286 40.965C85.3886 42.465 86.1236 44.22 86.6336 46.23C87.1736 48.24 87.4436 50.415 87.4436 52.755C87.4436 55.095 87.1736 57.285 86.6336 59.325C86.1236 61.335 85.3886 63.09 84.4286 64.59C83.4686 66.09 82.3586 67.275 81.0986 68.145C79.8686 68.985 78.5336 69.405 77.0936 69.405ZM77.0936 68.19C79.2236 68.19 80.8886 66.915 82.0886 64.365C83.2886 61.815 83.8886 57.945 83.8886 52.755C83.8886 47.565 83.2886 43.71 82.0886 41.19C80.8886 38.64 79.2236 37.365 77.0936 37.365C74.9936 37.365 73.3286 38.64 72.0986 41.19C70.8986 43.71 70.2986 47.565 70.2986 52.755C70.2986 57.945 70.8986 61.815 72.0986 64.365C73.3286 66.915 74.9936 68.19 77.0936 68.19ZM109.056 69.405C106.446 69.405 104.781 67.695 104.061 64.275L103.026 59.28C102.696 57.66 102.321 56.43 101.901 55.59C101.511 54.75 100.956 54.18 100.236 53.88C99.5459 53.58 98.5859 53.43 97.3559 53.43C96.9359 53.43 96.6059 53.55 96.3659 53.79C96.1259 54 96.0059 54.27 96.0059 54.6V65.85C96.0059 66.48 96.1259 66.915 96.3659 67.155C96.6059 67.365 97.1459 67.545 97.9859 67.695L99.6509 67.965C99.9809 68.025 100.146 68.19 100.146 68.46C100.146 68.82 99.9209 69 99.4709 69H90.3359C89.8859 69 89.6609 68.835 89.6609 68.505C89.6609 68.235 89.8559 68.055 90.2459 67.965L91.2809 67.785C91.9109 67.665 92.3159 67.5 92.4959 67.29C92.7059 67.08 92.8109 66.66 92.8109 66.03V39.57C92.8109 38.94 92.7059 38.52 92.4959 38.31C92.3159 38.1 91.9109 37.935 91.2809 37.815L90.2459 37.635C89.8559 37.545 89.6609 37.365 89.6609 37.095C89.6609 36.765 89.8859 36.6 90.3359 36.6H99.4709C101.241 36.6 102.816 36.945 104.196 37.635C105.576 38.325 106.656 39.285 107.436 40.515C108.216 41.715 108.606 43.11 108.606 44.7C108.606 46.59 108.036 48.3 106.896 49.83C105.756 51.33 104.316 52.395 102.576 53.025C102.366 53.085 102.246 53.19 102.216 53.34C102.216 53.46 102.321 53.565 102.531 53.655C103.491 54.105 104.241 54.735 104.781 55.545C105.351 56.355 105.786 57.435 106.086 58.785L107.076 63.375C107.406 64.935 107.796 66.045 108.246 66.705C108.696 67.365 109.266 67.695 109.956 67.695C110.196 67.695 110.406 67.665 110.586 67.605C110.796 67.515 111.051 67.365 111.351 67.155C111.591 67.005 111.816 66.975 112.026 67.065C112.236 67.125 112.341 67.275 112.341 67.515C112.341 68.025 112.011 68.475 111.351 68.865C110.691 69.225 109.926 69.405 109.056 69.405ZM99.0209 52.305C101.061 52.305 102.606 51.63 103.656 50.28C104.706 48.9 105.231 47.07 105.231 44.79C105.231 42.57 104.616 40.845 103.386 39.615C102.186 38.355 100.521 37.725 98.3909 37.725C96.8009 37.725 96.0059 38.325 96.0059 39.525V49.83C96.0059 51.48 97.0109 52.305 99.0209 52.305ZM112.88 69C112.43 69 112.205 68.835 112.205 68.505C112.205 68.235 112.4 68.055 112.79 67.965L113.825 67.785C114.455 67.665 114.86 67.5 115.04 67.29C115.25 67.08 115.355 66.66 115.355 66.03V39.57C115.355 38.94 115.25 38.52 115.04 38.31C114.86 38.1 114.455 37.935 113.825 37.815L112.79 37.635C112.4 37.545 112.205 37.365 112.205 37.095C112.205 36.765 112.43 36.6 112.88 36.6H121.115C121.565 36.6 121.79 36.78 121.79 37.14C121.79 37.41 121.625 37.575 121.295 37.635L120.08 37.815C119.45 37.905 119.03 38.07 118.82 38.31C118.64 38.55 118.55 38.985 118.55 39.615V64.815C118.55 65.895 118.85 66.675 119.45 67.155C120.08 67.635 120.86 67.875 121.79 67.875C122.48 67.875 123.185 67.74 123.905 67.47C124.655 67.17 125.33 66.63 125.93 65.85C126.53 65.04 126.98 63.87 127.28 62.34L127.865 59.325C127.955 58.935 128.18 58.74 128.54 58.74C128.96 58.74 129.14 58.995 129.08 59.505L128.54 67.965C128.48 68.655 128.105 69 127.415 69H112.88ZM131.469 69C131.019 69 130.794 68.835 130.794 68.505C130.794 68.235 130.989 68.055 131.379 67.965L132.414 67.785C133.434 67.605 133.944 67.02 133.944 66.03V39.57C133.944 38.94 133.839 38.52 133.629 38.31C133.449 38.1 133.044 37.935 132.414 37.815L131.379 37.635C130.989 37.545 130.794 37.365 130.794 37.095C130.794 36.765 131.019 36.6 131.469 36.6H140.559C142.899 36.6 144.924 37.29 146.634 38.67C148.344 40.02 149.664 41.925 150.594 44.385C151.524 46.845 151.989 49.695 151.989 52.935C151.989 56.205 151.494 59.04 150.504 61.44C149.544 63.84 148.179 65.7 146.409 67.02C144.639 68.34 142.539 69 140.109 69H131.469ZM140.289 67.83C142.959 67.83 144.984 66.555 146.364 64.005C147.774 61.455 148.479 57.765 148.479 52.935C148.479 48.135 147.804 44.415 146.454 41.775C145.134 39.105 143.169 37.77 140.559 37.77C138.279 37.77 137.139 38.865 137.139 41.055V64.545C137.139 65.745 137.379 66.6 137.859 67.11C138.369 67.59 139.179 67.83 140.289 67.83Z" fill="black"/>
<defs>
<linearGradient id="paint0_linear_219_113" x1="157.311" y1="17.4067" x2="37.7591" y2="90.0543" gradientUnits="userSpaceOnUse">
<stop stop-color="#CEFBFF"/>
<stop offset="1" stop-color="#88D4F7"/>
</linearGradient>
</defs>
</svg>
