<svg width="100" height="100" viewBox="0 0 100 100" fill="none" xmlns="http://www.w3.org/2000/svg">
<path d="M43.3975 10.3799C46.7365 6.05473 53.2635 6.05473 56.6025 10.3799C59.2639 13.8274 63.7668 15.2911 67.9463 14.0664C73.19 12.5298 78.4709 16.3663 78.6299 21.8281C78.7568 26.1815 81.5395 30.0118 85.6406 31.4775C90.7859 33.3166 92.8025 39.524 89.7207 44.0361C87.2644 47.6326 87.2644 52.3674 89.7207 55.9639C92.8025 60.476 90.7859 66.6834 85.6406 68.5225C81.5395 69.9882 78.7568 73.8185 78.6299 78.1719C78.4709 83.6337 73.19 87.4702 67.9463 85.9336C63.7668 84.7089 59.2639 86.1726 56.6025 89.6201C53.2635 93.9453 46.7365 93.9453 43.3975 89.6201C40.7361 86.1726 36.2332 84.7089 32.0537 85.9336C26.81 87.4702 21.5291 83.6337 21.3701 78.1719C21.2432 73.8185 18.4605 69.9882 14.3594 68.5225C9.21407 66.6834 7.19754 60.476 10.2793 55.9639C12.7356 52.3674 12.7356 47.6326 10.2793 44.0361C7.19754 39.524 9.21407 33.3166 14.3594 31.4775C18.4605 30.0118 21.2432 26.1815 21.3701 21.8281C21.5291 16.3663 26.81 12.5298 32.0537 14.0664C36.2332 15.2911 40.7361 13.8274 43.3975 10.3799Z" fill="url(#paint0_linear_1704_1344)" stroke="black" stroke-width="2.23353"/>
<mask id="path-2-outside-1_1704_1344" maskUnits="userSpaceOnUse" x="39" y="30" width="22" height="40" fill="black">
<rect fill="white" x="39" y="30" width="22" height="40"/>
<path d="M49.9346 68.45C48.0012 68.45 46.3346 68.0167 44.9346 67.15C43.5346 66.25 42.4512 65.1167 41.6846 63.75C40.9512 62.35 40.5846 60.9 40.5846 59.4C40.5846 57.3333 41.1679 55.5 42.3346 53.9C43.5012 52.2667 45.1512 50.8833 47.2846 49.75C47.4846 49.65 47.5846 49.5333 47.5846 49.4C47.5846 49.2333 47.5012 49.0833 47.3346 48.95C45.4679 47.6833 44.0846 46.25 43.1846 44.65C42.2846 43.0167 41.8346 41.4 41.8346 39.8C41.8346 38.1333 42.2346 36.6833 43.0346 35.45C43.8679 34.2167 44.9512 33.25 46.2846 32.55C47.6179 31.85 49.0679 31.5 50.6346 31.5C52.1346 31.5 53.4846 31.85 54.6846 32.55C55.8846 33.2167 56.8346 34.15 57.5346 35.35C58.2346 36.5167 58.5846 37.85 58.5846 39.35C58.5846 41.0833 58.0512 42.7 56.9846 44.2C55.9179 45.6667 54.5012 46.8833 52.7346 47.85C52.5346 47.95 52.4346 48.0833 52.4346 48.25C52.4346 48.3833 52.5346 48.5167 52.7346 48.65C55.1679 50.1833 56.8846 51.7667 57.8846 53.4C58.9179 55 59.4346 56.7667 59.4346 58.7C59.4346 60.5667 59.0179 62.2333 58.1846 63.7C57.3512 65.1667 56.2179 66.3333 54.7846 67.2C53.3512 68.0333 51.7346 68.45 49.9346 68.45ZM50.4846 47.25C50.9179 47.55 51.3512 47.5333 51.7846 47.2C53.0512 46.3 54.0012 45.15 54.6346 43.75C55.3012 42.35 55.6346 40.8333 55.6346 39.2C55.6346 37.2667 55.2012 35.7333 54.3346 34.6C53.5012 33.4333 52.2346 32.85 50.5346 32.85C48.8012 32.85 47.4012 33.3667 46.3346 34.4C45.3012 35.4333 44.7846 36.8 44.7846 38.5C44.7846 39.5 44.9179 40.4833 45.1846 41.45C45.4846 42.4167 46.0512 43.3833 46.8846 44.35C47.7179 45.2833 48.9179 46.25 50.4846 47.25ZM50.0346 67.1C52.0346 67.1 53.6012 66.5 54.7346 65.3C55.9012 64.1 56.4846 62.4833 56.4846 60.45C56.4846 58.75 56.1679 57.3 55.5346 56.1C54.9346 54.8667 54.1179 53.8 53.0846 52.9C52.0512 51.9667 50.8679 51.1167 49.5346 50.35C49.1012 50.05 48.6679 50.05 48.2346 50.35C45.1679 52.45 43.6346 55.5167 43.6346 59.55C43.6346 60.8167 43.8346 62.0333 44.2346 63.2C44.6346 64.3667 45.3012 65.3167 46.2346 66.05C47.1679 66.75 48.4346 67.1 50.0346 67.1Z"/>
</mask>
<path d="M49.9346 68.45C48.0012 68.45 46.3346 68.0167 44.9346 67.15C43.5346 66.25 42.4512 65.1167 41.6846 63.75C40.9512 62.35 40.5846 60.9 40.5846 59.4C40.5846 57.3333 41.1679 55.5 42.3346 53.9C43.5012 52.2667 45.1512 50.8833 47.2846 49.75C47.4846 49.65 47.5846 49.5333 47.5846 49.4C47.5846 49.2333 47.5012 49.0833 47.3346 48.95C45.4679 47.6833 44.0846 46.25 43.1846 44.65C42.2846 43.0167 41.8346 41.4 41.8346 39.8C41.8346 38.1333 42.2346 36.6833 43.0346 35.45C43.8679 34.2167 44.9512 33.25 46.2846 32.55C47.6179 31.85 49.0679 31.5 50.6346 31.5C52.1346 31.5 53.4846 31.85 54.6846 32.55C55.8846 33.2167 56.8346 34.15 57.5346 35.35C58.2346 36.5167 58.5846 37.85 58.5846 39.35C58.5846 41.0833 58.0512 42.7 56.9846 44.2C55.9179 45.6667 54.5012 46.8833 52.7346 47.85C52.5346 47.95 52.4346 48.0833 52.4346 48.25C52.4346 48.3833 52.5346 48.5167 52.7346 48.65C55.1679 50.1833 56.8846 51.7667 57.8846 53.4C58.9179 55 59.4346 56.7667 59.4346 58.7C59.4346 60.5667 59.0179 62.2333 58.1846 63.7C57.3512 65.1667 56.2179 66.3333 54.7846 67.2C53.3512 68.0333 51.7346 68.45 49.9346 68.45ZM50.4846 47.25C50.9179 47.55 51.3512 47.5333 51.7846 47.2C53.0512 46.3 54.0012 45.15 54.6346 43.75C55.3012 42.35 55.6346 40.8333 55.6346 39.2C55.6346 37.2667 55.2012 35.7333 54.3346 34.6C53.5012 33.4333 52.2346 32.85 50.5346 32.85C48.8012 32.85 47.4012 33.3667 46.3346 34.4C45.3012 35.4333 44.7846 36.8 44.7846 38.5C44.7846 39.5 44.9179 40.4833 45.1846 41.45C45.4846 42.4167 46.0512 43.3833 46.8846 44.35C47.7179 45.2833 48.9179 46.25 50.4846 47.25ZM50.0346 67.1C52.0346 67.1 53.6012 66.5 54.7346 65.3C55.9012 64.1 56.4846 62.4833 56.4846 60.45C56.4846 58.75 56.1679 57.3 55.5346 56.1C54.9346 54.8667 54.1179 53.8 53.0846 52.9C52.0512 51.9667 50.8679 51.1167 49.5346 50.35C49.1012 50.05 48.6679 50.05 48.2346 50.35C45.1679 52.45 43.6346 55.5167 43.6346 59.55C43.6346 60.8167 43.8346 62.0333 44.2346 63.2C44.6346 64.3667 45.3012 65.3167 46.2346 66.05C47.1679 66.75 48.4346 67.1 50.0346 67.1Z" fill="black"/>
<path d="M44.9346 67.15L44.3938 67.9912L44.401 67.9958L44.4082 68.0003L44.9346 67.15ZM41.6846 63.75L40.7987 64.214L40.8054 64.2267L40.8124 64.2393L41.6846 63.75ZM42.3346 53.9L43.1426 54.4892L43.1483 54.4812L42.3346 53.9ZM47.2846 49.75L46.8374 48.8556L46.8263 48.8611L46.8154 48.8669L47.2846 49.75ZM47.3346 48.95L47.9593 48.1691L47.9286 48.1446L47.8961 48.1225L47.3346 48.95ZM43.1846 44.65L42.3087 45.1326L42.313 45.1403L43.1846 44.65ZM43.0346 35.45L42.206 34.8901L42.2007 34.8979L42.1956 34.9058L43.0346 35.45ZM46.2846 32.55L45.8197 31.6646H45.8197L46.2846 32.55ZM54.6846 32.55L54.1807 33.4138L54.1898 33.4191L54.1989 33.4242L54.6846 32.55ZM57.5346 35.35L56.6707 35.8539L56.6771 35.8645L57.5346 35.35ZM56.9846 44.2L57.7934 44.7882L57.7995 44.7795L56.9846 44.2ZM52.7346 47.85L53.1818 48.7444L53.1983 48.7361L53.2146 48.7273L52.7346 47.85ZM52.7346 48.65L52.1799 49.482L52.1906 49.4892L52.2015 49.496L52.7346 48.65ZM57.8846 53.4L57.0317 53.9222L57.038 53.9324L57.0445 53.9425L57.8846 53.4ZM58.1846 63.7L59.054 64.194L58.1846 63.7ZM54.7846 67.2L55.2872 68.0645L55.2946 68.0602L55.302 68.0557L54.7846 67.2ZM50.4846 47.25L51.0538 46.4278L51.0384 46.4172L51.0226 46.4071L50.4846 47.25ZM51.7846 47.2L51.2054 46.3848L51.1899 46.3958L51.1749 46.4074L51.7846 47.2ZM54.6346 43.75L53.7317 43.3201L53.7275 43.3289L53.7235 43.3378L54.6346 43.75ZM54.3346 34.6L53.5208 35.1812L53.5303 35.1945L53.5402 35.2074L54.3346 34.6ZM46.3346 34.4L45.6388 33.6818L45.6331 33.6873L45.6275 33.6929L46.3346 34.4ZM45.1846 41.45L44.2206 41.7159L44.2248 41.7312L44.2295 41.7464L45.1846 41.45ZM46.8846 44.35L46.1272 45.0029L46.1328 45.0095L46.1386 45.016L46.8846 44.35ZM54.7346 65.3L54.0176 64.6029L54.0125 64.6081L54.0076 64.6134L54.7346 65.3ZM55.5346 56.1L54.6353 56.5375L54.6425 56.5522L54.6502 56.5668L55.5346 56.1ZM53.0846 52.9L52.4143 53.6421L52.421 53.6482L52.4278 53.6541L53.0846 52.9ZM49.5346 50.35L48.9654 51.1722L48.9998 51.196L49.0361 51.2169L49.5346 50.35ZM48.2346 50.35L48.7996 51.1751L48.8038 51.1722L48.2346 50.35ZM44.2346 63.2L43.2886 63.5243L44.2346 63.2ZM46.2346 66.05L45.6167 66.8363L45.6256 66.8433L45.6346 66.85L46.2346 66.05ZM49.9346 68.45L49.9346 67.45C48.1543 67.45 46.677 67.0526 45.4609 66.2997L44.9346 67.15L44.4082 68.0003C45.9921 68.9808 47.8481 69.45 49.9346 69.45L49.9346 68.45ZM44.9346 67.15L45.4753 66.3088C44.2041 65.4916 43.2384 64.4759 42.5567 63.2607L41.6846 63.75L40.8124 64.2393C41.6641 65.7574 42.865 67.0084 44.3938 67.9912L44.9346 67.15ZM41.6846 63.75L42.5704 63.286C41.9079 62.0212 41.5846 60.7297 41.5846 59.4L40.5846 59.4L39.5846 59.4C39.5846 61.0703 39.9946 62.6788 40.7987 64.214L41.6846 63.75ZM40.5846 59.4L41.5846 59.4C41.5846 57.5352 42.1064 55.9103 43.1426 54.4892L42.3346 53.9L41.5266 53.3108C40.2294 55.0897 39.5846 57.1314 39.5846 59.4L40.5846 59.4ZM42.3346 53.9L43.1483 54.4812C44.2085 52.9969 45.7296 51.7084 47.7537 50.6331L47.2846 49.75L46.8154 48.8669C44.5729 50.0582 42.794 51.5364 41.5208 53.3188L42.3346 53.9ZM47.2846 49.75L47.7318 50.6444C48.0268 50.4969 48.5846 50.1237 48.5846 49.4L47.5846 49.4L46.5846 49.4C46.5846 49.192 46.6701 49.0303 46.7503 48.9367C46.8171 48.8588 46.8679 48.8403 46.8374 48.8556L47.2846 49.75ZM47.5846 49.4L48.5846 49.4C48.5846 48.8476 48.2908 48.4343 47.9593 48.1691L47.3346 48.95L46.7099 49.7309C46.7156 49.7354 46.6828 49.7109 46.6479 49.6481C46.6096 49.5792 46.5846 49.4918 46.5846 49.4L47.5846 49.4ZM47.3346 48.95L47.8961 48.1225C46.1287 46.9232 44.8649 45.5975 44.0561 44.1597L43.1846 44.65L42.313 45.1403C43.3043 46.9025 44.8071 48.4434 46.7731 49.7775L47.3346 48.95ZM43.1846 44.65L44.0604 44.1674C43.2283 42.6573 42.8346 41.2052 42.8346 39.8L41.8346 39.8L40.8346 39.8C40.8346 41.5948 41.3408 43.3761 42.3087 45.1326L43.1846 44.65ZM41.8346 39.8L42.8346 39.8C42.8346 38.2999 43.1922 37.0445 43.8735 35.9942L43.0346 35.45L42.1956 34.9058C41.2769 36.3221 40.8346 37.9668 40.8346 39.8L41.8346 39.8ZM43.0346 35.45L43.8632 36.0099C44.6029 34.9151 45.5606 34.0595 46.7494 33.4354L46.2846 32.55L45.8197 31.6646C44.3419 32.4405 43.1329 33.5182 42.206 34.8901L43.0346 35.45ZM46.2846 32.55L46.7494 33.4354C47.9335 32.8138 49.2231 32.5 50.6346 32.5L50.6346 31.5L50.6346 30.5C48.9127 30.5 47.3023 30.8862 45.8197 31.6646L46.2846 32.55ZM50.6346 31.5L50.6346 32.5C51.9721 32.5 53.1458 32.8101 54.1807 33.4138L54.6846 32.55L55.1884 31.6862C53.8234 30.8899 52.297 30.5 50.6346 30.5L50.6346 31.5ZM54.6846 32.55L54.1989 33.4242C55.2399 34.0025 56.0602 34.8071 56.6708 35.8539L57.5346 35.35L58.3983 34.8461C57.609 33.4929 56.5292 32.4308 55.1702 31.6758L54.6846 32.55ZM57.5346 35.35L56.6771 35.8645C57.2745 36.8601 57.5846 38.0121 57.5846 39.35L58.5846 39.35L59.5846 39.35C59.5846 37.6879 59.1947 36.1732 58.3921 34.8355L57.5346 35.35ZM58.5846 39.35L57.5846 39.35C57.5846 40.8624 57.1238 42.2787 56.1696 43.6205L56.9846 44.2L57.7995 44.7795C58.9787 43.1213 59.5846 41.3042 59.5846 39.35L58.5846 39.35ZM56.9846 44.2L56.1758 43.6118C55.2052 44.9464 53.9061 46.0691 52.2546 46.9727L52.7346 47.85L53.2146 48.7273C55.0964 47.6976 56.6306 46.3869 57.7933 44.7882L56.9846 44.2ZM52.7346 47.85L52.2874 46.9556C51.8836 47.1574 51.4346 47.574 51.4346 48.25L52.4346 48.25L53.4346 48.25C53.4346 48.383 53.3894 48.5186 53.3096 48.625C53.2402 48.7175 53.1754 48.7476 53.1818 48.7444L52.7346 47.85ZM52.4346 48.25L51.4346 48.25C51.4346 48.9142 51.9195 49.3085 52.1799 49.482L52.7346 48.65L53.2893 47.8179C53.2455 47.7888 53.2687 47.7955 53.3096 47.85C53.3564 47.9125 53.4346 48.0512 53.4346 48.25L52.4346 48.25ZM52.7346 48.65L52.2015 49.496C54.5644 50.985 56.1421 52.4691 57.0317 53.9222L57.8846 53.4L58.7374 52.8778C57.627 51.0642 55.7714 49.3816 53.2677 47.804L52.7346 48.65ZM57.8846 53.4L57.0445 53.9425C57.9718 55.3783 58.4346 56.9561 58.4346 58.7L59.4346 58.7L60.4346 58.7C60.4346 56.5773 59.864 54.6217 58.7246 52.8575L57.8846 53.4ZM59.4346 58.7L58.4346 58.7C58.4346 60.4124 58.054 61.9055 57.3151 63.206L58.1846 63.7L59.054 64.194C59.9818 62.5611 60.4346 60.721 60.4346 58.7L59.4346 58.7ZM58.1846 63.7L57.3151 63.206C56.5656 64.5251 55.5531 65.5667 54.2672 66.3443L54.7846 67.2L55.302 68.0557C56.8828 67.0999 58.1368 65.8083 59.054 64.194L58.1846 63.7ZM54.7846 67.2L54.2819 66.3355C53.0142 67.0726 51.5736 67.45 49.9346 67.45L49.9346 68.45L49.9346 69.45C51.8955 69.45 53.6883 68.9941 55.2872 68.0645L54.7846 67.2ZM50.4846 47.25L49.9154 48.0722C50.2708 48.3183 50.6966 48.4801 51.173 48.4618C51.6453 48.4436 52.0563 48.2526 52.3943 47.9926L51.7846 47.2L51.1749 46.4074C51.1266 46.4445 51.0964 46.4588 51.0851 46.4634C51.0755 46.4673 51.0805 46.4638 51.0961 46.4632C51.1122 46.4626 51.1219 46.4656 51.1203 46.4651C51.1169 46.464 51.0947 46.4562 51.0538 46.4278L50.4846 47.25ZM51.7846 47.2L52.3638 48.0152C53.7731 47.0138 54.8385 45.7254 55.5457 44.1622L54.6346 43.75L53.7235 43.3378C53.164 44.5746 52.3294 45.5862 51.2054 46.3848L51.7846 47.2ZM54.6346 43.75L55.5374 44.1799C56.2715 42.6385 56.6346 40.974 56.6346 39.2L55.6346 39.2L54.6346 39.2C54.6346 40.6927 54.331 42.0615 53.7317 43.3201L54.6346 43.75ZM55.6346 39.2L56.6346 39.2C56.6346 37.1243 56.1693 35.353 55.1289 33.9925L54.3346 34.6L53.5402 35.2074C54.2332 36.1137 54.6346 37.4091 54.6346 39.2L55.6346 39.2ZM54.3346 34.6L55.1483 34.0188C54.0908 32.5383 52.4892 31.85 50.5346 31.85L50.5346 32.85L50.5346 33.85C51.9799 33.85 52.9117 34.3284 53.5208 35.1812L54.3346 34.6ZM50.5346 32.85L50.5346 31.85C48.5882 31.85 46.923 32.4377 45.6388 33.6818L46.3346 34.4L47.0304 35.1182C47.8795 34.2957 49.0143 33.85 50.5346 33.85L50.5346 32.85ZM46.3346 34.4L45.6275 33.6929C44.3759 34.9445 43.7846 36.5816 43.7846 38.5L44.7846 38.5L45.7846 38.5C45.7846 37.0184 46.2266 35.9222 47.0417 35.1071L46.3346 34.4ZM44.7846 38.5L43.7846 38.5C43.7846 39.5901 43.9301 40.6629 44.2206 41.7159L45.1846 41.45L46.1486 41.1841C45.9057 40.3038 45.7846 39.4099 45.7846 38.5L44.7846 38.5ZM45.1846 41.45L44.2295 41.7464C44.5793 42.8737 45.2268 43.9585 46.1272 45.0029L46.8846 44.35L47.642 43.6971C46.8757 42.8082 46.3898 41.9597 46.1396 41.1536L45.1846 41.45ZM46.8846 44.35L46.1386 45.016C47.0546 46.0419 48.3363 47.0651 49.9465 48.0929L50.4846 47.25L51.0226 46.4071C49.4995 45.4349 48.3812 44.5248 47.6305 43.684L46.8846 44.35ZM50.0346 67.1L50.0346 68.1C52.247 68.1 54.1002 67.4281 55.4616 65.9866L54.7346 65.3L54.0076 64.6134C53.1023 65.5719 51.8222 66.1 50.0346 66.1L50.0346 67.1ZM54.7346 65.3L55.4516 65.9971C56.8373 64.5718 57.4846 62.6843 57.4846 60.45L56.4846 60.45L55.4846 60.45C55.4846 62.2824 54.9652 63.6282 54.0176 64.6029L54.7346 65.3ZM56.4846 60.45L57.4846 60.45C57.4846 58.6276 57.145 57.009 56.419 55.6332L55.5346 56.1L54.6502 56.5668C55.1908 57.591 55.4846 58.8724 55.4846 60.45L56.4846 60.45ZM55.5346 56.1L56.4338 55.6625C55.7751 54.3086 54.876 53.1342 53.7414 52.1459L53.0846 52.9L52.4278 53.6541C53.3598 54.4658 54.094 55.4248 54.6353 56.5375L55.5346 56.1ZM53.0846 52.9L53.7549 52.1579C52.6637 51.1723 51.4216 50.2815 50.033 49.4831L49.5346 50.35L49.0361 51.2169C50.3142 51.9518 51.4388 52.761 52.4143 53.6421L53.0846 52.9ZM49.5346 50.35L50.1038 49.5278C49.7566 49.2874 49.3451 49.125 48.8846 49.125C48.424 49.125 48.0126 49.2874 47.6654 49.5278L48.2346 50.35L48.8038 51.1722C48.8483 51.1414 48.8759 51.13 48.8867 51.1262C48.896 51.123 48.8939 51.125 48.8846 51.125C48.8752 51.125 48.8732 51.123 48.8825 51.1262C48.8932 51.13 48.9209 51.1414 48.9654 51.1722L49.5346 50.35ZM48.2346 50.35L47.6696 49.5249C44.3044 51.8293 42.6346 55.2198 42.6346 59.55L43.6346 59.55L44.6346 59.55C44.6346 55.8135 46.0314 53.0707 48.7996 51.1751L48.2346 50.35ZM43.6346 59.55L42.6346 59.55C42.6346 60.924 42.8519 62.2505 43.2886 63.5243L44.2346 63.2L45.1805 62.8757C44.8173 61.8162 44.6346 60.7093 44.6346 59.55L43.6346 59.55ZM44.2346 63.2L43.2886 63.5243C43.7486 64.8659 44.5257 65.979 45.6167 66.8363L46.2346 66.05L46.8524 65.2637C46.0768 64.6543 45.5206 63.8674 45.1805 62.8757L44.2346 63.2ZM46.2346 66.05L45.6346 66.85C46.795 67.7203 48.2972 68.1 50.0346 68.1L50.0346 67.1L50.0346 66.1C48.5719 66.1 47.5408 65.7797 46.8346 65.25L46.2346 66.05Z" fill="black" mask="url(#path-2-outside-1_1704_1344)"/>
<defs>
<linearGradient id="paint0_linear_1704_1344" x1="82.7362" y1="16.2679" x2="5.61171" y2="42.6609" gradientUnits="userSpaceOnUse">
<stop stop-color="#FEDB9A"/>
<stop offset="1" stop-color="#FF6B57"/>
</linearGradient>
</defs>
</svg>
