<svg width="100" height="100" viewBox="0 0 100 100" fill="none" xmlns="http://www.w3.org/2000/svg">
<path d="M48.0714 2.39647C49.13 1.31634 50.8702 1.31634 51.9288 2.39647L74.5294 25.456L74.5363 25.4639L74.5441 25.4707L97.6036 48.0713C98.6838 49.1299 98.6838 50.8701 97.6036 51.9287L74.5441 74.5293L74.5363 74.5361L74.5294 74.5439L51.9288 97.6035C50.8702 98.6836 49.13 98.6836 48.0714 97.6035L25.4708 74.5439L25.464 74.5361L25.4562 74.5293L2.39661 51.9287C1.31648 50.8701 1.31648 49.1299 2.39661 48.0713L25.4562 25.4707L25.464 25.4639L25.4708 25.456L48.0714 2.39647Z" fill="url(#paint0_linear_1704_1328)" stroke="black" stroke-width="2"/>
<mask id="path-2-outside-1_1704_1328" maskUnits="userSpaceOnUse" x="39" y="28.57" width="21" height="41" fill="black">
<rect fill="white" x="39" y="28.57" width="21" height="41"/>
<path d="M47.054 68.02C46.154 68.02 45.2207 67.8867 44.254 67.62C43.3207 67.3533 42.5374 66.9533 41.904 66.42C41.2707 65.8867 40.954 65.2367 40.954 64.47C40.954 63.97 41.104 63.57 41.404 63.27C41.704 62.9367 42.104 62.77 42.604 62.77C43.1707 62.77 43.5707 62.97 43.804 63.37C44.0707 63.77 44.304 64.22 44.504 64.72C44.704 65.22 45.0207 65.67 45.454 66.07C45.9207 66.47 46.6374 66.67 47.604 66.67C48.6707 66.67 49.704 66.37 50.704 65.77C51.7374 65.1367 52.5874 64.12 53.254 62.72C53.954 61.32 54.304 59.47 54.304 57.17C54.304 54.0033 53.554 51.57 52.054 49.87C50.554 48.1367 48.004 47.12 44.404 46.82C43.904 46.7533 43.704 46.4867 43.804 46.02L46.454 32.22C46.554 31.7867 46.804 31.57 47.204 31.57L55.054 31.57C55.6207 31.57 56.0207 31.47 56.254 31.27C56.5207 31.0367 56.7374 30.82 56.904 30.62C57.0707 30.42 57.2874 30.32 57.554 30.32C57.8207 30.32 57.9707 30.4367 58.004 30.67C58.0707 30.87 58.0707 31.1033 58.004 31.37L57.254 33.97C57.154 34.37 56.904 34.57 56.504 34.57L48.254 34.57C47.854 34.57 47.604 34.7867 47.504 35.22L46.054 42.87C45.954 43.3367 46.154 43.5867 46.654 43.62C49.2874 43.92 51.4207 44.67 53.054 45.87C54.7207 47.0367 55.9374 48.52 56.704 50.32C57.504 52.0867 57.904 54.02 57.904 56.12C57.904 58.62 57.354 60.77 56.254 62.57C55.1874 64.3367 53.8207 65.6867 52.154 66.62C50.5207 67.5533 48.8207 68.02 47.054 68.02Z"/>
</mask>
<path d="M47.054 68.02C46.154 68.02 45.2207 67.8867 44.254 67.62C43.3207 67.3533 42.5374 66.9533 41.904 66.42C41.2707 65.8867 40.954 65.2367 40.954 64.47C40.954 63.97 41.104 63.57 41.404 63.27C41.704 62.9367 42.104 62.77 42.604 62.77C43.1707 62.77 43.5707 62.97 43.804 63.37C44.0707 63.77 44.304 64.22 44.504 64.72C44.704 65.22 45.0207 65.67 45.454 66.07C45.9207 66.47 46.6374 66.67 47.604 66.67C48.6707 66.67 49.704 66.37 50.704 65.77C51.7374 65.1367 52.5874 64.12 53.254 62.72C53.954 61.32 54.304 59.47 54.304 57.17C54.304 54.0033 53.554 51.57 52.054 49.87C50.554 48.1367 48.004 47.12 44.404 46.82C43.904 46.7533 43.704 46.4867 43.804 46.02L46.454 32.22C46.554 31.7867 46.804 31.57 47.204 31.57L55.054 31.57C55.6207 31.57 56.0207 31.47 56.254 31.27C56.5207 31.0367 56.7374 30.82 56.904 30.62C57.0707 30.42 57.2874 30.32 57.554 30.32C57.8207 30.32 57.9707 30.4367 58.004 30.67C58.0707 30.87 58.0707 31.1033 58.004 31.37L57.254 33.97C57.154 34.37 56.904 34.57 56.504 34.57L48.254 34.57C47.854 34.57 47.604 34.7867 47.504 35.22L46.054 42.87C45.954 43.3367 46.154 43.5867 46.654 43.62C49.2874 43.92 51.4207 44.67 53.054 45.87C54.7207 47.0367 55.9374 48.52 56.704 50.32C57.504 52.0867 57.904 54.02 57.904 56.12C57.904 58.62 57.354 60.77 56.254 62.57C55.1874 64.3367 53.8207 65.6867 52.154 66.62C50.5207 67.5533 48.8207 68.02 47.054 68.02Z" fill="black"/>
<path d="M44.254 67.62L43.9793 68.5816L43.9881 68.584L44.254 67.62ZM41.904 66.42L42.5482 65.6551V65.6551L41.904 66.42ZM41.404 63.27L42.1111 63.9771L42.1297 63.9585L42.1473 63.939L41.404 63.27ZM43.804 63.37L42.9402 63.8739L42.9553 63.8998L42.972 63.9247L43.804 63.37ZM44.504 64.72L43.5755 65.0914H43.5755L44.504 64.72ZM45.454 66.07L44.7757 66.8048L44.7893 66.8173L44.8032 66.8293L45.454 66.07ZM50.704 65.77L51.2185 66.6275L51.2266 66.6226L50.704 65.77ZM53.254 62.72L52.3596 62.2728L52.3553 62.2814L52.3512 62.2901L53.254 62.72ZM52.054 49.87L51.2978 50.5244L51.3042 50.5316L52.054 49.87ZM44.404 46.82L44.2719 47.8112L44.2963 47.8145L44.321 47.8166L44.404 46.82ZM43.804 46.02L44.7818 46.2295L44.7841 46.2191L44.7861 46.2086L43.804 46.02ZM46.454 32.22L45.4796 31.9951L45.4755 32.0132L45.472 32.0314L46.454 32.22ZM56.254 31.27L56.9048 32.0293L56.9125 32.0226L56.254 31.27ZM56.904 30.62L57.6722 31.2602L57.6722 31.2602L56.904 30.62ZM58.004 30.67L57.0141 30.8114L57.0268 30.9007L57.0553 30.9862L58.004 30.67ZM58.004 31.37L58.9648 31.6472L58.9698 31.6299L58.9742 31.6125L58.004 31.37ZM57.254 33.97L56.2932 33.6928L56.2882 33.7101L56.2839 33.7275L57.254 33.97ZM47.504 35.22L46.5296 34.9951L46.5252 35.0144L46.5215 35.0338L47.504 35.22ZM46.054 42.87L47.0318 43.0795L47.0343 43.0679L47.0365 43.0562L46.054 42.87ZM46.654 43.62L46.7672 42.6264L46.7439 42.6238L46.7205 42.6222L46.654 43.62ZM53.054 45.87L52.4619 46.6759L52.4712 46.6827L52.4806 46.6892L53.054 45.87ZM56.704 50.32L55.784 50.7119L55.7884 50.7222L55.7931 50.7325L56.704 50.32ZM56.254 62.57L55.4007 62.0485L55.398 62.0531L56.254 62.57ZM52.154 66.62L51.6654 65.7475L51.6579 65.7518L52.154 66.62ZM47.054 68.02L47.054 67.02C46.2535 67.02 45.4097 66.9015 44.5199 66.656L44.254 67.62L43.9881 68.584C45.0316 68.8719 46.0546 69.02 47.054 69.02L47.054 68.02ZM44.254 67.62L44.5287 66.6585C43.7079 66.424 43.0566 66.0833 42.5482 65.6551L41.904 66.42L41.2599 67.1849C42.0181 67.8234 42.9335 68.2827 43.9793 68.5815L44.254 67.62ZM41.904 66.42L42.5482 65.6551C42.1199 65.2945 41.954 64.9159 41.954 64.47L40.954 64.47L39.954 64.47C39.954 65.5574 40.4214 66.4788 41.2599 67.1849L41.904 66.42ZM40.954 64.47L41.954 64.47C41.954 64.1843 42.0319 64.0564 42.1111 63.9771L41.404 63.27L40.6969 62.5629C40.1762 63.0836 39.954 63.7558 39.954 64.47L40.954 64.47ZM41.404 63.27L42.1473 63.939C42.2347 63.8419 42.3512 63.77 42.604 63.77L42.604 62.77L42.604 61.77C41.8568 61.77 41.1734 62.0315 40.6607 62.601L41.404 63.27ZM42.604 62.77L42.604 63.77C42.7724 63.77 42.8527 63.7999 42.8818 63.8144C42.9015 63.8243 42.9178 63.8355 42.9402 63.8739L43.804 63.37L44.6678 62.8661C44.2128 62.0862 43.4332 61.77 42.604 61.77L42.604 62.77ZM43.804 63.37L42.972 63.9247C43.196 64.2607 43.3982 64.6481 43.5755 65.0914L44.504 64.72L45.4325 64.3486C45.2098 63.7919 44.9454 63.2793 44.6361 62.8153L43.804 63.37ZM44.504 64.72L43.5755 65.0914C43.8359 65.7424 44.2435 66.3135 44.7757 66.8048L45.454 66.07L46.1323 65.3352C45.7978 65.0265 45.5721 64.6976 45.4325 64.3486L44.504 64.72ZM45.454 66.07L44.8032 66.8293C45.5299 67.4521 46.5283 67.67 47.604 67.67L47.604 66.67L47.604 65.67C46.7464 65.67 46.3115 65.4879 46.1048 65.3107L45.454 66.07ZM47.604 66.67L47.604 67.67C48.8686 67.67 50.0781 67.3118 51.2185 66.6275L50.704 65.77L50.1895 64.9125C49.33 65.4282 48.4727 65.67 47.604 65.67L47.604 66.67ZM50.704 65.77L51.2266 66.6226C52.4653 65.8634 53.4301 64.6763 54.1569 63.1499L53.254 62.72L52.3512 62.2901C51.7446 63.5638 51.0094 64.41 50.1815 64.9174L50.704 65.77ZM53.254 62.72L54.1484 63.1672C54.9427 61.5787 55.304 59.558 55.304 57.17L54.304 57.17L53.304 57.17C53.304 59.382 52.9653 61.0614 52.3596 62.2728L53.254 62.72ZM54.304 57.17L55.304 57.17C55.304 53.8561 54.5191 51.1523 52.8039 49.2084L52.054 49.87L51.3042 50.5316C52.5889 51.9877 53.304 54.1506 53.304 57.17L54.304 57.17ZM52.054 49.87L52.8102 49.2156C51.0632 47.1968 48.2027 46.1331 44.4871 45.8235L44.404 46.82L44.321 47.8166C47.8053 48.1069 50.0449 49.0765 51.2979 50.5244L52.054 49.87ZM44.404 46.82L44.5362 45.8288C44.4174 45.8129 44.5514 45.7999 44.679 45.97C44.8171 46.1542 44.7655 46.3057 44.7818 46.2295L43.804 46.02L42.8262 45.8105C42.7425 46.201 42.7409 46.7192 43.079 47.17C43.4066 47.6068 43.8906 47.7604 44.2719 47.8112L44.404 46.82ZM43.804 46.02L44.7861 46.2086L47.4361 32.4086L46.454 32.22L45.472 32.0314L42.822 45.8314L43.804 46.02ZM46.454 32.22L47.4284 32.4449C47.447 32.3644 47.4534 32.4172 47.3715 32.4882C47.3313 32.523 47.2871 32.5464 47.2484 32.5593C47.2122 32.5714 47.1939 32.57 47.204 32.57L47.204 31.57L47.204 30.57C46.816 30.57 46.4046 30.6796 46.0616 30.9768C45.7297 31.2645 45.5611 31.6423 45.4796 31.9951L46.454 32.22ZM47.204 31.57L47.204 32.57L55.054 32.57L55.054 31.57L55.054 30.57L47.204 30.57L47.204 31.57ZM55.054 31.57L55.054 32.57C55.6813 32.57 56.3899 32.4706 56.9048 32.0293L56.254 31.27L55.6032 30.5107C55.6376 30.4813 55.635 30.5002 55.5365 30.5249C55.4391 30.5492 55.2837 30.57 55.054 30.57L55.054 31.57ZM56.254 31.27L56.9125 32.0226C57.2056 31.7661 57.4625 31.5119 57.6722 31.2602L56.904 30.62L56.1358 29.9798C56.0122 30.1281 55.8358 30.3072 55.5955 30.5174L56.254 31.27ZM56.904 30.62L57.6722 31.2602C57.6693 31.2637 57.649 31.2852 57.6106 31.303C57.5728 31.3204 57.5483 31.32 57.554 31.32L57.554 30.32L57.554 29.32C56.9989 29.32 56.4977 29.5455 56.1358 29.9798L56.904 30.62ZM57.554 30.32L57.554 31.32C57.5528 31.32 57.4117 31.3206 57.2526 31.1969C57.0765 31.0599 57.0248 30.8864 57.0141 30.8114L58.004 30.67L58.994 30.5286C58.9499 30.2203 58.8065 29.8718 58.4805 29.6182C58.1713 29.3777 57.8219 29.32 57.554 29.32L57.554 30.32ZM58.004 30.67L57.0553 30.9862C57.0461 30.9586 57.0682 30.9902 57.0339 31.1275L58.004 31.37L58.9742 31.6125C59.0732 31.2165 59.0953 30.7814 58.9527 30.3538L58.004 30.67ZM58.004 31.37L57.0432 31.0928L56.2932 33.6928L57.254 33.97L58.2148 34.2472L58.9648 31.6472L58.004 31.37ZM57.254 33.97L56.2839 33.7275C56.2716 33.7766 56.2772 33.7109 56.3668 33.6391C56.4085 33.6058 56.4504 33.5864 56.4818 33.5767C56.5109 33.5678 56.5214 33.57 56.504 33.57L56.504 34.57L56.504 35.57C56.8731 35.57 57.2734 35.4751 57.6162 35.2009C57.9559 34.9291 58.1364 34.5634 58.2242 34.2125L57.254 33.97ZM56.504 34.57L56.504 33.57L48.254 33.57L48.254 34.57L48.254 35.57L56.504 35.57L56.504 34.57ZM48.254 34.57L48.254 33.57C47.866 33.57 47.4546 33.6796 47.1116 33.9768C46.7797 34.2645 46.6111 34.6423 46.5296 34.9951L47.504 35.22L48.4784 35.4449C48.497 35.3644 48.5034 35.4172 48.4215 35.4882C48.3813 35.523 48.3371 35.5464 48.2984 35.5593C48.2622 35.5714 48.2439 35.57 48.254 35.57L48.254 34.57ZM47.504 35.22L46.5215 35.0338L45.0715 42.6838L46.054 42.87L47.0365 43.0562L48.4865 35.4062L47.504 35.22ZM46.054 42.87L45.0762 42.6605C44.9949 43.0399 44.9833 43.5761 45.3482 44.0322C45.7016 44.474 46.2134 44.5928 46.5875 44.6178L46.654 43.62L46.7205 42.6222C46.5947 42.6138 46.7564 42.591 46.9099 42.7828C47.0748 42.9889 47.0131 43.1668 47.0318 43.0795L46.054 42.87ZM46.654 43.62L46.5408 44.6136C49.0527 44.8997 51.0059 45.6062 52.4619 46.6759L53.054 45.87L53.6461 45.0641C51.8354 43.7338 49.522 42.9403 46.7672 42.6264L46.654 43.62ZM53.054 45.87L52.4806 46.6892C54.0004 47.7531 55.0936 49.091 55.784 50.7119L56.704 50.32L57.624 49.9281C56.7811 47.949 55.4409 46.3202 53.6275 45.0508L53.054 45.87ZM56.704 50.32L55.7931 50.7325C56.5296 52.3591 56.904 54.1503 56.904 56.12L57.904 56.12L58.904 56.12C58.904 53.8897 58.4784 51.8142 57.615 49.9075L56.704 50.32ZM57.904 56.12L56.904 56.12C56.904 58.4704 56.3883 60.4325 55.4007 62.0486L56.254 62.57L57.1073 63.0915C58.3197 61.1075 58.904 58.7696 58.904 56.12L57.904 56.12ZM56.254 62.57L55.398 62.0531C54.4135 63.6837 53.1688 64.9056 51.6654 65.7475L52.154 66.62L52.6426 67.4925C54.4726 66.4677 55.9612 64.9896 57.1101 63.0869L56.254 62.57ZM52.154 66.62L51.6579 65.7518C50.1655 66.6046 48.6353 67.02 47.054 67.02L47.054 68.02L47.054 69.02C49.006 69.02 50.8759 68.5021 52.6502 67.4883L52.154 66.62Z" fill="black" mask="url(#path-2-outside-1_1704_1328)"/>
<defs>
<linearGradient id="paint0_linear_1704_1328" x1="66.301" y1="9.9134" x2="-6.65872" y2="55.8868" gradientUnits="userSpaceOnUse">
<stop stop-color="#FBD6F2"/>
<stop offset="1" stop-color="#CC7BF4"/>
</linearGradient>
</defs>
</svg>
