<svg width="100" height="100" viewBox="0 0 100 100" fill="none" xmlns="http://www.w3.org/2000/svg">
<path d="M50 4.87695C55.0282 14.3608 66.777 18.2108 76.4189 13.4922C74.928 24.1348 82.167 34.1845 92.75 36.0537C85.2703 43.8106 85.2706 56.1882 92.75 63.9453C82.1672 65.8144 74.9286 75.8645 76.4189 86.5068C66.7773 81.7886 55.0284 85.6389 50 95.1221C44.9715 85.6386 33.2219 81.788 23.5801 86.5068C25.0705 75.8642 17.8324 65.814 7.24902 63.9453C14.729 56.1881 14.7293 43.8108 7.24902 36.0537C17.8326 34.1849 25.0711 24.1352 23.5801 13.4922C33.2222 18.2114 44.9716 14.3611 50 4.87695Z" fill="url(#paint0_linear_1704_1323)" stroke="black" stroke-width="2"/>
<mask id="path-2-outside-1_1704_1323" maskUnits="userSpaceOnUse" x="38" y="30" width="22" height="38" fill="black">
<rect fill="white" x="38" y="30" width="22" height="38"/>
<path d="M47.6855 67C47.1855 67 46.9355 66.8167 46.9355 66.45C46.9355 66.0833 47.1522 65.8833 47.5855 65.85L49.7355 65.55C50.4355 65.45 50.8855 65.2833 51.0855 65.05C51.3189 64.7833 51.4355 64.3333 51.4355 63.7L51.4355 57.2C51.4355 56.7333 51.2022 56.5 50.7355 56.5L40.6355 56.5C40.0022 56.5 39.6855 56.2167 39.6855 55.65C39.6855 55.4833 39.7189 55.3167 39.7855 55.15C39.8855 54.95 40.0022 54.7 40.1355 54.4L52.1355 31.5C52.2689 31.1667 52.5355 31 52.9355 31L53.9355 31C54.5355 31 54.6855 31.2833 54.3855 31.85L42.3855 53C42.1522 53.4667 42.2855 53.7 42.7855 53.7L50.7355 53.7C51.2022 53.7 51.4355 53.4667 51.4355 53L51.4355 43.2C51.4355 42.9 51.6022 42.6333 51.9355 42.4L53.7855 41.35C54.0189 41.2167 54.2189 41.2 54.3855 41.3C54.5522 41.3667 54.6355 41.5333 54.6355 41.8L54.6355 53C54.6355 53.4667 54.8689 53.7 55.3355 53.7L57.5355 53.7C57.9355 53.7 58.1355 53.9 58.1355 54.3L58.1355 55.9C58.1355 56.3 57.9355 56.5 57.5355 56.5L55.3355 56.5C54.8689 56.5 54.6355 56.7333 54.6355 57.2L54.6355 63.7C54.6355 64.4 54.7355 64.8667 54.9355 65.1C55.1689 65.3333 55.6355 65.5167 56.3355 65.65L57.4855 65.85C57.9189 65.95 58.1355 66.15 58.1355 66.45C58.1355 66.8167 57.8855 67 57.3855 67L47.6855 67Z"/>
</mask>
<path d="M47.6855 67C47.1855 67 46.9355 66.8167 46.9355 66.45C46.9355 66.0833 47.1522 65.8833 47.5855 65.85L49.7355 65.55C50.4355 65.45 50.8855 65.2833 51.0855 65.05C51.3189 64.7833 51.4355 64.3333 51.4355 63.7L51.4355 57.2C51.4355 56.7333 51.2022 56.5 50.7355 56.5L40.6355 56.5C40.0022 56.5 39.6855 56.2167 39.6855 55.65C39.6855 55.4833 39.7189 55.3167 39.7855 55.15C39.8855 54.95 40.0022 54.7 40.1355 54.4L52.1355 31.5C52.2689 31.1667 52.5355 31 52.9355 31L53.9355 31C54.5355 31 54.6855 31.2833 54.3855 31.85L42.3855 53C42.1522 53.4667 42.2855 53.7 42.7855 53.7L50.7355 53.7C51.2022 53.7 51.4355 53.4667 51.4355 53L51.4355 43.2C51.4355 42.9 51.6022 42.6333 51.9355 42.4L53.7855 41.35C54.0189 41.2167 54.2189 41.2 54.3855 41.3C54.5522 41.3667 54.6355 41.5333 54.6355 41.8L54.6355 53C54.6355 53.4667 54.8689 53.7 55.3355 53.7L57.5355 53.7C57.9355 53.7 58.1355 53.9 58.1355 54.3L58.1355 55.9C58.1355 56.3 57.9355 56.5 57.5355 56.5L55.3355 56.5C54.8689 56.5 54.6355 56.7333 54.6355 57.2L54.6355 63.7C54.6355 64.4 54.7355 64.8667 54.9355 65.1C55.1689 65.3333 55.6355 65.5167 56.3355 65.65L57.4855 65.85C57.9189 65.95 58.1355 66.15 58.1355 66.45C58.1355 66.8167 57.8855 67 57.3855 67L47.6855 67Z" fill="black"/>
<path d="M47.5855 65.85L47.6622 66.8471L47.6931 66.8447L47.7237 66.8404L47.5855 65.85ZM49.7355 65.55L49.8737 66.5404L49.877 66.54L49.7355 65.55ZM51.0855 65.05L50.3329 64.3915L50.3263 64.3992L51.0855 65.05ZM39.7855 55.15L38.8911 54.7028L38.8725 54.74L38.8571 54.7786L39.7855 55.15ZM40.1355 54.4L39.2498 53.9358L39.2348 53.9644L39.2217 53.9939L40.1355 54.4ZM52.1355 31.5L53.0213 31.9641L53.045 31.9189L53.064 31.8714L52.1355 31.5ZM54.3855 31.85L55.2553 32.3435L55.2625 32.3308L55.2693 32.3179L54.3855 31.85ZM42.3855 53L41.5158 52.5065L41.5028 52.5293L41.4911 52.5528L42.3855 53ZM51.9355 42.4L51.4419 41.5303L51.4008 41.5537L51.3621 41.5808L51.9355 42.4ZM53.7855 41.35L54.2792 42.2197L54.2817 42.2182L53.7855 41.35ZM54.3855 41.3L53.871 42.1575L53.9398 42.1987L54.0142 42.2285L54.3855 41.3ZM54.9355 65.1L54.1763 65.7508L54.2013 65.7799L54.2284 65.8071L54.9355 65.1ZM56.3355 65.65L56.1484 66.6323L56.1563 66.6338L56.1642 66.6352L56.3355 65.65ZM57.4855 65.85L57.7104 64.8756L57.6838 64.8695L57.6569 64.8648L57.4855 65.85ZM47.6855 67L47.6855 66C47.6184 66 47.592 65.9935 47.5949 65.9942C47.5985 65.9951 47.6484 66.0077 47.7144 66.0561C47.7863 66.1088 47.8512 66.1853 47.8928 66.2768C47.9318 66.3628 47.9355 66.4288 47.9355 66.45L46.9355 66.45L45.9355 66.45C45.9355 66.8859 46.1009 67.353 46.5317 67.6689C46.9047 67.9424 47.3428 68 47.6855 68L47.6855 67ZM46.9355 66.45L47.9355 66.45C47.9355 66.4556 47.9348 66.4991 47.9102 66.5634C47.8839 66.6322 47.8387 66.7022 47.7763 66.7598C47.6571 66.8699 47.5675 66.8543 47.6622 66.8471L47.5855 65.85L47.5089 64.8529C47.1703 64.879 46.7557 64.9801 46.4198 65.2902C46.0583 65.6238 45.9355 66.0604 45.9355 66.45L46.9355 66.45ZM47.5855 65.85L47.7237 66.8404L49.8737 66.5404L49.7355 65.55L49.5974 64.5596L47.4474 64.8596L47.5855 65.85ZM49.7355 65.55L49.877 66.54C50.2675 66.4842 50.6305 66.4044 50.9454 66.2878C51.2485 66.1755 51.5888 65.9994 51.8448 65.7008L51.0855 65.05L50.3263 64.3992C50.3823 64.3339 50.3976 64.3579 50.2507 64.4123C50.1156 64.4623 49.9036 64.5158 49.5941 64.5601L49.7355 65.55ZM51.0855 65.05L51.8381 65.7085C52.316 65.1623 52.4355 64.4041 52.4355 63.7L51.4355 63.7L50.4355 63.7C50.4355 63.9603 50.411 64.142 50.3801 64.2615C50.3491 64.381 50.3202 64.4061 50.333 64.3915L51.0855 65.05ZM51.4355 63.7L52.4355 63.7L52.4355 57.2L51.4355 57.2L50.4355 57.2L50.4355 63.7L51.4355 63.7ZM51.4355 57.2L52.4355 57.2C52.4355 56.8125 52.338 56.3382 51.9677 55.9679C51.5973 55.5975 51.123 55.5 50.7355 55.5L50.7355 56.5L50.7355 57.5C50.8147 57.5 50.6905 57.5191 50.5534 57.3821C50.4164 57.2451 50.4355 57.1208 50.4355 57.2L51.4355 57.2ZM50.7355 56.5L50.7355 55.5L40.6355 55.5L40.6355 56.5L40.6355 57.5L50.7355 57.5L50.7355 56.5ZM40.6355 56.5L40.6355 55.5C40.5486 55.5 40.5102 55.4899 40.5057 55.4886C40.5047 55.4883 40.5424 55.4998 40.5898 55.5423C40.6127 55.5627 40.633 55.5862 40.6497 55.611C40.6662 55.6356 40.6762 55.6573 40.682 55.6728C40.693 55.7022 40.6855 55.701 40.6855 55.65L39.6855 55.65L38.6855 55.65C38.6855 56.118 38.8214 56.6437 39.2563 57.0327C39.6699 57.4029 40.1905 57.5 40.6355 57.5L40.6355 56.5ZM39.6855 55.65L40.6855 55.65C40.6855 55.6201 40.6909 55.5791 40.714 55.5214L39.7855 55.15L38.8571 54.7786C38.7468 55.0542 38.6855 55.3466 38.6855 55.65L39.6855 55.65ZM39.7855 55.15L40.68 55.5972C40.7891 55.379 40.9124 55.1142 41.0494 54.8061L40.1355 54.4L39.2217 53.9939C39.092 54.2858 38.982 54.521 38.8911 54.7028L39.7855 55.15ZM40.1355 54.4L41.0213 54.8642L53.0213 31.9641L52.1355 31.5L51.2498 31.0358L39.2498 53.9358L40.1355 54.4ZM52.1355 31.5L53.064 31.8714C53.0652 31.8684 53.0597 31.8831 53.0414 31.9059C53.0223 31.9299 52.9962 31.9538 52.9655 31.973C52.902 32.0127 52.8725 32 52.9355 32L52.9355 31L52.9355 30C52.5986 30 52.2358 30.0706 51.9055 30.277C51.5673 30.4884 51.341 30.7939 51.2071 31.1286L52.1355 31.5ZM52.9355 31L52.9355 32L53.9355 32L53.9355 31L53.9355 30L52.9355 30L52.9355 31ZM53.9355 31L53.9355 32C54.0189 32 54.0084 32.0115 53.9478 31.9886C53.8728 31.9603 53.7172 31.8748 53.6143 31.6804C53.5167 31.4961 53.5348 31.3418 53.5414 31.3043C53.5473 31.271 53.5493 31.2924 53.5018 31.3821L54.3855 31.85L55.2693 32.3179C55.3718 32.1243 55.4676 31.8977 55.511 31.6519C55.5551 31.4019 55.5544 31.0705 55.3818 30.7446C55.0223 30.0655 54.2841 30 53.9355 30L53.9355 31ZM54.3855 31.85L53.5158 31.3565L41.5158 52.5065L42.3855 53L43.2553 53.4935L55.2553 32.3435L54.3855 31.85ZM42.3855 53L41.4911 52.5528C41.3573 52.8205 41.1032 53.4277 41.4423 54.0211C41.7989 54.6452 42.4814 54.7 42.7855 54.7L42.7855 53.7L42.7855 52.7C42.7271 52.7 42.7538 52.6917 42.825 52.7179C42.9086 52.7487 43.068 52.8349 43.1788 53.0289C43.2862 53.2169 43.2782 53.3847 43.2692 53.4477C43.2612 53.5042 43.2491 53.509 43.28 53.4472L42.3855 53ZM42.7855 53.7L42.7855 54.7L50.7355 54.7L50.7355 53.7L50.7355 52.7L42.7855 52.7L42.7855 53.7ZM50.7355 53.7L50.7355 54.7C51.123 54.7 51.5973 54.6025 51.9677 54.2321C52.338 53.8618 52.4355 53.3875 52.4355 53L51.4355 53L50.4355 53C50.4355 53.0792 50.4164 52.9549 50.5534 52.8179C50.6905 52.6809 50.8147 52.7 50.7355 52.7L50.7355 53.7ZM51.4355 53L52.4355 53L52.4355 43.2L51.4355 43.2L50.4355 43.2L50.4355 53L51.4355 53ZM51.4355 43.2L52.4355 43.2C52.4355 43.219 52.4327 43.2412 52.4262 43.2634C52.4197 43.2853 52.412 43.2995 52.4085 43.305C52.4031 43.3137 52.4214 43.2805 52.509 43.2192L51.9355 42.4L51.3621 41.5808C50.8654 41.9285 50.4355 42.4646 50.4355 43.2L51.4355 43.2ZM51.9355 42.4L52.4292 43.2697L54.2792 42.2197L53.7855 41.35L53.2919 40.4803L51.4419 41.5303L51.9355 42.4ZM53.7855 41.35L54.2817 42.2182C54.3125 42.2006 54.2795 42.2269 54.1936 42.234C54.092 42.2425 53.9736 42.219 53.871 42.1575L54.3855 41.3L54.9 40.4425C54.3091 40.0879 53.7011 40.2465 53.2894 40.4818L53.7855 41.35ZM54.3855 41.3L54.0142 42.2285C53.9467 42.2015 53.8763 42.1593 53.8126 42.0998C53.7493 42.0407 53.7062 41.9775 53.6786 41.9222C53.6275 41.82 53.6355 41.7595 53.6355 41.8L54.6355 41.8L55.6355 41.8C55.6355 41.3561 55.4802 40.6608 54.7569 40.3715L54.3855 41.3ZM54.6355 41.8L53.6355 41.8L53.6355 53L54.6355 53L55.6355 53L55.6355 41.8L54.6355 41.8ZM54.6355 53L53.6355 53C53.6355 53.3875 53.7331 53.8618 54.1034 54.2321C54.4738 54.6025 54.9481 54.7 55.3355 54.7L55.3355 53.7L55.3355 52.7C55.2564 52.7 55.3806 52.6809 55.5177 52.8179C55.6547 52.9549 55.6355 53.0792 55.6355 53L54.6355 53ZM55.3355 53.7L55.3355 54.7L57.5355 54.7L57.5355 53.7L57.5355 52.7L55.3355 52.7L55.3355 53.7ZM57.5355 53.7L57.5355 54.7C57.5814 54.7 57.4321 54.7108 57.2784 54.5571C57.1248 54.4034 57.1355 54.2541 57.1355 54.3L58.1355 54.3L59.1355 54.3C59.1355 53.9459 59.0463 53.4966 58.6927 53.1429C58.339 52.7892 57.8897 52.7 57.5355 52.7L57.5355 53.7ZM58.1355 54.3L57.1355 54.3L57.1355 55.9L58.1355 55.9L59.1355 55.9L59.1355 54.3L58.1355 54.3ZM58.1355 55.9L57.1355 55.9C57.1355 55.9459 57.1248 55.7966 57.2784 55.6429C57.4321 55.4892 57.5814 55.5 57.5355 55.5L57.5355 56.5L57.5355 57.5C57.8897 57.5 58.339 57.4108 58.6927 57.0571C59.0463 56.7034 59.1355 56.2541 59.1355 55.9L58.1355 55.9ZM57.5355 56.5L57.5355 55.5L55.3355 55.5L55.3355 56.5L55.3355 57.5L57.5355 57.5L57.5355 56.5ZM55.3355 56.5L55.3355 55.5C54.9481 55.5 54.4738 55.5975 54.1034 55.9679C53.7331 56.3382 53.6355 56.8125 53.6355 57.2L54.6355 57.2L55.6355 57.2C55.6355 57.1208 55.6547 57.2451 55.5177 57.3821C55.3806 57.5191 55.2564 57.5 55.3355 57.5L55.3355 56.5ZM54.6355 57.2L53.6355 57.2L53.6355 63.7L54.6355 63.7L55.6355 63.7L55.6355 57.2L54.6355 57.2ZM54.6355 63.7L53.6355 63.7C53.6355 64.091 53.6629 64.4585 53.7327 64.7845C53.8001 65.099 53.9239 65.4564 54.1763 65.7508L54.9355 65.1L55.6948 64.4492C55.7472 64.5103 55.721 64.5177 55.6884 64.3655C55.6582 64.2248 55.6355 64.009 55.6355 63.7L54.6355 63.7ZM54.9355 65.1L54.2284 65.8071C54.6941 66.2727 55.4334 66.4961 56.1484 66.6323L56.3355 65.65L56.5227 64.6677C56.2104 64.6082 55.9833 64.5435 55.8262 64.4817C55.6608 64.4168 55.625 64.3752 55.6427 64.3929L54.9355 65.1ZM56.3355 65.65L56.1642 66.6352L57.3142 66.8352L57.4855 65.85L57.6569 64.8648L56.5069 64.6648L56.3355 65.65ZM57.4855 65.85L57.2607 66.8244C57.3874 66.8536 57.3631 66.8729 57.2948 66.8098C57.2551 66.7732 57.2101 66.7169 57.1774 66.6414C57.1448 66.5662 57.1355 66.4979 57.1355 66.45L58.1355 66.45L59.1355 66.45C59.1355 66.0264 58.9688 65.6332 58.6513 65.3402C58.3664 65.0771 58.017 64.9464 57.7104 64.8756L57.4855 65.85ZM58.1355 66.45L57.1355 66.45C57.1355 66.4288 57.1392 66.3628 57.1783 66.2768C57.2199 66.1853 57.2848 66.1088 57.3567 66.0561C57.4227 66.0077 57.4726 65.9951 57.4762 65.9942C57.4791 65.9935 57.4527 66 57.3855 66L57.3855 67L57.3855 68C57.7283 68 58.1664 67.9424 58.5394 67.6689C58.9702 67.353 59.1355 66.8859 59.1355 66.45L58.1355 66.45ZM57.3855 67L57.3855 66L47.6855 66L47.6855 67L47.6855 68L57.3855 68L57.3855 67Z" fill="black" mask="url(#path-2-outside-1_1704_1323)"/>
<defs>
<linearGradient id="paint0_linear_1704_1323" x1="62.6569" y1="2.5" x2="-2.46402" y2="49.2388" gradientUnits="userSpaceOnUse">
<stop stop-color="#E9F1FF"/>
<stop offset="1" stop-color="#8EACFF"/>
</linearGradient>
</defs>
</svg>
