<svg width="100" height="100" viewBox="0 0 100 100" fill="none" xmlns="http://www.w3.org/2000/svg">
<path d="M47.6484 7.94434C49.0504 6.92576 50.9496 6.92576 52.3516 7.94434L89.2705 34.7676C90.6725 35.7862 91.2591 37.5921 90.7236 39.2402L76.6221 82.6416C76.0866 84.2897 74.5503 85.4062 72.8174 85.4062H27.1826C25.4497 85.4062 23.9134 84.2897 23.3779 82.6416L9.27637 39.2402C8.74087 37.5921 9.32754 35.7862 10.7295 34.7676L47.6484 7.94434Z" fill="url(#paint0_linear_1704_1348)" stroke="black" stroke-width="2"/>
<mask id="path-2-outside-1_1704_1348" maskUnits="userSpaceOnUse" x="40" y="30" width="20" height="40" fill="black">
<rect fill="white" x="40" y="30" width="20" height="40"/>
<path d="M44.4414 68.4C44.1081 68.4667 43.8581 68.4333 43.6914 68.3C43.5581 68.1667 43.4914 68 43.4914 67.8C43.4914 67.5 43.6747 67.2667 44.0414 67.1C46.6081 66.1333 48.7247 64.5167 50.3914 62.25C52.0581 59.95 53.2081 56.8333 53.8414 52.9C53.9081 52.6333 53.8747 52.4667 53.7414 52.4C53.6081 52.3333 53.4414 52.3833 53.2414 52.55C52.2081 53.35 50.9414 53.75 49.4414 53.75C47.8747 53.75 46.4747 53.2667 45.2414 52.3C44.0081 51.3333 43.0247 50.0333 42.2914 48.4C41.5914 46.7333 41.2414 44.9 41.2414 42.9C41.2414 40.8667 41.6247 39 42.3914 37.3C43.1581 35.5667 44.1747 34.1667 45.4414 33.1C46.7414 32.0333 48.1747 31.5 49.7414 31.5C51.4414 31.5 52.9247 32.0667 54.1914 33.2C55.4581 34.3333 56.4414 35.9167 57.1414 37.95C57.8747 39.95 58.2414 42.3 58.2414 45C58.2414 49.1333 57.6081 52.85 56.3414 56.15C55.1081 59.4167 53.4414 62.1 51.3414 64.2C49.2747 66.3 46.9747 67.7 44.4414 68.4ZM44.8414 42.65C44.8414 49.2167 46.3914 52.5 49.4914 52.5C51.1914 52.5 52.4747 51.6167 53.3414 49.85C54.2081 48.0833 54.6414 45.5833 54.6414 42.35C54.6414 39.25 54.2247 36.9 53.3914 35.3C52.5914 33.6667 51.3581 32.85 49.6914 32.85C46.4581 32.85 44.8414 36.1167 44.8414 42.65Z"/>
</mask>
<path d="M44.4414 68.4C44.1081 68.4667 43.8581 68.4333 43.6914 68.3C43.5581 68.1667 43.4914 68 43.4914 67.8C43.4914 67.5 43.6747 67.2667 44.0414 67.1C46.6081 66.1333 48.7247 64.5167 50.3914 62.25C52.0581 59.95 53.2081 56.8333 53.8414 52.9C53.9081 52.6333 53.8747 52.4667 53.7414 52.4C53.6081 52.3333 53.4414 52.3833 53.2414 52.55C52.2081 53.35 50.9414 53.75 49.4414 53.75C47.8747 53.75 46.4747 53.2667 45.2414 52.3C44.0081 51.3333 43.0247 50.0333 42.2914 48.4C41.5914 46.7333 41.2414 44.9 41.2414 42.9C41.2414 40.8667 41.6247 39 42.3914 37.3C43.1581 35.5667 44.1747 34.1667 45.4414 33.1C46.7414 32.0333 48.1747 31.5 49.7414 31.5C51.4414 31.5 52.9247 32.0667 54.1914 33.2C55.4581 34.3333 56.4414 35.9167 57.1414 37.95C57.8747 39.95 58.2414 42.3 58.2414 45C58.2414 49.1333 57.6081 52.85 56.3414 56.15C55.1081 59.4167 53.4414 62.1 51.3414 64.2C49.2747 66.3 46.9747 67.7 44.4414 68.4ZM44.8414 42.65C44.8414 49.2167 46.3914 52.5 49.4914 52.5C51.1914 52.5 52.4747 51.6167 53.3414 49.85C54.2081 48.0833 54.6414 45.5833 54.6414 42.35C54.6414 39.25 54.2247 36.9 53.3914 35.3C52.5914 33.6667 51.3581 32.85 49.6914 32.85C46.4581 32.85 44.8414 36.1167 44.8414 42.65Z" fill="black"/>
<path d="M44.4414 68.4L44.6375 69.3806L44.6729 69.3735L44.7077 69.3639L44.4414 68.4ZM43.6914 68.3L42.9843 69.0071L43.0235 69.0463L43.0667 69.0809L43.6914 68.3ZM44.0414 67.1L43.689 66.1642L43.6579 66.1759L43.6276 66.1896L44.0414 67.1ZM50.3914 62.25L51.1971 62.8424L51.2012 62.8368L50.3914 62.25ZM53.8414 52.9L52.8713 52.6575L52.8609 52.6989L52.8541 52.741L53.8414 52.9ZM53.7414 52.4L54.1886 51.5056H54.1886L53.7414 52.4ZM53.2414 52.55L53.8536 53.3407L53.8678 53.3297L53.8816 53.3182L53.2414 52.55ZM45.2414 52.3L44.6245 53.0871H44.6245L45.2414 52.3ZM42.2914 48.4L41.3694 48.7872L41.3741 48.7985L41.3791 48.8096L42.2914 48.4ZM42.3914 37.3L43.303 37.7111L43.3059 37.7045L42.3914 37.3ZM45.4414 33.1L44.807 32.3269L44.7973 32.3351L45.4414 33.1ZM54.1914 33.2L54.8582 32.4548L54.1914 33.2ZM57.1414 37.95L56.1959 38.2755L56.1991 38.2849L56.2025 38.2943L57.1414 37.95ZM56.3414 56.15L55.4078 55.7916L55.4059 55.7968L56.3414 56.15ZM51.3414 64.2L50.6343 63.4929L50.6287 63.4986L51.3414 64.2ZM53.3914 35.3L52.4933 35.7399L52.4988 35.751L52.5045 35.7619L53.3914 35.3ZM44.4414 68.4L44.2453 67.4194C44.2006 67.4284 44.1694 67.4318 44.15 67.4329C44.1306 67.434 44.1269 67.4326 44.1361 67.4338C44.1456 67.435 44.1699 67.4393 44.2034 67.4528C44.2379 67.4666 44.2772 67.488 44.3161 67.5191L43.6914 68.3L43.0667 69.0809C43.5719 69.485 44.1847 69.4711 44.6375 69.3806L44.4414 68.4ZM43.6914 68.3L44.3985 67.5929C44.4227 67.6171 44.4504 67.6549 44.4699 67.7036C44.4889 67.7512 44.4914 67.7873 44.4914 67.8L43.4914 67.8H42.4914C42.4914 68.2474 42.6512 68.674 42.9843 69.0071L43.6914 68.3ZM43.4914 67.8L44.4914 67.8C44.4914 67.8285 44.4867 67.8681 44.4715 67.9126C44.4561 67.9572 44.4349 67.9928 44.4152 68.0178C44.379 68.0639 44.3681 68.05 44.4552 68.0104L44.0414 67.1L43.6276 66.1896C43.0492 66.4526 42.4914 66.97 42.4914 67.8H43.4914ZM44.0414 67.1L44.3939 68.0358C47.1465 66.9991 49.4189 65.2607 51.1971 62.8424L50.3914 62.25L49.5858 61.6576C48.0306 63.7726 46.0696 65.2676 43.689 66.1642L44.0414 67.1ZM50.3914 62.25L51.2012 62.8368C52.989 60.3695 54.1799 57.0884 54.8287 53.059L53.8414 52.9L52.8541 52.741C52.2363 56.5783 51.1271 59.5305 49.5817 61.6632L50.3914 62.25ZM53.8414 52.9L54.8116 53.1425C54.8612 52.944 54.9052 52.67 54.847 52.3789C54.7794 52.0411 54.5724 51.6975 54.1886 51.5056L53.7414 52.4L53.2942 53.2944C53.1876 53.2411 53.0867 53.1589 53.0089 53.05C52.9337 52.9447 52.9002 52.8428 52.8858 52.7711C52.8609 52.6467 52.8883 52.5893 52.8713 52.6575L53.8414 52.9ZM53.7414 52.4L54.1886 51.5056C53.4842 51.1534 52.8634 51.5633 52.6012 51.7818L53.2414 52.55L53.8816 53.3182C53.9246 53.2824 53.8973 53.3173 53.8038 53.3453C53.6867 53.3804 53.4931 53.3939 53.2942 53.2944L53.7414 52.4ZM53.2414 52.55L52.6292 51.7593C51.7964 52.404 50.7541 52.75 49.4414 52.75L49.4414 53.75L49.4414 54.75C51.1287 54.75 52.6197 54.296 53.8536 53.3407L53.2414 52.55ZM49.4414 53.75L49.4414 52.75C48.0984 52.75 46.9156 52.3417 45.8583 51.5129L45.2414 52.3L44.6245 53.0871C46.0338 54.1917 47.651 54.75 49.4414 54.75L49.4414 53.75ZM45.2414 52.3L45.8583 51.5129C44.7697 50.6597 43.8801 49.4971 43.2037 47.9904L42.2914 48.4L41.3791 48.8096C42.1693 50.5696 43.2464 52.0069 44.6245 53.0871L45.2414 52.3ZM42.2914 48.4L43.2134 48.0128C42.5701 46.4811 42.2414 44.7812 42.2414 42.9L41.2414 42.9L40.2414 42.9C40.2414 45.0188 40.6127 46.9855 41.3694 48.7872L42.2914 48.4ZM41.2414 42.9L42.2414 42.9C42.2414 40.9955 42.5997 39.2706 43.303 37.7111L42.3914 37.3L41.4798 36.8889C40.6498 38.7294 40.2414 40.7379 40.2414 42.9L41.2414 42.9ZM42.3914 37.3L43.3059 37.7045C44.02 36.0902 44.951 34.8203 46.0855 33.8649L45.4414 33.1L44.7973 32.3351C43.3985 33.513 42.2962 35.0432 41.4769 36.8955L42.3914 37.3ZM45.4414 33.1L46.0757 33.8731C47.211 32.9416 48.4237 32.5 49.7414 32.5L49.7414 31.5L49.7414 30.5C47.9258 30.5 46.2718 31.1251 44.8071 32.3269L45.4414 33.1ZM49.7414 31.5L49.7414 32.5C51.1954 32.5 52.4413 32.976 53.5246 33.9452L54.1914 33.2L54.8582 32.4548C53.4081 31.1573 51.6874 30.5 49.7414 30.5L49.7414 31.5ZM54.1914 33.2L53.5246 33.9452C54.6346 34.9384 55.537 36.3616 56.1959 38.2755L57.1414 37.95L58.0869 37.6245C57.3458 35.4718 56.2815 33.7283 54.8582 32.4548L54.1914 33.2ZM57.1414 37.95L56.2025 38.2943C56.8862 40.1589 57.2414 42.3874 57.2414 45L58.2414 45L59.2414 45C59.2414 42.2126 58.8632 39.7411 58.0803 37.6057L57.1414 37.95ZM58.2414 45L57.2414 45C57.2414 49.0312 56.6238 52.6236 55.4078 55.7917L56.3414 56.15L57.275 56.5083C58.5923 53.0764 59.2414 49.2355 59.2414 45L58.2414 45ZM56.3414 56.15L55.4059 55.7968C54.214 58.9537 52.6178 61.5094 50.6343 63.4929L51.3414 64.2L52.0485 64.9071C54.265 62.6906 56.0022 59.8796 57.2769 56.5032L56.3414 56.15ZM51.3414 64.2L50.6287 63.4986C48.6699 65.4889 46.5194 66.7884 44.1751 67.4361L44.4414 68.4L44.7077 69.3639C47.4301 68.6116 49.8795 67.1111 52.0541 64.9014L51.3414 64.2ZM44.8414 42.65L43.8414 42.65C43.8414 45.9803 44.2294 48.6211 45.0996 50.4644C45.5409 51.3992 46.1243 52.1675 46.8802 52.7013C47.6454 53.2415 48.5292 53.5 49.4914 53.5L49.4914 52.5L49.4914 51.5C48.9036 51.5 48.4312 51.3481 48.0338 51.0675C47.6273 50.7804 47.2419 50.3175 46.9082 49.6106C46.2284 48.1706 45.8414 45.8864 45.8414 42.65L44.8414 42.65ZM49.4914 52.5L49.4914 53.5C50.5246 53.5 51.4722 53.2282 52.2959 52.6612C53.1114 52.0999 53.7498 51.288 54.2392 50.2904L53.3414 49.85L52.4436 49.4096C52.0663 50.1787 51.6298 50.6918 51.1619 51.0138C50.7023 51.3301 50.1583 51.5 49.4914 51.5L49.4914 52.5ZM53.3414 49.85L54.2392 50.2904C55.203 48.3258 55.6414 45.6495 55.6414 42.35L54.6414 42.35L53.6414 42.35C53.6414 45.5172 53.2132 47.8408 52.4436 49.4096L53.3414 49.85ZM54.6414 42.35L55.6414 42.35C55.6414 39.1895 55.2215 36.6489 54.2783 34.8381L53.3914 35.3L52.5045 35.7619C53.228 37.1511 53.6414 39.3105 53.6414 42.35L54.6414 42.35ZM53.3914 35.3L54.2895 34.8601C53.8291 33.9202 53.214 33.1555 52.4185 32.6287C51.6179 32.0986 50.6954 31.85 49.6914 31.85L49.6914 32.85L49.6914 33.85C50.3541 33.85 50.8816 34.0097 51.3143 34.2963C51.7521 34.5862 52.1537 35.0465 52.4933 35.7399L53.3914 35.3ZM49.6914 32.85L49.6914 31.85C48.706 31.85 47.7995 32.1019 47.0109 32.6331C46.229 33.1597 45.6201 33.922 45.1577 34.8564C44.2466 36.6974 43.8414 39.333 43.8414 42.65L44.8414 42.65L45.8414 42.65C45.8414 39.4336 46.2446 37.1692 46.9502 35.7436C47.296 35.0447 47.6975 34.582 48.1282 34.2919C48.552 34.0064 49.0602 33.85 49.6914 33.85L49.6914 32.85Z" fill="black" mask="url(#path-2-outside-1_1704_1348)"/>
<defs>
<linearGradient id="paint0_linear_1704_1348" x1="23.1193" y1="95" x2="92.787" y2="50.5997" gradientUnits="userSpaceOnUse">
<stop offset="0.0840252" stop-color="#FFAA6E"/>
<stop offset="1" stop-color="#FFE070"/>
</linearGradient>
</defs>
</svg>
