<svg width="100" height="100" viewBox="0 0 100 100" fill="none" xmlns="http://www.w3.org/2000/svg">
<path d="M48 7.30957C49.1602 6.63972 50.5729 6.59753 51.7646 7.18359L52 7.30957L85.9707 26.9229C87.2083 27.6374 87.9707 28.9577 87.9707 30.3867V69.6133C87.9707 71.0423 87.2083 72.3626 85.9707 73.0771L52 92.6904C50.7624 93.405 49.2376 93.405 48 92.6904L14.0293 73.0771C12.7917 72.3626 12.0293 71.0423 12.0293 69.6133V30.3867C12.0293 28.9577 12.7917 27.6374 14.0293 26.9229L48 7.30957Z" fill="url(#paint0_linear_1704_1339)" stroke="black" stroke-width="2"/>
<mask id="path-2-outside-1_1704_1339" maskUnits="userSpaceOnUse" x="40" y="30.5" width="20" height="38" fill="black">
<rect fill="white" x="40" y="30.5" width="20" height="38"/>
<path d="M45.8436 67.5C45.3102 67.5 45.1269 67.25 45.2936 66.75L56.4436 35.3C56.6102 34.7667 56.4269 34.5 55.8936 34.5L44.7936 34.5C44.2602 34.5 43.8602 34.6 43.5936 34.8C43.3269 35 43.1102 35.2167 42.9436 35.45C42.7769 35.65 42.5602 35.75 42.2936 35.75C42.0269 35.75 41.8602 35.65 41.7936 35.45C41.7602 35.2167 41.7769 34.9667 41.8436 34.7L42.5936 32.1C42.6936 31.7 42.9436 31.5 43.3436 31.5L58.1936 31.5C58.6602 31.5 58.8936 31.7 58.8936 32.1C58.8936 32.3667 58.7602 32.9167 58.4936 33.75L47.7936 66.95C47.6936 67.3167 47.4602 67.5 47.0936 67.5L45.8436 67.5Z"/>
</mask>
<path d="M45.8436 67.5C45.3102 67.5 45.1269 67.25 45.2936 66.75L56.4436 35.3C56.6102 34.7667 56.4269 34.5 55.8936 34.5L44.7936 34.5C44.2602 34.5 43.8602 34.6 43.5936 34.8C43.3269 35 43.1102 35.2167 42.9436 35.45C42.7769 35.65 42.5602 35.75 42.2936 35.75C42.0269 35.75 41.8602 35.65 41.7936 35.45C41.7602 35.2167 41.7769 34.9667 41.8436 34.7L42.5936 32.1C42.6936 31.7 42.9436 31.5 43.3436 31.5L58.1936 31.5C58.6602 31.5 58.8936 31.7 58.8936 32.1C58.8936 32.3667 58.7602 32.9167 58.4936 33.75L47.7936 66.95C47.6936 67.3167 47.4602 67.5 47.0936 67.5L45.8436 67.5Z" fill="black"/>
<path d="M45.2936 66.75L44.351 66.4158L44.3479 66.4248L44.3449 66.4338L45.2936 66.75ZM56.4436 35.3L57.3861 35.6341L57.3924 35.6163L57.398 35.5983L56.4436 35.3ZM43.5936 34.8L42.9936 34L42.9936 34L43.5936 34.8ZM42.9436 35.45L43.7118 36.0902L43.7356 36.0616L43.7573 36.0312L42.9436 35.45ZM41.7936 35.45L40.8036 35.5914L40.8164 35.6807L40.8449 35.7662L41.7936 35.45ZM41.8436 34.7L40.8827 34.4228L40.8778 34.4401L40.8734 34.4575L41.8436 34.7ZM42.5936 32.1L43.5544 32.3772L43.5593 32.3599L43.5637 32.3425L42.5936 32.1ZM58.4936 33.75L59.4453 34.0568L59.446 34.0548L58.4936 33.75ZM47.7936 66.95L46.8418 66.6432L46.8348 66.6649L46.8288 66.6869L47.7936 66.95ZM45.8436 67.5L45.8436 66.5C45.7805 66.5 45.7889 66.4916 45.8386 66.5089C45.8967 66.5292 46.0141 66.587 46.1125 66.7211C46.2115 66.8562 46.2324 66.9884 46.2339 67.0559C46.2352 67.1133 46.2233 67.1229 46.2422 67.0662L45.2936 66.75L44.3449 66.4338C44.2302 66.7778 44.1134 67.3772 44.4997 67.9039C44.8818 68.4249 45.4833 68.5 45.8436 68.5L45.8436 67.5ZM45.2936 66.75L46.2361 67.0842L57.3861 35.6341L56.4436 35.3L55.501 34.9658L44.351 66.4158L45.2936 66.75ZM56.4436 35.3L57.398 35.5983C57.5086 35.2446 57.6143 34.6559 57.2551 34.1335C56.8812 33.5896 56.2737 33.5 55.8936 33.5L55.8936 34.5L55.8936 35.5C55.9513 35.5 55.9358 35.5083 55.8792 35.4872C55.8119 35.4622 55.6977 35.3984 55.607 35.2665C55.5187 35.138 55.5042 35.0197 55.5031 34.9708C55.5023 34.9292 55.5103 34.9339 55.4891 35.0017L56.4436 35.3ZM55.8936 34.5L55.8936 33.5L44.7936 33.5L44.7936 34.5L44.7936 35.5L55.8936 35.5L55.8936 34.5ZM44.7936 34.5L44.7936 33.5C44.1641 33.5 43.5096 33.613 42.9936 34L43.5936 34.8L44.1936 35.6C44.2108 35.587 44.3564 35.5 44.7936 35.5L44.7936 34.5ZM43.5936 34.8L42.9936 34C42.6579 34.2518 42.3649 34.5397 42.1298 34.8688L42.9436 35.45L43.7573 36.0312C43.8556 35.8936 43.9959 35.7482 44.1936 35.6L43.5936 34.8ZM42.9436 35.45L42.1753 34.8098C42.1783 34.8063 42.1986 34.7848 42.237 34.767C42.2747 34.7496 42.2993 34.75 42.2936 34.75L42.2936 35.75L42.2936 36.75C42.8487 36.75 43.3498 36.5245 43.7118 36.0902L42.9436 35.45ZM42.2936 35.75L42.2936 34.75C42.2767 34.75 42.3635 34.7458 42.483 34.8175C42.6223 34.9011 42.707 35.028 42.7422 35.1338L41.7936 35.45L40.8449 35.7662C40.9468 36.072 41.1481 36.3489 41.4541 36.5325C41.7403 36.7042 42.0437 36.75 42.2936 36.75L42.2936 35.75ZM41.7936 35.45L42.7835 35.3086C42.7712 35.2227 42.7733 35.1043 42.8137 34.9425L41.8436 34.7L40.8734 34.4575C40.7805 34.8291 40.7492 35.2106 40.8036 35.5914L41.7936 35.45ZM41.8436 34.7L42.8044 34.9772L43.5544 32.3772L42.5936 32.1L41.6327 31.8228L40.8827 34.4228L41.8436 34.7ZM42.5936 32.1L43.5637 32.3425C43.576 32.2934 43.5704 32.3591 43.4808 32.4309C43.439 32.4642 43.3972 32.4836 43.3658 32.4933C43.3367 32.5022 43.3261 32.5 43.3436 32.5L43.3436 31.5L43.3436 30.5C42.9744 30.5 42.5742 30.5949 42.2314 30.8691C41.8917 31.1409 41.7111 31.5066 41.6234 31.8575L42.5936 32.1ZM43.3436 31.5L43.3436 32.5L58.1936 32.5L58.1936 31.5L58.1936 30.5L43.3436 30.5L43.3436 31.5ZM58.1936 31.5L58.1936 32.5C58.3072 32.5 58.2059 32.5276 58.0678 32.4093C57.9951 32.347 57.9454 32.2708 57.9178 32.1999C57.8926 32.1351 57.8936 32.095 57.8936 32.1L58.8936 32.1L59.8936 32.1C59.8936 31.7021 59.7703 31.2344 59.3693 30.8907C58.9979 30.5724 58.5465 30.5 58.1936 30.5L58.1936 31.5ZM58.8936 32.1L57.8936 32.1C57.8936 32.0918 57.8938 32.1175 57.8816 32.192C57.8702 32.2619 57.8511 32.3558 57.8217 32.4769C57.7628 32.7197 57.6706 33.0405 57.5411 33.4452L58.4936 33.75L59.446 34.0548C59.5831 33.6261 59.6909 33.2553 59.7654 32.9481C59.8348 32.662 59.8936 32.36 59.8936 32.1L58.8936 32.1ZM58.4936 33.75L57.5418 33.4432L46.8418 66.6432L47.7936 66.95L48.7453 67.2568L59.4453 34.0568L58.4936 33.75ZM47.7936 66.95L46.8288 66.6869C46.8193 66.7216 46.8314 66.6503 46.9257 66.5762C47.0235 66.4993 47.1069 66.5 47.0936 66.5L47.0936 67.5L47.0936 68.5C47.4468 68.5 47.8302 68.409 48.1614 68.1488C48.489 67.8914 48.6678 67.5451 48.7583 67.2131L47.7936 66.95ZM47.0936 67.5L47.0936 66.5L45.8436 66.5L45.8436 67.5L45.8436 68.5L47.0936 68.5L47.0936 67.5Z" fill="black" mask="url(#path-2-outside-1_1704_1339)"/>
<defs>
<linearGradient id="paint0_linear_1704_1339" x1="73.3849" y1="10.0735" x2="-5.17749" y2="60.9072" gradientUnits="userSpaceOnUse">
<stop stop-color="#FAAFBE"/>
<stop offset="1" stop-color="#F3654F"/>
</linearGradient>
</defs>
</svg>
