<svg width="100" height="100" viewBox="0 0 100 100" fill="none" xmlns="http://www.w3.org/2000/svg">
<path d="M49.667 94C44.7997 94 41.3971 93.3542 39.0498 92.2324C36.7461 91.1313 35.4248 89.5577 34.7109 87.5615L34.3428 86.5303L33.3496 86.9902C31.4577 87.8658 29.4425 88.0315 27.0859 87.1992C24.6857 86.3514 21.8949 84.4535 18.5537 81.1123C15.1141 77.6727 13.206 74.8177 12.3965 72.3721C11.6033 69.9756 11.8475 67.9233 12.8408 65.9795L13.3535 64.9756L12.2959 64.5859C10.342 63.8672 8.80251 62.5614 7.72657 60.3115C6.63063 58.0197 6.00001 54.7126 6 50C6 45.2874 6.63062 41.9803 7.72657 39.6885C8.80252 37.4385 10.342 36.1328 12.2959 35.4141L13.3535 35.0244L12.8408 34.0205C11.8476 32.0767 11.6033 30.0244 12.3965 27.6279C13.206 25.1823 15.1142 22.3273 18.5537 18.8877C21.8949 15.5465 24.6857 13.6486 27.0859 12.8008C29.4425 11.9685 31.4577 12.1342 33.3496 13.0098L34.3428 13.4697L34.7109 12.4385C35.4248 10.4423 36.7461 8.86865 39.0498 7.76757C41.3971 6.64574 44.7997 6 49.667 6C54.5344 6.00003 57.9369 6.64564 60.2842 7.76758C62.5877 8.86863 63.9083 10.4424 64.6221 12.4385L64.9902 13.4697L65.9834 13.0098C67.8754 12.1341 69.8906 11.9685 72.2471 12.8008C74.6474 13.6485 77.438 15.5463 80.7793 18.8877C84.1682 22.2766 86.0718 25.0981 86.9014 27.5205C87.715 29.8965 87.511 31.9299 86.5791 33.8467L86.0684 34.8984L87.1865 35.2402C89.3158 35.8908 90.9745 37.1533 92.1318 39.4033C93.3139 41.7017 94 45.0855 94 50C94 54.9145 93.3139 58.2983 92.1318 60.5967C90.9745 62.8467 89.3158 64.1092 87.1865 64.7598L86.0684 65.1016L86.5791 66.1533C87.511 68.0701 87.715 70.1035 86.9014 72.4795C86.0718 74.9019 84.1682 77.7234 80.7793 81.1123C77.4379 84.4537 74.6474 86.3515 72.2471 87.1992C69.8905 88.0315 67.8754 87.8659 65.9834 86.9902L64.9902 86.5303L64.6221 87.5615C63.9083 89.5576 62.5877 91.1314 60.2842 92.2324C57.9369 93.3543 54.5344 94 49.667 94Z" fill="url(#paint0_linear_1704_1334)" stroke="black" stroke-width="2"/>
<mask id="path-2-outside-1_1704_1334" maskUnits="userSpaceOnUse" x="39" y="28" width="20" height="40" fill="black">
<rect fill="white" x="39" y="28" width="20" height="40"/>
<path d="M48.6926 66.45C47.0259 66.45 45.5426 65.8833 44.2426 64.75C42.9759 63.6167 41.9759 62.0333 41.2426 60C40.5426 57.9667 40.1926 55.6167 40.1926 52.95C40.1926 50.2167 40.5759 47.5667 41.3426 45C42.1426 42.4 43.2426 40.0333 44.6426 37.9C46.0426 35.7667 47.6592 33.9667 49.4926 32.5C51.3592 31.0333 53.3592 30.05 55.4926 29.55C55.8259 29.4833 56.0592 29.5167 56.1926 29.65C56.3592 29.7833 56.4426 29.95 56.4426 30.15C56.4426 30.4833 56.2592 30.7 55.8926 30.8C52.9592 31.7667 50.5926 33.3333 48.7926 35.5C46.9926 37.6333 45.6592 40.4333 44.7926 43.9C44.7259 44.1333 44.7426 44.3 44.8426 44.4C44.9759 44.4667 45.1426 44.4333 45.3426 44.3C46.3759 43.5667 47.5926 43.2 48.9926 43.2C50.5592 43.2 51.9592 43.7 53.1926 44.7C54.4259 45.6667 55.3926 47 56.0926 48.7C56.8259 50.4 57.1926 52.35 57.1926 54.55C57.1926 56.7167 56.8092 58.7167 56.0426 60.55C55.2759 62.35 54.2426 63.7833 52.9426 64.85C51.6759 65.9167 50.2592 66.45 48.6926 66.45ZM48.5926 65.1C50.2926 65.1 51.5426 64.2667 52.3426 62.6C53.1759 60.9 53.5926 58.3 53.5926 54.8C53.5926 51.2333 53.2092 48.6167 52.4426 46.95C51.6759 45.2833 50.4592 44.45 48.7926 44.45C45.2592 44.45 43.4926 48 43.4926 55.1C43.4926 61.7667 45.1926 65.1 48.5926 65.1Z"/>
</mask>
<path d="M48.6926 66.45C47.0259 66.45 45.5426 65.8833 44.2426 64.75C42.9759 63.6167 41.9759 62.0333 41.2426 60C40.5426 57.9667 40.1926 55.6167 40.1926 52.95C40.1926 50.2167 40.5759 47.5667 41.3426 45C42.1426 42.4 43.2426 40.0333 44.6426 37.9C46.0426 35.7667 47.6592 33.9667 49.4926 32.5C51.3592 31.0333 53.3592 30.05 55.4926 29.55C55.8259 29.4833 56.0592 29.5167 56.1926 29.65C56.3592 29.7833 56.4426 29.95 56.4426 30.15C56.4426 30.4833 56.2592 30.7 55.8926 30.8C52.9592 31.7667 50.5926 33.3333 48.7926 35.5C46.9926 37.6333 45.6592 40.4333 44.7926 43.9C44.7259 44.1333 44.7426 44.3 44.8426 44.4C44.9759 44.4667 45.1426 44.4333 45.3426 44.3C46.3759 43.5667 47.5926 43.2 48.9926 43.2C50.5592 43.2 51.9592 43.7 53.1926 44.7C54.4259 45.6667 55.3926 47 56.0926 48.7C56.8259 50.4 57.1926 52.35 57.1926 54.55C57.1926 56.7167 56.8092 58.7167 56.0426 60.55C55.2759 62.35 54.2426 63.7833 52.9426 64.85C51.6759 65.9167 50.2592 66.45 48.6926 66.45ZM48.5926 65.1C50.2926 65.1 51.5426 64.2667 52.3426 62.6C53.1759 60.9 53.5926 58.3 53.5926 54.8C53.5926 51.2333 53.2092 48.6167 52.4426 46.95C51.6759 45.2833 50.4592 44.45 48.7926 44.45C45.2592 44.45 43.4926 48 43.4926 55.1C43.4926 61.7667 45.1926 65.1 48.5926 65.1Z" fill="black"/>
<path d="M44.2426 64.75L43.5757 65.4953L43.5854 65.5038L44.2426 64.75ZM41.2426 60L40.297 60.3255L40.2994 60.3324L40.3019 60.3393L41.2426 60ZM41.3426 45L40.3868 44.7059L40.3844 44.7138L41.3426 45ZM44.6426 37.9L43.8065 37.3513L44.6426 37.9ZM49.4926 32.5L48.8747 31.7137L48.8679 31.7191L49.4926 32.5ZM55.4926 29.55L55.2965 28.5694L55.2804 28.5726L55.2644 28.5764L55.4926 29.55ZM56.1926 29.65L55.4855 30.3571L55.5246 30.3963L55.5679 30.4309L56.1926 29.65ZM55.8926 30.8L55.6295 29.8352L55.6043 29.8421L55.5796 29.8502L55.8926 30.8ZM48.7926 35.5L49.5569 36.1449L49.5618 36.139L48.7926 35.5ZM44.7926 43.9L45.7541 44.1747L45.7587 44.1587L45.7627 44.1425L44.7926 43.9ZM44.8426 44.4L44.1355 45.1071L44.2502 45.2219L44.3954 45.2944L44.8426 44.4ZM45.3426 44.3L45.8973 45.1321L45.9094 45.124L45.9213 45.1155L45.3426 44.3ZM53.1926 44.7L52.5628 45.4768L52.5692 45.482L52.5757 45.4871L53.1926 44.7ZM56.0926 48.7L55.1679 49.0808L55.1711 49.0885L55.1744 49.0961L56.0926 48.7ZM56.0426 60.55L56.9626 60.9419L56.9652 60.9358L56.0426 60.55ZM52.9426 64.85L52.3082 64.0769L52.2984 64.0851L52.9426 64.85ZM52.3426 62.6L51.4446 62.1598L51.4411 62.1673L52.3426 62.6ZM52.4426 46.95L51.5341 47.3679L52.4426 46.95ZM48.6926 66.45L48.6926 65.45C47.2766 65.45 46.0245 64.9768 44.8997 63.9962L44.2426 64.75L43.5854 65.5038C45.0606 66.7898 46.7753 67.45 48.6926 67.45L48.6926 66.45ZM44.2426 64.75L44.9094 64.0048C43.7953 63.008 42.8753 61.5795 42.1833 59.6607L41.2426 60L40.3019 60.3393C41.0765 62.4871 42.1565 64.2253 43.5758 65.4952L44.2426 64.75ZM41.2426 60L42.1881 59.6745C41.5316 57.7676 41.1926 55.5314 41.1926 52.95L40.1926 52.95L39.1926 52.95C39.1926 55.7019 39.5535 58.1658 40.297 60.3255L41.2426 60ZM40.1926 52.95L41.1926 52.95C41.1926 50.3116 41.5624 47.7581 42.3007 45.2862L41.3426 45L40.3844 44.7138C39.5894 47.3752 39.1926 50.1217 39.1926 52.95L40.1926 52.95ZM41.3426 45L42.2984 45.2941C43.0725 42.7782 44.1336 40.4982 45.4786 38.4487L44.6426 37.9L43.8065 37.3513C42.3515 39.5685 41.2127 42.0218 40.3868 44.7059L41.3426 45ZM44.6426 37.9L45.4786 38.4487C46.8258 36.3958 48.373 34.6763 50.1173 33.2809L49.4926 32.5L48.8679 31.7191C46.9455 33.2571 45.2593 35.1376 43.8065 37.3513L44.6426 37.9ZM49.4926 32.5L50.1104 33.2863C51.8721 31.9021 53.741 30.9876 55.7208 30.5236L55.4926 29.55L55.2644 28.5764C52.9775 29.1124 50.8464 30.1646 48.8748 31.7137L49.4926 32.5ZM55.4926 29.55L55.6887 30.5306C55.789 30.5105 55.8095 30.5197 55.7762 30.515C55.733 30.5088 55.6065 30.4782 55.4855 30.3571L56.1926 29.65L56.8997 28.9429C56.391 28.4342 55.701 28.4885 55.2965 28.5694L55.4926 29.55ZM56.1926 29.65L55.5679 30.4309C55.5546 30.4203 55.5175 30.3859 55.4857 30.3222C55.4529 30.2566 55.4426 30.1936 55.4426 30.15L56.4426 30.15L57.4426 30.15C57.4426 29.6235 57.2028 29.1776 56.8173 28.8691L56.1926 29.65ZM56.4426 30.15L55.4426 30.15C55.4426 30.1417 55.4438 30.1091 55.4595 30.0619C55.476 30.0126 55.5036 29.9616 55.5417 29.9166C55.6183 29.826 55.6826 29.8207 55.6295 29.8352L55.8926 30.8L56.1557 31.7648C56.4692 31.6793 56.8085 31.5157 57.0685 31.2084C57.3388 30.889 57.4426 30.5098 57.4426 30.15L56.4426 30.15ZM55.8926 30.8L55.5796 29.8502C52.4859 30.8698 49.9547 32.5362 48.0234 34.861L48.7926 35.5L49.5618 36.139C51.2304 34.1305 53.4326 32.6636 56.2056 31.7498L55.8926 30.8ZM48.7926 35.5L48.0283 34.8551C46.1063 37.1331 44.7161 40.0829 43.8224 43.6575L44.7926 43.9L45.7627 44.1425C46.6024 40.7838 47.8789 38.1336 49.5569 36.1449L48.7926 35.5ZM44.7926 43.9L43.8311 43.6253C43.7383 43.9499 43.633 44.6046 44.1355 45.1071L44.8426 44.4L45.5497 43.6929C45.6918 43.835 45.7399 43.9984 45.7501 44.1005C45.7587 44.1859 45.7412 44.2198 45.7541 44.1747L44.7926 43.9ZM44.8426 44.4L44.3954 45.2944C45.0139 45.6037 45.5918 45.3357 45.8973 45.1321L45.3426 44.3L44.7879 43.468C44.7549 43.4899 44.7854 43.4616 44.8715 43.4444C44.9741 43.4239 45.1302 43.4258 45.2898 43.5056L44.8426 44.4ZM45.3426 44.3L45.9213 45.1155C46.7679 44.5147 47.7772 44.2 48.9926 44.2L48.9926 43.2L48.9926 42.2C47.408 42.2 45.984 42.6186 44.7638 43.4845L45.3426 44.3ZM48.9926 43.2L48.9926 44.2C50.3266 44.2 51.505 44.6191 52.5628 45.4768L53.1926 44.7L53.8224 43.9232C52.4135 42.7809 50.7919 42.2 48.9926 42.2L48.9926 43.2ZM53.1926 44.7L52.5757 45.4871C53.6512 46.33 54.5222 47.5127 55.1679 49.0808L56.0926 48.7L57.0173 48.3193C56.2629 46.4874 55.2007 45.0033 53.8095 43.9129L53.1926 44.7ZM56.0926 48.7L55.1744 49.0961C55.8446 50.6498 56.1926 52.461 56.1926 54.55L57.1926 54.55L58.1926 54.55C58.1926 52.239 57.8072 50.1502 57.0108 48.3039L56.0926 48.7ZM57.1926 54.55L56.1926 54.55C56.1926 56.5963 55.8311 58.4637 55.12 60.1642L56.0426 60.55L56.9652 60.9358C57.7874 58.9696 58.1926 56.8371 58.1926 54.55L57.1926 54.55ZM56.0426 60.55L55.1226 60.1581C54.4087 61.8342 53.4648 63.128 52.3083 64.0769L52.9426 64.85L53.5769 65.6231C55.0204 64.4387 56.1431 62.8658 56.9626 60.9419L56.0426 60.55ZM52.9426 64.85L52.2984 64.0851C51.2009 65.0093 50.0094 65.45 48.6926 65.45L48.6926 66.45L48.6926 67.45C50.5091 67.45 52.1509 66.824 53.5867 65.6149L52.9426 64.85ZM48.5926 65.1L48.5926 66.1C49.6132 66.1 50.5495 65.8472 51.3598 65.3071C52.165 64.7702 52.7843 63.9907 53.2441 63.0327L52.3426 62.6L51.4411 62.1673C51.1009 62.8759 50.6951 63.3465 50.2504 63.643C49.8106 63.9361 49.272 64.1 48.5926 64.1L48.5926 65.1ZM52.3426 62.6L53.2405 63.0402C54.1763 61.131 54.5926 58.3442 54.5926 54.8L53.5926 54.8L52.5926 54.8C52.5926 58.2558 52.1755 60.669 51.4447 62.1598L52.3426 62.6ZM53.5926 54.8L54.5926 54.8C54.5926 51.2 54.2116 48.4028 53.3511 46.5321L52.4426 46.95L51.5341 47.3679C52.2069 48.8306 52.5926 51.2667 52.5926 54.8L53.5926 54.8ZM52.4426 46.95L53.3511 46.5321C52.9105 45.5743 52.3101 44.791 51.5202 44.25C50.7243 43.7049 49.8004 43.45 48.7926 43.45L48.7926 44.45L48.7926 45.45C49.4514 45.45 49.9692 45.6118 50.39 45.9C50.8167 46.1923 51.208 46.659 51.5341 47.3679L52.4426 46.95ZM48.7926 44.45L48.7926 43.45C47.7333 43.45 46.762 43.719 45.9173 44.2848C45.0791 44.8462 44.4228 45.6612 43.9223 46.667C42.9353 48.6503 42.4926 51.4993 42.4926 55.1L43.4926 55.1L44.4926 55.1C44.4926 51.6007 44.9332 49.1247 45.7128 47.558C46.0957 46.7888 46.5435 46.2725 47.0303 45.9465C47.5107 45.6247 48.0852 45.45 48.7926 45.45L48.7926 44.45ZM43.4926 55.1L42.4926 55.1C42.4926 58.4859 42.9189 61.1762 43.8767 63.0543C44.363 64.0078 45.0009 64.7805 45.8142 65.3121C46.6329 65.8471 47.5716 66.1 48.5926 66.1L48.5926 65.1L48.5926 64.1C47.9136 64.1 47.3648 63.9362 46.9084 63.6379C46.4468 63.3362 46.0221 62.8589 45.6584 62.1457C44.9162 60.6905 44.4926 58.3807 44.4926 55.1L43.4926 55.1Z" fill="black" mask="url(#path-2-outside-1_1704_1334)"/>
<defs>
<linearGradient id="paint0_linear_1704_1334" x1="37.3431" y1="95" x2="117.394" y2="52.136" gradientUnits="userSpaceOnUse">
<stop stop-color="#FFE8F4"/>
<stop offset="1" stop-color="#FF88CA"/>
</linearGradient>
</defs>
</svg>
