<svg width="100" height="100" viewBox="0 0 100 100" fill="none" xmlns="http://www.w3.org/2000/svg">
<path d="M58.6768 15.2852L59.1416 15.8828L59.8428 15.5977L72.9355 10.2734L74.8721 24.2744L74.9756 25.0244L75.7256 25.1279L89.7256 27.0635L84.4023 40.1572L84.1172 40.8584L84.7148 41.3232L95.8711 50L84.7148 58.6768L84.1172 59.1416L84.4023 59.8428L89.7256 72.9355L75.7256 74.8721L74.9756 74.9756L74.8721 75.7256L72.9355 89.7256L59.8428 84.4023L59.1416 84.1172L58.6768 84.7148L50 95.8711L41.3232 84.7148L40.8584 84.1172L40.1572 84.4023L27.0635 89.7256L25.1279 75.7256L25.0244 74.9756L24.2744 74.8721L10.2734 72.9355L15.5977 59.8428L15.8828 59.1416L15.2852 58.6768L4.12793 50L15.2852 41.3232L15.8828 40.8584L15.5977 40.1572L10.2734 27.0635L24.2744 25.1279L25.0244 25.0244L25.1279 24.2744L27.0635 10.2734L40.1572 15.5977L40.8584 15.8828L41.3232 15.2852L50 4.12793L58.6768 15.2852Z" fill="url(#paint0_linear_1704_1352)" stroke="black" stroke-width="2"/>
<mask id="path-2-outside-1_1704_1352" maskUnits="userSpaceOnUse" x="32" y="30" width="37" height="40" fill="black">
<rect fill="white" x="32" y="30" width="37" height="40"/>
<path d="M34.5508 68C34.0508 68 33.8008 67.8167 33.8008 67.45C33.8008 67.0833 34.0174 66.8833 34.4508 66.85L36.4008 66.65C37.1008 66.5833 37.5674 66.4167 37.8008 66.15C38.0674 65.8833 38.2008 65.4 38.2008 64.7L38.2008 35C38.2008 34.4333 38.0341 34.0667 37.7008 33.9C37.4008 33.7 37.0008 33.6333 36.5008 33.7L34.7008 33.9C34.1008 33.9333 33.8008 33.7167 33.8008 33.25C33.8008 32.8833 34.0674 32.65 34.6008 32.55C36.3674 32.25 37.6674 31.9667 38.5008 31.7C39.3341 31.4 39.9508 31.25 40.3508 31.25C41.0508 31.25 41.4008 31.6167 41.4008 32.35L41.4008 64.7C41.4008 65.4 41.5174 65.8833 41.7508 66.15C42.0174 66.4167 42.5008 66.5833 43.2008 66.65L44.8508 66.85C45.2841 66.8833 45.5008 67.0833 45.5008 67.45C45.5008 67.8167 45.2508 68 44.7508 68L34.5508 68ZM57.502 68.45C55.5686 68.45 53.8686 67.6333 52.402 66C50.9353 64.3667 49.802 62.15 49.002 59.35C48.202 56.55 47.802 53.4167 47.802 49.95C47.802 46.4833 48.202 43.3667 49.002 40.6C49.802 37.8 50.9353 35.5833 52.402 33.95C53.8686 32.3167 55.5686 31.5 57.502 31.5C59.4353 31.5 61.1186 32.3167 62.552 33.95C64.0186 35.5833 65.152 37.8 65.952 40.6C66.7853 43.3667 67.202 46.4833 67.202 49.95C67.202 53.4167 66.7853 56.55 65.952 59.35C65.152 62.15 64.0186 64.3667 62.552 66C61.1186 67.6333 59.4353 68.45 57.502 68.45ZM57.502 67.1C59.602 67.1 61.1353 65.6833 62.102 62.85C63.102 60.0167 63.602 55.7167 63.602 49.95C63.602 44.1833 63.102 39.9 62.102 37.1C61.1353 34.2667 59.602 32.85 57.502 32.85C55.402 32.85 53.852 34.2667 52.852 37.1C51.8853 39.9 51.402 44.1833 51.402 49.95C51.402 55.7167 51.8853 60.0167 52.852 62.85C53.852 65.6833 55.402 67.1 57.502 67.1Z"/>
</mask>
<path d="M34.5508 68C34.0508 68 33.8008 67.8167 33.8008 67.45C33.8008 67.0833 34.0174 66.8833 34.4508 66.85L36.4008 66.65C37.1008 66.5833 37.5674 66.4167 37.8008 66.15C38.0674 65.8833 38.2008 65.4 38.2008 64.7L38.2008 35C38.2008 34.4333 38.0341 34.0667 37.7008 33.9C37.4008 33.7 37.0008 33.6333 36.5008 33.7L34.7008 33.9C34.1008 33.9333 33.8008 33.7167 33.8008 33.25C33.8008 32.8833 34.0674 32.65 34.6008 32.55C36.3674 32.25 37.6674 31.9667 38.5008 31.7C39.3341 31.4 39.9508 31.25 40.3508 31.25C41.0508 31.25 41.4008 31.6167 41.4008 32.35L41.4008 64.7C41.4008 65.4 41.5174 65.8833 41.7508 66.15C42.0174 66.4167 42.5008 66.5833 43.2008 66.65L44.8508 66.85C45.2841 66.8833 45.5008 67.0833 45.5008 67.45C45.5008 67.8167 45.2508 68 44.7508 68L34.5508 68ZM57.502 68.45C55.5686 68.45 53.8686 67.6333 52.402 66C50.9353 64.3667 49.802 62.15 49.002 59.35C48.202 56.55 47.802 53.4167 47.802 49.95C47.802 46.4833 48.202 43.3667 49.002 40.6C49.802 37.8 50.9353 35.5833 52.402 33.95C53.8686 32.3167 55.5686 31.5 57.502 31.5C59.4353 31.5 61.1186 32.3167 62.552 33.95C64.0186 35.5833 65.152 37.8 65.952 40.6C66.7853 43.3667 67.202 46.4833 67.202 49.95C67.202 53.4167 66.7853 56.55 65.952 59.35C65.152 62.15 64.0186 64.3667 62.552 66C61.1186 67.6333 59.4353 68.45 57.502 68.45ZM57.502 67.1C59.602 67.1 61.1353 65.6833 62.102 62.85C63.102 60.0167 63.602 55.7167 63.602 49.95C63.602 44.1833 63.102 39.9 62.102 37.1C61.1353 34.2667 59.602 32.85 57.502 32.85C55.402 32.85 53.852 34.2667 52.852 37.1C51.8853 39.9 51.402 44.1833 51.402 49.95C51.402 55.7167 51.8853 60.0167 52.852 62.85C53.852 65.6833 55.402 67.1 57.502 67.1Z" fill="black"/>
<path d="M34.4508 66.85L34.5275 67.8471L34.5402 67.8461L34.5528 67.8448L34.4508 66.85ZM36.4008 66.65L36.306 65.6545L36.2988 65.6552L36.4008 66.65ZM37.8008 66.15L37.0937 65.4429L37.0701 65.4664L37.0482 65.4915L37.8008 66.15ZM37.7008 33.9L37.1461 34.732L37.1979 34.7666L37.2536 34.7944L37.7008 33.9ZM36.5008 33.7L36.6112 34.6939L36.6221 34.6927L36.6329 34.6912L36.5008 33.7ZM34.7008 33.9L34.7563 34.8985L34.7838 34.8969L34.8112 34.8939L34.7008 33.9ZM34.6008 32.55L34.4334 31.5641L34.4249 31.5655L34.4165 31.5671L34.6008 32.55ZM38.5008 31.7L38.8056 32.6524L38.8226 32.647L38.8395 32.6409L38.5008 31.7ZM41.7508 66.15L40.9982 66.8085L41.0201 66.8336L41.0437 66.8571L41.7508 66.15ZM43.2008 66.65L43.3211 65.6573L43.3084 65.6557L43.2956 65.6545L43.2008 66.65ZM44.8508 66.85L44.7305 67.8427L44.7522 67.8454L44.7741 67.8471L44.8508 66.85ZM34.5508 68L34.5508 67C34.4837 67 34.4572 66.9935 34.4601 66.9942C34.4638 66.9951 34.5136 67.0077 34.5796 67.0561C34.6516 67.1088 34.7164 67.1853 34.758 67.2768C34.7971 67.3628 34.8008 67.4288 34.8008 67.45L33.8008 67.45L32.8008 67.45C32.8008 67.8859 32.9661 68.353 33.3969 68.6689C33.7699 68.9424 34.2081 69 34.5508 69L34.5508 68ZM33.8008 67.45L34.8008 67.45C34.8008 67.4556 34.8 67.4991 34.7755 67.5634C34.7492 67.6322 34.7039 67.7022 34.6416 67.7598C34.5223 67.8699 34.4327 67.8543 34.5275 67.8471L34.4508 66.85L34.3741 65.8529C34.0355 65.879 33.6209 65.9801 33.285 66.2902C32.9236 66.6238 32.8008 67.0604 32.8008 67.45L33.8008 67.45ZM34.4508 66.85L34.5528 67.8448L36.5028 67.6448L36.4008 66.65L36.2988 65.6552L34.3488 65.8552L34.4508 66.85ZM36.4008 66.65L36.4956 67.6455C37.2335 67.5752 38.0491 67.3848 38.5534 66.8085L37.8008 66.15L37.0482 65.4915C37.0798 65.4554 37.0728 65.4856 36.9394 65.5333C36.809 65.5798 36.6049 65.626 36.306 65.6545L36.4008 66.65ZM37.8008 66.15L38.5079 66.8571C39.0691 66.2959 39.2008 65.4608 39.2008 64.7L38.2008 64.7L37.2008 64.7C37.2008 64.9927 37.1722 65.1932 37.1368 65.3216C37.1015 65.4495 37.0708 65.4657 37.0937 65.4429L37.8008 66.15ZM38.2008 64.7L39.2008 64.7L39.2008 35L38.2008 35L37.2008 35L37.2008 64.7L38.2008 64.7ZM38.2008 35L39.2008 35C39.2008 34.2734 38.9794 33.4213 38.148 33.0056L37.7008 33.9L37.2536 34.7944C37.2332 34.7842 37.21 34.7678 37.19 34.7464C37.1707 34.7258 37.1643 34.7114 37.1654 34.7138C37.1708 34.7256 37.2008 34.8053 37.2008 35L38.2008 35ZM37.7008 33.9L38.2555 33.0679C37.6855 32.6879 37.0136 32.6228 36.3686 32.7088L36.5008 33.7L36.6329 34.6912C36.9879 34.6439 37.1161 34.7121 37.1461 34.732L37.7008 33.9ZM36.5008 33.7L36.3903 32.7061L34.5903 32.9061L34.7008 33.9L34.8112 34.8939L36.6112 34.6939L36.5008 33.7ZM34.7008 33.9L34.6453 32.9015C34.5561 32.9065 34.5141 32.8998 34.5066 32.8982C34.5007 32.897 34.5469 32.9053 34.6113 32.9518C34.682 33.0029 34.7391 33.0748 34.7727 33.1511C34.8029 33.22 34.8008 33.2619 34.8008 33.25L33.8008 33.25L32.8008 33.25C32.8008 33.7111 32.9626 34.2281 33.4403 34.5732C33.8609 34.877 34.36 34.9205 34.7563 34.8985L34.7008 33.9ZM33.8008 33.25L34.8008 33.25C34.8008 33.2818 34.7944 33.3391 34.7646 33.4061C34.7344 33.4741 34.6931 33.523 34.6593 33.5526C34.6287 33.5794 34.6139 33.5821 34.6354 33.5731C34.6571 33.564 34.704 33.5481 34.7851 33.5329L34.6008 32.55L34.4165 31.5671C34.06 31.634 33.6636 31.7663 33.3423 32.0474C32.9835 32.3614 32.8008 32.7898 32.8008 33.25L33.8008 33.25ZM34.6008 32.55L34.7682 33.5359C36.5438 33.2344 37.9016 32.9417 38.8056 32.6524L38.5008 31.7L38.196 30.7476C37.4333 30.9916 36.1911 31.2656 34.4334 31.5641L34.6008 32.55ZM38.5008 31.7L38.8395 32.6409C39.6638 32.3442 40.1385 32.25 40.3508 32.25L40.3508 31.25L40.3508 30.25C39.7631 30.25 39.0045 30.4558 38.1621 30.7591L38.5008 31.7ZM40.3508 31.25L40.3508 32.25C40.4413 32.25 40.4786 32.2622 40.4805 32.2628C40.4805 32.2629 40.472 32.2598 40.4585 32.2513C40.4446 32.2426 40.4293 32.2305 40.4149 32.2155C40.3838 32.1828 40.3782 32.1592 40.3822 32.172C40.3877 32.189 40.4008 32.2431 40.4008 32.35L41.4008 32.35L42.4008 32.35C42.4008 31.8405 42.28 31.2728 41.8616 30.8345C41.435 30.3876 40.8671 30.25 40.3508 30.25L40.3508 31.25ZM41.4008 32.35L40.4008 32.35L40.4008 64.7H41.4008L42.4008 64.7L42.4008 32.35L41.4008 32.35ZM41.4008 64.7H40.4008C40.4008 65.4396 40.5094 66.2499 40.9982 66.8085L41.7508 66.15L42.5034 65.4915C42.5271 65.5187 42.4952 65.4972 42.4604 65.3529C42.4264 65.2121 42.4008 65.0003 42.4008 64.7L41.4008 64.7ZM41.7508 66.15L41.0437 66.8571C41.5666 67.38 42.3497 67.5735 43.106 67.6455L43.2008 66.65L43.2956 65.6545C42.9972 65.6261 42.7841 65.5796 42.6393 65.5296C42.4927 65.4791 42.4528 65.4378 42.4579 65.4429L41.7508 66.15ZM43.2008 66.65L43.0805 67.6427L44.7305 67.8427L44.8508 66.85L44.9711 65.8573L43.3211 65.6573L43.2008 66.65ZM44.8508 66.85L44.7741 67.8471C44.8688 67.8543 44.7793 67.8699 44.66 67.7598C44.5976 67.7022 44.5524 67.6322 44.5261 67.5634C44.5015 67.4991 44.5008 67.4556 44.5008 67.45H45.5008L46.5008 67.45C46.5008 67.0604 46.378 66.6238 46.0166 66.2902C45.6806 65.9801 45.2661 65.879 44.9275 65.8529L44.8508 66.85ZM45.5008 67.45H44.5008C44.5008 67.4288 44.5045 67.3628 44.5435 67.2768C44.5851 67.1853 44.65 67.1088 44.7219 67.0561C44.7879 67.0077 44.8378 66.9951 44.8415 66.9942C44.8443 66.9935 44.8179 67 44.7508 67L44.7508 68L44.7508 69C45.0935 69 45.5317 68.9424 45.9046 68.6689C46.3355 68.353 46.5008 67.8859 46.5008 67.45L45.5008 67.45ZM44.7508 68L44.7508 67L34.5508 67L34.5508 68L34.5508 69L44.7508 69L44.7508 68ZM52.402 66L53.146 65.3319L52.402 66ZM49.002 59.35L49.9635 59.0753L49.002 59.35ZM49.002 40.6L49.9626 40.8778L49.9635 40.8747L49.002 40.6ZM52.402 33.95L51.6579 33.2819H51.6579L52.402 33.95ZM62.552 33.95L61.8003 34.6096L61.8079 34.6181L62.552 33.95ZM65.952 40.6L64.9904 40.8747L64.9924 40.8816L64.9944 40.8884L65.952 40.6ZM65.952 59.35L64.9934 59.0647L64.9904 59.0753L65.952 59.35ZM62.552 66L61.8079 65.3318L61.8003 65.3404L62.552 66ZM62.102 62.85L61.1589 62.5172L61.1555 62.5271L62.102 62.85ZM62.102 37.1L61.1555 37.4229L61.1578 37.4296L61.1602 37.4363L62.102 37.1ZM52.852 37.1L51.9089 36.7672L51.9067 36.7737L52.852 37.1ZM52.852 62.85L51.9055 63.1729L51.909 63.1828L52.852 62.85ZM57.502 68.45L57.502 67.45C55.8925 67.45 54.4515 66.7857 53.146 65.3319L52.402 66L51.6579 66.6681C53.2858 68.481 55.2448 69.45 57.502 69.45L57.502 68.45ZM52.402 66L53.146 65.3319C51.8083 63.8421 50.7348 61.7749 49.9635 59.0753L49.002 59.35L48.0404 59.6247C48.8691 62.5251 50.0623 64.8912 51.6579 66.6681L52.402 66ZM49.002 59.35L49.9635 59.0753C49.1933 56.3797 48.802 53.3409 48.802 49.95L47.802 49.95L46.802 49.95C46.802 53.4925 47.2106 56.7203 48.0404 59.6247L49.002 59.35ZM47.802 49.95L48.802 49.95C48.802 46.5589 49.1934 43.538 49.9626 40.8778L49.002 40.6L48.0413 40.3222C47.2105 43.1953 46.802 46.4078 46.802 49.95L47.802 49.95ZM49.002 40.6L49.9635 40.8747C50.7348 38.1751 51.8083 36.1079 53.146 34.6181L52.402 33.95L51.6579 33.2819C50.0623 35.0588 48.8691 37.4249 48.0404 40.3253L49.002 40.6ZM52.402 33.95L53.146 34.6181C54.4515 33.1643 55.8925 32.5 57.502 32.5L57.502 31.5L57.502 30.5C55.2448 30.5 53.2858 31.469 51.6579 33.2819L52.402 33.95ZM57.502 31.5L57.502 32.5C59.1099 32.5 60.5306 33.1627 61.8003 34.6096L62.552 33.95L63.3036 33.2904C61.7066 31.4706 59.7607 30.5 57.502 30.5L57.502 31.5ZM62.552 33.95L61.8079 34.6181C63.1457 36.1079 64.2191 38.1751 64.9904 40.8747L65.952 40.6L66.9135 40.3253C66.0848 37.4249 64.8916 35.0588 63.296 33.2819L62.552 33.95ZM65.952 40.6L64.9944 40.8884C65.7946 43.545 66.202 46.5622 66.202 49.95L67.202 49.95L68.202 49.95C68.202 46.4045 67.7759 43.1883 66.9095 40.3116L65.952 40.6ZM67.202 49.95L66.202 49.95C66.202 53.3375 65.7947 56.3727 64.9935 59.0647L65.952 59.35L66.9104 59.6353C67.7759 56.7273 68.202 53.4958 68.202 49.95L67.202 49.95ZM65.952 59.35L64.9904 59.0753C64.2191 61.7749 63.1457 63.8421 61.8079 65.3319L62.552 66L63.296 66.6681C64.8916 64.8912 66.0848 62.5251 66.9135 59.6247L65.952 59.35ZM62.552 66L61.8003 65.3404C60.5306 66.7873 59.1099 67.45 57.502 67.45L57.502 68.45L57.502 69.45C59.7607 69.45 61.7066 68.4794 63.3036 66.6596L62.552 66ZM57.502 67.1L57.502 68.1C58.8018 68.1 59.9529 67.6522 60.9056 66.772C61.8358 65.9125 62.5332 64.6829 63.0484 63.1729L62.102 62.85L61.1555 62.5271C60.704 63.8504 60.1514 64.7458 59.5483 65.303C58.9677 65.8395 58.3021 66.1 57.502 66.1L57.502 67.1ZM62.102 62.85L63.0449 63.1828C64.1031 60.1847 64.602 55.7457 64.602 49.95L63.602 49.95L62.602 49.95C62.602 55.6876 62.1008 59.8486 61.159 62.5172L62.102 62.85ZM63.602 49.95L64.602 49.95C64.602 44.1555 64.1034 39.7308 63.0437 36.7637L62.102 37.1L61.1602 37.4363C62.1005 40.0692 62.602 44.2112 62.602 49.95L63.602 49.95ZM62.102 37.1L63.0484 36.7771C62.5332 35.2671 61.8358 34.0375 60.9056 33.178C59.9529 32.2978 58.8018 31.85 57.502 31.85L57.502 32.85L57.502 33.85C58.3021 33.85 58.9677 34.1105 59.5483 34.647C60.1514 35.2042 60.704 36.0996 61.1555 37.4229L62.102 37.1ZM57.502 32.85L57.502 31.85C56.2023 31.85 55.0491 32.2976 54.0898 33.1744C53.1524 34.0312 52.4416 35.258 51.909 36.7672L52.852 37.1L53.7949 37.4328C54.2623 36.1087 54.8266 35.2105 55.4391 34.6506C56.0298 34.1108 56.7016 33.85 57.502 33.85L57.502 32.85ZM52.852 37.1L51.9067 36.7737C50.8839 39.7364 50.402 44.1567 50.402 49.95L51.402 49.95L52.402 49.95C52.402 44.2099 52.8867 40.0636 53.7972 37.4263L52.852 37.1ZM51.402 49.95L50.402 49.95C50.402 55.7444 50.8841 60.1791 51.9055 63.1729L52.852 62.85L53.7984 62.5271C52.8865 59.8542 52.402 55.6889 52.402 49.95L51.402 49.95ZM52.852 62.85L51.909 63.1828C52.4416 64.692 53.1524 65.9188 54.0898 66.7756C55.0491 67.6524 56.2023 68.1 57.502 68.1L57.502 67.1L57.502 66.1C56.7016 66.1 56.0298 65.8392 55.4391 65.2994C54.8266 64.7395 54.2623 63.8413 53.7949 62.5172L52.852 62.85Z" fill="black" mask="url(#path-2-outside-1_1704_1352)"/>
<defs>
<linearGradient id="paint0_linear_1704_1352" x1="19.9741" y1="97.5" x2="99.7153" y2="57.4405" gradientUnits="userSpaceOnUse">
<stop offset="0.0748646" stop-color="#FFD600"/>
<stop offset="0.808728" stop-color="#FFF59A"/>
</linearGradient>
</defs>
</svg>
