<svg width="100" height="100" viewBox="0 0 100 100" fill="none" xmlns="http://www.w3.org/2000/svg">
<rect x="11" y="11" width="78" height="78" rx="4" fill="url(#paint0_linear_1704_1257)"/>
<rect x="11" y="11" width="78" height="78" rx="4" stroke="black" stroke-width="2"/>
<mask id="path-2-outside-1_1704_1257" maskUnits="userSpaceOnUse" x="39" y="30" width="21" height="39" fill="black">
<rect fill="white" x="39" y="30" width="21" height="39"/>
<path d="M41.7926 68C41.1926 68 40.8926 67.7833 40.8926 67.35C40.8926 67.1167 41.0092 66.8167 41.2426 66.45L47.2426 57.3C49.7426 53.5 51.5426 50.2333 52.6426 47.5C53.7759 44.7333 54.3426 42.2 54.3426 39.9C54.3426 37.8333 53.9092 36.25 53.0426 35.15C52.2092 34.05 50.9926 33.5 49.3926 33.5C47.7926 33.5 46.3426 34.0667 45.0426 35.2C43.7426 36.3 42.9092 38.0667 42.5426 40.5C42.4426 41.0333 42.1926 41.3 41.7926 41.3C41.2926 41.3 41.0759 40.9667 41.1426 40.3C41.3759 38.1 41.9426 36.3667 42.8426 35.1C43.7759 33.8 44.8926 32.8833 46.1926 32.35C47.4926 31.7833 48.8092 31.5 50.1426 31.5C52.4426 31.5 54.3092 32.2 55.7426 33.6C57.2092 34.9667 57.9426 36.8833 57.9426 39.35C57.9426 41.0833 57.5259 42.8667 56.6926 44.7C55.8926 46.5 54.7759 48.4833 53.3426 50.65C51.9426 52.7833 50.3259 55.2333 48.4926 58L44.5926 63.9C44.3926 64.2 44.3759 64.4667 44.5426 64.7C44.7426 64.9 45.0092 65 45.3426 65L50.6926 65C51.9592 65 53.0092 64.8667 53.8426 64.6C54.6759 64.3 55.3426 63.7667 55.8426 63C56.3426 62.2 56.7259 61.0667 56.9926 59.6L57.4426 57.25C57.5426 56.8167 57.7926 56.6 58.1926 56.6C58.6592 56.6 58.8592 56.8833 58.7926 57.45L58.1926 66.85C58.1259 67.6167 57.7092 68 56.9426 68L41.7926 68Z"/>
</mask>
<path d="M41.7926 68C41.1926 68 40.8926 67.7833 40.8926 67.35C40.8926 67.1167 41.0092 66.8167 41.2426 66.45L47.2426 57.3C49.7426 53.5 51.5426 50.2333 52.6426 47.5C53.7759 44.7333 54.3426 42.2 54.3426 39.9C54.3426 37.8333 53.9092 36.25 53.0426 35.15C52.2092 34.05 50.9926 33.5 49.3926 33.5C47.7926 33.5 46.3426 34.0667 45.0426 35.2C43.7426 36.3 42.9092 38.0667 42.5426 40.5C42.4426 41.0333 42.1926 41.3 41.7926 41.3C41.2926 41.3 41.0759 40.9667 41.1426 40.3C41.3759 38.1 41.9426 36.3667 42.8426 35.1C43.7759 33.8 44.8926 32.8833 46.1926 32.35C47.4926 31.7833 48.8092 31.5 50.1426 31.5C52.4426 31.5 54.3092 32.2 55.7426 33.6C57.2092 34.9667 57.9426 36.8833 57.9426 39.35C57.9426 41.0833 57.5259 42.8667 56.6926 44.7C55.8926 46.5 54.7759 48.4833 53.3426 50.65C51.9426 52.7833 50.3259 55.2333 48.4926 58L44.5926 63.9C44.3926 64.2 44.3759 64.4667 44.5426 64.7C44.7426 64.9 45.0092 65 45.3426 65L50.6926 65C51.9592 65 53.0092 64.8667 53.8426 64.6C54.6759 64.3 55.3426 63.7667 55.8426 63C56.3426 62.2 56.7259 61.0667 56.9926 59.6L57.4426 57.25C57.5426 56.8167 57.7926 56.6 58.1926 56.6C58.6592 56.6 58.8592 56.8833 58.7926 57.45L58.1926 66.85C58.1259 67.6167 57.7092 68 56.9426 68L41.7926 68Z" fill="black"/>
<path d="M41.2426 66.45L40.4063 65.9016L40.3989 65.9131L41.2426 66.45ZM47.2426 57.3L46.4072 56.7504L46.4063 56.7516L47.2426 57.3ZM52.6426 47.5L51.7172 47.1209L51.7149 47.1267L52.6426 47.5ZM53.0426 35.15L52.2455 35.7539L52.2512 35.7614L52.2571 35.7689L53.0426 35.15ZM45.0426 35.2L45.6885 35.9634L45.6942 35.9586L45.6997 35.9538L45.0426 35.2ZM42.5426 40.5L43.5255 40.6843L43.5287 40.6667L43.5314 40.649L42.5426 40.5ZM41.1426 40.3L40.1481 40.1945L40.1475 40.2005L41.1426 40.3ZM42.8426 35.1L42.0302 34.5168L42.0274 34.5208L42.8426 35.1ZM46.1926 32.35L46.5721 33.2752L46.5822 33.271L46.5922 33.2667L46.1926 32.35ZM55.7426 33.6L55.0438 34.3154L55.0522 34.3236L55.0609 34.3316L55.7426 33.6ZM56.6926 44.7L55.7822 44.2862L55.7788 44.2939L56.6926 44.7ZM53.3426 50.65L52.5086 50.0983L52.5065 50.1013L53.3426 50.65ZM48.4926 58L47.659 57.4476L47.6584 57.4486L48.4926 58ZM44.5926 63.9L45.4246 64.4547L45.4268 64.4514L44.5926 63.9ZM44.5426 64.7L43.7288 65.2812L43.7769 65.3486L43.8355 65.4071L44.5426 64.7ZM53.8426 64.6L54.1474 65.5524L54.1644 65.547L54.1813 65.5409L53.8426 64.6ZM55.8426 63L56.6802 63.5463L56.6855 63.5382L56.6906 63.53L55.8426 63ZM56.9926 59.6L56.0104 59.4119L56.0087 59.4211L56.9926 59.6ZM57.4426 57.25L56.4682 57.0251L56.464 57.0435L56.4604 57.0619L57.4426 57.25ZM58.7926 57.45L57.7994 57.3332L57.7963 57.3597L57.7946 57.3863L58.7926 57.45ZM58.1926 66.85L59.1888 66.9366L59.1898 66.9252L59.1905 66.9137L58.1926 66.85ZM41.7926 68L41.7926 67C41.6995 67 41.65 66.9913 41.6329 66.9872C41.6163 66.9832 41.6497 66.9883 41.7031 67.0268C41.7625 67.0698 41.8197 67.1351 41.8568 67.2153C41.8913 67.2901 41.8926 67.3436 41.8926 67.35L40.8926 67.35L39.8926 67.35C39.8926 67.8251 40.0749 68.318 40.5321 68.6482C40.929 68.9349 41.4021 69 41.7926 69L41.7926 68ZM40.8926 67.35L41.8926 67.35C41.8926 67.3947 41.8828 67.3877 41.9121 67.3124C41.9402 67.2402 41.9933 67.1329 42.0862 66.9869L41.2426 66.45L40.3989 65.9131C40.1385 66.3224 39.8926 66.8233 39.8926 67.35L40.8926 67.35ZM41.2426 66.45L42.0788 66.9984L48.0788 57.8484L47.2426 57.3L46.4063 56.7516L40.4063 65.9016L41.2426 66.45ZM47.2426 57.3L48.078 57.8496C50.5971 54.0205 52.4359 50.6921 53.5703 47.8733L52.6426 47.5L51.7149 47.1267C50.6493 49.7746 48.888 52.9795 46.4072 56.7504L47.2426 57.3ZM52.6426 47.5L53.5679 47.8791C54.7365 45.0265 55.3426 42.3626 55.3426 39.9L54.3426 39.9L53.3426 39.9C53.3426 42.0374 52.8153 44.4402 51.7172 47.1209L52.6426 47.5ZM54.3426 39.9L55.3426 39.9C55.3426 37.7116 54.8862 35.8741 53.8281 34.5311L53.0426 35.15L52.2571 35.7689C52.9323 36.6259 53.3426 37.9551 53.3426 39.9L54.3426 39.9ZM53.0426 35.15L53.8397 34.5461C52.7855 33.1547 51.249 32.5 49.3926 32.5L49.3926 33.5L49.3926 34.5C50.7361 34.5 51.6329 34.9453 52.2455 35.7539L53.0426 35.15ZM49.3926 33.5L49.3926 32.5C47.5314 32.5 45.8522 33.1675 44.3854 34.4462L45.0426 35.2L45.6997 35.9538C46.833 34.9658 48.0538 34.5 49.3926 34.5L49.3926 33.5ZM45.0426 35.2L44.3966 34.4366C42.8442 35.7502 41.9407 37.783 41.5537 40.351L42.5426 40.5L43.5314 40.649C43.8778 38.3504 44.6409 36.8498 45.6885 35.9634L45.0426 35.2ZM42.5426 40.5L41.5597 40.3157C41.5455 40.3917 41.5304 40.433 41.5233 40.4492C41.5166 40.4646 41.5217 40.4468 41.5505 40.4161C41.582 40.3825 41.6281 40.3481 41.6849 40.3248C41.7396 40.3024 41.7803 40.3 41.7926 40.3L41.7926 41.3L41.7926 42.3C42.24 42.3 42.6766 42.1391 43.0096 41.7839C43.3136 41.4596 43.4563 41.0531 43.5255 40.6843L42.5426 40.5ZM41.7926 41.3L41.7926 40.3C41.7759 40.3 41.8197 40.297 41.8924 40.3308C41.974 40.3687 42.0461 40.4321 42.0935 40.505C42.1355 40.5695 42.1377 40.6098 42.1346 40.5892C42.1314 40.5678 42.1267 40.5086 42.1376 40.3995L41.1426 40.3L40.1475 40.2005C40.1057 40.6186 40.1243 41.1452 40.4166 41.595C40.7576 42.1196 41.3032 42.3 41.7926 42.3L41.7926 41.3ZM41.1426 40.3L42.137 40.4055C42.3595 38.308 42.8905 36.7591 43.6578 35.6792L42.8426 35.1L42.0274 34.5208C40.9947 35.9743 40.3924 37.892 40.1482 40.1945L41.1426 40.3ZM42.8426 35.1L43.6549 35.6832C44.4945 34.5138 45.4687 33.7278 46.5721 33.2752L46.1926 32.35L45.813 31.4248C44.3164 32.0388 43.0574 33.0862 42.0303 34.5168L42.8426 35.1ZM46.1926 32.35L46.5922 33.2667C47.7743 32.7514 48.9554 32.5 50.1426 32.5L50.1426 31.5L50.1426 30.5C48.6631 30.5 47.2109 30.8152 45.793 31.4333L46.1926 32.35ZM50.1426 31.5L50.1426 32.5C52.2232 32.5 53.8252 33.1251 55.0438 34.3154L55.7426 33.6L56.4413 32.8846C54.7933 31.2749 52.662 30.5 50.1426 30.5L50.1426 31.5ZM55.7426 33.6L55.0609 34.3316C56.2792 35.4669 56.9426 37.0921 56.9426 39.35L57.9426 39.35L58.9426 39.35C58.9426 36.6745 58.1393 34.4664 56.4243 32.8684L55.7426 33.6ZM57.9426 39.35L56.9426 39.35C56.9426 40.9193 56.566 42.5619 55.7822 44.2862L56.6926 44.7L57.6029 45.1138C58.4859 43.1714 58.9426 41.2474 58.9426 39.35L57.9426 39.35ZM56.6926 44.7L55.7788 44.2939C55.0071 46.0302 53.9203 47.9642 52.5086 50.0983L53.3426 50.65L54.1766 51.2017C55.6315 49.0025 56.7781 46.9698 57.6064 45.1061L56.6926 44.7ZM53.3426 50.65L52.5065 50.1013C51.1075 52.2331 49.4917 54.6818 47.659 57.4476L48.4926 58L49.3262 58.5524C51.1601 55.7848 52.7776 53.3335 54.1786 51.1987L53.3426 50.65ZM48.4926 58L47.6584 57.4486L43.7584 63.3486L44.5926 63.9L45.4268 64.4514L49.3268 58.5514L48.4926 58ZM44.5926 63.9L43.7605 63.3453C43.5957 63.5926 43.4545 63.9024 43.432 64.2626C43.4083 64.6427 43.5224 64.9923 43.7288 65.2812L44.5426 64.7L45.3563 64.1188C45.3722 64.141 45.394 64.1788 45.4098 64.2314C45.4258 64.2849 45.4312 64.3389 45.4281 64.3874C45.4223 64.4809 45.3895 64.5074 45.4246 64.4547L44.5926 63.9ZM44.5426 64.7L43.8355 65.4071C44.2562 65.8278 44.795 66 45.3426 66L45.3426 65L45.3426 64C45.2758 64 45.2474 63.9901 45.2437 63.9887C45.2417 63.9879 45.2429 63.9882 45.2458 63.9901C45.2488 63.9919 45.2502 63.9934 45.2497 63.9929L44.5426 64.7ZM45.3426 65L45.3426 66L50.6926 66L50.6926 65L50.6926 64L45.3426 64L45.3426 65ZM50.6926 65L50.6926 66C52.0207 66 53.1822 65.8613 54.1474 65.5524L53.8426 64.6L53.5378 63.6476C52.8363 63.8721 51.8978 64 50.6926 64L50.6926 65ZM53.8426 64.6L54.1813 65.5409C55.2267 65.1645 56.0655 64.4887 56.6802 63.5463L55.8426 63L55.005 62.4537C54.6196 63.0446 54.1251 63.4355 53.5039 63.6591L53.8426 64.6ZM55.8426 63L56.6906 63.53C57.2852 62.5786 57.6988 61.3062 57.9764 59.7789L56.9926 59.6L56.0087 59.4211C55.7531 60.8272 55.4 61.8214 54.9946 62.47L55.8426 63ZM56.9926 59.6L57.9747 59.7881L58.4247 57.4381L57.4426 57.25L56.4604 57.0619L56.0104 59.4119L56.9926 59.6ZM57.4426 57.25L58.417 57.4749C58.4355 57.3944 58.4419 57.4472 58.36 57.5182C58.3198 57.553 58.2756 57.5764 58.2369 57.5893C58.2008 57.6014 58.1825 57.6 58.1926 57.6L58.1926 56.6L58.1926 55.6C57.8046 55.6 57.3931 55.7096 57.0501 56.0068C56.7182 56.2945 56.5496 56.6723 56.4682 57.0251L57.4426 57.25ZM58.1926 56.6L58.1926 57.6C58.212 57.6 58.1719 57.6034 58.1014 57.5735C58.0216 57.5395 57.9377 57.4772 57.8756 57.3892C57.8182 57.3079 57.8062 57.243 57.8047 57.2331C57.8035 57.2256 57.8087 57.2544 57.7994 57.3332L58.7926 57.45L59.7857 57.5668C59.8305 57.1865 59.8191 56.6743 59.5095 56.2358C59.1611 55.7422 58.6281 55.6 58.1926 55.6L58.1926 56.6ZM58.7926 57.45L57.7946 57.3863L57.1946 66.7863L58.1926 66.85L59.1905 66.9137L59.7905 57.5137L58.7926 57.45ZM58.1926 66.85L57.1963 66.7634C57.1768 66.9884 57.1203 67.0067 57.153 66.9766C57.1863 66.9459 57.1652 67 56.9426 67L56.9426 68L56.9426 69C57.4866 69 58.0572 68.8624 58.5071 68.4484C58.9565 68.035 59.1417 67.4782 59.1888 66.9366L58.1926 66.85ZM56.9426 68L56.9426 67L41.7926 67L41.7926 68L41.7926 69L56.9426 69L56.9426 68Z" fill="black" mask="url(#path-2-outside-1_1704_1257)"/>
<defs>
<linearGradient id="paint0_linear_1704_1257" x1="70.7866" y1="14.5098" x2="5.97405" y2="67.0046" gradientUnits="userSpaceOnUse">
<stop stop-color="#FCEE84"/>
<stop offset="1" stop-color="#92E8A5"/>
</linearGradient>
</defs>
</svg>
