<svg width="100" height="100" viewBox="0 0 100 100" fill="none" xmlns="http://www.w3.org/2000/svg">
<path d="M43.3975 10.3799C46.7365 6.05473 53.2635 6.05473 56.6025 10.3799C59.2639 13.8274 63.7668 15.2911 67.9463 14.0664C73.19 12.5298 78.4709 16.3663 78.6299 21.8281C78.7568 26.1815 81.5395 30.0118 85.6406 31.4775C90.7859 33.3166 92.8025 39.524 89.7207 44.0361C87.2644 47.6326 87.2644 52.3674 89.7207 55.9639C92.8025 60.476 90.7859 66.6834 85.6406 68.5225C81.5395 69.9882 78.7568 73.8185 78.6299 78.1719C78.4709 83.6337 73.19 87.4702 67.9463 85.9336C63.7668 84.7089 59.2639 86.1726 56.6025 89.6201C53.2635 93.9453 46.7365 93.9453 43.3975 89.6201C40.7361 86.1726 36.2332 84.7089 32.0537 85.9336C26.81 87.4702 21.5291 83.6337 21.3701 78.1719C21.2432 73.8185 18.4605 69.9882 14.3594 68.5225C9.21407 66.6834 7.19754 60.476 10.2793 55.9639C12.7356 52.3674 12.7356 47.6326 10.2793 44.0361C7.19754 39.524 9.21407 33.3166 14.3594 31.4775C18.4605 30.0118 21.2432 26.1815 21.3701 21.8281C21.5291 16.3663 26.81 12.5298 32.0537 14.0664C36.2332 15.2911 40.7361 13.8274 43.3975 10.3799Z" fill="#F1F1F1" stroke="black" stroke-width="2.23353"/>
<mask id="path-2-outside-1_1704_1238" maskUnits="userSpaceOnUse" x="39" y="30" width="21" height="40" fill="black">
<rect fill="white" x="39" y="30" width="21" height="40"/>
<path d="M49.4346 68.45C47.5012 68.45 45.8346 68.0167 44.4346 67.15C43.0346 66.25 41.9512 65.1167 41.1846 63.75C40.4512 62.35 40.0846 60.9 40.0846 59.4C40.0846 57.3333 40.6679 55.5 41.8346 53.9C43.0012 52.2667 44.6512 50.8833 46.7846 49.75C46.9846 49.65 47.0846 49.5333 47.0846 49.4C47.0846 49.2333 47.0012 49.0833 46.8346 48.95C44.9679 47.6833 43.5846 46.25 42.6846 44.65C41.7846 43.0167 41.3346 41.4 41.3346 39.8C41.3346 38.1333 41.7346 36.6833 42.5346 35.45C43.3679 34.2167 44.4512 33.25 45.7846 32.55C47.1179 31.85 48.5679 31.5 50.1346 31.5C51.6346 31.5 52.9846 31.85 54.1846 32.55C55.3846 33.2167 56.3346 34.15 57.0346 35.35C57.7346 36.5167 58.0846 37.85 58.0846 39.35C58.0846 41.0833 57.5512 42.7 56.4846 44.2C55.4179 45.6667 54.0012 46.8833 52.2346 47.85C52.0346 47.95 51.9346 48.0833 51.9346 48.25C51.9346 48.3833 52.0346 48.5167 52.2346 48.65C54.6679 50.1833 56.3846 51.7667 57.3846 53.4C58.4179 55 58.9346 56.7667 58.9346 58.7C58.9346 60.5667 58.5179 62.2333 57.6846 63.7C56.8512 65.1667 55.7179 66.3333 54.2846 67.2C52.8512 68.0333 51.2346 68.45 49.4346 68.45ZM49.9846 47.25C50.4179 47.55 50.8512 47.5333 51.2846 47.2C52.5512 46.3 53.5012 45.15 54.1346 43.75C54.8012 42.35 55.1346 40.8333 55.1346 39.2C55.1346 37.2667 54.7012 35.7333 53.8346 34.6C53.0012 33.4333 51.7346 32.85 50.0346 32.85C48.3012 32.85 46.9012 33.3667 45.8346 34.4C44.8012 35.4333 44.2846 36.8 44.2846 38.5C44.2846 39.5 44.4179 40.4833 44.6846 41.45C44.9846 42.4167 45.5512 43.3833 46.3846 44.35C47.2179 45.2833 48.4179 46.25 49.9846 47.25ZM49.5346 67.1C51.5346 67.1 53.1012 66.5 54.2346 65.3C55.4012 64.1 55.9846 62.4833 55.9846 60.45C55.9846 58.75 55.6679 57.3 55.0346 56.1C54.4346 54.8667 53.6179 53.8 52.5846 52.9C51.5512 51.9667 50.3679 51.1167 49.0346 50.35C48.6012 50.05 48.1679 50.05 47.7346 50.35C44.6679 52.45 43.1346 55.5167 43.1346 59.55C43.1346 60.8167 43.3346 62.0333 43.7346 63.2C44.1346 64.3667 44.8012 65.3167 45.7346 66.05C46.6679 66.75 47.9346 67.1 49.5346 67.1Z"/>
</mask>
<path d="M49.4346 68.45C47.5012 68.45 45.8346 68.0167 44.4346 67.15C43.0346 66.25 41.9512 65.1167 41.1846 63.75C40.4512 62.35 40.0846 60.9 40.0846 59.4C40.0846 57.3333 40.6679 55.5 41.8346 53.9C43.0012 52.2667 44.6512 50.8833 46.7846 49.75C46.9846 49.65 47.0846 49.5333 47.0846 49.4C47.0846 49.2333 47.0012 49.0833 46.8346 48.95C44.9679 47.6833 43.5846 46.25 42.6846 44.65C41.7846 43.0167 41.3346 41.4 41.3346 39.8C41.3346 38.1333 41.7346 36.6833 42.5346 35.45C43.3679 34.2167 44.4512 33.25 45.7846 32.55C47.1179 31.85 48.5679 31.5 50.1346 31.5C51.6346 31.5 52.9846 31.85 54.1846 32.55C55.3846 33.2167 56.3346 34.15 57.0346 35.35C57.7346 36.5167 58.0846 37.85 58.0846 39.35C58.0846 41.0833 57.5512 42.7 56.4846 44.2C55.4179 45.6667 54.0012 46.8833 52.2346 47.85C52.0346 47.95 51.9346 48.0833 51.9346 48.25C51.9346 48.3833 52.0346 48.5167 52.2346 48.65C54.6679 50.1833 56.3846 51.7667 57.3846 53.4C58.4179 55 58.9346 56.7667 58.9346 58.7C58.9346 60.5667 58.5179 62.2333 57.6846 63.7C56.8512 65.1667 55.7179 66.3333 54.2846 67.2C52.8512 68.0333 51.2346 68.45 49.4346 68.45ZM49.9846 47.25C50.4179 47.55 50.8512 47.5333 51.2846 47.2C52.5512 46.3 53.5012 45.15 54.1346 43.75C54.8012 42.35 55.1346 40.8333 55.1346 39.2C55.1346 37.2667 54.7012 35.7333 53.8346 34.6C53.0012 33.4333 51.7346 32.85 50.0346 32.85C48.3012 32.85 46.9012 33.3667 45.8346 34.4C44.8012 35.4333 44.2846 36.8 44.2846 38.5C44.2846 39.5 44.4179 40.4833 44.6846 41.45C44.9846 42.4167 45.5512 43.3833 46.3846 44.35C47.2179 45.2833 48.4179 46.25 49.9846 47.25ZM49.5346 67.1C51.5346 67.1 53.1012 66.5 54.2346 65.3C55.4012 64.1 55.9846 62.4833 55.9846 60.45C55.9846 58.75 55.6679 57.3 55.0346 56.1C54.4346 54.8667 53.6179 53.8 52.5846 52.9C51.5512 51.9667 50.3679 51.1167 49.0346 50.35C48.6012 50.05 48.1679 50.05 47.7346 50.35C44.6679 52.45 43.1346 55.5167 43.1346 59.55C43.1346 60.8167 43.3346 62.0333 43.7346 63.2C44.1346 64.3667 44.8012 65.3167 45.7346 66.05C46.6679 66.75 47.9346 67.1 49.5346 67.1Z" fill="black"/>
<path d="M44.4346 67.15L43.8938 67.9912L43.901 67.9958L43.9082 68.0003L44.4346 67.15ZM41.1846 63.75L40.2987 64.214L40.3054 64.2267L40.3124 64.2393L41.1846 63.75ZM41.8346 53.9L42.6426 54.4892L42.6483 54.4812L41.8346 53.9ZM46.7846 49.75L46.3374 48.8556L46.3263 48.8611L46.3154 48.8669L46.7846 49.75ZM46.8346 48.95L47.4593 48.1691L47.4286 48.1446L47.3961 48.1225L46.8346 48.95ZM42.6846 44.65L41.8087 45.1326L41.813 45.1403L42.6846 44.65ZM42.5346 35.45L41.706 34.8901L41.7007 34.8979L41.6956 34.9058L42.5346 35.45ZM45.7846 32.55L45.3197 31.6646H45.3197L45.7846 32.55ZM54.1846 32.55L53.6807 33.4138L53.6898 33.4191L53.6989 33.4242L54.1846 32.55ZM57.0346 35.35L56.1707 35.8539L56.1771 35.8645L57.0346 35.35ZM56.4846 44.2L57.2934 44.7882L57.2995 44.7795L56.4846 44.2ZM52.2346 47.85L52.6818 48.7444L52.6983 48.7361L52.7146 48.7273L52.2346 47.85ZM52.2346 48.65L51.6799 49.482L51.6906 49.4892L51.7015 49.496L52.2346 48.65ZM57.3846 53.4L56.5317 53.9222L56.538 53.9324L56.5445 53.9425L57.3846 53.4ZM57.6846 63.7L58.554 64.194L57.6846 63.7ZM54.2846 67.2L54.7872 68.0645L54.7946 68.0602L54.802 68.0557L54.2846 67.2ZM49.9846 47.25L50.5538 46.4278L50.5384 46.4172L50.5226 46.4071L49.9846 47.25ZM51.2846 47.2L50.7054 46.3848L50.6899 46.3958L50.6749 46.4074L51.2846 47.2ZM54.1346 43.75L53.2317 43.3201L53.2275 43.3289L53.2235 43.3378L54.1346 43.75ZM53.8346 34.6L53.0208 35.1812L53.0303 35.1945L53.0402 35.2074L53.8346 34.6ZM45.8346 34.4L45.1388 33.6818L45.1331 33.6873L45.1275 33.6929L45.8346 34.4ZM44.6846 41.45L43.7206 41.7159L43.7248 41.7312L43.7295 41.7464L44.6846 41.45ZM46.3846 44.35L45.6272 45.0029L45.6328 45.0095L45.6386 45.016L46.3846 44.35ZM54.2346 65.3L53.5176 64.6029L53.5125 64.6081L53.5076 64.6134L54.2346 65.3ZM55.0346 56.1L54.1353 56.5375L54.1425 56.5522L54.1502 56.5668L55.0346 56.1ZM52.5846 52.9L51.9143 53.6421L51.921 53.6482L51.9278 53.6541L52.5846 52.9ZM49.0346 50.35L48.4654 51.1722L48.4998 51.196L48.5361 51.2169L49.0346 50.35ZM47.7346 50.35L48.2996 51.1751L48.3038 51.1722L47.7346 50.35ZM43.7346 63.2L42.7886 63.5243L43.7346 63.2ZM45.7346 66.05L45.1167 66.8363L45.1256 66.8433L45.1346 66.85L45.7346 66.05ZM49.4346 68.45L49.4346 67.45C47.6543 67.45 46.177 67.0526 44.9609 66.2997L44.4346 67.15L43.9082 68.0003C45.4921 68.9808 47.3481 69.45 49.4346 69.45L49.4346 68.45ZM44.4346 67.15L44.9753 66.3088C43.7041 65.4916 42.7384 64.4759 42.0567 63.2607L41.1846 63.75L40.3124 64.2393C41.1641 65.7574 42.365 67.0084 43.8938 67.9912L44.4346 67.15ZM41.1846 63.75L42.0704 63.286C41.4079 62.0212 41.0846 60.7297 41.0846 59.4L40.0846 59.4L39.0846 59.4C39.0846 61.0703 39.4946 62.6788 40.2987 64.214L41.1846 63.75ZM40.0846 59.4L41.0846 59.4C41.0846 57.5352 41.6064 55.9103 42.6426 54.4892L41.8346 53.9L41.0266 53.3108C39.7294 55.0897 39.0846 57.1314 39.0846 59.4L40.0846 59.4ZM41.8346 53.9L42.6483 54.4812C43.7085 52.9969 45.2296 51.7084 47.2537 50.6331L46.7846 49.75L46.3154 48.8669C44.0729 50.0582 42.294 51.5364 41.0208 53.3188L41.8346 53.9ZM46.7846 49.75L47.2318 50.6444C47.5268 50.4969 48.0846 50.1237 48.0846 49.4L47.0846 49.4L46.0846 49.4C46.0846 49.192 46.1701 49.0303 46.2503 48.9367C46.3171 48.8588 46.3679 48.8403 46.3374 48.8556L46.7846 49.75ZM47.0846 49.4L48.0846 49.4C48.0846 48.8476 47.7908 48.4343 47.4593 48.1691L46.8346 48.95L46.2099 49.7309C46.2156 49.7354 46.1828 49.7109 46.1479 49.6481C46.1096 49.5792 46.0846 49.4918 46.0846 49.4L47.0846 49.4ZM46.8346 48.95L47.3961 48.1225C45.6287 46.9232 44.3649 45.5975 43.5561 44.1597L42.6846 44.65L41.813 45.1403C42.8043 46.9025 44.3071 48.4434 46.2731 49.7775L46.8346 48.95ZM42.6846 44.65L43.5604 44.1674C42.7283 42.6573 42.3346 41.2052 42.3346 39.8L41.3346 39.8L40.3346 39.8C40.3346 41.5948 40.8408 43.3761 41.8087 45.1326L42.6846 44.65ZM41.3346 39.8L42.3346 39.8C42.3346 38.2999 42.6922 37.0445 43.3735 35.9942L42.5346 35.45L41.6956 34.9058C40.7769 36.3221 40.3346 37.9668 40.3346 39.8L41.3346 39.8ZM42.5346 35.45L43.3632 36.0099C44.1029 34.9151 45.0606 34.0595 46.2494 33.4354L45.7846 32.55L45.3197 31.6646C43.8419 32.4405 42.6329 33.5182 41.706 34.8901L42.5346 35.45ZM45.7846 32.55L46.2494 33.4354C47.4335 32.8138 48.7231 32.5 50.1346 32.5L50.1346 31.5L50.1346 30.5C48.4127 30.5 46.8023 30.8862 45.3197 31.6646L45.7846 32.55ZM50.1346 31.5L50.1346 32.5C51.4721 32.5 52.6458 32.8101 53.6807 33.4138L54.1846 32.55L54.6884 31.6862C53.3234 30.8899 51.797 30.5 50.1346 30.5L50.1346 31.5ZM54.1846 32.55L53.6989 33.4242C54.7399 34.0025 55.5602 34.8071 56.1708 35.8539L57.0346 35.35L57.8983 34.8461C57.109 33.4929 56.0292 32.4308 54.6702 31.6758L54.1846 32.55ZM57.0346 35.35L56.1771 35.8645C56.7745 36.8601 57.0846 38.0121 57.0846 39.35L58.0846 39.35L59.0846 39.35C59.0846 37.6879 58.6947 36.1732 57.8921 34.8355L57.0346 35.35ZM58.0846 39.35L57.0846 39.35C57.0846 40.8624 56.6238 42.2787 55.6696 43.6205L56.4846 44.2L57.2995 44.7795C58.4787 43.1213 59.0846 41.3042 59.0846 39.35L58.0846 39.35ZM56.4846 44.2L55.6758 43.6118C54.7052 44.9464 53.4061 46.0691 51.7546 46.9727L52.2346 47.85L52.7146 48.7273C54.5964 47.6976 56.1306 46.3869 57.2933 44.7882L56.4846 44.2ZM52.2346 47.85L51.7874 46.9556C51.3836 47.1574 50.9346 47.574 50.9346 48.25L51.9346 48.25L52.9346 48.25C52.9346 48.383 52.8894 48.5186 52.8096 48.625C52.7402 48.7175 52.6754 48.7476 52.6818 48.7444L52.2346 47.85ZM51.9346 48.25L50.9346 48.25C50.9346 48.9142 51.4195 49.3085 51.6799 49.482L52.2346 48.65L52.7893 47.8179C52.7455 47.7888 52.7687 47.7955 52.8096 47.85C52.8564 47.9125 52.9346 48.0512 52.9346 48.25L51.9346 48.25ZM52.2346 48.65L51.7015 49.496C54.0644 50.985 55.6421 52.4691 56.5317 53.9222L57.3846 53.4L58.2374 52.8778C57.127 51.0642 55.2714 49.3816 52.7677 47.804L52.2346 48.65ZM57.3846 53.4L56.5445 53.9425C57.4718 55.3783 57.9346 56.9561 57.9346 58.7L58.9346 58.7L59.9346 58.7C59.9346 56.5773 59.364 54.6217 58.2246 52.8575L57.3846 53.4ZM58.9346 58.7L57.9346 58.7C57.9346 60.4124 57.554 61.9055 56.8151 63.206L57.6846 63.7L58.554 64.194C59.4818 62.5611 59.9346 60.721 59.9346 58.7L58.9346 58.7ZM57.6846 63.7L56.8151 63.206C56.0656 64.5251 55.0531 65.5667 53.7672 66.3443L54.2846 67.2L54.802 68.0557C56.3828 67.0999 57.6368 65.8083 58.554 64.194L57.6846 63.7ZM54.2846 67.2L53.7819 66.3355C52.5142 67.0726 51.0736 67.45 49.4346 67.45L49.4346 68.45L49.4346 69.45C51.3955 69.45 53.1883 68.9941 54.7872 68.0645L54.2846 67.2ZM49.9846 47.25L49.4154 48.0722C49.7708 48.3183 50.1966 48.4801 50.673 48.4618C51.1453 48.4436 51.5563 48.2526 51.8943 47.9926L51.2846 47.2L50.6749 46.4074C50.6266 46.4445 50.5964 46.4588 50.5851 46.4634C50.5755 46.4673 50.5805 46.4638 50.5961 46.4632C50.6122 46.4626 50.6219 46.4656 50.6203 46.4651C50.6169 46.464 50.5947 46.4562 50.5538 46.4278L49.9846 47.25ZM51.2846 47.2L51.8638 48.0152C53.2731 47.0138 54.3385 45.7254 55.0457 44.1622L54.1346 43.75L53.2235 43.3378C52.664 44.5746 51.8294 45.5862 50.7054 46.3848L51.2846 47.2ZM54.1346 43.75L55.0374 44.1799C55.7715 42.6385 56.1346 40.974 56.1346 39.2L55.1346 39.2L54.1346 39.2C54.1346 40.6927 53.831 42.0615 53.2317 43.3201L54.1346 43.75ZM55.1346 39.2L56.1346 39.2C56.1346 37.1243 55.6693 35.353 54.6289 33.9925L53.8346 34.6L53.0402 35.2074C53.7332 36.1137 54.1346 37.4091 54.1346 39.2L55.1346 39.2ZM53.8346 34.6L54.6483 34.0188C53.5908 32.5383 51.9892 31.85 50.0346 31.85L50.0346 32.85L50.0346 33.85C51.4799 33.85 52.4117 34.3284 53.0208 35.1812L53.8346 34.6ZM50.0346 32.85L50.0346 31.85C48.0882 31.85 46.423 32.4377 45.1388 33.6818L45.8346 34.4L46.5304 35.1182C47.3795 34.2957 48.5143 33.85 50.0346 33.85L50.0346 32.85ZM45.8346 34.4L45.1275 33.6929C43.8759 34.9445 43.2846 36.5816 43.2846 38.5L44.2846 38.5L45.2846 38.5C45.2846 37.0184 45.7266 35.9222 46.5417 35.1071L45.8346 34.4ZM44.2846 38.5L43.2846 38.5C43.2846 39.5901 43.4301 40.6629 43.7206 41.7159L44.6846 41.45L45.6486 41.1841C45.4057 40.3038 45.2846 39.4099 45.2846 38.5L44.2846 38.5ZM44.6846 41.45L43.7295 41.7464C44.0793 42.8737 44.7268 43.9585 45.6272 45.0029L46.3846 44.35L47.142 43.6971C46.3757 42.8082 45.8898 41.9597 45.6396 41.1536L44.6846 41.45ZM46.3846 44.35L45.6386 45.016C46.5546 46.0419 47.8363 47.0651 49.4465 48.0929L49.9846 47.25L50.5226 46.4071C48.9995 45.4349 47.8812 44.5248 47.1305 43.684L46.3846 44.35ZM49.5346 67.1L49.5346 68.1C51.747 68.1 53.6002 67.4281 54.9616 65.9866L54.2346 65.3L53.5076 64.6134C52.6023 65.5719 51.3222 66.1 49.5346 66.1L49.5346 67.1ZM54.2346 65.3L54.9516 65.9971C56.3373 64.5718 56.9846 62.6843 56.9846 60.45L55.9846 60.45L54.9846 60.45C54.9846 62.2824 54.4652 63.6282 53.5176 64.6029L54.2346 65.3ZM55.9846 60.45L56.9846 60.45C56.9846 58.6276 56.645 57.009 55.919 55.6332L55.0346 56.1L54.1502 56.5668C54.6908 57.591 54.9846 58.8724 54.9846 60.45L55.9846 60.45ZM55.0346 56.1L55.9338 55.6625C55.2751 54.3086 54.376 53.1342 53.2414 52.1459L52.5846 52.9L51.9278 53.6541C52.8598 54.4658 53.594 55.4248 54.1353 56.5375L55.0346 56.1ZM52.5846 52.9L53.2549 52.1579C52.1637 51.1723 50.9216 50.2815 49.533 49.4831L49.0346 50.35L48.5361 51.2169C49.8142 51.9518 50.9388 52.761 51.9143 53.6421L52.5846 52.9ZM49.0346 50.35L49.6038 49.5278C49.2566 49.2874 48.8451 49.125 48.3846 49.125C47.924 49.125 47.5126 49.2874 47.1654 49.5278L47.7346 50.35L48.3038 51.1722C48.3483 51.1414 48.3759 51.13 48.3867 51.1262C48.396 51.123 48.3939 51.125 48.3846 51.125C48.3752 51.125 48.3732 51.123 48.3825 51.1262C48.3932 51.13 48.4209 51.1414 48.4654 51.1722L49.0346 50.35ZM47.7346 50.35L47.1696 49.5249C43.8044 51.8293 42.1346 55.2198 42.1346 59.55L43.1346 59.55L44.1346 59.55C44.1346 55.8135 45.5314 53.0707 48.2996 51.1751L47.7346 50.35ZM43.1346 59.55L42.1346 59.55C42.1346 60.924 42.3519 62.2505 42.7886 63.5243L43.7346 63.2L44.6805 62.8757C44.3173 61.8162 44.1346 60.7093 44.1346 59.55L43.1346 59.55ZM43.7346 63.2L42.7886 63.5243C43.2486 64.8659 44.0257 65.979 45.1167 66.8363L45.7346 66.05L46.3524 65.2637C45.5768 64.6543 45.0206 63.8674 44.6805 62.8757L43.7346 63.2ZM45.7346 66.05L45.1346 66.85C46.295 67.7203 47.7972 68.1 49.5346 68.1L49.5346 67.1L49.5346 66.1C48.0719 66.1 47.0408 65.7797 46.3346 65.25L45.7346 66.05Z" fill="black" mask="url(#path-2-outside-1_1704_1238)"/>
</svg>
