<svg width="100" height="100" viewBox="0 0 100 100" fill="none" xmlns="http://www.w3.org/2000/svg">
<path d="M50 10C72.0914 10 90 27.9086 90 50V86.3584C90 88.3695 88.3696 90 86.3584 90H13.6416C11.6305 90 10 88.3696 10 86.3584V50C10 27.9086 27.9086 10 50 10Z" fill="#F1F1F1"/>
<path d="M50 10C72.0914 10 90 27.9086 90 50V86.3584C90 88.3695 88.3696 90 86.3584 90H13.6416C11.6305 90 10 88.3696 10 86.3584V50C10 27.9086 27.9086 10 50 10Z" stroke="black" stroke-width="2"/>
<mask id="path-2-outside-1_1704_1146" maskUnits="userSpaceOnUse" x="43" y="30" width="14" height="39" fill="black">
<rect fill="white" x="43" y="30" width="14" height="39"/>
<path d="M44.7744 68C44.2744 68 44.0244 67.8167 44.0244 67.45C44.0244 67.0833 44.2411 66.8833 44.6744 66.85L46.6244 66.65C47.3244 66.5833 47.7911 66.4167 48.0244 66.15C48.2911 65.8833 48.4244 65.4 48.4244 64.7L48.4244 35C48.4244 34.4333 48.2577 34.0667 47.9244 33.9C47.6244 33.7 47.2244 33.6333 46.7244 33.7L44.9244 33.9C44.3244 33.9333 44.0244 33.7167 44.0244 33.25C44.0244 32.8833 44.2911 32.65 44.8244 32.55C46.5911 32.25 47.8911 31.9667 48.7244 31.7C49.5577 31.4 50.1744 31.25 50.5744 31.25C51.2744 31.25 51.6244 31.6167 51.6244 32.35L51.6244 64.7C51.6244 65.4 51.7411 65.8833 51.9744 66.15C52.2411 66.4167 52.7244 66.5833 53.4244 66.65L55.0744 66.85C55.5077 66.8833 55.7244 67.0833 55.7244 67.45C55.7244 67.8167 55.4744 68 54.9744 68L44.7744 68Z"/>
</mask>
<path d="M44.7744 68C44.2744 68 44.0244 67.8167 44.0244 67.45C44.0244 67.0833 44.2411 66.8833 44.6744 66.85L46.6244 66.65C47.3244 66.5833 47.7911 66.4167 48.0244 66.15C48.2911 65.8833 48.4244 65.4 48.4244 64.7L48.4244 35C48.4244 34.4333 48.2577 34.0667 47.9244 33.9C47.6244 33.7 47.2244 33.6333 46.7244 33.7L44.9244 33.9C44.3244 33.9333 44.0244 33.7167 44.0244 33.25C44.0244 32.8833 44.2911 32.65 44.8244 32.55C46.5911 32.25 47.8911 31.9667 48.7244 31.7C49.5577 31.4 50.1744 31.25 50.5744 31.25C51.2744 31.25 51.6244 31.6167 51.6244 32.35L51.6244 64.7C51.6244 65.4 51.7411 65.8833 51.9744 66.15C52.2411 66.4167 52.7244 66.5833 53.4244 66.65L55.0744 66.85C55.5077 66.8833 55.7244 67.0833 55.7244 67.45C55.7244 67.8167 55.4744 68 54.9744 68L44.7744 68Z" fill="black"/>
<path d="M44.6744 66.85L44.7511 67.8471L44.7638 67.8461L44.7764 67.8448L44.6744 66.85ZM46.6244 66.65L46.5296 65.6545L46.5224 65.6552L46.6244 66.65ZM48.0244 66.15L47.3173 65.4429L47.2938 65.4664L47.2718 65.4915L48.0244 66.15ZM47.9244 33.9L47.3697 34.732L47.4215 34.7666L47.4772 34.7944L47.9244 33.9ZM46.7244 33.7L46.8348 34.6939L46.8457 34.6927L46.8566 34.6912L46.7244 33.7ZM44.9244 33.9L44.9799 34.8985L45.0074 34.8969L45.0348 34.8939L44.9244 33.9ZM44.8244 32.55L44.657 31.5641L44.6485 31.5655L44.6401 31.5671L44.8244 32.55ZM48.7244 31.7L49.0292 32.6524L49.0463 32.647L49.0631 32.6409L48.7244 31.7ZM51.9744 66.15L51.2218 66.8085L51.2438 66.8336L51.2673 66.8571L51.9744 66.15ZM53.4244 66.65L53.5447 65.6573L53.532 65.6557L53.5192 65.6545L53.4244 66.65ZM55.0744 66.85L54.9541 67.8427L54.9759 67.8454L54.9977 67.8471L55.0744 66.85ZM44.7744 68L44.7744 67C44.7073 67 44.6809 66.9935 44.6837 66.9942C44.6874 66.9951 44.7373 67.0077 44.8033 67.0561C44.8752 67.1088 44.9401 67.1853 44.9817 67.2768C45.0207 67.3628 45.0244 67.4288 45.0244 67.45L44.0244 67.45L43.0244 67.45C43.0244 67.8859 43.1897 68.353 43.6206 68.6689C43.9935 68.9424 44.4317 69 44.7744 69L44.7744 68ZM44.0244 67.45L45.0244 67.45C45.0244 67.4556 45.0237 67.4991 44.9991 67.5634C44.9728 67.6322 44.9276 67.7022 44.8652 67.7598C44.7459 67.8699 44.6564 67.8543 44.7511 67.8471L44.6744 66.85L44.5977 65.8529C44.2591 65.879 43.8446 65.9801 43.5086 66.2902C43.1472 66.6238 43.0244 67.0604 43.0244 67.45L44.0244 67.45ZM44.6744 66.85L44.7764 67.8448L46.7264 67.6448L46.6244 66.65L46.5224 65.6552L44.5724 65.8552L44.6744 66.85ZM46.6244 66.65L46.7192 67.6455C47.4572 67.5752 48.2728 67.3848 48.777 66.8085L48.0244 66.15L47.2718 65.4915C47.3034 65.4554 47.2964 65.4856 47.1631 65.5333C47.0327 65.5798 46.8286 65.626 46.5296 65.6545L46.6244 66.65ZM48.0244 66.15L48.7315 66.8571C49.2927 66.2959 49.4244 65.4608 49.4244 64.7H48.4244L47.4244 64.7C47.4244 64.9927 47.3958 65.1932 47.3604 65.3216C47.3251 65.4495 47.2945 65.4657 47.3173 65.4429L48.0244 66.15ZM48.4244 64.7H49.4244L49.4244 35L48.4244 35L47.4244 35L47.4244 64.7L48.4244 64.7ZM48.4244 35L49.4244 35C49.4244 34.2734 49.203 33.4213 48.3716 33.0056L47.9244 33.9L47.4772 34.7944C47.4568 34.7842 47.4336 34.7678 47.4136 34.7464C47.3943 34.7258 47.3879 34.7114 47.389 34.7138C47.3944 34.7256 47.4244 34.8053 47.4244 35L48.4244 35ZM47.9244 33.9L48.4791 33.0679C47.9091 32.6879 47.2373 32.6228 46.5923 32.7088L46.7244 33.7L46.8566 34.6912C47.2115 34.6439 47.3397 34.7121 47.3697 34.732L47.9244 33.9ZM46.7244 33.7L46.614 32.7061L44.814 32.9061L44.9244 33.9L45.0348 34.8939L46.8348 34.6939L46.7244 33.7ZM44.9244 33.9L44.8689 32.9015C44.7797 32.9065 44.7377 32.8998 44.7303 32.8982C44.7243 32.897 44.7705 32.9053 44.8349 32.9518C44.9057 33.0029 44.9628 33.0748 44.9963 33.1511C45.0265 33.22 45.0244 33.2619 45.0244 33.25L44.0244 33.25L43.0244 33.25C43.0244 33.7111 43.1862 34.2281 43.6639 34.5732C44.0846 34.877 44.5836 34.9205 44.9799 34.8985L44.9244 33.9ZM44.0244 33.25L45.0244 33.25C45.0244 33.2818 45.018 33.3391 44.9882 33.4061C44.958 33.4741 44.9167 33.523 44.8829 33.5526C44.8523 33.5794 44.8375 33.5821 44.859 33.5731C44.8808 33.564 44.9277 33.5481 45.0087 33.5329L44.8244 32.55L44.6401 31.5671C44.2836 31.634 43.8872 31.7663 43.5659 32.0474C43.2071 32.3614 43.0244 32.7898 43.0244 33.25L44.0244 33.25ZM44.8244 32.55L44.9918 33.5359C46.7674 33.2344 48.1252 32.9417 49.0292 32.6524L48.7244 31.7L48.4196 30.7476C47.6569 30.9916 46.4148 31.2656 44.657 31.5641L44.8244 32.55ZM48.7244 31.7L49.0631 32.6409C49.8874 32.3442 50.3621 32.25 50.5744 32.25L50.5744 31.25L50.5744 30.25C49.9867 30.25 49.2281 30.4558 48.3857 30.7591L48.7244 31.7ZM50.5744 31.25L50.5744 32.25C50.6649 32.25 50.7022 32.2622 50.7041 32.2628C50.7041 32.2629 50.6956 32.2598 50.6821 32.2513C50.6682 32.2426 50.6529 32.2305 50.6386 32.2155C50.6074 32.1828 50.6018 32.1592 50.6059 32.172C50.6113 32.189 50.6244 32.2431 50.6244 32.35L51.6244 32.35L52.6244 32.35C52.6244 31.8405 52.5036 31.2728 52.0853 30.8345C51.6586 30.3876 51.0907 30.25 50.5744 30.25L50.5744 31.25ZM51.6244 32.35L50.6244 32.35L50.6244 64.7H51.6244L52.6244 64.7L52.6244 32.35L51.6244 32.35ZM51.6244 64.7H50.6244C50.6244 65.4396 50.7331 66.2499 51.2218 66.8085L51.9744 66.15L52.727 65.4915C52.7508 65.5187 52.7188 65.4972 52.684 65.3529C52.65 65.2121 52.6244 65.0003 52.6244 64.7L51.6244 64.7ZM51.9744 66.15L51.2673 66.8571C51.7902 67.38 52.5733 67.5735 53.3296 67.6455L53.4244 66.65L53.5192 65.6545C53.2209 65.6261 53.0078 65.5796 52.8629 65.5296C52.7163 65.4791 52.6764 65.4378 52.6815 65.4429L51.9744 66.15ZM53.4244 66.65L53.3041 67.6427L54.9541 67.8427L55.0744 66.85L55.1947 65.8573L53.5447 65.6573L53.4244 66.65ZM55.0744 66.85L54.9977 67.8471C55.0925 67.8543 55.0029 67.8699 54.8836 67.7598C54.8213 67.7022 54.776 67.6322 54.7497 67.5634C54.7252 67.4991 54.7244 67.4556 54.7244 67.45H55.7244L56.7244 67.45C56.7244 67.0604 56.6016 66.6238 56.2402 66.2902C55.9043 65.9801 55.4897 65.879 55.1511 65.8529L55.0744 66.85ZM55.7244 67.45H54.7244C54.7244 67.4288 54.7281 67.3628 54.7672 67.2768C54.8088 67.1853 54.8736 67.1088 54.9456 67.0561C55.0116 67.0077 55.0614 66.9951 55.0651 66.9942C55.068 66.9935 55.0415 67 54.9744 67L54.9744 68L54.9744 69C55.3171 69 55.7553 68.9424 56.1283 68.6689C56.5591 68.353 56.7244 67.8859 56.7244 67.45L55.7244 67.45ZM54.9744 68L54.9744 67L44.7744 67L44.7744 68L44.7744 69L54.9744 69L54.9744 68Z" fill="black" mask="url(#path-2-outside-1_1704_1146)"/>
</svg>
