<svg width="100" height="100" viewBox="0 0 100 100" fill="none" xmlns="http://www.w3.org/2000/svg">
<mask id="path-1-inside-1_1704_1155" fill="white">
<path d="M49.5 2C54.0784 2.00066 56.5484 9.02022 57.8848 18.207C63.6356 10.9188 69.2856 6.07506 73.251 8.36426C77.2145 10.6544 75.8435 17.9676 72.4082 26.5908C81.0315 23.1552 88.3457 21.7861 90.6357 25.75C92.9237 29.7152 88.0798 35.3637 80.793 41.1143C89.9801 42.4506 96.9997 44.9214 97 49.5C96.9998 54.0788 89.9795 56.5485 80.792 57.8848C88.0805 63.6358 92.9248 69.2856 90.6357 73.251C88.3458 77.215 81.0319 75.8448 72.4082 72.4092C75.8438 81.0327 77.2143 88.346 73.25 90.6357C69.2847 92.9244 63.6355 88.0807 57.8848 80.793C56.5484 89.9799 54.0785 96.9996 49.5 97C44.9215 96.9998 42.4506 89.9806 41.1143 80.7939C35.364 88.0806 29.7161 92.9241 25.751 90.6367C21.7857 88.3472 23.1553 81.0321 26.5918 72.4072C17.9677 75.8434 10.6536 77.2149 8.36328 73.251C6.07438 69.2857 10.9181 63.6358 18.2061 57.8848C9.01944 56.5484 2.00023 54.0785 2 49.5C2.00022 44.9218 9.01836 42.4507 18.2041 41.1143C10.9179 35.3642 6.07547 29.7159 8.36328 25.751C10.6528 21.7858 17.9673 23.1564 26.5918 26.5928C23.1554 17.9681 21.7851 10.6531 25.75 8.36328C29.7151 6.07501 35.3639 10.9181 41.1143 18.2051C42.4506 9.01886 44.9216 2.00021 49.5 2Z"/>
</mask>
<path d="M49.5 2C54.0784 2.00066 56.5484 9.02022 57.8848 18.207C63.6356 10.9188 69.2856 6.07506 73.251 8.36426C77.2145 10.6544 75.8435 17.9676 72.4082 26.5908C81.0315 23.1552 88.3457 21.7861 90.6357 25.75C92.9237 29.7152 88.0798 35.3637 80.793 41.1143C89.9801 42.4506 96.9997 44.9214 97 49.5C96.9998 54.0788 89.9795 56.5485 80.792 57.8848C88.0805 63.6358 92.9248 69.2856 90.6357 73.251C88.3458 77.215 81.0319 75.8448 72.4082 72.4092C75.8438 81.0327 77.2143 88.346 73.25 90.6357C69.2847 92.9244 63.6355 88.0807 57.8848 80.793C56.5484 89.9799 54.0785 96.9996 49.5 97C44.9215 96.9998 42.4506 89.9806 41.1143 80.7939C35.364 88.0806 29.7161 92.9241 25.751 90.6367C21.7857 88.3472 23.1553 81.0321 26.5918 72.4072C17.9677 75.8434 10.6536 77.2149 8.36328 73.251C6.07438 69.2857 10.9181 63.6358 18.2061 57.8848C9.01944 56.5484 2.00023 54.0785 2 49.5C2.00022 44.9218 9.01836 42.4507 18.2041 41.1143C10.9179 35.3642 6.07547 29.7159 8.36328 25.751C10.6528 21.7858 17.9673 23.1564 26.5918 26.5928C23.1554 17.9681 21.7851 10.6531 25.75 8.36328C29.7151 6.07501 35.3639 10.9181 41.1143 18.2051C42.4506 9.01886 44.9216 2.00021 49.5 2Z" fill="#F1F1F1"/>
<path d="M49.5 2L49.5003 0H49.4999L49.5 2ZM57.8848 18.207L55.9056 18.4949L56.5749 23.0958L59.4548 19.4459L57.8848 18.207ZM73.251 8.36426L74.2516 6.63256L74.2509 6.63217L73.251 8.36426ZM72.4082 26.5908L70.5502 25.8506L68.8297 30.1694L73.1484 28.4488L72.4082 26.5908ZM90.6357 25.75L92.368 24.7504L92.3675 24.7495L90.6357 25.75ZM80.793 41.1143L79.554 39.5443L75.9046 42.4243L80.5051 43.0934L80.793 41.1143ZM97 49.5L99 49.5001V49.4999L97 49.5ZM80.792 57.8848L80.5041 55.9056L75.9031 56.5748L79.5531 59.4548L80.792 57.8848ZM90.6357 73.251L92.3676 74.2514L92.3679 74.2508L90.6357 73.251ZM72.4082 72.4092L73.1484 70.5512L68.8296 68.8306L70.5502 73.1494L72.4082 72.4092ZM73.25 90.6357L74.2498 92.3679L74.2503 92.3676L73.25 90.6357ZM57.8848 80.793L59.4548 79.554L56.5748 75.9043L55.9056 80.5051L57.8848 80.793ZM49.5 97L49.4999 99H49.5002L49.5 97ZM41.1143 80.7939L43.0934 80.506L42.4242 75.9055L39.5442 79.555L41.1143 80.7939ZM25.751 90.6367L24.7509 92.3687L24.7516 92.3691L25.751 90.6367ZM26.5918 72.4072L28.4497 73.1475L30.1707 68.8283L25.8515 70.5493L26.5918 72.4072ZM8.36328 73.251L6.63114 74.2508L6.63155 74.2515L8.36328 73.251ZM18.2061 57.8848L19.445 59.4548L23.0946 56.5748L18.494 55.9056L18.2061 57.8848ZM2 49.5L0 49.4999V49.5001L2 49.5ZM18.2041 41.1143L18.492 43.0934L23.0924 42.4241L19.4431 39.5443L18.2041 41.1143ZM8.36328 25.751L6.63127 24.7509L6.63098 24.7514L8.36328 25.751ZM26.5918 26.5928L25.8515 28.4507L30.1707 30.1716L28.4497 25.8525L26.5918 26.5928ZM25.75 8.36328L24.7503 6.63105L24.7498 6.63136L25.75 8.36328ZM41.1143 18.2051L39.5442 19.444L42.4242 23.0935L43.0934 18.493L41.1143 18.2051ZM49.5 2L49.4997 4C50.5655 4.00015 51.8233 4.78173 53.0962 7.50549C54.3275 10.1401 55.2459 13.9597 55.9056 18.4949L57.8848 18.207L59.8639 17.9191C59.1873 13.2676 58.2025 8.98398 56.72 5.81193C55.2793 2.72905 53.0129 0.000508904 49.5003 0L49.5 2ZM57.8848 18.207L59.4548 19.4459C62.2938 15.848 64.9992 12.9994 67.3831 11.3335C69.8476 9.61125 71.3279 9.5634 72.251 10.0963L73.251 8.36426L74.2509 6.63217C71.2087 4.87592 67.8814 6.10536 65.0918 8.05475C62.2216 10.0605 59.2266 13.2778 56.3147 16.9681L57.8848 18.207ZM73.251 8.36426L72.2504 10.096C73.173 10.6291 73.8712 11.9348 73.6116 14.9299C73.3605 17.827 72.2461 21.5936 70.5502 25.8506L72.4082 26.5908L74.2662 27.331C76.0056 22.9648 77.2943 18.7633 77.5967 15.2754C77.8905 11.8855 77.2925 8.38964 74.2516 6.63256L73.251 8.36426ZM72.4082 26.5908L73.1484 28.4488C77.4053 26.7528 81.1722 25.6388 84.0693 25.3881C87.0646 25.129 88.3708 25.8276 88.904 26.7505L90.6357 25.75L92.3675 24.7495C90.6107 21.7085 87.1147 21.1097 83.7245 21.403C80.2363 21.7048 76.0343 22.9932 71.668 24.7329L72.4082 26.5908ZM90.6357 25.75L88.9034 26.7496C89.4361 27.6726 89.388 29.1526 87.6656 31.6169C85.9997 34.0004 83.1513 36.7054 79.554 39.5443L80.793 41.1143L82.032 42.6843C85.7215 39.7726 88.9385 36.7781 90.9442 33.9084C92.8935 31.1194 94.1234 27.7926 92.368 24.7504L90.6357 25.75ZM80.793 41.1143L80.5051 43.0934C85.0404 43.7531 88.8601 44.6717 91.4947 45.9031C94.2184 47.1762 94.9999 48.4342 95 49.5001L97 49.5L99 49.4999C98.9998 45.9872 96.2714 43.7204 93.1884 42.2794C90.0163 40.7967 85.7326 39.8117 81.0808 39.1351L80.793 41.1143ZM97 49.5L95 49.4999C94.9999 50.5657 94.2185 51.8235 91.4945 53.0964C88.8597 54.3276 85.0398 55.2459 80.5041 55.9056L80.792 57.8848L81.0799 59.8639C85.7317 59.1873 90.0157 58.2026 93.188 56.7203C96.271 55.2795 98.9998 53.0131 99 49.5001L97 49.5ZM80.792 57.8848L79.5531 59.4548C83.1512 62.2939 86 64.9994 87.6661 67.3832C89.3886 69.8477 89.4365 71.328 88.9036 72.2511L90.6357 73.251L92.3679 74.2508C94.124 71.2086 92.8943 67.8812 90.9447 65.0918C88.9388 62.2216 85.7213 59.2266 82.0309 56.3147L80.792 57.8848ZM90.6357 73.251L88.9039 72.2506C88.3708 73.1734 87.065 73.8718 84.0697 73.6124C81.1725 73.3615 77.4057 72.2473 73.1484 70.5512L72.4082 72.4092L71.668 74.2672C76.0345 76.0068 80.2364 77.2954 83.7246 77.5975C87.1147 77.8911 90.6107 77.2926 92.3676 74.2514L90.6357 73.251ZM72.4082 72.4092L70.5502 73.1494C72.2463 77.4066 73.3606 81.1732 73.6115 84.0702C73.8709 87.0652 73.1725 88.3709 72.2497 88.9039L73.25 90.6357L74.2503 92.3676C77.2918 90.6109 77.8902 87.115 77.5966 83.725C77.2944 80.237 76.0057 76.0353 74.2662 71.669L72.4082 72.4092ZM73.25 90.6357L72.2502 88.9036C71.3271 89.4364 69.8469 89.3884 67.3826 87.6662C64.9989 86.0003 62.2937 83.1517 59.4548 79.554L57.8848 80.793L56.3147 82.0319C59.2265 85.7219 62.2213 88.9391 65.0912 90.9448C67.8805 92.8942 71.2076 94.1238 74.2498 92.3679L73.25 90.6357ZM57.8848 80.793L55.9056 80.5051C55.2459 85.0404 54.3275 88.8601 53.0963 91.4947C51.8234 94.2184 50.5656 94.9999 49.4998 95L49.5 97L49.5002 99C53.0129 98.9997 55.2794 96.2711 56.7201 93.1882C58.2025 90.0161 59.1873 85.7325 59.8639 81.0809L57.8848 80.793ZM49.5 97L49.5001 95C48.4342 95 47.1762 94.2185 45.9031 91.495C44.6717 88.8606 43.7531 85.0412 43.0934 80.506L41.1143 80.7939L39.1351 81.0818C39.8117 85.7334 40.7968 90.0169 42.2795 93.1888C43.7205 96.2717 45.9873 98.9998 49.4999 99L49.5 97ZM41.1143 80.7939L39.5442 79.555C36.7055 83.1522 34.0007 86.0005 31.6174 87.6663C29.1534 89.3886 27.6734 89.4368 26.7504 88.9043L25.751 90.6367L24.7516 92.3691C27.7937 94.124 31.1202 92.8941 33.909 90.9448C36.7784 88.9391 39.7727 85.7224 42.6843 82.0329L41.1143 80.7939ZM25.751 90.6367L26.751 88.9047C25.8278 88.3716 25.129 87.0656 25.3882 84.0701C25.639 81.1726 26.7533 77.4052 28.4497 73.1475L26.5918 72.4072L24.7339 71.6669C22.9938 76.034 21.705 80.2366 21.4031 83.7253C21.1097 87.1159 21.7088 90.6122 24.7509 92.3687L25.751 90.6367ZM26.5918 72.4072L25.8515 70.5493C21.594 72.2456 17.8269 73.3603 14.9296 73.6116C11.934 73.8714 10.6281 73.1731 10.095 72.2504L8.36328 73.251L6.63155 74.2515C8.38872 77.2928 11.885 77.8907 15.2752 77.5967C18.7634 77.2941 22.9655 76.005 27.3321 74.2652L26.5918 72.4072ZM8.36328 73.251L10.0954 72.2511C9.56255 71.328 9.61046 69.8477 11.3327 67.3832C12.9986 64.9993 15.8472 62.2939 19.445 59.4548L18.2061 57.8848L16.9671 56.3147C13.277 59.2267 10.0597 62.2217 8.054 65.0919C6.10464 67.8814 4.87511 71.2087 6.63114 74.2508L8.36328 73.251ZM18.2061 57.8848L18.494 55.9056C13.9588 55.2459 10.1394 54.3276 7.50494 53.0963C4.78142 51.8234 4.00005 50.5657 4 49.4999L2 49.5L0 49.5001C0.000177264 53.0128 2.72853 55.2793 5.81132 56.7201C8.98323 58.2025 13.2667 59.1873 17.9182 59.8639L18.2061 57.8848ZM2 49.5L4 49.5001C4.00005 48.4342 4.78147 47.1763 7.50452 45.9032C10.1385 44.6718 13.9574 43.7532 18.492 43.0934L18.2041 41.1143L17.9162 39.1351C13.265 39.8118 8.98201 40.7969 5.81044 42.2797C2.72793 43.7208 0.000169516 45.9876 0 49.4999L2 49.5ZM18.2041 41.1143L19.4431 39.5443C15.8461 36.7057 12.9983 34.0009 11.3328 31.6176C9.61098 29.1537 9.56296 27.6736 10.0956 26.7505L8.36328 25.751L6.63098 24.7514C4.8758 27.7932 6.10507 31.1198 8.05405 33.9088C10.0594 36.7784 13.2758 39.7728 16.9651 42.6843L18.2041 41.1143ZM8.36328 25.751L10.0953 26.751C10.6283 25.828 11.934 25.1294 14.9293 25.3888C17.8266 25.6398 21.5938 26.7543 25.8515 28.4507L26.5918 26.5928L27.3321 24.7348C22.9652 22.9949 18.7629 21.7059 15.2745 21.4037C11.8841 21.1101 8.38782 21.7088 6.63127 24.7509L8.36328 25.751ZM26.5918 26.5928L28.4497 25.8525C26.7533 21.5948 25.6389 17.8274 25.388 14.9299C25.1285 11.9343 25.8272 10.6283 26.7502 10.0952L25.75 8.36328L24.7498 6.63136C21.708 8.38808 21.1093 11.8845 21.4029 15.275C21.705 18.7636 22.9939 22.966 24.7338 27.3331L26.5918 26.5928ZM25.75 8.36328L26.7497 10.0955C27.6728 9.5628 29.1529 9.61076 31.617 11.3328C34.0005 12.9985 36.7055 15.8467 39.5442 19.444L41.1143 18.2051L42.6843 16.9661C39.7727 13.2764 36.7781 10.0596 33.9083 8.05409C31.1192 6.10492 27.7923 4.8755 24.7503 6.63105L25.75 8.36328ZM41.1143 18.2051L43.0934 18.493C43.7531 13.9581 44.6717 10.139 45.9032 7.50477C47.1763 4.7815 48.4342 4.00005 49.5001 4L49.5 2L49.4999 0C45.9874 0.00015974 43.7207 2.72814 42.2796 5.8108C40.7968 8.98254 39.8118 13.2658 39.1351 17.9172L41.1143 18.2051Z" fill="black" mask="url(#path-1-inside-1_1704_1155)"/>
<mask id="path-3-outside-2_1704_1155" maskUnits="userSpaceOnUse" x="40" y="30" width="19" height="40" fill="black">
<rect fill="white" x="40" y="30" width="19" height="40"/>
<path d="M47.4727 68.45C45.7393 68.45 44.3393 68.1333 43.2727 67.5C42.2393 66.8667 41.7227 66.0333 41.7227 65C41.7227 64.4333 41.8893 64 42.2227 63.7C42.556 63.3667 42.9893 63.2 43.5227 63.2C44.156 63.2 44.5727 63.4 44.7727 63.8C44.9727 64.2 45.1227 64.65 45.2227 65.15C45.3227 65.65 45.5393 66.1 45.8727 66.5C46.2393 66.9 46.8727 67.1 47.7727 67.1C49.6727 67.1 51.206 66.2167 52.3727 64.45C53.5727 62.65 54.1727 60.3 54.1727 57.4C54.1727 50.9667 52.3393 47.75 48.6727 47.75C47.3393 47.75 46.206 48.0667 45.2727 48.7C44.7393 49.1 44.3393 49.15 44.0727 48.85C43.8727 48.5167 44.006 48.1167 44.4727 47.65L48.0727 44.25C49.5393 42.8833 50.606 41.6333 51.2727 40.5C51.9393 39.3667 52.2727 38.2333 52.2727 37.1C52.2727 35.8667 51.9893 34.9167 51.4227 34.25C50.8893 33.55 50.1393 33.2 49.1727 33.2C47.906 33.2 46.8393 33.6667 45.9727 34.6C45.106 35.5333 44.5393 36.8167 44.2727 38.45C44.206 38.95 43.956 39.2 43.5227 39.2C43.056 39.2 42.856 38.9 42.9227 38.3C43.156 36.2333 43.9227 34.5833 45.2227 33.35C46.556 32.1167 48.1893 31.5 50.1227 31.5C51.7893 31.5 53.1227 31.9667 54.1227 32.9C55.156 33.8 55.6727 35.0167 55.6727 36.55C55.6727 39.1833 53.5227 41.9833 49.2227 44.95L48.0727 45.75C47.9393 45.85 47.8893 45.9667 47.9227 46.1C47.9893 46.2 48.106 46.2333 48.2727 46.2C48.8393 46.0333 49.406 45.95 49.9727 45.95C51.506 45.95 52.856 46.3833 54.0227 47.25C55.1893 48.1167 56.106 49.3333 56.7727 50.9C57.4393 52.4333 57.7727 54.2 57.7727 56.2C57.7727 57.8 57.4893 59.3333 56.9227 60.8C56.356 62.2667 55.5893 63.5833 54.6227 64.75C53.656 65.8833 52.556 66.7833 51.3227 67.45C50.0893 68.1167 48.806 68.45 47.4727 68.45Z"/>
</mask>
<path d="M47.4727 68.45C45.7393 68.45 44.3393 68.1333 43.2727 67.5C42.2393 66.8667 41.7227 66.0333 41.7227 65C41.7227 64.4333 41.8893 64 42.2227 63.7C42.556 63.3667 42.9893 63.2 43.5227 63.2C44.156 63.2 44.5727 63.4 44.7727 63.8C44.9727 64.2 45.1227 64.65 45.2227 65.15C45.3227 65.65 45.5393 66.1 45.8727 66.5C46.2393 66.9 46.8727 67.1 47.7727 67.1C49.6727 67.1 51.206 66.2167 52.3727 64.45C53.5727 62.65 54.1727 60.3 54.1727 57.4C54.1727 50.9667 52.3393 47.75 48.6727 47.75C47.3393 47.75 46.206 48.0667 45.2727 48.7C44.7393 49.1 44.3393 49.15 44.0727 48.85C43.8727 48.5167 44.006 48.1167 44.4727 47.65L48.0727 44.25C49.5393 42.8833 50.606 41.6333 51.2727 40.5C51.9393 39.3667 52.2727 38.2333 52.2727 37.1C52.2727 35.8667 51.9893 34.9167 51.4227 34.25C50.8893 33.55 50.1393 33.2 49.1727 33.2C47.906 33.2 46.8393 33.6667 45.9727 34.6C45.106 35.5333 44.5393 36.8167 44.2727 38.45C44.206 38.95 43.956 39.2 43.5227 39.2C43.056 39.2 42.856 38.9 42.9227 38.3C43.156 36.2333 43.9227 34.5833 45.2227 33.35C46.556 32.1167 48.1893 31.5 50.1227 31.5C51.7893 31.5 53.1227 31.9667 54.1227 32.9C55.156 33.8 55.6727 35.0167 55.6727 36.55C55.6727 39.1833 53.5227 41.9833 49.2227 44.95L48.0727 45.75C47.9393 45.85 47.8893 45.9667 47.9227 46.1C47.9893 46.2 48.106 46.2333 48.2727 46.2C48.8393 46.0333 49.406 45.95 49.9727 45.95C51.506 45.95 52.856 46.3833 54.0227 47.25C55.1893 48.1167 56.106 49.3333 56.7727 50.9C57.4393 52.4333 57.7727 54.2 57.7727 56.2C57.7727 57.8 57.4893 59.3333 56.9227 60.8C56.356 62.2667 55.5893 63.5833 54.6227 64.75C53.656 65.8833 52.556 66.7833 51.3227 67.45C50.0893 68.1167 48.806 68.45 47.4727 68.45Z" fill="black"/>
<path d="M43.2727 67.5L42.75 68.3527L42.7621 68.3599L43.2727 67.5ZM42.2227 63.7L42.8916 64.4433L42.9112 64.4257L42.9298 64.4071L42.2227 63.7ZM44.7727 63.8L43.8782 64.2472V64.2472L44.7727 63.8ZM45.2227 65.15L44.2421 65.3461L45.2227 65.15ZM45.8727 66.5L45.1044 67.1402L45.1195 67.1583L45.1355 67.1757L45.8727 66.5ZM52.3727 64.45L51.5406 63.8953L51.5382 63.8989L52.3727 64.45ZM45.2727 48.7L44.7112 47.8725L44.6916 47.8858L44.6727 47.9L45.2727 48.7ZM44.0727 48.85L43.2152 49.3645L43.2632 49.4446L43.3252 49.5144L44.0727 48.85ZM44.4727 47.65L43.786 46.923L43.7756 46.9328L43.7655 46.9429L44.4727 47.65ZM48.0727 44.25L47.3909 43.5184L47.386 43.523L48.0727 44.25ZM51.2727 40.5L52.1346 41.007H52.1346L51.2727 40.5ZM51.4227 34.25L50.6272 34.856L50.6434 34.8773L50.6607 34.8976L51.4227 34.25ZM45.9727 34.6L45.2399 33.9195L45.9727 34.6ZM44.2727 38.45L43.2857 38.2889L43.2834 38.3033L43.2814 38.3178L44.2727 38.45ZM42.9227 38.3L41.929 38.1878L41.9288 38.1896L42.9227 38.3ZM45.2227 33.35L44.5436 32.6158L44.5344 32.6245L45.2227 33.35ZM54.1227 32.9L53.4403 33.6311L53.4529 33.6428L53.4659 33.6541L54.1227 32.9ZM49.2227 44.95L48.6548 44.1269L48.6516 44.1291L49.2227 44.95ZM48.0727 45.75L47.5016 44.9291L47.4869 44.9393L47.4727 44.95L48.0727 45.75ZM47.9227 46.1L46.9525 46.3425L46.9945 46.5106L47.0906 46.6547L47.9227 46.1ZM48.2727 46.2L48.4688 47.1806L48.5123 47.1719L48.5548 47.1594L48.2727 46.2ZM54.0227 47.25L53.4263 48.0527V48.0527L54.0227 47.25ZM56.7727 50.9L55.8525 51.2916L55.8556 51.2987L56.7727 50.9ZM56.9227 60.8L55.9899 60.4396V60.4396L56.9227 60.8ZM54.6227 64.75L55.3835 65.3989L55.3881 65.3935L55.3927 65.388L54.6227 64.75ZM51.3227 67.45L50.8471 66.5703L51.3227 67.45ZM47.4727 68.45L47.4727 67.45C45.851 67.45 44.6458 67.1523 43.7832 66.6401L43.2727 67.5L42.7621 68.3599C44.0328 69.1143 45.6277 69.45 47.4727 69.45L47.4727 68.45ZM43.2727 67.5L43.7952 66.6474C42.9982 66.1589 42.7227 65.6201 42.7227 65H41.7227L40.7227 65C40.7227 66.4465 41.4804 67.5744 42.7501 68.3526L43.2727 67.5ZM41.7227 65H42.7227C42.7227 64.6368 42.8219 64.506 42.8916 64.4433L42.2227 63.7L41.5537 62.9567C40.9567 63.494 40.7227 64.2298 40.7227 65L41.7227 65ZM42.2227 63.7L42.9298 64.4071C43.0503 64.2866 43.2166 64.2 43.5227 64.2L43.5227 63.2L43.5227 62.2C42.7621 62.2 42.0617 62.4468 41.5155 62.9929L42.2227 63.7ZM43.5227 63.2L43.5227 64.2C43.7419 64.2 43.8445 64.2357 43.8774 64.2515C43.8912 64.2581 43.8908 64.2602 43.8847 64.2542C43.8783 64.248 43.8763 64.2435 43.8782 64.2472L44.7727 63.8L45.6671 63.3528C45.2299 62.4783 44.3546 62.2 43.5227 62.2L43.5227 63.2ZM44.7727 63.8L43.8782 64.2472C44.0334 64.5575 44.1571 64.9213 44.2421 65.3461L45.2227 65.15L46.2032 64.9539C46.0882 64.3787 45.9119 63.8425 45.6671 63.3528L44.7727 63.8ZM45.2227 65.15L44.2421 65.3461C44.3755 66.0131 44.6668 66.615 45.1044 67.1402L45.8727 66.5L46.6409 65.8598C46.4119 65.585 46.2698 65.2869 46.2032 64.9539L45.2227 65.15ZM45.8727 66.5L45.1355 67.1757C45.785 67.8843 46.7696 68.1 47.7727 68.1L47.7727 67.1L47.7727 66.1C46.9757 66.1 46.6936 65.9157 46.6098 65.8243L45.8727 66.5ZM47.7727 67.1L47.7727 68.1C50.0514 68.1 51.8803 67.0103 53.2071 65.0011L52.3727 64.45L51.5382 63.8989C50.5317 65.423 49.2939 66.1 47.7727 66.1L47.7727 67.1ZM52.3727 64.45L53.2047 65.0047C54.5458 62.9931 55.1727 60.4317 55.1727 57.4L54.1727 57.4L53.1727 57.4C53.1727 60.1683 52.5996 62.3069 51.5406 63.8953L52.3727 64.45ZM54.1727 57.4L55.1727 57.4C55.1727 54.1211 54.7112 51.5004 53.6665 49.6673C52.5741 47.7507 50.8696 46.75 48.6727 46.75L48.6727 47.75L48.6727 48.75C50.1424 48.75 51.1879 49.3577 51.9289 50.6577C52.7174 52.0413 53.1727 54.2455 53.1727 57.4L54.1727 57.4ZM48.6727 47.75L48.6727 46.75C47.1764 46.75 45.8385 47.1075 44.7112 47.8725L45.2727 48.7L45.8342 49.5275C46.5735 49.0258 47.5023 48.75 48.6727 48.75L48.6727 47.75ZM45.2727 48.7L44.6727 47.9C44.5772 47.9716 44.5078 48.0122 44.4634 48.0336C44.418 48.0555 44.4152 48.0494 44.4486 48.0452C44.4877 48.0403 44.5615 48.0403 44.6488 48.073C44.7362 48.1058 44.7927 48.1548 44.8201 48.1856L44.0727 48.85L43.3252 49.5144C43.6785 49.9118 44.1716 50.0954 44.6967 50.0298C45.1477 49.9734 45.5477 49.7437 45.8727 49.5L45.2727 48.7ZM44.0727 48.85L44.9301 48.3355C44.9532 48.3739 44.975 48.4303 44.9811 48.497C44.9869 48.5612 44.9753 48.6043 44.9713 48.6162C44.9683 48.6253 44.9734 48.6057 45.0073 48.5567C45.0409 48.5082 45.0954 48.4414 45.1798 48.3571L44.4727 47.65L43.7655 46.9429C43.4783 47.2301 43.2098 47.5764 43.074 47.9838C42.9238 48.4342 42.9512 48.9245 43.2152 49.3645L44.0727 48.85ZM44.4727 47.65L45.1593 48.377L48.7593 44.977L48.0727 44.25L47.386 43.523L43.786 46.923L44.4727 47.65ZM48.0727 44.25L48.7544 44.9816C50.2588 43.5798 51.4005 42.255 52.1346 41.007L51.2727 40.5L50.4107 39.993C49.8115 41.0117 48.8199 42.1869 47.3909 43.5184L48.0727 44.25ZM51.2727 40.5L52.1346 41.007C52.877 39.7449 53.2727 38.4385 53.2727 37.1L52.2727 37.1L51.2727 37.1C51.2727 38.0282 51.0017 38.9884 50.4107 39.993L51.2727 40.5ZM52.2727 37.1L53.2727 37.1C53.2727 35.7255 52.9574 34.5116 52.1846 33.6024L51.4227 34.25L50.6607 34.8976C51.0212 35.3217 51.2727 36.0078 51.2727 37.1L52.2727 37.1ZM51.4227 34.25L52.2181 33.644C51.4752 32.6689 50.416 32.2 49.1727 32.2L49.1727 33.2L49.1727 34.2C49.8626 34.2 50.3035 34.4311 50.6272 34.856L51.4227 34.25ZM49.1727 33.2L49.1727 32.2C47.6262 32.2 46.2946 32.7837 45.2399 33.9195L45.9727 34.6L46.7055 35.2804C47.3841 34.5496 48.1858 34.2 49.1727 34.2L49.1727 33.2ZM45.9727 34.6L45.2399 33.9195C44.2044 35.0347 43.5747 36.5187 43.2857 38.2889L44.2727 38.45L45.2596 38.6111C45.5039 37.1146 46.0076 36.032 46.7055 35.2804L45.9727 34.6ZM44.2727 38.45L43.2814 38.3178C43.2651 38.4404 43.2438 38.3896 43.3281 38.3054C43.3714 38.262 43.4226 38.2312 43.4697 38.214C43.5131 38.1981 43.5356 38.2 43.5227 38.2L43.5227 39.2L43.5227 40.2C43.9409 40.2 44.3891 40.0728 44.7423 39.7196C45.0765 39.3854 45.2136 38.9596 45.2639 38.5822L44.2727 38.45ZM43.5227 39.2L43.5227 38.2C43.5097 38.2 43.5569 38.1976 43.633 38.2318C43.7185 38.2703 43.799 38.3367 43.8547 38.4203C43.9051 38.4959 43.9124 38.5508 43.9119 38.5472C43.9111 38.5423 43.9065 38.501 43.9165 38.4104L42.9227 38.3L41.9288 38.1896C41.8856 38.5782 41.8972 39.0895 42.1906 39.5297C42.5298 40.0386 43.0652 40.2 43.5227 40.2L43.5227 39.2ZM42.9227 38.3L43.9163 38.4122C44.1277 36.5399 44.8086 35.1212 45.9109 34.0755L45.2227 33.35L44.5344 32.6245C43.0367 34.0454 42.1842 35.9268 41.929 38.1878L42.9227 38.3ZM45.2227 33.35L45.9017 34.0841C47.0376 33.0334 48.4233 32.5 50.1227 32.5L50.1227 31.5L50.1227 30.5C47.9554 30.5 46.0744 31.1999 44.5436 32.6159L45.2227 33.35ZM50.1227 31.5L50.1227 32.5C51.5943 32.5 52.6641 32.9066 53.4403 33.6311L54.1227 32.9L54.805 32.1689C53.5812 31.0267 51.9843 30.5 50.1227 30.5L50.1227 31.5ZM54.1227 32.9L53.4659 33.6541C54.2537 34.3403 54.6727 35.2674 54.6727 36.55L55.6727 36.55L56.6727 36.55C56.6727 34.766 56.0582 33.2597 54.7794 32.1459L54.1227 32.9ZM55.6727 36.55L54.6727 36.55C54.6727 38.6398 52.9302 41.1772 48.6548 44.1269L49.2227 44.95L49.7905 45.7731C54.1151 42.7895 56.6727 39.7269 56.6727 36.55L55.6727 36.55ZM49.2227 44.95L48.6516 44.1291L47.5016 44.9291L48.0727 45.75L48.6437 46.5709L49.7937 45.7709L49.2227 44.95ZM48.0727 45.75L47.4727 44.95C47.3085 45.0731 47.1283 45.2565 47.016 45.5186C46.8976 45.7948 46.8875 46.0825 46.9525 46.3425L47.9227 46.1L48.8928 45.8575C48.9245 45.9842 48.9227 46.1469 48.8543 46.3064C48.792 46.4518 48.7035 46.5269 48.6727 46.55L48.0727 45.75ZM47.9227 46.1L47.0906 46.6547C47.475 47.2312 48.0997 47.2544 48.4688 47.1806L48.2727 46.2L48.0765 45.2194C48.0905 45.2166 48.1911 45.1974 48.3349 45.2385C48.5023 45.2863 48.655 45.3958 48.7547 45.5453L47.9227 46.1ZM48.2727 46.2L48.5548 47.1594C49.0338 47.0185 49.5055 46.95 49.9727 46.95L49.9727 45.95L49.9727 44.95C49.3065 44.95 48.6449 45.0482 47.9905 45.2406L48.2727 46.2ZM49.9727 45.95L49.9727 46.95C51.3038 46.95 52.4419 47.3215 53.4263 48.0527L54.0227 47.25L54.619 46.4473C53.27 45.4452 51.7082 44.95 49.9727 44.95L49.9727 45.95ZM54.0227 47.25L53.4263 48.0527C54.4277 48.7966 55.2433 49.86 55.8525 51.2916L56.7727 50.9L57.6928 50.5084C56.9687 48.8067 55.951 47.4367 54.619 46.4473L54.0227 47.25ZM56.7727 50.9L55.8556 51.2987C56.4579 52.6841 56.7727 54.3108 56.7727 56.2L57.7727 56.2L58.7727 56.2C58.7727 54.0892 58.4207 52.1826 57.6897 50.5013L56.7727 50.9ZM57.7727 56.2L56.7727 56.2C56.7727 57.679 56.5113 59.0899 55.9899 60.4396L56.9227 60.8L57.8555 61.1604C58.4673 59.5767 58.7727 57.921 58.7727 56.2L57.7727 56.2ZM56.9227 60.8L55.9899 60.4396C55.4606 61.8094 54.7478 63.0316 53.8526 64.112L54.6227 64.75L55.3927 65.388C56.4308 64.1351 57.2514 62.7239 57.8555 61.1604L56.9227 60.8ZM54.6227 64.75L53.8618 64.1011C52.9702 65.1465 51.9653 65.9659 50.8471 66.5703L51.3227 67.45L51.7982 68.3297C53.1467 67.6008 54.3418 66.6202 55.3835 65.3989L54.6227 64.75ZM51.3227 67.45L50.8471 66.5703C49.7521 67.1622 48.6313 67.45 47.4727 67.45L47.4727 68.45L47.4727 69.45C48.9806 69.45 50.4266 69.0711 51.7982 68.3297L51.3227 67.45Z" fill="black" mask="url(#path-3-outside-2_1704_1155)"/>
</svg>
