<svg width="100" height="100" viewBox="0 0 100 100" fill="none" xmlns="http://www.w3.org/2000/svg">
<path d="M50 10C72.0914 10 90 27.9086 90 50V86.3584C90 88.3695 88.3696 90 86.3584 90H13.6416C11.6305 90 10 88.3696 10 86.3584V50C10 27.9086 27.9086 10 50 10Z" fill="url(#paint0_linear_255_229)"/>
<path d="M50 10C72.0914 10 90 27.9086 90 50V86.3584C90 88.3695 88.3696 90 86.3584 90H13.6416C11.6305 90 10 88.3696 10 86.3584V50C10 27.9086 27.9086 10 50 10Z" stroke="black" stroke-width="2"/>

<defs>
<linearGradient id="paint0_linear_255_229" x1="61.5319" y1="9" x2="-11.4033" y2="48.0538" gradientUnits="userSpaceOnUse">
<stop stop-color="#FFE8F4"/>
<stop offset="1" stop-color="#FF88CA"/>
</linearGradient>
</defs>
</svg>
