<svg width="100" height="100" viewBox="0 0 100 100" fill="none" xmlns="http://www.w3.org/2000/svg">
<path d="M47.7578 4.02832C48.9139 2.72757 50.9188 2.68673 52.1279 3.90625L52.2422 4.02832L65.8701 19.3604C66.5414 20.1156 67.4247 20.6488 68.4023 20.8916L68.5996 20.9365L88.6914 25.0723C90.3959 25.4231 91.4339 27.139 90.9824 28.7959L90.9336 28.9561L84.4697 48.4248C84.1514 49.3837 84.1316 50.4148 84.4102 51.3828L84.4697 51.5752L90.9336 71.0439C91.482 72.6955 90.5151 74.4522 88.8545 74.8896L88.6914 74.9277L68.5996 79.0635C67.6097 79.2672 66.7059 79.7657 66.0068 80.4912L65.8701 80.6396L52.2422 95.9717C51.0861 97.2724 49.0812 97.3133 47.8721 96.0938L47.7578 95.9717L34.1299 80.6396C33.4586 79.8844 32.5753 79.3512 31.5977 79.1084L31.4004 79.0635L11.3086 74.9277C9.60408 74.5769 8.56607 72.861 9.01758 71.2041L9.06641 71.0439L15.5303 51.5752C15.8486 50.6163 15.8685 49.5852 15.5898 48.6172L15.5303 48.4248L9.06641 28.9561C8.518 27.3045 9.48487 25.5478 11.1455 25.1104L11.3086 25.0723L31.4004 20.9365C32.3903 20.7328 33.2941 20.2343 33.9932 19.5088L34.1299 19.3604L47.7578 4.02832Z" fill="url(#paint0_linear_255_122)" stroke="black" stroke-width="2"/>
<path d="M50.4554 66.1323C48.7154 66.1323 47.1854 65.3973 45.8654 63.9273C44.5454 62.4573 43.5254 60.4623 42.8054 57.9423C42.0854 55.4223 41.7254 52.6023 41.7254 49.4823C41.7254 46.3623 42.0854 43.5573 42.8054 41.0673C43.5254 38.5473 44.5454 36.5523 45.8654 35.0823C47.1854 33.6123 48.7154 32.8773 50.4554 32.8773C52.1954 32.8773 53.7104 33.6123 55.0004 35.0823C56.3204 36.5523 57.3404 38.5473 58.0604 41.0673C58.8104 43.5573 59.1854 46.3623 59.1854 49.4823C59.1854 52.6023 58.8104 55.4223 58.0604 57.9423C57.3404 60.4623 56.3204 62.4573 55.0004 63.9273C53.7104 65.3973 52.1954 66.1323 50.4554 66.1323ZM50.4554 64.9173C52.3454 64.9173 53.7254 63.6423 54.5954 61.0923C55.4954 58.5423 55.9454 54.6723 55.9454 49.4823C55.9454 44.2923 55.4954 40.4373 54.5954 37.9173C53.7254 35.3673 52.3454 34.0923 50.4554 34.0923C48.5654 34.0923 47.1704 35.3673 46.2704 37.9173C45.4004 40.4373 44.9654 44.2923 44.9654 49.4823C44.9654 54.6723 45.4004 58.5423 46.2704 61.0923C47.1704 63.6423 48.5654 64.9173 50.4554 64.9173Z" fill="black"/>
<defs>
<linearGradient id="paint0_linear_255_122" x1="73.756" y1="-5.95167" x2="-10.7909" y2="48.5169" gradientUnits="userSpaceOnUse">
<stop offset="0.0361371" stop-color="#FFE6C6"/>
<stop offset="0.916137" stop-color="#D58F5F"/>
</linearGradient>
</defs>
</svg>
