<svg width="100" height="100" viewBox="0 0 100 100" fill="none" xmlns="http://www.w3.org/2000/svg">
<path d="M48.8831 8.95602C49.5888 8.72622 50.3417 8.69764 51.0582 8.87008L51.3626 8.95602L73.147 16.0634C73.8498 16.2927 74.4725 16.7123 74.9481 17.2724L75.1427 17.5204L88.5733 36.1405C89.0656 36.8229 89.3286 37.6445 89.3261 38.4871L89.2573 61.5124C89.2551 62.2497 89.049 62.9705 88.6651 63.5964L88.4905 63.8591L74.9485 82.4801C74.5129 83.079 73.9213 83.5443 73.2414 83.8268L72.9442 83.9362L51.1173 91.0445C50.4117 91.2743 49.6585 91.3028 48.9422 91.1305L48.6378 91.0445L26.8524 83.9362C26.1498 83.7068 25.5268 83.2881 25.0513 82.7281L24.8567 82.4801L11.427 63.8591C10.9348 63.1766 10.6708 62.3551 10.6733 61.5124L10.7421 38.4871C10.7443 37.7499 10.9504 37.029 11.3343 36.4032L11.5099 36.1405L25.0509 17.5204C25.4866 16.9213 26.0788 16.4563 26.759 16.1738L27.0552 16.0634L48.8831 8.95602Z" fill="url(#paint0_linear_255_142)" stroke="black" stroke-width="2"/>
<path d="M50.0008 65.405C48.2608 65.405 46.7308 64.67 45.4108 63.2C44.0908 61.73 43.0708 59.735 42.3508 57.215C41.6308 54.695 41.2708 51.875 41.2708 48.755C41.2708 45.635 41.6308 42.83 42.3508 40.34C43.0708 37.82 44.0908 35.825 45.4108 34.355C46.7308 32.885 48.2608 32.15 50.0008 32.15C51.7408 32.15 53.2558 32.885 54.5458 34.355C55.8658 35.825 56.8858 37.82 57.6058 40.34C58.3558 42.83 58.7308 45.635 58.7308 48.755C58.7308 51.875 58.3558 54.695 57.6058 57.215C56.8858 59.735 55.8658 61.73 54.5458 63.2C53.2558 64.67 51.7408 65.405 50.0008 65.405ZM50.0008 64.19C51.8908 64.19 53.2708 62.915 54.1408 60.365C55.0408 57.815 55.4908 53.945 55.4908 48.755C55.4908 43.565 55.0408 39.71 54.1408 37.19C53.2708 34.64 51.8908 33.365 50.0008 33.365C48.1108 33.365 46.7158 34.64 45.8158 37.19C44.9458 39.71 44.5108 43.565 44.5108 48.755C44.5108 53.945 44.9458 57.815 45.8158 60.365C46.7158 62.915 48.1108 64.19 50.0008 64.19Z" fill="black"/>
<defs>
<linearGradient id="paint0_linear_255_142" x1="103.794" y1="7.49997" x2="1.98172" y2="36.4286" gradientUnits="userSpaceOnUse">
<stop offset="0.332359" stop-color="#B2F2FF"/>
<stop offset="1" stop-color="#86FF8F"/>
</linearGradient>
</defs>
</svg>
