<svg width="100" height="100" viewBox="0 0 100 100" fill="none" xmlns="http://www.w3.org/2000/svg">
<mask id="path-1-inside-1_255_159" fill="white">
<path fill-rule="evenodd" clip-rule="evenodd" d="M47.7981 89.9999L49.9523 89.9999L89.8274 90C93.0499 90 95.4309 86.9964 94.6955 83.859L78.288 13.859C77.7581 11.5984 75.7418 10 73.4199 10L52.202 10L47.7981 10L26.5801 10C24.2583 10 22.2419 11.5984 21.7121 13.859L5.3046 83.859C4.5692 86.9964 6.95017 90 10.1727 90L47.7981 89.9999Z"/>
</mask>
<path fill-rule="evenodd" clip-rule="evenodd" d="M47.7981 89.9999L49.9523 89.9999L89.8274 90C93.0499 90 95.4309 86.9964 94.6955 83.859L78.288 13.859C77.7581 11.5984 75.7418 10 73.4199 10L52.202 10L47.7981 10L26.5801 10C24.2583 10 22.2419 11.5984 21.7121 13.859L5.3046 83.859C4.5692 86.9964 6.95017 90 10.1727 90L47.7981 89.9999Z" fill="url(#paint0_linear_255_159)"/>
<path d="M49.9523 89.9999L49.9523 87.9999L49.9523 89.9999ZM47.7981 89.9999L47.7981 87.9999L47.7981 87.9999L47.7981 89.9999ZM21.7121 13.859L19.7648 13.4026L21.7121 13.859ZM49.9523 91.9999L47.7981 91.9999L47.7981 87.9999L49.9523 87.9999L49.9523 91.9999ZM89.8274 92L49.9523 91.9999L49.9523 87.9999L89.8274 88L89.8274 92ZM80.2352 13.4026L96.6427 83.4026L92.7483 84.3154L76.3408 14.3154L80.2352 13.4026ZM52.202 8L73.4199 8L73.4199 12L52.202 12L52.202 8ZM52.202 12L47.7981 12L47.7981 8L52.202 8L52.202 12ZM47.7981 12L26.5801 12L26.5801 8L47.7981 8L47.7981 12ZM23.6593 14.3154L7.25182 84.3154L3.35737 83.4025L19.7648 13.4026L23.6593 14.3154ZM10.1727 88L47.7981 87.9999L47.7981 91.9999L10.1727 92L10.1727 88ZM26.5801 12C25.187 12 23.9772 12.959 23.6593 14.3154L19.7648 13.4026C20.5067 10.2377 23.3295 8 26.5801 8L26.5801 12ZM76.3408 14.3154C76.0229 12.959 74.8131 12 73.4199 12L73.4199 8C76.6705 8 79.4934 10.2377 80.2352 13.4026L76.3408 14.3154ZM7.25182 84.3154C6.81058 86.1979 8.23917 88 10.1727 88L10.1727 92C5.66118 92 2.32781 87.795 3.35737 83.4025L7.25182 84.3154ZM89.8274 88C91.7609 88 93.1895 86.1979 92.7483 84.3154L96.6427 83.4026C97.6723 87.795 94.3389 92 89.8274 92L89.8274 88Z" fill="black" mask="url(#path-1-inside-1_255_159)"/>
<path d="M49.3715 65.711C47.6315 65.711 46.1015 64.976 44.7815 63.506C43.4615 62.036 42.4415 60.041 41.7215 57.521C41.0015 55.001 40.6415 52.181 40.6415 49.061C40.6415 45.941 41.0015 43.136 41.7215 40.646C42.4415 38.126 43.4615 36.131 44.7815 34.661C46.1015 33.191 47.6315 32.456 49.3715 32.456C51.1115 32.456 52.6265 33.191 53.9165 34.661C55.2365 36.131 56.2565 38.126 56.9765 40.646C57.7265 43.136 58.1015 45.941 58.1015 49.061C58.1015 52.181 57.7265 55.001 56.9765 57.521C56.2565 60.041 55.2365 62.036 53.9165 63.506C52.6265 64.976 51.1115 65.711 49.3715 65.711ZM49.3715 64.496C51.2615 64.496 52.6415 63.221 53.5115 60.671C54.4115 58.121 54.8615 54.251 54.8615 49.061C54.8615 43.871 54.4115 40.016 53.5115 37.496C52.6415 34.946 51.2615 33.671 49.3715 33.671C47.4815 33.671 46.0865 34.946 45.1865 37.496C44.3165 40.016 43.8815 43.871 43.8815 49.061C43.8815 54.251 44.3165 58.121 45.1865 60.671C46.0865 63.221 47.4815 64.496 49.3715 64.496Z" fill="black"/>
<defs>
<linearGradient id="paint0_linear_255_159" x1="100.166" y1="30.9952" x2="58.8128" y2="102.934" gradientUnits="userSpaceOnUse">
<stop offset="0.13158" stop-color="#FFECDB"/>
<stop offset="0.916137" stop-color="#9BDABE"/>
</linearGradient>
</defs>
</svg>
