<svg width="100" height="100" viewBox="0 0 100 100" fill="none" xmlns="http://www.w3.org/2000/svg">
<path d="M43.3975 10.3799C46.6843 6.1223 53.06 6.0561 56.4434 10.1807L56.6025 10.3799C59.1808 13.7197 63.4872 15.1973 67.5537 14.1729L67.9463 14.0664C73.1081 12.5538 78.3056 16.2474 78.6182 21.5732L78.6299 21.8281C78.7528 26.0454 81.368 29.7716 85.2598 31.333L85.6406 31.4775C90.7056 33.2879 92.7387 39.3309 89.8613 43.8232L89.7207 44.0361C87.3412 47.5202 87.2673 52.0722 89.498 55.623L89.7207 55.9639C92.7544 60.4056 90.8474 66.4895 85.8789 68.4326L85.6406 68.5225C81.6676 69.9425 78.9318 73.5816 78.6494 77.7656L78.6299 78.1719C78.4734 83.5484 73.354 87.3501 68.1924 86.002L67.9463 85.9336C63.8973 84.7472 59.5451 86.0837 56.8574 89.3027L56.6025 89.6201C53.3157 93.8777 46.94 93.9439 43.5566 89.8193L43.3975 89.6201C40.8192 86.2803 36.5128 84.8027 32.4463 85.8271L32.0537 85.9336C26.8918 87.4462 21.6944 83.7526 21.3818 78.4268L21.3701 78.1719C21.2472 73.9546 18.632 70.2284 14.7402 68.667L14.3594 68.5225C9.29443 66.7121 7.26134 60.6691 10.1387 56.1768L10.2793 55.9639C12.6588 52.4798 12.7327 47.9278 10.502 44.377L10.2793 44.0361C7.24561 39.5944 9.15262 33.5105 14.1211 31.5674L14.3594 31.4775C18.3324 30.0575 21.0682 26.4184 21.3506 22.2344L21.3701 21.8281C21.5266 16.4516 26.646 12.6499 31.8076 13.998L32.0537 14.0664C36.1027 15.2528 40.4549 13.9163 43.1426 10.6973L43.3975 10.3799Z" fill="url(#paint0_linear_255_148)" stroke="black" stroke-width="2.23353"/>
<path d="M49.5107 64.9933C47.7707 64.9933 46.2407 64.2583 44.9207 62.7883C43.6007 61.3183 42.5807 59.3233 41.8607 56.8033C41.1407 54.2833 40.7807 51.4633 40.7807 48.3433C40.7807 45.2233 41.1407 42.4183 41.8607 39.9283C42.5807 37.4083 43.6007 35.4133 44.9207 33.9433C46.2407 32.4733 47.7707 31.7383 49.5107 31.7383C51.2507 31.7383 52.7657 32.4733 54.0557 33.9433C55.3757 35.4133 56.3957 37.4083 57.1157 39.9283C57.8657 42.4183 58.2407 45.2233 58.2407 48.3433C58.2407 51.4633 57.8657 54.2833 57.1157 56.8033C56.3957 59.3233 55.3757 61.3183 54.0557 62.7883C52.7657 64.2583 51.2507 64.9933 49.5107 64.9933ZM49.5107 63.7783C51.4007 63.7783 52.7807 62.5033 53.6507 59.9533C54.5507 57.4033 55.0007 53.5333 55.0007 48.3433C55.0007 43.1533 54.5507 39.2983 53.6507 36.7783C52.7807 34.2283 51.4007 32.9533 49.5107 32.9533C47.6207 32.9533 46.2257 34.2283 45.3257 36.7783C44.4557 39.2983 44.0207 43.1533 44.0207 48.3433C44.0207 53.5333 44.4557 57.4033 45.3257 59.9533C46.2257 62.5033 47.6207 63.7783 49.5107 63.7783Z" fill="black"/>
<defs>
<linearGradient id="paint0_linear_255_148" x1="65.9812" y1="10.6994" x2="-5.54789" y2="55.7714" gradientUnits="userSpaceOnUse">
<stop stop-color="#FBD6F2"/>
<stop offset="1" stop-color="#CC7BF4"/>
</linearGradient>
</defs>
</svg>
