<svg width="110" height="110" viewBox="0 0 110 110" fill="none" xmlns="http://www.w3.org/2000/svg">
<path d="M54.667 99C49.7997 99 46.3971 98.3542 44.0498 97.2324C41.8901 96.2002 40.5943 94.7524 39.8525 92.9307L39.7109 92.5615L39.3428 91.5303L38.3496 91.9902C36.4577 92.8658 34.4425 93.0315 32.0859 92.1992C29.8357 91.4044 27.2423 89.6873 24.1738 86.7226L23.5537 86.1123C20.1141 82.6727 18.206 79.8177 17.3965 77.3721C16.6033 74.9756 16.8475 72.9233 17.8408 70.9795L18.3535 69.9756L17.2959 69.5859C15.342 68.8672 13.8025 67.5614 12.7266 65.3115C11.6306 63.0197 11 59.7126 11 55C11 50.2874 11.6306 46.9803 12.7266 44.6885C13.8025 42.4385 15.342 41.1328 17.2959 40.4141L18.3535 40.0244L17.8408 39.0205C16.8476 37.0767 16.6033 35.0244 17.3965 32.6279C18.1554 30.3351 19.8799 27.6823 22.9268 24.5254L23.5537 23.8877C26.8949 20.5465 29.6857 18.6486 32.0859 17.8008C34.4425 16.9685 36.4577 17.1342 38.3496 18.0098L39.3428 18.4697L39.7109 17.4385C40.4248 15.4423 41.7461 13.8687 44.0498 12.7676C46.3971 11.6457 49.7997 11 54.667 11C59.5344 11 62.9369 11.6456 65.2842 12.7676C67.5877 13.8686 68.9083 15.4424 69.6221 17.4385L69.9902 18.4697L70.9834 18.0098C72.8754 17.1341 74.8906 16.9686 77.2471 17.8008C79.4973 18.5955 82.0907 20.3127 85.1592 23.2773L85.7793 23.8877C89.1682 27.2766 91.0718 30.0981 91.9014 32.5205C92.715 34.8965 92.511 36.9299 91.5791 38.8467L91.0684 39.8984L92.1865 40.2402C94.3158 40.8908 95.9745 42.1533 97.1318 44.4033C98.3139 46.7017 99 50.0855 99 55C99 59.9145 98.3139 63.2983 97.1318 65.5967C95.9745 67.8467 94.3158 69.1092 92.1865 69.7598L91.0684 70.1016L91.5791 71.1533C92.511 73.0701 92.715 75.1035 91.9014 77.4795C91.1237 79.7505 89.4019 82.3722 86.3975 85.4834L85.7793 86.1123C82.4379 89.4537 79.6474 91.3515 77.2471 92.1992C74.8905 93.0315 72.8754 92.8659 70.9834 91.9902L69.9902 91.5303L69.6221 92.5615C68.9083 94.5576 67.5877 96.1314 65.2842 97.2324C62.9369 98.3543 59.5344 99 54.667 99Z" fill="url(#paint0_linear_255_225)" stroke="black" stroke-width="2"/>
<path d="M55.0009 70.405C53.2609 70.405 51.7309 69.67 50.4109 68.2C49.0909 66.73 48.0709 64.735 47.3509 62.215C46.6309 59.695 46.2709 56.875 46.2709 53.755C46.2709 50.635 46.6309 47.83 47.3509 45.34C48.0709 42.82 49.0909 40.825 50.4109 39.355C51.7309 37.885 53.2609 37.15 55.0009 37.15C56.7409 37.15 58.2559 37.885 59.5459 39.355C60.8659 40.825 61.8859 42.82 62.6059 45.34C63.3559 47.83 63.7309 50.635 63.7309 53.755C63.7309 56.875 63.3559 59.695 62.6059 62.215C61.8859 64.735 60.8659 66.73 59.5459 68.2C58.2559 69.67 56.7409 70.405 55.0009 70.405ZM55.0009 69.19C56.8909 69.19 58.2709 67.915 59.1409 65.365C60.0409 62.815 60.4909 58.945 60.4909 53.755C60.4909 48.565 60.0409 44.71 59.1409 42.19C58.2709 39.64 56.8909 38.365 55.0009 38.365C53.1109 38.365 51.7159 39.64 50.8159 42.19C49.9459 44.71 49.5109 48.565 49.5109 53.755C49.5109 58.945 49.9459 62.815 50.8159 65.365C51.7159 67.915 53.1109 69.19 55.0009 69.19Z" fill="black"/>
<defs>
<linearGradient id="paint0_linear_255_225" x1="33.6195" y1="105.356" x2="109.712" y2="56.3348" gradientUnits="userSpaceOnUse">
<stop stop-color="#99ECF2"/>
<stop offset="1" stop-color="#FCFFD0"/>
</linearGradient>
</defs>
</svg>
