<svg width="100" height="100" viewBox="0 0 100 100" fill="none" xmlns="http://www.w3.org/2000/svg">
<path d="M47.6484 7.94434C48.9629 6.98933 50.7141 6.92982 52.083 7.76562L52.3516 7.94434L89.2705 34.7676C90.5849 35.7225 91.1832 37.3696 90.8115 38.9297L90.7236 39.2402L76.6221 82.6416C76.0866 84.2897 74.5503 85.4062 72.8174 85.4062H27.1826C25.558 85.4062 24.1065 84.4249 23.4902 82.9443L23.3779 82.6416L9.27637 39.2402C8.77435 37.6952 9.258 36.0115 10.4756 34.9678L10.7295 34.7676L47.6484 7.94434Z" fill="url(#paint0_linear_255_129)" stroke="black" stroke-width="2"/>
<path d="M50.0009 65.405C48.2609 65.405 46.7309 64.67 45.4109 63.2C44.0909 61.73 43.0709 59.735 42.3509 57.215C41.6309 54.695 41.2709 51.875 41.2709 48.755C41.2709 45.635 41.6309 42.83 42.3509 40.34C43.0709 37.82 44.0909 35.825 45.4109 34.355C46.7309 32.885 48.2609 32.15 50.0009 32.15C51.7409 32.15 53.2559 32.885 54.5459 34.355C55.8659 35.825 56.8859 37.82 57.6059 40.34C58.3559 42.83 58.7309 45.635 58.7309 48.755C58.7309 51.875 58.3559 54.695 57.6059 57.215C56.8859 59.735 55.8659 61.73 54.5459 63.2C53.2559 64.67 51.7409 65.405 50.0009 65.405ZM50.0009 64.19C51.8909 64.19 53.2709 62.915 54.1409 60.365C55.0409 57.815 55.4909 53.945 55.4909 48.755C55.4909 43.565 55.0409 39.71 54.1409 37.19C53.2709 34.64 51.8909 33.365 50.0009 33.365C48.1109 33.365 46.7159 34.64 45.8159 37.19C44.9459 39.71 44.5109 43.565 44.5109 48.755C44.5109 53.945 44.9459 57.815 45.8159 60.365C46.7159 62.915 48.1109 64.19 50.0009 64.19Z" fill="black"/>
<defs>
<linearGradient id="paint0_linear_255_129" x1="20.928" y1="95" x2="92.6341" y2="55.1175" gradientUnits="userSpaceOnUse">
<stop offset="0.0840252" stop-color="#FFAA6E"/>
<stop offset="1" stop-color="#FFE070"/>
</linearGradient>
</defs>
</svg>
