<svg width="110" height="110" viewBox="0 0 110 110" fill="none" xmlns="http://www.w3.org/2000/svg">
<path d="M55 9.87695C60.0282 19.3608 71.777 23.2108 81.4189 18.4922C79.928 29.1348 87.167 39.1845 97.75 41.0537C90.2703 48.8106 90.2706 61.1882 97.75 68.9453C87.1672 70.8144 79.9286 80.8645 81.4189 91.5068C71.7773 86.7886 60.0284 90.6389 55 100.122C49.9715 90.6386 38.2219 86.788 28.5801 91.5068C30.0705 80.8642 22.8324 70.814 12.249 68.9453C19.729 61.1881 19.7293 48.8108 12.249 41.0537C22.8326 39.1849 30.0711 29.1352 28.5801 18.4922C38.2222 23.2114 49.9716 19.3611 55 9.87695Z" fill="url(#paint0_linear_255_155)" stroke="black" stroke-width="2"/>
<path d="M54.9871 71.2242C53.2471 71.2242 51.7171 70.4892 50.3971 69.0192C49.0771 67.5492 48.0571 65.5542 47.3371 63.0342C46.6171 60.5142 46.2571 57.6942 46.2571 54.5742C46.2571 51.4542 46.6171 48.6492 47.3371 46.1592C48.0571 43.6392 49.0771 41.6442 50.3971 40.1742C51.7171 38.7042 53.2471 37.9692 54.9871 37.9692C56.7271 37.9692 58.2421 38.7042 59.5321 40.1742C60.8521 41.6442 61.8721 43.6392 62.5921 46.1592C63.3421 48.6492 63.7171 51.4542 63.7171 54.5742C63.7171 57.6942 63.3421 60.5142 62.5921 63.0342C61.8721 65.5542 60.8521 67.5492 59.5321 69.0192C58.2421 70.4892 56.7271 71.2242 54.9871 71.2242ZM54.9871 70.0092C56.8771 70.0092 58.2571 68.7342 59.1271 66.1842C60.0271 63.6342 60.4771 59.7642 60.4771 54.5742C60.4771 49.3842 60.0271 45.5292 59.1271 43.0092C58.2571 40.4592 56.8771 39.1842 54.9871 39.1842C53.0971 39.1842 51.7021 40.4592 50.8021 43.0092C49.9321 45.5292 49.4971 49.3842 49.4971 54.5742C49.4971 59.7642 49.9321 63.6342 50.8021 66.1842C51.7021 68.7342 53.0971 70.0092 54.9871 70.0092Z" fill="black"/>
<defs>
<linearGradient id="paint0_linear_255_155" x1="67.6569" y1="7.5" x2="2.53598" y2="54.2388" gradientUnits="userSpaceOnUse">
<stop stop-color="#E9F1FF"/>
<stop offset="1" stop-color="#8EACFF"/>
</linearGradient>
</defs>
</svg>
