<svg width="100" height="100" viewBox="0 0 100 100" fill="none" xmlns="http://www.w3.org/2000/svg">
<path d="M47.1436 9.34375C48.663 7.79349 51.1286 7.74472 52.707 9.19824L52.8564 9.34375L71.5596 28.4258L71.5664 28.4336L71.5742 28.4404L90.6562 47.1436C92.2065 48.663 92.2553 51.1286 90.8018 52.707L90.6562 52.8564L71.5742 71.5596L71.5664 71.5664L71.5596 71.5742L52.8564 90.6562C51.337 92.2065 48.8714 92.2553 47.293 90.8018L47.1436 90.6562L28.4404 71.5742L28.4336 71.5664L28.4258 71.5596L9.34375 52.8564C7.79349 51.337 7.74472 48.8714 9.19824 47.293L9.34375 47.1436L28.4258 28.4404L28.4336 28.4336L28.4404 28.4258L47.1436 9.34375Z" fill="url(#paint0_linear_255_137)" stroke="black" stroke-width="2"/>
<path d="M50.0009 65.405C48.2609 65.405 46.7309 64.67 45.4109 63.2C44.0909 61.73 43.0709 59.735 42.3509 57.215C41.6309 54.695 41.2709 51.875 41.2709 48.755C41.2709 45.635 41.6309 42.83 42.3509 40.34C43.0709 37.82 44.0909 35.825 45.4109 34.355C46.7309 32.885 48.2609 32.15 50.0009 32.15C51.7409 32.15 53.2559 32.885 54.5459 34.355C55.8659 35.825 56.8859 37.82 57.6059 40.34C58.3559 42.83 58.7309 45.635 58.7309 48.755C58.7309 51.875 58.3559 54.695 57.6059 57.215C56.8859 59.735 55.8659 61.73 54.5459 63.2C53.2559 64.67 51.7409 65.405 50.0009 65.405ZM50.0009 64.19C51.8909 64.19 53.2709 62.915 54.1409 60.365C55.0409 57.815 55.4909 53.945 55.4909 48.755C55.4909 43.565 55.0409 39.71 54.1409 37.19C53.2709 34.64 51.8909 33.365 50.0009 33.365C48.1109 33.365 46.7159 34.64 45.8159 37.19C44.9459 39.71 44.5109 43.565 44.5109 48.755C44.5109 53.945 44.9459 57.815 45.8159 60.365C46.7159 62.915 48.1109 64.19 50.0009 64.19Z" fill="black"/>
<defs>
<linearGradient id="paint0_linear_255_137" x1="73.3849" y1="10.0735" x2="-5.17749" y2="60.9072" gradientUnits="userSpaceOnUse">
<stop stop-color="#FAAFBE"/>
<stop offset="1" stop-color="#F3654F"/>
</linearGradient>
</defs>
</svg>
