<svg width="100" height="100" viewBox="0 0 100 100" fill="none" xmlns="http://www.w3.org/2000/svg">
<path d="M58.1787 17.1445L58.6436 17.7422L59.3447 17.457L71.6855 12.4385L73.5107 25.6357L73.6143 26.3857L74.3643 26.4893L87.5605 28.3135L82.543 40.6553L82.2578 41.3564L82.8555 41.8213L93.3711 50L82.8555 58.1787L82.2578 58.6436L82.543 59.3447L87.5605 71.6855L74.3643 73.5107L73.6143 73.6143L73.5107 74.3643L71.6855 87.5605L59.3447 82.543L58.6436 82.2578L58.1787 82.8555L50 93.3711L41.8213 82.8555L41.3564 82.2578L40.6553 82.543L28.3135 87.5605L26.4893 74.3643L26.3857 73.6143L25.6357 73.5107L12.4385 71.6855L17.457 59.3447L17.7422 58.6436L17.1445 58.1787L6.62793 50L17.1445 41.8213L17.7422 41.3564L17.457 40.6553L12.4385 28.3135L25.6357 26.4893L26.3857 26.3857L26.4893 25.6357L28.3135 12.4385L40.6553 17.457L41.3564 17.7422L41.8213 17.1445L50 6.62793L58.1787 17.1445Z" fill="url(#paint0_linear_255_118)" stroke="black" stroke-width="2"/>
<path d="M50.0009 65.8879C48.2609 65.8879 46.7309 65.1529 45.4109 63.6829C44.0909 62.2129 43.0709 60.2179 42.3509 57.6979C41.6309 55.1779 41.2709 52.3579 41.2709 49.2379C41.2709 46.1179 41.6309 43.3129 42.3509 40.8229C43.0709 38.3029 44.0909 36.3079 45.4109 34.8379C46.7309 33.3679 48.2609 32.6329 50.0009 32.6329C51.7409 32.6329 53.2559 33.3679 54.5459 34.8379C55.8659 36.3079 56.8859 38.3029 57.6059 40.8229C58.3559 43.3129 58.7309 46.1179 58.7309 49.2379C58.7309 52.3579 58.3559 55.1779 57.6059 57.6979C56.8859 60.2179 55.8659 62.2129 54.5459 63.6829C53.2559 65.1529 51.7409 65.8879 50.0009 65.8879ZM50.0009 64.6729C51.8909 64.6729 53.2709 63.3979 54.1409 60.8479C55.0409 58.2979 55.4909 54.4279 55.4909 49.2379C55.4909 44.0479 55.0409 40.1929 54.1409 37.6729C53.2709 35.1229 51.8909 33.8479 50.0009 33.8479C48.1109 33.8479 46.7159 35.1229 45.8159 37.6729C44.9459 40.1929 44.5109 44.0479 44.5109 49.2379C44.5109 54.4279 44.9459 58.2979 45.8159 60.8479C46.7159 63.3979 48.1109 64.6729 50.0009 64.6729Z" fill="black"/>
<defs>
<linearGradient id="paint0_linear_255_118" x1="21.5545" y1="95" x2="97.0987" y2="57.0489" gradientUnits="userSpaceOnUse">
<stop offset="0.0748646" stop-color="#FFD600"/>
<stop offset="0.808728" stop-color="#FFF59A"/>
</linearGradient>
</defs>
</svg>
