<svg width="110" height="110" viewBox="0 0 110 110" fill="none" xmlns="http://www.w3.org/2000/svg">
<mask id="path-1-inside-1_255_165" fill="white">
<path fill-rule="evenodd" clip-rule="evenodd" d="M46.6997 24.0222C41.0117 16.8174 35.4224 12.0328 31.5007 14.297C27.579 16.5612 28.9281 23.7945 32.324 32.3235C23.7947 28.9274 16.5611 27.578 14.2968 31.4999C12.0325 35.4217 16.8175 41.0113 24.0228 46.6996C14.9387 48.0232 8 50.4714 8 54.9998C8 59.5282 14.9385 61.9765 24.0225 63.3001C16.8175 68.9882 12.0327 74.5777 14.2969 78.4993C16.5611 82.4211 23.7944 81.0719 32.3233 77.6761C28.9274 86.2052 27.5781 93.4387 31.4999 95.7029C35.4217 97.9672 41.0113 93.1822 46.6996 85.977C48.0232 95.061 50.4714 102 54.9998 102C59.5284 102 61.9766 95.0607 63.3002 85.9763C68.9887 93.182 74.5786 97.9675 78.5005 95.7031C82.4222 93.4389 81.0732 86.2058 77.6775 77.6771C86.2059 81.0726 93.4387 82.4215 95.7028 78.4999C97.9671 74.5781 93.1821 68.9885 85.9768 63.3002C95.0609 61.9766 102 59.5284 102 54.9999C102 50.4714 95.0608 48.0232 85.9766 46.6996C93.1821 41.0112 97.9674 35.4214 95.7031 31.4996C93.4389 27.5778 86.2057 28.9269 77.6769 32.3227C81.0725 23.794 82.4215 16.561 78.4999 14.2969C74.5781 12.0326 68.9885 16.8176 63.3002 24.0229C61.9766 14.9388 59.5284 8 54.9999 8C50.4716 8 48.0234 14.9384 46.6997 24.0222Z"/>
</mask>
<path fill-rule="evenodd" clip-rule="evenodd" d="M46.6997 24.0222C41.0117 16.8174 35.4224 12.0328 31.5007 14.297C27.579 16.5612 28.9281 23.7945 32.324 32.3235C23.7947 28.9274 16.5611 27.578 14.2968 31.4999C12.0325 35.4217 16.8175 41.0113 24.0228 46.6996C14.9387 48.0232 8 50.4714 8 54.9998C8 59.5282 14.9385 61.9765 24.0225 63.3001C16.8175 68.9882 12.0327 74.5777 14.2969 78.4993C16.5611 82.4211 23.7944 81.0719 32.3233 77.6761C28.9274 86.2052 27.5781 93.4387 31.4999 95.7029C35.4217 97.9672 41.0113 93.1822 46.6996 85.977C48.0232 95.061 50.4714 102 54.9998 102C59.5284 102 61.9766 95.0607 63.3002 85.9763C68.9887 93.182 74.5786 97.9675 78.5005 95.7031C82.4222 93.4389 81.0732 86.2058 77.6775 77.6771C86.2059 81.0726 93.4387 82.4215 95.7028 78.4999C97.9671 74.5781 93.1821 68.9885 85.9768 63.3002C95.0609 61.9766 102 59.5284 102 54.9999C102 50.4714 95.0608 48.0232 85.9766 46.6996C93.1821 41.0112 97.9674 35.4214 95.7031 31.4996C93.4389 27.5778 86.2057 28.9269 77.6769 32.3227C81.0725 23.794 82.4215 16.561 78.4999 14.2969C74.5781 12.0326 68.9885 16.8176 63.3002 24.0229C61.9766 14.9388 59.5284 8 54.9999 8C50.4716 8 48.0234 14.9384 46.6997 24.0222Z" fill="url(#paint0_linear_255_165)"/>
<path d="M46.6997 24.0222L45.13 25.2615L48.0089 28.9081L48.6788 24.3105L46.6997 24.0222ZM31.5007 14.297L30.5007 12.5649L31.5007 14.297ZM32.324 32.3235L31.5841 34.1816L35.9008 35.9004L34.1821 31.5836L32.324 32.3235ZM14.2968 31.4999L12.5647 30.4999H12.5647L14.2968 31.4999ZM24.0228 46.6996L24.3111 48.6787L28.9088 48.0088L25.262 45.1298L24.0228 46.6996ZM24.0225 63.3001L25.2617 64.8698L28.9084 61.9909L24.3108 61.321L24.0225 63.3001ZM14.2969 78.4993L16.029 77.4993H16.029L14.2969 78.4993ZM32.3233 77.6761L34.1814 78.416L35.9002 74.0993L31.5835 75.818L32.3233 77.6761ZM31.4999 95.7029L30.4999 97.435L31.4999 95.7029ZM46.6996 85.977L48.6787 85.6886L48.0088 81.0909L45.1298 84.7377L46.6996 85.977ZM63.3002 85.9763L64.87 84.737L61.991 81.0901L61.3211 85.6879L63.3002 85.9763ZM78.5005 95.7031L79.5005 97.4352L78.5005 95.7031ZM77.6775 77.6771L78.4173 75.8189L74.1007 74.1003L75.8193 78.4169L77.6775 77.6771ZM95.7028 78.4999L93.9708 77.4999L95.7028 78.4999ZM85.9768 63.3002L85.6884 61.3211L81.0908 61.991L84.7375 64.87L85.9768 63.3002ZM85.9766 46.6996L84.7373 45.1298L81.0905 48.0088L85.6882 48.6787L85.9766 46.6996ZM95.7031 31.4996L97.4351 30.4996V30.4996L95.7031 31.4996ZM77.6769 32.3227L75.8188 31.5829L74.1001 35.8995L78.4167 34.1808L77.6769 32.3227ZM78.4999 14.2969L77.4999 16.0289L78.4999 14.2969ZM63.3002 24.0229L61.3211 24.3113L61.991 28.9089L64.87 25.2622L63.3002 24.0229ZM48.2695 22.7829C45.3888 19.134 42.4245 15.9523 39.5825 13.9687C36.8209 12.0412 33.5201 10.8217 30.5007 12.5649L32.5007 16.029C33.403 15.5081 34.8577 15.5488 37.2931 17.2487C39.6482 18.8925 42.3226 21.7055 45.13 25.2615L48.2695 22.7829ZM30.5007 12.5649C27.4812 14.3082 26.887 17.7768 27.1756 21.1323C27.4726 24.5856 28.7461 28.7439 30.4659 33.0633L34.1821 31.5836C32.5061 27.3741 31.407 23.6513 31.1609 20.7896C30.9064 17.8302 31.5985 16.5499 32.5007 16.029L30.5007 12.5649ZM33.0638 30.4653C28.7443 28.7454 24.5858 27.4719 21.1324 27.1748C17.7767 26.8862 14.3081 27.4803 12.5647 30.4999L16.0288 32.4999C16.5498 31.5977 17.8301 30.9055 20.7896 31.1601C23.6515 31.4063 27.3745 32.5054 31.5841 34.1816L33.0638 30.4653ZM12.5647 30.4999C10.8214 33.5194 12.041 36.8203 13.9687 39.582C15.9525 42.4241 19.1344 45.3885 22.7835 48.2693L25.262 45.1298C21.7058 42.3223 18.8927 39.6478 17.2487 37.2926C15.5486 34.857 15.5079 33.4022 16.0288 32.4999L12.5647 30.4999ZM23.7344 44.7205C19.1338 45.3908 14.896 46.3671 11.7569 47.8365C8.70667 49.2644 6 51.5132 6 54.9998H10C10 53.958 10.7627 52.7185 13.4528 51.4592C16.0541 50.2415 19.8276 49.3319 24.3111 48.6787L23.7344 44.7205ZM6 54.9998C6 58.4864 8.70662 60.7352 11.7568 62.1631C14.8958 63.6325 19.1336 64.6088 23.7341 65.2792L24.3108 61.321C19.8274 60.6677 16.0539 59.7581 13.4527 58.5404C10.7626 57.2811 10 56.0417 10 54.9998H6ZM22.7832 61.7303C19.1343 64.611 15.9524 67.5754 13.9687 70.4174C12.0411 73.1791 10.8216 76.4799 12.5649 79.4993L16.029 77.4993C15.5081 76.5971 15.5488 75.1424 17.2488 72.7068C18.8926 70.3517 21.7057 67.6773 25.2617 64.8698L22.7832 61.7303ZM12.5649 79.4993C14.3082 82.5188 17.7767 83.113 21.1322 82.8245C24.5855 82.5275 28.7437 81.254 33.0631 79.5343L31.5835 75.818C27.374 77.494 23.6512 78.5931 20.7895 78.8392C17.8301 79.0937 16.5499 78.4016 16.029 77.4993L12.5649 79.4993ZM30.4652 76.9363C28.7453 81.2558 27.4718 85.4141 27.1748 88.8675C26.8862 92.2231 27.4804 95.6917 30.4999 97.435L32.4999 93.9709C31.5977 93.45 30.9056 92.1697 31.1601 89.2102C31.4062 86.3485 32.5053 82.6256 34.1814 78.416L30.4652 76.9363ZM30.4999 97.435C33.5194 99.1783 36.8203 97.9587 39.582 96.031C42.4241 94.0472 45.3885 90.8653 48.2693 87.2162L45.1298 84.7377C42.3223 88.2939 39.6478 91.107 37.2926 92.751C34.857 94.4511 33.4022 94.4918 32.4999 93.9709L30.4999 97.435ZM44.7205 86.2653C45.3908 90.8659 46.3671 95.1037 47.8365 98.2428C49.2644 101.293 51.5132 104 54.9998 104V99.9997C53.958 99.9997 52.7185 99.237 51.4592 96.5469C50.2415 93.9456 49.3319 90.1721 48.6787 85.6886L44.7205 86.2653ZM54.9998 104C58.4865 104 60.7354 101.293 62.1633 98.2425C63.6327 95.1033 64.609 90.8653 65.2793 86.2646L61.3211 85.6879C60.6678 90.1716 59.7582 93.9453 58.5405 96.5467C57.2812 99.237 56.0417 99.9997 54.9998 99.9997V104ZM61.7304 87.2155C64.6113 90.8648 67.5759 94.047 70.4181 96.0309C73.1799 97.9588 76.4809 99.1786 79.5005 97.4352L77.5005 93.9711C76.5982 94.492 75.1434 94.4512 72.7076 92.751C70.3523 91.1069 67.6776 88.2935 64.87 84.737L61.7304 87.2155ZM79.5005 97.4352C82.52 95.6919 83.1142 92.2235 82.8257 88.868C82.5287 85.4148 81.2553 81.2566 79.5356 76.9373L75.8193 78.4169C77.4953 82.6263 78.5943 86.3491 78.8404 89.2107C79.0948 92.17 78.4028 93.4502 77.5005 93.9711L79.5005 97.4352ZM76.9377 79.5352C81.2568 81.2549 85.4149 82.5282 88.8679 82.8251C92.2233 83.1135 95.6916 82.5193 97.4349 79.4999L93.9708 77.4999C93.4499 78.4021 92.1697 79.0942 89.2106 78.8398C86.3491 78.5937 82.6265 77.4948 78.4173 75.8189L76.9377 79.5352ZM97.4349 79.4999C99.1782 76.4804 97.9586 73.1795 96.0309 70.4178C94.0471 67.5757 90.8651 64.6112 87.2161 61.7304L84.7375 64.87C88.2937 67.6775 91.1069 70.352 92.7509 72.7072C94.451 75.1428 94.4917 76.5976 93.9708 77.4999L97.4349 79.4999ZM86.2652 65.2793C90.8657 64.609 95.1036 63.6327 98.2427 62.1633C101.293 60.7354 104 58.4866 104 54.9999H99.9997C99.9997 56.0418 99.237 57.2813 96.5469 58.5405C93.9456 59.7582 90.172 60.6678 85.6884 61.3211L86.2652 65.2793ZM104 54.9999C104 51.5133 101.293 49.2644 98.2426 47.8366C95.1035 46.3671 90.8655 45.3908 86.2649 44.7205L85.6882 48.6787C90.1718 49.332 93.9454 50.2416 96.5468 51.4593C99.237 52.7186 99.9997 53.9581 99.9997 54.9999H104ZM87.2158 48.2694C90.865 45.3885 94.0471 42.424 96.031 39.5819C97.9588 36.8201 99.1785 33.5191 97.4351 30.4996L93.971 32.4996C94.492 33.4018 94.4512 34.8567 92.751 37.2924C91.107 39.6477 88.2936 42.3222 84.7373 45.1298L87.2158 48.2694ZM97.4351 30.4996C95.6918 27.4801 92.2234 26.8859 88.8679 27.1744C85.4146 27.4714 81.2564 28.7448 76.9371 30.4645L78.4167 34.1808C82.6262 32.5048 86.3489 31.4058 89.2106 31.1597C92.1699 30.9052 93.4501 31.5973 93.971 32.4996L97.4351 30.4996ZM79.535 33.0625C81.2547 28.7432 82.5281 24.5851 82.825 21.1319C83.1136 17.7765 82.5193 14.3081 79.4999 12.5648L77.4999 16.0289C78.4021 16.5498 79.0942 17.83 78.8397 20.7893C78.5937 23.6508 77.4947 27.3735 75.8188 31.5829L79.535 33.0625ZM79.4999 12.5648C76.4804 10.8215 73.1795 12.0411 70.4178 13.9688C67.5757 15.9526 64.6112 19.1346 61.7304 22.7836L64.87 25.2622C67.6775 21.706 70.352 18.8928 72.7072 17.2488C75.1428 15.5487 76.5976 15.508 77.4999 16.0289L79.4999 12.5648ZM65.2793 23.7345C64.609 19.1339 63.6327 14.8961 62.1633 11.757C60.7354 8.7067 58.4865 6 54.9999 6V10C56.0418 10 57.2813 10.7627 58.5405 13.4528C59.7582 16.0541 60.6678 19.8277 61.3211 24.3113L65.2793 23.7345ZM54.9999 6C51.5134 6 49.2646 8.70656 47.8367 11.7567C46.3673 14.8957 45.391 19.1334 44.7206 23.7338L48.6788 24.3105C49.3321 19.8272 50.2417 16.0538 51.4594 13.4526C52.7187 10.7626 53.9581 10 54.9999 10V6Z" fill="black" mask="url(#path-1-inside-1_255_165)"/>
<path d="M55.0009 70.405C53.2609 70.405 51.7309 69.67 50.4109 68.2C49.0909 66.73 48.0709 64.735 47.3509 62.215C46.6309 59.695 46.2709 56.875 46.2709 53.755C46.2709 50.635 46.6309 47.83 47.3509 45.34C48.0709 42.82 49.0909 40.825 50.4109 39.355C51.7309 37.885 53.2609 37.15 55.0009 37.15C56.7409 37.15 58.2559 37.885 59.5459 39.355C60.8659 40.825 61.8859 42.82 62.6059 45.34C63.3559 47.83 63.7309 50.635 63.7309 53.755C63.7309 56.875 63.3559 59.695 62.6059 62.215C61.8859 64.735 60.8659 66.73 59.5459 68.2C58.2559 69.67 56.7409 70.405 55.0009 70.405ZM55.0009 69.19C56.8909 69.19 58.2709 67.915 59.1409 65.365C60.0409 62.815 60.4909 58.945 60.4909 53.755C60.4909 48.565 60.0409 44.71 59.1409 42.19C58.2709 39.64 56.8909 38.365 55.0009 38.365C53.1109 38.365 51.7159 39.64 50.8159 42.19C49.9459 44.71 49.5109 48.565 49.5109 53.755C49.5109 58.945 49.9459 62.815 50.8159 65.365C51.7159 67.915 53.1109 69.19 55.0009 69.19Z" fill="black"/>
<defs>
<linearGradient id="paint0_linear_255_165" x1="79.424" y1="13.299" x2="3.26952" y2="74.9802" gradientUnits="userSpaceOnUse">
<stop stop-color="#FCEE84"/>
<stop offset="1" stop-color="#92E8A5"/>
</linearGradient>
</defs>
</svg>
