<svg width="100" height="100" viewBox="0 0 100 100" fill="none" xmlns="http://www.w3.org/2000/svg">
<path d="M48 7.30957C49.1602 6.63972 50.5729 6.59753 51.7646 7.18359L52 7.30957L85.9707 26.9229C87.2083 27.6374 87.9707 28.9577 87.9707 30.3867V69.6133C87.9707 70.9531 87.3009 72.1975 86.1973 72.9365L85.9707 73.0771L52 92.6904C50.8398 93.3603 49.4271 93.4025 48.2354 92.8164L48 92.6904L14.0293 73.0771C12.7917 72.3626 12.0293 71.0423 12.0293 69.6133V30.3867C12.0293 29.0469 12.6991 27.8025 13.8027 27.0635L14.0293 26.9229L48 7.30957Z" fill="url(#paint0_linear_255_133)" stroke="black" stroke-width="2"/>
<path d="M50.0009 65.405C48.2609 65.405 46.7309 64.67 45.4109 63.2C44.0909 61.73 43.0709 59.735 42.3509 57.215C41.6309 54.695 41.2709 51.875 41.2709 48.755C41.2709 45.635 41.6309 42.83 42.3509 40.34C43.0709 37.82 44.0909 35.825 45.4109 34.355C46.7309 32.885 48.2609 32.15 50.0009 32.15C51.7409 32.15 53.2559 32.885 54.5459 34.355C55.8659 35.825 56.8859 37.82 57.6059 40.34C58.3559 42.83 58.7309 45.635 58.7309 48.755C58.7309 51.875 58.3559 54.695 57.6059 57.215C56.8859 59.735 55.8659 61.73 54.5459 63.2C53.2559 64.67 51.7409 65.405 50.0009 65.405ZM50.0009 64.19C51.8909 64.19 53.2709 62.915 54.1409 60.365C55.0409 57.815 55.4909 53.945 55.4909 48.755C55.4909 43.565 55.0409 39.71 54.1409 37.19C53.2709 34.64 51.8909 33.365 50.0009 33.365C48.1109 33.365 46.7159 34.64 45.8159 37.19C44.9459 39.71 44.5109 43.565 44.5109 48.755C44.5109 53.945 44.9459 57.815 45.8159 60.365C46.7159 62.915 48.1109 64.19 50.0009 64.19Z" fill="black"/>
<defs>
<linearGradient id="paint0_linear_255_133" x1="79.4625" y1="19.6411" x2="1.31538" y2="39.5106" gradientUnits="userSpaceOnUse">
<stop stop-color="#FEDB9A"/>
<stop offset="1" stop-color="#FF6B57"/>
</linearGradient>
</defs>
</svg>
