<svg width="100" height="100" viewBox="0 0 100 100" fill="none" xmlns="http://www.w3.org/2000/svg">
<path d="M87.4033 53.3896C91.3734 60.2467 92.55 68.3585 90.708 76.0449L90.5205 76.7871L87.6631 87.5283C87.4501 88.3281 86.7261 88.8846 85.8984 88.8848L10.5459 88.8848C9.16306 88.8848 8.33648 87.3748 9.03418 86.2197L9.10644 86.1094L12.623 81.1201C19.6689 71.123 20.0352 57.8974 13.6025 47.5391L13.291 47.0478C8.9421 40.3325 7.65639 32.0972 9.72851 24.3945L9.93945 23.6504L13.334 12.2832C13.5409 11.5904 14.1784 11.1154 14.9014 11.1152L89.3301 11.1152L89.4795 11.1201C90.9463 11.2215 91.8335 12.8103 91.1504 14.1123L91.0762 14.2422L87.8691 19.4473C81.581 29.652 81.3092 42.4447 87.1221 52.8936L87.4033 53.3896Z" fill="url(#paint0_linear_255_151)" stroke="black" stroke-width="2.23"/>
<path d="M49.5009 65.405C47.7609 65.405 46.2309 64.67 44.9109 63.2C43.5909 61.73 42.5709 59.735 41.8509 57.215C41.1309 54.695 40.7709 51.875 40.7709 48.755C40.7709 45.635 41.1309 42.83 41.8509 40.34C42.5709 37.82 43.5909 35.825 44.9109 34.355C46.2309 32.885 47.7609 32.15 49.5009 32.15C51.2409 32.15 52.7559 32.885 54.0459 34.355C55.3659 35.825 56.3859 37.82 57.1059 40.34C57.8559 42.83 58.2309 45.635 58.2309 48.755C58.2309 51.875 57.8559 54.695 57.1059 57.215C56.3859 59.735 55.3659 61.73 54.0459 63.2C52.7559 64.67 51.2409 65.405 49.5009 65.405ZM49.5009 64.19C51.3909 64.19 52.7709 62.915 53.6409 60.365C54.5409 57.815 54.9909 53.945 54.9909 48.755C54.9909 43.565 54.5409 39.71 53.6409 37.19C52.7709 34.64 51.3909 33.365 49.5009 33.365C47.6109 33.365 46.2159 34.64 45.3159 37.19C44.4459 39.71 44.0109 43.565 44.0109 48.755C44.0109 53.945 44.4459 57.815 45.3159 60.365C46.2159 62.915 47.6109 64.19 49.5009 64.19Z" fill="black"/>
<defs>
<linearGradient id="paint0_linear_255_151" x1="71.3362" y1="10" x2="-3.27814" y2="34.3722" gradientUnits="userSpaceOnUse">
<stop stop-color="#F4FFEA"/>
<stop offset="1" stop-color="#A8FF60"/>
</linearGradient>
</defs>
</svg>
