<svg width="100" height="100" viewBox="0 0 100 100" fill="none" xmlns="http://www.w3.org/2000/svg">
<path d="M50 11C74.4145 11 94 28.5684 94 50C94 71.4316 74.4145 89 50 89C25.5855 89 6 71.4316 6 50C6 28.5684 25.5855 11 50 11Z" fill="url(#paint0_linear_255_126)" stroke="black" stroke-width="2"/>
<path d="M50.0009 65.905C48.2609 65.905 46.7309 65.17 45.4109 63.7C44.0909 62.23 43.0709 60.235 42.3509 57.715C41.6309 55.195 41.2709 52.375 41.2709 49.255C41.2709 46.135 41.6309 43.33 42.3509 40.84C43.0709 38.32 44.0909 36.325 45.4109 34.855C46.7309 33.385 48.2609 32.65 50.0009 32.65C51.7409 32.65 53.2559 33.385 54.5459 34.855C55.8659 36.325 56.8859 38.32 57.6059 40.84C58.3559 43.33 58.7309 46.135 58.7309 49.255C58.7309 52.375 58.3559 55.195 57.6059 57.715C56.8859 60.235 55.8659 62.23 54.5459 63.7C53.2559 65.17 51.7409 65.905 50.0009 65.905ZM50.0009 64.69C51.8909 64.69 53.2709 63.415 54.1409 60.865C55.0409 58.315 55.4909 54.445 55.4909 49.255C55.4909 44.065 55.0409 40.21 54.1409 37.69C53.2709 35.14 51.8909 33.865 50.0009 33.865C48.1109 33.865 46.7159 35.14 45.8159 37.69C44.9459 40.21 44.5109 44.065 44.5109 49.255C44.5109 54.445 44.9459 58.315 45.8159 60.865C46.7159 63.415 48.1109 64.69 50.0009 64.69Z" fill="black"/>
<defs>
<linearGradient id="paint0_linear_255_126" x1="79.4625" y1="23.0143" x2="11.931" y2="49.0133" gradientUnits="userSpaceOnUse">
<stop stop-color="#CEFBFF"/>
<stop offset="1" stop-color="#88D4F7"/>
</linearGradient>
</defs>
</svg>
